<?xml version="1.0" encoding="UTF-8"?><svg id="Layer_1" xmlns="http://www.w3.org/2000/svg" viewBox="0 0 71.21 85.1"><path d="M22.67,49.08c-1.05,.04-2.09-.01-3.06-.49-.42-.21-.74,.07-1.09,.22-5.14,2.29-12.24-1.47-13.23-7.05-.66,.15-1.2,.61-1.89,.68-1.33,.13-1.99-.49-1.82-1.82,.06-.51,.27-.97,.51-1.42,.23-.42,.49-.82,.77-1.29-1.02-.3-1.94-.75-2.54-1.65v-.72c.88-.98,1.98-1.63,3.26-1.89,.58-.12,.42-.38,.32-.71-1.03-3.41-.68-6.62,1.4-9.57,.87-1.23,2.03-2.13,3.4-2.72,.43-.19,.67-.4,.74-.88,.44-3,3.15-5.89,7.27-5.68,.64,.03,.72-.39,.93-.76,2.85-4.9,6.87-8.34,12.42-9.78,3.56-.93,7.06-.67,10.42,.89,.52,.24,.66,.16,.89-.34,.73-1.64,1.92-2.89,3.46-3.78,1.08-.62,1.88-.33,2.39,.81,.51,1.14,.26,2.28-.06,3.47,.56-.06,1.05-.14,1.54-.15,1.57-.03,2.32,1.2,1.62,2.61-.28,.56-.71,.97-1.2,1.32-.27,.2-.31,.29-.02,.51,.6,.46,1.04,1.07,1.4,1.74,.12,.22,.23,.37,.54,.34,3.27-.35,5.64,1.19,7.5,3.69,1.36,1.83,2.26,3.87,2.2,6.22-.01,.44,.07,.63,.58,.59,5.26-.42,8.89,4.09,9.7,8.64,.47,2.64,.12,5.13-1.39,7.39-.23,.34-.15,.58-.03,.9,.98,2.5,.39,4.21-1.92,5.62-1.75,1.06-3.69,1.38-5.68,1.37-2.4,0-4.68-.55-6.68-1.97-.24-.81,.22-1.33,.75-1.81,.29-.02,.51,.15,.74,.29,2.75,1.69,5.66,1.73,8.67,.86,.12-.03-.03,.02,.08-.03,3.17-1.34,2.74-2.6,1.35-5.03-.33-.57-.87-.53-1.41-.2-1.21,.73-1.22,.73-2.28-.22-.35-.31-.71-.4-1.16-.27-.48,.15-.93,.09-1.1-.46-.16-.51,.12-.85,.55-1.11,.84-.5,1.61-.27,2.37,.17,.27,.16,.49,.5,.87,.26,.88-.44,1.78-.53,2.69-.11,.4,.19,.69,.14,.91-.25,.93-1.7,1.02-3.5,.57-5.33-.7-2.83-2.06-5.19-4.95-6.31-1.14-.44-2.33-.57-3.51-.09-1.38,.79-1.58,.78-2.76-.26-1.37-1.21-3.56-1.29-5.48-.16-1.25,.74-2.19,1.77-2.69,3.16-.44,1.07-.56,2.22-.63,3.35-.05,.79-.39,1.33-1.06,1.64-2.63,1.21-2.03,3.73-.38,5.19,.77,.67,1.68,1.04,2.66,1.26,.41,.09,.84,.12,1.2,.36,.16,.58-.38,.67-.66,.91-.38,.33-.77,.68-1.29,.78-.3,.06-.61,.04-.87-.12-.93-.56-1.77-.46-2.73,.04-.76,.4-1.61,.8-2.56,.57-.54-.47-.71-1.1-.72-1.78,.5-.51,1.22-.46,1.83-.67,.8-.28,.83-.32,.38-1.03-.84-1.36-1.22-2.8-.8-4.38,.29-1.08,.83-2.03,1.81-2.58,.76-.43,.98-1.07,1.06-1.84,.12-1.24,.5-2.39,1.06-3.51,1.59-3.2,6.01-5.67,10.18-3.8,.67,.3,.73,0,.67-.52-.12-1.05-.39-2.06-.93-2.98-.23-.48-.6-.88-.81-1.37-1.99-3.42-6.51-3.92-9.06-1.83-.66,.4-1.2,.17-1.69-.33-.17-.17-.31-.37-.48-.54-.98-.95-2.1-.97-3.12-.05-.99,.89-1.25,.9-2.32,.11-.88-.65-1.08-.64-1.92,.14-.39,.37-.83,.74-1.33,.3-.54-.46-.24-.99,.09-1.44,.82-1.11,2.26-1.45,3.54-.79,.5,.26,.89,.32,1.4-.03,1.38-.95,2.96-.92,4.25,.13,.62,.51,1.14,.57,1.77,.15,.57-.16,.67-.43,.22-.86-.49-.47-.92-1.03-1.61-1.24-.53-.28-.75-.72-.73-1.31,.23-1.16,1.38-1.27,2.12-1.91-.29,.03-.5,.22-.76,.28-.62,.16-1.14,.5-1.68,.83-.78,.48-1.39,.31-1.87-.45-.11-.58,.11-1.04,.44-1.5,.63-.88,1.16-1.82,1.14-2.96,0-.15,.03-.29,.05-.46-1.35,.96-2.24,2.21-2.58,3.82-.33,.72-.84,1.1-1.67,.89-.78-.23-1.43-.74-2.2-1.03-4.18-1.59-8.2-1.13-12.08,.92-1.48,.79-2.88,1.73-3.98,3.05-1.7,1.4-2.87,3.19-3.85,5.13-.57,1.12-1.04,1.32-2.24,1.08-2.23-.45-4.7,1.19-5.25,3.49-.07,.29-.14,.58-.18,.88-.12,.85-.59,1.39-1.38,1.73-1.55,.66-2.87,1.61-3.6,3.21-1.26,2.52-1.36,5.07-.16,7.64,.68,1.46,.17,2.29-1.46,2.43-.36,.03-.72,0-1.05,.23,.19,.21,.45,.16,.67,.21,1.36,.3,1.71,1.32,.81,2.39-.38,.45-.8,.88-1.14,1.5,.42-.3,.69-.62,.98-.9,.4-.38,.81-.79,1.42-.48,.58,.3,.88,.81,.88,1.47,.05,3.49,1.94,6.05,5.29,7.05,1.81,.54,3.62,.58,5.35-.33,.77-.4,1.53-.46,2.34-.09,.61,.28,1.26,.4,1.93,.4,.3,0,.61,0,.84,.24,.07,.66,.13,1.31-.45,1.8Z" fill="#319d29"/><path d="M58.75,83.35c-2.32,.6-4.68,.97-7.06,1.23-.86,.09-1.73,.17-2.59,.19-2.31,.05-4.61,.3-6.92,.23-1.1-.03-2.22,.11-3.32,.11-3.68-.01-7.38-.1-11.05-.36-3.72-.26-7.44-.65-11.08-1.57-.06-.01-.12,0-.18,0-.28-.25-.66-.26-.98-.41-.46-.21-.97-.38-1.37-.68-1.17-.88-2.28-1.78-3.66-2.4-1.2-.54-1.07-1.82,.05-2.56,1.15-.77,2.46-1.03,3.81-1.15,0,1.24,.25,1.44,1.52,1.28,4.34-.55,8.51-.09,12.42,2,.84,.45,1.62,.29,2.44,.03,3.38-1.06,6.85-1.6,10.39-1.57,2.9,.02,5.75,.44,8.48,1.5,.76,.29,1.41,.26,2.15-.1,3.78-1.83,7.74-2.78,11.96-2.11,.44,.07,.9-.13,1.33,.09,.67,.23,1.35,.45,2.01,.71,.56,.22,1.01,.6,1.01,1.24,0,.6-.42,.94-.93,1.21-1.61,.84-3.37,.96-5.12,1.11-.56,.05-1,.09-1.35,.64-.44,.7-1.25,.98-1.96,1.35Z" opacity=".3"/><path d="M65.08,77.08c-.52,.43-1.1,.19-1.64,.12-4.22-.58-8.13,.38-11.85,2.31-.54,.28-.98,.31-1.52,.1-3.75-1.43-7.63-1.87-11.63-1.54-2.7,.22-5.32,.74-7.89,1.55-.8,.25-1.51,.24-2.3-.18-3.26-1.69-6.74-2.38-10.41-2.08-.87,.07-1.73,.14-2.6,.22-.45,.04-.82-.07-1.08-.48-.29-.46,0-.79,.25-1.13,.3-.07,.6-.15,.89-.22,.38-.41,.89-.4,1.39-.41,.38,0,.76,.03,1.13-.1,3.7-.24,7.24,.39,10.59,1.97,.79,.37,1.48,.43,2.32,.18,6.37-1.86,12.75-2.2,19.13-.06,.56,.19,1.03,.12,1.55-.12,2.64-1.2,5.4-1.99,8.31-2.24,.64,.02,1.3-.12,1.9,.24,.86,0,1.72,.05,2.57,.22,.88,.17,1.47,.8,.89,1.65Z" fill="#047425"/><path d="M61.62,75.21c-.66,0-1.32,0-1.98,0-.77-.7-.84-1.74-1.26-2.61-.37-1.05-.71-2.11-1.13-3.13-.01-.33-.14-.62-.35-.88-.08-.12-.13-.24-.16-.37-.87-3.12-1.97-6.17-2.75-9.31-.86-3.49-1.8-6.96-1.81-10.61,0-1.96,.39-3.8,1.12-5.6,.12-.25,.27-.48,.35-.74,.18-.49,.43-.94,.64-1.41,.41-.53,.4-1.37,1.18-1.64,.58,.32,1.06,.75,1.4,1.32-.1,.58-.29,1.11-.81,1.45-.28,.57-.67,1.1-.74,1.75-1.13,2.12-1.33,4.41-.99,6.71,1.22,8.36,3.86,16.33,6.95,24.16,.12,.3,.23,.61,.34,.92Z" fill="#754d31"/><path d="M17.83,75.43c-.81,.35-1.71,.03-2.53,.32,.81-4.31,1.97-8.53,3.25-12.72,1.2-3.93,2.62-7.79,3.68-11.76,.19-.72,.3-1.46,.44-2.18,.11-.61,.23-1.21,.34-1.82-.18-.22-.24-.5-.19-.76,.32-1.51-.09-2.88-.76-4.2,.15-.77,.3-1.55,.93-2.12,.75,.27,.95,1.01,1.36,1.58,1.2,1.99,.97,4.13,.66,6.28-.22,1.48-.56,2.94-.88,4.39-1.98,6.39-4.19,12.71-5.8,19.21-.22,.87-.38,1.76-.57,2.64-.09,.39-.08,.77,.06,1.15Z" fill="#754d31"/><path d="M46.12,8.48c-.01,.54,.32,.9,.66,1.26,.78,.59,1.43,1.26,1.54,2.29-.24,.13-.48,.24-.71,.39-.35,.22-.61,.21-.95-.09-1.7-1.5-2.96-1.56-4.83-.26-.33,.23-.53,.27-.91,0-1.28-.94-2.88-.66-3.71,.59-.23,.35-.5,.77-.04,1.12,.41,.3,.72-.02,.99-.32,.96-1.04,1.27-1.08,2.37-.1,.64,.57,1.15,.57,1.77-.04,1.37-1.36,2.73-1.24,3.95,.32,.41,.53,.85,.85,1.51,.43,3.59-1.38,6.68-.43,9.47,2,.12,.46,.6,.74,.62,1.25,.2,.26,.19,.57,.22,.86,.17,1.75-.2,2.11-1.92,1.84-3.42-.53-6.26,.66-8.72,2.94-.66,.61-1.32,1.23-1.87,1.95-.3,.39-.67,.59-1.17,.52-1.04-.15-1.99,.14-2.79,.76-.64,.5-1.07,.36-1.63-.14-2.6-2.31-5.57-2.75-8.82-1.64-1.33,.45-2.33,1.36-3.23,2.38-.4,.45-.76,.56-1.33,.3-.81-.38-1.69-.41-2.56-.2-.49,.12-.93,.09-1.34-.28-2.41-2.16-5.15-2.2-8-1.12-2.24,.85-4.08,2.27-5.5,4.22-.12,.17-.25,.34-.38,.5-.56,.66-.83,.68-1.32,0-1.03-1.42-1.85-2.91-1.23-4.76,.65-1.71,2.04-2.61,3.61-3.29,.76-.33,1.18-.77,1.31-1.63,.43-2.75,1.99-4.23,4.73-4.61,.33-.05,.65,.02,.97,.11,1.06,.29,1.44,.13,1.93-.88,.77-1.57,1.76-2.99,2.87-4.34,.3-.37,.79-.44,1.02-.85,4.33-3.43,9.24-4.8,14.71-4.02,1.07,.15,2.1,.46,3.09,.93,.26,.12,.53,.33,.82,.05,.74,.22,1.05-.35,1.43-.78,.39-.52,.72-1.08,1.04-1.64,.21-.36,.35-.91,.97-.83,.34,.93-.13,1.67-.61,2.38-.28,.4-.47,.75-.19,1.21,.43,.76,1.01,.69,1.62,.27,.56-.38,1.1-.79,1.81-.81,.05,.43-.35,.5-.59,.68-.39,.28-.78,.55-.67,1.12Z" fill="#71e21f"/><path d="M6.25,25.43c-.15,1.76,.36,3.3,1.44,4.69,.32,.42,.46,.63,.86,.03,1.16-1.74,2.64-3.18,4.49-4.17,2.98-1.6,6.05-2.2,9.06-.15,.85,.58,1.52,1.08,2.59,.71,.56-.19,1.27-.09,1.75,.22,.78,.5,1.14,.07,1.56-.43,2.9-3.5,8.96-3.74,12.36-.24,.31,.32,.48,.35,.87,.05,.97-.73,2.04-1.25,3.32-.91,.43,.11,.62-.23,.86-.51,1.87-2.21,3.99-4.05,6.88-4.8,1.57-.41,3.16-.32,4.71-.03,.64,.12,.76-.19,.8-.6,.07-.65,.03-1.32,.04-1.98,.89,1.17,1.11,2.53,1.07,3.96-.01,.4-.22,.32-.48,.17-4.9-2.78-10.95,1.06-11.42,6.71-.08,.91-.31,1.61-1.21,2.17-2.05,1.26-2.46,4.21-1.03,6.48,.75,1.18,.73,1.24-.66,1.6-.52,.14-1.04,.26-1.56,.38-.38-.22-.48-.62-.54-.99-.3-1.71-.37-3.44-.38-5.17,.18-.42,.59-.46,.95-.58,.27-.09,.5-.24,.51-.55,.01-.35-.23-.61-.53-.64-1.19-.1-2.25-.56-3.3-1.06-.28-.13-.6-.04-.87,.08-1.04,.47-2.09,.9-3.26,.9-.15,0-.29,.07-.42,.15-.22,.13-.37,.31-.37,.58,0,.28,.19,.42,.43,.51,.3,.11,.67,.08,.83,.45-.25,1.71-.69,3.36-1.75,4.77-1,.09-1.98-.1-2.95-.28-.97-.18-1.82-.07-2.57,.68-.41,.41-.84,.88-1.48,.96-.2,0-.37-.06-.46-.25-.07-.35,.25-.52,.37-.78,.14-.28,.22-.57-.02-.83-.24-.26-.54-.21-.83-.09-.28,.12-.52,.3-.77,.46-.68,.45-1.41,.79-2.24,.83-.81,.04-1.26,.52-1.4,1.28-.17,.97-.56,1.82-1.14,2.61-.11,.14-.21,.3-.26,.47-.09,.28-.08,.54,.16,.74,.24,.2,.49,.11,.75,0,.43-.2,.56-.79,1.12-.81,.87,1.16,1.2,2.44,.94,3.88-.07,.38-.05,.78-.08,1.17-1.06,.07-2.1-.02-3.06-.52-.64-.33-1.23-.11-1.8,.18-4.06,2.08-9.14-.36-10.71-4.22-.32-.79-.58-1.62-.31-2.53,.18-.62-.19-1.12-.69-1.45-.56-.37-.86,.15-1.21,.46-.48,.42-.81,1.04-1.59,1.19,.26-.8,.71-1.38,1.23-1.91,.4-.41,.84-.81,.58-1.48-.24-.6-.74-.71-1.31-.74-.34-.02-.68-.16-1.14-.28,.51-.5,1.04-.59,1.6-.61,1.74-.05,2.07-.68,1.36-2.27-1.16-2.58-1.12-5.16,.3-7.66Z" fill="#42c738"/><path d="M56.06,41.68l.73-1.44c.3-.25,.63-.03,.95-.06,.32-.03,.59-.12,.68-.47,.08-.3-.07-.54-.31-.68-.74-.43-1.29-1.05-1.83-1.69-.33-.4-.8-.5-1.31-.39-.58,.13-1.12,.03-1.65-.22-.41-.2-.84-.62-1.3-.16-.45,.45,0,.89,.12,1.32-.1,.42-.36,.61-.79,.56-1.94-.25-3.74-.75-4.92-2.52-1.27-1.91-.56-3.87,1.3-4.57,.62-.23,.91-.74,.96-1.47,.08-1.14,.07-2.33,.69-3.37,.36,.37,.21,.85,.26,1.28,.11,.91,.21,.98,1.04,.61,.97-.43,1.99-.64,3.04-.67,.33,0,.66,.02,.9,.31-.09,.9-.31,1.11-1.19,.83-1.14-.36-2.09,.84-1.99,1.9,.01,.15,.02,.32,.19,.37,.17,.05,.27-.08,.35-.21,.08-.13,.13-.27,.19-.41,.46-1.05,.59-1.12,1.57-.51,.59,.36,.94,.24,1.19-.36,.09-.22,.21-.43,.35-.63,.28-.39,.61-.58,1.06-.27,.31,.21,.67,.24,1.02,.31,1.05,.55,1.64,1.47,1.96,2.56,.16,.55,.44,.86,1,1.01,.89,.24,1.49,.86,1.89,1.67,.19,.38,.41,.63,.83,.73,.72,.16,1.32,.55,1.85,1.04-.31,.44-.55,.24-.86-.03-.89-.77-1.72-.85-2.54-.33-.38,.24-.48,.57-.32,.91,.16,.35,.5,.39,.84,.18,.64-.39,1.11-.06,1.45,.43,.51,.73,1.01,.78,1.71,.25,1.08-.82,1.62-.67,2.22,.54,.25,.51,.47,1.03,.68,1.56,.5,1.3-.12,1.95-.96,2.6-1.53,1.16-3.36,1.39-5.19,1.38-2.12-.01-4.15-.51-5.86-1.89Z" fill="#42c738"/><path d="M54.61,28.14c-1.54-.47-2.94,.04-4.27,.73-.6,.31-.7,.21-.84-.4-.15-.66-.06-1.31-.12-1.96,.57-1.97,1.97-3.15,3.82-3.81,1.84-.65,3.59-.57,5,1,.79,.87,1.49,.3,2.21-.09,.98-.12,1.07-.11,.94,.78-.24,1.61,1.79,2.81,3.37,1.97,1.12-.6,1.13-.61,1.94,.41,2.13,2.66,2.75,5.64,1.83,8.93-.2,.46-.36,.78-.99,.38-.83-.54-1.75-.46-2.63,0-.9-.17-1.57-.97-2.55-.97-.08,0-.17-.29-.24-.45-.38-.95-.99-1.64-2.03-1.83-.54-.1-.83-.39-.93-.93-.22-1.15-.89-2.01-1.83-2.67-.13-.13-.16-.31-.21-.48-.26-.9-.88-1.18-1.76-.83-.23,.09-.42,.35-.72,.22Z" fill="#71e21f"/><path d="M51.35,38.44c.24-.19,.49-.37,.73-.56,.68,.04,1.28,.29,1.83,.69-.09,.87-.96,.99-1.43,1.51-1.46,1.1-2.89,2.24-4.45,3.2-.33,.2-.68,.39-1.03,.56-2.39,1.17-4.08,.47-5.26-1.95-1.2-2.47-1.53-5.09-1.82-7.75,.02-.72-.14-1.45,.15-2.15,.69-.22,1.29-.15,1.75,.47,.23,2.11,.05,4.26,.74,6.31,.26,.54,.32,1.17,.7,1.66,.37,.36,.67,.77,.96,1.18,.39,.54,.83,.6,1.4,.34,.91-.41,1.74-.94,2.58-1.47,.36-.22,.72-.43,1.11-.58,.74-.41,1.37-.95,2.02-1.48Z" fill="#754d31"/><path d="M68.5,35.7c.15-1.76,.3-3.5-.17-5.25-.43-1.62-1.32-2.92-2.38-4.15-.29-.33-.45-.18-.72,.03-1.11,.87-2.54,.79-3.51-.15-.51-.49-.82-1.1-.62-1.78,.22-.75-.09-.85-.69-.79,1.95-.8,3.69-.21,5.27,.92,2.99,2.14,4.43,6.55,3.35,10.07-.12,.39-.2,.81-.53,1.1Z" fill="#fefefe"/><path d="M41.31,6.88c0,.73-.47,.41-.72,.28-2.16-1.08-4.46-1.32-6.82-1.22-3.66,.15-6.94,1.41-10,3.37-.35,.22-.72,.41-1.09,.62,1.96-2.25,4.44-3.69,7.26-4.5,3.77-1.08,7.43-.75,10.87,1.25,.15,.09,.33,.13,.49,.2Z" fill="#fdfefd"/><path d="M57.23,16.06c-1.07-.58-2.05-1.32-3.21-1.76-1.85-.69-3.72-.86-5.63-.29-.2,.06-.41,.04-.62,.05,3.12-2.39,7.36-1.5,9.47,2Z" fill="#fcfdfc"/><path d="M44.69,3.6c-.49,.47-.84,1.04-1.12,1.65-.18,.39-.44,.68-.84,.84,.14-1.89,1.33-3.06,2.75-4.08,.18,.22,.1,.42,.07,.63-.16,.44-.39,.81-.87,.96Z" fill="#f9fcf8"/><path d="M44.69,3.6c.23-.37,.51-.7,.87-.96,.18,1.29-.49,2.31-1.18,3.28-.3,.42-.47,.81-.44,1.3-.59-.36-.27-.76-.02-1.12,.52-.75,.77-1.59,.77-2.5Z" fill="#43c737"/><path d="M48.32,12.03c-.4-.84-1.03-1.52-1.54-2.29,1.05,.14,1.59,.92,2.06,1.72,.31,.53-.35,.37-.52,.57Z" fill="#f6fbf4"/><path d="M46.12,8.48c-.39-.44-.09-.75,.23-1.02,.33-.28,.69-.52,1.04-.78,.34-.22,.66-.53,1.17-.28-.6,.96-2.06,.89-2.44,2.08Z" fill="#42c537"/><path d="M17.83,75.43c-.48,.03-.48-.18-.41-.61,.45-2.65,1.13-5.25,1.91-7.82,1.44-4.72,2.93-9.41,4.41-14.12,.04-.14,.13-.26,.2-.39,.39,.42,.26,.97,.31,1.45,.16,1.55,.67,3.03,.9,4.56-.15,.48-.6,.53-.98,.69-1.85,.76-2.12,2.45-.57,3.69,.95,.76,2.07,.85,3.23,.76,.44-.03,.88-.24,1.33-.05,.71,.47,1.2,1.17,1.87,1.68,3.44,2.6,7.31,4.34,11.36,5.71,3.32,1.12,6.78,1.54,10.22,1.97,1.72,.22,3.4-.29,5.09-.41,.62-.05,1.24-.2,1.87-.03,.36,.89,.71,1.79,1.07,2.68-2.97,.32-5.82,1.09-8.49,2.43-.41,.21-.71,.15-1.08,.02-3.66-1.33-7.46-1.71-11.32-1.48-2.9,.17-5.75,.7-8.52,1.63-.42,.14-.79,.19-1.2-.02-3.51-1.83-7.28-2.46-11.21-2.35Z" fill="#8c5a3d"/><path d="M58.58,72.53c-1.33,.34-2.72,.29-4.07,.54-2.78,.51-5.46-.21-8.17-.62-4.56-.7-8.75-2.43-12.79-4.59-2.05-1.09-3.99-2.32-5.45-4.17-.02-.44,.4-.47,.64-.65,1.37-.97,1.32-2.67-.14-3.51-.76-.43-1.59-.68-2.48-.67-.37,0-.79,.1-1.09-.24-.59-2-1.1-4.01-1.08-6.12,.24-1.4,.46-2.81,.74-4.21,.47-2.27,.54-4.49-.56-6.61,.18-.88,.88-1.29,1.55-1.74,.6-.04,1.09,.29,1.62,.48,1.02,.37,2.05,.6,3.15,.68,2.04,.15,3.36-.91,4.39-2.46,.84-1.26,1.3-2.7,1.8-4.12,.15-.41,.19-.9,.66-1.13,1.13-.28,2.05,.15,2.87,.88,.29,2.64,.67,5.25,1.85,7.7,.99,2.05,2.65,2.73,4.7,1.74,2.1-1,3.81-2.57,5.71-3.86,.87-.32,1.47,.08,1.98,.73-.2,.5-.4,1-.59,1.51-.27,.12-.36,.38-.49,.61-1.37,2.57-1.55,5.32-1.28,8.15,.27,2.79,.85,5.52,1.54,8.23,.06,.23,.11,.47,.03,.71-.39,.39-.72,.04-1.04-.1-1.4-.62-2.79-.61-4.19,0-1.05,.46-1.59,1.18-1.54,2.1,.05,1.06,.75,1.58,1.65,1.92,1.6,.62,4.52,.39,5.38-1.62,.06-.14,.18-.24,.35-.25,.37,.23,.43,.63,.55,.99,.65,1.88,1.43,3.71,2.18,5.55,.08,.08,.15,.15,.23,.23-.04,.25,.06,.47,.14,.69,.68,.97,.83,2.15,1.26,3.23Z" fill="#966142"/><path d="M56.95,68.39c-.54-.44-.65-1.11-.92-1.7-.71-1.55-1.27-3.15-1.82-4.77-.34-.63-.63-1.28-.69-2.02-.59-2.43-1.22-4.86-1.53-7.35-.33-2.65-.6-5.3,.25-7.92,.26-.8,.58-1.57,1.11-2.23,.17-.03,.26,0,.18,.19-1.05,2.51-1.4,5.13-1.06,7.81,.38,2.98,1.02,5.93,1.85,8.82,.79,2.77,1.65,5.53,2.49,8.29,.09,.29,.21,.56,.13,.87Z" fill="#fefdfd"/><path d="M53.88,38.63c-.62-.2-1.27-.33-1.8-.74-.59-.43-.73-.98-.28-1.54,.42-.52,.93-.23,1.37,.04,.56,.35,1.13,.52,1.79,.34,.68-.18,1.22,.03,1.63,.62,.38,.54,.82,1.04,1.42,1.35,.48,.25,.89,.52,.65,1.18-.24,.65-.77,.57-1.28,.53-.2-.02-.4-.1-.61-.16-.46-.39-.94-.76-1.29-1.26-.52-.21-1.13,.04-1.61-.34Z" fill="#319d29"/><path d="M53.88,38.63c.54,.09,1.2-.33,1.62,.34-.59,.38-.57,1.18-1.07,1.62-.65-.27-1.21-.79-1.98-.73,.43-.47,1.08-.69,1.44-1.24Z" fill="#82543a"/><path d="M57.32,69.3c-.26-.19-.41-.4-.14-.69,.19,.2,.23,.43,.14,.69Z" fill="#d5c6bd"/><path d="M53.55,42.6c-.06-.06-.12-.13-.18-.19,.08-.22,.16-.44,.47-.31-.13,.15-.06,.41-.28,.5Z" fill="#dbcdc5"/><path d="M22.15,42.21c-.3,.33-.59,.68-.92,.98-.38,.34-.83,.37-1.21,0-.35-.34-.35-.83-.08-1.15,.81-.94,1.22-2.03,1.46-3.23,.13-.67,.65-1.07,1.28-1.08,1.02-.02,1.84-.45,2.64-.99,.56-.38,1.18-.87,1.71-.12,.49,.69-.08,1.21-.58,1.66-.46,.72-1.24,.91-1.96,1.2-.51,.19-1.11,.2-1.47,.72-.29,.67-.58,1.34-.87,2.01Z" fill="#319d29"/><path d="M23.02,40.2c0-1.09,.96-.62,1.47-.87,.45,.11,.98,.1,1.08,.73-.48,.54-.97,1.08-1.45,1.63-.37-.49-.73-.99-1.1-1.48Z" fill="#82543a"/><path d="M25.57,40.05c-.36-.24-.72-.48-1.08-.73,.66-.35,1.31-.7,1.97-1.05,.12,.06,.25,.11,.37,.17,.8,.1,1.53,.43,2.3,.63,1.13,.24,2.26,.45,3.27-.35,.62-.4,.85-1.16,1.43-1.58,.77-1.48,1.27-3.05,1.68-4.66,.59-.67,1.39-.56,2.16-.58,.22,.63-.07,1.14-.38,1.65-.53,1.33-1.08,2.65-1.6,3.99-.56,1.42-1.49,2.54-2.78,3.32-1.18,.71-2.49,.51-3.77,.35-1.26-.16-2.36-.84-3.58-1.16Z" fill="#754d31"/><path d="M37.66,31.95c-.71,.18-1.42,.35-2.14,.53-.17-.22-.42-.18-.66-.19-.45-.02-.73-.24-.8-.69-.07-.45,.15-.76,.54-.93,.21-.1,.46-.19,.68-.17,.96,.05,1.82-.28,2.65-.7,.74-.38,1.42-.46,2.16,.07,.61,.43,1.32,.68,2.11,.62,.35-.03,.64,.12,.91,.32,.3,.22,.37,.54,.29,.88-.07,.32-.29,.52-.61,.58-.32,.07-.64,.13-.96,.19-.55-.16-1.1-.33-1.66-.49-.05,.03-.12,.08-.16,.06-.77-.43-1.57-.26-2.36-.08Z" fill="#319d29"/><path d="M11.14,33.46c-.01-1.34,.7-2.09,1.88-2.06,.6,.01,.94-.08,1.15-.76,.35-1.14,1.11-1.55,2.19-1.41,.55,.07,.95,.36,1.16,.87,.14,.35,.24,.72-.1,.99-.37,.29-.59-.07-.83-.28-.62-.57-.98-.5-1.29,.27-.13,.33-.19,.69-.29,1.04-.26,1.01-.49,1.11-1.43,.69-.28-.12-.53-.45-.89-.15-.33,.27-.35,.62-.24,.98,.13,.45,.33,.95-.31,1.1-.57,.14-.73-.41-.9-.81-.08-.19-.09-.4-.1-.45Z" fill="#319e29"/><path d="M33.83,37.14c-.29,.65-.63,1.26-1.24,1.66-.33,.19-.67,.2-1.02,.1-.93-.26-1.8-.2-2.59,.4-.71-.31-1.51-.39-2.16-.86,.62-.19,1.06-.67,1.49-1.09,.59-.58,1.22-.84,2.01-.73,1.17,.16,2.34,.34,3.51,.52Z" fill="#319d29"/><path d="M54.61,28.14c.45-.4,.98-.79,1.58-.61,.86,.25,1.32,.57,1.12,1.7-.29-.02-.65,.12-.87-.12-.7-.76-.96-.09-1.21,.38-.69,1.29-.69,1.33-1.83,.55-.56-.38-.79-.22-.95,.34-.02,.06-.02,.12-.05,.17-.19,.41-.21,1.11-.84,.96-.67-.16-.42-.87-.35-1.31,.2-1.29,1.23-1.9,2.41-1.44,.69,.27,.71-.32,.98-.6Z" fill="#319e29"/><path d="M65.71,28.52c.57,.13,.71,.57,.73,1.03,.02,.37-.2,.64-.62,.6-.59-.05-.68-.54-.72-.98-.03-.38,.27-.56,.6-.65Z" fill="#f9fdf6"/><path d="M37.66,31.95c.85-.72,1.69-.53,2.52,.03,0,.77,0,1.53,0,2.3-.97-.2-1.79-1.02-2.88-.73-.07-.58,.27-1.06,.36-1.6Z" fill="#82543a"/><path d="M25.03,58.62c.77,.08,1.55-.06,2.32,.17,1.27,.37,2.42,.85,2.61,2.36,.17,1.39-.83,2-1.87,2.55-.89,.11-1.76,.33-2.69,.19-1.16-.17-2.08-.7-2.75-1.62-.76-1.04-.04-2.77,1.29-3.24,.36-.13,.72-.26,1.08-.4Z" fill="#feacb1"/><path d="M53.53,59.91c.41,.61,.7,1.26,.69,2.02-.97,2.84-5.31,2.83-6.9,1.41-1.14-1.01-.97-2.76,.43-3.58,1.6-.94,3.28-1.06,4.98-.25,.27,.13,.53,.27,.8,.41Z" fill="#feacb1"/><path d="M45.53,59.19c-.44-.02-.81-.18-1.04-.58-.57-.99-.67-2.02-.22-3.08,.22-.52,.57-.93,1.22-.86,.62,.06,1.05,.34,1.23,.98,.29,1.03,.38,2.03-.23,2.99-.23,.36-.56,.51-.97,.56Z" fill="#553826"/><path d="M31.09,54.65c.55,.03,.95,.18,1.19,.55,.52,.83,.62,2.64-.05,3.47-.5,.63-1.36,.69-1.87,.12-.71-.79-.79-2.77-.14-3.62,.24-.32,.53-.57,.87-.52Z" fill="#553826"/><path d="M35.86,61.79c1.07,.43,2.16,.3,3.23-.08,.36-.13,.75-.21,.57-.78-.09-.26,.02-.55,.35-.64,.34-.1,.57,.05,.74,.35,.24,.41,.51,.8,.94,1.07,.28,.17,.39,.48,.23,.79-.2,.37-.55,.37-.85,.18-.42-.27-.8-.18-1.18,.01-1.18,.6-2.45,.49-3.7,.44-.23,0-.47-.09-.69-.19-.31-.14-.62-.36-.47-.75,.13-.34,.46-.44,.84-.4Z" fill="#553826"/></svg>