<svg xmlns="http://www.w3.org/2000/svg" viewBox="0 0 231 231"><path d="M33.83,33.83a115.5,115.5,0,1,1,0,163.34,115.49,115.49,0,0,1,0-163.34Z" style="fill:#bcf700;"/><path d="m115.5 51.75a63.75 63.75 0 0 0-10.5 126.63v14.09a115.5 115.5 0 0 0-53.729 19.027 115.5 115.5 0 0 0 128.46 0 115.5 115.5 0 0 0-53.729-19.029v-14.084a63.75 63.75 0 0 0 53.25-62.881 63.75 63.75 0 0 0-63.65-63.75 63.75 63.75 0 0 0-0.09961 0z" style="fill:#dbbc7f;"/><path d="m141.75 194.98a114.79 114.78 0 0 1 38 16.498 115.53 115.52 0 0 1-128.46 0 114.79 114.78 0 0 1 38-16.498l15.71 15.748h21z" style="fill:#000;"/><path d="m70 200.88v20.77c-2.22-0.95325-4.3999-1.9698-6.5399-3.0496h-0.10088v-14.621c2.17-1.1 4.39-2.1399 6.64-3.0996z" style="fill:#435363;"/><path d="m161 200.88v20.77c1.9-0.80986 3.7702-1.6798 5.6201-2.5898l0.0989-0.0494 0.82005-0.40997h0.10088v-14.621c-2.17-1.1-4.39-2.1399-6.6402-3.0996z" style="fill:#435363;"/><polygon transform="matrix(1 0 0 .99987 4e-5 -3e-5)" points="97.32 201.93 115.5 223.72 133.68 201.93" style="fill:#000;"/><path d="m111.2 230.88 1.31-16.908c0.32992 1.2798 5.6399 1.2798 5.9999 0l1.3201 16.938c-1.4301 0.0494-2.8601 0.089-4.3 0.089s-2.87 0-4.3-0.089z" style="fill:none;"/><path d="m115.49 201.79v0.0692l-7.55 12.678-7.0001 11.809-19.19-26.487c0.60999-0.42995 1.22-0.89985 1.8001-1.3899a52 51.993 0 0 0 10.07-10.619l21.79 13.878z" style="fill:#e7ecf2;"/><path d="m149.24 199.86-19.08 26.517-7.0001-11.809-7.57-12.678-0.0593-0.10086 21.94-13.998a52.21 52.203 0 0 0 10.08 10.699c0.58013 0.47009 1.1502 0.92002 1.7301 1.3399z" style="fill:#e7ecf2;"/><path d="m169.65 90.998c3.137 11.94 4.9371 36.484-3.4118 58.213l5.129 3.1164c10.044-15.199 14.959-39.163 13.943-61.33z" style="fill:#000;"/><path d="m45.081 90.989c-0.88085 4.9304-0.87534 14.953-0.15027 21.75 2.1318 19.98 16.671 42.505 16.671 42.505l5.7352-4.4331s-13.244-31.348-6.0571-52.751c0.52108-1.5517 0.95592-2.916 1.3462-4.1835z" style="fill:#000;"/><path d="m117 3.4883c-8.2136-0.19887-19.13 7.933-18.494 9.3516 1.6214 3.6186 11.176 22.55 11.889 23.963h10.148c2.6022-6.3102 11.32-26.531 11.32-26.531s-4.1382-4.138-12.416-6.4375c-0.77605-0.21556-1.5976-0.32513-2.4473-0.3457z" style="fill:none;"/><path d="m115.95 4.5428c-3.1563 0-6.3123 0.57462-9.2165 1.715-5.8084 2.2817-10.532 6.808-12.779 12.245v-5e-3c-1.8166 4.397-2.0233 9.3441-0.58058 13.857 0.69352 2.1687 1.7693 4.2296 3.1533 6.0968h38.893c0.71032-0.95769 1.3441-1.9641 1.8787-3.0144 2.6811-5.2673 2.9296-11.542 0.67253-16.975-2.257-5.4337-6.9893-9.9522-12.802-12.224-2.9064-1.1335-6.0633-1.6987-9.2196-1.6956z" style="fill:#000;"/><path d="m92.512 28.125c0.13387 1.4318 0.41877 2.8511 0.85962 4.2306 1.4429 4.5127 4.5278 8.5654 8.6411 11.353 4.1135 2.7873 9.2311 4.2913 14.336 4.2165 5.1052-0.0764 10.168-1.7333 14.181-4.6419 2.8754-2.0834 5.2132-4.7932 6.7665-7.8447 1.2005-2.3586 1.9085-4.9188 2.127-7.5156-15.037-2.6407-31.421-3.4671-46.912 0.20253z" style="fill:#ff4e4e;"/><path d="m34.426 90.63c14.714 4.0779 22.683 6.4085 45.254 7.4257 2.5318-18.185 4.6689-28.672 10.023-38.352 3.2025 13.403 3.8346 25.22 2.9106 42.253l11.172-0.23161c1.4706-11.886 3.8989-29.213 2.1636-42.021 10.416 12.631 11.373 23.624 13.077 39.726 30.174-0.76004 59.808-4.5121 77.845-10.128-10.76-38.608-41.475-55.66-80.38-56.104-38.182-0.45134-74.543 22.405-82.065 57.432z" style="fill:#000;"/><path d="m129.31 114.14 20-5.37m-47.66 5.37-20-5.37" style="fill:none;stroke-linecap:round;stroke-linejoin:round;stroke-width:4.9998px;stroke:#000;"/><path d="m118.57 165.14a8.66 8.66 0 0 0-2.76-4.23h-0.62a8 8 0 0 0-2.76 4.22c-0.52 1.89 2.07 10.61 2.76 12.53h0.62c0.64-1.76 3.19-10.82 2.76-12.52z" style="fill:#191919;"/><path d="m102.81 152.24a2.4921 2.4921 0 1 1 1.19-4.84l0.21 0.06a37.1 37.1 0 0 0 5.43 1.12 44.52 44.52 0 0 0 11.76 0 37.1 37.1 0 0 0 5.43-1.12 2.4903 2.4903 0 0 1 1.59 4.72l-0.21 0.06a43.08 43.08 0 0 1-6.15 1.29 48.55 48.55 0 0 1-13.08 0 42.79 42.79 0 0 1-6.17-1.29z" style="fill:#191919;"/></svg>