<?xml version="1.0" encoding="UTF-8"?><svg id="Layer_1" xmlns="http://www.w3.org/2000/svg" viewBox="0 0 92.99 88.98"><path d="M71.9,84.87c-.82,.28-1.67,.34-2.52,.37-.66,.03-1.22,.06-1.68,.72-.57,.84-1.57,1.15-2.51,1.42-2.16,.62-4.39,.91-6.63,1.11-2.56,.22-5.13,.27-7.69,.38-3.43,.15-6.87,.12-10.3,.06-2.8-.06-5.6-.23-8.39-.53-2.39-.25-4.78-.53-7.12-1.09-1.59-.38-3.16-.84-4.46-1.91-.04-.03-.11-.03-.17-.05,.04-.3,.3-.35,.52-.44,1.74-.7,3.55-1.06,5.41-1.17,1.68-.1,3.34-.02,4.99,.32,.67,.14,1.31,.36,1.94,.6,.41,.15,.8,.16,1.22,.02,2.05-.71,4.18-1.03,6.34-1.17,3.66-.24,7.24,.27,10.74,1.31,.32,.1,.62,.09,.93-.04,2.22-.98,4.58-1.33,6.98-1.52,3.41-.27,6.77,.04,10.1,.75,.59,.12,1.16,.3,1.73,.48,.22,.07,.48,.1,.55,.39Z" opacity=".3"/><path d="M55.01,6.37c.46-.19,.74-.59,1.06-.93,.55-.59,1.17-.52,1.49,.23,.51,1.19,.45,2.39-.03,3.58-.34,.84-.85,1.56-1.53,2.29,.98,.21,1.85,.64,2.8,.75,1.11,.2,2.07,.78,3.08,1.23,.21,.09,.37,.3,.67,.28,.08-.65,0-1.3,.04-1.95,.01-.23-.09-.53,.24-.65,0,.79,.02,1.59-.02,2.38-.02,.41,.1,.64,.47,.84,1.29,.68,2.54,1.45,3.66,2.4-.08,.53-.43,.79-.91,.91-.97-.52-1.82-1.2-2.77-1.75-3.51-2.03-7.29-3.26-11.3-3.79-.99-.13-1.98-.19-2.97-.29-.46-.09-.92-.09-1.37-.02-.85,.12-1.71,.1-2.57,.11-1.27,.14-2.53,.27-3.8,.44-2.15,.34-4.26,.78-6.26,1.67-.68-.05-1.23-.35-1.65-.88,1.27-.6,2.61-.99,4.01-1.42-.95-.83-1.65-1.76-1.98-2.94-.33-1.2-.33-2.39-.03-3.58,.1-.4,.23-.82,.74-.91,.51-.08,.78,.25,1,.61,.47,.75,1.1,1.29,1.93,1.61,.62-.05,1.1,.4,1.69,.45,.4,.11,.81,.21,1.22,.3,.35,.07,.71,.13,1.06,.22,1.15,.23,2.24,.6,3.08,1.47,.22,.24,.37,.12,.55-.04,.79-.7,1.71-1.17,2.74-1.42,.4-.11,.81-.15,1.21-.23,.94-.06,1.89-.11,2.81-.34,.12-.02,.24-.05,.35-.09,.44-.13,.81-.45,1.28-.5Z" fill="#37af00"/><path d="M71.9,84.87c-1.3-.56-2.68-.82-4.06-1.05-2.3-.39-4.63-.59-6.96-.48-2.91,.13-5.79,.43-8.47,1.69-.24,.11-.44,.11-.69,.03-2.04-.68-4.13-1.09-6.28-1.26-1.55-.12-3.09-.27-4.65-.12-2.22,.21-4.42,.48-6.51,1.3-.26,.1-.5,.06-.75-.04-2.67-1.09-5.44-1.23-8.26-.91-1.68,.19-3.31,.55-4.83,1.32-.79,.07-.95-.07-.92-.8,.08-.35,.34-.51,.65-.63,.84-.35,1.7-.63,2.58-.86,.44-.11,.89-.19,1.34-.29,1.21-.21,2.43-.3,3.65-.34,1.85,.07,3.69,.27,5.45,.87,.54,.39,1.08,.21,1.62,0,1.82-.55,3.69-.83,5.59-.99,3.76-.31,7.44,.22,11.07,1.18,.43,.12,.82,.06,1.22-.09,2.05-.78,4.17-1.21,6.36-1.31,.49-.05,.98-.16,1.48-.12,2.28-.07,4.56,.01,6.82,.37,.78,.17,1.59,.24,2.36,.46,.47,.09,.93,.22,1.38,.37,.44,.1,.88,.23,1.29,.42,.59,.28,.66,.73,.22,1.2-.22,.13-.46,.13-.7,.1Z" fill="#047425"/><path d="M71.02,83.3c-.43-.12-.87-.23-1.3-.35,.1-.73,.54-1.31,.87-1.94,1.59-3.05,2.97-6.18,4.16-9.4,1.74-4.69,2.98-9.51,3.74-14.46,.08-.51,.16-1.02,.2-1.54,.05-.58,.03-.61-.57-.52-.39,.06-.78,.15-1.18,.17-.38-.05-.7-.18-.78-.6-.07-.39,.14-.63,.44-.83,.82-.25,1.68-.34,2.52-.51,2.28-.47,4.49-1.13,6.52-2.29,1.04-.59,1.93-1.34,2.71-2.24,.8-.92,.97-2.03,.83-3.2-.02-.2-.07-.39-.1-.59-.02-.05-.05-.11-.07-.16-.15-.54-.59-.94-.7-1.5,.08-.42,.13-.86,.48-1.17,1.07,.89,1.57,2.07,1.78,3.41,.02,.16,.03,.31,.13,.44,.16,.95-.16,1.81-.48,2.67-.32,.19-.44,.54-.65,.82-1.04,1.38-2.44,2.3-3.93,3.11-.21,.11-.45,.16-.6,.37-.34,.43-.88,.45-1.33,.62-.65,.23-1.31,.46-2,.57-.45-.03-.84,.21-1.27,.26-.2,.02-.25,.18-.27,.35-.09,1.29-.32,2.55-.5,3.82-.03,.18-.01,.35,.14,.48-.43,1.8-.75,3.62-1.2,5.42-.25,.08-.28,.32-.33,.51-.7,2.74-1.6,5.42-2.59,8.06-.06,.17-.12,.33-.09,.52-.7,1.98-1.52,3.91-2.52,5.76-.41,.45-.58,1.02-.84,1.56-.28,.85-.64,1.66-1.21,2.37Z" fill="#37af00"/><path d="M24.05,82.95c-.43,.08-.87,.16-1.3,.25-.1-.06-.19-.14-.24-.25-.41-.9-.95-1.73-1.34-2.65-.06-.14-.14-.29-.12-.45-.17-.35-.33-.71-.5-1.06-.96-1.59-1.43-3.4-2.24-5.05-.03-.61-.34-1.13-.54-1.68-.63-1.74-1.21-3.5-1.72-5.28,.04-.57-.21-1.09-.39-1.61-.44-1.3-.73-2.64-1.05-3.97-.05-.22-.02-.43-.03-.65-.32-1.1-.42-2.24-.61-3.37-.11-.66-.17-1.33-.24-2-.02-.15-.03-.25-.22-.28-.73-.13-1.43-.41-2.18-.48-1.18-.21-2.3-.57-3.34-1.19-.94-.62-1.97-1.1-2.85-1.8-.77-.61-1.46-1.29-1.97-2.13-.1-.16-.24-.25-.36-.37-.48-.88-.7-1.8-.36-2.78,.1-1.47,.64-2.73,1.77-3.71,.26-.05,.27,.17,.32,.31,.09,.31,.21,.62,.25,.95-.11,.38-.48,.62-.58,1.01-.77,1.79-.45,3.4,.89,4.78,1.74,1.8,3.95,2.73,6.28,3.45,1.49,.46,3.02,.75,4.56,1,.14,.02,.28,.04,.4,.11,.36,.19,.63,.45,.53,.9-.1,.42-.43,.54-.82,.57-.27,.02-.63-.22-.79,.01-.19,.27-.03,.65,.02,.98,.64,4.62,1.74,9.14,3.25,13.55,1.04,3.02,2.25,5.98,3.64,8.86,.54,1.11,1.14,2.2,1.67,3.32,.11,.23,.29,.44,.2,.73Z" fill="#37af00"/><path d="M16.35,30.57c.34-.04,.4-.32,.51-.58,1.46-3.39,3.38-6.49,5.85-9.24,1.06-1.46,2.35-2.69,3.85-3.68,.51-.23,.91-.63,1.37-.94,1.2-.81,2.45-1.55,3.74-2.21,.17-.08,.4-.1,.44-.35,.47,.23,.74,.6,.85,1.11-.23,.39-.67,.48-1.04,.67-2.71,1.34-5.12,3.13-7.22,5.27-3.33,3.4-5.76,7.38-7.36,11.86-.32,.9-.63,1.81-.89,2.73-.49,1.87-.94,3.75-1.2,5.67-.11,.76-.11,.76,.61,.83,.19,.02,.35,.08,.49,.2,.48,.7,.24,1.26-.63,1.38-1,.14-1.99,0-2.98-.18-1.33-.25-2.64-.63-3.99-.79-.59-.07-1.15,.04-1.73,.03-.52-.16-.87-.53-1.11-1,.8-.39,1.66-.47,2.54-.48,.98,0,1.96,.04,2.9,.36,.65,.48,1.47,.39,2.2,.6,.25,.07,.18-.2,.2-.34,.29-1.9,.64-3.78,1.09-5.65-.06-.36,.05-.7,.15-1.05,.34-1.2,.73-2.39,1.18-3.56,.08-.22,.19-.44,.18-.69Z" fill="#37af00"/><path d="M43,7.67c-.37-.08-.73-.16-1.1-.24-.21-.26-.1-.53,0-.79,.23-.62,.55-1.18,1.02-1.67,.11-.12,.46-.27,.05-.47-.76-.2-1.54-.05-2.3-.22-.29-.06-.4,.1-.42,.35-.04,.44,.03,.87,.15,1.29,.03,.42,.53,.72,.32,1.2-.59-.09-1.14-.31-1.67-.57-.08-.82-.32-1.64-.14-2.48,.06-.29,.11-.58,.23-.85,.29-.66,.7-.81,1.34-.49,.73,.36,.74,.37,1.1-.37,.17-.35,.32-.73,.45-1.1,.24-.66,.55-.85,1.23-.63,.77,.25,1.52,.59,2.19,1.12,.21-.32,.35-.73,.82-.75,.45-.02,.65,.33,.89,.62,.1,.12,.17,.26,.38,.14,.65-.37,1.41-.51,2-1.02,.44-.38,.87-.32,1.25,.13,.53,.62,1.06,1.24,1.53,1.9,.2,.28,.28,.2,.48,.04,.64-.5,1.08-.37,1.38,.37,.43,1.03,.88,2.04,.85,3.19-.36,.3-.77,.5-1.23,.6-.23-.2-.16-.48-.16-.73,0-.5-.12-.98-.29-1.45-.08-.2-.14-.44-.45-.32-.72,.43-1.53,.6-2.29,.94-.3,.23-.11,.5-.06,.76,.08,.42,.31,.83,.01,1.26-.4,.08-.8,.16-1.2,.24-.09-.09-.14-.2-.15-.32-.04-.53-.19-1.02-.41-1.5-.57-1.1-1.46-1.93-2.32-2.81-.24,.11-.24,.37-.37,.53-.43,.67-.93,1.27-1.5,1.82-.4,.38-.76,.8-1.04,1.28-.26,.3-.19,.78-.56,1.01Z" fill="#f9434d"/><path d="M84.6,40.65c.87,0,1.72,.08,2.51,.46-.12,.59-.5,.92-1.07,1.05-1.74-.35-3.39,.23-5.05,.57-.97,.2-1.94,.41-2.95,.39-.38-.01-.75-.04-1.11-.18-.63-.42-.67-.68-.2-1.28,.25-.2,.55-.19,.84-.14,.33,.06,.66,.07,1,.03,.24-.14,.12-.36,.09-.54-.26-1.83-.61-3.64-1.12-5.42-1.32-5.01-3.58-9.55-6.94-13.51-.63-.74-1.28-1.48-2-2.14,.12-.45,.15-.95,.64-1.21,2.09,1.86,3.79,4.02,5.28,6.38,.1,.16,.23,.31,.35,.47,.52,.41,.71,1.05,1.01,1.6,.36,.66,.64,1.37,.98,2.04,.07,.14,.14,.29,.07,.46,1.37,3.12,2.32,6.36,2.86,9.71,.09,.53,.17,1.05,.24,1.58,.05,.35,.11,.61,.57,.42,.36-.14,.8-.05,1.09-.38,.75-.2,1.5-.36,2.27-.46,.23-.03,.43-.01,.63,.1Z" fill="#37af00"/><path d="M73.07,79.37c.06-.64,.46-1.14,.69-1.7,.5-1.21,1.08-2.39,1.51-3.64,.06-.17,.13-.34,.31-.42,1.74,1.55,3.47,3.1,5.21,4.66,.18,.16,.37,.32,.26,.61-.1,.28-.35,.32-.58,.33-.7,.03-1.39,.06-2.09,.06-1.77,0-3.54,.19-5.31,.11Z" fill="#318e00"/><path d="M69.24,18.72c-.19,.41-.39,.83-.58,1.24,.16,.28,0,.54-.04,.81-.19,.56-.36,1.14-.57,1.69-.22,.56-.5,.7-1.08,.51-1.19-.4-2.15-1.11-2.83-2.18-.3-.46-.26-.94,0-1.41,.29-.55,.8-.87,1.24-1.28,.21-.19,.4-.41,.71-.46,.36-.22,.64-.52,.88-.86,.57-.17,.91-.67,1.38-.98,.3-.2,.58-.42,.85-.65,.28-.23,.6-.25,.88-.06,.3,.2,.14,.49,.05,.75-.27,.76-.53,1.53-.81,2.29-.07,.19-.14,.37-.08,.57Z" fill="#318e00"/><path d="M14.6,60.55c.49,1.52,.69,3.12,1.26,4.62,.19,.51,.43,1.03,.21,1.61-.06-.47-.29-.62-.79-.61-2.01,.05-4.03,.04-6.04,.05-.08,0-.16,0-.24,0-.27,0-.53-.03-.64-.33-.11-.31,.09-.47,.3-.64,1.85-1.44,3.7-2.89,5.55-4.34,.14-.11,.26-.24,.38-.37Z" fill="#318e00"/><path d="M32.92,14.65c-.27-.36-.53-.71-.8-1.07-.05-.06-.11-.11-.16-.17-.13-.17-.3-.34-.15-.57,.16-.23,.39-.14,.58-.07,.32,.12,.64,.27,.96,.41,.54,.29,1.07,.57,1.61,.86,.28-.16,.49,.04,.7,.16,.57,.32,1.11,.66,1.7,.94,.38,.22,.78,.38,1.15,.61,.4,.23,.8,.46,1.22,.63,.48,.19,.58,.52,.44,.96-.4,1.2-1.22,2.04-2.32,2.62-.37,.19-.69,.05-.95-.27-.34-.42-.69-.83-1.03-1.25-.27-.39-.57-.75-.88-1.12-.55-.69-1.1-1.37-1.67-2.04-.17-.2-.33-.4-.41-.65Z" fill="#318e00"/><path d="M78.6,64.52c-.16-.11-.15-.27-.1-.43,.45-1.48,.63-3.01,1.02-4.5,.05-.19,.05-.4,.28-.49,1.81,1.04,3.62,2.07,5.42,3.11,.18,.11,.38,.23,.34,.51-.04,.22-.22,.28-.39,.32-2.19,.5-4.38,.99-6.57,1.48Z" fill="#318e00"/><path d="M18.32,73.73c.25,.03,.29,.25,.37,.43,.64,1.45,1.1,2.98,1.89,4.37,.05,.08,.1,.18-.01,.26-1.8,.47-3.6,.95-5.41,1.41-.25,.06-.57,.19-.76-.12-.17-.28,0-.52,.17-.76,1.26-1.86,2.51-3.72,3.76-5.58Z" fill="#318e00"/><path d="M26.57,17.07c-.91,.91-1.96,1.66-2.84,2.62-.33,.36-.54,.85-1.01,1.07-.81-2.02-1.63-4.04-2.44-6.07-.11-.26-.34-.56-.03-.82,.28-.23,.56-.05,.83,.1,1.83,1.03,3.66,2.07,5.5,3.1Z" fill="#318e00"/><path d="M76.93,29.67c-.68-1.37-1.37-2.73-2.05-4.1,2.06-.6,4.12-1.21,6.18-1.79,.23-.07,.53-.16,.69,.16,.13,.27-.03,.46-.19,.64-1.54,1.7-3.08,3.4-4.62,5.1Z" fill="#318e00"/><path d="M16.35,30.57c.19,.03,.21,.12,.14,.29-.65,1.63-1.16,3.31-1.64,5-1.34-1.33-2.69-2.67-4.03-4.01-.16-.15-.32-.3-.44-.48-.2-.31-.13-.57,.25-.69,.11-.04,.23-.07,.35-.07,1.79-.02,3.59-.03,5.38-.04Z" fill="#318e00"/><path d="M21.05,79.84c.58,1.11,1.19,2.2,1.7,3.35-.82,.26-1.66,.49-2.45,.84-.29,.13-.56,.29-.78,.52-.04-.32-.34-.3-.54-.38-.47-.17-.94-.31-1.31-.69-.88-.89-.76-1.93,.31-2.58,.95-.58,1.99-.87,3.07-1.06Z" opacity=".3"/><path d="M62.86,11.18c-.2,.72-.04,1.46-.09,2.19-.01,.22,0,.44,0,.79-1.29-.81-2.67-1.25-3.95-1.89,1.05-1.15,2.1-2.29,3.16-3.44,.15-.17,.33-.3,.58-.21,.26,.1,.34,.32,.33,.58,0,.66-.02,1.32-.03,1.97Z" fill="#318f00"/><path d="M71.02,83.3c.33-.83,.78-1.6,1.21-2.37,.56,.31,1.2,.37,1.79,.61,.75,.3,1.21,.93,1.08,1.58-.12,.61-.6,.92-1.11,1.15-.45,.2-.93,.33-1.39,.5,.33-.61,.24-.88-.4-1.11-.38-.14-.78-.24-1.17-.35Z" opacity=".3"/><path d="M5.92,41.35c.33,.29,.67,.58,1,.87,.72,.62,.87,1.04,.55,1.57-.46,.76-1.67,1.3-2.31,1.03-.38-.16-.53-.53-.41-1.04-.29-.4-.2-.94-.51-1.34,.14-.39-.11-.73-.13-1.1-.02-.32-.09-.67,.21-.87,.35-.23,.64,.04,.9,.25,.25,.2,.47,.42,.71,.63Z" fill="#318f00"/><path d="M86.15,42.09c.36-.29,.7-.6,.96-.99,.3-.25,.6-.51,.9-.76,.21-.18,.46-.27,.71-.13,.26,.15,.24,.44,.24,.69,0,.43-.26,.83-.17,1.28-.13,.43-.26,.85-.39,1.28-.02,.14,.01,.29-.04,.43-.22,.66-.49,.85-1.13,.74-.69-.12-1.24-.49-1.64-1.07-.18-.26-.22-.55-.09-.84,.16-.27,.32-.53,.65-.62Z" fill="#318f00"/><path d="M81.7,54.19c.75-.49,1.65-.54,2.46-.87,.28-.11,.56-.3,.88-.32-.24,.9-.52,1.78-.89,2.63-.28,.65-.58,.69-1.04,.18-.48-.53-.94-1.07-1.4-1.61Z" fill="#318f00"/><path d="M8.01,53.24c1.11,.4,2.23,.79,3.34,1.19-.49,.57-.98,1.15-1.49,1.7-.37,.4-.68,.35-.91-.15-.4-.88-.69-1.8-.94-2.73Z" fill="#318f00"/><path d="M11.36,41.24s-.06,.08-.09,.07c-.78-.08-1.54-.35-2.34-.26-.14,.02-.36,0-.47-.18,.48-.56,.94-1.13,1.46-1.66,.5-.51,.88-.4,1.07,.28,.16,.57,.34,1.14,.37,1.74Z" fill="#318f01"/><path d="M84.6,40.65c-.84,.05-1.66,.25-2.49,.42-.16,.03-.3,.11-.42-.06,.02-.62,.22-1.2,.38-1.79,.17-.61,.54-.72,1-.3,.57,.52,1.06,1.12,1.53,1.73Z" fill="#318f01"/><path d="M90.22,48.69c-.2-.35,.11-.62,.16-.93,.09-.58,.21-1.16,.32-1.74,.53,.3,1.07,.58,1.59,.9,.23,.14,.49,.3,.44,.64-.05,.31-.32,.38-.56,.47-.65,.23-1.3,.44-1.96,.66Z" fill="#318f01"/><path d="M2.47,46.15c-.09,.95,.16,1.87,.36,2.78-.69-.24-1.39-.46-2.08-.72-.58-.22-.63-.6-.12-.95,.59-.41,1.22-.74,1.83-1.11Z" fill="#318f01"/><path d="M35.92,18.35c.44,.35,.75,.82,1.09,1.26,.27,.35,.53,.4,.92,.17,1-.59,1.75-1.38,2.12-2.49,.12-.36,.11-.61-.37-.76-.44-.13-.83-.45-1.24-.68,.05-.41,.41-.56,.68-.77,1.48-1.2,3.11-2.16,4.84-2.93,.35-.15,.73-.18,1.07-.36,1.15,.07,2.3-.16,3.45-.14,.21,0,.44-.05,.63,.11-.35,.29-.71,.07-1.09,.08,1.14,.1,2.26,.27,3.38,.47,.23,.04,.47,.06,.69,.19,1.49,1.28,2.74,2.78,3.96,4.31,4.74,5.95,7.78,12.7,9.44,20.09,.41,1.85,.74,3.72,.95,5.6,.02,.22,.15,.49-.18,.61-.3-.01-.51-.21-.73-.38-1.04-.81-2.09-1.6-3.12-2.41-.48-.38-.7-.39-1.15,.02-1.11,1.02-1.63,2.29-1.54,3.79,.02,.44,.27,.63,.69,.67,1.54,.16,3.09,.32,4.63,.47,.44,.04,.87,.1,1.3,.21,.34,.11,.43,.37,.46,.69,.14,1.73,.18,3.47,.11,5.2-.17,4.71-.75,9.38-1.81,13.97-.85,3.68-1.95,7.28-3.3,10.81-.08,.2-.13,.42-.3,.58-.43,.13-.44-.26-.53-.48-.73-1.75-1.39-3.53-2.04-5.31-.28-.77-.52-.93-1.3-.68-1.46,.46-2.34,1.53-2.95,2.87-.21,.46,.08,.7,.43,.91,1.25,.75,2.52,1.46,3.76,2.24,.59,.37,1.19,.73,1.78,1.11,.16,.11,.36,.19,.42,.41-.25,1.05-.77,2-1.21,2.97-.23,.5-.32,1.08-.78,1.46-2.27,.18-4.49,.56-6.6,1.45-.29,.12-.55,.12-.86,.03-2.43-.68-4.91-1.07-7.43-1.25-3.15-.22-6.21,.19-9.25,.98-.06,.01-.12,0-.18,.01-.25,.05-.3-.16-.38-.3-1.39-2.45-2.51-5.02-3.53-7.64-.07-.18-.14-.37-.13-.58,.03-.21,.18-.35,.31-.5,1.18-1.44,2.39-2.84,3.62-4.23,.13-.15,.24-.32,.38-.47,.32-.35,.23-.63-.09-.92-.97-.89-2.11-1.26-3.42-1.14-.56,.05-.81,.3-.9,.94-.12,.89-.27,1.78-.4,2.67-.04,.3-.01,.65-.34,.84-.31-.04-.35-.3-.42-.52-.97-3.07-1.72-6.19-2.3-9.36-.44-2.44-.75-4.89-.93-7.36-.07-.87-.22-1.74-.09-2.62,.18-.34,.53-.4,.84-.52,1.17-.44,2.36-.85,3.55-1.22,.47-.15,.66-.39,.62-.91-.1-1.28-.78-2.19-1.75-2.92-.46-.35-.8-.3-1.22,.11-.47,.46-.93,.92-1.39,1.39-.14,.15-.26,.38-.54,.27-.34-.54-.19-1.13-.16-1.69,.15-2.61,.4-5.21,.84-7.79,.48-2.84,1.17-5.63,2.1-8.35,.09-.26,.14-.54,.36-.74,.27-.14,.36,.11,.45,.26,.85,1.35,3.2,1.21,4.16,.5,.74-.55,.83-1.63,.12-2.22-1.03-.86-2.19-.82-3.37-.37-.2,.08-.37,.25-.61,.19-.2-.16-.06-.33,0-.48,1.32-3.23,3.02-6.23,5.23-8.94,.16-.2,.32-.42,.59-.48Z" fill="#68d034"/><path d="M52.1,12.63c-1.19-.21-2.37-.41-3.56-.62-.23-.04-.45-.11-.66-.25h1.22c6.05,.28,11.61,2.03,16.56,5.57,.15,.1,.28,.22,.42,.34-.16,.18-.33,.35-.55,.45-.66-.15-1.11-.67-1.67-1-.38-.23-.64-.28-.97,.08-1.08,1.17-3.36,1.48-4.69,.69-1.13-.61-1.83-1.56-2.16-2.8q-.09-1.34-1.41-1.75c-.13-.04-.27-.07-.4-.1-.7-.24-1.47-.21-2.13-.6Z" fill="#fefefe"/><path d="M49.34,7.33c0,.11,0,.23,0,.34-1.17,.33-2.2,.89-3.05,1.82-.82-1.14-2-1.58-3.29-1.82,.16-.35,.15-.77,.46-1.06,.66-.68,1.49-1.13,2.27-1.64,.28-.19,.61-.23,.91-.07,1.11,.57,2.12,1.26,2.7,2.42Z" fill="#fe6e6e"/><path d="M45.27,10.21c.22,.27,.06,.36-.19,.36-1.87,0-3.7,.39-5.53,.7-.65,.11-1.18-.29-1.65-.7-1.31-1.16-1.64-2.65-1.47-4.38,.25,.24,.47,.45,.69,.66,.55,1.52,2.06,2.6,3.64,2.6,.91,0,1.83-.02,2.74,.13,.63,.1,1.26,.2,1.77,.63Z" fill="#57b627"/><path d="M56.65,7.58c-.09,1.48-.9,2.55-2,3.44-.16,.13-.34,.12-.56,.08-1.54-.29-3.09-.47-4.65-.57-.71-.04-1.45,.06-2.15-.21,.9-.5,1.89-.61,2.89-.65,1.18-.05,2.35-.16,3.45-.64,.99-.29,1.91-.72,2.7-1.4,.09-.07,.2-.14,.32-.07Z" fill="#57b627"/><path d="M45.03,11.78c-.07,.07-.13,.17-.21,.2-2.38,.88-4.49,2.19-6.38,3.87-.36-.19-.76-.32-1.08-.59-.08-.3,.16-.44,.32-.58,1.09-.92,2.2-1.83,3.51-2.42,.94-.23,1.9-.21,2.85-.36,.33-.05,.66-.08,.99-.11Z" fill="#5fbf2e"/><path d="M45.27,10.21c-1.51-.62-3.1-.61-4.69-.6-1.33,0-3.05-1.18-3.52-2.39-.05-.14-.08-.27,.06-.37,1.54,1.16,3.36,1.54,5.19,1.93,1.1,.23,2.25,.39,2.96,1.44Z" fill="#68d034"/><path d="M41.19,12.25c-.34,.37-.81,.54-1.2,.83-.92,.67-1.91,1.26-2.63,2.17-.86-.28-1.53-.92-2.38-1.22-.02-.18,.11-.25,.24-.29,1.95-.68,3.92-1.24,5.97-1.49Z" fill="#68d034"/><path d="M50.54,7.44c.04-.56-.1-1.08-.28-1.6-.11-.3-.09-.5,.27-.54,.32-.09,.64-.16,.97-.23,.88-.19,1.24-.02,1.74,.74,.12,.42,.34,.82,.29,1.28-.97,.35-1.98,.33-2.99,.36Z" fill="#fe6e6e"/><path d="M56.65,7.58c-.85,.72-1.79,1.27-2.88,1.56-1.45,.49-2.93,.29-4.4,.16-.14-.01-.27-.05-.37-.17,.69-.39,1.45-.45,2.22-.48,1.99-.07,3.85-.51,5.39-1.95,.03,.34,.16,.61,.04,.88Z" fill="#fdfefd"/><path d="M40.71,7.12c-.04-.42-.4-.7-.48-1.11,.02-.49,.33-.78,.72-1,.67-.37,1.37-.62,2.14-.66,.41,.12,.38,.29,.1,.56-.72,.69-1.25,1.48-1.3,2.52-.4-.08-.81-.14-1.19-.31Z" fill="#fe6e6e"/><path d="M49.01,9.13c1.59,.06,3.18,.32,4.77,.01-.89,.5-1.88,.65-2.85,.68-1.24,.03-2.43,.26-3.63,.52,.44-.58,1-1.01,1.72-1.2Z" fill="#68d035"/><path d="M53.53,7.08c-.24-.36-.27-.78-.37-1.18-.06-.31-.27-.57-.35-.88-.06-.23-.16-.45,0-.68,.29-.27,.44-.22,.6,.16,.33,.8,.41,1.62,.38,2.47-.07,.07-.14,.14-.25,.11Z" fill="#fefcfc"/><path d="M58.21,17.76c1.85,.73,3.5,.51,4.88-1.01,.14-.15,.22-.17,.38-.06,.7,.45,1.43,.85,2.06,1.41-.3,.5-.89,.72-1.19,1.24-.35,.59-.36,.98,.04,1.54,.67,.94,1.56,1.57,2.64,1.96,.48,.17,.74,.04,.91-.44,.2-.55,.27-1.16,.63-1.65,.69,.22,1.08,.81,1.5,1.31,2.56,3.06,4.5,6.48,5.93,10.2,.58,1.53,1.14,3.07,1.57,4.65,.05,.27,.18,.53,.16,.82-.14,1.04-.22,2.08-.51,3.09-.09,.33-.2,.64-.41,.91-.33,.4-.35,.76,.12,1.07,1.12,.57,2.32,.65,3.54,.5,1.26-.16,2.49-.55,3.75-.71,.48-.06,.98-.2,1.45,.1-.17,.27-.12,.53,.05,.78,.38,.54,.9,.87,1.54,1.02,.59,.14,.93-.12,1.03-.71,.45,.23,.58,.71,.87,1.08h.03c-.15,.7-.63,1.19-1.06,1.7-.69,.81-1.34,1.68-2.22,2.31-.15,.11-.27,.32-.51,.17-.16-.3-.1-.62-.1-.93,0-.42-.22-.61-.61-.66-.38-.05-.75,.04-1.11,.17-1,.37-1.16,.99-.48,1.8,.25,.3,.61,.53,.63,.98-.06,.29-.3,.41-.51,.54-1.64,.99-3.34,1.86-5.26,2.15-.57,.09-1,.35-1.25,.89-.63,.53-.56,.87,.24,1.21,.35,.6,.11,1.23,0,1.8-.63,3.22-.99,6.49-1.98,9.63-.08,.26-.15,.54-.32,.76-.09,.1-.2,.11-.32,.11-.88,.01-1.25,.32-1.49,1.25-.17,.67-.02,.96,.75,1.4,.17,.26,.02,.51-.06,.74-1.07,3.01-2.52,5.86-4.02,8.67-.56,1.05-1.32,1.99-2.03,2.95-.85-.08-1.7-.13-2.54-.24-1.47-.19-2.94-.07-4.41-.13-.21-.29-.02-.53,.09-.78,1.3-2.85,2.44-5.77,3.4-8.76,1.66-5.12,2.83-10.35,3.39-15.71,.31-3,.43-6,.38-9.02-.01-.65-.25-1.3-.05-1.96,.18-.29,.48-.2,.75-.23,.15-.02,.34,0,.41-.17,.08-.2-.09-.32-.22-.44-.35-.31-.8-.51-1.05-.94-.32-1.24-.34-2.53-.54-3.79-.73-4.66-2.01-9.17-3.9-13.49-1.28-2.92-2.83-5.68-4.66-8.29-.16-.23-.45-.44-.28-.79Z" fill="#68d034"/><path d="M4.75,43.77c.19,1.02,.6,1.23,1.54,.79,.23-.11,.46-.24,.65-.41,.7-.62,.78-1.06,.12-1.62-.09-.08-.15-.19-.14-.31,2.1-.39,4.06,.42,6.07,.77,.87,.15,1.73,.23,2.6,.18,.65-.04,1.27-.4,.67-1.19-.44-.93-.46-1.94-.39-2.93,.09-1.31,.19-2.62,.5-3.9,.34-1.58,.95-3.07,1.57-4.56,1.17-2.81,2.72-5.4,4.62-7.77,2.19-2.74,4.8-5.02,7.85-6.79,.82-.48,1.67-.92,2.51-1.37,.8,.81,1.49,1.71,2.16,2.62,.16,.41-.18,.63-.38,.87-1.06,1.28-2.01,2.63-2.86,4.06-2,3.33-3.41,6.9-4.46,10.63-.95,3.35-1.54,6.77-1.87,10.23-.21,2.24-.3,4.49-.37,6.74-.22,.67-.77,1.1-1.19,1.63-.32,.41-.68,.79-.99,1.2-.09,.12-.21,.28-.08,.43,.11,.12,.26,.06,.39,.02,.44-.13,.86-.31,1.3-.46,.22-.07,.46-.19,.64,.09,.15,.77,.12,1.55,.18,2.32,.36,4.79,1.14,9.51,2.41,14.14,.5,1.83,1.06,3.64,1.71,5.42,.11,.34,.04,.73,.34,1.01,.8,2.03,1.66,4.02,2.61,5.98,.19,.4,.42,.77,.63,1.16,.12,.22,.31,.43,.19,.72-1.8-.54-3.64-.79-5.51-.87-1.14-1.58-2.27-3.18-3.22-4.89-2.23-4.04-3.79-8.35-5.18-12.73-.94-2.95-1.69-5.95-2.28-8.99-.06-.31-.13-.62-.15-.94-.06-.99-.27-1.27-1.24-1.47-1.81-.37-3.53-.99-5.18-1.83-.48-.24-.97-.48-1.35-.87-.06-.23,.1-.37,.21-.53,.16-.25,.38-.45,.58-.68,.72-.84,.56-1.45-.47-1.83-.17-.06-.34-.11-.52-.14-.88-.16-1.17,.07-1.18,.96,0,.29,.06,.6-.11,.87-.21,.16-.38,.03-.53-.1-1.17-1.05-2.21-2.19-2.81-3.66-.15-.36-.33-.73-.18-1.15,.07-.37,.27-.65,.6-.83Z" fill="#68d034"/><path d="M9.18,50.84c1.07,.53,2.08,1.17,3.21,1.58,1.09,.39,2.17,.76,3.31,.98,1.07,.21,1.22,.35,1.37,1.41,.35,2.46,.95,4.87,1.6,7.26,.91,3.34,2.05,6.61,3.32,9.84,1.38,3.5,3.12,6.8,5.35,9.84,.19,.26,.36,.53,.42,.85-1.24,.07-2.49,.14-3.72,.35-2.4-4.51-4.49-9.15-6.05-14.02-1.12-3.5-2.03-7.05-2.6-10.69-.14-.9-.27-1.8-.4-2.7-.04-.26-.07-.4,.26-.3,.19,.05,.39,.04,.59,.08,.43,.08,.83,.04,.91-.48,.07-.51-.33-.71-.74-.75-.46-.05-.9-.16-1.35-.23-2.25-.38-4.42-.99-6.48-1.97-1.42-.67-2.67-1.59-3.68-2.8-1-1.2-1.15-3.24-.36-4.48,.41,2.05,1.76,3.47,3.21,4.81,.07,.06,.18,.07,.27,.11,.33,.23,.25,.59,.28,.92,.08,.82,.27,.92,.95,.48,.1-.06,.2-.14,.33-.08Z" fill="#5dba2e"/><path d="M74.51,67.38c.53-1.65,.96-3.31,1.26-5.02,.31-1.79,.69-3.58,1-5.37,.1-.6,.1-1.22,.14-1.84,.55-.1,1.1-.16,1.64-.3,.39-.1,.43,.07,.39,.36-.3,2-.6,3.99-1.02,5.98-.96,4.61-2.38,9.07-4.17,13.42-1.11,2.71-2.39,5.35-3.78,7.93-.07,.14-.17,.27-.26,.4-.76-.16-1.52-.32-2.28-.48,.35-1.04,1.16-1.79,1.7-2.71,.05-.08,.14-.15,.19-.23,1.52-3.08,3.19-6.1,4.22-9.39,.01-.02,.03-.05,.04-.07,.42-.26,.71-.61,.91-1.06,.22-.5,.3-.99-.04-1.47-.01-.06,0-.11,.04-.15Z" fill="#5dba2e"/><path d="M67.8,45.8c.12,1.61,.14,3.22,.12,4.83-.03,2.26-.23,4.51-.45,6.77-.33,3.24-.93,6.43-1.71,9.59-1.05,4.29-2.47,8.47-4.2,12.54-.36,.86-.85,1.66-1.07,2.58-.48,.04-.96,.07-1.44,.11,.64-1.47,1.28-2.94,1.92-4.41,.43-.26,.21-.73,.36-1.08,.83-1.83,1.42-3.75,2.02-5.67,1.06-3.37,1.87-6.81,2.43-10.3,.32-2,.57-4,.72-6.01,.18-2.24,.26-4.49,.21-6.74-.01-.65-.16-1.3-.1-1.96,.03-.31-.21-.34-.37-.47,.54-.22,1.25-.12,1.56,.22Z" fill="#5fbf2e"/><path d="M33.28,83.47c-1.24-2.27-2.29-4.62-3.25-7.01-.1-.26-.22-.51-.23-.79,.29-.28,.48-.7,.96-.73,.88,2.39,1.92,4.7,3.07,6.97,.27,.53,.59,1.03,.89,1.54-.48,.23-.96,.44-1.45,.02Z" fill="#5fbf2e"/><path d="M85.42,49.04c1.5-1.17,2.67-2.63,3.73-4.19,.49,1.67,.23,3.15-1.03,4.44-1.81,1.87-4.1,2.84-6.52,3.58-1.62,.5-3.28,.75-4.94,1.07-.03-.61,.35-.87,.86-.95,2.12-.35,4.02-1.22,5.8-2.37,.12-.08,.24-.14,.3-.28,.33-.03,.47,.25,.68,.42,.43,.35,.65,.29,.78-.25,.1-.42,.03-.87,.2-1.28,.03-.07,.07-.14,.14-.19Z" fill="#5dba2e"/><path d="M89.13,44.85c-.39-.28-.62-.68-.87-1.08,.06-.1,0-.26,.14-.32,.28,.44,.62,.86,.73,1.39Z" fill="#f0f8ed"/><path d="M16.38,35.14c-.14,1.23-.13,2.48-.33,3.71-.14,.83,.09,1.65,.15,2.48,.01,.21,.06,.43,.06,.65-.28-.17-.56-.1-.86-.02-.23,.06-.46,.09-.41-.34,.28-2.12,.74-4.2,1.28-6.27,.02-.07,.07-.13,.11-.2Z" fill="#5dba2e"/><path d="M49.34,7.33c-.65-.72-1.29-1.43-2.13-1.96-.88-.55-1.03-.56-1.92,.03-.61,.41-1.22,.81-1.83,1.21,.16-.42,.46-.74,.77-1.04,.66-.64,1.27-1.32,1.78-2.09,.2-.05,.36,.03,.49,.16,.66,.69,1.4,1.28,2.16,1.85,.09,.07,.15,.18,.22,.28,.35,.46,.42,1,.47,1.55Z" fill="#fe7b7d"/><path d="M51.27,3.73c-.48,.17-1,.22-1.45,.49-.29,.18-.46,0-.59-.19-.23-.35-.53-.64-.82-.93-.37-.36-.17-.44,.2-.45,.55-.2,1.05,.06,1.55,.21,.41,.23,.91,.35,1.1,.86Z" fill="#fe6e6e"/><path d="M43.1,4.35c-.58,.24-1.2,.36-1.77,.63-.48,.23-.86,.54-1.09,1.03-.15-.55-.24-1.1-.13-1.68,.04-.25,.07-.35,.36-.26,.86,.26,1.77,.09,2.64,.28Z" fill="#fe7b7d"/><path d="M48.86,5.78c-1.09-.59-1.85-1.6-2.86-2.29,.13-.24,.25-.49,.4-.78,.81,1.06,1.95,1.8,2.46,3.07Z" fill="#fefbfb"/><path d="M44.3,2.43c.65,.41,.69,.61,.24,1.01-.07,.07-.15,.16-.25,.1-.5-.34-1.11-.32-1.65-.52,.44-.51,1-.71,1.66-.59Z" fill="#fe6d6d"/><path d="M52.81,4.34c0,.54,.43,.99,.35,1.56-.4-.76-1.08-.83-1.81-.68-.27,.06-.54,.07-.81,.08,.73-.38,1.58-.49,2.28-.96Z" fill="#fe7b7d"/><path d="M51.27,3.73c-.36-.24-.71-.48-1.07-.72-.24-.25-.73-.24-.75-.72,.38-.43,.69-.35,1,.1,.21,.31,.51,.56,.72,.86,.08,.12,.36,.26,.1,.48Z" fill="#fefafa"/><path d="M44.3,2.43c-.58,.12-1.15,.28-1.66,.59,0-.02,.01-.04,.02-.06q.53-1.13,1.64-.53Z" fill="#fe7b7d"/><path d="M49.45,2.29c.19,.3,.58,.39,.75,.72-.53-.09-1.03-.36-1.59-.35,.28-.12,.55-.24,.83-.36Z" fill="#fe7c7e"/><path d="M77.41,36.93c-1.18-4.04-2.72-7.93-5.03-11.47-1.11-1.71-2.3-3.35-3.83-4.72-.11-.28,.13-.52,.12-.79,.3-.04,.4,.23,.56,.38,3.84,3.88,6.41,8.51,8.05,13.69,.15,.47,.26,.95,.39,1.42,.06,.34,.04,.68,.02,1.01-.01,.18,.01,.42-.27,.46Z" fill="#fefefe"/><path d="M85.65,42.69c-1.51-.08-2.94,.36-4.39,.66-1.31,.27-2.59,.32-3.86-.17-.21-.08-.42-.12-.48-.38,1.44,.35,2.84,0,4.24-.29,1.07-.22,2.12-.51,3.2-.62,.61-.06,1.22-.08,1.8,.2-.17,.2-.33,.39-.5,.59Z" fill="#fdfefd"/><path d="M76.79,41.73c.42-1.33,.54-2.71,.81-4.07,.27,.17,.29,.46,.37,.72,.32,1.04,.41,2.15,.81,3.17,.02,.06-.02,.12-.04,.17-.46,0-.93,.07-1.38-.09-.19-.07-.38,0-.56,.1Z" fill="#5dba2e"/><path d="M78.73,41.72c-.54-.92-.54-1.98-.84-2.97-.11-.36-.19-.73-.29-1.09-.06-.24-.13-.48-.19-.72,.08-.49,.17-.99,.25-1.48,.64,1.97,.93,4.01,1.27,6.04,.02,.15-.03,.23-.19,.22Z" fill="#e1e2e0"/><path d="M25.02,49.89c-.01-2.25,.15-4.48,.34-6.72,.26-3.17,.8-6.29,1.59-9.36,.68-2.66,1.59-5.25,2.72-7.76,1.21-2.7,2.72-5.21,4.52-7.56,.31-.41,.73-.73,.91-1.23,.34,.31,.64,.66,.84,1.08-2.54,2.95-4.41,6.29-5.87,9.87-.23,.54-.45,1.07-.61,1.64-1.02,2.79-1.77,5.65-2.28,8.57-.33,1.87-.59,3.76-.73,5.65-.1,1.27-.23,2.53-.23,3.8,0,.19-.07,.4,.11,.56-.23,.66-.71,1.12-1.31,1.45Z" fill="#5fbf2e"/><path d="M58.21,17.76c.23,.63,.71,1.09,1.07,1.64,2.94,4.48,5.1,9.29,6.53,14.45,.64,2.3,1.1,4.63,1.49,6.97,.18,1.09,.26,2.2,.39,3.3-.62-.17-1.14-.48-1.44-1.07,.16-.67-.05-1.32-.15-1.97-.51-3.3-1.25-6.55-2.33-9.72-1.72-5.06-4.19-9.72-7.43-13.96-1.3-1.69-2.73-3.27-4.23-4.78,.73,.1,1.46,.22,2.15,.47,.82,.5,1.37,1.25,1.91,2.02,.36,1.13,1.04,2.01,2.05,2.64Z" fill="#5fbf2e"/><path d="M66.24,43.05c.48,.36,.96,.71,1.44,1.07,.4,.3,.79,.6,1.19,.91,.18,.14,.32,.32,.22,.57-.09,.23-.31,.22-.51,.22-.26,0-.52,0-.78-.01-.51-.18-1.04-.13-1.56-.22-2.03-.21-4.06-.41-6.09-.62-.34-.03-.56-.25-.61-.57-.25-1.73,.71-3.7,1.97-4.46,.39-.24,.63-.01,.9,.19,1.28,.98,2.55,1.95,3.83,2.93Z" fill="#318e00"/><path d="M25.02,49.89c.44-.48,.87-.97,1.31-1.45,.6-.62,1.2-1.22,1.78-1.85,.32-.35,.67-.38,1.07-.2,1.16,.51,2.27,2.38,2.14,3.62-.04,.35-.31,.48-.61,.58-1.5,.52-3,1.05-4.5,1.58-.29,.32-.65,.46-1.08,.45-.55,.1-1.04,.39-1.57,.53-.28,.07-.63,.38-.87,.04-.25-.36,.12-.63,.32-.87,.43-.55,.9-1.06,1.35-1.59,.23-.27,.45-.56,.67-.84Z" fill="#318e00"/><path d="M61.33,76.73c.01,.4,.51,.97-.36,1.08-1.94-1.29-3.96-2.44-5.95-3.63-.71-.42-.8-.6-.42-1.34,.65-1.25,1.53-2.28,2.93-2.73,.94-.3,1.18-.17,1.51,.74,.71,1.98,1.41,3.96,2.29,5.88Z" fill="#318e00"/><path d="M30.76,74.94c-.36,.19-.52,.65-.96,.73-.58-.15-.28-.63-.37-.97-.03-.91,.08-1.8,.48-2.64,.17-1.2,.33-2.39,.52-3.59,.11-.68,.44-.92,1.14-.97,1.42-.1,2.61,.37,3.61,1.37,.31,.3,.3,.53,.02,.86-1.49,1.73-2.96,3.47-4.44,5.21Z" fill="#318e00"/><path d="M29.91,72.05c-.14,.88-.24,1.77-.48,2.64-.54-1.01-.81-2.11-1.14-3.19-.75-2.47-1.4-4.96-1.87-7.5-.33-1.79-.62-3.58-.83-5.39-.23-1.99-.47-3.98-.46-5.98,.36-.15,.72-.3,1.08-.45,.11,1.86,.24,3.71,.44,5.56,.22,1.95,.5,3.89,.89,5.8,.5,2.49,1.06,4.96,1.87,7.37,.13,.39,.05,.88,.49,1.14Z" fill="#5fbf2e"/><path d="M42.27,32.62c0-.22,0-.44,0-.66,.01-.35,.05-.69-.47-.67-.15,0-.24-.14-.25-.29-.01-.2,.1-.3,.28-.32,.41-.06,.83-.1,1.23-.18,1.04-.21,1.97-.63,2.69-1.43,.28-.31,.55-.31,.81-.03,1,1.05,2.21,1.59,3.67,1.58,.21,0,.52,.02,.54,.35,.02,.3-.21,.33-.44,.37-.38,.07-.26,.4-.28,.63-.11,1.69-.37,3.36-.95,4.96-.34,.94-.76,1.85-1.45,2.59-1.31,1.4-2.8,1.26-3.88-.35-.74-1.1-1.05-2.36-1.27-3.63-.16-.96-.28-1.93-.25-2.91Z" fill="#553826"/><path d="M29.45,29.86c-.09-.65,.16-1.18,.61-1.64,.92-.56,1.89-.79,2.96-.52,1.05,.27,1.71,.88,1.73,1.7,.03,.87-.5,1.49-1.61,1.79-.93,.25-1.85,.22-2.72-.24-.46-.25-.75-.64-.97-1.1Z" fill="#feacb1"/><path d="M59.96,31.45c-.66,.04-1.3-.13-1.88-.52-.95-.64-1-1.86-.12-2.58,1.07-.88,3.05-.85,4.11,.06,.74,.64,.78,1.62,.07,2.31-.59,.58-1.33,.76-2.18,.73Z" fill="#feacb1"/><path d="M62.29,58.01c-.05-.5,.1-.95,.25-1.4,.28-.83,.75-1.18,1.42-1.09,.61,.08,1.24,.82,1.33,1.5,.11,.85-.28,1.46-.87,1.97-.43,.38-.93,.59-1.52,.31-.58-.27-.65-.75-.6-1.29Z" fill="#57b627"/><path d="M52.92,23.84c1.2,.27,2.39,.54,3.59,.81,.66,.15,1.31,.28,1.96,.46,.39,.1,.64,.38,.54,.8-.1,.41-.43,.57-.83,.47-1.81-.42-3.62-.86-5.43-1.28-.41-.1-.65-.32-.59-.74,.05-.43,.37-.53,.76-.51Z" fill="#553826"/><path d="M39.36,23.86c.3-.04,.54,.15,.58,.52,.04,.36-.16,.61-.52,.69-1.21,.28-2.43,.56-3.64,.84-.64,.15-1.27,.32-1.9,.46-.38,.09-.69-.08-.79-.45-.11-.38,.1-.7,.46-.79,1.85-.44,3.7-.84,5.55-1.26,.06-.01,.12,0,.27-.02Z" fill="#553826"/><path d="M56.16,15.13c-.71-.61-1.24-1.37-1.91-2.02,.15,.03,.31,.06,.46,.1q1.45,.39,1.45,1.93Z" fill="#6ad137"/><path d="M71.15,39.74c0-1.16,.48-1.96,1.24-2.16,.59-.15,1.08,.03,1.39,.54,.55,.91,.63,1.85,.12,2.81-.51,.96-1.6,1.08-2.28,.22-.35-.43-.53-.93-.46-1.42Z" fill="#57b627"/><path d="M85.42,49.04c-.08,.57-.12,1.14-.25,1.7-.13,.57-.46,.63-.9,.22-.22-.2-.43-.41-.65-.62-.22-.48-.67-.78-.96-1.21-.33-.49-.33-.91,.12-1.29,.56-.47,1.22-.66,1.94-.59,.45,.05,.77,.27,.7,.83-.04,.31,0,.63,0,.95Z" fill="#318f00"/><path d="M74.51,67.38s0,.08,0,.12c-.2,.92-.27,1.89-.96,2.63,0,0,0,0,0,0-1.01-.03-1.07-.87-.9-1.54,.04-.17,.15-.32,.23-.48,.46-.92,.64-1,1.63-.74Z" fill="#57b627"/><path d="M68.82,24.71c.58,0,1.02,.52,1.02,1.22,0,.48-.32,.83-.76,.81-.51-.01-1.11-.75-1.13-1.37-.01-.43,.29-.66,.87-.66Z" fill="#fdfefd"/><path d="M9.18,50.84c-.06,.05-.13,.09-.19,.14-.24,.22-.44,.6-.82,.44-.4-.17-.39-.6-.41-.97-.02-.32-.04-.62-.13-.93,0-.4,.03-.8-.01-1.2-.07-.6,.29-.78,.77-.83,.49-.06,.95,.07,1.39,.28,.92,.44,1.06,1.04,.44,1.83-.33,.42-.69,.83-1.03,1.24Z" fill="#318f00"/><path d="M31.6,18.82c0,.76-.74,1.88-1.45,2.1-.43,.14-.88,.2-1.28-.18-.4-.39-.35-.86-.2-1.27,.27-.77,.81-1.36,1.55-1.73,.69-.34,1.38,.22,1.37,1.08Z" fill="#57b627"/><path d="M24.05,59.75c0,1.03-.17,1.35-.87,1.54-.52,.14-.94-.01-1.21-.48-.52-.91,.06-2.2,1.07-2.41,.52-.11,.96,.21,1.01,.75,.02,.2,0,.4,0,.6Z" fill="#57b627"/><path d="M20.22,66.19c-.03-.27,.02-.52,.2-.73,.3-.34,.72-.29,.93,.11,.12,.23,.22,.47,.28,.72,.14,.52-.05,.87-.5,.95-.48,.09-.84-.18-.9-.7-.02-.12,0-.24,0-.36Z" fill="#57b727"/><path d="M27.29,23.67c0,.68-.31,1.03-.81,1.05-.48,.02-.7-.29-.72-.69-.03-.55,.48-1.12,.94-1.11,.58,.01,.56,.44,.59,.75Z" fill="#57b727"/><path d="M73.56,70.14c.33-.65,.49-1.36,.71-2.05,.06-.2,.08-.43,.25-.58,.24,.12,.32,.34,.35,.59,.1,.72-.61,1.82-1.31,2.05Z" fill="#4ea324"/><path d="M42.99,32.87c0-1.5,0-1.51,1.28-1.96,.55-.2,1.05-.49,1.49-.87,.3-.25,.5-.34,.84,0,.64,.62,1.43,1,2.32,1.15,.27,.05,.45,.11,.44,.43-.12,2.55-.52,5.03-2.03,7.19-.91,1.3-2.03,1.29-2.91-.02-.82-1.22-1.11-2.63-1.3-4.05-.09-.67-.19-1.34-.13-1.86Z" fill="#e52c20"/></svg>