<?xml version="1.0" encoding="UTF-8"?><svg id="Layer_1" xmlns="http://www.w3.org/2000/svg" viewBox="0 0 114.82 112.13"><path d="M37.58,23.23c-.98-.41-1.18-.96-.56-1.8,1.06-1.42,2.5-2.22,4.27-2.41,.14-.01,.28-.02,.53-.03-1.07-1.63-2.01-3.25-3.66-4.28-1.13-.71-1.16-1.27-.15-2.15,1.19-1.04,2.63-1.25,4.15-1.19,.81,.03,.77,.04,.71-.76-.1-1.4,.11-2.77,.67-4.07,.24-.57,.72-.82,1.31-.85,1.64-.09,3.24,.03,4.76,.72,.16,.08,.32,.21,.43-.11,.63-1.95,2.04-3.25,3.65-4.4,.48-.35,.88-.78,1.21-1.28,.37-.56,1.13-.61,1.43-.06,.93,1.76,2.45,3.06,3.6,4.66,.6,.83,.61,.83,1.53,.36,1.08-.55,2.24-.84,3.43-1.02,.87-.13,1.32,.14,1.57,1,.38,1.29,.87,2.55,.87,3.92,0,.46,.19,.56,.61,.53,1.79-.09,3.48,.26,5.01,1.24,.83,.53,.92,.93,.3,1.67-.71,.84-1.31,1.76-1.75,2.77-.5,1.14-1.03,2.26-1.77,3.32,2.31,.33,4.06,1.38,5.08,3.47,.31,.55,.07,.96-.35,1.31-.74,.34-1.59,.19-2.32,.57-.88,.36-1.69,.87-2.49,1.39-.96,.62-1.96,1.15-2.99,1.64-.46,.17-.93,.25-1.4,.39-1.15,.19-2.31,.26-3.47,.11-.35-.05-.56,.12-.74,.37-1.05,1.42-2.5,2.31-4.1,2.99-.76,.32-1.18,.26-1.68-.38-.68-.86-1.53-1.51-2.4-2.15-.55-.4-1.04-.87-1.51-1.36-.24-.25-.5-.33-.85-.26-1.7,.33-3.4,.3-5.11,.04-1.83-.37-3.42-1.23-4.92-2.3-.44-.32-.88-.64-1.38-.88-.46-.33-1.11-.25-1.49-.72Z" fill="#f9434d"/><path d="M83.69,107.78c-.87,.3-1.77,.36-2.67,.4-.7,.03-1.3,.06-1.78,.77-.6,.89-1.67,1.22-2.66,1.5-2.29,.66-4.65,.97-7.03,1.17-2.71,.23-5.43,.29-8.15,.4-3.64,.15-7.28,.13-10.91,.06-2.97-.06-5.93-.25-8.89-.56-2.54-.27-5.06-.56-7.54-1.15-1.68-.4-3.35-.89-4.72-2.03-.04-.04-.12-.03-.18-.05,.05-.31,.32-.37,.55-.46,1.84-.74,3.76-1.12,5.74-1.24,1.78-.11,3.54-.02,5.29,.34,.71,.15,1.39,.38,2.06,.63,.44,.16,.85,.17,1.3,.02,2.17-.75,4.43-1.09,6.71-1.24,3.88-.25,7.67,.28,11.38,1.39,.34,.1,.66,.1,.98-.05,2.35-1.04,4.85-1.41,7.39-1.61,3.62-.29,7.17,.04,10.71,.79,.62,.13,1.23,.32,1.83,.51,.23,.07,.51,.11,.58,.42Z" opacity=".3"/><path d="M83.69,107.78c-1.37-.59-2.84-.86-4.3-1.11-2.44-.41-4.9-.62-7.38-.51-3.08,.13-6.13,.46-8.98,1.79-.25,.12-.47,.12-.73,.03-2.16-.72-4.38-1.15-6.65-1.33-1.64-.13-3.28-.29-4.93-.13-2.35,.22-4.68,.5-6.9,1.38-.28,.11-.53,.07-.8-.04-2.83-1.16-5.76-1.31-8.75-.96-1.78,.2-3.51,.58-5.12,1.4-.84,.07-1-.07-.97-.84,.09-.37,.37-.53,.68-.67,.6-.25,1.21-.44,1.82-.66,.46-.14,.92-.24,1.38-.38,2.21-.45,4.43-.69,6.69-.41,1.16,.11,2.3,.3,3.42,.65,.6,.14,1.16,.62,1.83,.24,2.94-.9,5.95-1.34,9.01-1.26,2.99,.08,5.95,.47,8.83,1.3,.54,.15,1.01,.14,1.54-.07,2.07-.81,4.22-1.21,6.43-1.37,.49,.02,.97-.16,1.46-.13,1.9-.03,3.79-.08,5.68,.16,1.52,.21,3.05,.37,4.55,.74,.23,.06,.45,.09,.68,.16,.44,.17,.9,.26,1.35,.41,.25,.1,.53,.16,.76,.3,.54,.32,.58,.74,.13,1.22-.23,.14-.49,.14-.74,.11Z" fill="#047425"/><path d="M31.99,105.88c-.39,.24-.84,.23-1.26,.38-.26-.14-.34-.42-.46-.66-.39-.77-.78-1.54-1.16-2.31-.11-.22-.27-.43-.19-.71-.55-1.18-1.09-2.37-1.64-3.55-.12-.08-.23-.18-.29-.32-.51-1.16-.99-2.33-1.45-3.5-.05-.12-.04-.25-.04-.37-.53-1.5-1.06-2.99-1.58-4.5-.79-2.32-1.5-4.66-2.11-7.04-.06-.25-.03-.63-.49-.56,.04-1.05-.36-2.02-.55-3.02-.13-.68-.27-1.36-.42-2.04-.06-.27-.08-.54,.05-.8-.33-1.52-.54-3.06-.74-4.6-.12-.96-.24-1.92-.33-2.88-.03-.36-.19-.43-.52-.43-1.86-.02-3.72,.03-5.57-.19-2.08-.25-4.14-.61-5.91-1.87,.2-.59,.7-.76,1.24-.88,1.45,.62,2.93,1.07,4.5,1.24,1.35,.15,2.69,.22,4.05,.19,1.73-.04,3.47,.07,5.2-.06,.56-.04,.99,.3,1.03,.73,.04,.43-.25,.76-.81,.89-.33,.08-.67,.05-1.01,.06-.6,.02-.71,.11-.65,.72,.08,.86,.18,1.72,.3,2.58,1.27,9.29,3.98,18.15,7.8,26.7,.9,2.01,1.89,3.97,2.86,5.95,.12,.25,.34,.5,.17,.83Z" fill="#37af00"/><path d="M83.56,106.28c-.45-.06-.89-.16-1.3-.37-.02-.34,.18-.6,.32-.88,2.67-5.2,4.95-10.57,6.76-16.13,1.91-5.89,3.31-11.9,3.96-18.06,.04-.42,.09-.84,.12-1.26,.03-.34-.12-.46-.43-.46-.25,0-.51-.01-.75-.09-.58-.18-.74-.45-.65-1.1,.09-.17,.22-.3,.39-.38,.22-.09,.44-.14,.68-.12,2.36,.13,4.73,.09,7.09,.04,2.25-.05,4.45-.43,6.52-1.4,.57,.08,1.08,.26,1.29,.87-1.26,.93-2.74,1.32-4.24,1.62-2.55,.5-5.13,.41-7.7,.43-.44,0-.66,.04-.69,.58-.08,1.17-.26,2.34-.41,3.51-.02,.13,.07,.19,.12,.27-.13,1.51-.42,3-.72,4.49-.03,.15-.11,.27-.2,.39-.33,1.4-.67,2.8-.99,4.2-.5,2.17-1.15,4.31-1.8,6.44,.09,.26,.03,.5-.06,.74-.46,1.31-.9,2.63-1.39,3.93-.07,.18-.15,.35-.32,.46-1.23,3.06-2.48,6.12-3.95,9.07-.13,.26-.24,.53-.36,.79-.24,.9-.55,1.77-1.27,2.42Z" fill="#37af00"/><path d="M24.35,37.8c1.64-3.2,3.63-6.14,6.11-8.75,1.14-1.63,2.63-2.87,4.3-3.91l1.25-.82c.37,.31,.74,.61,.94,1.07-1.65,1.18-3.22,2.44-4.66,3.87-3.06,3.04-5.42,6.55-7.23,10.46-1.97,4.25-3.2,8.72-3.92,13.34-.06,.4,.1,.58,.48,.65,.57,.11,1.19,.05,1.7,.44,.25,.26,.43,.54,.25,.9-.2,.4-.56,.49-.96,.46-.74-.05-1.47-.17-2.2-.26-2.06-.24-4.03,.12-5.98,.72-.54,.17-.97,.06-1.16-.34-.24-.49-.02-.85,.38-1.14,1.01-.44,2.09-.64,3.17-.82,.71-.11,.74-.16,.76-.89,.01-.59-.03-1.18,.03-1.77,.28-.68,.8-1.15,1.41-1.52,.12,1.23,0,2.45,.02,3.68,0,.18-.18,.49,.24,.52,.35,.02,.35-.25,.38-.46,.49-3.72,1.41-7.33,2.69-10.85,.03-.08,.07-.15,.1-.23-.1-.16-.06-.32,0-.48,.45-1.18,.96-2.33,1.53-3.46,.09-.18,.23-.3,.38-.41Z" fill="#37af00"/><path d="M80.47,26.14c1.18,1.11,2.41,2.16,3.51,3.36,1.94,2.12,3.61,4.42,5.03,6.91,.26,.16,.41,.43,.55,.69,.61,1.11,1.18,2.25,1.66,3.42,.13,.31,.17,.65,.21,.98,1.15,2.64,1.91,5.4,2.52,8.21,.26,1.21,.44,2.43,.64,3.66,.11,.67,.6,.24,.9,.33,.3,.09,.38-.08,.38-.38,0-1.27-.12-2.53,0-3.8,.61,.37,1.11,.84,1.4,1.51,.06,.55,.03,1.09,.03,1.64,0,.9,.01,.91,.88,1.05,.71,.12,1.41,.26,2.1,.45,.28,.08,.56,.18,.82,.32,.51,.28,.71,.66,.56,1.06-.16,.43-.55,.57-1.16,.44-2.55-.86-5.15-1.02-7.8-.52-.27,.05-.54,.07-.82,.03-.78-.37-.85-.73-.26-1.4,.28-.2,.62-.28,.95-.3,.45-.04,.56-.26,.49-.68-.31-1.9-.67-3.78-1.18-5.63-.21-.75-.33-1.53-.64-2.25-.02-.34-.25-.61-.34-.93-.05-.26-.14-.52-.23-.77-1.55-4.32-3.72-8.28-6.67-11.81-1.3-1.56-2.77-2.96-4.3-4.29,.11-.52,.3-.98,.76-1.29Z" fill="#37af00"/><path d="M80.47,26.14c-.24,.42-.49,.85-.73,1.27,.15,.47-.29,.72-.41,1.09-.42,.88-.88,1.73-1.36,2.57-.49,.85-.82,.95-1.72,.56-1.27-.55-1.99-1.58-2.42-2.85-.12-.35,.04-.61,.27-.85,.6-.63,1.3-1.14,1.96-1.7,.37-.24,.68-.56,1.03-.83,.45-.24,.65-.83,1.23-.87,1.2-1.06,2.41-2.12,3.61-3.19,.06-.06,.13-.11,.19-.16,.24-.2,.52-.23,.76-.06,.3,.21,.14,.49,0,.73-.8,1.43-1.61,2.86-2.42,4.29Z" fill="#318e00"/><path d="M91.43,41.49c-.41-.89-.69-1.83-1.16-2.69-.43-.79-.84-1.6-1.26-2.4,2.82-.91,5.64-1.83,8.46-2.73,.35-.11,.8-.47,1.08,0,.26,.43-.22,.67-.47,.93-2.09,2.12-4.21,4.23-6.24,6.41-.14,.15-.28,.32-.41,.47Z" fill="#318e00"/><path d="M36.92,25.38c-.35-.32-.74-.59-.9-1.06,.11-.38,.37-.53,.75-.49,.58-.05,1.01,.33,1.52,.49,2.25,.86,4.41,1.94,6.68,2.76,.41,.3,.49,.76,.41,1.19-.2,1.13-.68,2.13-1.64,2.82-.75,.54-1.08,.52-1.76-.12-.38-.39-.75-.78-1.08-1.22-1.26-1.21-2.36-2.56-3.62-3.77-.17-.16-.42-.31-.36-.62Z" fill="#318e00"/><path d="M20.4,76.89c.24,1.55,.62,3.06,.94,4.6,.08,.4,.47,.86-.03,1.26-2.54,.24-5.07,.48-7.61,.72-.31,.03-.62,.05-.77-.27-.16-.35,.11-.54,.35-.72,2.37-1.86,4.74-3.72,7.11-5.58Z" fill="#318e00"/><path d="M34.77,25.13c-.88,.81-1.87,1.49-2.73,2.33-.37,.37-.77,.7-1.09,1.13-.13,.17-.21,.43-.49,.46-1.21-2.52-2.42-5.04-3.63-7.56-.07-.15-.14-.31-.21-.46-.11-.24-.06-.46,.13-.63,.19-.18,.4-.08,.58,.04,.69,.44,1.38,.89,2.08,1.33,1.78,1.12,3.57,2.24,5.36,3.36Z" fill="#318e00"/><path d="M6.05,65.78c-1.15-1.36-1.66-3.01-2.13-4.68-.34-1.21-.46-2.46-.65-3.7-.13-.18-.2-.37-.19-.59,.07-.97-.21-1.96,.18-2.9,.17-2.53,.4-5.04,1.28-7.45,.25-.67,.63-1.27,.94-1.91,.54,.25,.88,.65,.92,1.27-1.28,2.82-1.58,5.83-1.67,8.87-.11,3.36,.42,6.58,2.01,9.58,.02,.62-.19,1.13-.69,1.51Z" fill="#37af00"/><path d="M89.14,93.99c.59-1.71,1.18-3.42,1.77-5.13,2.34,1.8,4.69,3.6,7.03,5.4,.2,.16,.43,.32,.31,.62-.12,.3-.41,.27-.66,.23-1.73-.23-3.46-.48-5.2-.71-1.09-.15-2.18-.27-3.26-.41Z" fill="#318e00"/><path d="M109.41,44.55c1.73,2.89,1.98,6.12,2.21,9.36,.35,.61,.17,1.27,.18,1.9,0,.53,.14,1.09-.19,1.59-.27,2.05-.6,4.09-1.41,6.01-.36,.85-.74,1.68-1.37,2.37-.49-.35-.66-.86-.71-1.44,.79-1.41,1.28-2.93,1.66-4.49,0-.07,0-.14,.02-.21,.51-2.64,.51-5.28,.18-7.94-.25-2.02-.61-4.01-1.49-5.87,.03-.63,.38-1.03,.92-1.29Z" fill="#37af00"/><path d="M93.71,78.22c.19-1.15,.36-2.3,.57-3.45,.09-.48-.02-1.01,.35-1.43,2.44,.77,4.88,1.55,7.33,2.32,.24,.08,.43,.2,.4,.49-.03,.36-.34,.41-.6,.47-1.34,.28-2.68,.54-4.03,.8-1.34,.27-2.68,.53-4.02,.8Z" fill="#318e00"/><path d="M25.49,94.83c.59,1.4,1.19,2.8,1.78,4.2-2.28,.71-4.56,1.42-6.84,2.13-.23,.07-.5,.21-.68-.09-.15-.25,.03-.44,.19-.61,1.85-1.88,3.69-3.75,5.54-5.63Z" fill="#318e00"/><path d="M15.94,42.27c0,.13,.02,.24,.13,.33,1.6,1.28,2.28,3.05,2.71,4.97,.04,.2,.06,.42,.23,.56-.38,.41-.85,.57-1.4,.51-.32-.53-.31-1.17-.52-1.74-.33-.91-.65-1.82-1.35-2.53-1.51-1.88-4.8-2.58-7.35-.81-.56-.06-1.05-.25-1.32-.8,1.61-1.43,3.51-1.84,5.59-1.63,.87-.05,1.63,.26,2.37,.69,.29,.17,.53,.41,.89,.44Z" fill="#37af00"/><path d="M95.87,48.13c.34-.54,.34-1.19,.54-1.77,.49-1.43,1.14-2.75,2.35-3.72,.13-.1,.2-.21,.18-.37,.35-.03,.61-.27,.89-.44,.73-.43,1.5-.74,2.37-.69,2.08-.21,3.99,.19,5.59,1.63-.21,.52-.68,.66-1.16,.76-.6-.14-1.08-.56-1.68-.74-2.6-.79-5.84,.2-7.04,3.66-.17,.48-.3,.97-.41,1.46-.07,.18-.09,.38-.17,.55-.05,.09-.12,.15-.22,.19-.46-.06-.93-.12-1.25-.52Z" fill="#37af00"/><path d="M24.35,37.8c-.7,1.43-1.39,2.85-1.91,4.36-1.68-1.69-3.37-3.38-5.04-5.09-.18-.18-.56-.37-.3-.73,.22-.31,.53-.15,.81-.08,2.14,.53,4.28,1.12,6.45,1.54Z" fill="#318f00"/><path d="M28.92,102.59c.61,1.22,1.28,2.41,1.81,3.68-.87,.35-1.83,.49-2.54,1.18-.04-.34-.36-.32-.57-.4-.49-.18-.99-.33-1.38-.72-.94-.94-.81-2.03,.31-2.74,.74-.47,1.58-.67,2.37-1Z" opacity=".3"/><path d="M6.05,65.78c.22-.47,.44-.95,.66-1.42,.03-.81,.49-1.43,1.01-1.96,.37-.38,.9-.28,1.37-.08,.58,.32,1.11,.71,1.51,1.26,.24,.46,.14,.86-.23,1.2-.58,.52-1.13,1.08-1.88,1.35-.41,.22-.82,.46-1.16,.79-.43,.13-.73,.46-1.12,.66-.2,.1-.41,.16-.59,.01-.2-.16-.22-.38-.1-.62,.19-.39,.36-.79,.53-1.19Z" fill="#318e00"/><path d="M108.18,64.36c.22,.47,.44,.95,.66,1.42,.18,.4,.35,.8,.53,1.19,.11,.24,.09,.46-.1,.62-.18,.15-.39,.09-.59-.01-.39-.2-.69-.53-1.12-.66-.34-.34-.74-.57-1.16-.79-.66-.21-1.1-.74-1.64-1.11-.81-.82-.79-1.25,.06-2.04,.14-.13,.29-.24,.45-.35,1.12-.76,1.77-.63,2.49,.51,.14,.41,.52,.73,.44,1.22Z" fill="#318f00"/><path d="M7.09,42.77c.42,.25,.84,.51,1.26,.76,1.11,.09,1.48,.81,.91,1.73-.25,.4-.52,.76-.92,1.03-1.02,.67-1.48,.54-2.01-.59-.19-.45-.57-.76-.85-1.14-.47-.67-.96-1.34-1.42-2.02-.17-.25-.43-.52-.17-.85,.27-.34,.58-.13,.86,0,.78,.35,1.56,.73,2.34,1.09Z" fill="#318f00"/><path d="M106.61,43.42c.47-.09,.81-.4,1.19-.65,.8-.37,1.59-.76,2.39-1.12,.26-.12,.56-.28,.8,.03,.24,.31,.03,.56-.14,.8-.48,.69-.96,1.38-1.45,2.07-.28,.38-.66,.7-.85,1.15-.14,.35-.36,.64-.65,.89-.53,.3-.92-.06-1.34-.3-.52-.3-.83-.78-1.09-1.29-.28-.53-.14-.9,.41-1.27,.23-.13,.47-.24,.72-.31Z" fill="#318f00"/><path d="M17.63,48.61c.46-.16,.92-.32,1.38-.47,.21-.06,.42-.11,.57,.11,.16,.23-.02,.4-.12,.57-.14,.24-.3,.46-.45,.69-.42,.47-.84,.93-1.26,1.4-.24,.48-.63,.83-1.03,1.16-.49,.42-1.01,.3-1.5-.04-.42-.32-.68-.76-.85-1.24-.23-.65-.04-1.04,.59-1.32,.43-.19,.86-.34,1.31-.48,.46-.08,.84-.47,1.36-.38Z" fill="#328e00"/><path d="M95.87,48.13c.43,.15,.85,.31,1.28,.46,.17-.1,.33-.05,.49,.02,.76,.32,1.55,.55,2.31,.87,.3,.13,.56,.29,.62,.65,.15,.8-.7,2.03-1.51,2.17-.32,.05-.64,.02-.89-.22-.39-.36-.8-.69-1.04-1.18-.42-.47-.84-.94-1.26-1.4-.15-.23-.31-.45-.45-.69-.1-.17-.28-.34-.12-.57,.15-.22,.36-.17,.57-.11Z" fill="#328e00"/><path d="M83.56,106.28c.42-.81,.85-1.62,1.27-2.42,.37,.13,.75,.25,1.12,.4,.59,.24,1.05,.62,1.14,1.3,.09,.69-.33,1.09-.86,1.41-.56,.34-1.18,.53-1.8,.7,.35-.65,.25-.9-.43-1.2-.15-.06-.35-.02-.44-.2Z" opacity=".3"/><path d="M102.2,41.14c-1.07,.23-2.08,.58-2.97,1.24-.18,.13-.2-.06-.29-.11-.09-.9-.2-1.8-.27-2.7-.02-.31-.15-.68,.26-.89,.43-.22,.62,.13,.85,.33,.81,.71,1.61,1.42,2.42,2.14Z" fill="#318f00"/><path d="M15.94,42.27c-.09,.05-.11,.24-.29,.11-.89-.65-1.9-1.01-2.97-1.24,.8-.71,1.6-1.43,2.41-2.14,.24-.21,.43-.55,.85-.33,.41,.21,.29,.58,.26,.89-.07,.9-.18,1.8-.27,2.7Z" fill="#318f00"/><path d="M3.26,53.91c0,1.16,0,2.33,0,3.49-.88-.33-1.77-.67-2.65-1-.23-.09-.44-.19-.45-.47,0-.27,.19-.4,.4-.52,.9-.5,1.8-1.01,2.7-1.51Z" fill="#318f00"/><path d="M111.62,57.4c0-1.16,0-2.33,0-3.49,.9,.5,1.79,1.01,2.7,1.51,.21,.12,.41,.25,.4,.52,0,.28-.22,.38-.45,.47-.89,.33-1.77,.67-2.65,1Z" fill="#318f00"/><path d="M78.32,24.52c-.37,.32-.75,.65-1.12,.97-.96-.57-2-1.01-2.82-1.8,.39-.32,.43-.76,.41-1.22,1.24,.58,2.34,1.4,3.54,2.05Z" fill="#37af01"/><path d="M38.22,24.47c-.48-.21-.96-.43-1.45-.64,.27-.2,.54-.4,.81-.6,.52,.17,1.07,.28,1.52,.61-.1,.49-.55,.47-.88,.63Z" fill="#38af01"/><path d="M42.02,30.82c.81,.68,1.02,.71,1.82,0,.9-.8,1.43-1.79,1.37-3.04-.01-.26-.15-.43-.28-.62,.03-.33,.24-.18,.4-.14,1.11,.16,2.23,.13,3.35,.14,.55,0,1.12-.03,1.62-.19,.59-.18,.93-.01,1.29,.41,.56,.66,1.29,1.14,1.98,1.67,.63,.49,1.25,1,1.74,1.65,.49,.66,.78,.72,1.52,.41,1.66-.69,3.13-1.66,4.2-3.14,.13-.17,.22-.37,.49-.31,1.24,.25,2.48,.1,3.71-.02,.46-.02,.64,.35,.88,.63,3.12,3.58,5.2,7.74,6.85,12.15,2.02,5.38,3.2,10.95,3.91,16.64,.07,.57,.13,1.13,.17,1.7-.04,.25-.23,.39-.4,.55-.96,.93-1.5,2.06-1.65,3.39-.04,.35,.07,.57,.42,.65,.45,.11,.88,.28,1.33,.4,.29,.07,.57,.16,.7,.48,.17,2.36,.31,4.73,.1,7.09-.11,1.2-.06,2.41-.14,3.61-.23,3.51-.64,6.99-1.24,10.46-.51,2.99-1.22,5.93-2.03,8.85-.1,.34-.17,.7-.44,.97-.42,.17-.5-.23-.64-.44-.99-1.45-1.83-2.99-2.71-4.5-.29-.49-.58-.98-.87-1.47-.24-.4-.57-.53-1.02-.39-1.44,.48-2.46,1.45-3.12,2.79-.36,.72-.18,1.12,.54,1.49,2.08,1.09,4.15,2.17,6.2,3.3,.4,.22,.85,.38,1.13,.79-.02,.85-.45,1.57-.72,2.34-.64,1.86-1.49,3.63-2.31,5.42-.08,.18-.18,.33-.34,.45-2.31,.24-4.59,.61-6.75,1.53-.31,.13-.59,.12-.91,.03-2.05-.56-4.12-1.03-6.25-1.18-1.2-.09-2.39-.25-3.59-.23-2.62,.06-5.2,.38-7.73,1.11-.22,.06-.45,.1-.68,.14-.21-.12-.33-.32-.44-.53-1.11-2.09-2.16-4.2-3.11-6.37-.85-1.95-1.65-3.93-2.36-5.94-.08-.24-.19-.47-.17-.74,.4-.95,1.1-1.69,1.7-2.5,.74-1,1.53-1.97,2.29-2.96,.48-.62,.45-.76-.23-1.18-.88-.55-1.79-1.05-2.88-1.07-.82-.02-1,.12-1.17,.92-.17,.83-.34,1.66-.49,2.49-.04,.25-.01,.57-.38,.63-.25-.2-.31-.5-.39-.78-1.52-5.27-2.59-10.63-3.12-16.1-.22-2.23-.41-4.46-.37-6.7,0-.27-.02-.55,.06-.82,.17-.36,.55-.43,.85-.62,.64-.42,.67-.48,.48-1.24-.18-.71-.5-1.34-.92-1.92-.16-.22-.35-.42-.42-.7,.27-5.41,1.12-10.71,2.66-15.91,1.28-4.35,3.08-8.46,5.47-12.31,.27-.44,.42-1.03,1.03-1.2Z" fill="#68d034"/><path d="M97.13,50.9c.35,.33,.71,.65,1.05,.99,.37,.37,.77,.36,1.2,.12,.53-.3,.82-.79,1-1.33,.16-.48,.07-.88-.53-1.07-.92-.3-1.81-.67-2.71-1.02,.03-.04,.07-.08,.1-.11,.11-.15,.1-.36,.21-.51,.59-1.64,1.51-3.06,2.84-4.19,1.33-1.13,3.95-1.25,5.44-.32,.13,.08,.25,.16,.28,.32-.65,.45-.69,.69-.27,1.39,.33,.53,.75,.94,1.31,1.23,.3,.16,.59,.22,.89,.03,.36,.08,.39,.41,.49,.67,.83,2.06,1.11,4.22,1.33,6.41,.21,2.08,.02,4.16,.16,6.23,0,.05,0,.1,0,.14-.51,.94-.93,1.93-1.63,2.75-.19,.22-.33,.49-.65,.57-.19-.09-.25-.28-.33-.45-.16-.32-.43-.44-.77-.46-.72-.04-1.99,.87-2.22,1.56-.19,.58,.37,.74,.56,1.11-.12,.3-.41,.34-.66,.43-1.84,.65-3.75,.96-5.69,1.16-1.45,.15-2.9,.12-4.35,.26-.82,.08-1.64,.2-2.26,.83-.08,.08-.17,.17-.25,.25-.27,.62-.09,1.29-.18,1.93-.79,5.74-1.95,11.39-3.84,16.87-2.12,6.15-4.98,11.94-8.91,17.17-.22,.29-.46,.55-.69,.83-.28,.34-.6,.44-1.01,.3-1.94-.2-3.88-.11-5.82-.15-.1-.27,.05-.49,.16-.72,3.09-6.52,4.87-13.42,6-20.52,.5-3.16,.81-6.33,.99-9.52,.15-2.6,.22-5.2,.15-7.8-.02-.57-.22-1.13-.05-1.7,.24-.39,.56-.19,.84-.1,1.97,.64,3.97,1.21,5.93,1.88,.31,.1,.73,.39,.94,.08,.23-.34-.25-.56-.47-.77-1.29-1.28-2.54-2.61-3.91-3.81-1.02-.9-1.81-2.01-2.81-2.93-.22-.2-.41-.43-.66-.59-.26-.14-.39-.36-.42-.66-.39-3.41-.97-6.79-1.78-10.12-1.43-5.92-3.5-11.58-6.84-16.72-.72-1.1-1.52-2.14-2.38-3.14-.12-.14-.28-.26-.31-.47,1.6-.73,3.02-1.75,4.54-2.61,.27-.15,.57-.26,.86-.39,1.61,.23,2.93,1.05,4.17,2.05-.65,.57-1.29,1.14-1.95,1.7-.29,.25-.38,.51-.22,.88,.53,1.27,1.28,2.3,2.67,2.74,.49,.16,.78,.02,1-.37,.52-.94,1.02-1.88,1.53-2.83,.48,.16,.77,.57,1.14,.87,.24,.19,.19,.44,.03,.68-1.35,2.01-.29,5.47,2.2,6.42,1.1,.42,2.19,.43,3.28,.05,.51-.18,.82-.06,1.13,.36,1.55,2.08,2.73,4.36,3.72,6.74,.12,.24,.21,.49,.32,.74,.08,.27,.36,.46,.29,.79,.18,1.14,.39,2.28,.49,3.43,.14,1.68,.32,3.36,.07,5.05-.03,.23-.08,.46-.21,.66-.41,.45-.42,.85,.17,1.17,.45,.23,.92,.09,1.37,.02,1.25-.2,2.49-.04,3.72,.08,.38,.04,.66,.19,.72,.65,.11,.82,.43,1.09,1.18,1.12,.8,.03,1.36-.32,1.56-1,.04-.14,.06-.29,.19-.39,.44,.15,.82,.07,.98-.39,.16-.46-.18-.7-.55-.86-1.03-.44-2.13-.64-3.23-.76-.52-.06-.64-.28-.64-.72,0-.74,0-1.48,0-2.21Z" fill="#68d034"/><path d="M60.04,12.03c-.02,.79-.43,1.43-.77,2.09-.29,.55-.67,1.06-1.01,1.59-.46,.23-.95,.41-1.32,.81-.2,.23-.43,.17-.64-.07-.78-.88-.93-.89-1.88-.28-.07,.05-.14,.08-.23,.04-.13-.43-.59-.5-.87-.78-1.28-1.27-2.07-2.79-2.43-4.55,.16-.82,.54-1.54,1.04-2.2,.59-.79,1.24-1.55,1.8-2.37,.45-.67,1.18-.75,1.72-.14,1,1.15,2.3,1.99,3.3,3.13,.69,.79,1.3,1.61,1.29,2.72Z" fill="#fe5a5d"/><path d="M59.14,16.63c.78-.89,1.15-2.06,2.04-2.87,.78-.71,1.65-1.29,2.67-1.6,1.01-.41,2.03-.22,3.05-.03,.89,.17,1.14,.83,.56,1.53-.76,.92-1.05,1.94-1.02,3.12,.03,1.47-.44,2.79-1.43,3.89-.98,.35-1.99,.52-3.04,.51-.4,0-.49-.35-.71-.54-.21-.17-.38-.39-.56-.58,.09-.25,.32-.38,.49-.56,.29-.33,.47-.7,.47-1.14,0-.51-.44-.89-.95-.88-.23,0-.45,.1-.68,.14-.31,.05-.63,.49-.89,.14-.23-.31-.2-.76,.03-1.13Z" fill="#fe5a5d"/><path d="M66.61,27.25c1.04,.8,1.72,1.9,2.44,2.95,2.87,4.2,4.81,8.83,6.26,13.68,.81,2.7,1.43,5.44,1.95,8.21,.35,1.85,.64,3.72,.8,5.6,.03,.32,.19,.43,.4,.56-.49,.23-.96,.51-1.52,.53-.17-1.18-.35-2.36-.5-3.55-.33-2.56-.85-5.09-1.45-7.61-1.13-4.7-2.74-9.21-5.03-13.47-1.22-2.27-2.68-4.38-4.43-6.28-.08-.09-.2-.15-.3-.23,.46-.13,.92-.26,1.38-.39Z" fill="#5fbf2e"/><path d="M61.05,23.46c.31,.91-.04,1.74-.38,2.53-.8,1.84-2.31,2.96-4.05,3.82-.21,.1-.32,.07-.47-.12-.92-1.12-2.14-1.89-3.24-2.81-.94-.79-1.67-1.76-1.71-2.98-.04-1.2,.55-2.23,1.56-2.96,.14-.1,.28-.18,.43-.27,.18,.2,.07,.4,0,.59-.41,1.26-.19,2,.84,2.85,.64,.53,1.37,.92,1.99,1.47,.08,.07,.17,.13,.23,.21,.09,.12,.14,.26,.25,.36,.24,.25,.47,.22,.71-.01,.34-.32,.74-.57,1.17-.74,.99-.39,1.59-1.12,1.94-2.11,.07-.19,.06-.43,.32-.5,.34,.1,.27,.45,.4,.67Z" fill="#fe5a5d"/><path d="M45.83,13.68c1.04,.31,1.9,.97,2.77,1.58,1.11,.77,2,1.78,3.05,2.62,.26,.59,.32,1.25,.65,1.81-.38,.26-.78,.5-1.09,.86-.08,.09-.2,.22-.3,.22-.94,0-1.88,.17-2.81-.09-.7-.47-1.34-1.01-1.92-1.63-.55-.59-1.01-1.25-1.3-2-.28-.71-.55-1.42-.89-2.1-.41-.83-.02-1.43,.91-1.42,.31,0,.63,.02,.93,.16Z" fill="#fe5a5d"/><path d="M45.83,13.68c-.4,0-.8-.02-1.2,0-.46,.03-.84,.5-.63,.87,.57,1.04,.83,2.21,1.44,3.23,.63,1.04,1.47,1.89,2.5,2.55,.22,.14,.22,.16,.18,.35-1.56-.08-3.04-.41-4.31-1.39-.38-.29-.64-.66-.9-1.04-.87-1.3-1.69-2.62-2.86-3.69-.3-.27-.6-.53-.94-.74-.26-.16-.26-.27,0-.46,.47-.35,1.01-.55,1.57-.62,1.82-.23,3.56,.04,5.18,.95Z" fill="#fe7274"/><path d="M60.04,12.03c-.48-2.13-2.12-3.35-3.64-4.66-.27-.24-.53-.47-.74-.76-.67-.91-1.37-.9-1.97,.04-.77,1.2-1.88,2.16-2.43,3.52-.1,.25-.24,.48-.36,.73-.25-1.44-.15-2.85,.37-4.22,.22-.59,.44-1.18,.91-1.64,.85-.62,1.72-1.2,2.63-1.74,.42-.25,.68-.25,1,.18,.74,1.02,1.68,1.88,2.51,2.83,.81,.93,1.44,1.97,1.97,3.07-.02,.9,.13,1.81-.25,2.67Z" fill="#fe7274"/><path d="M39.09,22.32c-.28-.07-.57-.12-.86-.35,1.13-1.19,2.4-1.82,4.1-1.63,.9,.1,1.52,.65,2.29,.94,1.6,.59,3.25,.82,4.95,.78,.5,0,.73,.02,.53,.64-.18,.56-.35,1.18-.1,1.79-.95,.3-1.92,.22-2.88,.09-1.24-.17-2.41-.61-3.55-1.11-1.22-.53-2.46-1-3.82-1-.23,0-.46-.03-.67-.14Z" fill="#fe5a5d"/><path d="M65,20.67c.1-.66,.68-1.05,.86-1.69,.2-.71,.46-1.4,.41-2.16-.08-1.28,.23-2.42,1.15-3.36,.17-.18,.31-.4,.18-.69-.15-.33-.41-.44-.75-.5-.99-.19-1.99-.25-3-.12,.49-.3,1.02-.46,1.57-.61,1.26,.02,2.51,.14,3.76,.31,.38,.05,.75,.14,1.11,.24,.62,.18,.72,.33,.58,.95-.1,.48-.31,.91-.58,1.32-.44,.68-.77,1.4-.93,2.2-.1,.48-.41,.87-.55,1.34-.65,1.27-1.77,1.98-3.04,2.51-.25,.1-.52,.17-.78,.25Z" fill="#fe7274"/><path d="M62.34,24.99c.16-.69,.17-1.37,0-2.06-.09-.36,0-.48,.42-.5,1.74-.12,3.43-.5,4.88-1.51,1.4-.97,2.73-.66,4.07,.04,.44,.23,.86,.53,1.18,.94-.3,.33-.74,.32-1.12,.45-1.5,.23-2.86,.89-4.27,1.39-1.45,.52-2.88,1.11-4.42,1.33-.25,.04-.5,.1-.72-.09Z" fill="#fe5a5d"/><path d="M52.3,19.69c-.6-.47-.64-1.13-.65-1.81,.08-.4,.33-.66,.65-.89,.3-.25,.59-.14,.88,.02,.23,.14,.46,.27,.73,.44,.03-.46,.11-.86,.29-1.23,.84-.94,1.53-.91,2.21,.14,.23,.35,.34,.18,.5,0,.36-.41,.76-.72,1.35-.65,.45,.15,.66,.54,.88,.92,0,.37,0,.75,0,1.19,.49-.25,.91-.43,1.37-.51,.79-.13,1.44,.48,1.29,1.26-.13,.67-.46,1.21-1.12,1.49-.17-.13-.34-.26-.51-.4-.09-.38,.31-.45,.45-.69,.12-.19,.33-.4,.19-.62-.17-.27-.41-.05-.62,0-.5,.14-.83,.57-1.29,.78-.3,0-.59-.01-.89-.02-.2-.48,.12-.9,.15-1.35,.02-.33,.19-.77-.2-.89-.4-.12-.51,.34-.69,.62-.1,.16-.15,.35-.19,.54-.08,.43-.1,.82,.49,.88,.1,.01,.2,.08,.18,.21-.62-.02-1.23-.02-1.77,.36-.22-.27-.16-.6-.17-.91-.01-.38,.03-.76-.04-1.13-.05-.26-.06-.63-.39-.63-.32,0-.35,.37-.42,.63-.1,.35-.07,.7,0,1.06,.04,.22,.15,.44,0,.67-.3-.02-.59-.03-.89-.05-.37-.2-.47-.65-.8-.89-.16-.12-.3-.36-.54-.17-.2,.16-.12,.38-.06,.59,.08,.25,.29,.41,.41,.64-.26,.13-.52,.27-.78,.4Z" fill="#feb900"/><path d="M45.95,12.28c-.47-.17-.94-.35-1.42-.51-.22-.07-.33-.23-.33-.41-.01-1.34-.2-2.7,.36-3.99,.11-.26,.26-.42,.56-.43,1.42-.04,2.81,.06,4.11,.74,.33,.17,.46,.34,.35,.74-.1,.33-.05,.71-.06,1.07-.42,.31-.89,.16-1.35,.17-1.06,.03-1.33,.23-1.72,1.23-.18,.46-.06,1.03-.49,1.4Z" fill="#fe7274"/><path d="M45.95,12.28c.15-.63,.22-1.28,.49-1.88,.28-.62,.7-.97,1.42-.92,.55,.03,1.09,0,1.64,0,.09,3.07,1.32,5.57,3.68,7.52-.29,0-.59-.01-.88-.02-.14-.53-.6-.8-.96-1.13-1.6-1.48-3.41-2.66-5.39-3.57Z" fill="#fe5a5d"/><path d="M60.64,22.83c-.36,1.3-1.04,2.32-2.38,2.8-.33,.12-.67,.32-.89,.58-.36,.43-.66,.42-1.01,.04-.06-.35-.09-.7,.12-1.02,0-.61,.2-1.19,.28-1.78,.13-.94,.06-1.86-.02-2.8,.92-.35,1.69,.09,2.44,.5,.58,.31,1,.83,1.41,1.34,.08,.09,.15,.21,.04,.34Z" fill="#fe7274"/><path d="M39.09,22.32c1.75-.19,3.31,.42,4.86,1.1,1.85,.81,3.77,1.33,5.82,.98,.07-.01,.16,.06,.23,.09,.03,.19,.02,.39,.1,.55,.26,.59,0,.67-.54,.73-1.74,.2-3.45,.18-5.11-.39-.78-.26-1.51-.65-2.2-1.1-1.04-.67-2.02-1.44-3.15-1.96Z" fill="#fe7274"/><path d="M65.51,10.25c-1.4,.32-2.74,.8-4.06,1.67,.26-1.54,.28-2.96-.26-4.34,.63-.33,1.32-.4,2.01-.39,.57,.01,1.05,.29,1.4,.74,.43,.55,.7,1.19,.95,1.84,.07,.16,.07,.33-.05,.47Z" fill="#fe5a5d"/><path d="M56.23,25.87c-.87-.61-1.79-1.16-2.57-1.89-.94-.88-1.07-1.65-.59-2.83,.06-.15,.08-.32,.12-.48,.26-.08,.51-.19,.78-.24,.86-.16,1.4,.18,1.58,1.03,.23,1.04,.47,2.08,.56,3.14,.14,.19-.03,.45,.12,.64,0,.04,0,.08,0,.12,.13,.17,.15,.34,0,.51Z" fill="#fe7274"/><path d="M62.34,24.99c1.27-.09,2.47-.47,3.67-.88,1.79-.61,3.51-1.44,5.37-1.86,.12-.03,.25-.03,.37-.05,.01,.25-.19,.31-.35,.39-1.55,.83-3.03,1.77-4.54,2.66-.83,.49-1.7,.84-2.63,1.08-.15,.09-.34,.08-.49,.18-.38,0-.76,0-1.13,0-.48,0-.71-.15-.5-.68,.11-.27,.16-.56,.24-.84Z" fill="#fe7274"/><path d="M60.3,9.36c-.28-.15-.36-.46-.5-.71-.91-1.73-2.35-3.02-3.61-4.47-.04-.05-.08-.1-.13-.14-.31-.24-.4-.82-.79-.8-.36,.02-.69,.38-1.04,.57-.7,.38-1.27,.96-2.05,1.22,.66-.96,1.62-1.59,2.52-2.29,.31-.24,.55-.76,.9-.69,.28,.05,.46,.55,.7,.85,.92,1.16,1.97,2.21,2.81,3.43,.63,.92,1.07,1.91,1.18,3.02Z" fill="#f6f6f6"/><path d="M68.82,17.91c.31-1.24,.6-2.49,1.31-3.59,.29-.44,.49-.91,.62-1.44,.1-.4-.02-.51-.36-.6-1.5-.38-3.03-.44-4.56-.62-.14-.02-.3,.03-.4-.12,1.48-.28,2.96-.43,4.46-.15,.19,.03,.37,.08,.55,.13,.51,.13,1.15,.24,1.41,.64,.34,.52-.39,.85-.62,1.26-.51,.88-.93,1.79-1.36,2.7-.29,.63-.57,1.26-1.04,1.79Z" fill="#f6f5f5"/><path d="M76.18,26.3c-1.35-.77-2.67-1.58-4.17-2.05,.73-.43,1.58-.34,2.37-.55,.81,.48,1.61,.95,2.42,1.43,.16,.09,.34,.16,.41,.36-.34,.27-.68,.54-1.02,.8Z" fill="#fdfefd"/><path d="M65.51,10.25c-.2-.85-.57-1.63-1.12-2.3-.69-.85-1.63-.61-2.51-.44-.23,.05-.45,.07-.69,.07-.16-.36,.13-.48,.35-.61,.88-.5,1.84-.82,2.83-1.03,.21,.11,.36,.28,.47,.49,.59,1.1,.84,2.28,.92,3.51,0,.11-.04,.21-.11,.29-.05,0-.1,.01-.15,.02Z" fill="#fe7274"/><path d="M64.12,26.27c2.27-.7,4.16-2.12,6.2-3.26,.48-.27,.95-.54,1.42-.81,.39-.07,.73-.31,1.14-.3,.15,.2,.3,.39,.49,.64-1.86,.23-3.31,1.21-4.78,2.13-1.13,.7-2.25,1.4-3.58,1.65-.25,.05-.5,.06-.75,.08-.14,.06-.15,0-.12-.12Z" fill="#f6f5f5"/><path d="M45.33,27.01c-.15,0-.31-.02-.4,.14-2.24-.9-4.47-1.79-6.71-2.69,.29-.21,.59-.42,.88-.63,.32,.05,.58,.25,.83,.43,1.64,1.23,3.39,2.24,5.4,2.74Z" fill="#68cf34"/><path d="M54.95,19.17c-.24-.71-.39-1.43-.06-2.16,.1-.23,.21-.5,.5-.51,.33-.01,.38,.3,.45,.53,.27,.8,.08,1.63,.13,2.45-.34-.1-.68-.21-1.03-.31Z" fill="#fed603"/><path d="M57.75,19.12s-.06-.06-.1-.07c-.82-.15-.94-.36-.71-1.18,.09-.31,.24-.57,.41-.84,.17-.27,.36-.51,.7-.4,.34,.1,.37,.46,.33,.73-.08,.6-.24,1.18-.37,1.77-.09,0-.17,0-.26,0Z" fill="#fed603"/><path d="M60.64,22.83c-.94-1.37-2.17-2.22-3.9-2.17,.07-.08,.12-.19,.2-.22,1.84-.64,4.12,1.05,4.1,3.02-.14-.21-.27-.42-.41-.63Z" fill="#f6f4f4"/><path d="M65.66,10.23c-.14-1.52-.46-2.98-1.29-4.29,.75-.31,.92,.14,1.07,.75,.24,.99,.61,1.95,.59,2.99,0,.26,.07,.59-.38,.55Z" fill="#f6f4f4"/><path d="M58.9,19.14c.38-.59,.98-.84,1.6-1.06,.17-.06,.32-.12,.46,.04,.13,.15,.08,.31,.05,.48-.1,.5-.62,.67-.85,1.06-.42-.18-.84-.35-1.26-.53Z" fill="#fed603"/><path d="M53.08,19.29c-.5-.13-.57-.56-.65-.97-.04-.23,.1-.4,.29-.51,.21-.12,.35,.04,.49,.16,.37,.32,.67,.7,.85,1.16-.33,.05-.66,.11-.99,.16Z" fill="#fed603"/><path d="M56.23,25.87c0-.17,0-.34,0-.51,.08-.04,.17-.08,.25-.13,.04,.35-.03,.68-.12,1.02-.16-.09-.13-.24-.13-.38Z" fill="#fc4b54"/><path d="M56.23,25.24c-.2-.18-.1-.42-.12-.64,.2,.18,.09,.42,.12,.64Z" fill="#fc4b54"/><path d="M64.12,26.27s.08,.08,.12,.12c-.15,.13-.33,.12-.52,.11,.08-.17,.25-.18,.39-.24Z" fill="#fcc6c8"/><path d="M16.35,49.11c-.43,.17-.86,.34-1.28,.5-.65,.25-.8,.57-.53,1.2,.18,.43,.41,.82,.8,1.11,.16,.2,.09,.39,0,.59-.37,.83-.83,1.6-1.64,2.08-.1,.21-.36,.31-.38,.57-.02,.22,.02,.41,.2,.57,.28,.26,.57,.19,.88,.08,1.62-.6,3.3-.85,5.01-.82,.96,.02,1.93,.09,2.87,.32,.1,.02,.21,.03,.31,.03,.32,.02,.63,.03,.84-.3,.23-.37-.06-.58-.22-.84-.27-.46-.24-.98-.29-1.48-.41-4.46,.25-8.76,1.98-12.89,.03-.08,.04-.16,.09-.24,.88-2.16,2.11-4.13,3.44-6.03,1.39-2,3.04-3.78,4.81-5.45,.99-.92,2.06-1.74,3.16-2.52,.16-.11,.31-.22,.52-.21,1.2,1.26,2.41,2.53,3.61,3.79,.16,.17,.31,.35,.46,.52,.22,.32,0,.57-.16,.81-2.55,3.85-4.45,8.02-5.86,12.41-1.28,4.02-2.11,8.14-2.59,12.34-.16,1.36-.17,2.74-.44,4.09-1.99,1.39-3.25,3.46-4.79,5.26-.73,.85-1.38,1.76-2.07,2.64-.14,.18-.34,.38-.14,.61,.16,.19,.39,.1,.59,.03,.28-.09,.54-.23,.81-.37,1.52-.78,3.07-1.51,4.64-2.19,.25-.11,.49-.27,.77-.08,.15,.18,.16,.39,.16,.6,0,2.11,.19,4.21,.38,6.31,.46,5.02,1.38,9.95,2.67,14.82,.43,1.61,.98,3.19,1.38,4.81,.01,.81-.32,1.56-.4,2.35-.02,.18-.13,.41,.07,.52,.25,.13,.35-.14,.49-.28,.13-.14,.24-.29,.44-.35,.3,.05,.32,.31,.39,.52,1.36,3.69,2.96,7.28,4.77,10.77,.13,.24,.37,.49,.17,.81-1.13-.27-2.27-.51-3.43-.65-.79-.35-1.29-1.02-1.79-1.67-1.71-2.22-3.18-4.59-4.48-7.06-3.15-6-5.54-12.29-7.23-18.85-.72-2.81-1.32-5.64-1.74-8.51-.06-.4-.03-.8-.12-1.2-.1-.44-.31-.71-.79-.77-1.21-.16-2.44-.26-3.64-.5-2.78-.54-5.44-1.4-7.91-2.82-.24-.14-.46-.3-.64-.51-.46-.38-.92-.77-1.38-1.15-1.71-1.24-2.81-2.95-3.75-4.8-.47-.93-.8-1.89-.82-2.95,.06-2.7,.33-5.37,1.27-7.93,.14-.37,.34-.73,.51-1.09,.1,.08,.21,.15,.28,.24,.63,.79,.74,.79,1.58,.25,.48-.31,.8-.75,1.06-1.23,.23-.43,.26-.84-.3-1.08-.21-.09-.4-.23-.6-.35,.63-.75,1.54-.98,2.41-1.09,1.97-.23,3.76,.21,5.09,1.84,.6,1.2,.71,2.51,.8,3.82,.03,.36-.04,.72-.3,1.01Z" fill="#68d034"/><path d="M10.5,63.6c1.02,.44,1.94,1.08,2.99,1.49,2.44,.96,4.93,1.68,7.55,1.95,.51,.05,1.05,.14,1.56,.18,.97,.08,1.05,.56,1.11,1.24,.35,3.72,1.24,7.33,2.21,10.92,.95,3.5,2.12,6.93,3.52,10.28,1.53,3.67,3.25,7.24,5.37,10.6,.94,1.5,1.95,2.95,3.08,4.31,.28,.34,.73,.5,.96,.91-1.26-.07-2.52-.13-3.79,0-1.03,.1-2.03,.33-3.06,.4-.49-1.01-.97-2.02-1.46-3.02-2.4-4.87-4.43-9.89-6.07-15.07-1.12-3.53-2.02-7.12-2.73-10.76-.45-2.31-.75-4.64-1.04-6.97-.02-.19,.01-.38-.01-.57-.06-.45,.13-.59,.57-.58,.44,.02,.89,.07,1.32-.05,.4-.11,.74-.29,.63-.78-.11-.46-.53-.55-.9-.52-2.49,.19-4.99,.13-7.48,.05-2.18-.07-4.36-.39-6.33-1.49,.53-.43,1.07-.86,1.6-1.29,.41-.33,.65-.71,.42-1.24Z" fill="#5db92f"/><path d="M77.05,105.01c.71,.1,1-.5,1.32-.91,2.75-3.56,4.9-7.47,6.77-11.55,1.95-4.23,3.38-8.63,4.41-13.16,.72-3.15,1.35-6.32,1.77-9.53,.08-.64-.18-1.37,.35-1.94,0,.72,.19,.94,.9,1.01,.19,.02,.38,.01,.57,0,.36-.01,.52,0,.47,.51-.22,2.58-.61,5.13-1.07,7.67-.48,2.65-1.12,5.26-1.84,7.85-1.18,4.25-2.66,8.39-4.38,12.45-1.13,2.69-2.39,5.31-3.71,7.91-.1,.2-.24,.39-.36,.59-1.35-.25-2.69-.54-4.05-.74-.38-.06-.8,.09-1.16-.16Z" fill="#5db92f"/><path d="M78.59,64.49c.05,1.39,.12,2.78,.14,4.17,.02,1.82-.08,3.63-.17,5.44-.13,2.49-.38,4.98-.7,7.46-.55,4.31-1.4,8.55-2.6,12.71-1.04,3.63-2.3,7.2-4.03,10.57-.47,0-.93,.21-1.41,.12,.68-1.56,1.38-3.1,2.02-4.67,.47-1.16,.94-2.33,1.28-3.54,1.11-.02,1.12-.05,.54-1.04-.09-.15-.25-.3-.14-.51,.56-.96,.69-2.06,.98-3.11,.83-3.04,1.42-6.13,1.89-9.25,.24-1.59,.41-3.2,.56-4.81,.21-2.18,.3-4.36,.4-6.55,.07-1.52,.1-3.04,.07-4.55-.02-.94-.11-1.89-.1-2.84,.51-.16,.94-.05,1.27,.38Z" fill="#5fbf2e"/><path d="M42.26,106.14c-.03-.1-.04-.21-.09-.3-2-3.8-3.71-7.73-5.22-11.76,.11-.6,.43-1.04,.99-1.28,.77,2.44,1.78,4.78,2.8,7.12,.96,2.21,2.11,4.32,3.18,6.47-.63,.45-1.11-.13-1.65-.25Z" fill="#5fbf2e"/><path d="M91.93,67.67c.39-1.02,1.36-.91,2.14-1,1.56-.18,3.15-.14,4.71-.3,2.09-.21,4.15-.6,6.11-1.39,.53,.34,1.04,.72,1.51,1.14-1.72,.92-3.59,1.25-5.51,1.41-2.49,.21-4.98,.05-7.47,.11-.5,.01-1-.18-1.49,0Z" fill="#5db92f"/><path d="M24.99,39.59c-.41,1.41-.85,2.81-1.21,4.24-.38,1.48-.54,3-.72,4.53-.23,1.97,.16,3.9,.16,5.85-.56-.27-1.19-.3-1.78-.35-.57-.05-.55-.36-.49-.72,.24-1.3,.48-2.6,.75-3.89,.67-3.16,1.71-6.21,3-9.17,.07-.17,.19-.32,.29-.48Z" fill="#5db92f"/><path d="M13.7,54.59c.53-.66,1.16-1.25,1.47-2.08,.07-.19,.2-.37,.17-.59,.67,.4,.95,.36,1.49-.16,.3-.29,.61-.57,.92-.86,0,.76,0,1.52,0,2.27,0,.42-.16,.62-.63,.66-1.17,.09-2.3,.43-3.42,.76Z" fill="#5db92f"/><path d="M90.67,43.65c-.99-1.83-1.74-3.79-2.94-5.51-.36-.52-.65-1.13-1.12-1.52-.54-.45-1.15,.15-1.74,.22-2.53,.3-4.76-1.38-5.16-3.93-.18-1.14-.1-2.18,.62-3.11,.2-.26,0-.32-.12-.44-.34-.32-.75-.55-1.01-.95,.18-.34,.35-.68,.53-1.01,.28-.04,.41,.2,.57,.34,4.19,3.6,7.25,8.02,9.45,13.05,.39,.88,.8,1.75,1.04,2.69,.06,.13,0,.16-.12,.15Z" fill="#fefefe"/><path d="M100.57,55.84c.04,.79-.2,1.17-.92,1.46-.66,.26-1.56,.11-1.94-.32-.16-.18-.29-.43-.24-.63,.19-.78-.35-.7-.81-.76-1.37-.16-2.73-.18-4.09,.02-.28,.04-.55,.04-.73-.25,.92-.1,1.84-.19,2.75-.31,2-.26,3.92,.14,5.83,.68,.06,.02,.1,.07,.15,.11Z" fill="#fefefd"/><path d="M91.67,54.2c.02-.99,.17-1.96,.13-2.96-.08-1.91-.29-3.8-.58-5.68-.03-.19-.13-.37,.1-.5,.53,1.02,.69,2.16,.96,3.25,.41,1.65,.69,3.33,1.02,5,.08,.43-.07,.64-.53,.63-.38,0-.75,.11-1.1,.25Z" fill="#5db92f"/><path d="M90.67,43.65l.12-.15c.15,.24,.28,.48,.23,.78-.23-.15-.26-.4-.35-.63Z" fill="#f2f9ef"/><path d="M31.85,59.42c.13-2.01,.33-4.01,.6-6.01,.36-2.65,.87-5.26,1.56-7.84,1.13-4.21,2.67-8.25,4.8-12.07,.63-1.12,1.31-2.21,2-3.3,.11-.17,.2-.32,.18-.52,.34,.38,.68,.76,1.02,1.13-.89,1.13-1.58,2.39-2.26,3.64-2.87,5.28-4.64,10.95-5.72,16.85-.38,2.1-.67,4.22-.82,6.36-.06,.87-.01,1.77-.23,2.63-.5-.14-.9-.4-1.14-.88Z" fill="#5fbf2e"/><path d="M4.55,54.71c.18,.9,.45,1.77,.85,2.61,.81,1.74,1.86,3.3,3.26,4.62,.17,.16,.31,.35,.46,.52-1.09-.31-1.41-.1-1.78,.69-.19,.41-.42,.81-.63,1.22-.48-.45-.67-1.05-.89-1.64-.98-2.58-1.38-5.26-1.26-8.02Z" fill="#5db92f"/><path d="M109.94,59.77c-.23-.59-.26-1.22-.23-1.84,.14-2.56-.14-5.09-.53-7.61-.21-1.34-.65-2.63-1.23-3.87,.14-.3,.31-.57,.6-.74,.96,1.65,1.28,3.48,1.52,5.33,.25,1.9,.41,3.81,.27,5.74-.07,1.01-.22,2-.4,3Z" fill="#fdfefd"/><path d="M107.67,63.23c.76-.92,1.46-1.89,1.94-2.99,.07-.15,.13-.32,.34-.33-.37,1.35-.73,2.71-1.4,3.96-.1,.18-.15,.4-.37,.49-.17-.38-.34-.75-.51-1.13Z" fill="#5db92f"/><path d="M16.35,49.11c.31-1.49-.09-2.9-.44-4.32-.04-.16-.04-.33-.06-.5,.76,.64,1.04,1.56,1.36,2.43,.22,.6,.41,1.23,.42,1.89-.43,.17-.85,.33-1.28,.5Z" fill="#5db92f"/><path d="M106.02,43.79c-2.31-1.28-4.6-1.02-6.28,.74-.83,.88-1.44,1.91-1.98,2.99-.09,.19-.18,.38-.28,.57-.11,.02-.18,0-.11-.13,.6-3.43,2.28-5.04,5-5.53,1.52-.27,2.95,.13,4.23,.99-.15,.2-.36,.29-.59,.37Z" fill="#fdfefd"/><path d="M97.37,47.96s.08,.09,.11,.13c-.06,.14-.04,.34-.24,.39,0-.18-.05-.38,.12-.52Z" fill="#def2d5"/><path d="M55.44,63.09c-3.34-.03-6.17-.66-8.63-2.54-2.84-2.17-3.5-5.83-1.52-8.7,1.09-1.58,2.64-2.12,4.5-2.01,.75,.05,1.44,.29,2.16,.43,1.3,.26,2.52,0,3.7-.49,1.17-.48,2.32-1.02,3.5-1.47,2.19-.83,4.33-.73,6.23,.74,1.91,1.48,2.58,3.58,2.19,5.87-.67,4.02-3.45,6.17-7.1,7.39-1.73,.58-3.54,.75-5.04,.78Z" fill="#553826"/><path d="M56.5,39.83c2.01,.07,3.87,.54,5.35,2.02,.83,.83,1.05,2.29,.51,3.26-.54,.98-1.63,1.42-2.89,1.12-1.8-.44-3.59-.46-5.42-.08-1.15,.24-2.36,.26-3.31-.68-.63-.62-.82-1.76-.48-2.58,.5-1.23,1.5-1.91,2.66-2.37,1.14-.45,2.34-.69,3.58-.68Z" fill="#5fbf2e"/><path d="M78.59,64.49c-.4-.2-.84-.29-1.27-.38-.66-.21-1.3-.48-1.98-.61-.53-.1-.6-.38-.54-.8,.21-1.5,.8-2.81,2.03-3.78,.05-.04,.07-.1,.11-.15,.49-.23,.93-.6,1.52-.53,2.6,2.58,5.19,5.15,7.79,7.73,.16,.16,.38,.33,.21,.59-.19,.29-.47,.22-.74,.13-2.13-.68-4.26-1.36-6.39-2.04-.24-.08-.47-.2-.73-.18Z" fill="#318e00"/><path d="M73.52,95.22c.19,.3,.39,.6,.56,.91,.11,.19,.3,.41,.07,.63-.21,.2-.45,.31-.74,.13-.09-.06-.19-.09-.29-.13-2.4-1.38-4.86-2.65-7.32-3.93-.88-.46-1.06-.81-.65-1.67,.69-1.43,1.77-2.45,3.31-2.94,.55-.18,.88,.01,1.15,.47,1.29,2.18,2.52,4.4,3.91,6.52Z" fill="#318e00"/><path d="M31.85,59.42c.38,.29,.76,.59,1.14,.88,.65,.81,1.18,1.68,1.43,2.72,.13,.55,.06,.88-.46,1.13-.32,.16-.61,.37-.96,.47-.36,.45-.88,.55-1.4,.62-1.8,.72-3.54,1.58-5.27,2.44-.32,.16-.65,.3-.98,.43-.24,.1-.45,.05-.62-.15-.19-.24-.07-.45,.07-.63,.97-1.24,1.93-2.5,2.93-3.71,1.05-1.26,2.04-2.57,3.2-3.74,.26-.26,.53-.48,.93-.46Z" fill="#318e00"/><path d="M31.59,65.24c.47-.21,.94-.41,1.4-.62-.06,1.79-.02,3.59,.14,5.37,.28,3.11,.64,6.21,1.22,9.29,.58,3.08,1.28,6.13,2.15,9.13,.07,.24,.18,.47,.27,.7,.15,.14,.11,.31,.09,.47-.11,.64-.24,1.29-.39,1.92-.04,.17-.05,.4-.31,.41-.47-1.64-.95-3.27-1.4-4.92-.73-2.68-1.31-5.39-1.79-8.13-.35-2.01-.59-4.03-.85-6.05-.15-1.15-.23-2.3-.27-3.46-.05-1.26-.22-2.52-.14-3.79,0-.13-.01-.25-.13-.34Z" fill="#5fbf2e"/><path d="M36.17,91.92c.31-.91,.4-1.87,.61-2.8,.22-1.15,.44-2.31,.66-3.46,.08-.43,.33-.68,.76-.72,1.58-.13,2.85,.62,4.06,1.49,.33,.24,.07,.54-.11,.77-.95,1.23-1.91,2.46-2.85,3.7-.47,.62-.9,1.27-1.35,1.9-.33,.43-.66,.86-.99,1.28-.17,.22-.33,.43-.5,.65-.16,.2-.35,.32-.6,.19-.24-.12-.19-.33-.15-.55,.16-.82,.31-1.63,.47-2.45Z" fill="#318e00"/><path d="M44.54,41.03c-.03-.9,.1-1.77,.53-2.57,.14-.27,.07-.35-.2-.43-.84-.27-1.68-.55-2.51-.85-.36-.13-.56-.42-.41-.8,.14-.35,.44-.5,.83-.38,.08,.02,.16,.04,.24,.07,1.72,.56,3.44,1.13,5.16,1.69,.39,.13,.73,.27,.68,.77-.04,.46-.34,.59-.75,.58-.35,0-.19,.21-.17,.39,.06,1.05,.13,2.11-.23,3.13-.35,1-.98,1.59-1.63,1.54-.63-.05-1.16-.71-1.42-1.68-.13-.48-.1-.96-.13-1.44Z" fill="#553826"/><path d="M64.75,40.7c0-.25-.02-.51,0-.76,.04-.4,.22-.83-.5-.78-.25,.02-.4-.28-.4-.57,0-.38,.19-.56,.54-.67,1.28-.41,2.56-.84,3.84-1.26,.54-.18,1.09-.34,1.62-.53,.44-.16,.78-.02,.93,.39,.15,.42-.13,.68-.51,.81-.8,.27-1.59,.55-2.4,.8-.3,.09-.35,.2-.21,.48,.65,1.31,.64,2.69,.36,4.08-.15,.75-.52,1.41-1.37,1.57-.6,.11-1.22-.43-1.57-1.34-.14-.35-.26-.72-.31-1.09-.05-.37-.01-.76-.01-1.14,0,0-.02,0-.02,0Z" fill="#553826"/><path d="M71.14,48.25c-.67,.03-1.33-.14-1.93-.53-1.04-.68-1.11-2-.14-2.77,1.15-.92,3.26-.87,4.35,.1,.76,.67,.8,1.68,.08,2.4-.64,.64-1.44,.83-2.36,.8Z" fill="#feacb1"/><path d="M41.84,48.25c-.94,.02-1.72-.17-2.35-.79-.73-.71-.7-1.72,.05-2.4,1.09-.99,3.25-1.04,4.4-.09,.9,.75,.86,2.03-.1,2.7-.63,.43-1.33,.63-2,.58Z" fill="#feacb1"/><path d="M73.76,80.96c-.02,1.24-.7,2.02-1.91,2.18-.54,.07-1.1-.45-.99-1.03,.18-.92,.61-1.7,1.52-2.11,.75-.33,1.39,.13,1.38,.96Z" fill="#57b627"/><path d="M45.31,95.25c-.01,.51-.34,.86-.82,.86-.63,0-1.23-.77-1.21-1.54,.02-.49,.35-.76,.9-.74,.68,.03,1.15,.63,1.13,1.42Z" fill="#57b627"/><path d="M87.22,72.79c0,1.05-1,2.26-2.03,2.47-.83,.17-1.57-.59-1.5-1.6,.07-.97,.56-1.72,1.44-2.16,1.05-.52,2.09,.13,2.09,1.29Z" fill="#57b627"/><path d="M85.56,42.46c-.04-.43,.11-.77,.5-.93,.4-.16,.78-.08,1.11,.23,.54,.52,.8,1.18,.91,1.89,.06,.42-.15,.78-.53,1-.38,.22-.74,.12-1.05-.14-.64-.53-.85-1.27-.94-2.05Z" fill="#fefefd"/><path d="M105.64,50.47c0-.19-.02-.38,0-.57,.06-.46,.21-.95,.72-.98,.47-.03,.85,.33,1.04,.76,.23,.53,.2,1.1,.05,1.66-.13,.5-.43,.74-.96,.7-.51-.04-.72-.4-.83-.82-.06-.24-.01-.5-.01-.75,0,0,0,0,0,0Z" fill="#57b627"/><path d="M82.81,93.06c.55,.01,1,.46,.97,.95-.06,.91-.52,1.55-1.11,1.52-.59-.03-.93-.42-.91-1.06,.02-.81,.48-1.42,1.05-1.41Z" fill="#57b627"/><path d="M96.01,64.74c-.7,0-1.27-.39-1.28-.86-.01-.43,.55-.79,1.25-.79,.58,0,1.12,.42,1.12,.88,0,.5-.41,.78-1.09,.77Z" fill="#57b627"/><path d="M104.74,45.13c.01,.5-.44,.93-.99,.93-.53,0-.97-.41-1-.94-.03-.48,.47-.95,1.05-.98,.49-.02,.93,.43,.94,.98Z" fill="#fdfefc"/><path d="M95.31,56.22c.37,.03,.59,.23,.58,.64-.01,.41-.29,.61-.66,.59-.37-.02-.64-.24-.62-.64,.02-.39,.27-.59,.7-.59Z" fill="#f9fcf7"/><path d="M106.51,47.66c-.07,.28-.22,.46-.52,.44-.29-.02-.47-.19-.47-.49,0-.35,.23-.5,.54-.48,.29,.02,.42,.25,.45,.53Z" fill="#eff9ea"/><path d="M33.5,33.05c.04-1.62,1.47-3.28,3-3.7,.49-.13,.91,.12,1.17,.55,.41,.68,.55,1.4,.27,2.18-.37,1.04-.96,1.95-1.93,2.49-1.27,.71-2.5-.07-2.5-1.53Z" fill="#57b627"/><path d="M28.81,82.74s-.02-.1,0-.22c.12-.48,.3-.95,.84-1.09,.52-.14,.82,.25,1.1,.59,.38,.47,.38,1.41,.02,1.89-.25,.33-.57,.6-1.02,.5-.41-.09-.71-.34-.84-.77-.08-.25-.1-.49-.09-.9Z" fill="#57b627"/><path d="M14.96,45.47c0,.71-.48,1.3-1.09,1.35-.51,.04-.99-.5-1.07-1.2,0-.04,0-.08,0-.13-.11-1.02,.11-1.43,.79-1.46,.86-.04,1.38,.5,1.37,1.43Z" fill="#57b627"/><path d="M31.6,38.63c0,.75-.49,1.34-1.14,1.34-.42,0-1.02-.58-1.01-.97,.02-.64,.69-1.32,1.31-1.32,.55,0,.83,.32,.84,.94Z" fill="#57b627"/><path d="M6.07,56.71c.08-.31,.17-.7,.65-.73,.41-.02,.88,.64,.87,1.16-.01,.48-.33,.67-.73,.7-.37,.03-.8-.6-.79-1.14Z" fill="#57b727"/><path d="M58.74,49.92c.74,3.75,.55,7.46-.34,11.17-.11,.44-.37,.46-.71,.51-2.15,.33-4.28,.25-6.39-.26-.33-.08-.46-.23-.52-.53-.6-3.03-.48-6.04,.36-9.01,.05-.19,.05-.36,.35-.3,2.42,.51,4.54-.39,6.66-1.37,.15-.07,.3-.14,.46-.2,.03-.01,.08,0,.14,0Z" fill="#fefefe"/><path d="M61.67,49.1c2.34-.02,4.23,1.54,4.6,3.81,.46,2.87-.85,4.96-3.04,6.61-1.1,.83-2.36,1.34-3.69,1.71-.48,.13-.38-.05-.32-.35,.64-3.33,.96-6.68,.45-10.07,0-.04,0-.08,0-.13-.15-1.21-.15-1.19,1.04-1.5,.34-.09,.67-.06,.97-.09Z" fill="#fefefe"/><path d="M49.97,60.89c-1.45-.65-2.76-1.46-3.72-2.75-1.3-1.75-.96-4.81,.68-6.24,.97-.84,2.11-.84,3.28-.75,.32,.02,.23,.23,.18,.41-.67,2.41-.73,4.88-.63,7.36,.03,.65,.13,1.3,.21,1.97Z" fill="#fefefe"/></svg>