<?xml version="1.0" encoding="UTF-8"?><svg id="Layer_1" xmlns="http://www.w3.org/2000/svg" viewBox="0 0 73.22 75.8"><path d="M62.27,71.69c-.82,.28-1.67,.34-2.52,.37-.66,.03-1.22,.06-1.68,.72-.59,.85-1.61,1.15-2.56,1.43-2.15,.62-4.35,.89-6.57,1.09-2.56,.23-5.13,.27-7.69,.38-3.31,.15-6.63,.12-9.94,.06-2.92-.05-5.84-.23-8.75-.54-2.39-.25-4.78-.53-7.12-1.09-1.59-.38-3.16-.84-4.46-1.91-.04-.03-.11-.03-.17-.05,.04-.3,.3-.35,.52-.44,1.74-.7,3.55-1.06,5.41-1.17,1.68-.1,3.34-.02,4.99,.32,.67,.14,1.31,.36,1.94,.6,.41,.15,.8,.16,1.22,.02,2.05-.71,4.18-1.03,6.34-1.17,3.66-.24,7.24,.27,10.74,1.31,.32,.1,.62,.09,.93-.04,2.22-.98,4.58-1.33,6.98-1.52,3.41-.27,6.77,.04,10.1,.75,.59,.12,1.16,.3,1.73,.48,.22,.07,.48,.1,.55,.39Z" opacity=".3"/><path d="M8.78,52.4c-.23-2.1-.47-4.21-.48-6.33,0-.15,.04-.33-.19-.38-.54-.11-1.03-.39-1.59-.37-.86-.22-1.59-.64-2.19-1.29-1.35-.97-2.12-2.29-2.37-3.92-.16-.95,.03-1.81,.61-2.58,.65-1.15,1.67-1.92,2.74-2.63,.7-.58,1.5-.54,2.31-.36,.35,.02,.78,.16,1.01,0,.2-.14,.2-.61,.26-.94,.33-1.81,.81-3.58,1.42-5.31,.05-.15,.05-.31,.08-.47,.37-1.25,.84-2.46,1.53-3.57,.07-.09,.17-.17,.22-.27,1.44-2.89,3.28-5.5,5.43-7.91,.28-.59,.81-.96,1.26-1.4,.66-.65,1.36-1.25,2.19-1.69,1.2-.73,2.36-1.55,3.62-2.18,1.67-.83,3.39-1.52,5.29-2.04-1.01-.72-1.7-1.57-2-2.7-.26-.94-.28-1.88-.06-2.83,.23-.96,.94-1.17,1.67-.5,.5,.46,.91,1.01,1.5,1.37,.38,.23,.76,.5,1.24,.47,.41-.19,.79,0,1.17,.1,.27,.11,.55,.17,.84,.15,.39-.02,.76,.07,1.11,.26,.52,.48,1.21,.75,1.63,1.36,.14,.21,.28,.06,.38-.05,.39-.43,.9-.69,1.41-.97,.14-.05,.23-.17,.34-.25,.36-.21,.76-.26,1.16-.27,.19,0,.38,0,.57,0,.13,0,.25-.06,.38-.08,.41-.02,.83-.15,1.2,.14,.89,.32,2.25-.09,2.71-.82,.22-.34,.48-.66,.96-.53,.48,.13,.58,.54,.66,.96,.3,1.51-.3,2.71-1.34,3.74-.21,.21-.44,.39-.74,.65,1.09,.2,2,.75,3.03,.9,.96,.36,1.95,.68,2.77,1.33,.84,.56,1.68,1.11,2.52,1.67-.21,.53-.65,.72-1.16,.8-.92-.47-1.78-1.06-2.7-1.53-3.07-1.56-6.35-2.32-9.74-2.7-1.09-.12-2.19-.12-3.28-.11-.1,0-.2,0-.3,0-.82,.09-1.65,.12-2.47,.23-2.13,.25-4.19,.8-6.17,1.61-3.16,1.29-5.96,3.14-8.33,5.6-1.98,2.05-3.62,4.36-4.96,6.87-.94,1.76-1.8,3.56-2.37,5.48-.6,1.65-1,3.35-1.33,5.07-.07,.38,0,.51,.39,.47,.28-.03,.56,0,.79,.2,.38,.71,.19,1.12-.57,1.3-.83,.2-1.62,.01-2.42-.14-1.41-.28-2.59,.16-3.64,1.05-.44,.38-.78,.85-1,1.39-.61,1.3-.38,2.62,.66,3.75,1.25,1.37,2.9,1.93,4.66,2.23,.47,.08,.94,.16,1.43,.15,.2,0,.4,.03,.58,.13,.28,.15,.48,.38,.45,.72-.03,.34-.27,.52-.57,.62-.19,.06-.39,.05-.59,.06-.63,.02-.71,.07-.67,.7,.11,1.57,.2,3.14,.4,4.71,.77,6,2.24,11.84,3.95,17.63,.06,.21,.15,.41,.11,.64-.33,.43-.81,.39-1.27,.4-.49-.73-.55-1.61-.86-2.4-.28-1.14-.6-2.26-.91-3.39,.06-.13,.1-.26,.06-.4-.67-2.5-1.24-5.02-1.72-7.57-.01-.06-.05-.11-.07-.16-.11-.09-.23-.18-.24-.32-.09-1.18-.52-2.33-.37-3.54Z" fill="#37af00"/><path d="M71.84,40.31c-.27,1.26-.88,2.33-1.8,3.23-.09,.29-.25,.51-.51,.69-.57,.38-1.1,.83-1.78,1.01-.42,.14-.83,.3-1.26,.42-.22,.06-.26,.2-.26,.39,0,.51,0,1.02-.01,1.53,.32,.49,.07,1.01,.04,1.51-.04,.78,.02,1.59-.29,2.34-.34,.79-.32,1.65-.45,2.48-.34,2.14-.79,4.26-1.22,6.39,.09,.28,.05,.55-.02,.82-.27,1.14-.56,2.27-.82,3.41-.22,.06-.28,.27-.33,.45-.26,.92-.5,1.85-.75,2.78-.02,.88-.27,1.7-.74,2.45-.49,.06-.94,0-1.27-.42,.11-.81,.4-1.58,.62-2.36,1.38-4.86,2.55-9.76,3.28-14.76,.27-1.85,.4-3.72,.54-5.59,.06-.78,0-.8-.77-.74-.53,.04-1.09,.14-1.5-.35-.14-.31-.12-.6,.07-.89,.48-.41,1.09-.3,1.65-.38,1.91-.25,3.63-.88,4.96-2.33,.89-.98,1.44-2.09,1.19-3.47-.11-.44-.26-.86-.51-1.24-.83-1.37-2.05-1.84-3.61-1.66-.86,.1-1.74,.24-2.6-.04-.78-.38-.87-.63-.45-1.27,.18-.14,.4-.18,.62-.18,.4,0,.45-.2,.4-.54-.08-.49-.21-.98-.33-1.46-.36-1.92-1.03-3.75-1.77-5.55-1.36-3.38-3.28-6.41-5.65-9.17-.8-.93-1.71-1.71-2.57-2.57,.08-.31,.25-.58,.33-.89,.04-.14,.08-.33,.31-.29,3.02,2.45,5.28,5.53,7.18,8.89,.12,.2,.24,.4,.36,.6,.42,.46,.62,1.05,.91,1.59,.35,.66,.57,1.39,.92,2.05,.09,.17,.18,.36,.1,.57,.18,1.01,.61,1.94,.87,2.93,.3,1.18,.61,2.36,.8,3.57,.05,.3,.13,.46,.49,.41,.43-.07,.87-.07,1.3-.1,.96,.01,1.82,.24,2.42,1.08,.81,.61,1.31,1.45,1.67,2.38,.5,.73,.44,1.51,.23,2.31Z" fill="#37af00"/><path d="M60.45,69.81c.4,.12,.78,.3,1.21,.33,.48-.08,.89,.12,1.27,.35,.47,.28,.47,.67,.06,1.1-.22,.13-.46,.13-.7,.1-1.3-.56-2.68-.82-4.06-1.05-2.3-.39-4.63-.59-6.96-.48-2.91,.13-5.79,.43-8.47,1.69-.24,.11-.44,.11-.69,.03-2.04-.68-4.13-1.09-6.28-1.26-1.55-.12-3.09-.27-4.65-.12-2.22,.21-4.42,.48-6.51,1.3-.26,.1-.5,.06-.75-.04-2.67-1.09-5.44-1.23-8.26-.91-1.68,.19-3.31,.55-4.83,1.32-.79,.07-.95-.07-.92-.8,.03-.09,.05-.22,.12-.27,.86-.57,1.78-1,2.85-.98,.4-.11,.81-.23,1.21-.34,.44-.35,.98-.29,1.49-.35,.77-.09,1.54-.17,2.32-.19,1.64,.04,3.26,.18,4.84,.62,.6,.09,1.12,.53,1.77,.46,2.06-.68,4.17-1.03,6.33-1.21,3.7-.3,7.31,.2,10.88,1.14,.51,.13,.96,.11,1.45-.08,2.03-.78,4.13-1.19,6.3-1.29,.57-.05,1.13-.17,1.71-.12,1.93-.06,3.85,0,5.77,.25,.96,.18,1.94,.27,2.89,.51,.23,.06,.48,.07,.65,.27Z" fill="#047425"/><path d="M42.46,4.96c-.42,0-.84-.02-1.26-.02-.12-.56-.09-1.14-.3-1.68-.05-.13-.04-.31-.26-.16-.14,.12-.27,.25-.38,.39-.21,.28-.05,.55,.02,.83,.05,.23,.24,.46,.03,.7-.4,.05-.8,.11-1.17,.27-.43-.73-.75-1.52-1.35-2.13-.14-.14-.24-.42-.51-.18-.46,.55-1.1,.9-1.54,1.47-.16,.23-.11,.56-.35,.75-.39-.11-.77-.27-1.18-.26-.27-.34-.03-.64,.07-.96,.36-.57-.11-.95-.35-1.4-.08,.29-.15,.58-.21,.87-.2,.43,.02,.94-.24,1.36-.4-.08-.81-.15-1.21-.23-.19-.44-.03-.87,.08-1.29,.15-.59,.21-1.17,.18-1.77-.04-.78,.4-1.11,1.13-.79,.51,.22,.84,.28,1.19-.29,.38-.61,.88-.59,1.45-.06,.3,.27,.53,.36,1.01,.34,.62-.02,.93-.31,1.35-.58,.46-.3,.91-.23,1.28,.18,.27,.3,.43,.66,.53,1.06,.29,0,.46-.24,.7-.32,.53-.19,1.1,.08,1.02,.6-.12,.83,.16,1.56,.27,2.34,.04,.31,0,.63-.01,.95Z" fill="#f9434d"/><path d="M54.59,14.05c-.31,.35-.18,.92-.6,1.22,.16,.43-.17,.75-.27,1.12-.11,.32-.23,.64-.36,.95-.19,.44-.51,.54-.92,.4-.98-.34-1.73-.97-2.21-1.89-.31-.6-.12-1.04,.62-1.59,.38-.2,.63-.6,1.09-.68,.39-.2,.75-.43,1.08-.73,.39-.26,.78-.53,1.18-.78,.2-.13,.42-.24,.66-.06,.24,.19,.22,.44,.14,.7-.14,.45-.28,.89-.41,1.34Z" fill="#318e00"/><path d="M12.87,70.13c-1.04,.3-2.11,.52-2.97,1.25-.06-.35-.37-.31-.6-.39-.53-.18-1.04-.39-1.41-.84-.59-.69-.57-1.5,.09-2.11,.33-.31,.7-.59,1.17-.64,.74,.24,1.51,.17,2.27,.18,.26,0,.52-.01,.73,.17,.29,.78,.52,1.57,.71,2.38Z" opacity=".3"/><path d="M21.02,13c-.28,.46-.79,.65-1.19,.97-.81,.65-1.48,1.45-2.26,2.12-.23-1.51-.58-3-.92-4.49-.05-.23-.09-.44,.12-.6,.2-.16,.37-.03,.55,.06,1.23,.64,2.47,1.29,3.7,1.93Z" fill="#318f00"/><path d="M64.06,27.74c-.64-1.4-1.29-2.8-1.93-4.2,1.16,.04,2.31,.05,3.46,.12,.73,.04,.99,.51,.61,1.08-.68,1.02-1.35,2.06-2.15,3Z" fill="#318f00"/><path d="M8.78,52.4c.27,.5,.12,1.07,.24,1.6,.17,.74,.25,1.5,.37,2.26-1.28-.16-2.56-.33-3.84-.49-.23-.03-.44-.06-.49-.33-.05-.26,.04-.46,.26-.61,1.15-.81,2.3-1.62,3.45-2.43Z" fill="#318f00"/><path d="M62.98,71.59c.33-.61,.24-.87-.39-1.11-.31-.12-.62-.23-.93-.34,.24-.8,.49-1.59,.73-2.39,.66,.2,1.34,.38,1.99,.62,.58,.22,1.05,.59,1.11,1.27,.06,.6-.36,1.15-1.11,1.46-.46,.19-.93,.33-1.4,.49Z" opacity=".3"/><path d="M11.91,24.27c-.04,.58-.41,1.03-.63,1.52-.3,.68-.42,1.44-.9,2.05-.79-1.07-1.59-2.14-2.38-3.21-.12-.16-.23-.33-.1-.54,.12-.2,.31-.24,.52-.22,1.17,.13,2.33,.27,3.5,.4Z" fill="#318f00"/><path d="M63.46,64.53c-.26-.19-.05-.41,0-.6,.27-1.21,.56-2.42,.84-3.63,.9,.88,1.69,1.85,2.5,2.81,.35,.41,.22,.79-.28,.88-1.01,.2-2.04,.36-3.06,.53Z" fill="#318f00"/><path d="M65.97,51.43c-.03-1.29,.16-2.57,.25-3.85,1.03,.47,1.94,1.14,2.86,1.79,.43,.31,.37,.69-.19,.93-.96,.41-1.94,.75-2.91,1.13Z" fill="#318f00"/><path d="M50.51,11.18c-.92-.45-1.92-.74-2.77-1.33,.48-.81,1.12-1.5,1.75-2.18,.18-.19,.37-.3,.64-.21,.3,.1,.35,.38,.37,.63,.09,1.03,.19,2.07,.01,3.1Z" fill="#318f00"/><path d="M12.15,67.75c-.69,.01-1.37,.03-2.06,.03-.37,0-.7-.09-.94-.39-.01-.23,.06-.43,.19-.61,.59-.8,1.18-1.59,1.77-2.39,.18,.03,.2,.17,.23,.31,.27,1.02,.54,2.03,.81,3.05Z" fill="#318f00"/><path d="M2.56,37.54c-.31,.83-.53,1.69-.61,2.58-.58-.4-1.06-.91-1.51-1.43-.41-.47-.26-.87,.35-.98,.58-.1,1.18-.12,1.77-.17Z" fill="#328f01"/><path d="M4.32,44.04c.73,.43,1.46,.86,2.19,1.29-.4,.42-.9,.7-1.39,.98-.45,.26-.72,.12-.79-.38-.09-.63-.14-1.26-.01-1.89Z" fill="#328f02"/><path d="M7.62,34.55c-.77,.11-1.57,.04-2.31,.36-.04-.52,.08-1.03,.16-1.54,.04-.25,.09-.53,.4-.61,.3-.08,.49,.1,.67,.29,.43,.45,.75,.98,1.08,1.5Z" fill="#318f01"/><path d="M67.76,45.24c.52-.45,1.18-.69,1.7-1.13,.21-.18,.4-.36,.58-.56,.05,.72-.17,1.41-.34,2.09-.1,.43-.4,.51-.77,.37-.44-.17-.85-.41-1.17-.77Z" fill="#328f01"/><path d="M71.84,40.31c-.17-.57,.11-1.16-.11-1.73-.07-.18-.08-.38-.12-.58,.54,.07,1.04,.23,1.52,.49,.47,.26,.53,.58,.11,.93-.43,.35-.89,.67-1.4,.89Z" fill="#328f01"/><path d="M69.94,35.63c-.68-.63-1.57-.82-2.42-1.08,.27-.37,.65-.63,1.01-.91,.46-.35,.86-.23,1.09,.3,.23,.53,.25,1.12,.31,1.68Z" fill="#328f01"/><path d="M49.43,69.06c-2.25,.17-4.46,.55-6.56,1.42-.28,.11-.54,.16-.86,.07-1.95-.54-3.93-1.01-5.96-1.12-.93-.05-1.86-.2-2.8-.22-3.03-.04-5.98,.43-8.87,1.32-.25-.13-.34-.39-.44-.62-1.76-3.91-3.08-7.97-4.03-12.14-.66-2.89-1.07-5.81-1.32-8.76-.18-2.09-.16-4.19-.14-6.28,0-.14,.01-.28,.06-.41,.43-.51,1.08-.54,1.65-.73,1.01-.35,1.1-.57,.51-1.5-.33-.53-.75-.97-1.29-1.3-.2-.12-.42-.23-.52-.47-.09-.77,.11-1.51,.23-2.25,.3-1.91,.69-3.8,1.25-5.66,.26-.19,.44,.04,.64,.12,1.05,.42,2.1,.43,3.11-.1,1.04-.55,1.13-1.79,.19-2.49-.62-.46-1.35-.56-2.1-.52-.22,.01-.43,.1-.65,0-.24-.3-.02-.58,.08-.83,1.22-3.14,2.76-6.1,4.75-8.82,.24-.33,.38-.77,.83-.9,.11,0,.19,.05,.26,.12,.61,.59,.7,.59,1.4,.12,.46-.31,.79-.73,1.09-1.18,.54-.82,.48-1.07-.35-1.61-.12-.26,.05-.42,.2-.57,1.81-1.81,3.78-3.42,6.06-4.61,.09,0,.17,0,.26,.01,1.12,.15,2.25,.29,3.37,.48,.21,.04,.44,.05,.63,.17,.07,.06,.04,.16,.15,.22,1.19,.69,2.2,1.61,3.24,2.51,.5,1.14,1.34,1.96,2.42,2.55,1.07,1.39,2.11,2.81,3,4.32,1.5,2.56,2.68,5.26,3.58,8.08,.06,.2,.19,.41,.02,.62-.24,.06-.41-.1-.61-.19-.95-.47-1.92-.53-2.9-.14-.62,.25-1.1,.66-1.12,1.4-.02,.74,.38,1.18,1.01,1.47,1.36,.63,2.8,.33,3.78-.8,.1-.11,.16-.3,.37-.19,.17,.16,.21,.38,.27,.59,.55,2.04,.93,4.11,1.22,6.2,.03,.23,.09,.48-.15,.65-.13,.02-.23-.05-.32-.12-1.29-1.07-2.7-1.99-3.97-3.08-.72-.62-1.01-.59-1.65,.11-.76,.84-.88,1.85-.78,2.91,.04,.4,.32,.63,.7,.58,1.17-.16,2.35-.02,3.52-.15,.84-.09,1.67-.06,2.5-.09,.28,.14,.3,.4,.33,.66,.26,2.52,.44,5.05,.36,7.58-.26,7.87-1.79,15.47-4.85,22.74-.16,.39-.32,.79-.83,.82Z" fill="#68d034"/><path d="M22.82,70.03c-1.62-.35-3.26-.57-4.91-.61-.3-.14-.39-.44-.53-.7-2.29-4.09-3.54-8.54-4.54-13.08-.55-2.5-.95-5.02-1.18-7.57-.08-.89-.01-1.8-.03-2.7,0-.79-.11-.95-.88-1.12-1.75-.38-3.33-1.1-4.73-2.21-.77-.61-1.45-1.32-1.96-2.17-.27-.45-.57-.92-.43-1.51,.58-1.68,2.82-2.92,4.54-2.59,.82,.16,1.64,.39,2.51,.21,.74-.15,.89-.34,.63-1.09-.42-.68-.35-1.46-.41-2.2-.1-1.26,.16-2.48,.53-3.68,.22-1.08,.69-2.07,1.14-3.07,1.28-2.89,2.94-5.56,4.98-7.98,2.48-2.96,5.52-5.19,9.07-6.74,2.13-.93,4.34-1.53,6.63-1.86,.06,.26-.16,.35-.31,.46-1.52,1.16-3.01,2.37-4.32,3.77-.11,.12-.25,.19-.42,.2-.76-.12-1.43-.5-2.14-.74-.18-.06-.39-.23-.55-.06-.19,.2,0,.41,.1,.6,.33,.68,.85,1.25,1.06,2-.03,.39-.32,.63-.53,.92-2.75,3.69-4.81,7.73-6.18,12.13-.02,.06-.04,.12-.06,.18-1.07,3.51-1.78,7.09-2.09,10.75-.16,.58-.59,.98-.94,1.43-.46,.59-.92,1.18-1.39,1.86,.49,.11,.82-.11,1.17-.18,.27-.05,.53-.2,.8-.02,.22,.28,.16,.61,.16,.92-.08,4.16,.28,8.29,1.06,12.38,.83,4.37,2.1,8.6,3.79,12.71,.17,.42,.55,.81,.37,1.33Z" fill="#68d034"/><path d="M3.64,38.38c.4,1.72,1.56,2.86,2.92,3.86,1.32,.98,2.81,1.56,4.4,1.9,.56,.12,.87,.39,.84,1.02-.14,3.94,.57,7.78,1.46,11.6,.63,2.69,1.34,5.36,2.37,7.93,.65,1.63,1.5,3.16,2.28,4.73-1.28,.12-2.56,.24-3.83,.37-1.45-4.73-2.66-9.52-3.56-14.38-.35-1.91-.65-3.83-.76-5.77-.06-1.05-.14-2.1-.24-3.15-.04-.46,.14-.62,.58-.56,.2,.02,.4,0,.6,0,.39,0,.71-.19,.71-.56,0-.41-.33-.63-.73-.63-.74,.01-1.47-.1-2.18-.25-1.93-.43-3.7-1.16-4.77-2.97-.6-1.02-.71-2.08-.07-3.14Z" fill="#5db92f"/><path d="M45.83,15.14c-1.1-.55-1.96-1.32-2.35-2.53-.35-.35-.21-.79-.2-1.19,0-.36-.11-.54-.45-.65-.66-.22-1.34-.38-2.02-.55-.21-.05-.43-.1-.61-.24-1.06-.34-2.18-.31-3.24-.59-.27-.07-.57-.06-.82-.23,5.64-.08,10.91,1.17,15.66,4.32,.05,.03,.09,.07,.14,.11-.32,.25-.64,.49-.95,.74-.57-.18-.97,.05-1.39,.44-.57,.52-1.29,.76-2.07,.79-.6,0-1.21,.03-1.71-.4Z" fill="#fefefe"/><path d="M28.21,13.7c.39-.03,.45-.42,.68-.63,1.34-1.21,2.68-2.43,4.16-3.47,.08-.05,.13-.14,.2-.21,.88-.08,1.76-.17,2.64-.25-.54,.57-1.28,.85-1.9,1.31-1.43,1.04-2.82,2.12-4.05,3.4-.12,.13-.28,.24-.27,.44-.57,.04-1.08-.11-1.45-.58Z" fill="#5fbf2e"/><path d="M35.89,7.35c.2,.1,.35,.3,.29,.47-.07,.24-.35,.12-.53,.12-.86,0-1.69,.13-2.54,.23-2.59,.31-4.35-1.42-4.15-4.12,.31,.15,.5,.4,.69,.64,.21,.22,.35,.48,.51,.73,.86,1.25,2.03,1.79,3.54,1.58,.76-.1,1.51-.13,2.18,.34Z" fill="#57b627"/><path d="M35.39,5.2c.01-.31,.05-.61,.25-.86,.35-.12,.69-.27,1.02-.45,.73-.43,.92-.39,1.49,.27,.06,.07,.14,.13,.22,.2,.28,.34,.61,.66,.57,1.17-.66,.33-1.27,.72-1.78,1.34-.45-.63-1-1.12-1.67-1.46-.05-.02-.06-.13-.08-.2Z" fill="#fe6e6e"/><path d="M35.89,7.35c-.77-.18-1.52-.3-2.34-.15-1.62,.31-3.43-.89-3.9-2.5,.84,.61,1.74,1.09,2.77,1.28,.56,.11,1.13,.2,1.69,.29,.74,.12,1.35,.45,1.77,1.08Z" fill="#68d034"/><path d="M45.22,6.48c-.4,1.17-2.06,2.1-3.25,1.89-1.09-.19-2.2-.28-3.29-.43-.21-.03-.6,.14-.52-.35,.71-.32,1.44-.16,2.16-.11,1.36,.1,2.63-.2,3.83-.84,.34-.17,.68-.32,1.07-.15Z" fill="#57b627"/><path d="M44.27,6.73c-.73,.53-1.58,.69-2.43,.86-1.23,.25-2.45-.13-3.67,0,.41-.52,.98-.81,1.57-1.07,1.27-.09,2.54-.09,3.8,.05,.25,.03,.52-.02,.74,.17Z" fill="#68d034"/><path d="M11.43,29.03c-.13,1.04-.35,2.06-.36,3.11-.01,.93,.16,1.85,.24,2.77-.31-.2-.66-.12-.99-.12-.27,0-.4-.04-.34-.36,.35-1.84,.71-3.68,1.44-5.41Z" fill="#5db92f"/><path d="M44.27,6.73c-1.45-.04-2.9-.07-4.36-.11-.08,0-.15-.02-.19-.11,.88-.27,1.78-.33,2.69-.26,1.1,.08,2.17-.01,3.13-.75,.11,.44-.07,.72-.33,.98-.32,.08-.63,.17-.95,.25Z" fill="#fcfdfc"/><path d="M38.93,5.53c-.16-.39-.38-.74-.64-1.06-.29-.38-.54-.77-.89-1.1-.13-.12-.26-.25-.22-.46,.14-.29,.26-.48,.54-.08,.56,.77,1.25,1.47,1.42,2.47-.03,.11-.05,.23-.21,.23Z" fill="#fefafa"/><path d="M34.44,3.99c-.11,.31-.27,.61-.23,.96-.26,.06-.51,.05-.73-.12,.02-.48-.12-.97,.13-1.43,.44-.03,.63,.29,.83,.6Z" fill="#fd6e6d"/><path d="M40.31,5.03c-.01-.37-.19-.69-.3-1.02-.08-.26-.08-.47,.18-.62,.44,.16,.63,.54,.83,.92,.06,.26,.09,.51-.1,.73-.2,.04-.41,.07-.61,0Z" fill="#fe6e6e"/><path d="M40.92,5.03c0-.27-.02-.54-.03-.8-.16-.39-.35-.76-.32-1.2,.11-.11,.27-.46,.37-.13,.2,.65,.54,1.32,.26,2.04-.08,.08-.16,.13-.28,.09Z" fill="#fdfcfb"/><path d="M47.63,15.4c.96-.13,1.81-.46,2.4-1.27,.16-.22,.3-.2,.5-.07,.15,.1,.31,.18,.47,.26-.78,.68-.92,1.05-.56,1.6,.2,.29,.44,.56,.67,.83,.06,.08,.14,.14,.22,.2,1.35,1.07,1.73,.97,2.28-.61,2.05,1.7,3.79,3.68,5.35,5.83,1.52,2.1,2.81,4.34,3.82,6.74,.14,.39,.35,.76,.37,1.19,.23,1.31,.4,2.62,.37,3.95,0,.26-.02,.52-.18,.74-.45,.55-.06,.82,.37,1.06,.08,.38,.4,.39,.68,.44,.76,.15,1.54,.17,2.31,.13,1.43-.07,2.53,.5,3.39,1.61,.08,.1,.13,.21,.14,.34-.73,2.92-2.71,4.64-5.42,5.65-.39,.15-.79,.27-1.19,.4-.37,.12-.68,.32-.87,.68-.17,.26-.12,.54-.12,.82,.17,.27,.15,.57,.16,.87,.13,2.53-.26,5.01-.68,7.49-.75,4.36-1.94,8.59-3.77,12.64-.27,.6-.57,1.19-.87,1.77-.11,.22-.24,.42-.49,.49-1.95-.18-3.91-.28-5.87-.25-.13-.32,.06-.59,.17-.85,1.71-4.15,2.93-8.44,3.7-12.86,.46-2.67,.78-5.36,.89-8.08,.06-1.38,.13-2.75,.09-4.12-.21-7.11-1.44-14-4.4-20.51-1.01-2.23-2.25-4.31-3.65-6.31-.16-.23-.44-.44-.28-.79Z" fill="#68d034"/><path d="M56.98,69.19c.97-1.56,1.59-3.29,2.28-4.98,1.33-3.27,2.09-6.7,2.72-10.16,.49-2.68,.76-5.38,.64-8.12,.52,.36,1.1,.29,1.67,.18,.66-.12,.75-.09,.71,.59-.1,1.74-.24,3.48-.45,5.21-.35,2.92-.94,5.79-1.59,8.65-.68,3-1.48,5.97-2.39,8.92-.03,.11-.09,.22-.13,.33-1.16-.21-2.31-.42-3.47-.62Z" fill="#5db92f"/><path d="M62.63,28.92c-2.01-4.67-4.93-8.69-8.68-12.11-.14-.13-.32-.24-.34-.47,.13-.36,.26-.71,.39-1.07,.17-.06,.26,.06,.36,.15,3.53,3.15,6.05,7,7.89,11.32,.01,.03,0,.08,.01,.12,.16,.53,.35,1.05,.5,1.58,.05,.18,.18,.39-.14,.47Z" fill="#fefefe"/><path d="M62.74,45.11c-.02-.47,.3-.65,.68-.77,1.29-.42,2.57-.84,3.68-1.66,1.27-.93,2.27-2.04,2.73-3.59,.07-.24,.11-.51,.31-.7,.29,.03,.2,.37,.4,.48,.29,.96,.02,1.85-.47,2.66-1.14,1.87-2.9,2.81-4.99,3.23-.77,.16-1.58,.11-2.34,.36Z" fill="#5db92f"/><path d="M70.04,38.16c-1.01-1.24-2.32-1.71-3.9-1.6-.61,.04-1.23-.04-1.85-.09-.3-.02-.59-.12-.77-.39-.15-.22,.03-.21,.17-.22,.97,.2,1.94,.06,2.91-.04,1.44-.15,2.77,.55,3.45,1.84,.05,.17,.12,.35-.02,.51Z" fill="#fcfdfc"/><path d="M63.33,34.79c.07-1.62-.11-3.22-.34-4.82,.32,.06,.33,.36,.43,.58,.28,.63,.34,1.34,.68,1.96,.21,.56,.27,1.15,.4,1.72,.07,.32-.02,.45-.35,.44-.28,0-.56-.04-.82,.11Z" fill="#5db92f"/><path d="M64.09,32.51c-.31,.07-.22-.21-.27-.34-.28-.74-.45-1.51-.83-2.21-.12-.35-.24-.7-.36-1.05,.19-.39-.07-.72-.15-1.07-.07-.33-.21-.64-.21-.98,.83,1.81,1.45,3.69,1.83,5.64Z" fill="#dfe2de"/><path d="M70.04,38.16c0-.17,.01-.34,.02-.51,.29,.36,.43,.77,.48,1.22-.27-.05-.22-.36-.4-.48-.03-.08-.06-.15-.1-.23Z" fill="#dce2d9"/><path d="M47.63,15.4c.27,.65,.75,1.16,1.14,1.74,1.9,2.83,3.34,5.88,4.46,9.08,1.07,3.04,1.81,6.17,2.28,9.35,.29,1.92,.43,3.86,.53,5.8,.08,1.42,.13,2.83,.07,4.24-.09,2.3-.25,4.59-.55,6.87-.37,2.82-.94,5.59-1.66,8.33-.72,2.78-1.7,5.47-2.8,8.11-.56,.04-1.12,.08-1.68,.12,.33-.12,.47-.4,.59-.7,1.42-3.44,2.57-6.97,3.38-10.61,.51-2.27,.87-4.55,1.15-6.85,.15-1.22,.16-2.45,.27-3.68,.11-1.27,.16-2.55,.1-3.82-.08-1.9-.23-3.8-.35-5.7-.01-.18-.08-.31-.24-.38-.08-.08-.07-.16,0-.24,.3-.42,.01-.86-.04-1.25-.3-2.09-.73-4.15-1.29-6.19-.17-.51-.33-1.01-.48-1.52-.77-2.64-1.84-5.15-3.14-7.57-1.03-1.91-2.3-3.65-3.57-5.4,.59,.15,1.18,.28,1.8,.26Z" fill="#5fbf2e"/><path d="M22.82,70.03c-.97-2.27-1.84-4.58-2.57-6.94-.92-2.98-1.65-6.01-2.11-9.1-.29-1.96-.49-3.93-.63-5.91-.11-1.6-.03-3.19-.09-4.78,0-.21,.08-.45-.13-.62,.33-.48,.81-.54,1.33-.46,0,1.6-.08,3.2,.02,4.79,.15,2.45,.38,4.89,.79,7.32,.6,3.57,1.5,7.06,2.68,10.48,.66,1.94,1.46,3.83,2.28,5.7-.56-.03-1.05-.32-1.56-.49Z" fill="#5fbf2e"/><path d="M37.18,2.91c.44,.47,.87,.95,1.11,1.56-.58-.92-1.26-.77-2.01-.22-.15,.11-.39,.3-.64,.1,.43-.57,1.06-.92,1.54-1.44Z" fill="#fe7c7e"/><path d="M34.44,3.99c-.28-.2-.55-.4-.83-.6,0-.37,.2-.71,.09-1.13,.7,.43,1,1.19,.74,1.73Z" fill="#fe7b7d"/><path d="M35.4,2.2c-.23-.32,0-.64,.21-.65,.31-.01,.53,.28,.52,.65-.24,.15-.48,.2-.73,0Z" fill="#fe787b"/><path d="M40.57,3.03c.28,.35,.27,.79,.32,1.2-.23-.28-.47-.56-.7-.84,.09-.15,.21-.29,.38-.35Z" fill="#fe8284"/><path d="M39.36,2.08c.16,.23-.03,.4-.16,.48-.17,.1-.24-.13-.32-.25-.12-.19-.41-.39-.02-.6,.24,.03,.35,.22,.5,.37Z" fill="#fe6c6d"/><path d="M39.36,2.08c-.26,0-.36-.21-.5-.37,.06-.13,.14-.23,.31-.32,.12,.22,.23,.43,.19,.69Z" fill="#fef2f2"/><path d="M35.4,2.2c.24,0,.49,0,.73,0-.46,.54-.51,.54-.73,0Z" fill="#fe6b6c"/><path d="M54.35,37.07c0,.08,0,.16,0,.24-.16,.1-.33,.12-.51,.13-1.31,.04-2.62,.07-3.93,.12-.53,.02-1.07,.07-1.6,.11-.44,.03-.71-.21-.76-.6-.16-1.36,.06-2.62,1.2-3.56,.38-.31,.73-.36,1.17,0,1.32,1.06,2.67,2.06,4,3.1,.17,.13,.3,.32,.45,.48Z" fill="#318e00"/><path d="M43.55,62.16c-.02-.4,.24-.64,.44-.91,.56-.78,1.24-1.39,2.18-1.69,.47-.15,.77-.09,.96,.45,.53,1.5,1.12,2.98,1.69,4.47,.1,.27,.23,.52-.05,.76-.29,.25-.51,.05-.75-.09-1.31-.76-2.62-1.52-3.93-2.28-.28-.16-.56-.33-.53-.7Z" fill="#318e00"/><path d="M19.86,28.7c.1-1.02,.56-1.94,.92-2.87,1.4-3.59,3.29-6.91,5.66-9.95,.06-.07,.07-.18,.1-.27,.46,.32,.77,.72,.73,1.32-.09,.07-.21,.13-.27,.22-1.85,2.57-3.51,5.25-4.68,8.21-.26,.66-.54,1.32-.81,1.98-.01,.08-.05,.16-.13,.19-.64,.22-1.04,.74-1.52,1.17Z" fill="#5fbf2e"/><path d="M19.86,28.7c.31-.74,.94-1.09,1.64-1.36,.61-.08,1.2-.16,1.82,0,1.18,.3,1.82,.92,1.81,1.81-.02,.89-.8,1.65-1.93,1.79-.98,.13-1.94,.06-2.78-.57-.69-.4-.83-.8-.57-1.69v.02Z" fill="#feacb1"/><path d="M52.54,28.1c.36,.44,.56,.94,.48,1.52-.79,1.92-3.73,1.77-4.78,.78-.71-.66-.69-1.73,.04-2.36,.94-.82,2.67-.92,3.81-.23,.15,.09,.3,.19,.45,.29Z" fill="#feacb1"/><path d="M33.01,29.37c.03-.23,.18-.65-.43-.74-.17-.03-.12-.2,0-.32,.18-.18,.39-.24,.65-.23,1.07,.03,2.11-.11,3.01-.75,.2-.14,.43-.14,.61,.01,.91,.74,1.97,.89,3.09,.87,.08,0,.16,0,.24,0,.2,.01,.35,.09,.37,.31,.02,.24-.12,.41-.35,.38-.5-.05-.48,.25-.48,.59,0,1.3-.3,2.52-1.1,3.59-1.42,1.89-3.64,1.75-4.82-.3-.5-.87-.82-2.19-.8-3.42Z" fill="#553826"/><path d="M18.63,42.24c-.44,.16-.92,.2-1.33,.46-.48,.13-.95,.25-1.43,.39-.19,.05-.38,.19-.53-.04-.12-.19,.04-.34,.14-.47,.53-.71,1.08-1.41,1.62-2.12,.19-.25,.37-.5,.56-.76,.19-.42,.5-.76,.78-1.1,.14-.16,.28-.36,.54-.22,1.06,.53,1.83,1.3,2.2,2.46,.14,.44,.02,.61-.4,.73-.73,.2-1.44,.45-2.16,.68Z" fill="#318e00"/><path d="M27.26,16.93c-.16-.48-.46-.89-.73-1.32-.39-.69-.78-1.37-1.16-2.06-.12-.22-.29-.47-.05-.71,.21-.21,.44-.05,.66,.03,.74,.28,1.48,.55,2.22,.83,.48,.19,.97,.39,1.45,.58,.96,.31,1.07,.55,.59,1.46-.31,.58-.7,1.1-1.27,1.48-.92,.62-1.07,.6-1.71-.29Z" fill="#318e00"/><path d="M22.7,61.82c.12-1.24,.23-2.48,.38-3.73,.05-.4,.36-.63,.75-.64,1.01-.03,1.94,.23,2.75,.84,.49,.37,.47,.58,.06,1.05-.91,1.04-1.89,2-2.87,2.98-.22,.22-.44,.54-.81,.37-.37-.17-.24-.55-.27-.86Z" fill="#318e00"/><path d="M27.77,24.54c-.88-.74-1.75-1.32-2.63-1.9-.25-.16-.5-.32-.53-.67-.04-.53,.33-.88,.85-.78,.3,.06,.56,.21,.81,.37,1.03,.65,2.02,1.35,2.96,2.12,.64,.53,.6,1.23-.14,1.65-1.02,.58-2.09,1.06-3.19,1.47-.37,.14-.71,.1-.88-.25-.19-.41,0-.75,.39-.93,.75-.36,1.52-.69,2.36-1.08Z" fill="#553826"/><path d="M44.9,24.51c.87,.4,1.59,.73,2.32,1.05,.41,.19,.69,.48,.51,.93-.17,.44-.56,.43-.96,.28-1.06-.4-2.09-.87-3.09-1.42-.8-.44-.83-1.14-.13-1.72,.89-.74,1.83-1.4,2.81-2.02,.13-.09,.27-.17,.41-.24,.59-.3,1.06-.25,1.28,.13,.22,.39,.03,.8-.52,1.17-.77,.53-1.53,1.07-2.29,1.61-.08,.06-.17,.11-.34,.22Z" fill="#553826"/><path d="M18.99,38.37c-.49,.12-.6,.63-.92,.92-.14,.12-.21,.33-.4,.4,.12-2.88,.68-5.69,1.38-8.48,.21-.86,.38-1.73,.8-2.53-.12,.67,.1,1.22,.57,1.69-.05,1.06-.47,2.04-.66,3.08-.3,1.63-.65,3.26-.77,4.92Z" fill="#5fbf2e"/><path d="M52.2,53.37c-.81,.03-1.21-.59-1.28-1.55-.05-.67,.47-1.22,1.05-1.2,.53,.02,1.53,1.01,1.52,1.51,0,.66-.61,1.24-1.29,1.24Z" fill="#57b627"/><path d="M40.21,9.98c1.05,.1,2.04,.46,3.05,.74,.22,.06,.23,.18,.2,.4-.07,.49-.07,.99,.03,1.49-.78-.62-1.57-1.23-2.33-1.87-.31-.26-.76-.35-.94-.77Z" fill="#5fc02f"/><path d="M21.62,16.91c.07-.95,.53-1.69,1.3-2.23,.46-.31,.98-.19,1.4,.12,.37,.28,.49,.7,.36,1.18-.19,.7-.46,1.35-1.02,1.85-.44,.39-.96,.5-1.49,.25-.46-.22-.62-.65-.56-1.17Z" fill="#57b627"/><path d="M8.68,41.28c.01,.75-.17,.89-.85,.71-.53-.14-.99-.42-1.4-.76-.37-.3-.39-.67-.09-1.04,.11-.14,.24-.26,.38-.38,.81-.73,1.35-.6,1.7,.43,.12,.35,.29,.7,.26,1.05Z" fill="#318f00"/><path d="M18.14,21.32c0-.58,.4-1.05,.87-1.03,.42,.02,.72,.17,.7,.68-.03,.56-.5,1.14-.97,1.07-.39-.06-.64-.3-.59-.72Z" fill="#57b627"/><path d="M56.97,44.57c0-.92,.28-1.53,.83-2.03,.64-.57,1.49-.36,1.77,.44,.24,.69-.24,2.06-.87,2.46-.38,.24-.79,.4-1.23,.14-.48-.27-.52-.72-.49-1.01Z" fill="#57b627"/><path d="M65.78,42.01c-.41,.01-.58-.19-.53-.56,.08-.57,.2-1.14,.44-1.67,.2-.44,.57-.51,1-.37,.54,.17,.81,.63,1.12,1.04,.11,.15,.06,.33-.05,.44-.57,.54-1.22,.94-1.99,1.12Z" fill="#318f00"/><path d="M54.32,20.83c0,.44-.38,.86-.82,.87-.7,.02-1.43-.77-1.44-1.56,0-.51,.4-.92,.89-.92,.63,0,1.35,.85,1.37,1.6Z" fill="#fdfefd"/><path d="M61.41,50.7c0,.5-.46,.9-1,.88-.48-.02-.66-.36-.67-.76,0-.56,.56-1.17,1.01-1.16,.41,.01,.66,.41,.65,1.04Z" fill="#57b627"/><path d="M33.73,29.71q0-.93,.95-1.02c.08,0,.16-.02,.24-.02,.66-.01,1.2-.75,1.85-.46,.62,.27,1.23,.54,1.91,.64,.19,.03,.32,.12,.33,.35,.04,1.4-.22,2.7-1.21,3.76-1.06,1.12-2.35,.99-3.21-.3-.52-.77-.85-1.91-.85-2.94Z" fill="#e52c20"/></svg>