<?xml version="1.0" encoding="UTF-8"?><svg id="Layer_1" xmlns="http://www.w3.org/2000/svg" viewBox="0 0 55.06 75.33"><path d="M15.29,43.15c-1.45-.22-2.71-.87-3.91-1.66-.77-.51-1.57-.99-2.47-1.42,0,.21,0,.34,0,.48,.03,1.11-.42,1.59-1.55,1.66-.99,.06-1.94-.1-2.86-.44-1.32-.47-2.51-1.18-3.64-2-.83-.6-1.05-1.48-.71-2.68,.55-1.94,1.67-3.55,2.97-5.05,1.68-1.93,3.27-3.91,3.88-6.48,.25-1.04,.56-2.06,.98-3.05,.65-1.53,1.49-2.96,2.68-4.13,1.41-1.37,2.26-2.99,2.58-4.92,.19-1.14,.64-2.2,1.15-3.23,.13-.26,.12-.43-.01-.69-.81-1.56-.22-3.21,1.41-3.89,.6-.25,1.12-.55,1.58-1.02,.53-.55,1.18-.89,1.99-.68,.29,.07,.39-.15,.51-.32,.46-.65,.95-1.28,1.52-1.84,2.4-2.36,5.09-2.38,7.54-.06,.74,.7,1.37,1.5,2,2.3,.79,1,1.7,1.85,2.85,2.41,1.57,.76,2.74,1.89,3.34,3.56,.08,.23,.23,.39,.5,.45,1.54,.33,2.63,1.74,2.5,3.3-.04,.48,.11,.76,.46,1.05,.99,.81,1.95,1.68,2.6,2.79,1.36,2.3,3.27,4.11,5.18,5.93,1.91,1.82,3.88,3.58,5.36,5.79,.64,.96,1.18,1.98,1.26,3.17,.13,1.89-.75,3.37-1.91,4.74-.33,.39-.71,.76-1.09,1.11-.53,.48-1.06,.46-1.59-.04-.51-.47-.93-1.03-1.58-1.43-.17,.87-.47,1.65-.85,2.41-.67,1.35-1.75,2.13-3.23,2.35-1.5,.23-2.92,.71-4.25,1.44-.28-.38-.16-.8-.14-1.22,.08-.34,.37-.44,.64-.57,.93-.44,1.89-.79,2.91-.88,2.1-.19,3.04-1.52,3.47-3.39,.07-.31,.11-.63,.18-.94,.18-.83,.85-1.14,1.58-.71,.75,.44,1.34,1.06,1.96,1.66,.17,.14,.3,.04,.41-.08,.6-.58,1.11-1.24,1.54-1.96,.18-.3,.12-.61,.02-.92-.13-.4-.28-.79-.51-1.14-.83-1.12-1.97-1.68-3.3-1.99-1.15-.26-1.13-.31-1.55,.76-.29,.75-.66,1.46-1.28,2-.58,.52-.86,1.17-.98,1.93-.13,.79-.25,1.58-.75,2.25-.59,.79-1.34,1.36-2.31,1.61-.62,.16-1.25,.26-1.86,.46-.15,.05-.31,.1-.45-.03-.16-.32-.27-.65-.13-1.02,.5-.4,1.14-.41,1.72-.55,.82-.21,1.59-.49,2.02-1.3,.07-.13,.13-.26,.19-.39,.24-.6,.33-1.23,.45-1.86,.12-.63,.36-1.18,.85-1.61,.91-.8,1.32-1.87,1.66-2.99,.07-.22,.08-.45-.1-.62-.56-.55-.96-1.22-1.45-1.82-.1-.12-.22-.23-.34-.34-.62-.54-.68-.53-1.01,.19-.26,.58-.64,1.07-1.25,1.31-.52,.2-.93,.52-1.31,.92-.17,.18-.34,.41-.66,.32-.2-.22-.5-.36-.54-.7,.36-.78,.98-1.29,1.77-1.61,.37-.15,.66-.37,.8-.75,.13-.35,.07-.52-.34-.54-.78-.04-1.56,.05-2.32,.16-2,.29-3.84-.18-5.62-1.05-1.49-.73-2.96-1.5-4.61-1.79-.91-.16-1.22,.19-.92,1.08,.11,.34,.27,.67,.36,1.02,.07,.29,.15,.59-.09,.85-.34,.15-.66,.14-.96-.09-.41-.83-.72-1.68-.62-2.63,.03-.32,0-.55-.42-.53-2.64,.09-5.25,.34-7.68,1.51-1.44,.7-2.58,1.79-3.7,2.9-.26,.26-.11,.51-.07,.78-.05,.32-.31,.44-.54,.6-.14,.05-.31,.07-.4-.04-.33-.44-.76-.35-1.19-.25-.12,.03-.24,.03-.36,.02-2.05-.19-3.38,1.09-4.7,2.36-.44,.42-.18,1.8,.36,2.31,.22,.21,.48,.36,.73,.51,.74,.43,1.31,1.02,1.68,1.81,.44,.93,1.15,1.62,2.07,2.09,.18,.1,.37,.19,.56,.26,.63,.31,1.38,.29,1.99,.67,.11,.29,.01,.56-.07,.83-.15,.26-.39,.25-.63,.19-1.08-.23-2.12-.59-3.06-1.17-.84-.51-1.46-1.25-1.89-2.12-.31-.63-.75-1.12-1.34-1.49-.92-.58-1.69-1.28-1.81-2.46-.02-.22-.13-.28-.32-.15-1,.67-2.11,1.03-3.27,1.27-.16,.03-.29,.13-.39,.26-.73,1.01-1.35,2.07-1.68,3.29-.15,.55,0,.97,.47,1.3,1.15,.81,2.37,1.48,3.73,1.86,.25,.07,.5,.14,.76,.16,.97,.09,1.02,.05,1.15-.91,.15-1.13,.79-1.54,1.84-1.14,.84,.32,1.59,.82,2.35,1.31,1.04,.68,2.1,1.32,3.32,1.61,.18,.04,.34,.12,.42,.31,.02,.39,.03,.79-.2,1.13Z" fill="#853c30"/><path d="M37.94,68.93c1.93,.24,3.88,.29,5.74,.94,.17,.06,.34,.12,.49,.21,.62,.37,.65,1.1,.07,1.52-.76,.54-1.66,.65-2.54,.8-.53,.09-1.06,.18-1.6,.14-.34-.02-.58,.12-.78,.44-.38,.61-1.04,.86-1.68,1.06-1.35,.41-2.75,.63-4.15,.78-2.4,.24-4.8,.29-7.21,.39-2.02,.09-4.03,.1-6.04,.06-2.9-.07-5.8-.21-8.68-.6-2.08-.28-4.18-.55-6.1-1.53-.38-.2-.73-.45-.93-.82-.16-.3-.39-.41-.69-.5-.32-.1-.65-.2-.94-.36-.9-.5-.92-1.44-.06-1.99,.72-.46,1.52-.7,2.36-.77,1.7-.15,3.41-.25,5.11-.37,.09,0,.18-.06,.28-.09,.24-.12,.38,.06,.52,.18,2.79,2.2,6.07,3.13,9.52,3.58,1.5,.2,3.01,.41,4.53,.36,3.47-.11,6.87-.64,10.06-2.11,.69-.32,1.34-.7,2-1.08,.22-.13,.42-.33,.71-.23Z" opacity=".3"/><path d="M37.94,68.93c-1.62,.99-3.28,1.87-5.12,2.41-2.09,.61-4.21,.98-6.38,1.09-3.86,.2-7.61-.29-11.26-1.56-1.69-.59-3.19-1.52-4.59-2.63-1.6-1.47-2.85-3.16-3.38-5.31-.31-1.25-.34-2.52-.11-3.78,.05-.28,.03-.53-.11-.8-.5-.96-.18-1.98,.75-2.51,.17-.1,.35-.17,.44-.37,.76-1.57,1.8-2.95,2.87-4.32,.7-.89,1.16-1.88,1.37-3,.27-1.44,1.07-2.59,2.05-3.64,.37-.39,.73-.8,.8-1.36-.04-.4,.07-.79,.12-1.18,.07-.69-.03-1.41,.35-2.05,.04-.28,.09-.55,.13-.83-.01-.29,.2-.51,.23-.78,.15-.46,.37-.89,.64-1.3,.2-.21,.29-.49,.41-.74,.6-.64,1-.66,1.56-.08,.06,.33-.14,.58-.22,.87-.37,.87-.93,1.65-1.2,2.56-.32,.88-.31,1.81-.38,2.72-.1,1.34-.73,2.4-1.6,3.33-.77,.83-1.31,1.74-1.54,2.85-.31,1.48-1,2.76-1.96,3.92-.68,.81-1.28,1.69-1.83,2.59-.18,.3-.22,.53,.13,.75,.38,.24,.46,.65,.4,1.06-.17,1.11-.53,2.1-1.77,2.44-.29,.08-.33,.32-.35,.56-.22,2.45,.52,4.55,2.18,6.36,2.21,2.41,5.05,3.57,8.15,4.23,1.68,.36,3.39,.53,5.1,.62,3.69,.19,7.24-.37,10.64-1.81,1.3-.55,2.55-1.25,3.56-2.28,.07-.1,.15-.2,.24-.28,1.29-1.33,1.95-2.97,2.39-4.72,.16-.65,.26-1.32,.34-1.99,.04-.31,.13-.64-.21-.86-.24-.13-.54-.1-.77-.28-.89-.87-.91-2.61-.04-3.58,.05-.05,.09-.09,.15-.13,.18-.17,.12-.38,.06-.56-.4-1.42-.34-2.85-.1-4.27,.13-.78,.02-1.51-.21-2.24-.6-1.88-.87-3.8-.92-5.76-.04-1.43-.28-2.85-.52-4.26-.03-.16-.05-.32-.05-.47,0-.25-.1-.49-.12-.75-.02-.09-.05-.18-.06-.28-.02-.17-.02-.33,.1-.46,.52-.12,.97,.02,1.37,.36,.12,.2,.15,.43,.2,.65,.04,.38,.04,.76,.13,1.13,.02,.22,.04,.44-.02,.66-.06,.37,.13,.7,.13,1.06,.38,.56,.33,1.19,.34,1.82,0,.44,0,.88,0,1.32-.14,.82,.06,1.61,.18,2.4,.17,1.08,.59,2.09,.8,3.16,.17,.85,.07,1.68-.06,2.49-.21,1.26-.03,2.45,.31,3.64,.06,.22,.21,.34,.43,.44,1.42,.67,1.67,2.14,.51,3.19-.26,.23-.23,.48-.24,.75-.07,2.55-.68,4.94-2.02,7.13-.64,1.05-1.52,1.88-2.42,2.69Z" fill="#8c8575"/><path d="M35.55,10.81c-.86,1.07-.82,1.86,.15,2.83,.35,.35,.56,.77,.83,1.17,.64,.97,1.23,1.23,2.36,1.02,.86,.21,1.44,.82,2.01,1.43,.57,.62,1.03,1.33,1.45,2.05,1.09,1.92,2.64,3.38,4.35,4.73,2.12,1.67,3.86,3.7,5.33,5.95,.11,.17,.3,.34,.18,.59-.95-.58-2.02-.8-3.06-1.1-.98-.28-1.68-.95-2.22-1.8-1.43-2.24-3.54-2.74-6.02-2.44-.97,.12-1.96,.37-2.96,.06-1.34-.27-2.39-1.04-3.17-2.1-1.08-1.46-2.48-2.33-4.24-2.68-.41-.08-.79-.28-1.16-.48-.17-.09-.37-.18-.36-.43,.39-.68,.69-1.37,.62-2.19-.1-1.22-.76-1.93-1.97-2.03-.3-.02-.59-.09-.87-.19-.82-.28-1.64-.51-2.51-.32-.12,.03-.24,0-.35-.04-.48-.24-.96-.47-1.44-.69-.78-.35-1.16-1.07-1.41-1.83-.24-.72-.32-1.47-.3-2.23,0-.18,.03-.36,.16-.5,1.08-.83,1.5-1.89,1.2-3.25-.13-.58-.62-.92-.85-1.42-.23-.43-.05-.82,.12-1.22,.84-1.22,1.86-2.19,3.38-2.5,1.52,.44,2.72,1.36,3.71,2.56,.43,.52,.82,1.08,1.22,1.62,.76,1.01,1.72,1.76,2.82,2.35,1.16,.62,2.12,1.47,2.84,2.58,.09,.14,.25,.27,.17,.48Z" fill="#cf5e58"/><path d="M29.08,19.67c.62,.5,1.38,.7,2.13,.88,1.35,.32,2.47,.99,3.29,2.1,.9,1.22,2.05,2.08,3.45,2.65-1-.02-1.9-.43-2.77-.85-1.65-.8-3.28-1.64-5.11-1.96-1.61-.28-3.22-.38-4.86-.21-1.69,.17-3.35,.4-4.95,.95-1.65,.57-3.08,1.47-4.32,2.69-.44,.43-.89,.85-1.37,1.24-.39,.32-.82,.58-1.36,.53-2.01-.21-3.5,.8-4.91,2.04-.92,.81-1.79,1.71-2.94,2.22-.21,.09-.21,.1-.6,.1,.49-.63,.98-1.22,1.44-1.84,1.15-1.57,1.78-3.37,2.25-5.23,.57-2.25,1.59-4.28,3.24-5.9,1.57-1.54,2.4-3.37,2.79-5.47,.15-.82,.47-1.6,.79-2.37,.15-.36,.32-.52,.71-.32,.43,.22,.87,.13,1.26-.07,.89-.46,1.77-.9,2.8-.94,.3-.01,.6-.2,.9-.31,0,1.11,.01,2.22,.54,3.25,.33,.64,.76,1.14,1.5,1.33,.36,.09,.69,.31,.96,.57-.18,.36-.59,.39-.89,.56-1.12,.63-1.76,1.54-1.7,2.86,.05,1.38,1.03,2.19,2.4,1.97,.91-.15,1.81-.23,2.72,.09,.76,.26,1.5,.11,2.15-.39,.14-.1,.27-.25,.48-.18Z" fill="#bb5445"/><path d="M16.85,37.06c-.2,.44-.49,.83-.6,1.31-.32,.37-.75,.3-1.17,.3-.42,0-.83-.07-1.23-.18-.18-.02-.35-.08-.48-.22-.36-.3-.3-.67-.15-1.04,.08-.2,.19-.4,.32-.57,.29-.38,.32-.67-.16-.96-.37-.23-.47-.65-.27-1.06,.76-1.61,1.36-3.28,1.79-5.01,.04-.16,.13-.29,.28-.37,.08-.24,.33-.31,.48-.48,.15-.24,.41-.3,.65-.4,2.4-.92,4.89-1.44,7.44-1.7,1.21-.12,2.42-.14,3.64-.22,.3-.02,.6-.06,.86,.16,.3,.17,.64,.1,.96,.12,.26-.21,.56-.18,.86-.15,2.99,.29,5.92,.83,8.68,2.06,.52,.23,1.09,.4,1.49,.85,.16,.2,.47,.27,.49,.59,.61,.52,1.15,1.1,1.67,1.7,.4,.46,.33,.92-.2,1.34-.32,.26-.3,.46-.09,.75,.46,.63,.98,1.21,1.54,1.75,.31,.29,.49,.63,.32,1.07-.04,.12-.09,.23-.13,.35-1.07,.93-2.41,1.1-3.74,1.29-.08,.01-.15-.04-.21-.09-.14-.39-.13-.8-.12-1.2,.44-.42,1.06-.28,1.57-.49,.08-.02-.02,0,.06-.01,.77-.18,.78-.19,.25-.8-.55-.63-1.06-1.28-1.32-2.1-.12-.38-.13-.74,.1-1.08,.09-.13,.23-.3,.09-.43-.57-.53-.77-1.42-1.6-1.71-.34-.1-.73-.52-.96-.3-.26,.25,.1,.69,.21,1.04,.08,.29,.22,.56,.32,.84,.05,.15,.11,.34-.04,.45-.19,.13-.34-.04-.45-.17-.56-.68-1.05-1.42-1.4-2.22-.22-.51-.54-.78-1.07-.93-2.15-.58-4.32-.91-6.54-1.06-2.53-.18-5.01,.12-7.5,.49-.57,.08-.88,.34-1.07,.88-.48,1.3-1.18,2.48-2.03,3.58-.16,.21-.37,.56-.65,.39-.24-.15,.01-.47,.1-.7,.4-1,.73-2.03,1.04-3.06,.1-.36,.04-.5-.35-.36-.07,.03,.02,0-.06,.02-1.31,.26-2.32,.76-2.54,2.31-.12,.89-.53,1.75-.92,2.59-.11,.22-.2,.44,.04,.65,.6,.52,.57,1.13,.29,1.8-.21,.49-.17,.51,.39,.45,.38-.04,.76-.32,1.14-.02Z" fill="#9a8066"/><path d="M15.76,39.91c-.19,.67,.07,1.42-.35,2.05-2.08-.39-3.65-1.8-5.45-2.75-.07-.04-.13-.1-.2-.12-.49-.15-.96-.55-1.52-.19-.55,.36-.59,.95-.54,1.49,.05,.51-.16,.58-.55,.62-.94,.08-1.81-.21-2.66-.56-.96-.39-1.86-.92-2.7-1.52-.59-.42-.67-.76-.45-1.56,.35-1.23,1.01-2.29,1.73-3.32,.08-.12,.17-.21,.33-.23,1.32-.19,2.53-.68,3.63-1.43,.04-.03,.11-.03,.23-.05-.08,1.42,.75,2.24,1.84,2.9,.45,.27,.87,.59,1.08,1.08,.87,2.01,2.52,3.01,4.55,3.49,.33,.08,.66,.31,1.03,.11Z" fill="#976e66"/><path d="M40.45,41.72c-.26-.58-.23-1.21-.34-1.82,.57-.24,1.18-.34,1.78-.48,2.06-.5,3.09-1.63,3.35-3.74,.11-.85,.4-1.56,1.05-2.13,.79-.7,1.17-1.65,1.46-2.63,.13-.45,.24-.62,.74-.38,.51,.24,1.09,.35,1.65,.49,1.1,.27,1.89,.96,2.52,1.86,.21,1.73-.6,3.06-1.67,4.29-.58-.63-1.21-1.21-1.92-1.68-.73-.47-1.31-.16-1.42,.71-.12,.89-.4,1.73-.8,2.55-.6,1.25-1.72,1.56-2.93,1.76-1.23,.2-2.4,.55-3.47,1.2Z" fill="#976e66"/><path d="M15.17,29.25c-.5,1.88-1.08,3.73-1.95,5.48-.22,.45,0,.84,.41,.96,.58,.18,.4,.45,.21,.78-.24,.42-.64,.78-.58,1.33,.02,.16,.07,.31,.11,.46-.98-.38-1.67-1.09-2.12-2.01-.43-.88-1.02-1.57-1.89-1.99-1.13-.54-1.14-1.58-1.22-2.59,0-.07,.05-.16,.1-.21,1.11-1.07,2.21-2.16,3.78-2.52,.75-.17,1.55,.04,2.31-.2,.24-.08,.3,.21,.42,.36,.11,.15,.26,.17,.43,.15Z" fill="#976e66"/><path d="M28.24,26.62c-3.9,.05-7.76,.41-11.46,1.77-.37,.14-.75,.26-1.12,.39-.38-.43-.24-.7,.16-1.09,1.45-1.42,2.98-2.68,4.94-3.34,1.4-.47,2.84-.72,4.3-.84,.79-.07,1.58-.18,2.38-.13,.28,.02,.41,.03,.36,.4-.1,.69-.1,1.39,.23,2.04,.12,.25,.22,.51,.22,.8Z" fill="#976e66"/><path d="M40.21,29.5c-1.34-.59-2.67-1.21-4.08-1.63-1.75-.51-3.53-.84-5.35-1.02-.53-.05-1.06-.13-1.6-.11,.07-.56-.17-1.05-.35-1.55-.08-.22-.2-.45-.21-.68-.02-.76,.31-1.01,1.07-.86,1.26,.24,2.45,.67,3.59,1.25,1.17,.59,2.35,1.16,3.63,1.5,1.38,.36,2.76,.21,4.14,.04,.58-.07,1.15-.03,1.73-.05,.14,0,.31,0,.26,.21-.11,.51-.2,1.08-.77,1.26-.91,.29-1.52,.9-2.05,1.64Z" fill="#976e66"/><path d="M43.94,36.7c.03-.41-.15-.72-.45-1-.6-.56-1.14-1.17-1.61-1.84-.22-.32-.33-.54,.13-.79,.6-.32,.62-.81,.14-1.33-.5-.54-1.1-.98-1.46-1.65,.92-.66,1.86-1.29,2.74-2,.29-.23,.45-.65,.49-1.06,.03-.3,.17-.32,.4-.2,.45,.23,.85,.54,1.14,.94,.45,.61,.85,1.25,1.42,1.76,.17,.16,.16,.34,.1,.55-.37,1.23-.8,2.42-1.83,3.28-.68,.56-.69,1.4-.87,2.16-.09,.4-.12,.82-.36,1.18Z" fill="#976e66"/><path d="M19.07,5.17c.88-.02,1.46,.67,1.79,1.36,.35,.71,.13,1.33-.5,1.91-.2,.19-.45,.3-.69,.31-1.01,.02-1.9,.4-2.74,.89-.35,.21-.64,.17-.93-.04-.5-.36-.78-.88-.77-1.47,.02-.54,.29-1.03,.86-1.25,.88-.34,1.7-.77,2.32-1.51,.18-.22,.42-.19,.66-.18Z" fill="#8d483e"/><path d="M52.21,30.58c-1.25-2.16-2.89-4-4.72-5.67-.93-.85-1.92-1.62-2.86-2.45-1.04-.92-1.8-2.07-2.51-3.26-.82-1.37-1.81-2.58-3.22-3.38,.34-.46,.66-.3,1.03-.01,1,.78,1.83,1.72,2.49,2.8,1.1,1.8,2.53,3.33,4.06,4.77,1.89,1.78,3.8,3.54,5.47,5.54,.69,.82,1.3,1.71,1.64,2.75,.04,.14,.1,.26,.03,.44-.33-.65-.9-1.06-1.4-1.53Z" fill="#feeefe"/><path d="M35.55,10.81c-.84-1.35-1.97-2.37-3.39-3.11-1.15-.6-2.1-1.46-2.8-2.54-1.15-1.76-2.68-3.06-4.58-3.94,1.18-.15,2.11,.39,2.97,1.11,.94,.79,1.67,1.76,2.43,2.7,.84,1.05,1.84,1.86,3.02,2.47,1.12,.58,2.09,1.28,2.6,2.5,.17,.4,.2,.65-.25,.8Z" fill="#f8f8f8"/><path d="M38.89,14c-.5,.87-.92,.9-1.41,.03-.29-.51-.66-.94-1.01-1.4-.42-.55-.42-.69,.19-1.1,.16,.1,.36,.08,.53,.16,.97,.47,1.54,1.24,1.7,2.31Z" fill="#8e483e"/><path d="M51,37.17c0-.31,.22-.51,.39-.72,.76-.97,1.18-2.06,1.21-3.29,0-.09,.05-.18,.08-.28,.3,.4,.42,.88,.57,1.34,.09,.27,.06,.54-.1,.79-.48,.78-1.04,1.49-1.69,2.13-.15,.15-.3,.28-.46,.02Z" fill="#fdeffc"/><path d="M39.86,38.25c1.38-.19,2.72-.53,3.95-1.2-.31,.69-.89,1.06-1.58,1.26-.74,.21-1.5,.36-2.25,.54-.21-.17-.09-.4-.12-.6Z" fill="#976d65"/><path d="M38.89,14c-.37-.93-.83-1.78-1.78-2.25-.02-.12,0-.18,.14-.13,1.22,.3,1.72,1.04,1.64,2.38Z" fill="#f4f2f1"/><path d="M13.85,38.49c.8-.04,1.61,.11,2.4-.12-.05,.27-.16,.52-.36,.72-.69-.15-1.4-.25-2.04-.6Z" fill="#976c64"/><path d="M21.4,3.72c.08,.42-.12,.81-.12,1.22-.6-.51-.59-.57,.12-1.22Z" fill="#bc5446"/><path d="M37.25,11.62s-.09,.09-.14,.13c-.18,0-.34-.06-.45-.22,.2-.01,.41-.09,.58,.09Z" fill="#e0cfcd"/><path d="M38.31,66.77c-.05,.07-.09,.15-.14,.22-2.63,1.36-5.42,1.8-8.36,1.53-2.48-.22-4.82-.92-7.03-2.03-2.6-1.31-4.75-3.14-6.38-5.57-.12-.18-.24-.37-.35-.56-.36-.67-.32-.83,.31-1.28,.18-.13,.34-.28,.52-.41,.68-.5,.91-1.12,.58-1.92-.47-.99-1.23-1.3-2.23-.92-.2,.08-.4,.19-.62,.08-.23-.2-.21-.47-.18-.72,.13-1.01,.22-2.02,.57-2.99,.32-.92,.43-1.82,.05-2.79-.43-1.1-.09-2.11,.8-2.86,1.29-1.08,1.83-2.36,1.4-4.03-.25-.97-.25-1.97-.04-2.96,.21-.94,.76-1.71,1.2-2.53,.3-.2,.58-.05,.85,.05,1.16,.41,1.81,.17,2.35-.92,.31-.62,.66-1.15,1.28-1.52,.59-.35,.85-.97,1.04-1.62,.07-.26,.07-.57,.41-.68,.26,.04,.32,.28,.44,.45,.37,.52,.73,1.05,1.35,1.32,.45,.38,.87,.2,1.23-.12,.32-.29,.59-.25,.97-.1,.98,.39,1.9,.89,2.75,1.51,.45,.33,.99,.53,1.57,.26,.72-.1,.85-.21,1.03-.91,.04-.17,.04-.36,.18-.49,.2-.09,.35,.02,.49,.13,1.08,.89,2.27,1.56,3.61,1.94,.14,.04,.24,.14,.35,.22l.09,.15c-.03,.61,.01,1.22,.13,1.82,.24,1.56,.24,3.14,.17,4.71-.06,1.41,.21,2.73,.75,4.02,.41,.97,.48,1.98,.21,2.99-.37,1.41-.2,2.76,.3,4.1,.11,.29,.32,.57,.13,.9v.04c-.77,.48-1.03,1.23-1.02,2.07,0,.68,.38,1.14,1.02,1.37,.24,.07,.48,.15,.73,.22-.12,.87-.14,1.75-.26,2.61-.27,1.94-1.09,3.65-2.27,5.2Z" fill="#ddcbad"/><path d="M17.58,56.7c.36,1.15,.19,1.58-.91,2.37-.15,.1-.3,.2-.45,.29-.31,.17-.34,.37-.17,.68,.86,1.58,2.04,2.9,3.39,4.06,1.7,1.45,3.63,2.51,5.74,3.25,1.47,.51,2.97,.83,4.52,1,2.03,.23,4,.02,5.96-.5,.7-.19,1.34-.5,2.01-.77,.16-.07,.31-.2,.5-.09-.22,.46-.67,.69-1.05,.95-2.26,1.57-4.81,2.42-7.51,2.91-1.39,.25-2.8,.38-4.2,.43-1.28,.05-2.58-.08-3.87-.22-1.76-.19-3.5-.51-5.18-1.08-2.28-.77-4.33-1.91-5.97-3.72-1.71-1.89-2.41-4.08-2.17-6.6,.03-.33,.13-.63,.59-.57,.32,.05,.5-.2,.7-.39,.59-.57,.84-1.29,.86-2.1,0-.34-.09-.67-.44-.77-.54-.16-.36-.42-.17-.74,.67-1.13,1.46-2.18,2.27-3.21,.66-.84,1.21-1.75,1.41-2.8,.3-1.56,1.04-2.85,2.13-3.98,1-1.04,1.24-2.37,1.26-3.75,.01-.62,.1-1.22,.36-1.79-.03,1.24,.12,2.45,.33,3.67,.24,1.33-.36,2.42-1.37,3.25-1.02,.84-1.43,1.81-.93,2.99,.42,1,.22,1.91-.1,2.83-.34,.97-.4,1.98-.55,2.97-.03,.2-.08,.44,.12,.61,.03,.18-.08,.3-.18,.42-.27,.34-.39,.74-.45,1.15-.08,.49,.07,.92,.5,1.19,.41,.26,.84,.23,1.24-.03,.22-.14,.43-.29,.67-.38,.56-.23,.95-.58,.95-1.24,0-.12,.04-.24,.15-.31Z" fill="#bfad8e"/><path d="M16.85,37.06c-.53,.08-1.06,.16-1.59,.22-.3,.03-.52,.04-.27-.4,.59-1.02,.56-1.18-.24-2.08-.18-.2-.06-.34,0-.48,.59-1.33,1.07-2.7,1.4-4.12,.06-.26,.24-.39,.49-.48,.65-.24,1.3-.49,1.98-.65,.15-.04,.36-.13,.44-.07,.15,.12,.05,.33,0,.5-.37,1.3-.76,2.59-1.37,3.85,.48-.28,.73-.55,1.37-1.61,.49-.82,.98-1.65,1.26-2.57,.14-.46,.41-.68,.87-.75,2.16-.35,4.33-.64,6.52-.59,2.77,.06,5.5,.42,8.16,1.22,.39,.12,.6,.33,.75,.69,.4,1,1,1.88,1.81,2.64-.21-.58-.43-1.16-.63-1.75-.09-.27-.32-.63-.11-.82,.16-.15,.5,.11,.75,.23,.2,.09,.39,.19,.58,.29,.45,.55,.7,1.25,1.25,1.73,.16,.14,.18,.35,.06,.55-.44,.72-.24,1.41,.08,2.1,.11,.24,.33,.47,.18,.78-2.16-.5-4.19-1.28-5.81-2.88-.3-.29-.58-.61-.9-.88-.47-.39-.78-.28-.95,.32-.04,.15-.02,.37-.19,.41-.21,.06-.3-.15-.4-.29-.69-.98-1.28-2.02-1.67-3,.4,1.45,.97,3,1.84,4.41,.03,.05,.06,.1,.09,.16,.07,.16,.2,.36,.05,.5-.18,.17-.37,0-.53-.12-.29-.22-.49-.53-.7-.82-.33-.46-.77-.71-1.33-.66-.89,.09-1.55-.14-1.92-1.04-.15-.37-.48-.67-.95-.59-.48,.08-.67,.44-.8,.87-.08,.27-.05,.68-.42,.71-.35,.03-.45-.34-.59-.6-.27-.49-.5-1-.62-1.55-.04-.18-.1-.35-.18-.51-.29-.59-.73-.65-1.17-.16-.53,.61-.79,1.35-.91,2.12-.11,.7-.41,1.2-1.03,1.51-.61,.3-.84,.87-1.08,1.45-.34,.84-.43,.87-1.2,.36-.88-.58-2.56-.3-3.17,.52-.13,.18-.17,.36-.05,.56,.13,.21,.32,.19,.53,.12,.21-.08,.41-.29,.67-.11-.01,.3-.1,.56-.37,.74Z" fill="#d9af87"/><path d="M17.22,36.33c-.21,.01-.37,.13-.54,.24-.29,.19-.58,.2-.8-.09-.21-.29-.19-.6,.08-.87,1.01-1,2.5-1.14,3.62-.31,.33,.25,.5,.19,.6-.17,.27-.94,.74-1.7,1.68-2.12,.35-.15,.44-.55,.49-.91,.11-.82,.38-1.58,.85-2.27,.22-.32,.48-.61,.91-.57,.45,.05,.62,.42,.72,.79,.2,.75,.47,1.48,.86,2.16,.08,.14,.15,.33,.32,.32,.2-.02,.16-.24,.19-.39,0-.04,.03-.08,.03-.11,.12-.57,.33-1.12,.99-1.19,.66-.07,1,.42,1.23,.95,.24,.55,.61,.81,1.22,.71,.96-.15,1.66,.22,2.14,1.06,.17,.3,.41,.54,.9,.73-1.04-1.85-1.94-3.61-2.2-5.62,.65,1.28,1.28,2.57,2.17,3.72,.14-.09,.09-.22,.08-.31-.02-.34,.13-.59,.42-.73,.3-.14,.55,.04,.75,.23,.61,.6,1.22,1.2,1.89,1.73,1.15,.91,2.49,1.39,3.88,1.78,.32,.09,.59,.22,.86,.39,.17,0,.2,.13,.23,.26-.11,.77-.46,.98-1.21,.71-.42-.19-.86-.3-1.31-.36-1.32-.35-2.69-1.15-4.17-2.44-.15,.19-.07,.47-.26,.65,.02,.34-.07,.66-.19,.97-.19,.46-.55,.57-1,.48-.78-.04-1.28-.56-1.7-1.1-.49-.64-1.06-.87-1.84-.82-.77,.06-1.3-.37-1.67-1.03-.31,1.17-.7,1.55-1.41,1.38-.88-.3-1.25-1.08-1.67-1.81-.32-.14-.36-.45-.52-.75-.07,.28-.14,.54-.18,.8-.14,.88-.54,1.57-1.39,1.96-.32,.15-.52,.42-.65,.75-.12,.3-.22,.6-.37,.88-.58,1.03-1.89,1.12-2.64,.2-.52-.49-.99-.33-1.43,.12Z" fill="#9a8066"/><path d="M40.1,55.25c-.24-.86-.62-1.67-.76-2.57-.12-.79-.04-1.54,.14-2.3,.26-1.1,.2-2.16-.23-3.22-.48-1.15-.79-2.32-.72-3.6,.09-1.69,.03-3.39-.11-5.08-.01-.36-.22-.75,.11-1.08,.16,1.4,.45,2.78,.55,4.19,.08,1.21,.09,2.42,.29,3.63,.15,.88,.36,1.75,.64,2.59,.34,1.01,.37,2.04,.18,3.06-.23,1.26-.14,2.49,.2,3.71,.09,.32,.17,.6-.29,.66Z" fill="#fefefe"/><path d="M18.65,36.21c.15,.09,.31,.18,.46,.27,.88,.49,1.83,.18,2.15-.76,.26-.76,.6-1.38,1.4-1.74,.62-.28,.77-.97,.89-1.61,.07-.37,.16-.73,.27-1.22,.22,.48,.4,.85,.57,1.22-.21,.08-.21,.26-.25,.44-.24,.96-.65,1.78-1.61,2.25-.5,.24-.59,.83-.83,1.28-.56,1.04-1.33,1.33-2.44,.9-.28-.11-.56-.2-.87-.21-.02-.31,.23-.53,.25-.82Z" fill="#a79c82"/><path d="M33.88,34.3c-.02-.3,0-.59,.17-.9,.41,.34,.81,.68,1.23,1,.81,.61,1.71,1.07,2.66,1.43,.15,.06,.3,.1,.37,.26,0,.16,0,.31,0,.47-1.51-.3-2.81-1.04-3.99-2-.14-.11-.24-.28-.44-.26Z" fill="#bfad8e"/><path d="M38.31,66.77c.17-.63,.61-1.11,.92-1.67,.96-1.74,1.32-3.61,1.35-5.57,0-.22-.1-.5,.26-.57,.24-.02,.37,.05,.35,.33-.16,2.73-.88,5.26-2.67,7.39-.04,.05-.14,.06-.21,.09Z" fill="#fdfdfd"/><path d="M42.12,57.53c-.06,.05-.11,.12-.17,.15-.38,.2-.81,.55-1.2,.2-.39-.35-.33-.91-.26-1.4,.07-.45,.65-.61,1.29-.41,.27,.44,.44,.91,.34,1.44Z" fill="#d5b698"/><path d="M8.86,56.58c.2,.04,.53-.08,.53,.34,0,.5-.55,1.3-.9,1.27-.4-.04-.74-.2-.75-.69-.01-.55,.43-.92,1.12-.92Z" fill="#d4b698"/><path d="M40.11,58.74c-.68-.03-1.01-.43-1.15-1.07-.22-1.02,.28-2.08,1.15-2.38-.83,.96-.83,2.59,0,3.45Z" fill="#bfad8f"/><path d="M39.62,36.45c.53,0,1.08,.03,1.09-.73,.42,.19,.63,.53,.71,.97-.56,.12-1.12,.24-1.68,.36-.12-.18-.13-.39-.12-.59Z" fill="#d8af88"/><path d="M42.12,57.53c-.11-.48-.23-.96-.34-1.44,.69,.43,.76,.76,.34,1.44Z" fill="#f9f9f8"/><path d="M38.53,37.42c-.22,.34-.04,.72-.11,1.07-.18-.59-.18-1.19-.01-1.79,.04,.24,.08,.47,.12,.71Z" fill="#efeae1"/><path d="M29.08,19.67c-.93,.92-2.01,1.04-3.18,.6-.73-.28-1.46-.06-2.17,.06-1.32,.23-2.48-.63-2.56-1.98-.1-1.63,.72-2.82,2.37-3.45,.13-.05,.26-.1,.39-.14,1.09-.24,2.12-.01,3.14,.36,.2,.07,.43,.11,.64,.11,1.19,.03,2,.84,2.09,2.06,.07,.89-.11,1.7-.72,2.38Z" fill="#863c30"/><path d="M36.62,19.95c0-1.29,.51-1.84,1.69-1.84,.98,0,1.68,.73,1.68,1.75,0,1.16-.72,1.97-1.76,1.97-1.08,0-1.61-.61-1.61-1.88Z" fill="#863c30"/><path d="M24.14,2.53c.81-.02,1.42,.36,1.68,1.05,.24,.63,.08,1.27-.42,1.73-.72,.66-2.89,.15-3.22-.76-.29-.79,.58-1.93,1.54-2.02,.14-.01,.28,0,.42,0Z" fill="#863c30"/><path d="M13.48,23.87c-.08,0-.16,0-.24,0-.74,.04-1.41-.09-1.76-.83-.35-.75,0-1.4,.46-1.97,1.06-1.33,2.54-1.61,4.05-.8,.61,.33,.86,.95,.67,1.61-.36,1.23-1.31,2.11-3.18,2Z" fill="#863c30"/><path d="M41.42,36.68c-.24-.32-.47-.64-.71-.97-.04-.08-.08-.16-.12-.24-.18-.54-.52-1.02-.63-1.6-.08-.42-.07-.82,.16-1.14,.25-.36,.12-.54-.14-.79-.47-.44-.78-.99-.95-1.62,.41,.14,.72,.37,.9,.79,.1,.23,.28,.44,.47,.61,.3,.29,.56,.52,.12,.93-.22,.2-.18,.53-.09,.85,.28,.98,.95,1.69,1.57,2.44,.11,.14,.28,.23,.33,.46-.3,.09-.59,.18-.89,.27Z" fill="#f8f7f7"/><path d="M19.71,41.24c.2-.87,.76-1.39,1.62-1.56,.68-.14,1.26-.46,1.82-.85,.71-.51,1.49-.66,2.32-.34,.74,.28,.97,.79,.8,1.57-.1,.44-.33,.81-.55,1.19-1.1,1.53-2.65,2-4.45,1.79-.56-.06-1.06-.35-1.41-.81-.22-.29-.38-.61-.15-.98Z" fill="#553826"/><path d="M32.07,42.33c-.5-.52-.97-1.06-.99-1.84-.02-.67,.22-1.23,.79-1.58,.57-.35,1.22-.36,1.76,.02,.66,.46,1.31,.75,2.13,.75,.61,0,1.01,.42,1.24,.97,.19,1.48-.82,2.66-2.32,2.68-1,.02-1.93-.16-2.61-1Z" fill="#553826"/><path d="M25.97,49.89c-.91-.81-.87-1.78-.41-2.78,.49-1.09,1.26-1.9,2.53-2.03,.69-.08,1.29,.22,1.78,.7,.82,.82,1.14,1.82,.93,2.95-.21,1.15-.93,1.54-2.03,1.18-.13-.04-.27-.03-.41-.05-.48-.29-.17-.62-.05-.95,.15-.14,.33-.15,.52-.14,.23,0,.41,.2,.65,.13,.08-.06,.12-.15,.16-.23,.28-.84-.05-1.53-.59-2.12-.41-.44-.95-.46-1.47-.14-.89,.54-1.36,1.69-1.01,2.47,.16,.59,.03,.81-.59,1.02Z" fill="#553826"/><path d="M26.91,39.67c.2-.11,.36-.23,.41-.51,.1-.51,.49-.9,.84-1.24,.53-.51,1.29-.22,1.6,.53,.18,.45,.07,1,.5,1.36-.57,.34-.66,.62-.49,1.32,.07,.28,.32,.51,.25,.83-.94,.74-3.05,.95-3.49-.34,.2-.24,.5-.37,.65-.67,.32-.63,.28-.87-.29-1.27Z" fill="#bfad8e"/><path d="M17.58,56.7c.1,.94-.34,1.48-1.22,1.77-.42,.13-.69,.57-1.23,.53-.82-.06-1.39-.75-1.23-1.55,.12-.6,.32-1.15,.8-1.56,.41-.13,.75-.42,1.23-.39,.83,.05,1.34,.4,1.65,1.2Z" fill="#8d8675"/><path d="M19.71,41.24c.09,1,.68,1.58,1.8,1.68,1.44,.13,2.69-.33,3.77-1.28,.15-.13,.29-.27,.44-.4-.3,1.14-2.43,2.87-3.81,2.89-.58,0-1.15,.02-1.71-.14-.03-.38-.18-.64-.57-.8-.44-.18-.68-.64-1.1-.86,.04-.11,.09-.22,.11-.34,.09-.64,.49-.81,1.07-.75Z" fill="#bfad8e"/><path d="M32.07,42.33c.68,.47,1.41,.78,2.25,.87,1.24,.14,2.91-.94,2.69-2.55,.23,.52,.67,.94,.71,1.55-.34,.42-.64,.9-1.14,1.16-.34,.18-.2,.52-.31,.77-1.12,.54-2.23,.51-3.28-.16-.58-.37-.93-.92-.92-1.64Z" fill="#bfad8e"/><path d="M38.42,59.7c.72-.45,1.47-.06,1.54,.84,.05,.73-.15,1.43-.62,2-.54,.66-1.1,.64-1.99,.02-.26-.26-.34-.61-.25-.94,.21-.79,.58-1.5,1.33-1.94Z" fill="#8d8675"/><path d="M26.07,34.18c1.04-.01,1.05-.91,1.33-1.58,.19,.04,.24,.2,.32,.32,.35,.56,.86,.83,1.51,.77,.74-.07,1.32,.06,1.77,.76,.39,.6,1.02,1,1.68,1.3-.4,.38-.83,.15-1.23,.02-.26-.09-.52-.23-.72-.41-.76-.75-1.82-.94-2.7-1.46-.24-.14-.34,0-.49,.15-.6,.55-1,.57-1.48,.14Z" fill="#a89d82"/><path d="M28.36,48.92c0,.31-.25,.62-.01,.94-.17,.3-.25,.62-.23,.97,0,.14-.01,.28-.04,.41-.13,.69-.46,1.05-.94,1.04-.53,0-.92-.41-1.06-1.09,.05-.03,.1-.04,.16-.02,.1,.07,.17,.17,.26,.25,.14,.13,.29,.23,.48,.14,.23-.11,.19-.32,.14-.52-.18-.7-.03-1.35,.35-1.94,.2-.31,.47-.62,.92-.34,.03,.06,.02,.11-.02,.16Z" fill="#82f7fd"/><path d="M36.27,44.12c-.23-.43-.17-.75,.31-.95,.28-.12,.48-.34,.64-.6,.12-.19,.25-.36,.49-.38,.53,.15,.57,.49,.33,.91-.39,.68-.95,1.09-1.78,1.02Z" fill="#8d8675"/><path d="M25.97,53.6c.68-.47,1.34-.26,1.58,.52,.21,.69,.05,1.29-.5,1.77-.05-.03-.08-.07-.11-.12-.06-.29-.3-.36-.52-.47-.04-.04-.07-.08-.1-.13-.11-.24-.16-.52,.01-.72,.39-.43,.11-.54-.26-.65-.08-.04-.14-.09-.11-.2Z" fill="#82f7fd"/><path d="M18.53,42.32c.28-.02,.49,.08,.65,.32,.17,.25,.41,.41,.71,.51,.43,.14,.55,.42,.3,.83-.7,.21-1.65-.26-1.88-.94-.09-.27-.1-.55,.21-.72Z" fill="#8d8675"/><path d="M30.03,41.96c-.34-.44-.5-.93-.49-1.49,0-.51,.2-.74,.72-.66,.41,.5,.25,1.14,.41,1.7,.09,.31-.31,.45-.65,.44Z" fill="#8d8675"/><path d="M26.91,39.67c.64,.06,.77,.22,.61,.82-.14,.52-.29,1.05-.97,1.12-.29-.06-.45-.31-.33-.53,.25-.46,.32-1.02,.69-1.42Z" fill="#8d8675"/><path d="M38.42,59.7c-.43,.44-.73,.98-1.05,1.49-.29,.46-.09,.92-.03,1.38-.38-.04-.46-.31-.51-.62-.16-.93,.64-2.07,1.59-2.25Z" fill="#968c73"/><path d="M26.18,51.19s-.07,0-.11,0c-.23-.42-.07-.87-.11-1.3,.2-.3,.81-.41,.48-.97,.18-.42,.44-.71,.95-.64-.2,.61-.03,1.37-.77,1.75-.25,.13-.3,.4-.34,.66-.03,.17,.07,.36-.1,.5Z" fill="#85f4fb"/><path d="M26.43,55.14s0,.07,0,.11c-.01,.42,.31,.44,.6,.5,0,.05,0,.1,0,.14-.32,.36-.73,.31-1.08,.12-.47-.27-.59-.77-.58-1.29,0-.17,.07-.35,.11-.52,.1-.03,.15,.04,.19,.12,.01,.49,.3,.72,.74,.82Z" fill="#86f5fb"/><path d="M25.61,54.32s-.07-.08-.11-.12c.08-.26,.19-.5,.47-.6,.04,.04,.08,.07,.11,.11-.04,.29-.16,.53-.47,.61Z" fill="#9ff2f4"/><path d="M13.14,61c0,.88-.42,1.3-1.22,1.36-.61,.05-1.11-.38-1.14-1.09-.03-.81,.55-1.45,1.26-1.45,.69,0,1.1,.44,1.1,1.18Z" fill="#8d8675"/><path d="M28.6,17.71c0,1.12-.93,1.84-1.96,1.48-1-.35-2-.26-3-.08-.77,.14-1.2-.15-1.26-.92-.07-.84,.3-1.48,1.01-1.89,.79-.45,1.63-.55,2.52-.27,.62,.2,1.21,.48,1.91,.37,.42-.06,.79,.62,.78,1.31Z" fill="#8d483e"/><path d="M37.82,20c0-.34-.05-.69,.4-.69,.4,0,.56,.23,.56,.61,0,.39-.21,.67-.59,.69-.46,.02-.34-.38-.37-.6Z" fill="#8d483e"/><path d="M24.08,3.73c.22,0,.44-.01,.55,.23,.05,.11,.08,.21,.01,.33-.08,.13-.18,.12-.3,.07-.13-.05-.27-.07-.39-.13-.15-.08-.48,.11-.45-.21,.03-.26,.31-.32,.57-.3Z" fill="#8d473d"/><path d="M13.47,22.66c-.25-.07-.69,.18-.83-.16-.15-.36,.24-.65,.46-.91,.52-.61,1.53-.71,2.22-.3,.24,.14,.16,.27,.08,.44-.37,.83-1.09,.96-1.93,.93Z" fill="#8d483e"/><path d="M21.87,41.98c-.39-.05-1.06,.01-1.13-.58-.07-.59,.57-.75,1.06-.84,.69-.13,1.25-.48,1.81-.87,.4-.28,.82-.48,1.34-.38,.35,.07,.46,.23,.36,.59-.21,.7-.72,1.13-1.3,1.48-.65,.4-1.34,.59-2.13,.59Z" fill="#fefdfd"/><path d="M34.48,42.25c-.87-.12-1.7-.39-2.23-1.22-.25-.4-.34-.84,.03-1.2,.38-.37,.77-.16,1.13,.1,.58,.43,1.16,.82,1.96,.66,.22-.05,.5,.02,.63,.26,.15,.26,0,.5-.15,.71-.32,.45-.78,.66-1.37,.7Z" fill="#fefdfd"/><path d="M27.4,48.33c-.41,.04-.68,.33-.95,.59-.24-.18-.26-.44-.22-.7,.15-.82,.54-1.49,1.25-1.95,.53-.34,1.08-.3,1.6,.11,.65,.51,.96,1.64,.65,2.43-.73-.1-1.39-.54-2.17-.42-.06,0-.12-.02-.17-.05Z" fill="#e52c20"/><path d="M27.54,48.29c.81-.16,1.51,.12,2.19,.51-.04,.09-.05,.19-.16,.22-.2-.06-.38-.19-.6-.12-.2,0-.41-.08-.61,.01,0-.04-.01-.07-.01-.11-.15-.35-.62-.21-.8-.51Z" fill="#89e6eb"/><path d="M28.97,48.91c.24-.18,.47-.24,.6,.12-.24,.18-.41-.02-.6-.12Z" fill="#e1e5e4"/><path d="M15.98,56.47c.25,.05,.56,.08,.63,.45,.07,.36-.17,.49-.46,.56-.23,.06-.44,.16-.61,.34-.14,.15-.31,.28-.52,.15-.22-.13-.13-.35-.09-.54,.11-.6,.48-.96,1.05-.97Z" fill="#d4b598"/><path d="M39,60.46c-.01,.59-.1,.98-.31,1.34-.09,.14-.2,.29-.38,.2-.18-.09-.13-.28-.04-.42,.21-.33,.42-.65,.73-1.12Z" fill="#baa38a"/><path d="M27.54,48.29c.37-.06,.64,.24,.97,.33,.13,.04-.07,.14-.16,.18-.6,0-.91,.29-1.09,1.11-.08,.35-.19,.73,0,1.09,.15,.29,.14,.56-.14,.72-.3,.18-.57,.04-.77-.23-.07-.09-.11-.21-.16-.31-.1-.62-.11-1.19,.64-1.44,.14-.04,.29-.21,.23-.31-.3-.52,.23-.75,.35-1.12,.05-.01,.1-.02,.15-.03Z" fill="#f7f7f7"/><path d="M27.87,51.04c-.02,.12-.07,.24-.22,.22-.13-.01-.13-.14-.13-.23,0-.12,.05-.25,.21-.23,.12,.02,.13,.13,.14,.24Z" fill="#f2f8f8"/><path d="M25.61,54.32c.16-.2,.32-.4,.47-.61,.26-.02,.49,0,.63,.29,.15,.31-.07,.33-.24,.48-.18,.14-.1,.43-.03,.66-.66,.1-.82-.06-.83-.82Z" fill="#f0f8f9"/><path d="M27.04,55.75c-.21,.11-.43,.23-.63,0-.15-.16-.14-.35,.03-.51,.32,.02,.67,.01,.6,.5Z" fill="#f0f8f9"/><path d="M12.18,61.01c0,.15-.04,.28-.2,.32-.12,.03-.16-.08-.16-.18,0-.15,.05-.29,.2-.32,.12-.03,.16,.08,.16,.19Z" fill="#d2b497"/></svg>