<?xml version="1.0" encoding="UTF-8"?><svg id="Layer_1" xmlns="http://www.w3.org/2000/svg" viewBox="0 0 66.64 77.16"><path d="M54.02,11.07c1.54,.42,3.17,.19,4.7,.7,1.9,.63,3.27,1.78,3.72,3.82,.35,1.6-.36,3.19-1.81,3.91-.36,.18-.28,.28-.07,.49,.87,.91,1.16,2.04,1.11,3.25-.04,1.08,.13,2.09,.54,3.08,.47,1.15,.66,2.34,.2,3.54-.38,.98-1.04,1.64-2.11,1.82-.74,.13-1.24-.12-1.58-.77-.1-.19-.19-.4-.25-.6-.26-.94-.8-1.57-1.8-1.77-.5-.1-.82-.48-1.04-.92-.12-.23-.23-.31-.42-.06-.08,.11-.18,.22-.29,.3-.47,.36-.8,.69-.25,1.29,.3,.32,.24,.83,.21,1.27-.09,1.18-.03,2.31,.54,3.42,.58,1.13,.5,2.36-.15,3.49-.46,.8-1.18,1.17-2.11,1.05-.66-.08-1.19-.47-1.26-1.1-.11-.9-.66-1.34-1.37-1.79-.1,.39-.13,.8-.3,1.14-.69,1.44-1.49,2.81-2.04,4.33-.35,.95-1.3,1.29-2.35,1.14-.89-.12-1.43-.89-1.24-1.77,.03-.14,.04-.28,.08-.41,.15-.57,.54-1.08,.57-1.68,.03-.61-.34-1.14-.38-1.77-.87,.34-1.71,.69-2.57,.96-1.33,.41-2.65,.47-3.98,0-.15-.05-.33-.19-.49,0-.37,.13-.71-.11-1.07-.1-.39-.08-.78-.19-1.15,.07-.49,.22-1.02,.36-1.5,.61-1.34,.6-1.6,1.01-1.56,2.4,0,.12,.01,.24,0,.36-.02,1.12-.73,1.62-1.81,1.26-.42-.14-.79-.37-1.11-.68-.13-.12-.22-.21-.37-.02-1.26,1.61-3.9,.73-4.52-1.68-.15-.59-.12-1.19-.13-1.78,0-.57-.13-1.11-.47-1.57-.61-.82-.73-1.72-.37-2.65,.22-.56,.11-.91-.36-1.29-.36-.29-.45-.3-.86,0-.9,.68-1.09,1.55-1.2,2.58-.13,1.24-1.4,1.94-2.66,1.55-1.41-.43-2.11-1.51-2.45-2.85-.32-1.27-.11-2.52,.31-3.75,.2-.6,.45-1.19,.4-1.85-.09-1.21,.06-2.38,.85-3.44-.64,0-.98,.31-1.23,.78-.33,.62-.67,1.23-1.02,1.83-.42,.73-1.09,1.03-1.9,1.05-1.77,.04-3.31-1.48-3.44-3.24-.22-3,1.91-5.86,4.8-6.93,.9-.33,1.75-.76,2.54-1.3,1.24-.86,2.57-1.14,4-.52,.26,.11,.33-.04,.41-.2,.29-.57,.56-1.14,.87-1.76-.87-.11-1.41-.66-1.87-1.29-.41-.56-.95-.81-1.65-.8-.52,0-1.03,.02-1.55-.09-1.64-.35-2.44-1.81-1.76-3.34,.69-1.55,2.01-2.25,3.6-2.55,.68-.13,1.38-.24,2.08-.04,.34,.1,.29-.15,.3-.34,0-.68,.13-1.33,.46-1.95,.77-1.45,2.62-1.9,4.04-1.7,1.16,.16,2.22,.6,3.23,1.18,.77,.44,1.56,.77,2.43,.95,1.78,.37,2.38,1.78,2.78,3.31,.09,.35,.18,.38,.55,.43,1.29,.2,1.85-.39,2.23-1.53,.32-.97,1.07-1.66,2.01-2.12,.67-.33,1.26-.77,1.77-1.31,1.39-1.46,3.06-2.39,5.06-2.72,1.55-.25,4.03,.69,4.51,2.72,.16,.68-.04,1.22-.49,1.69-.43,.46-.96,.78-1.49,1.1-.43-.29-.23-.71-.23-1.09,.08-.31,.35-.45,.58-.64,.37-.31,.55-.66,.31-1.13-.05-.1-.1-.19-.18-.28-.92-.98-2.01-1.35-3.35-1.04-1.36,.32-2.53,.97-3.51,1.94-.77,.76-1.57,1.46-2.56,1.93-.32,.15-.61,.38-.81,.69-.33,.38-.55,.82-.75,1.27-.15,.32-.06,.46,.28,.53,.74,.15,1.49,.23,2.23,.37,.95,.25,1.82,.71,2.74,1.03q.61,.21,.82-.41c.03-.08-.02,0,.02-.06,.8-1.19,1.41-2.53,2.57-3.45,.2-.16,.42-.42,.73-.14,.18,.46,.02,.89-.09,1.32-.29,.32-.54,.67-.69,1.09-.12,.34-.39,.6-.64,.85-.21,.21-.41,.43-.54,.71-.21,.48-.14,.6,.38,.75,.46,.13,1.01,.04,1.37,.48,.1,.37,.13,.73-.04,1.09-.18,.16-.38,.08-.57,.04-1.74-.33-3.46-.75-5.11-1.44-1.9-.79-3.92-1-5.96-1.05-.51-.01-.99,.12-1.45,.31-1.82,1.19-3.94,1.5-5.97,2.07-1.7,.48-3.14,1.36-4.3,2.71-.22,.26-.43,.54-.55,.85-.46,1.24-1.25,2.27-2.04,3.3-.75,.97-1.24,2.05-1.36,3.28-.15,1.48-.12,2.9,.9,4.15,.49,.6,.76,1.36,.96,2.12,.75,2.82,2.77,4.39,5.31,5.45,.69,.29,1.44,.37,2.18,.37,1.07,0,2.03,.29,2.84,.95,.74,.59,1.57,.96,2.47,.94,1.6-.05,3.13,.23,4.64,.69,.23,.07,.47,.08,.71,.07,1.11-.09,2.15-.46,3.16-.9,2.09-.91,4.11-1.95,5.98-3.27,.52-.37,.9-.84,1.17-1.41,.37-.77,.77-1.53,1.31-2.21,.41-.51,.96-.84,1.43-1.27,.78-.73,1.55-1.43,1.74-2.57,.11-.68,.02-1.31-.21-1.94-.33-.9-.78-1.75-1.25-2.59-.14-.26-.36-.49-.27-.83,.32-.25,.37-.63,.48-.98,.25-.26,.4-.07,.5,.13,.7,1.47,1.59,2.85,2.07,4.43,.22,.98,.11,1.93-.18,2.88-.15,.48,.33,1.22,.96,1.39,1.17,.33,1.84,1.12,2.24,2.21,.36,.95,.69,1.01,1.41,.26,.09-.11,.18-.22,.24-.35,.05-.11,.09-.22,.1-.34,.24-.81,.05-1.6-.25-2.34-.46-1.15-.68-2.32-.63-3.56,.03-.68-.06-1.36-.47-1.94-.42-.86-1.27-1.3-1.95-1.89-.54-.46-1.14-.87-1.8-1.15-.46-.2-.94-.32-1.45-.3-.23,0-.48,.03-.68-.15-.09-.14-.1-.3-.1-.46-.01-.6,.12-.73,.71-.78,1.09-.09,2.02,.31,2.92,.85,.32,.19,.63,.42,.95,.62,.89,.54,1.57,.43,2.26-.36,.21-.27,.33-.57,.39-.9,.24-1.2-.44-2.58-1.64-3.32-.94-.58-1.97-.83-3.06-.89-.83-.05-1.67-.05-2.46-.38-.27-.39-.31-.79-.02-1.19Z" fill="#d48e23"/><path d="M35.9,77.16c-.24,0-.48,0-.72,0-1.72,0-3.44,0-5.16,0-.56,0-1.12,0-1.68,0-.52,0-1.04,0-1.56,0-2.93-.28-5.87-.42-8.75-1.08-.87-.2-1.73-.45-2.55-.84-.51-.25-.98-.55-1.23-1.08-.12-.24-.34-.28-.54-.32-.36-.08-.69-.21-1-.38-.9-.51-.92-1.45-.05-2,.74-.47,1.56-.7,2.43-.77,1.78-.15,3.57-.27,5.36-.39,1.8-.12,3.59-.06,5.39-.09,.03,.73-.26,1.04-.92,1.01-.46-.02-.92-.04-1.38,0-.2,.02-.42,.08-.43,.33-.01,.29,.22,.36,.45,.38,.44,.05,.88,0,1.32,.05,1.15,.15,2.21,.54,3.15,1.22,.43,.31,.8,.32,1.27,.08,2.33-1.17,4.66-1.13,6.93,.17,.45,.26,.83,.26,1.2-.08,1.02-.94,2.3-1.25,3.6-1.5,.1-.02,.2-.03,.3-.04,.26-.04,.58-.1,.56-.42-.02-.39-.39-.34-.66-.33-.58,.02-1.14,.17-1.7,.33-1.08,.33-1.57-.06-1.57-1.23,3.59,0,7.15,.26,10.69,.81,1.39,.22,2.81,.24,4.18,.63,.36,.1,.73,.21,1.07,.37,.78,.37,.83,1.16,.12,1.63-.77,.5-1.67,.62-2.55,.76-.53,.09-1.06,.15-1.6,.13-.22,0-.46,.05-.57,.26-.38,.72-1.08,1-1.78,1.22-1.35,.42-2.75,.6-4.15,.8-.68,.1-1.39,0-2.06,.21-.5,.14-1.02,.03-1.52,.07-.21,.02-.43-.06-.64,.06,0,0,0,0,0,0-.4,0-.8,0-1.19,.01-.68,0-1.36,0-2.04,0Z" opacity=".3"/><path d="M37.94,70.19s0,.04,0,.06c.2,.41,.3,.96,.63,1.19,.32,.22,.8-.19,1.22-.28,.53-.1,1.04-.25,1.58-.26,.38-.01,.72,.02,.75,.47,.03,.43-.29,.59-.66,.62-.62,.05-1.21,.2-1.8,.37-.77,.22-1.47,.56-2.09,1.1-.67,.58-.76,.53-1.52,.11-2.23-1.25-4.5-1.3-6.76-.1-.5,.27-.85,.26-1.3-.07-1.15-.84-2.45-1.3-3.89-1.28-.22,0-.44,0-.66,0-.35,0-.6-.19-.61-.53,0-.35,.26-.53,.59-.54,.48-.02,.97-.06,1.43,.02,.43,.08,.64-.03,.75-.43,.04-.15,.13-.29,.2-.43,1.14-1.72,2.7-3.02,4.31-4.26,1.77-1.36,3.1-3.08,4.23-5.08-.87-.12-1.67-.17-2.26,.56-.93,1.14-2.12,1.41-3.48,1.08-1.39-.34-2.64-.1-3.72,.86-.91,.82-2.01,1.11-3.18,1.17-1.25,.07-2.34,.56-3.37,1.22-.3,.19-.59,.37-.94,.19-.36-.18-.35-.53-.36-.88-.03-.95,.36-1.75,.94-2.45,.94-1.12,1.59-2.32,1.79-3.81,.29-2.18,1.82-3.34,3.73-4.08,1.65-.64,3.34-.67,5.01-.09,1.64,.57,3.29,.98,5.04,1.07,.75,.04,1.45,.36,2.08,.99,.07-.69-.13-1.24-.28-1.8-.47-1.77-1.3-3.39-2.05-5.05-.71-1.55-1.39-3.14-1.35-4.88,.03-1.48,.62-2.84,1.13-4.22,.33-.91,.82-1.76,1.02-2.71,.33-.54,.95-.47,1.43-.69,.22,.28,.04,.53-.05,.79-.46,1.34-.99,2.65-1.57,3.94-1.07,2.4-.72,4.66,.37,6.9,.38,.79,.71,1.61,1.12,2.38,.41,1,.85,1.99,1.13,3.03,.28,1,.51,2.01,.41,3.07-.03,.29,.16,.43,.33,.6,.33,.33,.42,.68,.02,1.03-.85,.39-1.38-.2-1.95-.64-.19-.14-.32-.35-.44-.56-.35-.66-.96-.91-1.64-.94-1.76-.07-3.44-.52-5.08-1.1-2.02-.71-3.86-.33-5.6,.77-.84,.53-1.39,1.31-1.56,2.32-.21,1.21-.45,2.4-1.23,3.4-.44,.53-.88,1.07-1.18,1.73,1.29-.64,2.67-.77,4.05-.96,.6-.09,1.06-.44,1.52-.8,.79-.61,1.65-1.03,2.64-1.21,.69-.12,1.36,0,2.01,.15,1,.22,1.8-.02,2.47-.79,.77-.88,1.8-1.05,2.89-.93,.68,.07,1.33,.24,1.97,.5,.42,.17,.66,.44,.58,.92-.04,.25-.2,.39-.42,.46-.7-.17-1.01,.24-1.32,.79-1.21,2.14-2.9,3.84-4.85,5.31-.16,.12-.31,.25-.45,.39-.96,.83-1.94,1.65-2.64,2.74-.39,.61-.34,.58,.27,.95,.89,.54,1.67,.63,2.71,.22,2.1-.84,4.23-.57,6.24,.46,.39,.2,.67,.15,.95-.15,.2-.31-.05-.54-.16-.77-.7-1.35-1.32-2.73-1.78-4.19-.41-1.31-.36-2.51,.36-3.73,.99-1.68,1.98-3.39,2.64-5.24,.35-.99,.59-1.99,.34-3.05-.04-.16-.06-.32-.21-.41-.52-.56-.48-1.03,.19-1.38,1.16-.61,2.36-.88,3.6-.19,.45,.25,.92,.37,1.43,.33,.75-.05,1.36,.25,1.88,.76,.44,.43,.9,.85,1.29,1.34,.29,.36,.69,.53,1.11,.68,.42,.14,.84,.24,1.28,.32,1.35,.24,2.66,.56,3.72,1.52-.1-.51-.36-.91-.73-1.24-.25-.23-.51-.45-.71-.73-.05-.08-.11-.17-.18-.24-.86-.79-1.09-1.78-.88-2.88,.09-.49-.05-.82-.39-1.17-.73-.75-1.59-1.25-2.61-1.46-.25-.09-.51-.09-.77-.06-.72,.2-1.28,.68-1.92,1.04-1.25,.58-2.54,.9-3.93,.55-.42-.1-.83-.04-1.22,.16-.51,.27-1.01,.56-1.51,.85-.3,.17-.61,.3-.97,.22-.63-.38-.64-.64-.04-1.32,.19-.23,0-.42-.08-.6-.67-1.58-1.28-3.18-1.81-4.81-.47-1.45-.67-2.89-.27-4.4,.34-1.27,.65-2.54,1.2-3.75,.22-.35,.29-.79,.63-1.08,.39-.05,.74,.13,1.09,.25-.59,1.34-1.1,2.7-1.5,4.11-.45,1.54-.44,3.04,.06,4.55,.54,1.61,1.15,3.2,1.81,4.77,.14,.33,.28,.41,.6,.21,.79-.5,1.6-.55,2.55-.38,1.16,.22,2.32-.06,3.33-.78,.7-.5,1.45-.94,2.36-.86,1.96,.16,3.43,1.15,4.56,2.71,.26,.36,.17,.82,.08,1.22-.21,.86-.04,1.56,.65,2.15,.56,.48,1.03,1.05,1.45,1.67,.59,.86,.6,1.79,.28,2.73-.22,.64-.78,.8-1.19,.29-1.1-1.39-2.61-1.88-4.26-2.13-1.31-.2-2.41-.76-3.21-1.86-.58-.81-1.32-1.3-2.39-1.16-.51,.07-.97-.19-1.39-.45-.52-.31-1.05-.31-1.61-.14-.21,.06-.33,.14-.26,.37,.61,2.06-.08,3.92-.95,5.73-.65,1.36-1.39,2.68-2.14,3.99-.42,.74-.54,1.48-.29,2.28,.4,1.29,.82,2.57,1.56,3.71Z" fill="#294e16"/><path d="M57.25,72.85c-2.17,.02-3.49-1.16-4.63-2.61-.63-.8-1.15-1.66-1.27-2.72-.2-1.78,1.06-2.89,2.48-3.21,1.08-.24,2.06,.01,2.97,.56,.83,.5,1.7,.75,2.67,.65,1.25-.13,2.35,.22,3.34,1.02,.76,.62,1.65,.85,2.63,.77,.38-.03,.72,.03,.91,.41,.19,.36,0,.64-.18,.94-.53,.84-1.35,1.28-2.22,1.63-.54,.22-1.04,.48-1.43,.93-.46,.53-1.09,.74-1.77,.73-.54,0-1.01,.13-1.48,.37-.68,.36-1.4,.58-2.02,.52Z" fill="#c87b0a"/><path d="M.13,43.11c-.06-1.56,.31-2.66,1.06-3.61,.84-1.06,1.44-2.23,1.84-3.52,.4-1.27,1.16-2.26,2.33-2.91,.46-.25,.95-.5,1.45-.17,.49,.32,.45,.83,.34,1.34-.3,1.32-.12,2.61,.39,3.85,.58,1.41,.42,2.64-.76,3.67-.3,.27-.41,.61-.39,1.02,.02,.46,.05,.93-.03,1.37-.28,1.56-1.69,2.44-3.25,2.07-1.84-.45-2.89-1.66-2.97-3.12Z" fill="#c87b0a"/><path d="M47.63,11.72c0-.38,0-.76,0-1.14-.13-.16-.19-.36-.16-.56,.13-.87,.08-1.74,.09-2.61,0-.22,.06-.43,.18-.62,.06-.46,.15-.91,.11-1.38-.21-.29-.14-.62-.15-.95,0-.28-.01-.56,.11-.82,.13-.28,.32-.53,.67-.49,.36,.03,.57,.25,.62,.62,.01,.1,.02,.2,.02,.3,.02,.22-.06,.42-.15,.62,0,.41-.13,.83,.08,1.23-.15,.74-.22,1.48-.22,2.23,0,.93,.04,1.86-.1,2.79,.25,.36,.14,.78,.16,1.17,0,.29,.02,.59,0,.88-.03,.89-.15,1.78-.12,2.68,0,.12-.02,.24-.07,.35-.15,.33-.38,.58-.77,.53-.37-.05-.54-.33-.56-.67-.04-.91-.07-1.83,.02-2.74,.02-.22,.05-.43,.07-.65,.02-.26-.04-.54,.17-.77Z" fill="#c5dff4"/><path d="M50.52,11.43c.04-1.61,.09-3.22,.13-4.84,0-.08,0-.16,0-.24,.06-.31,.15-.6,.55-.58,.41,.02,.52,.28,.53,.65,.04,1.47-.07,2.94-.11,4.42,.26,.35,.13,.76,.16,1.15,.07,.53-.16,1.03-.12,1.56,0,.47,0,.95,.04,1.42-.07,.67-.04,1.34-.13,2-.07,.43-.25,.77-.75,.77-.36,0-.66-.38-.69-.91-.06-.85,.17-1.69,.1-2.55,.02-.36-.02-.71,0-1.07,.01-.61,0-1.22,.29-1.79Z" fill="#c5dff4"/><path d="M54.03,18.6c-.02,.4,.06,.85-.5,.97-.48,.12-.64-.21-.73-.56-.08-.3-.09-.63-.08-.94,.07-.98,0-1.95,.02-2.93,0-1.01,.02-2.02-.03-3.02-.01-.14,.02-.28,.03-.42,.04-.33-.07-.68,.17-.98,0-.12,0-.24,.02-.36,.04-.33,.23-.6,.56-.6,.36,0,.56,.26,.53,.65-.02,.22,0,.44,.01,.66,.05,.38-.11,.79,.12,1.15,.03,.17,.04,.35,.03,.52,.02,.88,.02,1.76,0,2.63,.1,.83-.19,1.64-.12,2.47,.12,.26,.1,.51-.04,.76Z" fill="#c5dff4"/><path d="M50.52,11.43c-.04,.59-.08,1.18-.11,1.77-.65-.21-1.11-.71-1.66-1.08,0-.39,0-.78,0-1.17,.41,.08,.78,.27,1.13,.49,.24,.15,.43,.14,.64-.01Z" fill="#d48f25"/><path d="M52.92,10.72c0,.36,0,.71,0,1.07-.19,.11-.39,.15-.6,.21-.24,.03-.47,.19-.71,0,0-.39,0-.77,0-1.16,.43-.04,.85-.22,1.29-.12Z" fill="#d58f25"/><path d="M50.4,14.3c.08,.88-.13,1.74-.1,2.61,.01,.31,.12,.6,.45,.7,.23,.07,.42-.07,.56-.25,.1-.13,0-.33,.17-.42,.25,.14,.33,.4,.39,.65,.27,1.09,.81,2.02,1.44,2.94,.8,1.17,1.3,2.46,1.34,3.91,.03,1.21-.47,2.2-1.12,3.15-.75,.7-1.6,1.31-2.07,2.27-.03,.05-.07,.1-.09,.15-.59,1.75-1.9,2.79-3.45,3.62-1.93,1.04-3.83,2.14-5.95,2.77-.5,.15-1,.24-1.51,.31-.82-.66-1.81-.92-2.81-1.11-1.28-.25-2.55-.57-3.74-1.05-1.24-.5-2.34-1.29-3.28-2.26-.81-.84-1.49-1.76-1.97-2.84-.25-.56-.71-1.01-1.15-1.45-1.23-1.23-1.8-2.72-1.86-4.46-.07-2.18,.36-4.21,1.54-6.05,.26-.41,.48-.88,.96-1.11,.46,.03,.69,.38,.9,.71,.19,.28-.03,.49-.24,.65-.5,.4-.94,.87-1.38,1.33-.45,.47-.48,.98-.1,1.39,.34,.36,.88,.38,1.36,0,.51-.39,.91-.9,1.38-1.33,.48-.44,.65-.43,1.11,0,.38,.35,.71,.77,1.13,1.07,.48,.35,.99,.36,1.33,.06,.38-.34,.4-.91,.02-1.34-.37-.42-.78-.8-1.18-1.2-.32-.33-.32-.61,.05-.9,.63-.49,1.16-1.09,1.72-1.67,.44-.45,.47-.96,.12-1.34-.31-.35-.83-.39-1.31-.07-.62,.42-1.08,1-1.61,1.52-.74,.71-1.19,.61-1.59-.39,.2-.35,.57-.5,.88-.7,1.5-.95,2.59-2.24,3.27-3.87,.13-.32,.32-.6,.56-.84,.46-.25,.94-.39,1.47-.33,1.05,.33,2.14,.47,3.23,.65,.57,.1,1.16,.18,1.68,.44,1.88,.94,3.9,1.4,5.93,1.86,.28,.06,.61,.06,.76,.4-.14,1.07-.09,2.15-.11,3.22,0,.35,.05,.69,.46,.7,.44,.02,.63-.3,.62-.71-.02-.92,.06-1.83,.13-2.74,.74-.01,1.09,.56,1.51,1.02,.08,.08,.09,.21,.16,.31Z" fill="#f9bb74"/><path d="M34.57,9.49c-.91,2.38-2.39,4.26-4.71,5.41-.31,.02-.44-.23-.63-.4-.22-.2-.43-.42-.7-.55-.43-.2-.97-.11-1.2,.23-.27,.39-.22,.79,.06,1.16,.15,.21,.36,.37,.53,.56,.14,.16,.35,.28,.3,.55-.8,.75-1.31,1.68-1.71,2.69-.78,2-.95,4.05-.46,6.14,.22,.95,.7,1.78,1.4,2.46,.69,.67,1.26,1.42,1.69,2.29,.62,1.27,1.6,2.24,2.7,3.12,1.81,1.45,3.99,1.87,6.16,2.37,.44,.1,.89,.22,1.32,.37,.45,.16,.9,.34,1.13,.82-.71,.02-1.4-.1-2.03-.38-.62-.28-1.25-.35-1.92-.34-.65,.01-1.31,.02-1.97-.09-.69-.11-1.3-.34-1.84-.77-.89-.71-1.88-1.06-3.03-1.06-1.87,0-3.44-.84-4.9-1.94-1.45-1.1-2.29-2.56-2.76-4.28-.21-.77-.57-1.48-1.06-2.12-.92-1.19-.81-2.58-.7-3.96,.14-1.72,1.13-3.03,2.13-4.32,.45-.58,.82-1.21,1.11-1.9,.59-1.42,1.7-2.38,3-3.14,1.31-.77,2.77-1.09,4.23-1.43,1.25-.29,2.45-.68,3.54-1.37,.1-.06,.22-.08,.33-.12Z" fill="#dba364"/><path d="M11.91,26.41c-.82-1.01-.75-2.15-.39-3.28,.63-2.02,2.09-3.26,3.99-4.01,.91-.36,1.78-.79,2.59-1.34,.79-.53,1.63-.92,2.64-.62,.33,.1,.34,.22,.16,.44-.83,1.05-1.39,2.22-1.67,3.53-.22,.28-.55,.31-.86,.37-1.37,.26-2.42,.92-3.14,2.16-.57,.98-1.3,1.88-2.43,2.3-.31,.12-.48,.5-.87,.46Z" fill="#f9bb74"/><path d="M49.01,4.07c-.02-.39-.08-.82-.59-.78-.42,.04-.52,.42-.53,.81,0,.12-.01,.24-.02,.35-.91,.73-1.53,1.79-2.61,2.35-.31,.16-.61,.39-.84,.67-.66,.81-1.54,1.09-2.55,1.09-.27,0-.56-.04-.83,.07-.93-.18-1.89-.24-2.84-.53,.27-.69,.44-1.42,1.08-1.88,.45-.49,1.07-.75,1.64-1.05,1.32-.7,2.53-1.57,3.8-2.36,1.09-.68,2.29-1.01,3.6-.68,.49,.13,.93,.34,1.35,.62,.1,.05,.12,.14,.13,.24-.16,.43-.43,.78-.8,1.06Z" fill="#f9bb74"/><path d="M54.03,18.6c0-.24,0-.48,0-.71,.03-.06,.07-.06,.11,0,1.8-.22,3.08,.77,4.36,1.81,.31,.25,.59,.53,.92,.75,.3,.2,.49,.45,.59,.78,.3,.7,.39,1.43,.21,2.16-.29,1.21-.03,2.31,.51,3.39,.35,.71,.72,1.42,.68,2.25-.04,.2-.14,.4-.08,.61-.03,.13-.12,.2-.23,.26-.19-.11-.23-.31-.3-.5-.53-1.35-1.4-2.46-2.52-3.34-.89-.7-1.44-1.57-1.74-2.63-.03-.1-.06-.19-.12-.27-.54-1.52-1.37-2.9-2.06-4.35-.05-.11-.06-.36-.31-.21Z" fill="#f9bb74"/><path d="M23.53,4.33c.91-1.21,2.16-1.2,3.45-.89,.77,.18,1.5,.51,2.19,.93,.75,.46,1.54,.85,2.42,.98,1.16,.18,1.76,.9,2.08,1.95,.05,.15,.09,.3,.15,.45,.24,.56,.11,.93-.5,1.13-.39,.13-.72,.42-1.14,.5-.48-.58-.94-1.16-1.62-1.55-.99-.57-2.04-.87-3.17-.93-1.03-.05-2.02-.25-2.87-.88-.56-.41-.99-.92-.99-1.68Z" fill="#f9bb74"/><path d="M16.84,9.84c.42-1.45,1.48-2.28,2.99-2.53,1.62-.27,3.04,.13,4.36,1.01,1.08,.73,2.27,.91,3.53,.92,.48,0,.91,.07,1.22,.48-.1,.12-.23,.14-.37,.16-.88,.13-1.69,.45-2.47,.85-.48,.25-.96,.49-1.48,.62-.61,.16-1.18,.13-1.71-.26-1-.74-2.12-1.06-3.37-.97-.76,.06-1.51-.06-2.26-.13-.16-.01-.32-.04-.43-.17Z" fill="#f9bb74"/><path d="M19.21,35.52c-.99-.16-1.46-.88-1.79-1.72-.4-1.03-.34-2.09,.03-3.09,.43-1.16,.64-2.33,.58-3.56-.04-.84,.38-1.53,.89-2.16,.16-.2,.34-.33,.43,.06,.13,.58,.48,1.05,.82,1.51,.46,.6,.72,1.28,.86,2.01,.14,.81-.04,1.53-.52,2.19-.7,.98-1.28,2-1.43,3.24-.06,.53,.21,1.01,.13,1.52Z" fill="#f9bb74"/><path d="M54.05,15.39c0-.92-.02-1.85-.03-2.77,.06-.06,.14-.1,.22-.07,.94,.39,1.96,.32,2.94,.47,1.65,.25,2.84,1.19,3.74,2.54,.27,.4,.44,.85,.4,1.35,.03,.34-.14,.61-.34,.86-1.09,.29-2.04,.09-2.88-.69-.52-.48-1.2-.61-1.88-.71-.54-.08-1.06-.2-1.55-.45-.25-.13-.51-.25-.61-.54Z" fill="#f9bb74"/><path d="M16.84,9.84c1.42,.19,2.86,.03,4.28,.24,.57,.08,1.1,.32,1.51,.66,.94,.8,1.87,.6,2.83,.12,.75-.37,1.49-.75,2.3-.98,.39-.11,.77-.18,1.17-.16,.14,.11,.27,.23,.47,.4-.81,.32-1.62,.42-2.35,.76-1.11,.52-2.17,1.09-3.03,1.99-.53,.56-1.06,.58-1.66,.07-.17-.14-.34-.29-.46-.47-.7-1.04-1.7-1.38-2.9-1.31-.52,.03-1.05,0-1.51-.26-.4-.23-.64-.59-.67-1.07Z" fill="#dba364"/><path d="M23.53,4.33c.67,1.89,2.23,2.29,3.98,2.41,1.74,.12,3.3,.67,4.43,2.09,.12,.16,.22,.33,.24,.54-.4,.28-.89,.32-1.34,.46-.22,.07-.35-.07-.49-.25-.72-.97-1.64-1.5-2.91-1.42-.95,.06-1.84-.24-2.66-.75-.31-.19-.62-.36-.94-.53-.71-.36-.94-.85-.7-1.63,.1-.32,.14-.67,.38-.93Z" fill="#dba364"/><path d="M11.91,26.41c.28-.16,.45-.45,.76-.56,1.1-.38,1.82-1.23,2.36-2.17,.77-1.35,1.88-2.1,3.38-2.33,.27-.04,.53-.14,.8-.21-.04,.53-.16,1.06-.12,1.6,.01,.14-.02,.28-.2,.32-.55,.11-.98,.49-1.56,.55-.89,.09-1.45,.68-1.85,1.43-.22,.4-.41,.82-.62,1.22-.49,.95-.94,1.13-1.98,.79-.39-.12-.72-.31-.98-.63Z" fill="#dba364"/><path d="M56.41,23.17c.39,.23,.41,.68,.55,1.03,.26,.68,.71,1.17,1.26,1.62,1.32,1.1,2.4,2.38,2.87,4.08-.13,.48-.55,.59-.95,.7-.31,.08-.47-.13-.57-.4-.13-.33-.25-.67-.39-1-.35-.82-.95-1.4-1.82-1.56-.71-.13-.83-.79-1.26-1.17-.04-.04-.05-.16-.02-.22,.46-.99,.46-2.03,.33-3.08Z" fill="#dba364"/><path d="M27.62,41.05c-.92,.08-1.86-.98-1.92-2.27-.03-.55,.03-1.11-.07-1.67-.09-.51-.29-.95-.55-1.37-.53-.88-.55-1.1-.14-2.08,.69,.36,1.35,.77,2.07,1.05,.27,.4,.31,.85,.24,1.32-.11,.75-.08,1.52-.04,2.27,.03,.56,.24,1.09,.49,1.59,.2,.4,.26,.8-.08,1.16Z" fill="#f9bb73"/><path d="M54.48,34.56c.38,.86,.21,1.65-.3,2.4-.15,.21-.37,.36-.65,.36-.06-1.01-.68-1.72-1.24-2.49-.7-.95-.93-2.01-.46-3.15,.31-.67,.51-1.4,1.09-1.91,.54,.14,.48,.6,.52,.99,.04,.39-.08,.78-.03,1.18,.12,.98,.6,1.79,1.08,2.62Z" fill="#f9bb74"/><path d="M53.53,27.59c.06-.19,.09-.4,.19-.56,1.38-2.16,.85-4.25-.4-6.18-.8-1.24-1.42-2.52-1.85-3.92-.07-.65-.02-1.3,.09-1.94,.06,.01,.13,.02,.16,.07,.5,.97,1.01,1.95,1.09,3.07,.11,.2,.12,.41,.11,.63-.02,.43,.18,.71,.6,.81,.47,.96,.96,1.91,1.41,2.87,.46,.98,.64,1.99,.26,3.05-.32,.9-.92,1.56-1.68,2.09Z" fill="#fefefe"/><path d="M47.28,35.28c.7-.41,1.39-.82,2.15-1.27,.09,1.22-.03,2.34-.74,3.29-.53,.72-.9,1.47-1.09,2.35-.14,.66-.4,1.32-1.26,1.39-.1-.26,.06-.46,.15-.68,.32-.77,.44-1.55,.33-2.4-.12-.93-.2-1.88,.47-2.69Z" fill="#f9bb73"/><path d="M19.21,35.52c-.57-1.08-.25-2.12,.15-3.14,.19-.48,.44-.94,.78-1.33,.62-.72,.78-1.58,.88-2.48,.33,.78,.6,1.59,1.04,2.32,.24,.39-.15,.71-.35,.84-1.13,.67-1.31,1.74-1.43,2.89-.06,.67-.36,.88-1.08,.91Z" fill="#dba364"/><path d="M36.73,37.21c-.16,.36-.31,.72-.47,1.08-.39,.16-.52,.52-.68,.86-.21,.45-.3,.95-.59,1.36-1.12,2.31-1.15,4.69-.52,7.13,.26,1.01,.61,1.99,.84,3,.05,.24,.19,.5-.03,.74-1.02-1.85-1.91-3.77-2.25-5.88-.17-1.04,.24-2.05,.59-3.02,.55-1.51,1.17-3,1.75-4.51,.08-.2,.1-.42,.15-.63,.35-.47,.79-.2,1.2-.13Z" fill="#497131"/><path d="M30.38,40.56c-.44-.53-.73-1.14-1.04-1.74-.28-.54-.32-1.09-.03-1.65,.25-.47,.23-1,.31-1.51,.08-.52,.34-.55,.75-.45,.79,.2,1.47,.58,2.06,1.14,.05,.2-.11,.29-.22,.39-.99,.88-1.47,2-1.56,3.32-.01,.19,.07,.46-.26,.5Z" fill="#f9bb73"/><path d="M41.05,8.64c.54-.41,1.2-.15,1.79-.32,.44-.13,.82-.28,1.13-.61,.48-.51,1.01-.95,1.63-1.29,.37-.2,.65-.5,.91-.84,.35-.48,.79-.88,1.36-1.12,0,.32,0,.65,0,.97-.74,.34-1.39,.78-1.66,1.59-.13,.37-.35,.66-.64,.91-.51,.43-.8,1-.89,1.64-.05,.39-.21,.35-.45,.26-.89-.34-1.77-.69-2.66-1.03-.16-.06-.34-.1-.51-.15Z" fill="#dba364"/><path d="M47.63,12.5c-.74-.2-1.48-.46-2.24-.59-1.3-.23-2.54-.61-3.72-1.21-1.41-.71-2.98-.78-4.49-1.09-.41-.08-.81-.2-1.14-.46,1.31-.16,2.56,.26,3.84,.39,.83,.08,1.59,.34,2.33,.68,1.73,.8,3.59,1.09,5.42,1.5,0,.26,0,.52,0,.78Z" fill="#fefefd"/><path d="M27.62,41.05c.17-.51,.02-.95-.22-1.41-.57-1.12-.44-2.34-.32-3.52,.05-.5-.12-.94-.06-1.41,.38,.11,.76,.28,1.14,.32,.46,.05,.44,.26,.38,.6-.1,.55-.19,1.08-.41,1.61-.32,.78-.05,1.51,.31,2.23,.42,.83,.1,1.42-.82,1.59Z" fill="#dba364"/><path d="M49.68,2.77c-.51-.02-.91-.37-1.39-.48-1.31-.29-2.52,0-3.57,.74-1.72,1.22-3.58,2.2-5.43,3.21-.03-.25,.17-.36,.34-.45,1.42-.7,2.5-1.83,3.68-2.83,1.01-.85,2.22-1.36,3.52-1.48,1.14-.1,2.15,.31,2.85,1.28Z" fill="#fefefd"/><path d="M54.05,15.39c.71,.5,1.5,.76,2.37,.86,.82,.09,1.54,.45,2.17,1,.5,.44,1.07,.68,1.75,.43,.22-.08,.43-.02,.63,.1-.53,.9-1.49,1.13-2.4,.55-.84-.53-1.63-1.13-2.61-1.41-.51-.15-1.03-.08-1.54-.1-.2,0-.29,.1-.29,.29,0,.26,0,.52,0,.78-.04,0-.07,0-.11,0,0-.84,.01-1.67,.02-2.51Z" fill="#dba364"/><path d="M61.31,16.91c-.45-1.6-1.49-2.67-2.95-3.39-.53-.26-1.1-.39-1.67-.4-.93-.01-1.81-.15-2.67-.5-.01-.15-.02-.29,.12-.39,1.32,.3,2.7,.15,4,.52,1.63,.46,2.85,1.38,3.25,3.13,.08,.35,.12,.71-.08,1.04Z" fill="#fefefd"/><path d="M30.38,40.56c.21-.52,.12-1.08,.27-1.61,.3-1.07,.91-1.92,1.78-2.59,.35,.13,.89,.22,.95,.52,.07,.33-.41,.57-.73,.77-.89,.57-1.29,1.36-1.2,2.42,.02,.31,.22,.76-.15,.93-.35,.16-.64-.2-.91-.43Z" fill="#dba364"/><path d="M47.28,35.28c-.37,1.01-.42,2.03-.25,3.1,.14,.95-.23,1.84-.69,2.66-.66-.04-.75-.14-.6-.73,.07-.29,.18-.57,.3-.84,.3-.7,.44-1.42,.15-2.14-.47-1.13-.25-1.54,1.1-2.05Z" fill="#dba364"/><path d="M61.3,29.16c-.04-.83-.35-1.59-.73-2.31-.62-1.17-.85-2.37-.49-3.67,.18-.64-.1-1.3-.09-1.95,.51,.38,.57,.99,.54,1.5-.08,1.66,.28,3.21,.88,4.74,.24,.61,.22,1.28,0,1.92-.21,0-.14-.12-.11-.23Z" fill="#fefdfc"/><path d="M51.83,31.67c.1,.61-.21,1.19-.02,1.82,.25,.81,.73,1.45,1.23,2.08,.42,.52,.67,1.06,.48,1.74-.48,.05-.66-.29-.7-.65-.08-.69-.36-1.21-.97-1.54-.41-.23-.52-.64-.71-1.04-.34-.76-.25-1.36,.33-1.93,.14-.14,.23-.32,.34-.48Z" fill="#dba364"/><path d="M54.48,34.56c-.87-.98-1.38-2.08-1.22-3.43,.06-.49,.08-.99-.35-1.37,.1-.21,.19-.5,.47-.42,.24,.07,.4,.32,.39,.61,0,.57,0,1.15-.04,1.72-.05,.8,.15,1.52,.51,2.22,.11,.21,.25,.41,.23,.66Z" fill="#fefdfc"/><path d="M49.01,4.07c.18-.42,.45-.77,.8-1.06,.38,.48,.2,.87-.21,1.22-.2,.16-.41,.31-.61,.46,0-.21,.01-.42,.02-.62Z" fill="#dba465"/><path d="M61.3,29.16c.04,.08,.07,.16,.11,.23-.03,.08-.07,.17-.1,.25-.2-.16-.13-.32-.01-.49Z" fill="#f8dec2"/><path d="M37.34,72.25c-.36,.44-.7,.38-1.21,.13-2.29-1.14-4.62-1.17-6.94-.08-.35,.17-.61,.17-.93-.06-.39-.28-.82-.5-1.28-.62-.47-.12-.47-.34-.26-.72,.61-1.08,1.52-1.88,2.41-2.71,.16-.15,.35-.26,.52-.39,1.47-.94,2.96-1.85,4.18-3.12,.19-.2,.37-.41,.56-.62,.12-.13,.23-.37,.47-.17,.06,.14,.03,.28,0,.41-.39,1.45-.05,2.8,.56,4.12,.52,1.12,1.17,2.18,1.71,3.29,.09,.18,.22,.34,.2,.55Z" fill="#57803b"/><path d="M19.69,62.28c.71-1.02,1-2.2,1.19-3.4,.16-1.07,.75-1.86,1.6-2.4,1.74-1.09,3.59-1.53,5.63-.83,1.69,.58,3.4,1.07,5.22,1.13,.72,.02,1.42,.28,1.73,1.06-.28,.24-.6,.17-.92,.13-.46-.05-.92-.11-1.36-.23-1.66-.42-3.2,0-4.72,.61-.22,.09-.44,.18-.59,.25,.91-.3,1.91-.37,2.93-.32,.14,0,.28,.03,.4,.11,.24,.15,.26,.31-.01,.42-1.03,.4-2,1.01-3.19,.88-1.69-.18-3.19,.29-4.53,1.34-.9,.71-2.05,.86-3.08,1.3-.09,.04-.2,.01-.28-.06Z" fill="#57803b"/><path d="M19.69,62.28c1.38-.55,2.83-.92,4.03-1.87,.84-.66,1.86-.95,2.91-.87,1.52,.12,2.91-.21,4.25-1-1.34-.27-2.63,.02-3.93,.27,1.05-.7,2.22-1.07,3.44-1.33,1.21-.25,2.36,.15,3.53,.3,.38,.05,.75,.04,1.13,.06,.55,.7,1.13,1.35,2.16,1.2,.23,.26,.08,.52,0,.77-.08,.28-.27,.53-.32,.82-.05,.15-.06,.33-.28,.34,.08-.46-.16-.7-.57-.83-1.01-.3-2-.63-3.09-.41-.6,.12-1.11,.34-1.49,.79-.76,.93-1.69,1.13-2.83,.84-1.4-.36-2.76-.14-3.9,.75-.97,.76-2,1.27-3.24,1.33-1.06,.05-2.02,.41-2.95,.89-.07,.03-.14,.09-.27-.02,.28-.79,.82-1.43,1.4-2.05Z" fill="#497131"/><path d="M37.09,53.05c.68,.08,1.16-.39,1.67-.7,.83-.5,1.6-.72,2.63-.48,.91,.21,1.91-.07,2.83-.42,.18-.07,.37-.15,.55-.22,1.12-.32,3.15,.54,3.68,1.56,.08,.16,.19,.34,.01,.49-.12,.11-.28,.04-.38-.06-.62-.56-1.42-.53-2.21-.68,.67,.33,1.16,.83,1.58,1.38,.44,.57,1,.9,1.67,1.08,.54,.15,1.08,.27,1.62,.41,.34,.12,.55,.43,.86,.6,.35,.56,1,.85,1.3,1.46,.15,.31,.31,.6,.25,1-.3-.08-.44-.34-.64-.5-.9-.74-1.98-1-3.08-1.21-.53-.1-1.05-.21-1.56-.37-.51-.17-.96-.41-1.31-.88-.38-.51-.86-.95-1.35-1.36-.4-.34-.87-.57-1.42-.52-.62,.07-1.17-.08-1.72-.38-1.23-.68-2.4-.33-3.51,.31-.54,.31-.5,.64,.01,1.05,.1,.4,.17,.8,.07,1.21-.14,.23-.32,.35-.46,.02-.29-.67-.72-1.27-.99-1.95-.11-.28-.21-.56-.1-.86Z" fill="#497131"/><path d="M37.09,53.05c.14,1.06,.95,1.85,1.22,2.86,.03,.09,.13,.04,.2,0,.11,.08,.13,.2,.11,.32-.19,1.51-.78,2.88-1.54,4.18-.07,.12-.18,.21-.34,.21,.07-.56,.54-1,.46-1.59,.36-.43,.25-.76-.22-1-.15-.08-.28-.16-.25-.36,.24-2.15-.57-4.05-1.38-5.96-.05-.11-.05-.23-.07-.35-.19-1.3-.68-2.52-1-3.79-.58-2.34-.57-4.63,.42-6.87,.06-.14,.09-.31,.27-.37,.16,.23,.07,.46,0,.69-.73,2.68-.34,5.25,.78,7.75,.4,.89,.9,1.74,1.32,2.61,.09,.18,.21,.35,.16,.56-.61,.5-.63,.66-.14,1.1Z" fill="#57813b"/><path d="M50.75,55.57c-.62-.15-1.24-.28-1.85-.46-.64-.19-1.16-.53-1.59-1.09-.47-.63-1.03-1.22-1.82-1.52,1.04-.04,2.06-.04,2.9,.8-.03-1.05-2.05-2.1-3.63-2.06,.55-.46,1.16-.81,1.84-1.06,.22,.06,.46,.04,.68,.12,.59,.15,1.11,.45,1.57,.84,.51,.45,.91,.99,.87,1.7-.06,.99,.21,1.81,.97,2.46,.07,.06,.14,.15,.07,.26Z" fill="#57813b"/><path d="M36.75,60.63c.99-1.42,1.54-3,1.76-4.71,.02-.43,.03-.86,.05-1.3,.45,.62,.36,1.32,.28,2-.16,1.25-.64,2.41-1.22,3.52-.62,1.2-1.25,2.39-1.93,3.55-.58,1-.65,2-.35,3.09,.47,1.73,1.27,3.31,2.08,4.89,.1,.2,.26,.43-.08,.58-1.13-2.06-2.57-3.98-2.8-6.42-.07-.69,.13-1.33,.27-1.99-.08-.33,.12-.58,.28-.82,.37-.58,.62-1.25,1.2-1.68,.14-.1,.32-.16,.34-.36,.12-.09,.12-.22,.13-.34Z" fill="#fefdf3"/><path d="M37.23,51.95c-.83-1.55-1.8-3.04-2.27-4.75-.59-2.15-.8-4.33-.05-6.51,.04-.11,.04-.23,.06-.35,.2-.5,.37-1.02,.6-1.51,.13-.28,.26-.62,.7-.54-.69,1.67-1.21,3.39-1.42,5.19-.12,1.02,.23,1.99,.52,2.96,.52,1.7,1.19,3.35,1.88,4.99,.07,.17,.34,.36-.01,.52Z" fill="#fdfcf3"/><path d="M36.29,61.34c-.48,.84-1.07,1.62-1.48,2.5-1.16,1.39-2.56,2.49-4.08,3.44-.34,.21-.67,.43-1.07,.51,.34-.43,.81-.7,1.22-1.03,1.67-1.36,3.08-2.94,4.12-4.84,.3-.55,.63-.9,1.29-.58Z" fill="#497131"/><path d="M50.75,55.57c-.85-.68-1.3-1.53-1.18-2.64,.07-.69-.3-1.18-.76-1.6-.47-.43-1-.77-1.63-.95,0-.21,.12-.16,.23-.1,1.34,.15,2.28,.94,3.12,1.9,.14,.16,.13,.34,.09,.51-.36,1.32-.02,2.42,.97,3.34-.37,0-.54-.36-.85-.46Z" fill="#fdfcf3"/><path d="M47.42,50.27c-.08,.03-.16,.07-.23,.1-.19-.09-.42-.03-.58-.19,.28-.03,.56-.11,.82,.09Z" fill="#cdd3bd"/><path d="M52.79,68.41c-.43-.72-.52-1.44-.07-2.19,.91-.55,1.83-.41,2.74,0,.38,.17,.72,.42,1.07,.65,.74,.48,1.55,.69,2.4,.42,1.2-.37,2.23-.16,3.16,.68,.37,.34,.88,.46,1.29,.75-.03,.43-.39,.48-.68,.51-.96,.09-1.79,.45-2.61,.95-1.5,.91-3.04,.71-4.57-.02-.98-.47-1.79-1.2-2.71-1.76Z" fill="#f9bb74"/><path d="M52.79,68.41c.53-.06,.83,.35,1.17,.62,1.04,.82,2.21,1.38,3.49,1.59,.98,.16,1.94-.13,2.76-.71,.71-.5,1.48-.76,2.33-.8,.31-.02,.57-.16,.81-.33,.15-.28,.46-.33,.69-.49,.25,.05,.5,.1,.8,.16-.28,.42-.72,.6-1.15,.76-.74,.28-1.41,.64-1.95,1.23-.25,.27-.55,.37-.91,.37-.64,0-1.27,.12-1.84,.44-2.08,1.15-3.86,.31-5.19-1.24-.41-.48-.85-.96-1.02-1.6Z" fill="#dba364"/><path d="M64.06,68.29c-.13,.3-.42,.39-.69,.49-.61-.11-1.11-.44-1.57-.82-.76-.61-1.56-.87-2.55-.56-1.09,.35-2.13,.18-3.04-.55-1.05-.84-2.22-.99-3.49-.64,.64-.8,1.72-1.07,2.79-.73,.48,.15,.9,.41,1.33,.65,.77,.43,1.59,.6,2.46,.5,1.05-.12,2,.1,2.84,.77,.56,.45,1.18,.81,1.92,.89Z" fill="#fefefe"/><path d="M5.29,43.3c.06,.43-.01,.84-.24,1.22-.61,.52-1.32,.4-2.03-.12-1.23-.9-1.48-2.15-.71-3.53,.57-1.02,1.23-2,1.46-3.18,.12-.66,.32-1.31,.57-1.94,.18-.54,.49-.99,.97-1.3,.12,.11,.13,.25,.11,.38-.16,.92,.12,1.77,.39,2.63,.09,.3,.2,.61,.28,.91,.19,.72,.14,1.4-.24,2.07-.51,.88-.73,1.84-.55,2.86Z" fill="#ebad67"/><path d="M4.34,35.76c-.34,1.84-.8,3.62-1.87,5.22-1.1,1.65-.03,3.32,1.55,3.71,.39,.1,.68-.2,1.04-.16-.51,.68-.99,.83-1.76,.63-2.28-.57-2.56-2.69-1.55-4.53,.22-.4,.52-.76,.79-1.12,.65-.9,1.09-1.9,1.44-2.94,.1-.28,.13-.59,.36-.81Z" fill="#dba363"/><path d="M5.29,43.3c-.24-1.02-.14-2.02,.39-2.91,.4-.67,.43-1.33,.23-2.06-.23-.8-.54-1.57-.66-2.4-.07-.51,.02-.99,.06-1.48,.21-.14,.42-.28,.65-.43,.13,.13,.09,.28,.06,.4-.32,1.48,.04,2.88,.56,4.24,.31,.82,.28,1.57-.43,2.16-.8,.66-.9,1.54-.86,2.48Z" fill="#fefdfd"/><path d="M50.4,14.3c-.51-.5-.96-1.07-1.67-1.33,0-.28,0-.57,0-.85,.67,.19,1.14,.67,1.66,1.08,0,.37,0,.73,0,1.1Z" fill="#fefdfd"/><path d="M52.82,18.14c-.36-1.07-.75-2.13-1.25-3.14-.16-.47-.06-.95-.05-1.43,.09-.15-.07-.42,.14-.48,.21-.06,.35,.16,.46,.32,.36,.53,.65,1.09,.8,1.72,0,.9,.02,1.8,.02,2.7,0,.12,.02,.24-.11,.32Z" fill="#d48f24"/><path d="M52.91,15.13c-.43-.64-.62-1.42-1.19-1.97-.19,.09-.05,.32-.2,.41-.09-.53,.14-1.03,.1-1.56,.23-.03,.45-.16,.69-.12,.2-.11,.37-.07,.51,.11,.25,.61,.06,1.25,.1,1.87,.03,.41,0,.83-.02,1.25Z" fill="#f7b972"/><path d="M52.82,12c-.17-.04-.34-.08-.51-.11,.17-.23,.41-.08,.61-.1-.04,.07-.07,.14-.11,.22Z" fill="#f4ddc0"/><path d="M37.55,19.9c.02-.44,.29-.82,.83-.92,.82-.15,1.65-.26,2.47-.37,.41-.06,.78-.05,.58-.69-.18-.58-.23-1.2-.35-1.81-.13-.68,.24-1.29,.87-1.42,.58-.11,1.1,.26,1.25,.92,.14,.62,.28,1.24,.35,1.87,.06,.57,.31,.73,.85,.63,.62-.12,1.26-.2,1.88-.29,.63-.09,1.19,.28,1.31,.86,.11,.56-.22,1.09-.86,1.24-.68,.15-1.37,.31-2.05,.33-.61,.01-.57,.32-.5,.72,.13,.72,.27,1.44,.38,2.17,.1,.64-.23,1.17-.76,1.31-.58,.14-1.14-.19-1.3-.85-.2-.83-.34-1.67-.48-2.51-.06-.35-.14-.46-.54-.38-.87,.18-1.76,.28-2.65,.39-.7,.09-1.29-.43-1.28-1.2Z" fill="#553826"/><path d="M28.23,16.45c-.3-.32-.62-.62-.91-.95-.42-.46-.42-1.11-.04-1.52,.37-.38,1-.44,1.47-.07,.39,.3,.74,.66,1.11,.99q.79,.94,1.66,.1c.43-.42,.85-.85,1.3-1.24,.59-.51,1.23-.51,1.66-.04,.43,.47,.37,1.1-.19,1.64-.57,.56-1.15,1.12-1.74,1.65-.26,.23-.28,.37-.02,.6,.4,.36,.78,.75,1.15,1.14,.5,.52,.53,1.16,.1,1.6-.4,.42-1.05,.44-1.57,0-.45-.39-.88-.82-1.29-1.26-.22-.23-.37-.22-.58-.01-.51,.51-1.02,1.02-1.56,1.49-.58,.5-1.3,.44-1.69-.09-.32-.43-.29-.99,.13-1.42,.46-.47,.92-.96,1.43-1.36,.43-.34,.39-.56,0-.85-.16-.12-.3-.26-.44-.4Z" fill="#553826"/><path d="M38.46,25.16c-.01,1.47-.73,2.6-1.83,2.93-.85,.25-1.56-.07-1.77-.92-.14-.56-.44-.58-.87-.5-.19,.04-.39,.1-.58,.12-.76,.07-1.27-.3-1.45-1.03-.45-1.87,.87-3.78,2.85-4.13,1.76-.31,3.47,1.14,3.61,3.06,.01,.18,.03,.36,.04,.48Z" fill="#553826"/><path d="M49.18,24.86c-.68-.02-1.05-.27-1.22-.82-.23-.77,.27-2.06,.97-2.44,.41-.23,.85-.24,1.23,.03,.37,.26,.62,.7,.57,1.12-.07,.62-.24,1.25-.72,1.73-.27,.27-.57,.43-.84,.39Z" fill="#dba364"/><path d="M38.05,13c.02,.57-.62,1.25-1.2,1.28-.54,.03-1.04-.49-1.07-1.14-.03-.59,.47-1.13,1.06-1.14,.63-.01,1.2,.45,1.22,.99Z" fill="#dba364"/><path d="M47.24,27.24c.46-.07,.57,.31,.63,.66,.06,.33-.43,.8-.77,.78-.41-.02-.65-.2-.66-.67-.02-.56,.25-.76,.8-.77Z" fill="#dca464"/><path d="M39.25,16.04c.04,.37-.18,.51-.5,.52-.36,.02-.57-.17-.57-.53,0-.33,.18-.52,.51-.54,.37-.01,.54,.19,.56,.55Z" fill="#e0a665"/><path d="M37.34,25.23c.03,.69-.24,1.25-.78,1.65-.28,.21-.52,.22-.67-.2-.39-1.09-1.08-1.42-2.19-1.09-.57,.17-.66,.1-.68-.5-.03-1.27,1.05-2.42,2.25-2.39,1.19,.02,2.08,1.11,2.07,2.53Z" fill="#e52c20"/></svg>