<?xml version="1.0" encoding="UTF-8"?><svg id="Layer_1" xmlns="http://www.w3.org/2000/svg" viewBox="0 0 77.29 55.54"><path d="M26.36,12.57c-.6-.43-.59-.94-.17-1.49,.38-.48,.85-.86,1.38-1.17,.58-.34,1.1-.2,1.6,.2,1.56,1.27,3.11,2.55,4.78,3.67,.48,.32,.96,.64,1.48,.9,1.78,.89,3.11,.09,3.39-1.92,.23-1.62-.11-3.17-.42-4.73-.29-1.43,.75-2.68,2.18-2.54,.51,.05,.83,.39,1.08,.81,.44,.76,.87,1.52,1.33,2.27,.23,.37,.46,.86,.95,.81,.49-.05,.61-.6,.76-.99,.69-1.79,1.39-3.57,2-5.39,.28-.83,.62-1.56,1.38-2.04h.5c.22,.33,.6,.17,.89,.26,1.19,.38,1.47,.82,1.11,2-.28,.91-.58,1.81-.88,2.72,.06,.42,.02,.81-.32,1.12-.75,2.01-1.42,4.04-1,6.23,.21,1.1,.65,1.22,1.52,.54,1.42-1.1,2.82-2.21,4.26-3.26,1.01-.74,1.49-.65,2.18,.22,1.01,1.27,1.03,1.82,.08,2.69-1.38,1.26-2.84,2.45-4.03,3.92-1.36,1.67-1.64,3.61-1.58,5.65,.07,2.15,.58,4.24,.85,6.36,.12,.98,.18,1.98,.19,2.97,0,2.09,.66,3.97,1.65,5.78,.98,1.78,2.17,3.43,3.03,5.28,.35,.74,.65,1.5,.98,2.25-.53,.4-1.15,.27-1.74,.28-.19-.08-.29-.25-.37-.43-.89-2.21-2.22-4.19-3.44-6.23-1.31-2.19-2.05-4.55-2.08-7.06-.03-2.31-.47-4.55-.78-6.81-.24-1.7-.37-3.4-.06-5.1,.23-1.29,.68-2.49,1.45-3.57,1.16-1.64,2.62-2.97,4.27-4.3-1.23,.9-2.3,1.81-3.41,2.67-.94,.73-1.93,1.39-3.18,.83-1.3-.58-1.67-1.77-1.79-3.05-.15-1.62,.17-3.19,.59-4.74,.42-1.54,1.02-3.02,1.53-4.67-.62,1.83-1.18,3.55-1.86,5.22-.23,.56-.49,1.11-.85,1.61-.83,1.13-2.36,1.29-3.43,.39-.89-.75-1.38-1.78-2.07-2.93,.2,1.13,.36,2.07,.48,3,.16,1.32,.04,2.6-.52,3.8-1.02,2.21-3.17,3.01-5.36,1.96-1.68-.8-3.18-1.88-4.56-3.12-.29-.26-.53-.56-.86-.77-.19-.06-.3-.22-.41-.31,.1,.14,.26,.28,.48,.36,2.2,1.73,2.63,4.04,2.07,6.61-.46,2.14-1.25,4.17-2.35,6.07-.71,1.23-1.27,2.52-1.42,3.94-.28,2.67-1.29,5.12-2.36,7.54-1.2,2.69-2.48,5.35-3.69,8.04-.18,.4-.14,.87-.47,1.21-.65,.03-1.31,.08-1.93-.2-.12-.19-.13-.36,.05-.52,2.02-4.55,4.38-8.94,5.98-13.67,.32-.94,.42-1.92,.56-2.89,.22-1.55,.84-2.94,1.57-4.29,.95-1.76,1.8-3.57,2.16-5.56,.49-2.76,.14-3.85-2.5-5.79-.38-.07-.69-.23-.83-.62Z" fill="#845732"/><path d="M19.42,45.39c-.03,.15-.05,.3-.08,.45-.61,.41-1.32,.33-1.99,.41-.47,.06-.93,.09-1.39,.19-.34,.07-.7,.19-.66,.61,.04,.44,.43,.57,.81,.54,.77-.06,1.54-.1,2.31-.16,3.16-.26,6.18,.25,9,1.65,1.11,.55,2.08,.6,3.24,.24,3.19-1,6.47-1.46,9.81-1.35,2.46,.08,4.9,.46,7.21,1.37,.7,.28,1.29,.22,1.97-.11,3.45-1.66,7.06-2.55,10.92-1.93,.76,.12,1.12-.26,1.47-.78,1.24,.45,2.59,.47,3.82,.98,.44,.18,.89,.33,1.13,.78,.33,.63,.21,1.17-.37,1.59-1.1,.77-2.39,.93-3.67,1.15-.73,.13-1.47,.2-2.22,.18-.31,0-.64,.07-.79,.36-.53,1-1.5,1.38-2.46,1.68-1.86,.59-3.8,.89-5.74,1.09-3.34,.34-6.7,.41-10.06,.55-2.9,.12-5.79,.13-8.69,.07-2.83-.05-5.66-.23-8.48-.48-3.25-.3-6.51-.65-9.65-1.64-.76-.24-1.54-.5-2.18-.97-.56-.41-1.07-.5-1.74-.36-2.34,.46-4.65,.11-6.95-.39-.74-.16-1.49,0-2.23-.1-.59-.08-1.22-.12-1.31-.96-.04-.39,.58-.41,.34-.82,.72-.36,1.45-.07,2.17,0,.85,.08,1.67,.35,2.5,.57,1.74,.45,3.5,.46,5.26,.13,.79-.15,1.55-.4,2.17-.96,.19-.17,.39-.36,.3-.63-.08-.25-.36-.22-.57-.25-.9-.14-1.82-.21-2.65-.61-.28-.13-.67-.16-.71-.58,3.23-1.53,6.74-1.17,10.15-1.48Z" opacity=".3"/><path d="M62.04,46.52c-.04,.94-.3,1.16-1.21,1.02-4.06-.62-7.86,.21-11.45,2.12-.41,.22-.78,.27-1.18,.11-5.85-2.27-11.73-1.93-17.62-.19-1.06,.31-1.94,.32-2.97-.2-2.88-1.46-5.97-2.01-9.19-1.74-.8,.07-1.59,.13-2.39,.2-.56,.05-1.04-.14-1.09-.74-.06-.6,.38-.86,.94-.92,1.15-.12,2.3-.24,3.45-.35,.67,.05,1.35,.09,2.02,.14,.38-.26,.8-.19,1.2-.12,1.97,.3,3.9,.78,5.68,1.7,.67,.34,1.28,.33,1.98,.12,5.25-1.56,10.59-2.03,15.91-.53,1.82,.51,3.33,.44,4.95-.37,1.16-.58,2.48-.74,3.74-1.06,.3-.08,.6-.1,.87,.1,.61-.05,1.21-.1,1.82-.15,1.12,.07,2.25-.06,3.36,.18,.47,.1,.9,.22,1.16,.67Z" fill="#047425"/><path d="M63.19,44.04c-.11-.12-.23-.24-.34-.36-.59-.63-.46-1.1,.4-1.24,1.54-.24,3.01-.82,4.57-.99,.82-.09,1.62-.11,2.27,.46,1.54,1.34,3.33,1.37,5.2,1.07,.27-.04,.54-.1,.8-.18,.27-.07,.52,0,.63,.23,.12,.25-.1,.39-.28,.52-.28,.49-.8,.45-1.24,.51-1.07,.13-2.1,.36-3.07,.87-1,.53-2.1,.63-3.21,.41-1.3-.26-2.64-.05-3.92-.42-.66-.19-1.35-.3-1.81-.89Z" fill="#cc9666"/><path d="M9.27,46.86c1.12,.64,2.35,.89,3.62,.98,.26,.02,.59-.09,.68,.29,.08,.32-.03,.61-.27,.82-.43,.39-.91,.7-1.47,.89-2.21,.72-4.44,.7-6.66,.09-1.43-.4-2.89-.61-4.37-.72-.33-.06-.85,.06-.8-.47,.05-.57,.58-.42,.93-.35,1.52,.3,2.86,.07,4.09-.96,1.26-1.04,2.76-.91,4.25-.57Z" fill="#cc9666"/><path d="M26.36,12.57c.28,.21,.55,.41,.83,.62-.55,.41-1.1,.82-1.68,1.26,.19,.15,.34,.26,.48,.39,1.04,.9,1.12,2.1,.19,3.11-.24,.26-.52,.49-.82,.69-.87,.58-1.59,1.27-1.94,2.29-.21,.61-.69,1-1.29,1.2-.61,.2-1.07-.11-.91-.72,.35-1.3,.15-2.64,.35-3.93,.25-1.62,1.35-2.67,2.76-3.4,.76-.39,1.53-.75,2.02-1.5Z" fill="#cc9666"/><path d="M63.19,44.04c1.08,.48,2.19,.84,3.39,.89,2.26,.1,4.53,.68,6.68-.72,.67-.44,1.69-.34,2.55-.5,.21-.04,.42-.11,.63-.16,.33,.61,.13,1-.51,1.18-.37,.1-.74,.22-1.11,.3-.67,.14-1.32,.28-1.92,.66-.78,.5-1.74,.56-2.63,.61-2.33,.13-4.68,.2-6.94-.58-.42-.15-.9-.27-.96-.79-.07-.56,.45-.69,.83-.9Z" opacity=".3"/><path d="M49.39,7.05c.11-.37,.21-.74,.32-1.12,.61,.25,1.22-.04,1.84,0,1.23,.1,2.33,.87,2.74,2.05,.26,.75,.08,1.41-.4,2-.3,.37-.69,.4-.97,0-.3-.45-.73-.74-1.12-1.08-.45-.39-.8-.85-.72-1.49,.08-.61-.19-.72-.72-.56-.31,.09-.64,.14-.97,.2Z" fill="#cc9666"/><path d="M55.71,45.82c-2.3,.35-4.5,1.02-6.59,2.04-.31,.15-.57,.24-.92,.12-6.05-2.13-12.11-1.82-18.15,.02-.59,.18-1.07,.18-1.64-.12-2.21-1.12-4.57-1.73-7.04-1.91-.26-.41,.03-.74,.18-1.07,1.38-3.06,2.76-6.12,4.16-9.17,.99-2.16,1.68-4.4,1.97-6.77,.17-1.43,.82-2.66,1.5-3.9,1.32-2.41,2.34-4.94,2.44-7.7,.07-1.86-.8-3.45-2.27-4.65-.05-.04-.07-.07-.05-.11,.02-.04,.03-.06,.05-.06,1.2,.68,2.17,1.67,3.31,2.42,.76,.5,1.53,.97,2.34,1.4,2.8,1.49,5.08-.93,5.47-3.04,.35-1.84-.08-3.6-.36-5.38-.03-.2-.26-.47,.06-.56,.28-.09,.3,.26,.4,.43,.58,.9,1,1.9,1.82,2.64,1.05,.95,2.52,.84,3.27-.34,1.05-1.67,1.56-3.57,2.25-5.4,.24-.63,.33-1.33,.84-1.95,.18,.38-.02,.64-.1,.89-.75,2.33-1.65,4.61-1.97,7.06-.15,1.16-.18,2.3,.19,3.43,.56,1.73,2.15,2.35,3.65,1.32,1.11-.76,2.13-1.65,3.2-2.47,.45-.35,.92-.68,1.44-1.05,.12,.51-.23,.68-.46,.86-1.46,1.18-2.83,2.45-3.94,3.97-1.53,2.11-1.8,4.5-1.62,6.99,.21,2.79,.97,5.5,.96,8.33,0,2.93,1.05,5.58,2.6,8.06,1.14,1.81,2.36,3.6,3,5.68Z" fill="#a47e60"/><path d="M29.34,12.55c0,.05,0,.11,0,.16-.17-.14-.34-.27-.5-.41-.12-.11-.22-.23-.27-.41,.33,.13,.59,.35,.77,.66Z" fill="#9d7555"/><path d="M70.96,44.14c-1.25,.49-5.84-.07-7.23-.87,1.67-.47,3.24-.98,4.9-1.04,.65-.02,1.19,.32,1.64,.94h-2.2s-.02,.09-.03,.13c.93,.27,1.85,.53,2.91,.83Z" fill="#e0b18a"/><path d="M5.44,49.09c.9-.5,1.91-.38,2.9-.53-.89-.26-1.79-.4-2.87-.37,1.15-.86,2.29-.81,3.4-.51,1.1,.29,2.07,1.01,3.41,.84-1.15,1.12-4.8,1.55-6.84,.58Z" fill="#e0b18a"/><path d="M22.11,21.11c.33-1.12,.23-2.22,.27-3.31,.04-1,.6-1.72,1.49-2.27l-.96,2.5s.09,.05,.13,.08c.45-.72,.87-1.47,1.38-2.15,.19-.25,.22-.97,.84-.58,.51,.32,.86,.74,.64,1.44-.13,.4-.37,.7-.69,.9-1.23,.76-2.19,1.73-2.68,3.12-.04,.13-.12,.25-.42,.28Z" fill="#e0b18a"/><path d="M52.94,8.23c0-.46-.42-.64-.44-1.22,.61,.53,1.07,.95,1.05,1.7,0,.16-.01,.34-.27,.3-.54-.09-1.35-1.14-1.34-1.76,.43,.22,.45,.82,1,.99Z" fill="#dfb089"/><path d="M36.14,29.44c-1.11,.65-2.32,.81-3.58,.69-.86-.08-1.59-.4-2.13-1.1-.58-.76-.63-1.58-.23-2.4,.32-.66,1.27-1.02,2.18-.78,.54,.14,.93,.02,1.38-.24,1.48-.84,3.01-.5,3.57,.72,.2,.43,.12,.86,.14,1.3-.04,.9-.59,1.43-1.33,1.81Z" fill="#553826"/><path d="M41.09,27.14c.47-2.1,2.42-2.71,4-1.26,.38,.35,.76,.57,1.3,.62,.78,.07,1.45,.42,1.67,1.25,.23,.85-.12,1.56-.91,2.12-1.24,.86-2.54,.72-3.87,.25-.28-.1-.56-.23-.83-.35-1.15-.57-1.56-1.39-1.35-2.63Z" fill="#553826"/><path d="M41.09,27.14c-.14,1.18,.65,1.89,1.35,2.63-.57,1.11-1.27,1.46-2.43,1.1-.6-.18-1.14-.22-1.76-.11-1.18,.2-1.76-.22-2.11-1.32,.5-.56,1.05-1.08,1.33-1.81,.94-.37,1.9-.47,2.88-.18,.33,.1,.63,.1,.74-.32Z" fill="#8a6548"/><path d="M47.75,33.87c0-.63,0-1.1,0-1.57,0-.43,.14-.86,.6-.81,.47,.06,.53,.49,.48,.96-.21,2.18,.04,4.27,1.26,6.16,.16,.25,.37,.48,.52,.74,.16,.28,.21,.6-.13,.79-.27,.16-.54,.06-.74-.17-.9-1.1-1.61-2.29-1.83-3.73-.14-.84-.22-1.69-.17-2.38Z" fill="#936c4d"/><path d="M31.9,43.21c-1.35,.26-2.38-1.38-2-2.74,.16-.55,.58-.86,1.16-.9,.65-.04,1.11,.27,1.4,.83,.15,.29,.19,.65,.38,.9,.31,.41,.66,.82,.39,1.34-.27,.52-.81,.62-1.33,.57Z" fill="#8b6548"/><path d="M29.5,32.51c.2,2.06-.71,3.96-1.86,5.78-.19,.3-.44,.79-.88,.53-.49-.3-.26-.8-.01-1.16,1.33-1.91,1.79-4.04,1.76-6.32,0-.19,0-.39,.05-.57,.08-.24,.26-.45,.54-.44,.31,.01,.4,.25,.4,.53,0,.5,0,.99,0,1.66Z" fill="#936c4d"/><path d="M47.42,18.47c-.01,.8-.53,1.37-1.25,1.36-.91,0-1.73-.9-1.73-1.88,0-.95,.52-1.58,1.32-1.58,.93,0,1.68,.94,1.67,2.1Z" fill="#8b6548"/><path d="M41.78,33.67c.03,.31-.08,.56-.37,.66-.34,.12-.53-.13-.62-.39-.31-.83-.76-.64-1.22-.18-.49,.5-.9,.47-1.25-.14-.29-.5-.57-.46-.85,0-.22,.36-.49,.68-.92,.39-.43-.29-.18-.69,0-1.03,.44-.82,1.4-1.12,2.18-.62,.34,.22,.56,.18,.89,.05,1.07-.41,2.15,.24,2.17,1.27Z" fill="#553826"/><path d="M46.75,22.67c-.59-.02-.85-.32-.83-.89,.02-.49,.26-.79,.75-.77,.53,.02,.86,.35,.89,.88,.03,.55-.31,.77-.82,.78Z" fill="#8b6548"/><path d="M28.85,45.27c0,.15-.13,.49-.55,.4-.57-.12-.8-.66-.88-1.15-.06-.34,.28-.64,.64-.57,.56,.11,.77,.55,.78,1.32Z" fill="#8b6649"/><path d="M33.32,29.14c-.73-.08-1.52-.13-2.04-.81-.24-.31-.41-.66-.14-1.06,.25-.38,.61-.47,1.01-.32,.81,.32,1.48,.07,2.17-.36,.74-.47,1.66-.38,1.95,.1,.29,.47-.08,1.29-.81,1.79-.63,.44-1.34,.62-2.13,.66Z" fill="#fefdfd"/><path d="M45.04,29.42c-.88-.16-1.75-.32-2.39-1.01-.58-.61-.62-1.3-.13-1.84,.46-.49,1.17-.52,1.76,.06,.6,.59,1.27,.94,2.1,1,.29,.02,.54,.15,.61,.46,.07,.3-.08,.53-.3,.72-.47,.42-1.04,.59-1.66,.6Z" fill="#fbfbfc"/></svg>