<?xml version="1.0" encoding="UTF-8"?><svg id="Layer_1" xmlns="http://www.w3.org/2000/svg" viewBox="0 0 60.52 77.68"><path d="M55.75,73.66c-.82,.28-1.67,.34-2.52,.37-.66,.03-1.22,.06-1.68,.72-.59,.85-1.61,1.15-2.56,1.43-2.14,.62-4.35,.89-6.57,1.09-2.56,.23-5.13,.27-7.69,.38-3.31,.15-6.63,.12-9.94,.06-2.92-.05-5.84-.23-8.75-.54-2.39-.25-4.78-.53-7.12-1.09-1.59-.38-3.16-.84-4.46-1.91-.04-.03-.11-.03-.17-.05,.04-.3,.3-.35,.52-.44,1.74-.7,3.55-1.06,5.41-1.17,1.68-.1,3.34-.02,4.99,.32,.67,.14,1.31,.36,1.94,.6,.41,.15,.8,.16,1.22,.02,2.05-.71,4.18-1.03,6.34-1.17,3.66-.24,7.24,.27,10.74,1.31,.32,.1,.62,.09,.93-.04,2.22-.98,4.58-1.33,6.98-1.52,3.41-.27,6.77,.04,10.1,.75,.59,.12,1.16,.3,1.73,.48,.22,.07,.48,.1,.55,.39Z" opacity=".3"/><path d="M38.13,17.09c2.14,.22,4.06,1.04,5.25,2.81,1.17,1.75,2.52,3.33,3.85,4.94,1.36,1.65,1.99,3.57,1.88,5.7-.09,1.6,.23,3.08,1.03,4.46,.86,1.5,1.43,3.1,1.61,4.82,.03,.27,.11,.36,.39,.47,.94,.36,1.84,.8,2.83,1.04,.64,.15,1.08,.68,1.41,1.23,.45,.74,1.04,1.34,1.63,1.97,1.99,2.09,2.55,4.6,1.7,7.34-.38,1.24-.73,2.46-.86,3.75-.14,1.42-.96,2.12-2.39,2.11-.49,0-.94,.13-1.38,.31-1.36,.54-2.44,.21-3.26-1-.82-1.24-1.07-2.59-.73-4.1-.49,.01-.83,.15-1.08,.58-.69,1.17-.73,2.42-.42,3.69,.51,2.13,.57,4.2-.61,6.17-.34,.57-.57,1.22-.84,1.84-.48,1.1-.64,2.25-.52,3.44,.35,.75,.5,1.51,.24,2.32-.39,.21-.78,.18-1.18,.04-.43-.71-.36-1.53-.44-2.31-.19-1.82,.27-3.52,1.08-5.13,.18-.36,.34-.72,.54-1.07,.7-1.26,.84-2.6,.54-3.99-.1-.45-.15-.9-.24-1.35-.25-1.2-.13-2.38,.23-3.54-.16-.41-.74-.36-.87-.8-.06-.17-.07-.35-.04-.54,.01-.06,.03-.12,.06-.18,.1-.17,.24-.28,.44-.33,.38-.06,.68,.22,1.03,.28,.65-.09,1.24-.4,1.87-.56,.27-.07,.29-.29,.29-.52,0-.38-.12-.74-.21-1.11-.08-.33-.16-.67-.24-1-.02-.1-.02-.2-.03-.3-.01-.16-.01-.32,.01-.48,.07-.54,.38-.89,.8-.9,.43,0,.65,.26,.72,.91-.03,.4,.09,.77,.19,1.15,.09,.48,.27,.94,.29,1.43,.05,.98-.13,1.93-.28,2.89-.21,1.31,.12,2.48,1.27,3.3,.54,.2,.96-.19,1.44-.29,.08-.03,.16-.07,.24-.1,.39-.21,.81-.04,1.21-.09,.17,0,.34,0,.48-.13,.53-.4,.55-1.01,.57-1.58,.04-.89,.21-1.74,.58-2.55,.72-1.56,.64-3.14,.09-4.72-.23-.65-.56-1.23-1.07-1.71-.77-.73-1.48-1.5-2.03-2.42-.29-.49-.74-.77-1.31-.84-.38-.04-.77-.12-1.07-.35-.61-.46-1.27-.54-1.98-.35-.8,.21-1.61-.04-2.41,.06-.35,.05-.66-.19-.75-.55-.11-.4,.12-.67,.45-.87,.06-.03,.12-.05,.19-.07,.35-.1,.7-.15,1.07-.12q1.07,.14,.95-.94c-.04-.36-.14-.69-.28-1.02-.09-.38-.19-.75-.37-1.1-.31-.91-.87-1.7-1.25-2.58-.53-1.25-.72-2.54-.64-3.9,.1-1.68-.37-3.23-1.35-4.62-.63-.9-1.45-1.65-2.15-2.49-.48-.57-.96-1.13-1.28-1.8-.76-1.56-2.05-2.45-3.63-3.01-.28-.1-.58-.16-.83-.34-.23-.41-.47-.81-.38-1.3Z" fill="#647642"/><path d="M38.13,17.09c.15,.41,.31,.82,.46,1.23,.09,.13,.14,.27,.15,.43,.04,.61,.3,1.08,.74,1.51,.66,.62,1.21,1.33,1.3,2.28,.1,.51,.02,1.01-.03,1.51-.09,.32-.11,.66-.23,.97-.11,.28-.25,.54-.58,.6-.51,.07-.79-.21-1-.62-.25-.61-.79-.55-1.29-.56-.85-.09-1.65-.29-2.24-.97-.18-.21-.35-.23-.52,.03-.1,.15-.21,.29-.33,.42-.19,.18-.4,.34-.63,.46-.54,.28-.85,.72-1.07,1.29-.42,1.09-1.18,1.92-2.2,2.51-.22,.13-.47,.22-.72,.28-.4,.1-.76,0-1.03-.31-.25-.29-.22-.63-.08-.96,.1-.26,.22-.51,.28-.79,.15-.38,.03-.76-.1-1.11-.31-.88-.32-1.75-.07-2.64,.04-.13,.07-.27,.08-.41,.02-.46-.13-.62-.59-.57-.69,.08-1.31-.06-1.88-.45-.31-.18-.6-.1-.89,.05-.35,.18-.7,.35-1.1,.4-.69,.07-1.24-.23-1.74-.65-.2-.17-.36-.38-.63-.44-.44-.13-.89-.08-1.33-.08-.13,0-.27,0-.4,0-.31,0-.62,.03-.93-.05-.24-.06-.5-.14-.49-.48-.25-.57,.05-.96,.45-1.3,.84-.7,1.77-1.21,2.87-1.35,.08,0,.15-.05,.22-.08,.03-.01,.05-.05,.12-.15-.44,0-.82-.01-1.2,0-.34,.01-.6-.11-.73-.41-.12-.27-.07-.56,.13-.78,.69-.76,1.43-1.47,2.48-1.68,.8-.16,1.35-.6,1.74-1.31,.48-.85,1.07-1.57,2.14-1.73,.92-.13,1.67,.16,2.07,1.03,.26,.57,.8,.52,1.22,.74,.19,.1,.21-.18,.31-.29,1.02-1.2,2.27-1.84,3.89-1.58,.82,.13,1.38,.63,1.76,1.3,.41,.72,1,1.08,1.79,1.24,.6,.12,1.18,.33,1.69,.7,.68,.51,.89,1.2,.78,2-.09,.67-.55,.88-1.11,.49-.38-.27-.78-.37-1.23-.35-.61,.03-.63,.07-.31,.6Z" fill="#c54c43"/><path d="M19.04,19.99c.39,.51,.95,.31,1.45,.36,.15,.57-.42,.57-.66,.82-.64,.36-.82,1.04-1.09,1.64-.22,.49-.3,1.02-.48,1.52-.13,.36-.29,.69-.53,.98-.42,.69-1.13,1.01-1.78,1.41-1.32,.72-1.9,1.85-1.89,3.33,.02,1.53-.35,2.95-1.3,4.18-.78,1.12-.81,2.39-.69,3.68,.05,.54,.09,1.07,.04,1.61-.06,.32-.22,.63-.04,.96,.28,.18,.55,.37,.53,.75-.02,.47-.32,.68-.73,.71-.48,.03-.87,.21-1.25,.47-.47,.32-1.02,.42-1.51,.08-.5-.35-.92-.38-1.37,.04-.11,.11-.27,.16-.41,.23-.4,.23-.84,.32-1.29,.29-.76,0-1.2,.52-1.43,1.1-.42,1.07-1.14,1.88-1.91,2.71-1.09,1.18-1.48,2.61-.9,4.16,.44,1.16,.55,2.37,.62,3.57,.04,.77,.3,1.3,1.03,1.58,.52,.23,1.04,.49,1.63,.5,.45,.81,.92,.97,1.62,.55,.79-.71,1.02-1.64,.98-2.64-.02-.59-.04-1.19-.04-1.78,.11-.77,.31-1.52,.5-2.28,.08-.33,.08-.67,.09-1.01,0-.43-.15-.84-.21-1.26-.02-.42,.08-.8,.54-.93,.39-.11,.69,.05,.87,.41,.1,.25,.18,.51,.21,.79,.09,.45,.15,.9,.12,1.36,0,.1-.01,.2,0,.3,.04,.36-.34,.85-.01,1.05,.48,.3,.99,.69,1.64,.58,.46,0,.92-.33,1.38-.01,.45,.54,.42,.77-.15,1.25-.5,.35-1.12,.21-1.65,.39-.24,1.25-.17,2.49,.14,3.72,.21,.81,.5,1.6,.88,2.35,.5,.99,1.06,1.97,1.43,3.02,.4,1.14,.65,2.29,.46,3.52-.11,.75-.05,1.5,.23,2.24,.36,.95,.37,1.95,.33,2.95,0,.16-.03,.32-.14,.45-.46,.14-.9,.04-1.33-.1-.17-.17-.18-.4-.15-.61,.1-.78,.01-1.55-.25-2.29-.09-.26,.03-.51-.07-.76-.17-.83-.01-1.66,.03-2.5,.07-1.31-.36-2.5-.95-3.64-.87-1.67-1.72-3.35-2.03-5.24-.19-1.17-.12-2.34-.04-3.52,.01-.19,.08-.38-.19-.4-.25-.02-.3,.17-.29,.36,0,.36,0,.72,.04,1.07,.19,1.44-.14,2.73-1.06,3.84-.95,1.15-2.19,1.3-3.36,.4-.39-.3-.79-.54-1.25-.68-1.44-.45-2.38-1.34-2.33-2.92,.04-1.47-.51-2.79-.78-4.19-.37-1.86,.27-3.46,1.58-4.77,.59-.59,1.08-1.19,1.4-1.97,.54-1.32,1.44-2.18,2.99-2.11,.41,.02,.71-.26,1.01-.48,.78-.56,1.55-.66,2.36-.05,.27,.2,.86-.26,.98-.65,.35-1.14,.12-2.29,.08-3.44-.05-1.38,.25-2.66,1.07-3.77,.71-.96,.98-2.05,.97-3.19,0-2.18,.83-3.81,2.88-4.72,.89-.4,1.34-1.13,1.57-2.05,.32-1.29,.79-2.51,1.9-3.35Z" fill="#647642"/><path d="M12.93,71.5c.45,.04,.89,.08,1.34,.13,.62-.24,1.18,.1,1.77,.18,.09,.02,.18,.05,.27,.08,.32,.09,.63,.21,.94,.32,.39,.16,.76,.11,1.15-.02,1.03-.33,2.08-.62,3.17-.73,.45-.09,.9-.18,1.35-.23,4.15-.56,8.22-.04,12.24,1,.49,.13,.92,.13,1.39-.06,1.26-.51,2.58-.83,3.92-1.05,.54-.07,1.08-.12,1.62-.21,.7-.03,1.39-.16,2.1-.16,.25,0,.49,0,.74,0,.21-.01,.42,0,.63,0,.35,0,.72-.08,1.05,.15,.4,0,.81,.01,1.21,.02,.44-.23,.91-.07,1.35-.03,2.24,.23,4.47,.55,6.61,1.29,.19,.06,.38,.12,.55,.23,.5,.31,.54,.7,.12,1.15-.22,.13-.46,.13-.7,.1-1.3-.56-2.68-.82-4.06-1.05-2.3-.39-4.63-.59-6.96-.48-2.91,.13-5.79,.43-8.47,1.69-.24,.11-.44,.11-.69,.03-2.04-.68-4.13-1.09-6.28-1.26-1.55-.12-3.09-.27-4.65-.12-2.22,.21-4.42,.48-6.51,1.3-.26,.1-.5,.06-.75-.04-2.67-1.09-5.44-1.23-8.26-.91-1.68,.19-3.31,.55-4.83,1.32-.79,.07-.95-.07-.92-.8,.08-.35,.34-.52,.65-.65,1.9-.78,3.86-1.26,5.92-1.36,.7-.03,1.39-.15,2.09-.11,.32,.02,.64,.02,.89,.27Z" fill="#047425"/><path d="M12.93,71.5c-3.05-.24-5.99,.19-8.83,1.35-.28,.11-.52,.28-.72,.5-.04-.33-.34-.3-.54-.38-.49-.18-.97-.34-1.35-.73-.8-.84-.71-1.86,.26-2.48,1.01-.64,2.12-.99,3.31-1.11,2.33-.24,4.67-.39,7.01-.49,.19,0,.37,0,.41-.24,.53,1.15,.64,2.35,.46,3.59Z" opacity=".3"/><path d="M56.45,73.56c.33-.62,.24-.89-.42-1.12-1.93-.67-3.93-1.05-5.96-1.28-.75-.08-1.5-.16-2.25-.24,.02-.77-.17-1.52-.22-2.29,.94,.12,1.88,.25,2.83,.37,1.53,.2,3.06,.39,4.59,.6,1.01,.14,1.99,.39,2.93,.77,.52,.21,.95,.59,1.01,1.22,.06,.63-.32,.99-.8,1.29-.53,.33-1.12,.5-1.71,.67Z" opacity=".3"/><path d="M46.91,12.51c-.03-.3-.12-.58-.24-.86-.66-1.53-.73-3.08-.17-4.65,.11-.3,.22-.6,.44-.84,.22-.23,.48-.4,.79-.18,.3,.21,.38,.49,.2,.83-.4,.77-.6,1.59-.6,2.47,0,.72,.22,1.38,.51,2.01,.39,.86,.38,1.68-.05,2.52-.56,1.11-.63,2.24-.12,3.4,.42,.94,.49,1.92,.29,2.92-.08,.39-.29,.68-.65,.65-.41-.03-.63-.43-.55-.8,.24-1.08-.15-2.02-.46-3.02-.4-1.24-.19-2.48,.37-3.66,.12-.26,.22-.51,.24-.79Z" fill="#ae9dab"/><path d="M19.39,.79c.5,0,.78,.42,.54,.84-.6,1.06-.45,2.11-.09,3.17,.49,1.44,.6,2.86-.05,4.3-.52,1.15-.22,2.34,.03,3.52,.18,.84,.23,1.7,.19,2.55-.02,.36-.19,.64-.56,.66-.37,.02-.62-.26-.62-.61,.01-1.32-.28-2.6-.49-3.9-.16-.98-.03-1.96,.37-2.86,.46-1.02,.38-2,.04-3.02-.38-1.13-.59-2.27-.3-3.46,.08-.32,.22-.6,.39-.87,.13-.22,.32-.35,.56-.34Z" fill="#ae9dab"/><path d="M51.5,17.34c.55-.02,.87,.34,.68,.74-.51,1.11-.3,2.17,.14,3.23,.39,.94,.4,1.91,.03,2.85-.31,.81-.37,1.62-.2,2.45,.2,.99,.07,1.99,.09,2.98,.01,.38-.19,.68-.6,.69-.41,0-.6-.28-.6-.67,0-1.27,0-2.54-.23-3.81-.1-.56,.05-1.12,.25-1.64,.39-.98,.36-1.92-.07-2.88-.44-1-.52-2.04-.17-3.08,.13-.38,.24-.83,.66-.87Z" fill="#ae9dab"/><path d="M12.11,23.46c-.04-.8,.15-1.52,.29-2.23,.18-.93,.12-1.8-.32-2.66-.5-.98-.89-2-.81-3.14,.04-.6,.17-1.18,.45-1.72,.1-.2,.23-.37,.42-.5,.24-.17,.5-.26,.76-.03,.27,.24,.28,.53,.1,.81-.75,1.18-.66,2.37-.07,3.57,.21,.43,.42,.86,.59,1.3,.31,.78,.31,1.59,.13,2.4-.24,1.09-.46,2.17-.23,3.3,.09,.42,.03,.86-.5,.9-.48,.04-.62-.37-.68-.76-.07-.43-.19-.86-.13-1.25Z" fill="#ae9eab"/><path d="M44.22,70.91c-.71,.05-1.42,.1-2.14,.15-.29,0-.27-.23-.22-.38,.35-1.26,.07-2.51-.1-3.74-.29-2.08,.19-4,1.04-5.87,.19-.42,.36-.84,.55-1.26,.52-1.11,.57-2.27,.36-3.45-.15-.87-.41-1.71-.58-2.57-.25-1.32-.04-2.62,.25-3.91,.09-.41,.17-.82,.32-1.22,.92-2.49,.39-4.79-.89-6.99-.43-.74-.87-1.48-1.27-2.24-.83-1.55-.98-3.18-.69-4.88,.08-.46,.4-.66,.87-.58,.24,.04,.45,.17,.67,.25,.42,.14,.82,.16,1.19-.12,.51-.32,.9-.74,1.12-1.31,.11,0,.17,.05,.21,.14,.14,.84,.12,1.71,.41,2.53,.26,.74,.6,1.43,1.08,2.05,.52,.66,1.02,1.33,1.45,2.05,.17,.28,.42,.54,.32,.92-.28,.2-.57,.44-.4,.82,.17,.38,.55,.47,.91,.36,.71-.21,1.45,.22,2.15-.09,.41,.12,.9,.11,1.14,.57,.13,.5,.39,.92,.76,1.27,.49,.47,.91,1,1.36,1.51,.51,.58,.76,1.23,.64,2.03-.18,1.13,.05,2.18,.8,3.09,.24,.29,.42,.63,.58,.97,.22,.47,.3,.95,.03,1.44-.57,1.06-.93,2.17-.63,3.39,.03,.14,0,.28-.07,.41-.35,.2-.58-.09-.85-.21-.13-.1-.22-.23-.3-.37-.59-1.09-.6-2.22-.28-3.4,.35-1.31,.12-1.81-.99-2.57-.05-.03-.09-.08-.13-.13-.26-.49-.49-1.01-.87-1.43,0-.41,0-.84-.57-.82-.5,.02-.61,.41-.64,.83-.01,.16,0,.31,0,.47-.65,.37-1.09,.92-1.36,1.61-.14,.35-.44,.57-.76,.74-.5,.26-.86,.64-1.11,1.14,0,.04,0,.08,0,.12-.04,.52-.25,.97-.54,1.41-.73,1.11-.77,2.36-.56,3.63,.04,.28,.09,.55,.14,.83,.14,.87,.05,1.69-.38,2.49-.74,1.37-1.37,2.8-1.53,4.37-.13,1.27-.08,2.54-.03,3.81,.03,.74,.12,1.52-.46,2.14Z" fill="#96a16b"/><path d="M48.17,40.48c-.4-.9-.95-1.71-1.57-2.45-1.24-1.49-1.82-3.18-1.78-5.1-.05-.59-.05-1.19-.03-1.78,.02-.58-.19-1.03-.59-1.44-.53-.54-1.16-.96-1.65-1.56-.55-.68-.96-1.42-1.21-2.25-.19-.63-.52-1.2-.71-1.83,0-.52,0-1.04,0-1.56,.26-.16,.4,.06,.56,.19,.51,.45,.94,.97,1.2,1.61,.09,.39,.23,.78,.39,1.15,.32,.91,.82,1.7,1.57,2.33,.15,.13,.29,.27,.34,.47,.01,.06,.02,.11,.03,.17,.1,.78,.16,.83,1,.85,.67,.67,.76,1.52,.66,2.38-.09,.82-.1,1.63-.07,2.44,.03,1.01,.5,1.87,1.08,2.67,.63,.87,1.34,1.68,1.79,2.67,.01,.06,.02,.12,0,.18-.17,.42-.63,.53-.89,.86h-.12Z" fill="#7e8752"/><path d="M42.67,25.48c-.21-.37-.39-.75-.39-1.18-.19-.46-.05-.87,.23-1.23,.3-.37,.25-.7,.02-1.08-.8-1.35-1.95-2.29-3.38-2.91-.2-.09-.43-.11-.56-.32,0-.14,0-.29-.01-.43,.91,.28,1.8,.59,2.6,1.14,.53,.37,1.06,.74,1.36,1.32,.92,1.77,2.32,3.17,3.6,4.66,1.19,1.4,1.84,3.03,1.74,4.87-.12,2.01,.32,3.85,1.34,5.58,.22,.37,.45,.75,.54,1.19,.02,.19,.14,.38-.07,.54-.3-.02-.38-.28-.47-.48-.49-1.03-1.05-2.01-1.58-3.01-.69-1.31-.93-2.71-.6-4.11,.37-1.6-.34-2.63-1.44-3.58-.24-.21-.46-.15-.72-.08-.93,.23-1.65-.06-2.2-.88Z" fill="#fefefe"/><path d="M55.37,56.3c.01-.77-.29-1.54,0-2.31,.13-.35,.19-.76,.39-1.06,.68-.99,.38-1.87-.27-2.67-.89-1.09-1.1-2.28-.88-3.64,.11-.67-.27-1.21-.71-1.7-.6-.66-1.19-1.33-1.77-2.02-.17-.21-.31-.46-.23-.75,.57-.13,1.01,.27,1.52,.37,.51,.33,.84,.86,1.34,1.2,.27,.24,.49,.53,.66,.86,.49,.86,.69,1.76,.5,2.75-.12,.61,.07,1.18,.41,1.7,.11,.17,.23,.33,.34,.49,.87,1.25,1.21,2.53,.36,3.95-.38,.65-.52,1.37-.34,2.13,.07,.3,.1,.64-.12,.92-.4,.1-.83-.17-1.21,.12-.09-.12-.1-.24,0-.36Z" fill="#7e8752"/><path d="M46.61,70.9c-.36,0-.71,0-1.07,0-.2-.24-.1-.5-.05-.75,.12-.63,.09-1.26,.04-1.9-.2-2.24-.05-4.45,1.1-6.45,.85-1.49,1.06-3,.73-4.66-.19-.98-.21-2,.34-2.91,.21-.36,.35-.89,.96-.8-.57,1.29-.56,2.61-.3,3.97,.24,1.26,.56,2.52,.19,3.81-.22,.75-.61,1.42-.94,2.13-.46,.99-.92,1.98-1.12,3.07-.22,1.25-.1,2.5,.06,3.74,.03,.26,.07,.51,.06,.77Z" fill="#858f5f"/><path d="M56.57,56.53c.08-.88-.37-1.78,.1-2.64,.09-.17,.14-.38,.24-.54,.82-1.31,.49-2.54-.34-3.66-.67-.9-1.01-1.8-.75-2.94,.12-.55-.06-1.14-.34-1.66-.09-.17-.22-.33-.23-.54,.65,.18,1.88,1.21,2.02,1.69-.07,.32-.01,.61,.19,.88,.15,.2,.3,.42,.33,.68,.04,.37,.33,.51,.59,.68,.3,.92,.21,1.85-.01,2.76-.2,.83-.56,1.63-.67,2.48-.13,.93-.26,1.85-.64,2.71-.13,.16-.31,.11-.48,.1Z" fill="#96a16b"/><path d="M48.66,53.43c-.82,.49-1.09,1.29-1.2,2.18-.13,1.12,.26,2.2,.25,3.32,0,.74-.16,1.41-.5,2.06-.68,1.33-1.31,2.67-1.5,4.18-.12,.97-.14,1.96-.02,2.92,.12,.97,0,1.89-.15,2.83-.2,0-.41,0-.61,0-.29-.22-.34-.54-.35-.86-.05-2.34,.08-4.65,1.02-6.85,.2-.48,.36-.97,.58-1.44,.72-1.53,.88-3.12,.57-4.78-.21-1.16-.07-2.3,.36-3.4,.11-.28,.23-.55,.45-.76,.29,.33,.73,.37,1.07,.6Z" fill="#707948"/><path d="M47.58,52.82c-.45,1.15-.85,2.32-.72,3.59,.07,.65,.17,1.3,.23,1.95,.15,1.49-.47,2.81-1.01,4.13-.68,1.67-1.2,3.35-1.3,5.17-.06,1.1-.18,2.17,.15,3.25-.24,0-.48,0-.72,0,.24-.8,.33-1.59,.27-2.45-.2-2.65,0-5.27,1.43-7.61,.66-1.09,.68-2.21,.43-3.39-.33-1.58-.2-3.08,.87-4.38,.22-.26,.16-.6,.35-.86,0,.2,0,.4,0,.6Z" fill="#7e8752"/><path d="M57.18,46.2c-.12-.37-.47-.53-.74-.75-.39-.31-.79-.6-1.18-.9-.19-.24-.39-.48-.58-.73-.37-.43-.6-1-1.22-1.17-.54-.09-1.05-.31-1.56-.5-.35-.2-.71-.39-1.06-.59,.77-.25,1.42-.01,2.06,.42,.25,.17,.59,.25,.9,.28,.71,.07,1.23,.41,1.58,1.02,.45,.79,1.06,1.42,1.69,2.07,1.74,1.78,2.23,3.92,1.44,6.25-.42,1.25-.77,2.49-.86,3.81-.03,.44-.18,.81-.6,1.02-.08-.03-.27,0-.2-.13,.78-1.31,.53-2.88,1.09-4.24,.41-.97,.5-2,.42-3.05-.01-.17,.04-.37-.12-.5-.32-.78-.7-1.54-1.07-2.31Z" fill="#fefefd"/><path d="M54.41,55.7c.08,.08,.16,.16,.23,.24,.15,.25,.42,.42,.48,.73-.46,.19-.9,.5-1.44,.36-.95-1.39-1.39-2.88-.97-4.56,.05-.21,.07-.43,.23-.6,.16-.04,.21,.07,.25,.18,.06,.15,.07,.32,.05,.47-.15,1.26,.28,2.3,1.16,3.18Z" fill="#707948"/><path d="M52.97,51.87c-.08,.51-.18,1.01-.24,1.52-.12,1.18,.31,2.21,.84,3.22,.07,.13,.24,.23,.11,.41-1.03-.19-1.77-2.36-1.52-3.4,.24-.97,.38-1.95,.32-2.95,.3-.06,.46,.14,.61,.34,.13,.31,.23,.62-.13,.86Z" fill="#858f5e"/><path d="M48.9,52.22c-.32-.12-.59-.38-.97-.36,0-.49,.48-1.01,1.13-1.03,.64-.01,.87-.34,1.04-.85,.09-.26,.19-.52,.3-.78,.07-.18,.13-.39,.4-.35,.13,.31,.2,.63,.24,.96-.46,1.03-1.04,1.95-2.15,2.39Z" fill="#707948"/><path d="M50.81,48.87c-.39,.37-.4,.92-.63,1.37-.21,.4-.29,.84-1,.73-.51-.08-1.06,.28-1.25,.9-.12,.08-.24,.16-.35,.24,0-.53,.32-.87,.73-1.07,.65-.32,1.05-.8,1.31-1.45,.21-.52,.6-.87,1.18-.96,0,.08,0,.16,0,.24Z" fill="#7e8852"/><path d="M50.12,38.21c.43,.59,.29,1.32,.42,1.98,.05,.24-.21,.31-.42,.29-.25-.02-.5-.07-.75-.11-.21-.19-.33-.42-.25-.71h0c.19-.4,.36-.8,.34-1.26,0-.2,.07-.39,.3-.46,.2,0,.21,.2,.34,.28Z" fill="#858f5f"/><path d="M48.9,52.22c.08-.17,.21-.28,.37-.36,.6-.3,1.02-.78,1.29-1.4,.11-.25,.22-.51,.49-.63,.08,.26,.18,.52,.23,.79,.13,.75,.04,.9-.68,1.1-.57,.16-1.1,.45-1.7,.5Z" fill="#858f5e"/><path d="M52.97,51.03c-.16-.12-.32-.24-.48-.36-.08-.48-.16-.96-.24-1.44,.34-.21,.49,.12,.72,.24,0,.04,0,.07,0,.11,.41,.58,.4,1.08,0,1.45Z" fill="#707948"/><path d="M52.97,49.47c-.24-.08-.48-.16-.72-.24-.19-.34-.26-.7-.23-1.08,.61,.23,.66,.86,.95,1.32Z" fill="#858f5e"/><path d="M49.13,39.64c.08,.24,.17,.48,.25,.71-.37-.02-.73,0-1.08,.12,.08-.47,.57-.54,.83-.83Z" fill="#707948"/><path d="M55.13,56.67c-.29-.16-.43-.41-.48-.73,.24,.12,.48,.24,.72,.35,0,.12,0,.24,0,.36-.08,0-.16,0-.24,.01Z" fill="#858f5e"/><path d="M50.12,38.21c-.15,0-.19-.15-.28-.24-.14-.09-.32-.15-.21-.37,.17-.14,.08-.34,.13-.51,.23,.34,.33,.72,.36,1.12Z" fill="#dcddda"/><path d="M40.51,71.28c-1.52,.32-3.03,.65-4.46,1.29-.17,.08-.34,0-.52-.04-2.5-.7-5.03-1.11-7.63-1.28-1.68-.11-3.34,.03-5,.14-.33-.3-.43-.72-.51-1.13-.17-.86-.33-1.74-.25-2.61,.16-1.81-.42-3.39-1.32-4.88-1.25-2.05-1.66-4.25-1.35-6.61,.21-1.6,.13-3.18-.33-4.74-.39-1.32-.62-2.67-.63-4.07,0-1.26,.3-2.4,.84-3.51,.48-.99,1.02-1.94,1.34-3,.46-1.54,.08-3.05-.19-4.55-.04-.44-.15-.88,.1-1.29,.94-.5,1.95-.63,2.99-.66,1.45-.04,2.52-.96,2.78-2.38,.39-.86,.62-1.74,.57-2.71-.07-1.32-1.17-2.22-2.47-1.98-.25,.05-.49,.2-.75,.05-.12-.19-.05-.38,0-.57,.19-.85,.31-1.71,.6-2.53,.14-.38,.24-.81,.65-1.02,.24,0,.36,.24,.59,.26,.35,.03,.81-.26,.87-.59,.1-.58-.43-.37-.68-.52-.21-.15-.15-.31-.03-.48,.09-.1,.2-.17,.32-.22,.71-.3,1.36-.03,2.02,.2,.28,.1,.35,.33,.29,.58-.29,1.24,.23,2.3,.72,3.36,.1,.22,.18,.43,.19,.68,.04,.28-.13,.49-.24,.73-.14,.31-.22,.62,.03,.9,.26,.3,.59,.35,.98,.22,1.2-.39,2.1-1.22,2.52-2.31,.41-1.05,1.1-1.65,1.98-2.18,.06,0,.13,0,.17,.04,.91,.78,1.99,.98,3.15,.92,.06,.01,.12,.04,.17,.07,.97,1.01,1.55,2.25,2.04,3.54,.06,.17,.12,.34,0,.52-.78,.44-1.48,.32-2.2-.38-1.06-1.02-2.52-.89-3.38,.32-.66,.93-.59,1.91-.08,2.88,.13,.25,.3,.47,.41,.73,.65,1.19,1.7,1.83,2.99,2.08,.5,.1,1.02,.19,1.55,.1,.41-.07,.6,.12,.55,.55-.22,2.12,.36,4.02,1.48,5.8,.54,.86,1.03,1.75,1.42,2.7,.54,1.3,.65,2.61,.28,3.98-.36,1.29-.71,2.57-.86,3.91-.13,1.21,.06,2.34,.33,3.49,.15,.66,.34,1.31,.42,1.99,.14,1.19-.28,2.24-.78,3.27-.86,1.76-1.43,3.6-1.36,5.59,.03,.92,.17,1.83,.3,2.74,.11,.75,0,1.47-.25,2.18-.07,.19-.15,.37-.35,.46Z" fill="#96a16b"/><path d="M15.93,26.57c.6-.39,1.27-.68,1.68-1.32,.61-.47,.91-1.13,1.09-1.85,.22-.84,.42-1.7,1.07-2.34,.18-.29,.7-.25,.72-.71,.12,0,.24,0,.36,0,.34,.17,.78,.2,.88,.68-.03,.12-.11,.21-.2,.29-.68,.61-1.11,1.36-1.28,2.25-.29,1.43-1.03,2.53-2.24,3.34-.4,.27-.78,.56-1.11,.91-.67,.71-1.05,1.54-1.05,2.53,.01,1.63-.38,3.16-1.24,4.56-.59,.97-.89,2.04-.93,3.19-.02,.74-.11,1.48-.39,2.17-.09,.21-.14,.58-.55,.38,.12-1.51-.16-3-.24-4.5-.02-.24,.08-.45,.15-.66,.14-.44,.3-.87,.55-1.26,.71-1.08,1.11-2.29,1.09-3.56-.03-1.63,.53-2.95,1.63-4.1Z" fill="#7e8752"/><path d="M29.85,18.91c-.26-.35-.37-.8-.73-1.09-.18-.11-.31-.26-.36-.47-.11-.43-.36-.85-.11-1.31,.12-.53,.55-.63,.98-.67,.31-.03,.57-.1,.81-.28,.35-.32,.77-.53,1.18-.74,.33-.23,.65-.14,.97,.02,.37,.51,.84,.66,1.47,.56,.62-.09,1.17,.13,1.57,.64,.14,.17,.28,.34,.2,.59-.02,1.06-.24,1.3-1.28,1.33-.38,.01-.68,.08-.82,.51-.09,.27-.34,.48-.65,.57-.51,.3-1.01,.63-1.52,.93-.67,.09-1.33,.16-1.72-.58Z" fill="#dfb177"/><path d="M29.85,18.91c.5,.51,1.13,.53,1.78,.48,.76,.33,1.24,1.28,1.09,2.23-.11,.69-.3,1.35-.81,1.89-.42,.44-.63,1.01-.84,1.58-.09,.26-.11,.61-.51,.65-.35-1.06-.54-2.11-.16-3.24,.22-.67-.12-1.31-.56-1.87-.64-.82-.63-1.1,.01-1.72Z" fill="#dd7f78"/><path d="M28.76,17.35c.19,.11,.34,.24,.36,.47-.56,.63-1.02,1.27-.99,2.21,.02,.57-.45,.27-.67,.12-.65-.43-1.38-.63-2.03-.25-.9,.53-1.54,.39-2.23-.33-.29-.3-.76-.43-1.21-.42-.24,0-.46-.05-.73-.2,.67-.28,1.31-.44,1.98-.52,.61,.12,1.22,.1,1.82-.09,.13-.04,.28-.08,.41-.05,.9,.18,1.62-.22,2.3-.73,.22-.17,.47-.29,.76-.31,.08,.04,.16,.08,.25,.11Z" fill="#c6716a"/><path d="M40.63,24.06c.45,.46,.62,1.06,.8,1.64,.42,1.37,1.18,2.5,2.33,3.38,.79,.6,1.37,1.34,1.18,2.44-.08,.46,.13,.95-.13,1.4-.03-.04-.06-.08-.09-.12-.33-.83-1.05-1.43-1.25-2.37-.16-.75-.85-1.17-1.6-1.38-.24-.07-.52-.07-.7-.29-.36-.95-.7-1.9-1.19-2.8-.07-.14-.14-.29-.07-.45,.46-.12,.46-.55,.57-.89,.06-.18,.04-.39,.15-.56Z" fill="#96a16b"/><path d="M30.56,25.73c.27-.26,.34-.62,.46-.95,.2-.57,.48-1.09,.89-1.53,.9-.97,.91-2.52,.03-3.51-.11-.12-.2-.24-.3-.36,.41-.42,.85-.76,1.46-.82,.4,.43,.38,.99,.45,1.51,.05,.38,.14,.74,.3,1.08,.42,.89,.27,1.57-.61,2.04-.85,.45-1.38,1.07-1.64,2-.14,.53-.52,.96-.96,1.35-.12-.29-.05-.55-.06-.79Z" fill="#c6716a"/><path d="M38.61,18.76c1.96,.58,3.39,1.78,4.31,3.61,.09,.18,.12,.31-.04,.47-.41,.4-.57,.9-.59,1.46-.44-.7-.86-1.42-1.64-1.8-.14-.93-.7-1.62-1.36-2.23-.45-.42-.67-.91-.67-1.51Z" fill="#96a16b"/><path d="M35.36,17.83c.37-.02,.47-.5,.85-.49,.5,.05,.61,.45,.59,.82-.07,1.16,.43,2.03,1.23,2.8,.31,.3,.61,.64,.82,1.03,.13,.24,.31,.49,.09,.77-1.67-.07-2.67-.69-3.27-2.04-.34-.76-.38-1.58-.47-2.39-.02-.18,.04-.35,.16-.5Z" fill="#dd8079"/><path d="M30.44,15.08c-.08,.33-.23,.48-.63,.42-.47-.08-.86,.16-1.16,.53-1.23-.52-2.47-.52-3.7-.01-.89,.37-1.18,.37-2.12-.2,.53-.49,1.29-.4,1.86-.74,.95,0,1.84-.25,2.69-.68,1.03-.53,2.03-.45,2.94,.31,.14,.1,.11,.24,.11,.38Z" fill="#c6716a"/><path d="M30.33,14.71c-.46-.07-.82-.41-1.28-.47-.72-.09-1.35,.16-1.98,.47-.74,.37-1.51,.67-2.37,.37,.63-.31,1.05-.83,1.41-1.41,.23-.37,.48-.73,.82-1.02,.51-.45,1.14-.36,1.41,.26,.25,.57,.67,.85,1.24,1,.4,.11,.75,.29,.76,.79Z" fill="#dd7f78"/><path d="M32.59,14.47c-.31-.11-.64-.14-.97-.13-.03-.55,.18-.99,.62-1.32,1.38-.8,2.52-.55,3.5,.7,.26,.34,.62,.62,1.03,.79,.12,.05,.21,.12,.17,.27-.44,.37-.97,.3-1.39,.07-.85-.47-1.71-.55-2.63-.31-.12,.03-.24,0-.34-.06Z" fill="#dd8079"/><path d="M35.36,17.83c-.04,.8,.09,1.59,.3,2.35,.32,1.19,1.05,2.03,2.32,2.3,.33,.07,.65,.17,.97,.26,.21,.11,.26,.26,.14,.47-.59-.07-1.17-.17-1.76-.21-.42-.03-.72-.22-.97-.51-.54-.63-1.29-1.09-1.49-1.99-.08-.35-.18-.71-.19-1.04-.02-.63-.25-1.15-.58-1.69,.46-.17,.84,.37,1.27,.08Z" fill="#c6706a"/><path d="M28.52,17.23c-.46,.31-.91,.63-1.38,.91-.39,.23-.78,.42-1.28,.29-.43-.11-.86,.06-1.28,.15-.46,.1-.94,.21-1.34-.18,.74-.43,1.46-.9,2.22-1.27,1.01-.49,2.05-.32,3.06,.08Z" fill="#dd7f78"/><path d="M39.91,25.52c.51,1.04,1.1,2.05,1.31,3.21-.39,.22-.78,.37-1.21,.11-.41-1.32-.98-2.56-1.88-3.62-.07-.09-.1-.21-.16-.31,.36-.28,.71-.22,1.07,0,.16,.38,.38,.67,.86,.62Z" fill="#7e8752"/><path d="M32.59,14.47c1.04-.34,2.03-.41,3.01,.22,.38,.25,.87,.22,1.3,.02,.09-.11,.2-.05,.31-.06,.17,.08,.33,.19,.53,.06l.41,.15c.09,.12,.33,.08,.31,.31-.94,.16-1.73,.72-2.63,.97-.4-.88-1.12-1.26-2.03-1.06-.66,.15-.98-.08-1.22-.62Z" fill="#c6716a"/><path d="M29.23,26.45c-.49-.9-.95-1.81-1.14-2.85-.08-.44,.09-.82,.08-1.24,0-.19,.04-.31-.2-.4-.65-.23-1.28-.46-1.97-.2,0-.4,.29-.55,.6-.7,.67,.41,1.35,.66,2.14,.33,.22-.09,.55,.5,.48,.87-.06,.29-.13,.58-.22,.86-.26,.9,.08,1.72,.29,2.56,.07,.27,.08,.51-.06,.75Z" fill="#868f5f"/><path d="M39.09,23.21c-.02-.16-.02-.33-.14-.47,0-.66-.5-1.05-.88-1.5-.3-.35-.65-.64-.9-1.03-.37-.57-.57-1.17-.5-1.85,.04-.43-.07-.78-.46-1.02,.37-.29,.58,0,.76,.24,.28,.35,.38,.8,.4,1.23,.05,1,.45,1.79,1.17,2.46,.52,.48,.94,1.02,.92,1.8-.01,.4-.15,.34-.37,.14Z" fill="#fefdfd"/><path d="M37.87,24.9c-1.27,.1-2.46-.06-3.36-1.09,.59-.79,.6-.81,1.31-.16,.52,.49,1.18,.52,1.81,.65,.15,.17,.31,.34,.24,.6Z" fill="#868f5f"/><path d="M37.27,14.7c-.12,0-.24,0-.36,.01-.63-.31-1.19-.72-1.65-1.24-.62-.7-1.32-1.05-2.27-.6-.2,.1-.47,.21-.74,.14,.34-.35,.77-.56,1.22-.68,.98-.27,1.54-.04,2.11,.85,.42,.65,.94,1.18,1.69,1.43,.04,.02,.05,.04,.04,.06-.01,.02-.02,.03-.03,.03Z" fill="#fdfcfc"/><path d="M22.29,20.47c.25,0,.38,.2,.53,.34,.48,.48,1.04,.78,1.74,.74,.04,.3-.14,.48-.35,.64-.06,.02-.12,.02-.17,.02-.87-.19-1.72-.4-2.26-1.2,.06-.29,.32-.38,.52-.53Z" fill="#868f5f"/><path d="M24.21,22.14c.12-.2,.23-.39,.35-.59,.41-.09,.78-.28,1.15-.47,.3-.15,.59-.23,.89,0-.2,.23-.4,.46-.6,.7-.08,.04-.16,.08-.23,.13-.49,.28-.98,.56-1.56,.24Z" fill="#707948"/><path d="M37.87,24.9c-.11-.19-.29-.35-.24-.6,.56,.01,1.17-.12,1.43,.6-.36,0-.72,0-1.07,0-.04,0-.07,0-.11,0Z" fill="#717848"/><path d="M22.29,20.47c-.01,.31-.28,.36-.48,.48-.04,.04-.08,.04-.11,0-.28-.2-.56-.41-.85-.61,.48,.03,.98-.11,1.44,.13Z" fill="#707948"/><path d="M38.73,15.06c.16,0,.3,.07,.41,.21-.21,.08-.38,.05-.54-.09-.02-.11,0-.17,.13-.12Z" fill="#f9eeec"/><path d="M38.73,15.06s-.09,.08-.13,.12c-.04,0-.08,0-.12,0-.09-.12-.28-.14-.31-.31,.19,.06,.41,.03,.57,.19Z" fill="#edcbc8"/><path d="M37.27,14.7s0-.06,0-.09c.16,.03,.32,.06,.48,.1-.16,.22-.32,.14-.48,0Z" fill="#f7ebea"/><path d="M21.69,20.95s.08,0,.11,0c.6,.7,1.46,.91,2.28,1.19,.15,.21,0,.38-.1,.55-.48,.86-.82,1.78-.94,2.75-.19,1.48-.86,2.67-2.01,3.61-.27,.22-.59,.18-.91,.2-1.68,.1-3.08,1.37-3.34,3.04-.1,.6,.02,1.14,.48,1.58,.23,.22,.47,.44,.53,.77-.01,.45-.04,.91-.03,1.36,.03,1.01,.66,1.64,1.68,1.67,.14,0,.28-.03,.38,.1,.15,.35,.13,.71,.03,1.06-.09,.18-.26,.14-.42,.13-.83-.05-1.28,.21-1.49,.87-.23,.72,.03,1.49,.63,1.9,.18,.12,.42,.14,.51,.38-.02,.42-.26,.75-.45,1.1-1.06,2.01-1.3,4.11-.85,6.33,.28,1.39,.75,2.73,.88,4.16,.05,.53-.02,1.03-.06,1.55-.06,.79-.13,1.59-.18,2.38-.04,.16-.16,.27-.24,.41-.3,.49-.22,.76,.35,1.41,.26,.65,.34,1.35,.6,2,.4,1.02,1,1.95,1.48,2.93,.41,.84,.65,1.7,.61,2.64-.06,1.36,.07,2.7,.42,4.02,.05,.2,.17,.43-.11,.58-1.09,.14-2.15,.4-3.18,.75-.44,.15-.84,.17-1.24-.05-.16-.17-.1-.37-.08-.57,.1-1.02-.09-1.98-.49-2.91-.6-1.4-1.01-2.85-.92-4.41,.08-1.43-.31-2.77-.96-4.02-.88-1.69-1.65-3.41-1.97-5.3-.11-.63-.17-1.26-.22-1.89,0-.1,.02-.2,.09-.28,.39-.32,.49-.67,.11-1.08-.32-.45-.69-.87-.82-1.42-.09-1.02-.77-1.41-1.67-1.57-.05-.02-.1-.04-.15-.08-.24-.34-.42-.7-.71-1.01-.19-.29-.44-.45-.78-.34-.39,.13-.41,.47-.42,.81-.31,.26-.75,.3-1.05,.59-.83,.65-1.18,1.7-.9,2.7,.14,.52,.34,1.02,.5,1.53,.03,.12,.05,.24,.05,.37-.05,.94-.2,1.86-.86,2.6-.23,.26-.46,.56-.88,.51-.62-.77-.89-1.64-.64-2.62,.33-1.3,.45-2.62-.14-3.87-.7-1.49-.1-2.63,1-3.54,1.04-.86,1.61-1.9,1.79-3.2,.03-.26,.09-.51,.3-.7,.16-.11,.35-.19,.49-.33,.4-.4,.78-.45,1.23-.05,.52,.46,1.09,.34,1.58-.03,.37-.28,.72-.45,1.19-.43,.36,.01,.68-.12,.67-.58,.1-.17,.07-.45,.36-.48,.49-.42,.47-1.02,.6-1.57,.17-.7,.07-1.42,.23-2.13,.18-.8,.43-1.57,.88-2.27,.75-1.17,1.19-2.47,1.14-3.83-.07-1.87,.74-3.15,2.23-4.13,1.15-.75,1.9-1.79,2.16-3.16,.21-1.1,.76-1.99,1.64-2.68Z" fill="#96a16b"/><path d="M16.05,71.98c-.6-.12-1.19-.23-1.79-.35,.04-1.36-.03-2.69-.54-3.99-.2-.51-.14-1.12-.03-1.66,.24-1.25-.1-2.4-.5-3.54-.37-1.05-.94-2.02-1.45-3.01-.98-1.91-1.2-3.94-1.06-6.03,0-.07,.07-.14,.11-.2,.8,.13,.79,.13,.9,1.02,.23,1.87,.74,3.67,1.58,5.36,.4,.82,.87,1.61,1.16,2.49,.24,.73,.4,1.47,.36,2.23-.1,1.72,.31,3.32,.98,4.88,.3,.7,.49,1.43,.47,2.2,0,.22,0,.44-.17,.61Z" fill="#858f5f"/><path d="M7.3,42.63c-.17,.65-.2,1.33-.43,1.97-.27,.78-.74,1.39-1.39,1.89-.6,.47-1.06,1.07-1.35,1.79-.16,.41-.06,.82,.08,1.22,.32,.92,.66,1.83,.59,2.84-.03,.42-.09,.83-.21,1.23-.26,.91-.22,1.76,.3,2.58,.07,.11,.1,.26,.14,.39,.03,.04,.03,.09,0,.13-.25,.26-.5,.11-.75,0-.27-.12-.54-.23-.81-.35-.48-.74-.44-1.55-.34-2.37,.04-.37,.14-.74,.22-1.11,.14-.64,.1-1.26-.12-1.88-.23-.64-.46-1.27-.51-1.96-.08-1,.32-1.82,.92-2.57,.21-.26,.44-.51,.7-.74,.74-.66,1.37-1.39,1.47-2.44,.01-.14,.09-.26,.19-.37,.47,.05,.9-.08,1.32-.25Z" fill="#7e8752"/><path d="M5.98,42.88c-.07,.96-.31,1.82-1.09,2.49-.46,.4-.88,.85-1.27,1.34-.79,.99-1.01,2.1-.55,3.24,.54,1.35,.6,2.67,.21,4.06-.18,.64-.1,1.34,.16,1.99,.04,.1,.15,.2,.03,.32-.97-.36-1.13-.64-1.21-1.67-.08-1.2-.16-2.4-.61-3.56-.65-1.69-.19-3.22,1.04-4.47,.74-.75,1.34-1.54,1.75-2.52,.26-.64,.71-1.22,1.54-1.21Z" fill="#96a16b"/><path d="M16.05,71.98c.09-1.1-.17-2.12-.59-3.12-.55-1.31-.92-2.66-.84-4.1,.07-1.42-.25-2.76-.95-4-1.08-1.94-1.81-4.01-2.14-6.22-.01-.1-.03-.2-.03-.3,.03-.54-.11-.96-.72-1.05,.62,.04,1.22-.02,1.8-.24,0,.08,0,.16,0,.24,.07,1.84,.49,3.61,1,5.37,.22,.77,.51,1.51,.79,2.25,.71,1.85,1.15,3.77,1.37,5.74,.1,.84,.39,1.63,.61,2.43,.2,.73,.39,1.47,.33,2.23-.02,.32-.04,.65-.4,.8-.08,0-.16-.02-.24-.03Z" fill="#707948"/><path d="M6.59,53.42c0-.12,0-.24,0-.35-.19-.94-.19-1.89-.17-2.84,.01-.58,.18-1.1,.65-1.48,.28-.34,.64-.48,1.07-.49,.15,.39,.23,.8,.25,1.21-.13,.13-.3,.19-.45,.29-.53,.37-.72,.89-.56,1.51,.14,.51,.36,1.01,.4,1.54-.08,.84,.13,1.68,.01,2.53-.12,.82-.39,1.53-1.08,2.03-.24-.25-.2-.57-.1-.83,.4-1.05,.23-2.09-.02-3.13Z" fill="#707948"/><path d="M15.93,26.57c.06,.32-.21,.47-.37,.67-.67,.83-1.07,1.75-1.07,2.83,0,1.53-.3,2.99-1.18,4.29-.24,.36-.42,.77-.5,1.2-.2,.02-.24-.14-.23-.27,.05-.39-.03-.79,.1-1.17,.45-.81,.98-1.59,1.08-2.54,.08-.77,.2-1.53,.22-2.3,.04-1.35,.86-2.11,1.94-2.7Z" fill="#96a16a"/><path d="M6.59,53.42c.47,.89,.61,1.83,.27,2.79-.13,.38-.19,.77-.16,1.17-.75,.49-1.61,.12-1.68-.72,0-.04,0-.09,0-.13,1.24-.68,1.47-1.86,1.56-3.11Z" fill="#858f5f"/><path d="M11.97,50.43c.14,.53,.66,.87,.71,1.44-.46-.21-.87,.12-1.31,.12-.41-.17-.6-.52-.65-.93-.07-.58-.29-.97-.94-.99-.08,0-.14-.07-.2-.12,.02-.49-.01-.97-.12-1.44,.27-.1,.43,.09,.6,.24,.04,0,.08,0,.11,.01,.51,.65,1.12,1.2,1.79,1.67Z" fill="#707948"/><path d="M12.82,40.72c-.12,.16-.24,.32-.36,.48,.03-.43-.26-.54-.6-.61,.05-.29,.04-.58,.11-.87,.22-.73,.1-1.49,.2-2.23,.07-.5,.03-1.04,.41-1.45,.23,1.55,.56,3.1,.24,4.68Z" fill="#707948"/><path d="M12.58,36.05c-.28,1.13-.24,2.31-.48,3.45-.02,.09-.08,.17-.12,.26-.03-.03-.04-.05-.03-.08,.01-.03,.02-.04,.03-.04-.04-1.05-.12-2.11-.11-3.16,.01-.86,.2-1.7,.82-2.36,.11,.36,.2,.71,.04,1.08-.06,.13-.04,.27,.09,.37-.08,.16-.16,.32-.24,.48Z" fill="#858f5e"/><path d="M7.78,52.82c-.29-.54-.47-1.12-.59-1.71-.17-.8,.36-1.5,1.19-1.63,.07,1.16-.49,2.21-.6,3.35Z" fill="#858f5f"/><path d="M9.59,49.95c.22,.01,.44,0,.65,.04,.33,.06,.56,.19,.56,.62,0,.52,.22,.99,.58,1.38-.74,.16-1.22-.49-1.87-.62-.17-.03-.05-.2-.04-.3,.02-.37,.18-.73,.12-1.11Z" fill="#858f5f"/><path d="M19.78,21.06c-.52,.92-.82,1.92-1.09,2.93-.17,.64-.61,1.09-1.07,1.26,.38-.5,.57-1.08,.72-1.67,.2-.77,.49-1.49,.95-2.15,.13-.18,.24-.36,.49-.38Z" fill="#96a16a"/><path d="M10.07,48.74c-.23,0-.4-.15-.6-.24-.04-.24-.08-.48-.12-.72,.46,.15,.61,.54,.73,.95Z" fill="#86905f"/><path d="M11.98,39.64s0,.08,0,.12c0,.29,.05,.58-.12,.84-.07-.33-.05-.66,.12-.96Z" fill="#7e8858"/><path d="M40.51,71.28c.57-1.12,.55-2.3,.33-3.49-.43-2.25-.19-4.43,.73-6.52,.23-.51,.44-1.02,.69-1.52,.68-1.34,.64-2.72,.24-4.12-.3-1.07-.6-2.16-.54-3.28,.07-1.08,.2-2.17,.51-3.22,.21-.7,.38-1.42,.54-2.13,.42-1.81-.36-3.35-1.18-4.86-.75-1.38-1.68-2.66-1.99-4.25-.17-.89-.27-1.78-.14-2.67,.07-.49-.04-.45-.44-.42-1.64,.15-3.64-.45-4.62-2.23-.02-.03,0-.08-.01-.12,.26-.05,.4,.15,.56,.28,1.15,.91,2.45,1.37,3.93,1.37,.68,0,1.3-.19,1.88-.51,.46-.26,.89-.32,1.29,.11,.2,.21,.48,.26,.77,.27,.23,0,.49-.04,.67,.16-.47,.44-1.03,.49-1.69,.15-.8-.4-.97-.25-1.09,.61-.18,1.31-.1,2.58,.4,3.8,.41,1,1.01,1.89,1.54,2.83,.88,1.54,1.54,3.15,1.42,4.97-.07,1.12-.48,2.17-.75,3.24-.43,1.76-.55,3.5,0,5.27,.21,.67,.33,1.38,.4,2.1,.15,1.42-.39,2.66-.97,3.88-.76,1.6-1.25,3.27-1.18,5.05,.04,1.03,.24,2.04,.34,3.07,.05,.52,.01,1.04-.16,1.53-.06,.16-.11,.3,.06,.43-.52,.14-1.04,.19-1.57,.21Z" fill="#7e8752"/><path d="M19.78,38.9v-1.15c.34-.45,.43-1.05,.82-1.47,.64,2.06,.71,4.08-.31,6.05-.56,1.08-1.2,2.13-1.45,3.34-.34,1.69-.15,3.36,.28,5.01,.34,1.31,.74,2.61,.65,3.98-.06,.87-.2,1.74-.23,2.61-.06,1.93,.39,3.73,1.41,5.4,.93,1.51,1.51,3.13,1.36,4.98-.1,1.26,.12,2.53,.58,3.74-.44,.08-.88,.16-1.33,.24,.12-.18,.01-.35-.03-.51-.29-1.04-.51-2.09-.43-3.17,.12-1.59-.22-3.03-1.06-4.38-.79-1.28-1.35-2.65-1.6-4.14,.76-.51,.72-1.24-.12-1.68-.02-1.07,.15-2.14,.21-3.2,.07-1.15-.24-2.28-.55-3.39-.34-1.2-.58-2.44-.61-3.69-.04-1.97,.71-3.72,1.67-5.4,.04-.07,.1-.11,.18-.15,1.22-.56,1.48-1.52,.72-2.64-.08-.11-.18-.22-.17-.37Z" fill="#7e8752"/><path d="M16.29,72.01c.43-.71,.32-1.5,.1-2.2-.64-1.97-.86-4.02-1.29-6.04-.3-1.45-.87-2.8-1.35-4.19-.72-2.07-1.23-4.18-1.17-6.4,.22,.66,.18,1.36,.32,2.03,.29,1.46,.76,2.84,1.45,4.15,.63,1.2,1.22,2.41,1.42,3.78,.08,.54,.06,1.07,.04,1.61-.04,1.36,.32,2.65,.85,3.87,.53,1.2,.75,2.42,.48,3.71-.28-.11-.57-.21-.85-.32Z" fill="#7e8752"/><path d="M43.74,34.13c-.68,.03-1.36,.07-1.85-.57-.17-.22-.42-.03-.59,.06-2.11,1.16-4.06,.64-5.93-.57-.26-.17-.49-.4-.73-.61-.29-.5-.61-.97-.73-1.55-.39-1.79,.95-3.35,2.78-3.26,.51,.03,.88,.28,1.16,.64,.59,.77,1.33,.85,2.18,.56,.4-.04,.8-.07,1.21-.11,.5,.17,1.06,.19,1.51,.52,.34,.25,.67,.53,.82,.93,.26,.69,.41,1.42,1.02,1.94,.19,.16,.11,.45,.15,.69,0,.68-.48,1.01-.98,1.32Z" fill="#553826"/><path d="M52.97,51.03c.25-.48,.09-.96,0-1.45,1.04,.38,1.59,1.31,1.27,2.42-.37,1.28-.4,2.49,.17,3.7-.98-.62-1.37-1.53-1.33-2.67,.01-.38,.13-.79-.11-1.16,.16-.28,.16-.56,0-.84Z" fill="#7e8752"/><path d="M44.21,64.41c-.09,.28-.03,.64-.04,1.01,0,.37-.3,.64-.74,.59-.46-.05-.76-.3-.75-.76,0-.43,.13-.87,.39-1.23,.19-.26,.49-.36,.8-.26,.25,.08,.37,.28,.35,.65Z" fill="#727c48"/><path d="M46.14,48.66c-.05-.32,.08-.6,.15-.89,.07-.27,.1-.65,.54-.56,.4,.09,.78,.21,.75,.75-.03,.39-.12,.75-.36,1.05-.18,.23-.43,.39-.73,.3-.32-.1-.39-.37-.35-.66Z" fill="#727c48"/><path d="M49.63,37.6c.07,.12,.14,.25,.21,.37-.3,.15-.23,.43-.23,.67,.01,.42-.09,.78-.48,1-.48-.97-1.11-1.85-1.8-2.67-1.27-1.52-1.35-3.27-1.14-5.09,.11-.93-.01-1.77-.53-2.55-.13-.22-.02-.46-.03-.69-.04-.6-.3-.74-.83-.44-.07,.04-.13,.08-.22,.05-.65-.71-1.41-1.33-1.74-2.28-.06-.17-.11-.33-.17-.5,.73,.68,1.52,1.1,2.52,.56,.11-.06,.19-.04,.27,.04,.65,.66,1.41,1.24,1.77,2.15,.21,.55,.07,1.08-.03,1.59-.29,1.61-.06,3.12,.74,4.55,.59,1.06,1.13,2.15,1.69,3.22Z" fill="#96a16b"/><path d="M44.59,28.26c.19-.26,.37-.53,.76-.42,.4,.12,.44,.45,.45,.81,0,.24,0,.47-.13,.68-.79,.29-1.09,0-1.08-1.07Z" fill="#fdfdfc"/><path d="M53.45,42.65c.86-.08,.98,.61,1.22,1.17-.49-.31-.84-.75-1.22-1.17Z" fill="#9aa46f"/><path d="M57.18,46.2c.6,.65,.97,1.42,1.07,2.31-.04,0-.08,0-.11-.02-.47-.22-1.12-1.79-.95-2.29Z" fill="#737d4a"/><path d="M57.28,49.83c0-.23,.03-.47,.33-.46,.27,.01,.34,.26,.37,.47,.04,.25-.14,.42-.37,.44-.29,.02-.32-.22-.32-.45Z" fill="#737d49"/><path d="M17.72,34.61c-.13-.15-.23-.33-.38-.45-.81-.66-.89-1.49-.59-2.42,.53-1.61,1.9-2.62,3.58-2.65,.22,0,.44,.01,.64-.12,.67-.29,1.24-.71,1.79-1.18,.27-.23,.55-.54,.97-.51,.86-.31,1.69-.36,2.49,.21,.53,.38,.81,.86,.87,1.49,.1,1.06-.09,2.06-.6,2.99-.56,1.37-1.66,1.96-3.06,2.07-.36,.03-.71,.02-1.07,.07-.28,.05-.57,.05-.67-.32-.03-.38,.1-.72,.3-1.03,.24-.27,.57-.26,.88-.24,.85,.07,1.55-.19,2.08-.87,.68-.7,.86-1.55,.77-2.48-.05-.56-.57-.85-1.16-.69-.5,.14-.87,.49-1.23,.83-.82,.75-1.78,1.1-2.88,1.13-.75,.02-1.4,.27-1.89,.87-.49,.59-.74,1.23-.34,1.97,.1,.34,.2,.68,0,1.02-.11,.18-.22,.38-.5,.3Z" fill="#553826"/><path d="M24.2,40.12c-.72-1.71,.23-3.71,1.6-4.8,2.42-1.93,5.96-2.14,8.45-.32,1.56,1.14,2.26,2.68,1.84,4.64-.16,1.15-1.52,1.6-2.54,.83-.35-.27-.63-.6-.87-.98-1.16-1.84-2.55-1.97-4.34-.74-.58,.4-1.01,.96-1.52,1.43-.48,.45-1.01,.79-1.71,.67-.43-.07-.81-.23-.9-.73Z" fill="#553826"/><path d="M27.32,31.92c0-.86,.41-1.39,1.45-1.73,1-.33,2.03-.37,3.06-.15,.64,.14,1.11,.55,1.46,1.06,.29,.42,.4,.91,.14,1.41-.31,.59-.86,.87-1.44,.74-1.13-.24-2.24-.18-3.38-.11-.8,.05-1.29-.48-1.29-1.23Z" fill="#7e8752"/><path d="M17.72,34.61c.61-.3,.48-.83,.41-1.34,.94-.07,1.75-.45,2.45-1.07,.12-.1,.29-.11,.45-.06,.05,.03,.09,.07,.12,.12-.01,.39,.02,.71,.54,.41,.12-.07,.27-.09,.39,.02,.02,.06,.01,.11-.02,.16-.09,.31-.18,.61-.27,.92,.02,.37-.23,.53-.5,.71-.21,.14-.36,.35-.56,.5-.24,.42-.07,.88-.13,1.31-.14,.57-.26,1.14-.82,1.47-1.05,.28-2-.33-2.14-1.44-.07-.56-.11-1.14,.08-1.7Z" fill="#81f7fe"/><path d="M24.2,40.12c.77,.85,1.54,.85,2.46,0,.64-.59,1.18-1.3,1.95-1.74,1.52-.88,2.83-.87,3.94,.68,.23,.32,.44,.66,.71,.95,1,1.07,2.14,.92,2.82-.37,.21,.3,.07,.64,.11,.96-.14,.17-.33,.28-.48,.44-.47,.49-.89,.56-1.47,.22-.29-.17-.53-.22-.82-.05-.53-.34-.72-.94-1.04-1.43-.65-.99-2.24-1.54-3-1.21-.39,.17-.72,.41-1.03,.7-.69,.65-1.28,1.42-2.1,1.94-.28,.04-.51,.13-.73,.34-.47,.46-.77,.46-1.27,.03-.17-.14-.38-.21-.52-.37,.6-.16,.19-.78,.48-1.08Z" fill="#7d8752"/><path d="M23.73,27.29c-.61,.36-1.13,.85-1.69,1.28-.32,.24-.65,.44-1.07,.41,.34-.36,.69-.71,1-1.09,.51-.63,.75-1.39,.86-2.19,.18-1.27,.64-2.44,1.25-3.56,.04,0,.08,0,.12,0,.54,.08,1.03-.2,1.56-.24-.04,.12-.19,.24,0,.36-.11,.41-.52,.61-.72,.96-.67,.65-.72,1.56-.95,2.38-.15,.55-.25,1.12-.37,1.68Z" fill="#7e8752"/><path d="M20.73,34.97c.07-.36,.33-.56,.62-.72,.21-.12,.35-.27,.44-.48,.03,.12,.08,.26,.22,.23,.92-.21,1.91,.06,2.8-.44,.7-.39,1.22-.94,1.68-1.57-.11,1.28-1.27,2.43-2.59,2.5-1.01,.05-2.01,.08-2.95,.51-.07,.03-.15,.05-.21-.02Z" fill="#7d8752"/><path d="M33.43,41.21c.11-.46,.37-.45,.7-.22,.72,.5,.98,.48,1.55-.17,.14-.16,.31-.25,.52-.23,.2,.58-.03,1.04-.63,1.31-.79,.35-1.69,.06-2.14-.7Z" fill="#647642"/><path d="M23.73,41.2c.24,0,.44,.02,.62,.25,.36,.45,.77,.42,1.12-.06,.23-.32,.45-.43,.78-.19-.05,.52-.51,1.07-.98,1.18-.66,.16-1.2-.02-1.52-.5-.15-.23-.24-.45-.02-.69Z" fill="#647642"/><path d="M25.04,23.22c-.02-.52,.44-.67,.72-.96,.3,.04,.75-.19,.82,.32,.07,.51-.24,.82-.7,.97-.35,.11-.72,.17-.85-.34Z" fill="#727c48"/><path d="M39.84,59.3c.27,.06,.55,.25,.51,.57-.06,.41-.26,.82-.76,.86-.33,.03-.5-.19-.51-.52-.01-.39,.39-.9,.77-.9Z" fill="#727c48"/><path d="M33.09,16.52c-.25,1.07-1.35,1.02-1.95,1.59-.17,.17-.34-.07-.42-.2-.21-.31-.38-.64-.6-1.04,.69,.1,1.03-.18,1.23-.78,.14-.45,.42-.45,.66-.06,.25,.42,.64,.5,1.1,.49Z" fill="#fed49e"/><path d="M33.59,16.34c.28-.11,.46-.08,.66,0h-.66Z" fill="#ebbe85"/><path d="M19.78,38.9c.73,.55,.87,1.31,.64,2.13-.18,.65-.66,1.02-1.36,1.03-1.01-.23-1.56-1.17-1.29-2.19,.25-.94,.97-1.28,2.01-.97Z" fill="#81f7fe"/><path d="M14.01,47.37c-.09,.29-.13,.59-.33,.82-.16,.18-.36,.35-.62,.29-.26-.06-.36-.28-.36-.55,0-.23-.11-.42-.27-.58-.37-.38-.43-.76,0-1.12,.32-.28,.99-.13,1.28,.25,.21,.26,.19,.6,.3,.89Z" fill="#727c48"/><path d="M7.06,48.74c-.74,1.1-.46,2.33-.42,3.52,0,.28,0,.54-.06,.8-.35-.91-.91-1.8-.58-2.82,.19-.59,.4-1.21,1.05-1.5Z" fill="#7e8852"/><path d="M18.33,57.74c.71-.09,.78,.46,.81,.91,.03,.42-.18,.77-.69,.77-.75-.43-.8-1.1-.12-1.68Z" fill="#727c48"/><path d="M11.97,50.43c-.84-.3-1.44-.85-1.79-1.67,1.25,.17,1.75,.64,1.79,1.67Z" fill="#7e8852"/><path d="M38.59,33.03c-1.19-.17-2.27-.57-3.06-1.53-.59-.71-.63-1.58-.11-2.17,.52-.59,1.23-.66,1.72-.05,.78,.95,1.75,1.06,2.85,.83,.44-.09,.89-.17,1.36-.08,.93,.19,1.32,.64,1.29,1.6-.14,.13-.33,.13-.51,.14-.16,0-.33-.03-.47,.04-1,.46-2.11,.68-3.08,1.22Z" fill="#fefefe"/><path d="M38.59,33.03c.1-.42,.42-.54,.79-.59,.47-.06,.92-.17,1.33-.45,.58-.4,1.25-.44,1.94-.36,.08,.41,.32,.7,.67,.93-.12,.17-.26,.3-.49,.21-.2-.69-.75-.63-1.25-.53-.36,.07-.71,.24-1.04,.41-.61,.31-1.25,.48-1.94,.37Z" fill="#81f6fd"/><path d="M42.81,32.77c.16-.09,.29-.23,.49-.21,.25,.08,.2,.24,.1,.41-.12,.2-.31,.24-.5,.19-.22-.06-.1-.24-.09-.38Z" fill="#f0f8f8"/><path d="M21.09,32.19c-.34,0-.61,.17-.83,.41-.59,.65-1.32,.8-2.14,.67-.38-.35-.36-.76-.2-1.2,.38-1.06,1.32-1.76,2.45-1.77,1.1,0,2.05-.36,2.87-1.11,.36-.33,.72-.68,1.22-.84,.8-.27,1.41,.13,1.44,.96,.03,.92-.15,1.77-.83,2.45-.77-.18-1.43,.06-2.04,.53-.34,.26-.71,.16-1.08,.04-.27-.13-.58-.04-.85-.13Z" fill="#fefefe"/><path d="M21.93,32.2c.54,.23,.99,.05,1.43-.29,.53-.41,1.09-.55,1.7-.15-.46,.63-1.07,.93-1.85,.94-.38,0-.79-.1-1.15,.14,0-.05,0-.1-.01-.15,.06-.24-.27-.2-.28-.39,.02-.09,.05-.15,.16-.1Z" fill="#82f7fd"/><path d="M30.29,34.47c1.68,.04,3.17,.52,4.31,1.83,.65,.75,.99,1.63,.88,2.64-.05,.42-.12,.86-.62,.99-.48,.12-.85-.12-1.13-.49-.34-.44-.62-.93-1.01-1.33-1.06-1.08-2.38-1.33-3.77-.73-.82,.35-1.48,.92-2.12,1.53-.29,.27-.56,.57-.86,.83-.22,.19-.47,.41-.8,.25-.32-.16-.44-.45-.46-.78-.05-.63,.04-1.23,.33-1.8,.81-1.58,2.25-2.3,3.84-2.8,.46-.15,.94-.15,1.43-.13Z" fill="#e52c20"/><path d="M17.78,35.94c.03-.2,.08-.44,.36-.5,.29-.06,.51,.03,.55,.37,.03,.26,.26,.39,.36,.6,.1,.2,.21,.41,.03,.6-.17,.19-.4,.13-.61,.06-.39-.14-.68-.61-.69-1.13Z" fill="#fcfefe"/><path d="M19.66,33.93c-.11,.26-.34,.43-.66,.43-.22,0-.33-.16-.3-.36,.06-.36,.35-.45,.67-.47,.23-.01,.31,.13,.3,.4Z" fill="#fbfefe"/><path d="M21.82,32.31c.11,.1,.37,.12,.23,.38-.14,.05-.29,.1-.43,.15-.19,.07-.36,.3-.57,.08-.18-.19-.07-.4,.05-.59,.24-.28,.48-.25,.73-.01Z" fill="#fafefe"/><path d="M21.82,32.31c-.25-.11-.49-.14-.73,.01,0-.04,0-.09,0-.13,.28-.17,.56-.17,.84,.01-.04,.04-.07,.07-.11,.11Z" fill="#a9f9fe"/><path d="M23.67,24.19c.22,.04,.3,.18,.29,.38-.01,.27-.23,.37-.43,.4-.23,.03-.29-.17-.27-.36,.03-.24,.18-.38,.41-.42Z" fill="#727c48"/><path d="M17.96,40.58c-.01-.33,.04-.6,.47-.59,.4,.01,.74,.54,.74,1.18,0,.28-.14,.39-.41,.4-.48,.02-.8-.38-.8-.99Z" fill="#fdfefe"/><path d="M19.49,39.76c-.21,.01-.32-.07-.32-.27,0-.15,.06-.28,.23-.28,.2,0,.26,.16,.3,.3,.05,.18-.09,.23-.21,.25Z" fill="#f4fdfe"/></svg>