<?xml version="1.0" encoding="UTF-8"?><svg id="Layer_1" xmlns="http://www.w3.org/2000/svg" viewBox="0 0 55.72 70.53"><path d="M33.64,33.3c2.57,.67,3.14,2.42,2.27,4.81,.7-.11,1.12-.56,1.56-.99,.68-.67,1.08-1.57,1.93-2.1,.6-.37,1.21-.6,1.9-.66,.2-.06,.39-.06,.59,0,1.3,.11,2.37,.7,3.29,1.58,.95,.91,1.87,1.85,2.79,2.78,.47,.48,1.03,.72,1.7,.69,.31,.14,.65-.02,.97,.09,.76,.06,1.45-.28,2.18-.38,.2-.03,.39-.07,.59-.1,.4-.06,.79-.06,1.19,0,1.03,.31,1.52,.9,.89,2.28-.43,.95-.64,1.93-.54,2.97-.13,.41,.02,.83-.09,1.24-.27,1.29-1.06,2.17-2.21,2.77-.99,.52-2.08,.88-2.8,1.81-.39,.5-.75,1.02-1.13,1.53-.6,.82-1.46,1.21-2.44,1.31-1.11,.11-1.51-.36-1.6-1.43-.11-1.26-.28-2.47-.84-3.63-.45-.94-.37-1.93,.04-2.89,.57-1.34,.99-2.71,1.16-4.16,.05-.43-.09-.69-.35-.94-.78-.75-1.68-1.27-2.77-1.41-.66-.08-1.21,.18-1.63,.7-.18,.21-.34,.45-.46,.7-.63,1.32-1.69,2.02-3.12,2.16-.25,.02-.37,.12-.5,.33-.38,.62-.89,1.12-1.52,1.5-.41,.25-.85,.55-1.31,.16-.49-.41-.19-.86,.03-1.32-.35-.15-.63,.06-.91,.15-2.24,.75-4.27,1.93-6.18,3.29-.65,.46-1.25,1.05-1,2.1,.29,1.16-.08,2.15-1.1,2.93-.87,.66-.66,1.67-.5,2.6,.14,.76,.49,1.46,.58,2.24,.07,.6,0,1.18-.34,1.65-1.17,1.59-.97,3.23-.27,4.91,.12,.29,.3,.55,.45,.83,.22,.15,.33,.39,.45,.62,.09-.57,.09-1.14,.15-1.72,.03-1.78,.75-3.26,2-4.51,.41-.41,.79-.85,1.16-1.29,.86-1.01,.98-2.26,1.16-3.5,.42-2.95,2.35-3.85,4.38-4.11,.93-.12,1.74-.25,2.34-1.13,.66-.97,1.76-1.07,2.74-.61,1.36,.63,2.67,1.39,4.03,2.04,.64,.3,.95,1,1.26,1.63,.54,1.08,1.04,2.19,2,3,.34,.28,.68,.56,.98,.87,.83,.88,.71,1.95-.26,2.69-.91,.69-1.92,.87-3.02,.6-1.04-.26-2.02-.02-2.99,.33-1.01,.36-2.02,.59-3.1,.16-.9-.36-1.41-1.15-1.29-2.11,.09-.72,.28-1.41,.7-1.99,.47-.63,.59-1.31,.51-2.06-.03-.26,0-.52,0-.78,.03-.11,.14-.25-.1-.26-.71,.89-1.58,1.43-2.77,1.31-.33-.09-.65-.1-.98,0-.97,.37-1.09,1.25-1.19,2.1-.08,.67-.03,1.36-.17,2.01-.24,1.09-.93,1.85-1.96,2.27-1.36,.56-1.93,1.6-1.84,3.03-.07,.27-.08,.54,0,.81,0,.15,.02,.29,.03,.44,.04,.05,.07,.11,.09,.17,.06,.22,.05,.45-.03,.66-.36,.34-.63,.86-1.27,.69-.23-.26-.17-.59-.18-.89-.02-.41,.06-.82-.07-1.22-.07-.44-.07-.88,.03-1.32,.07-.37,.14-.74,.24-1.11,.35-1.27,1.28-1.98,2.4-2.51,.61-.29,1.1-.68,1.21-1.37,.08-.51,.17-1.02,.16-1.54,0-.57,.12-1.11,.3-1.64,.52-1.49,1.6-2.22,3.17-2.04,.71,.08,1.24-.06,1.66-.66,.21-.29,.49-.52,.75-.77,.51-.37,1.08-.45,1.69-.39,.31,.03,.57,.15,.72,.45,.12,.36,.03,.7-.12,1.03-.33,.68-.51,1.38-.32,2.14,.03,.12,.01,.24,.02,.36,0,.28-.26,.6-.08,.78,.16,.16,.53,.06,.79,.17,.57,.24,1.11,.21,1.64-.14,.38-.26,.82-.26,1.27-.24,.47,.01,.86,.25,1.25,.49,.25,.15,.5,.25,.78,.18,.18-.04-.01-.1-.01-.15-.82-.89-1.35-1.95-1.88-3.02-.41-.82-1-1.42-1.97-1.54-.32-.04-.61-.18-.89-.33-.05-.03-.1-.06-.15-.09-.49-.5-1.04-.92-1.76-1.05-.46-.09-.83,0-1.08,.41-.56,.86-1.33,1.33-2.37,1.39-.53,.03-1.07,.13-1.59,.27-1.26,.34-2.01,1.17-2.29,2.43-.07,.31-.14,.63-.15,.94-.07,1.77-.89,3.19-2.07,4.45-.43,.43-.91,.81-1.25,1.33-.61,.9-.88,1.89-.87,2.97-.01,.77,.1,1.55-.08,2.32-.1,.17-.27,.18-.42,.13-.83-.28-1.71-.39-2.53-.7-.51-.59-.69-1.35-.99-2.04-.28-.92-.48-1.84-.28-2.81,0-.72,.22-1.39,.63-1.96,.51-.7,.54-1.43,.27-2.21-.23-.66-.42-1.33-.49-2.03-.14-1.28,.15-2.43,1.2-3.26,.6-.47,.62-1.07,.5-1.72-.02-.06-.03-.12-.04-.19-.11-.77,.03-1.52,.59-2.04,1-.93,1.14-2.07,1.04-3.32-.08-.36-.14-.72-.23-1.07-.14-.61-.33-1.2-.59-1.77,.15,.63,.15,1.29,.29,1.92,.1,1.3,.1,2.58-.44,3.8-.12,.31-.26,.6-.46,.86-.93,.63-1.28,1.5-1.12,2.61,.09,.59-.18,1.09-.6,1.5-.24,.24-.45,.52-.73,.71-.62,.42-.65,.95-.41,1.58,.09,.24,.18,.49,.28,.73,.66,1.58,.52,3.12-.28,4.61-.26,.49-.55,.98-.7,1.52-.22,1.19,.2,2.28,.51,3.38,.09,.33,.32,.66,.13,1.03-.37,.2-.75,.29-1.17,.18-.35-.25-.35-.66-.5-1.01,0-.24-.16-.45-.15-.69,0-.15-.12-.3-.04-.42-.01,.29,.02,.59,.14,.89,.02,.12,.02,.25,.05,.37,.02,.3,.04,.6-.05,.9-.39,.36-.82,.59-1.37,.44-.17-.6-.2-1.22-.22-1.83-.06-3.17-.52-6.3-1.07-9.42-.15-.82-.29-1.65-.47-2.46-.65-3.28-1.3-6.57-2.44-9.73-.63-1.75-1.35-3.46-2.55-4.92-.22-.26-.44-.51-.7-.74-.63-.56-.69-.56-1.34,0-.56,.54-1.3,.35-1.96,.48-.28,.11-.35,.36-.44,.6-.18,.5-.33,1.02-.62,1.48-.25,.34-.45,.72-.77,1.01-.35,.29-.6,.69-.91,1.02-.41,.44-.86,.82-1.41,1.08-.15,.07-.36,.11-.34,.39,.39,.01,.65-.23,.95-.39,.18-.1,.34-.31,.58-.15,.13,.34-.14,.52-.34,.69-.78,.7-1.5,1.46-2.15,2.28-.05,.06-.11,.11-.16,.18-.17,.24-.48,.49-.34,.77,.13,.28,.5,.08,.77,.12,.54,0,1.08-.05,1.6,.08,.32,.08,.49-.04,.54-.36,.09-.53,.19-1.06,.35-1.57,.06-.2,.11-.51,.36-.48,.26,.03,.2,.34,.21,.56-.17,.73-.14,1.47-.08,2.2,.08,1.09,.87,1.88,1.93,2,.14,.02,.27,.07,.41,.07,.24,0,.28-.1,.17-.3-.06-.1-.13-.2-.2-.29-1.14-1.5-1.42-3.24-1.47-5.05,.28-.26,.38,.02,.49,.18,.35,.47,.57,1.03,.97,1.59-.13-1.01-.97-1.46-1.39-2.17-.2-.38-.38-.76-.4-1.2,0-.67,.27-1.21,.83-1.56,.55-.34,.81-.79,.73-1.43,.13-.52,.33-.98,.87-1.2,.55-.07,1.11-.06,1.67-.15,.76-.12,1.31,.21,1.68,.88,.58,1.05,1.03,2.17,1.36,3.32,.35,1.22,.79,2.39,1.64,3.36,.62,.86,.73,1.88,.95,2.87,.33,1.5,.7,2.99,.89,4.51,.08,1.31,.32,2.6,.39,3.91,.02,.44-.03,.87-.12,1.3-.36,1.61-.35,3.2,.22,4.76,.31,.87,.46,1.77,.38,2.7-.04,.46-.08,.92-.42,1.28-.61,.2-.91-.24-1.24-.61,.22-1,.12-1.98-.22-2.94-.61-1.65-.72-3.33-.33-5.05,.06-.27,.1-.55,.14-.82,.19-1.17-.03-2.18-1.11-2.86-.55-.34-.85-.87-1.08-1.45-.16-.64-.64-.91-1.24-.94-2.91-.13-5.32,.81-7,3.31-.43,.64-.74,1.37-1.31,1.92-.18,.18-.13,.31,.1,.4,.41,.17,.81,.34,1.27,.19,.51-.17,1-.09,1.43,.19,.4,.26,.78,.28,1.17,.02,.19-.1,.35-.28,.56-.34,.58-.16,.6-.54,.54-1.05-.09-.77-.41-1.36-1.04-1.79-.25-.17-.49-.35-.65-.61-.21-.35-.29-.7,.03-1.04,.66-.45,1.44-.58,2.18-.8,.37-.06,.74-.12,1.12-.14,.71-.03,1.29,.19,1.76,.71,.34,.37,.73,.65,1.2,.86,.62,.28,1.03,.8,1.35,1.39,.42,1.18,.36,2.38,.09,3.57-.2,.89-.45,1.78-.08,2.68,.26,.93,.7,1.83,.62,2.84-.04,.5-.08,.99-.37,1.43-.49,.19-.92,.02-1.34-.19-.12-.14-.08-.31-.02-.45,.38-.94,.15-1.82-.26-2.76-.31,.84-.38,1.68-.52,2.5-.03,.21,0,.44-.21,.6-.37,.14-.74,.14-1.11,0-.14-.08-.17-.22-.16-.37,.01-.07,.04-.13,.09-.19,.12-2.14,.87-4.1,1.79-6.01,.41-.84,.49-1.71,.3-2.63-.12-.57-.42-.93-.9-1.2-.47-.25-.94-.49-1.28-.92-.44-.54-1-.63-1.65-.42-.24,.08-.47,.2-.91,.12,.47,.55,.93,.92,1.1,1.48,.08,.28,.18,.58,.17,.86-.03,1.13,.61,2,1.02,2.97,.3,.71,.04,1.51-.63,1.85-.85,.44-1.7,.89-2.54,1.36-.96,.53-1.92,.31-2.69-.37-.66-.58-1.44-.7-2.21-.79-1-.11-1.63-.59-1.97-1.49-.33-.88,.05-1.62,.59-2.26,.97-1.15,1.91-2.31,2.68-3.61,.27-.47,.72-.85,1.15-1.2,1.09-.89,2.32-1.53,3.72-1.79,.05-.08,.12-.14,.22-.15,.85-.29,1.73-.26,2.6-.21,1.23,.06,2.2,.53,2.64,1.79,.09,.24,.2,.48,.43,.7-.05-1.03-.29-1.99-.49-2.95-.12-.57-.28-1.12-.35-1.7-.13-1.03-.5-1.96-1.15-2.78-.61-.76-.95-1.65-1.22-2.58-.31-1.07-.69-2.12-1.17-3.14-.26-.55-.66-.45-1.1-.41-.45,.04-.47,.34-.5,.67-.07,.65-.45,1.08-.95,1.46-.63,.47-.63,.64-.15,1.26,.04,.05,.07,.1,.11,.14,1.2,1.14,1.56,2.46,.92,4.02-.17,.41-.05,.78,.21,1.12,.29,.38,.58,.76,.85,1.16,.45,.69,.09,1.54-.75,1.46-.18,.02-.37-.04-.55,.05-.65-.03-1.3,.02-1.95-.09-.96-.16-1.57-.77-2.06-1.51-.42-.64-.95-.93-1.7-.91-.58,.02-1.16,0-1.74,0-.64,0-.96-.32-1.01-.97-.08-1.05,.37-1.89,1.1-2.58,.35-.33,.5-.63,.35-1.13-.26-.83-.08-1.16,.83-1.67,1.69-.95,2.86-2.32,3.47-4.17,.32-.97,.75-1.32,1.74-1.32,.55,0,.97-.14,1.37-.55,.58-.6,1.36-.6,2.09-.07,1.24,.88,2.1,2.08,2.82,3.39,1.25,2.29,2.01,4.76,2.63,7.28,.4,1.63,.76,3.27,1.15,4.96,1.05-1.14,1.94-2.35,3.05-3.34,.92-.82,1.78-1.7,2.83-2.37,.1-.07,.19-.15,.17-.29,.08-.63,.08-1.27,0-1.9-.1-.65-.2-1.31-.3-1.96-.05-.32-.19-.45-.56-.35-1.11,.29-2-.05-2.63-1.02-.14-.21-.39-.4-.58-.28-.95,.62-1.85,.45-2.76-.05-.2-.08-.41-.1-.61,0-.33,.02-.57,.23-.85,.37-.2,.06-.4,.06-.59,0-.62-.63-.54-1.57,.1-2.34,.63-.76,1.44-1.05,2.34-.89,.76,.14,1.25-.19,1.75-.63,.36-.33,.8-.47,1.28-.51,.67-.05,1.32,.02,1.92,.38,.91,.51,1.65,1.2,2.1,2.15,.2,.42,.46,.44,.82,.27,.45-.22,.81-.57,1.2-.89,.68-.55,1.42-.96,2.27-1.16,.58-.13,1.15,.12,1.73,.07,.57-.06,1.09-.35,1.65-.43,.61-.09,1.19,0,1.75,.27,.35,.17,.64,.4,.83,.75,.31,.6,.17,.98-.5,1.25-.23,0-.44-.08-.62-.23-.4-.53-.92-.64-1.54-.46-.36,.11-.72,.23-1.08,.33-.43,.13-.85,.18-1.29,.05-.62-.19-1.18,0-1.7,.34-.68,.45-1.25,1.04-1.95,1.46,0,0,0,.04,0,.05,.01,.01,.03,.02,.06,.03,1.02,.16,1.98,.02,2.91-.43,.96-.47,1.84-1.11,2.95-1.26,1.26-.18,2.45,.62,2.6,1.78,.01,.3-.05,.6,.07,.89,.38,.52,.99,.9,.95,1.79,.04-.29,.07-.44,.07-.6,0-.18-.06-.35-.09-.53-.02-.29-.19-.51-.34-.74-.31-.5-.48-1.03-.33-1.63,.15-.47,.26-.95,.3-1.45,.05-.6-.21-1.03-.72-1.32-.44-.25-.9-.39-1.41-.43-.23-.02-.49,.02-.64-.22,.12-.91,.81-1.38,1.5-1.03Z" fill="#576a37"/><path d="M11.08,63.39c0,.12,0,.23-.01,.35-.14,.28-.42,.27-.67,.3-.58,.06-1.15,.17-1.69,.36-.27,.09-.56,.25-.44,.6,.1,.32,.41,.28,.67,.22,.66-.14,1.33-.28,2-.37,1.42-.18,2.78,.06,4.1,.57,.45,.17,.86,.44,1.2,.77,.41,.4,.81,.42,1.29,.12,1.44-.88,3-1.29,4.69-1.15,1.24,.1,2.45,.39,3.59,.87,.86,.36,1.52,.24,2.24-.37,1.45-1.23,3.19-1.87,5.06-2.15,.32-.05,.63-.07,.95,.04,.61,.34,1.31,.25,1.96,.38,2.11,.4,4.29,.35,6.34,1.08,.06,.02,.11,.04,.16,.08,.05,.1,.14,.11,.23,.11,.21,.12,.37,.28,.48,.48h0c.1,.24,.11,.47-.01,.71-.22,.3-.45,.58-.82,.72-1.07,.42-2.19,.62-3.34,.66-.34,.01-.67,.06-.99,.18-.27,.5-.69,.83-1.18,1.08-.19,.11-.41,.14-.61,.24h0c-1.85,.51-3.74,.77-5.66,.91-3.82,.28-7.64,.41-11.46,.33-1.96-.04-3.93-.1-5.89-.31-1.28-.13-2.57-.23-3.85-.4-.8-.11-1.6-.23-2.38-.42h0c-.32-.09-.66-.1-.96-.24h0c-.27-.1-.57-.13-.84-.24h0c-.19-.1-.41-.13-.61-.24-.73-.22-1.33-.6-1.67-1.31-.2-.3-.57-.23-.84-.37h0c-.19-.1-.41-.13-.61-.24-.17-.1-.39-.15-.48-.36-.13-.14-.15-.33-.24-.48h0c-.1-.24-.09-.48,0-.72,.11-.29,.37-.44,.6-.61,.92-.61,1.99-.81,3.05-.86,2.02-.1,4.03-.36,6.05-.38,.2,0,.4-.05,.59,.05Z" opacity=".3"/><path d="M33.64,33.3c-.8-.16-1.16,.36-1.45,.97-.06,.2-.2,.35-.36,.48-.52,.16-1.04,.32-1.56,.47,.68-2.43,2.39-4.22,5.23-3.05,.4,.17,.78,.06,1.14-.13,.21-.11,.42-.23,.62-.36,1.21-.83,2.53-1.09,3.98-.83,1.37,.24,2.76,.38,4.13-.07,.13-.04,.28-.02,.39-.21-.3-.18-.63-.33-.87-.6-.42-.44-.81-.92-1.42-1.13-.5-.11-.99-.04-1.47,.09-.42,.11-.85,.2-1.29,.23-1.35,.1-2.23-.53-2.8-1.7-.14-.29-.27-.58-.33-.89-.05-.35-.13-.69-.24-1.03-.12-.38-.35-.65-.75-.76-.99-.16-1.99-.14-2.98-.27-2.15-.29-3.78-1.42-5.04-3.13-.64-.87-1.15-1.82-1.54-2.83-.47-1.18-.57-2.43-.49-3.76-.94,.44-1.68,1.02-2.4,1.6-2.03,1.66-3.71,3.61-5.08,5.84-.17,.27-.32,.55-.43,.85-.53,1.25-.57,2.49,.05,3.71,.18,.31,.34,.63,.53,.94,.28,.46,.39,.96,.31,1.49-.24,1.61-.1,3.18,.57,4.68,.06,.15,.12,.3,.02,.46-.44,.01-.79,.31-1.22,.37-.47-1.03-.81-2.09-.86-3.23-.06-.52-.06-1.03,0-1.55l.03-.69c.06-.21,.11-.42-.01-.63-.45-.84-.96-1.65-1.12-2.61-.04-.25-.07-.5-.1-.75-.06-.24-.06-.47,0-.71,.13-1.7,.95-3.11,1.91-4.44,.98-1.36,2.04-2.66,3.29-3.79,1.3-1.17,2.67-2.27,4.25-3.07,1.66-.85,3.44-1.28,5.29-1.25,2.48,.03,4.68,.79,6.49,2.63,1.52,1.55,3.01,3.11,4.12,4.99,.88,1.49,2.27,2.19,3.9,2.53,.56,.12,1.12,.23,1.66,.42,1.5,.54,2.42,1.58,2.69,3.17,.06,.36,.06,.71,0,1.07-.44,2.86-2.82,5.1-5.78,5.53-1.33,.19-2.62-.01-3.92-.14-.41-.08-.83-.09-1.24,0-.8,.02-1.37,.56-2.01,.92-.83,.47-1.64,.69-2.58,.3-.37-.15-.8-.44-1.25-.14Z" fill="#8f874f"/><path d="M40.95,16.79c-.37-.18-.29-.48-.1-.68,.95-1.06,.93-2.27,.58-3.53-.23-.82-.31-1.67-.2-2.51,.15-1.14,.93-1.72,1.95-2.03,1.08-.32,2.01-.8,2.45-1.93,.13-.7,.02-1.41,.06-2.11,.01-.21-.03-.43,.04-.64,.21-1.43,.71-2.64,2.3-3.02,.36-.07,.71-.06,1.07,0,.32,.17,.64,.33,.96,.5,.2,.12,.35,.29,.48,.47,.76,.99,1.11,2.14,1.22,3.37,.06,.19,.05,.39,0,.58-.15,2.12-.94,3.91-2.74,5.16-.94,.65-2.05,.79-3.14,.94-.68,.1-1.07,.48-1.28,1.07-.26,.76-.43,1.56-.82,2.27-.52,.95-1.2,1.71-2.24,2.09-.19,.05-.39,.05-.58,0Z" fill="#968597"/><path d="M50.63,12.22c.09-1.28,1.23-2.45,2.18-2.4,.18-.07,.36-.13,.51,.06-.07,.24-.31,.28-.48,.4-.5,.33-.6,.57-.35,1.08,.2,.42,.25,.82,.15,1.27-.07,.35-.08,.72,.14,1.03,.27,.37,.68,.39,.84-.03,.26-.65,.61-1.25,.95-1.85,.17-.31,.07-.62-.05-.92-.05-.13-.11-.27-.11-.41,0-.06,.03-.11,.07-.15,.39,.2,.47,.61,.63,.96,.05,.19,.05,.39,0,.58-.18,.74-.72,1.31-.9,2.05-.04,.15-.1,.3-.09,.46-.09,.29-.09,.57,0,.86l.39,1.56c.05,.27,.05,.55,0,.82-.44,1.64-1.73,2.26-3.24,2.38-.24,.02-.48,.01-.72,.02-.2-.11-.42,0-.62-.08-1.14-.09-2.26-.38-3.41-.27-.46,.04-.9,.13-1.31,.34-.4,.2-.57,.1-.55-.36,.03-.72,.54-1.12,1.04-1.51,.64-.5,1.41-.67,2.2-.77,.44-.1,.9,.05,1.34-.08,.87-.09,1.37-.57,1.64-1.56,.11-.25,.07-.51,0-.76-.09-.55-.18-1.1-.27-1.65-.06-.35-.06-.71,0-1.06Z" fill="#968697"/><path d="M33.99,63.64c-2.31,.05-4.34,.87-6.1,2.34-.59,.49-1.14,.6-1.86,.31-1.44-.58-2.93-.98-4.51-.98-1.41,0-2.69,.42-3.9,1.12-.78,.46-.92,.44-1.57-.15-.83-.76-1.85-1.04-2.92-1.22-1.4-.23-2.77-.07-4.12,.32-.38,.11-.86,.18-1-.33-.14-.49,.25-.68,.66-.83,.77-.28,1.6-.28,2.38-.49,.41,0,.82,0,1.24,0,.35-.21,.66-.1,.96,.12,.44,.08,.88,.17,1.32,.25,.4-.09,.7,.09,.96,.36,.36,.21,.71,.41,1.07,.62,.3,.12,.57,.06,.85-.1,.21-.12,.43-.32,.72-.18,.4-.16,.8-.31,1.21-.47,.18-.14,.36-.26,.59-.12,.4-.04,.81-.08,1.21-.13,.66-.28,1.29-.24,1.91,.12,.98,.15,1.93,.44,2.88,.72,.44-.02,.9,.18,1.32-.1,.36-.25,.73-.5,1.09-.75,.27-.43,.72-.57,1.16-.74,.12-.06,.27,.03,.38-.09,1.01-.42,2.06-.67,3.14-.81,.2-.03,.4-.04,.59-.01,.61,.1,.92,.54,.57,1.04-.04,.11-.08,.2-.23,.15Z" fill="#047425"/><path d="M45.71,3.35c-.05,.92,.11,1.84-.1,2.76,.05-.92-.12-1.84,.1-2.76Z" fill="#fdfdfd"/><path d="M23.58,41.89c.16,.63,.17,1.27,0,1.9,0-.63,0-1.27,0-1.9Z" fill="#fdfdfd"/><path d="M53.28,9.93c-.13-.16-.32-.08-.48-.11,.43-.22,.82-.07,1.2,.14,.04,.06,.02,.11-.05,.14-.24,.01-.48,.03-.67-.17Z" fill="#a99baa"/><path d="M54.01,10.03s0-.05,0-.07c.24,0,.38,.14,.48,.34,0,.04,0,.07,0,.11-.31,.06-.42-.13-.48-.38Z" fill="#9c8a9c"/><path d="M40.95,16.79c.19,0,.39,0,.58,0-.2,.14-.39,.14-.58,0Z" fill="#fdfdfd"/><path d="M37.26,51.3c.04-.08,.12-.23,.17-.15,.08,.12,.06,.29-.08,.41-.03-.09-.07-.17-.1-.26Z" fill="#fdfdfd"/><path d="M37.7,26.48c.12,.32,.21,.64,.36,.94,.67,1.36,1.77,1.85,3.26,1.5,.74-.17,1.48-.5,2.26-.18-.91,.96-2.05,1.19-3.29,.96-.88-.16-1.62,.03-2.25,.67-.42,.43-.96,.54-1.53,.57-.38,.02-.76,0-1.14,.04-.57-.05-1.15-.08-1.72-.15-1.29-.15-2.37,.43-2.95,1.59-.48,.98-1.41,1.36-2.28,1.82-.07,.04-.01-.04-.05,.02-.06,.09,.08,.02,.09,.08,.14,.28-.09,.51-.1,.77-1.01,.3-1.84,.89-2.61,1.58-.16,.14-.34,.28-.52,.39-.63,.38-.88,.3-1.21-.34-.43-.86-1.12-1.47-1.91-1.98-.18-.39-.2-.78-.05-1.18,.1-.13,.06-.26,.01-.39-.51-1.43-.51-2.84,.11-4.24,.5-1.13,.57-2.25-.02-3.4-.62-1.21-.23-2.41,.14-3.6,.05-.15,.12-.29,.18-.44,.29-.34,.47-.78,.93-.96,.44,.13,.87,.24,1.23-.21,.22-.27,.1-.57,.17-.85,.68-.57,1.44-.97,2.34-1.03,.53,1.39,1.27,2.66,2.29,3.75,1.06,1.13,2.36,1.9,3.91,2.12,.96,.14,1.93,.17,2.9,.25,.14,.01,.28,0,.38,.12,.03,.43-.12,.85-.13,1.28,0,.28-.06,.57,.23,.74,.27,.16,.49,.02,.7-.14,.08-.06,.16-.12,.27-.08Z" fill="#bab06c"/><path d="M27.15,18.45c-.77,.34-1.58,.57-2.27,1.08-.09,.05-.19,.05-.28,.05-.75,0-.8,.05-1.02,.77-.03,.1-.06,.18-.13,.26-.38,.18-.45,.68-.85,.84-.23,.37-.41,.78-.65,1.14-.6,.91-.7,1.89-.23,2.84,.59,1.21,.57,2.37,.01,3.56-.57,1.22-.51,2.42,.1,3.63,.14,.28,.42,.54,.31,.92,0,.41-.01,.81-.02,1.22-.63-.31-1.31-.42-2.01-.39-.81-1.64-1.05-3.36-.75-5.16,.1-.57-.08-1.1-.41-1.58-.17-.24-.28-.53-.42-.79,.43-.5,.51-1.05,.26-1.66-.06-.15-.08-.32-.04-.47,.17-.6,.09-1.17-.23-1.7,.42-1.07,1.1-1.97,1.79-2.87,1.67-2.16,3.61-4.03,5.97-5.42,.1-.06,.19-.14,.39-.1-.06,1.3-.01,2.6,.47,3.84Z" fill="#d1c782"/><path d="M54.46,40.59c-.1,.91-.73,1.06-1.5,1.12-1.23,.1-2.45,.27-3.78,.42,.28,.25,.53,.14,.74,.18,1.08,.38,2.15,.81,3.34,.68,.18-.02,.36,.03,.49,.16-.04,.44-.08,.88-.12,1.31-.53,1.23-1.46,2.02-2.72,2.41-1.81,.56-4.76-.7-4.65-3.35,.04-1.01,.1-2.02,.06-3.03,.1-.54-.29-.86-.58-1.23-.16-.2-.34-.38-.51-.57-.23-.33-.54-.58-.79-.9-.1-.13-.34-.27-.09-.48,.02,0,.05-.01,.06,0,.94,.67,1.76,1.47,2.43,2.41,.14,.19,.09,.46,.13,.7,.13,.7,.82,1.21,1.46,.93,.85-.37,1.75-.34,2.62-.46,.63-.09,1.24-.27,1.86-.38,.51-.08,1.02-.18,1.52,.06Z" fill="#7a9150"/><path d="M44.52,54.4c.09,.05,.17,.09,.3,.16-.45,.24-.83,.24-1.24-.06-.31-.23-.66-.45-1.08-.45-.7-.11-1.41-.12-2.11-.3-.92-.23-1.18-.54-1.18-1.49,0-.42,.01-.83,.08-1.25,.06-.39,.1-.79-.14-1.15-.49-.57-1.1-.38-1.69-.25-.21,.05-.4,.17-.59,.25-.82,.71-1.75,1-2.85,1.03-1.72,.04-2.52,.81-2.88,2.48-.2,.92-.33,1.85-.64,2.74-.36,1.03-1.17,1.63-2.05,2.16-.11,.06-.23,.07-.34-.02,.75-.93,1.55-1.84,1.83-3.04,.15-.63,.25-1.28,.33-1.93,.26-2.24,1.7-2.95,3.5-3.18,.41-.05,.83-.08,1.24-.16,.76-.14,1.22-.7,1.64-1.29,.91-.42,1.72-.21,2.49,.35,.18,.13,.31,.35,.57,.38,.03-.01,.05-.01,.07,.01,.1,.19,.26,.3,.45,.36,.49,.17,.88,.4,.94,1,.02,.26,.29,.41,.55,.32,.44-.14,.61,.1,.77,.43,.51,1.09,1.15,2.08,2.04,2.9Z" fill="#7a9150"/><path d="M46.34,40.5c.2,.2,.1,.45,.11,.68,.06,1.07-.13,2.15,.09,3.22,.24,1.17,1.07,1.84,2.14,2.2,2.15,.72,3.55-.28,4.59-1.69,.11-.16,.17-.37,.38-.45,0,1.62-.34,2.03-1.76,2.66-2.23,.99-4.18,.39-6.07-.85-.05-.03-.1-.06-.15-.09-.01,0-.04,0-.12,.01,.56,.7,1.2,1.26,1.93,1.76-.63,.6-1.28,1.15-1.71,2.04-.09-.84-.32-1.51-.64-2.15-.41-.82-.48-1.63-.09-2.47,.73-1.54,1.06-3.19,1.29-4.87Z" fill="#697e42"/><path d="M5.11,43.5v-.47c-.38,.62-.51,1.3-.58,1.98-.06,.56-.27,.67-.75,.5-.54-.19-1.11-.06-1.66-.1-.18-.24,0-.41,.11-.59,.59-1.07,1.25-2.09,2.04-3.02,.14-.17,.32-.33,.12-.57-.43,.24-.85,.48-1.29,.7-.12,.06-.29,.23-.38-.04-.05-.15-.21-.35,.06-.45,1.18-.42,1.84-1.45,2.69-2.26,.28,.4,.09,.92,.36,1.33,0,.44,.27,.79,.36,1.2,.01,.14-.01,.26-.12,.36,.11,.72,.25,1.44,.33,2.16,.13,1.12,.66,2.06,1.28,2.97,.14,.2,.48,.39,.29,.63-.2,.24-.55,.12-.83,0-.59-.29-.9-.81-1.12-1.39-.36-.96-.74-1.91-.91-2.92Z" fill="#7a9150"/><path d="M18.16,64.81c-.29,.13-.6,.23-.85,.41-.32,.23-.53,.19-.71-.14,.62-1.25,.48-2.53,.04-3.76-.63-1.79-.62-3.56-.22-5.38,.16-.75,.09-1.52-.06-2.3-.16-.85-.16-1.73-.23-2.59,.08-.15,.18-.24,.35-.12,.44,2.13,.81,4.27,1.11,6.43,.33,2.4,.45,4.81,.57,7.22,0,.08,0,.16,0,.24Z" fill="#697d42"/><path d="M28.37,35.12c-.29-.29,.05-.48,.12-.72,.22-.24,.53-.25,.82-.32,.8-.2,1.43-.63,1.76-1.39,.35-.81,.97-1.23,1.77-1.45,.81-.22,1.62-.37,2.47-.32,.3-.25,.65-.12,.97-.12,.72,0,1.35-.16,1.88-.73,.49-.53,1.17-.7,1.87-.58,1.18,.2,2.3,.26,3.23-.67,.07-.07,.23-.05,.34-.08,.57,.2,.93,.65,1.31,1.08-.93,.64-1.95,.96-3.08,.84-.81-.09-1.63-.12-2.44-.05-.87,.07-1.55,.58-2.25,1.04-.52,.34-1.02,.69-1.68,.67-1.05-.39-2.11-.63-3.13,.04-.69,.45-1.18,1.11-1.54,1.85-.17,.34-.34,.67-.51,1-.64,.1-1.26-.22-1.9-.1Z" fill="#d1c783"/><path d="M8.94,50.93c-.73,.21-1.46,.4-2.16,.72-.39,.42-.43,1.07-.09,1.5,.05,.06,.11,.12,.17,.17,1.25,1.16,1.33,1.65,.52,3.24-.45,.3-.87,.32-1.32-.03-.3-.23-.67-.31-1.07-.23-1,.21-1.1,.18-2.14-.42,1.13-.9,1.49-2.34,2.48-3.34,1.75-1.74,3.87-2.45,6.3-2.33,.81,.04,1.13,.31,1.38,1.07-.36,.12-.69-.03-.95-.21-1.02-.71-2.06-.5-3.12-.15Z" fill="#799150"/><path d="M21.98,59.41c-.18,.99,.06,1.95,.26,2.9-.08,.03-.16,0-.21-.06-.62-.7-1.06-1.52-1.56-2.29-.05-.08-.07-.19-.02-.28,.09-.69,.55-1.23,.83-1.83,.74-1.56,.66-3.1-.05-4.65-.12-.27-.22-.56-.28-.85-.07-.37,0-.69,.33-.95,.4-.32,.77-.69,1.13-1.07,.3-.31,.47-.69,.44-1.14,0-.08,.01-.16,0-.24-.24-1.15,.24-1.98,1.18-2.59,.21,.33-.08,.63-.04,.95,.04,.28-.07,.58,.07,.86h0c.15,.62,.06,1.18-.49,1.58-1.33,.97-1.58,2.31-1.3,3.82,.09,.47,.23,.92,.36,1.38,.26,.94,.24,1.85-.27,2.71-.28,.49-.48,1-.46,1.58,0,.07-.03,.17,.1,.15Z" fill="#7a9150"/><path d="M38.83,55.02c.2,.04,.36,.05,.51,.11,.81,.32,1.54,.26,2.3-.26,.45-.31,1.05-.16,1.52,.17,.56,.4,1.12,.54,1.78,.26,.47-.2,.89,0,1.09,.45,.22,.51-.24,.67-.56,.89-.57,.4-1.2,.26-1.78,.14-1.17-.23-2.28-.05-3.39,.33-.68,.24-1.36,.57-2.13,.29-.4-.15-.8-.26-.82-.8-.02-.59,.35-1.26,.78-1.39,.24-.08,.5-.14,.7-.19Z" fill="#697d42"/><path d="M2.56,56.68s.04,0,.06,0c.93,.36,1.88,.6,2.89,.37,.05-.01,.12,.02,.17,.05,.85,.71,1.62,.39,2.39-.15,.23-.16,.55-.45,.8-.19,.35,.37,.67,.8,.71,1.34,.01,.2-.2,.29-.36,.36-.74,.31-1.42,.71-2.09,1.14-.41,.26-.85,.27-1.27-.07-.91-.73-1.95-1.12-3.12-1.19-.58-.03-.95-.54-.84-1.07,.07-.35,.24-.64,.68-.59Z" fill="#697d42"/><path d="M28.11,58.24c1.19-.58,2.13-1.37,2.41-2.74,.16-.77,.33-1.54,.48-2.32,.29-1.49,1.24-2.4,2.91-2.46,1.02-.03,1.91-.24,2.74-.81,.06-.04,.15-.04,.23-.06-.33,.39-.64,.82-1.01,1.16-.32,.29-.72,.43-1.21,.32-1.45-.32-2.67,.41-3.22,1.8-.37,.93-.33,1.91-.42,2.87-.08,.83-.4,1.42-1.15,1.79-.78,.39-1.59,.75-2.07,1.55-.37,.62-.62,1.28-.63,2.02-.53-.39-.37-.95-.35-1.47,0-.16,.16-.27,.12-.44,.34-.46,.75-.84,1.18-1.2Z" fill="#697e42"/><path d="M54.46,40.59c-1.47-.07-2.86,.44-4.3,.59-.53,.06-1.05,.05-1.59,.34-.75,.41-1.74-.3-1.77-1.2-.02-.49-.22-.82-.55-1.12-.66-.61-1.21-1.32-1.93-1.85-.1,.02-.19-.01-.27-.07-1.03-1-2.25-1.24-3.62-.93-.19,.04-.38,.13-.55-.05,1.13-1.02,2.79-.97,4.07,.2,1.07,.98,2.11,2,3.11,3.05,.85,.88,1.92,1.11,3.07,1.2,1.05,.08,2.05-.16,3.04-.42,.35-.09,.71-.07,1.07-.07,.26,0,.3,.13,.23,.34Z" fill="#fdfefd"/><path d="M33.38,36.53c.11,.19,.35,.14,.49,.27,.3,.31,.67,.54,.84,.96-.08,.68,.13,1.27,.52,1.8,.13,.17,.23,.37,.19,.6-.52-.27-.87-.71-1.15-1.2-.05-.12-.06-.25-.15-.35,.12-.94-1.28-1.85-2.39-1.66-.71,.11-1.36,.38-1.98,.76-1.02,.63-2.11,1.08-3.36,1.02-.28-.01-.55-.06-.81-.15,.1-.28,.39-.32,.6-.43,.6-.31,1.19-.64,1.69-1.1,.42-.38,.9-.48,1.44-.38,.74,.15,1.46,.11,2.16-.18,.65-.27,1.28-.2,1.91,.05Z" fill="#7a9250"/><path d="M26.92,43.59c-.06-.31,.11-.49,.41-.66,1.61-.92,3.25-1.76,4.99-2.42,.69-.26,1.1-.15,1.52,.45,.13,.19,.12,.35-.14,.39-2.26,.34-4.19,1.45-6.12,2.56-.03,.02-.07,.04-.11,.06-.55,.31-.55,.3-.54-.36Z" fill="#697d42"/><path d="M44.21,37.25s.07,.06,.11,.09c.22,.52,.84,.76,.94,1.36-.83-.58-1.68-1.09-2.69-1.33-1.67-.4-2.97,.48-3.71,1.78-.26,.46-.47,.97-.96,1.25-.92,.53-1,.49-1.26-.51,.99-.49,1.68-1.29,2.37-2.13,1.18-1.45,3.31-1.72,4.9-.7,.1,.06,.19,.14,.31,.18Z" fill="#697e42"/><path d="M7.26,36.07c.08-.1,.2-.13,.32-.11,.61,.06,1.19-.04,1.72-.36,.68-.26,1.34-.04,1.95,.63,.82,.92,1.35,2.01,1.87,3.11,.56,1.22,.96,2.49,1.28,3.79,.05,.21,.13,.43-.06,.62-.96-.9-1.31-2.1-1.67-3.3-.34-1.15-.79-2.25-1.34-3.31-.36-.7-.95-.96-1.68-.8-.52,.11-1.03,.08-1.54,.1-.19-.32-.62-.11-.84-.36Z" fill="#697e42"/><path d="M13.97,52.61c1.24,.65,1.52,1.77,1.23,3.16-.39,1.92-.53,3.83,.2,5.7-.21,.06-.28-.09-.35-.23-.23-.48-.58-.88-.84-1.33-.44-.89-.2-1.78,.03-2.66,.32-1.24,.31-2.46-.04-3.69-.05-.33-.46-.57-.24-.96Z" fill="#799150"/><path d="M14.33,43.74c-.2-1.24-.56-2.43-1.03-3.59-.47-1.16-.97-2.31-1.71-3.33-.56-.78-1.26-1.32-2.29-1.23,.61-.76,.66-.78,1.43-.06,1,.93,1.72,2.07,2.31,3.3,1.66,3.47,2.39,7.22,3.21,10.94,.09,.39,.16,.77,.24,1.16-.12,.04-.24,.08-.35,.12-.24-1.36-.52-2.71-.8-4.05-.24-1.12-.41-2.25-1-3.26Z" fill="#79914f"/><path d="M20.44,59.68c.57,.9,1.11,1.82,1.8,2.64,.28,.64,.56,1.27,.84,1.91-.64-.04-1.27-.08-1.91-.12-.23-1-.64-1.95-.78-2.98-.07-.48-.17-.97,.05-1.45Z" fill="#697e42"/><path d="M46.2,51.7c.11-1.76,.92-2.9,2.36-3.32,.09-.03,.19-.08,.28-.07,.3,.03,.72-.17,.88,.12,.11,.21-.34,.3-.49,.51-.39,.55-.81,1.07-1.2,1.62-.53,.75-.91,1-1.82,1.15Z" fill="#697d42"/><path d="M39.15,49.85c.54,.29,.4,.8,.31,1.22-.12,.58-.1,1.15-.06,1.72,.04,.54,.54,.67,.98,.78,.7,.17,1.41,.32,2.12,.48-.6-.07-1.15,.06-1.63,.42-.31,.23-.61,.21-.95,.1-.48-.15-.96-.39-1.57-.12,.27-.7,.36-1.32,.22-1.98-.12-.58,.11-1.15,.38-1.65,.17-.32,.22-.63,.21-.97Z" fill="#697d42"/><path d="M16.98,36.55c.98,.3,1.76-.07,2.53-.65,.75-.56,1.69-.42,2.53,.27,.5,.41,.88,.92,1.04,1.56-.78,.11-1.52,.15-2.15-.49-.48-.49-1.11-.59-1.77-.37-.44,.14-.89,.24-1.35,.17-.34-.05-.72-.06-.83-.5Z" fill="#799150"/><path d="M44.21,37.25c-.83-.26-1.61-.61-2.53-.61-1.22,0-2.09,.52-2.77,1.46-.41,.57-.83,1.13-1.45,1.49-.26,.15-.5,.33-.83,.31-.14-.4,0-.62,.37-.82,.97-.51,1.65-1.35,2.3-2.2,.17-.23,.45-.33,.57-.59,.69-.13,1.38-.29,2.1-.22,.91,.09,1.64,.5,2.24,1.18Z" fill="#7a9250"/><path d="M21.98,59.41c-.05,.1-.1,.2-.18,.36-.15-.68-.07-1.28,.25-1.82,.68-1.15,.73-2.31,.23-3.54-.33-.81-.33-1.68-.26-2.53,.07-.89,.56-1.58,1.26-2.08,.59-.42,.81-.94,.77-1.63,.31,.87,.19,1.43-.46,1.94-1.06,.82-1.3,1.93-1.16,3.18,.09,.79,.34,1.54,.57,2.29,.2,.64,.16,1.23-.26,1.8-.44,.6-.72,1.27-.74,2.03Z" fill="#fdfdfc"/><path d="M21.53,47.28c.24,1.01-.42,1.53-1.02,2.09-.91,.86-1.67,1.86-2.48,2.89-.16-.44-.17-.8,.1-1.15,1.04-1.36,2.15-2.64,3.4-3.83Z" fill="#687d42"/><path d="M33.38,36.53c-.92-.13-1.8,.03-2.67,.35-.4,.14-.86,.07-1.3-.04-.53-.14-1.02-.07-1.44,.33-.69,.65-1.52,1.07-2.39,1.41-.07-.02-.15-.03-.21-.08-.04-.03-.05-.1,.03-.13,.9-.32,1.48-1.12,2.27-1.6,.54-.32,1.09-.55,1.73-.34,.75,.25,1.43-.08,2.13-.3,.96-.3,1.36-.21,1.84,.4Z" fill="#fdfdfc"/><path d="M16.98,36.55c.5,.46,1.1,.47,1.67,.28,1.08-.37,2.01-.26,2.78,.63,.16,.19,.39,.16,.61,.17,.35,.02,.72-.08,1.05,.11,.24,.36,.18,.5-.28,.62-.81,.2-1.35-.09-1.88-.67-.76-.83-1.16-.88-2.16-.41-.33,.15-.64,.21-.97,.03-.51-.28-1.05-.47-1.75-.4,.32-.33,.62-.38,.95-.36Z" fill="#697d42"/><path d="M7.38,56.56c-.02-.43,.22-.79,.33-1.19,.21-.75,.02-1.26-.74-1.75-.51-.33-.72-.75-.67-1.34,.02-.34,.12-.58,.49-.63-.28,.53-.04,.91,.36,1.24,.27,.23,.6,.4,.84,.65,.62,.64,.54,1.49,.63,2.28,.02,.14-.12,.14-.2,.16-.39,.1-.7,.37-1.03,.57Z" fill="#697e42"/><path d="M44.52,54.4c-.7-.33-1.1-.95-1.49-1.57-.22-.35-.41-.73-.6-1.1-.17-.33-.2-.74-.8-.48-.33,.14-.68-.19-.68-.56,0-.43-.23-.56-.56-.69-.27-.11-.63-.19-.62-.61,.27,.23,.62,.28,.94,.32,.7,.09,1.26,.42,1.61,.99,.75,1.22,1.33,2.55,2.2,3.7Z" fill="#fdfdfc"/><path d="M14.22,59.92c.44,.32,.74,.75,.95,1.25,.05,.13,.11,.25,.25,.31,.33,.99,.6,1.98,.12,3-.32-.12-.64-.24-.96-.36,.5-1.45,.14-2.83-.36-4.19Z" fill="#687d42"/><path d="M4.38,41.22c.44,.26,.16,.46-.03,.7-.88,1.08-1.68,2.2-2.23,3.49-.31-.03-.76,.16-.89-.12-.17-.38,.18-.74,.44-1.04,.75-.87,1.47-1.77,2.36-2.5,.16-.13,.36-.27,.35-.53Z" fill="#697e42"/><path d="M5.11,43.5c.19,.09,.2,.26,.25,.44,.29,1.07,.59,2.14,1.16,3.1,.17,.28,.42,.52,.63,.78-.98,.24-2.05-1.02-2.13-1.96-.07-.78-.13-1.58,.09-2.35Z" fill="#697d42"/><path d="M13.26,63.86c-.32-.04-.64-.08-.96-.12,0-1.11,.31-2.63,.71-3.42,.51,1.18,.93,2.31,.25,3.54Z" fill="#687d42"/><path d="M13.97,52.61c.04,.33,.26,.61,.24,.96-.46-.63-.96-1.2-1.76-1.43-.27-.08-.45-.33-.62-.54-.68-.86-1.58-.89-2.54-.72-.12,.02-.23,.03-.35,.05,.92-.62,2.11-.63,3.03-.06,.31,.19,.69,.28,1.04,.42,.24,.5,.47,1.01,.96,1.32Z" fill="#697e42"/><path d="M34.71,37.75c-.33-.28-.71-.51-.84-.96,.74-.33,.79-.97,.1-1.5-.63-.48-1.37-.6-2.14-.54,.01-.24,.17-.37,.36-.48,.29,.25,.65,.06,.97,.14,1.82,.47,2.4,1.23,1.55,3.34Z" fill="#697d42"/><path d="M26.92,59.45c.04,.64-.11,1.31,.23,1.91-.21,.42-.07,.88-.11,1.32,.07,.25,.17,.58-.05,.7-.25,.13-.43-.21-.62-.36-.19-.15-.3-.37-.42-.57,.02-1.09,.31-2.1,.96-2.99Z" fill="#799150"/><path d="M25.96,62.43c.33,.3,.66,.59,1.01,.9,.13-.24,.04-.46,.07-.66,.23,.34,.08,.72,.11,1.08,.04,.36-.08,.75,.13,1.09-.4,.62-.87,.28-1.32,.1,0-.84,0-1.67,0-2.51Z" fill="#697e42"/><path d="M53.76,43.14c-1.25,.05-2.49,.04-3.6-.67-.08-.05-.16-.11-.24-.17,.93,.13,1.86,.12,2.79,.12,.1,0,.2,0,.3,0q.77-.04,.74,.72Z" fill="#687d42"/><path d="M5.82,40.5c-.44-.36-.36-.85-.36-1.33,.24-.32,.48-.63,.72-.95,.38-.27,.65-.72,1.2-.72,.15,.73-.17,1.21-.78,1.56-.54,.32-.77,.82-.78,1.44Z" fill="#697e42"/><path d="M24.41,45.67c.51-1.28,.5-2.63,.46-3.97,.13-.4,.37-.22,.6-.12,.07,.37,.15,.74,.22,1.11-.21,.82-.2,1.71-.7,2.45-.15,.22-.23,.53-.58,.53Z" fill="#7a9251"/><path d="M24.41,45.67c.52-.54,.83-1.19,.93-1.93,.05-.38,.15-.73,.35-1.05,.02,.62,.06,1.23-.08,1.84-.11,.46-.27,.87-.62,1.19-.73,.66-1.07,1.46-.95,2.45-.25-.6-.15-1.2-.02-1.81,.13-.23,.26-.46,.39-.7Z" fill="#fcfcfb"/><path d="M7.38,37.51c-.41,.23-.74,.58-1.2,.72,.23-.57,.46-1.14,.67-1.72,.08-.21,.12-.43,.4-.44,.23,0,.47,0,.7,0,.31,0,.21,.19,.14,.36-.41,.25-.61,.63-.72,1.08Z" fill="#799150"/><path d="M34.34,38.83c.27,.52,.77,.84,1.08,1.32,.15,.49,.09,.95-.22,1.4,.12-.9-.46-1.43-.98-1.99,0-.25-.23-.54,.12-.73Z" fill="#fbfbfb"/><path d="M6.07,42.06c0-.13-.03-.28,.12-.36,.39,.46,.87,.85,1.19,1.38,.19,.32,.36,.66,.11,1.13-.39-.66-.74-1.26-1.09-1.85-.08-.13-.13-.3-.33-.3Z" fill="#687d41"/><path d="M25.48,41.59c-.2,.02-.43-.08-.6,.12-.13-.72-.25-1.44-.38-2.17,.67,.55,.7,1.35,.98,2.05Z" fill="#687d42"/><path d="M39.69,49.37c-.3,.12-.46-.16-.66-.27-.6-.35-1.18-.71-1.93-.45-.14,.05-.31,0-.47,0,.31-.45,.73-.54,1.24-.41,.74,.18,1.33,.56,1.81,1.14Z" fill="#f9faf8"/><path d="M19.96,64.23c-.19,.06-.37,.17-.59,.12,0-.32,0-.64,0-.95,.07-.07,.14-.14,.25-.14,.11,.32,.22,.65,.34,.97Z" fill="#c8c9c8"/><path d="M19.63,63.25c-.05,.1-.14,.14-.25,.14-.01-.11-.02-.22-.03-.32,0-.18-.17-.39,.12-.5,.05,.23,.11,.46,.16,.69Z" fill="#eeefeb"/><path d="M19.46,62.57c-.16,.14-.05,.34-.12,.5-.13-.32-.11-.65-.08-1.16,.1,.32,.15,.49,.2,.66Z" fill="#ccd1c2"/><path d="M34.34,38.83c-.2,.22-.04,.49-.12,.73-.14-.31-.05-.64-.1-.96,.13,.03,.22,.09,.23,.23Z" fill="#d4d9cb"/><path d="M40.93,27.79c-1.15,.05-1.61-.28-1.95-1.39-.14-.47-.24-.96-.41-1.43-.34-.99-1.09-1.45-2.1-1.61-.85-.13-1.71-.04-2.56-.16-2.32-.33-3.81-1.75-4.91-3.7-.79-1.4-1.22-2.88-1.12-4.51,.06-1.07,.05-1.11,1.07-1.38,2.01-.53,4-.51,5.95,.29,.62,.25,1.17,.58,1.61,1.08,.66,.55,1.25,1.16,1.81,1.81,.89,.96,1.5,2.11,2.14,3.23,.14,.24,.26,.5,.44,.71,.4,.48,.6,.99,.47,1.64-.12,.6,.24,1.03,.76,1.3,.5,.25,.97,.16,1.36-.26,.16-.17,.34-.27,.58-.22,1.18,.28,2.39,.44,3.48,1.03,1.23,.66,1.73,1.8,1.36,3.16-.06,.23-.06,.47-.17,.69-.38,1.4-1.84,1.85-2.95,.91-.05-.04-.09-.08-.13-.13-1.03-1.35-2.39-1.68-3.98-1.3-.07-.3,.21-.5,.24-.77,.15-.34,.29-.69-.05-.99-.41-.36-.86-.65-1.45-.56-.14,.02-.26,.11-.38,.16-.61,.32-.74,.73-.41,1.31,.21,.36,.51,.59,.89,.77,.16,.07,.43,.02,.43,.32Z" fill="#d1c782"/><path d="M48.73,28.07c-.03-.71,.24-1.41,.05-2.14-.16-.65-.5-1.11-1.06-1.45-1.17-.71-2.52-.83-3.8-1.18-.16-.04-.2,.06-.28,.14-.55,.55-1.05,.66-1.65,.36-.62-.31-.98-.99-.79-1.7,.11-.41-.01-.64-.22-.96-.6-.92-1.16-1.86-1.7-2.81-.32-.56-.74-1.04-1.09-1.56-.05-.12,0-.15,.11-.12,.83,.8,1.65,1.63,2.2,2.65,1.3,2.41,3.28,3.78,5.99,4.19,1.24,.19,2.33,.74,2.65,2.13,.2,.86,.09,1.68-.41,2.43Z" fill="#fefefe"/><path d="M35.45,32.33c.76-.25,1.43-.66,2.07-1.14,1.23-.92,2.66-.91,4.06-.72,.97,.13,1.8-.1,2.65-.43,.22-.09,.41-.25,.67-.22,.36,.39,.85,.55,1.35,.8-1.43,.63-2.88,.76-4.35,.47-1.73-.34-3.34-.21-4.81,.86-.48,.35-1,.66-1.64,.37Z" fill="#fefefe"/><path d="M18.52,23c.54,.29,.58,.79,.45,1.28-.12,.43-.08,.83,.06,1.22,.21,.61,.08,1.04-.5,1.33-.66-1.28-.65-2.56,0-3.84Z" fill="#aba058"/><path d="M37.7,26.48c-.24,.32-.53,.56-.96,.45-.28-.07-.49-.36-.44-.58,.13-.55-.06-1.17,.32-1.67,.46,0,.67,.31,.79,.67,.13,.37,.19,.76,.28,1.13Z" fill="#aba058"/><path d="M40.93,27.79c-.64-.23-1.25-.48-1.54-1.18-.26-.63-.06-1.1,.6-1.33,.05,1,.4,1.46,1.17,1.6,.3,.05,.57-.17,.86-.05,0,.29-.22,.48-.35,.71-.25,.08-.49,.16-.74,.24Z" fill="#bab06c"/><path d="M38.3,16.65s-.08,.08-.11,.12c-.56-.6-1.12-1.2-1.69-1.8,.75,.4,1.25,1.07,1.8,1.68Z" fill="#f6f6f1"/><path d="M48.93,.73c.69,.15,.96,.67,.7,1.39-.09,.24-.2,.48-.39,.66-.53,.49-.97,1.03-1.23,1.73-.17,.45-.48,.87-1.07,.73-.59-.14-.7-.63-.73-1.15-.04-.73,.07-1.42,.38-2.08,.11-.23,.2-.48,.49-.56,.04,.05,.07,.1,.07,.16,.02,.24-.14,.54,.18,.69,.33,.14,.55-.1,.8-.27,.45-.32,.84-.66,.8-1.28Z" fill="#a992ab"/><path d="M45.61,7.53c.42-.24,.56,.07,.59,.37,.05,.51-.16,.95-.62,1.2-.36,.2-.72,.4-1.15,.5-.34,.08-.67,.24-.87,.58-.14,.24-.33,.5-.66,.36-.37-.16-.42-.53-.37-.86,.12-.75,.65-1.17,1.32-1.41,.39-.14,.8-.23,1.2-.35,.13,.14-.09,.58,.32,.46,.45-.14,.39-.5,.24-.85Z" fill="#a992ab"/><path d="M48.93,.73c.25,.43,.1,.75-.26,1.03-.23,.18-.46,.38-.7,.56-.25,.18-.53,.31-.82,.1-.27-.2-.25-.47-.13-.75,.03-.07,.03-.15,.05-.23,.51-.52,.99-1.13,1.86-.71Z" fill="#fdfdfd"/><path d="M45.61,7.53c.23,.11,.44,.26,.3,.54-.13,.27-.33,.55-.65,.53-.53-.04-.36-.38-.21-.67,.19-.13,.37-.26,.56-.39Z" fill="#f9f8f9"/><path d="M54.64,10.77c.15,.3,.31,.62,.14,.96-.37,.7-.78,1.37-1.07,2.11-.16,.4-.55,.41-.89,.11-.46-.4-.43-.93-.31-1.43,.09-.4,.06-.72-.15-1.07-.34-.55-.16-1.01,.43-1.27,.01,.66,.5,1.17,1.18,1.24,.21,.02,.34-.07,.44-.24,.08-.13,.07-.32,.24-.39Z" fill="#a993ab"/><path d="M53.77,16.89c.31,.93-.51,2.07-1.46,2.03-.32-.02-.57-.19-.66-.51-.09-.34,.12-.56,.36-.75,.25-.19,.52-.35,.78-.53,.41,.27,.75,.23,.98-.24Z" fill="#a992ab"/><path d="M54.64,10.77c-.1,.85-.36,.99-1.09,.61-.1-.05-.22-.09-.33-.13-.68-.24-.76-.44-.44-1.08,.17-.08,.34-.17,.5-.25,.24,.03,.48,.07,.73,.1,.16,.13,.32,.25,.48,.38,.05,.12,.1,.24,.15,.37Z" fill="#fdfdfd"/><path d="M48.36,18.92c-.39,.01-.73,.01-.74-.31-.01-.39,.33-.42,.65-.41,.26,.01,.56-.03,.56,.35,0,.42-.33,.36-.48,.36Z" fill="#a992ab"/><path d="M53.77,16.89c0,.26,0,.53-.33,.61-.32,.07-.54-.05-.64-.37,.29-.59,.38-.62,.98-.24Z" fill="#faf9fa"/><path d="M23.92,31.38c.02-1.42,.94-2.7,2.13-3.08,.86-.27,1.59,.02,2.07,.84,.43,.74,.42,1.53,.13,2.3-.28,.74-.98,1.03-1.7,.7-.3-.14-.53-.13-.74,.1-.34,.37-.73,.71-1.24,.42-.52-.29-.62-.84-.64-1.28Z" fill="#553826"/><path d="M30.04,27.82c-.03,.77-.65,1.24-1.35,.94-.89-.39-1.73-.86-2.67-1.13-.23-.07-.41-.31-.53-.54,.1-.17,.23-.32,.34-.48,.33-.5,.38-.52,.83-.15,.23,.19,.3,.1,.34-.13,.05-.28,.03-.6,.3-.8,.11,.1,.19,.25,.38,.25,.97,0,1.63,.51,2.12,1.3-.19,.34-.36,.67,.24,.75Z" fill="#aba058"/><path d="M22.13,33.54c-.12-.23-.23-.46-.35-.68-.74-1.28-.84-2.6-.2-3.94,.54-1.13,.55-2.2,0-3.37-.71-1.53-.28-2.62,1.02-4.09-.1,.69-.4,1.32-.52,2.01-.13,.73-.1,1.41,.23,2.03,.67,1.23,.5,2.42-.02,3.61-.62,1.42-.56,2.82,.01,4.23,.04,.09,.19,.19,.03,.29-.04,.02-.14-.05-.21-.08Z" fill="#90884f"/><path d="M27.29,25.52c0,.28-.18,.53-.13,.82,.03,.16,.03,.33-.17,.4-.21,.08-.35,0-.45-.18-.27-.48-.44-.28-.57,.09-.09,.25-.21,.43-.5,.43-.1-.14-.23-.25-.23-.47,0-.43-.37-.61-.76-.38-.14,.08-.26,.21-.4,.24-.35,.08-.54-.11-.39-.42,.13-.27,.2-.53,.25-.83,.07-.39,.42-.51,.74-.39,.64,.24,1.28,.24,1.94,.21,.35-.02,.57,.14,.66,.48Z" fill="#553826"/><path d="M35.3,30.92c-.66,.12-1.31,.23-1.97,.35-.98,.19-1.78,.58-2.21,1.59-.48,1.13-1.54,1.4-2.64,1.53-.17,.02-.34,.03-.52,.05,.57-.35,1.12-.72,1.69-1.06,.39-.23,.67-.53,.87-.94,.7-1.41,1.97-2.03,3.49-1.7,.43,.09,.88-.08,1.28,.17Z" fill="#90884f"/><path d="M30.04,27.82c-.23,.09-.49,.15-.62-.12-.18-.36,.2-.45,.38-.63,.16-.03,.19-.18,.27-.29,.27-.41,.75-.47,1.04-.08,.32,.43,.71,.66,1.23,.76,.36,.07,.53,.37,.42,.73-.06,.2-.1,.37-.03,.58,.07,.19-.01,.36-.2,.44-.2,.08-.35-.03-.44-.21-.26-.5-.57-.73-1.04-.22-.12,.13-.3,.15-.44,.05-.17-.13-.1-.32-.06-.5,.11-.49-.03-.63-.5-.51Z" fill="#553826"/><path d="M26.51,35.11c-.43,.06-.64-.19-.66-.61-.02-.5,.72-1.2,1.24-1.18,.4,.01,.69,.16,.67,.65-.02,.55-.63,1.15-1.25,1.14Z" fill="#aba058"/><path d="M23.45,20.61c-.02-1.06,.46-1.42,1.43-1.08,.22,.48,.01,.83-.36,1.12-.36,.28-.73,.26-1.07-.04Z" fill="#aca158"/><path d="M25,35.18c-.03,.31-.17,.51-.48,.51-.27,0-.48-.16-.45-.43,.03-.28,.17-.57,.48-.6,.34-.03,.36,.3,.45,.52Z" fill="#aca159"/><path d="M26.1,20.13c.27,.05,.42,.19,.44,.43,.02,.27-.13,.48-.4,.5-.27,.02-.37-.23-.38-.44-.01-.22,.12-.41,.34-.48Z" fill="#aca159"/><path d="M36.51,27.83c.2,.07,.36,.2,.33,.42-.02,.2-.11,.39-.37,.38-.25-.01-.32-.18-.33-.41,0-.25,.15-.34,.36-.39Z" fill="#aca159"/><path d="M20.81,27.74c0,.33-.07,.64-.46,.63-.32,0-.52-.27-.48-.58,.04-.29,.02-.71,.48-.7,.38,.01,.47,.32,.46,.65Z" fill="#ada259"/><path d="M47.77,42.29c.27,.01,.36,.19,.37,.43,.01,.22-.04,.41-.3,.42-.3,.01-.41-.19-.42-.45,0-.23,.1-.37,.35-.39Z" fill="#f9faf7"/><path d="M41.53,51.93c-.04,.21-.15,.34-.37,.31-.26-.04-.38-.2-.36-.46,.02-.19,.14-.28,.33-.27,.27,.01,.37,.19,.4,.42Z" fill="#f4f6f1"/><path d="M39.06,57.05c-.58-.01-1.04-.08-1.08-.56-.03-.42,.34-.68,.76-.63,.37,.04,.83,.11,.87,.63,.03,.48-.32,.58-.55,.57Z" fill="#647642"/><path d="M42.15,55.23c.34,.06,.74,.09,.7,.55-.05,.54-.56,.49-.92,.52-.31,.02-.71-.13-.68-.5,.04-.5,.52-.5,.91-.57Z" fill="#647642"/><path d="M44.94,55.61c.43-.02,.79,.05,.76,.42-.03,.42-.43,.52-.81,.53-.32,.01-.58-.12-.58-.46,0-.46,.4-.46,.62-.49Z" fill="#647642"/><path d="M6.14,58.13c.25,.04,.63,.05,.64,.55,0,.4-.28,.41-.57,.41-.41,0-.79-.15-.81-.59-.01-.34,.33-.38,.74-.36Z" fill="#647642"/><path d="M2.95,57.04c.31,.09,.61,.15,.6,.56-.01,.4-.31,.51-.61,.51-.3,0-.66-.14-.65-.49,.01-.34,.35-.49,.66-.58Z" fill="#647642"/><path d="M8.49,58.25c-.36,.04-.56-.16-.58-.46-.03-.39,.3-.55,.62-.58,.37-.02,.51,.26,.52,.59,.02,.4-.3,.4-.56,.45Z" fill="#647642"/><path d="M30.52,17.74c.88-.31,1.46-.07,2.09,.86,.43,.63,.41,1.13-.05,1.66-.34,.41-.76,.32-1.13,.11-.59-.33-1.02-.83-1.24-1.47-.15-.43-.11-.87,.33-1.16Z" fill="#9f9659"/><path d="M37.83,19.42c.74-.32,1.25,.22,1.75,.96,.44,.64,.4,1.05-.08,1.66-.31,.24-.63,.21-.95,.04-.63-.33-1.09-.81-1.23-1.52-.1-.48,0-.92,.52-1.14Z" fill="#9f9759"/><path d="M32.55,14.01c.68,.12,1.21,.46,1.59,1.03,.43,.64,.4,.91-.15,1.5-.35,.32-.72,.27-1.09,.04-.57-.35-.96-.84-1.12-1.49-.14-.58,.15-.97,.77-1.07Z" fill="#9f9759"/><path d="M45.38,24.56c1-.61,2.44,.07,2.51,1.2-.21,.62-.82,.83-1.62,.55-.8-.28-1.32-.99-1.1-1.54,.04-.1,.12-.16,.2-.21Z" fill="#9f9759"/><path d="M42.01,26.84c-.58,.34-1.12,.24-1.64-.14-.56-.41-.65-.75-.39-1.42,.69-.43,1.91-.02,2.21,.72,.14,.34-.06,.57-.18,.84Z" fill="#a09759"/><path d="M45.38,24.56c-.25,.74,.3,1.55,1.17,1.66,.51,.07,1.04,.11,1.34-.47,.22,.59-.12,1.21-.77,1.3-.82,.11-1.55-.12-2.1-.76-.5-.59-.32-1.43,.35-1.73Z" fill="#bab06c"/><path d="M32.55,14.01c-.72,.4-.83,.71-.48,1.44,.42,.89,1.13,1.29,1.92,1.08-.58,.72-1.03,.89-1.61,.63-.74-.34-1.23-1.27-1.07-1.99,.09-.41,.19-.82,.55-1.09,.2-.15,.44-.31,.69-.07Z" fill="#bab06c"/><path d="M30.52,17.74c-.39,.76-.34,1.18,.26,1.87,.47,.55,.98,1.01,1.78,.65-.07,.66-.28,.85-.9,.83-.8-.03-1.36-.43-1.7-1.13-.32-.66-.2-1.32,.13-1.95,.08-.16,.23-.28,.43-.27Z" fill="#bab06c"/><path d="M37.83,19.42c-.46,.46-.55,1.01-.23,1.55,.36,.62,.96,1.29,1.9,1.07-.54,.69-.98,.78-1.74,.33-.73-.43-1.14-1.57-.83-2.35,.16-.39,.41-.68,.9-.61Z" fill="#bab06c"/><path d="M36.27,16.73c-.01,.3,.05,.62-.37,.64-.28,.01-.71-.48-.7-.79,.02-.41,.37-.46,.65-.46,.41-.01,.42,.33,.42,.61Z" fill="#aca159"/><path d="M43.83,25.15c0,.31-.12,.4-.33,.38-.32-.03-.51-.21-.52-.53,0-.21,.13-.33,.34-.32,.32,.03,.46,.25,.51,.46Z" fill="#fdfcfa"/><path d="M35.91,18.89c0,.22,0,.48-.29,.5-.3,.01-.31-.24-.31-.47,0-.24,.05-.45,.34-.46,.31,0,.25,.24,.27,.43Z" fill="#aba158"/><path d="M26.57,28.99c.71,0,1.24,.68,1.17,1.54-.07,.9-.35,1.08-1.2,.79-.51-.17-.9,.05-1.22,.4-.33,.37-.52,.27-.64-.16-.3-1.05,.82-2.57,1.89-2.58Z" fill="#e52c20"/></svg>