<?xml version="1.0" encoding="UTF-8"?><svg id="Layer_1" xmlns="http://www.w3.org/2000/svg" viewBox="0 0 67.91 75.8"><path d="M24.21,33.96c-1.01-.27-2.05-.47-3.02-.88-2.56-1.09-4.45-2.97-6.12-5.12-.78-1.01-1.45-2.1-2.26-3.08-.59-.72-1.27-1.32-2.08-1.78-.82-.46-.92-1.04-.24-1.71,1.16-1.16,2.59-1.48,4.18-1.27,.2,.03,.39,.09,.65,.15-.27-1.46-.28-2.91-.22-4.36,.09-2.41,.7-4.67,2.1-6.68,.28-.41,.52-.95,1.21-.71,.18,.06,.21-.16,.25-.27,.51-1.2,1.44-2.05,2.38-2.89,1.12-1,2.24-1.98,2.58-3.56,.14-.63,.82-.77,1.34-.34,.15,.13,.29,.28,.41,.43,.12,.16,.22,.33,.33,.52,.28-.39,.38-.84,.55-1.26,.48-1.17,1.43-1.33,2.17-.32,.72,.98,1.67,1.64,2.71,2.21,2.07,1.11,3.89,2.5,5.18,4.5,.11,.17,.25,.33,.31,.51,.33,1.06,1.06,1.85,1.7,2.7,1.42,1.87,2.34,3.97,2.77,6.28,.08,.41,.17,.38,.48,.19,1.04-.67,2.1-1.31,3.39-1.34,.5,0,.98,.06,1.22,.57,.25,.52-.05,.92-.4,1.27-.7,.71-1.19,1.54-1.43,2.51,.11,.55-.22,1.03-.27,1.55-.3,1.13-.56,2.27-.83,3.41-.09,.29-.15,.59-.25,.88-.12,.36-.19,.75-.36,1.09-.44,1.11-1.03,2.13-1.81,3.04-.52,.54-1.09,1.04-1.72,1.45-.09,.06-.19,.12-.28,.18-.37,.26-.77,.48-1.15,.74-1.83,.98-3.77,1.62-5.85,1.82-.43,.03-.84-.12-1.26-.11-.36-.02-.7-.13-1.04-.23-.41-.16-.81-.09-1.22,0-1.26,.31-2.52,.31-3.79,.09-.12-.02-.23-.06-.31-.16Z" fill="#fe688b"/><path d="M37.65,32.41c.39-.24,.78-.48,1.16-.72,.14,.08,.19,.23,.25,.36,.15,.4,.31,.79,.48,1.17,.24,.72,.17,1.44,.04,2.17,0,.82,.04,.85,.86,.74,.1-.01,.2-.03,.3-.03,1.56-.11,2.2,.38,2.5,1.92,.06,.31,.1,.63,.18,.94,.08,.3,.19,.57,.51,.69,1.06,.13,2.04-.06,2.98-.61,.84-.5,1.73-.89,2.71-1.05,1.16-.19,2.1,.55,2.17,1.72,.02,.32,0,.64,0,.95,.01,.86,.35,1.14,1.2,1.02,.1-.01,.19-.05,.29-.07,.12-.02,.23-.06,.33-.13,1.31-.89,2.79-1.04,4.31-.96,.53-.01,1.11,.13,1.51-.39,.19-.18,.34-.38,.48-.6,.5-.8,1.21-1.22,2.17-1.17,.55,0,1.09,.21,1.65,.05,1.12-.32,1.54-.98,1.33-2.13-.02-.14-.05-.27-.07-.41,.02-.51-.28-.74-.7-.92-2.06-.85-4.18-1.47-6.39-1.77-.31-.04-.64-.05-.96-.39,1.05-.43,2.06-.02,3.05-.06,1.66,.29,3.35,.44,4.94,1.06,.06,0,.14,.04,.17,0,.47-.57,1.04-1.09,1.24-1.84,.13-.5-.09-.88-.47-1.19-.23-.19-.49-.34-.75-.47-1.04-.75-2.24-.62-3.39-.55-1.42,.08-2.84,.25-4.24,.55-.23,.05-.46,.13-.68,.2-.26,.03-.63,.26-.74-.06-.12-.35,.32-.38,.56-.47,2.02-.7,4.08-1.22,6.21-1.43,.34,.02,.52-.05,.39-.48-.51-1.68-1.4-2.26-3.13-2-1.37,.21-2.56-.12-3.36-1.32-1.34-2-3.21-2.62-5.5-2.24-.1,.02-.2,.02-.3,.02-.81,.21-.82,.21-.61,1.02,.15,.6,.26,1.21,.34,1.82,.03,.26,.13,.57-.21,.73-.24-.12-.31-.36-.38-.58-.31-.97-.78-1.87-1.34-2.72-.92-1.39-2.25-1.84-3.83-1.29-.31,.11-.6,.34-.96,.24,.02-.54,.21-1.03,.38-1.53,1.03-.28,2.05-.45,3.11-.15,.71,.2,1.27,.64,1.82,1.1,.26,.22,.5,.26,.82,.17,1.61-.43,3.21-.46,4.81,.09,1.18,.41,2.06,1.21,2.73,2.22,.62,.93,1.39,1.21,2.5,1.03,2.06-.34,3.69,.59,4.23,2.5,.27,.95,.83,1.63,1.73,2.08,.84,.43,1.5,1.02,1.66,2.05,.14,.9-.14,1.68-.73,2.3-.7,.75-.74,1.56-.56,2.48,.33,1.67-.45,3.23-1.81,3.67-.7,.22-1.43,.15-2.13,.01-.68-.14-1.19,.02-1.52,.63-.62,1.15-1.56,1.63-2.86,1.49-1.4-.15-2.72,.12-3.94,.86-.59,.36-1.25,.41-1.9,.32-1.02-.15-1.99-.74-1.86-2.11,.02-.17,0-.35,0-.63-.72,.99-1.35,1.91-2.04,2.8-2.98,3.84-6.75,6.65-11.26,8.48-2.09,.85-4.07,1.87-5.67,3.52-.33,.34-.41,.48,.06,.8,3.28,2.21,5.25,5.41,6.8,8.95,.51,1.16,.83,2.38,1.3,3.55-.31,.41-.73,.52-1.21,.47-.4-.36-.35-.91-.55-1.36-.1-.22-.15-.45-.24-.67-.25-.78-.62-1.5-.93-2.26-.08-.2-.13-.42-.26-.6-.06-.09-.12-.18-.18-.28-.86-1.83-2.04-3.45-3.39-4.96-.33-.37-.76-.64-1.12-.98-.2-.13-.37-.31-.72-.48,.24,.85,.23,1.63,.95,2.22,1.06,.87,1.75,2.06,2.48,3.2,1.11,1.72,1.94,3.57,2.52,5.54,.13,.46,.28,.92,.22,1.41-.34,.38-.61,.84-1.22,.83-.35-.62-.27-1.34-.52-1.99-.51-1.69-1.26-3.27-2.19-4.84,.63,1.65,.7,3.28,.37,4.94-.13,.4-.07,.87-.49,1.14-.42,.09-.82,.01-1.2-.18-.14-.21-.08-.42-.01-.63,.27-.87,.39-1.77,.35-2.68-.03-.6-.17-1.18-.34-1.75-.05-.2-.12-.4-.2-.6-.43-1.18-.94-2.33-1.47-3.48-.11-.43-.24-.86-.38-1.28-.79-2.29-.46-4.56,.05-6.84,.43-1.91,.89-3.81,1.04-5.76,.12-1.53,.3-3.05,.11-4.59-.12-1-.06-2.03-.14-3.04-.04-.55-.18-1.1-.14-1.66-.11-.87-.23-1.74-.39-2.6-.04-.2-.06-.4,.1-.56l1.26,.1c.38,.44,.36,1,.42,1.52,.3,2.62,.52,5.24,.52,7.88,0,2.02-.24,4.02-.6,6.01-.03,.17-.09,.34-.09,.6,2.7-1.56,5.64-2.57,8.14-4.38,1.8-1.3,3.38-2.85,4.95-4.49-.28-.21-.57-.12-.82-.13-1.49-.02-2.19-.61-2.45-2.08-.25-1.37-.21-1.67-1.81-1.44-1.45,.21-2.21-.69-2.06-2.12,.09-.84,.09-1.68-.27-2.47-.1-.22-.18-.45-.09-.7Z" fill="#00983e"/><path d="M28.38,33.87c.4-.14,.8-.25,1.19,.01,.31,.5,.26,1.07,.32,1.62,.11,.85,.25,1.69,.33,2.55,.12,1.51,.24,3.02,.27,4.54,.06,2.92-.4,5.77-.99,8.61-.28,1.35-.61,2.69-.71,4.07-.12,1.76,.26,3.45,.76,5.13,.37,1.22,.75,2.44,.97,3.71,.14,.83,.21,1.66,.18,2.5,.02,.96-.02,1.91-.24,2.84-.46,.26-.95,.34-1.46,.19-.25-.32-.04-.66-.05-1,.45-2.03,.18-4.01-.36-5.97-.32-1.13-.67-2.25-1.05-3.41-1.99,2.86-3.16,5.97-2.95,9.51,0,.3,.05,.61-.11,.9-.5,.22-.9-.03-1.3-.29-.23-1.14-.2-2.3-.04-3.44,.39-2.84,1.52-5.39,3.13-7.75,.51-.74,1.26-1.4,.85-2.42-.18,.2-.44,.42-.64,.7-2.29,2.84-3.71,6.05-4.16,9.68-.14,1-.02,2.02-.23,3.02-.37,.23-.75,.09-1.12,.01-.17-.11-.26-.24-.16-.45-.06-3.76,.88-7.26,2.78-10.51,.25-.43,.51-.85,.77-1.27-3.16-1.36-5.62-3.44-6.94-6.63-.32-.78-.62-1.23-1.5-1.24-.78,0-1.51-.33-2.21-.66-.89-.41-1.8-.54-2.78-.46-1.86,.15-3.71,.16-5.31-1.05-.29-.22-.58-.42-.85-.65-.74-.64-1.43-1.28-2.46-1.54-.96-.23-1.56-1-1.62-2.06-.04-.61,.24-1.05,.8-1.27,.46-.18,.67-.5,.82-.94,.17-.53,.37-1.06,.78-1.46,.64-.62,1.43-.9,2.3-.75,.66,.11,1.06-.11,1.38-.65,.74-1.25,1.7-2.26,3.16-2.65,1.21-.32,2.41-.12,3.6,.14,.94,.21,1.88,.28,2.84,.33,.26,.01,.48-.04,.61-.27,.8-1.33,2.76-1.73,4.32-1.05,.54,.24,1.07,.32,1.61,.1,.35-.14,.71-.08,1.06-.13,.75-.13,1.34,.18,1.79,.73,.6,.74,.99,1.6,1.11,2.55,.11,.88-.09,1.68-.59,2.44-1.1,1.68-2.56,2.99-4.11,4.24-.95,.76-1.67,1.71-2.23,2.79-.25,.48-.22,.92,0,1.43,1.22,2.8,3.45,4.47,6.17,5.62,.31,.13,.56,.1,.82-.12,.38-.33,.62-.72,.72-1.21,.41-2.12,.93-4.22,1.14-6.36,.17-1.76,.23-3.53,.1-5.31-.15-2.05-.41-4.09-.63-6.13-.03-.29-.08-.6,.14-.86Z" fill="#00983e"/><path d="M20.81,68.73l.1,.34c-.39,.3-.87,.22-1.31,.29-.59,.09-1.18,.18-1.75,.37-.27,.09-.56,.25-.46,.59,.09,.32,.4,.29,.66,.23,.66-.14,1.33-.28,2-.37,1.42-.18,2.78,.06,4.1,.57,.47,.18,.88,.46,1.25,.81,.37,.35,.75,.4,1.19,.12,2.39-1.48,4.9-1.47,7.49-.61,.4,.13,.81,.24,1.19,.4,.63,.27,1.14,.14,1.65-.29,1.51-1.29,3.28-2.02,5.24-2.32,.33-.05,.67-.16,.97,.11,.91,.32,1.87,.29,2.8,.46,1.81,.33,3.69,.3,5.45,.94,.27,.1,.52,.21,.71,.42,.39,.41,.36,.95-.1,1.29-.79,.57-1.73,.69-2.65,.84-.53,.09-1.06,.16-1.6,.14-.22-.01-.47,.04-.58,.24-.38,.72-1.08,1-1.77,1.23-1.35,.43-2.74,.65-4.15,.79-2.42,.25-4.85,.3-7.27,.4-2.06,.09-4.11,.09-6.16,.06-2.09-.04-4.18-.16-6.26-.35-2.35-.22-4.71-.45-6.98-1.19-.94-.31-1.92-.6-2.44-1.58-.12-.23-.35-.25-.56-.3-.37-.09-.72-.22-1.05-.42-.8-.51-.82-1.37-.04-1.89,.74-.5,1.59-.74,2.47-.82,1.78-.16,3.57-.28,5.35-.39,.84-.05,1.67-.06,2.51-.09Z" opacity=".3"/><path d="M43.12,68.98c-2.31,.05-4.34,.87-6.1,2.34-.59,.49-1.14,.6-1.86,.31-1.44-.58-2.93-.98-4.5-.98-1.41,0-2.69,.42-3.9,1.12-.78,.46-.92,.45-1.57-.14-.83-.76-1.85-1.04-2.92-1.22-1.4-.23-2.77-.07-4.12,.32-.38,.11-.86,.18-1.01-.33-.14-.49,.24-.7,.65-.84,1.01-.33,2.05-.43,3.11-.5,.37,.06,.76-.06,1.12,.13,.43-.26,.82-.18,1.19,.13,.4,.12,.8,.24,1.21,.36,.49-.07,.84,.23,1.16,.5,.39,.33,.71,.32,1.11,.07,.51-.31,1.09-.48,1.66-.64,.2-.06,.41-.15,.63-.04,.48,.02,.95-.19,1.44-.13,.54-.25,1.06-.3,1.54,.11,.4,.04,.81,.09,1.21,.13,.28-.1,.55,0,.81,.09,.69,.26,1.41,.39,2.06,.75,.36-.28,.73-.56,1.09-.84,.32-.46,.78-.71,1.31-.83,.39-.14,.79-.29,1.18-.43,.83-.34,1.7-.49,2.58-.63,.16-.02,.32-.02,.48-.02,.34,0,.65,.11,.77,.45,.12,.33-.05,.57-.33,.75Z" fill="#047425"/><path d="M35.43,27.48c-.7,2.36-2.16,3.99-4.55,4.72-.95,.29-1.91,.23-2.89,.11-2.4-.31-4.15-1.49-5.21-3.66-.51-1.04-.72-2.14-.63-3.3,.18-.16,.38-.05,.57-.05,.3,0,.6,.04,.88-.05,.33-.1,.64-.26,.65-.67,.01-.38-.24-.56-.56-.68-.13-.05-.26-.09-.39-.15-.19-.13-.39-.26-.13-.51,.16-.09,.35-.09,.51-.16,.77-.36,.79-.36,1.24,.31,.18,.03,.21-.14,.31-.23,.36-.36,.65-.4,1.03-.07,.29,.25,.35,.14,.4-.15,.14-.79-.06-.98-.89-.93-.45,.03-.93,.13-1.27-.31,.03-.29,.26-.44,.44-.62,.97-.97,1.8-2.03,2.11-3.41,.05-.24,.18-.44,.39-.58,.5-.29,.95-.14,1.26,.28,1.17,1.58,2.74,2.74,4.18,4.04,.04,.04,.06,.1,.06,.16-.41,.48-.94,.32-1.44,.28-.6-.04-.76,.12-.73,.7q.04,.57,.55,.26c.31-.18,.57-.05,.82,.13,.13,.09,.16,.28,.36,.35,.22-.18,.26-.59,.66-.6,.36,0,.57,.26,.84,.41,.1,.08,.16,.17,.17,.3-.01,.15-.12,.24-.24,.32-.26,.19-.43,.42-.34,.75,.09,.32,.36,.45,.65,.54,.28,.08,.6,.04,.79,.34,.29,.67,.4,1.38,.37,2.11Z" fill="#fe94aa"/><path d="M24.55,16.84c-1.17,1.51-2.31,3.05-2.98,4.87-.36,.97-.56,1.97-.64,3.01-.11,1.43,.07,2.79,.64,4.26-3.72-3.55-5.59-7.7-5.29-12.75,.2-.86,.57-1.65,.98-2.42,.48-.89,.88-1,1.72-.49,.84,.51,1.75,.85,2.66,1.21,.97,.39,1.83,.96,2.56,1.7,.17,.17,.35,.34,.34,.61Z" fill="#fe94aa"/><path d="M35.34,10.5c-.22,.35-.58,.55-.9,.77-1.3,.91-2.67,1.74-3.9,2.75-.18,.15-.27,.09-.39-.04-.62-.67-1.37-1.23-1.86-2.02-.21-.33-.47-.58-.87-.5-.41,.08-.62,.39-.72,.8-.09,.39-.24,.76-.35,1.14-.09,.3-.22,.29-.4,.09-.77-.85-1.73-1.4-2.79-1.79-.3-.11-.43-.29-.41-.63,.02-.62,.13-1.22,.37-1.8,.38-.66,.99-1.09,1.57-1.53,.99-.76,1.89-1.58,2.45-2.73,.35-.72,.86-.71,1.45-.06,.28,1.21,1.13,1.67,2.29,1.72,.61,.34,1.33,.48,1.78,1.09,.25,.47,.57,.77,1.15,.59,.24,0,.4,.16,.53,.34,.4,.57,.78,1.15,1,1.82Z" fill="#fe94aa"/><path d="M39.04,25.35c-.05,.61-.47,1.03-.76,1.51-.64,1.1-1.42,2.11-2.42,2.95,.3-.7,.6-1.4,.77-2.14,.71-3.02,.12-5.82-1.4-8.48-.7-1.23-1.73-2.17-2.66-3.2-.09-.31,.11-.49,.31-.65,.3-.26,.64-.47,.99-.65,.67-.35,1.29-.77,1.76-1.38,.57-.73,1.05-.71,1.63,.03,.28,.35,.61,.69,.58,1.2,0,.08-.03,.15-.04,.23-.13,.87,.07,1.14,.92,1.25,.48,.85,.62,1.81,.77,2.75,.35,2.23,.36,4.44-.46,6.59Z" fill="#fe94aa"/><path d="M43.96,21.75c.73-.33,1.45-.63,2.28-.61,1.07,.02,1.86,.48,2.47,1.33,.79,1.09,1.32,2.31,1.73,3.59,.26,.11,.24-.12,.29-.25,.34-.85,.31-1.73,.19-2.62-.03-.21-.13-.42-.01-.63,.81-.19,1.62-.21,2.4,.14,1.11,.5,2.18,1.08,2.87,2.15,.06,.46,.09,.93,.21,1.39,0,.2-.11,.33-.26,.44-1.29,.96-2.3,2.19-3.24,3.47-.11,.14-.21,.29-.4,.35-.72,.01-1.37-.34-2.09-.35-.31,0-.63-.07-.94-.08-.55-.09-.97-.44-1.42-.74-1.53-1.02-2.96-2.17-4.34-3.38-.24-.21-.51-.4-.59-.73,.2-1.17,.48-2.33,.85-3.46Z" fill="#4ed25b"/><path d="M39.42,35.4c.14-.76,.16-1.51-.02-2.26-.03-.3,.25-.32,.41-.44,1.21-.92,2.63-1.47,3.88-2.31-.65-.17-1.31-.03-1.96-.08-.35-.03-.72,.11-1.02-.18,.76-.91,1.31-1.93,1.81-2.99,.17-.08,.32,0,.44,.1,1.55,1.1,3.33,1.71,5.08,2.37,.09,.04,.19,.06,.28,.1,.12,.06,.3,.09,.31,.25,0,.19-.17,.26-.33,.3-.46,.13-.91,.29-1.36,.46-.1,.02-.2,0-.29-.03-.08-.01,0,.11-.03,.04,0-.02,0-.03,.03-.03,.74,.03,1.46,.18,2.17,.38,.21,.06,.44,.09,.55,.31-.09,.32-.4,.36-.63,.47-.65,.31-1.2,.75-1.72,1.24-.84,.66-1.88,.96-2.76,1.54-.28,.18-.58,.35-.87,.52-.27,.13-.51,.37-.85,.33-.84-.15-1.67,0-2.5,.03-.22,0-.44,.08-.62-.1Z" fill="#4ed25b"/><path d="M34.13,23.43c-.04-.07-.07-.14-.11-.21,.14-.47-.12-.88-.23-1.31-.11-.43-.59-.2-.85-.39-.04-.02-.07-.03-.11-.03-1.31-1.91-2.93-3.56-4.48-5.26-.2-.22-.37-.47-.56-.7-.2-.43-.45-.85-.38-1.35,.01-.13,0-.27,.13-.35,.1,.01,.2,.06,.26,.14,1.21,1.54,2.85,2.59,4.33,3.81,1.37,1.13,2.28,2.58,2.95,4.19,.04,.09,.03,.2,.14,.25,.24,.41,.29,.87,.37,1.33-.5,.1-.99,.16-1.46-.12Z" fill="#fed8e4"/><path d="M27.41,14.19c.16,.44,.33,.88,.49,1.32,.45,.68,0,1.17-.36,1.68-.22,.11-.3,.32-.35,.53-.37,1.66-1.42,2.86-2.66,3.92-.64,.05-.95,.42-1.04,1.04-.03,.2-.09,.43-.22,.61-.31,.2,.04,.25,.08,.37-.34,.25-.71,.24-1.1,.12,.34-1.91,1.25-3.58,2.43-5.07,1.11-1.4,2.09-2.85,2.72-4.52Z" fill="#feafc3"/><path d="M30.89,6.76c-1.49,.01-2.05-.4-2.39-1.79-.08-.17-.02-.33,.03-.49,.32-.44,.13-.73-.25-1.03-.44-.34-.96-.63-1.1-1.24,.05-.19,.1-.38,.16-.57,.32,.03,.38,.31,.52,.48,.81,.95,1.86,1.55,2.93,2.14,1.92,1.06,3.57,2.41,4.69,4.32,.22,.38,.59,.78,.32,1.3-.43,0-.47-.38-.59-.64-.5-1.11-1.25-2.02-2.18-2.78-.58-.48-.59-.47-1.17,.03-.3,.18-.61,.33-.98,.27Z" fill="#fefefe"/><path d="M24.55,16.84c-.92-1.16-2.13-1.89-3.49-2.39-.77-.28-1.51-.61-2.2-1.05-.69-.44-1.03-.35-1.42,.41-.33,.66-.62,1.33-.92,2.01-.06,.14-.1,.3-.23,.41,.08-1.94,.43-3.81,1.42-5.52,.8,1.12,1.93,1.8,3.19,2.3,1.76,.69,3.05,1.88,3.89,3.58-.03,.12-.12,.2-.23,.25Z" fill="#feabbb"/><path d="M11.95,22.35c-.56-.16-.33-.4-.03-.57,.92-.52,1.9-.65,2.94-.37,.47,.13,.74,.34,.89,.84,.79,2.61,2.35,4.75,4.12,6.78,.56,.65,1.23,1.19,1.79,1.83-.63,.1-1.05-.32-1.52-.61-1.61-1.6-2.85-3.48-4.16-5.32-.92-1.3-2.18-2.07-3.7-2.45-.12-.03-.23-.05-.33-.12Z" fill="#fe94aa"/><path d="M24.77,16.59c-.3-.15-.44-.44-.6-.72-.76-1.37-2-2.16-3.4-2.75-1.03-.43-2.02-.93-2.77-1.8-.16-.18-.33-.35-.31-.61,.12-.21,.23-.41,.4-.71,1.14,1.71,2.99,2.15,4.67,2.87,.85,.36,1.66,.77,2.31,1.45,.64,.66,.66,.74,.19,1.53-.15,.26-.33,.5-.5,.74Z" fill="#fed8e4"/><path d="M23.93,5.08c-1.25,1.78-2.24,3.66-2.43,5.91-.66-.18-1.23-.51-1.76-.94-.25-.2-.28-.46-.19-.75,.32-.97,.9-1.76,1.65-2.44,.77-.69,1.5-1.42,2.26-2.14,.27-.04,.33,.21,.47,.35Z" fill="#fe94aa"/><path d="M11.95,22.35c1.18-.04,2.06,.63,2.98,1.23,.84,.56,1.3,1.43,1.86,2.23,1.06,1.51,2.17,2.99,3.44,4.34-.26,.17-.45-.03-.64-.15-1.12-.69-2.11-1.53-2.96-2.55-.47-.57-.99-1.12-1.56-1.61-.88-1.31-1.9-2.47-3.11-3.48Z" fill="#feabbb"/><path d="M43.23,17.67c.4-.26,.84-.44,1.37-.55-1.8,2.26-1.97,5.03-2.67,7.62-.52,1.95-1.21,3.79-2.8,5.14-.68,.58-1.42,1.09-2.24,1.46-.23,.03-.15-.13-.1-.21,.1-.2,.31-.3,.48-.43,1.08-.8,2.13-1.65,2.83-2.84,.22-.38,.45-.75,.49-1.2,.59-1.41,.67-2.94,.93-4.42,.23-1.13,.4-2.28,.88-3.35,.21-.46,.4-.92,.82-1.23Z" fill="#fefefe"/><path d="M28.63,4.5c-.04,.16-.09,.32-.13,.47-.75-.57-.96-.53-1.36,.34-.39,.84-1.02,1.48-1.71,2.03-.78,.64-1.57,1.26-2.32,1.93,.38-1.38,1.16-2.55,1.97-3.71,.66-.94,1.38-1.84,1.88-2.89,.65,.41,1.16,.97,1.68,1.53,.06,.07,.05,.19,0,.28Z" fill="#feabbb"/><path d="M37.73,14.56c-.08-.68-.54-1.12-1.01-1.55-.26-.24-.55-.1-.68,.1-.72,1.08-1.88,1.55-2.9,2.23-.26,.18-.45,.38-.57,.66-.24-.18-.49-.34-.71-.54-.56-.5-.55-.57,.08-1.01,1.16-.8,2.33-1.59,3.48-2.4,.31-.22,.58-.48,.87-.72,.83,.89,1.43,1.9,1.73,3.09-.07,.11-.15,.19-.3,.14Z" fill="#feabbb"/><path d="M46.95,30.61c.47-.36,1.07-.38,1.67-.63-2.18-.8-4.29-1.52-6.11-2.84,.12-.36,.24-.72,.36-1.07,1.23,1.02,2.58,1.86,3.97,2.64,.76,.43,1.54,.83,2.31,1.26,.07,.04,.15,.07,.19-.04,.89-.03,1.75,.1,2.6,.35,.21,.06,.41,.14,.63,.11,.08,.35-.13,.61-.27,.89-.11,.2-.28,.27-.5,.21-1.5-.46-3.05-.56-4.59-.73-.1-.01-.19-.04-.26-.12Z" fill="#36aa42"/><path d="M15.06,25.83c.28-.14,.33,.15,.45,.26,.8,.81,1.55,1.67,2.36,2.45,.69,.66,1.46,1.23,2.35,1.6,.45,.31,.92,.56,1.44,.71,.8,.61,1.62,1.19,2.46,1.74-1.84-.25-3.48-.95-4.92-2.1-1.65-1.32-2.99-2.91-4.14-4.66Z" fill="#fed8e4"/><path d="M41.68,22.23c-.23,1.54-.31,3.1-.96,4.55-.73,1.52-1.91,2.65-3.24,3.64-.14,.1-.29,.24-.47,.08,1.64-1.91,3.1-3.93,3.81-6.39,.1-.34,.19-.69,.29-1.03,.23-.26,.13-.74,.59-.84Z" fill="#feabbb"/><path d="M37.96,14.44c-.36-.99-.88-1.89-1.49-2.74-.08-.11-.18-.21-.18-.36,.08-.08,.16-.16,.23-.25,.41,.21,.64,.6,.87,.96,1.57,2.51,2.51,5.21,2.63,8.2,.04,1.01-.08,1.97-.29,2.93-.03,.16-.05,.31,0,.47-.19,.58-.29,1.21-.7,1.7,.35-1.61,.6-3.24,.48-4.89-.11-1.52-.32-3.03-.94-4.44-.07-.58-.22-1.13-.61-1.58Z" fill="#fed9e4"/><path d="M35.22,22.22c-.39-.35-.52-.86-.75-1.3-.94-1.76-2.36-3.05-3.94-4.21-1.12-.82-2.21-1.69-2.99-2.87-.02-.19,.08-.34,.17-.56,1.32,1.53,2.95,2.67,4.4,4.01,1.47,1.36,2.57,2.97,3.12,4.93Z" fill="#fefefe"/><path d="M39.74,23.65c-.13-.13-.11-.3-.07-.45,.68-2.82,.03-5.5-.91-8.13-.52-1.45-1.33-2.75-2.23-3.99,.21-.42,.39-.18,.55,.04,1.41,1.84,2.39,3.87,2.81,6.16,.4,2.14,.33,4.25-.16,6.36Z" fill="#fefefe"/><path d="M49.35,29.91s.11,.08,.12,.13c.04,.15-.09,.1-.13,.08-.31-.14-.62-.28-.92-.44-1.86-.99-3.76-1.91-5.35-3.33-.09-.08-.17-.16-.19-.29,.03-.3,.09-.59,.23-.85,1.68,1.51,3.41,2.96,5.31,4.19,.3,.19,.62,.35,.93,.52Z" fill="#00993e"/><path d="M34.13,23.43c.49,.04,.99-.1,1.46,.12,.8,.4,.83,.95,.11,1.56-.2,.22-.44,.3-.73,.24-.26-.19-.58-.07-.86-.2-.34-.15-.65-.32-.69-.74-.04-.41,.16-.68,.53-.84,.07-.03,.12-.09,.18-.14Z" fill="#fec8e4"/><path d="M22.25,23.78c.35-.19,.73-.08,1.1-.12,.19,.05,.39,.07,.57,.14,.31,.13,.5,.35,.52,.72,.01,.36-.14,.59-.45,.75-.61,.32-1.22,.22-1.84,.07-.69-.63-.66-1.09,.11-1.56Z" fill="#fec8e4"/><path d="M31.85,6.41c.29-.49,.56-.66,1.1-.2,.92,.78,1.73,1.63,2.27,2.73,.16,.33,.24,.73,.59,.95-.09,.25-.24,.47-.47,.62-.49-.45-.61-1.15-1.04-1.64-.16-.17-.25-.41-.53-.43-.1-.56-.24-1.07-.97-1.04-.26-.38-.81-.48-.94-.99Z" fill="#fed8e4"/><path d="M30.07,38.06c-.2-1.39-.41-2.78-.5-4.18,.32,.08,.65,.15,.97,.23,.15,1.04,.31,2.08,.46,3.12-.12,.17-.15,.4-.31,.55-.18,.15-.31,.42-.62,.28Z" fill="#36a942"/><path d="M41.68,22.23c-.27,.23-.25,.66-.59,.84,.11-.92,.23-1.83,.34-2.75,0-.08,.03-.17,0-.24-.4-1.14,.38-1.62,1.17-2.1,.2-.12,.38-.28,.63-.31-.92,1.38-1.23,2.97-1.56,4.56Z" fill="#fe94aa"/><path d="M40.71,30.13h3.53c0,.06,0,.12,0,.18l-.53,.19c-1.16,.29-2.32,.62-3.46,.96-.41,.05-.8,.37-1.24,.12,.56-.48,1.13-.97,1.69-1.45Z" fill="#00993e"/><path d="M37,30.49c.95-.48,1.7-1.2,2.38-1.99,.47-.55,.9-1.15,1.34-1.72-.24,1.07-.89,1.89-1.65,2.62-.66,.63-1.33,1.25-2.12,1.71-.08,.05-.17,.13-.05,.23-.5,.31-1,.6-1.68,.74,.65-.58,1.22-1.09,1.79-1.59Z" fill="#fed8e4"/><path d="M28.63,4.5c-.04-.29-.25-.46-.46-.6-.49-.32-.84-.78-1.22-1.21,.08-.16,.15-.32,.23-.47,.36,.51,.82,.93,1.33,1.25,.53,.34,.45,.64,.12,1.03Z" fill="#fed8e4"/><path d="M34.97,25.35c.21-.18,.49-.16,.73-.24,.05,.8-.08,1.59-.26,2.37-.15-.71-.31-1.42-.46-2.13Z" fill="#fed7e3"/><path d="M23.93,5.08c-.27,.03-.31-.24-.47-.35,.24-.32,.48-.64,.72-.96,.32,0,.25,.3,.35,.47-.2,.28-.4,.56-.6,.84Z" fill="#feacbd"/><path d="M24.54,4.24c-.26-.05-.18-.35-.35-.47,.03-.28,.19-.49,.36-.75,.23,.46,.39,.85-.02,1.22Z" fill="#fef9fa"/><path d="M39.02,31.58c.41-.08,.82-.17,1.23-.25-.29,.52-.75,.73-1.32,.73-.04-.12-.08-.25-.12-.37,.04-.1,.12-.11,.2-.1Z" fill="#47ca57"/><path d="M59.55,40.21c-.36,.7-1,.43-1.56,.47-.57-.12-1.04-.5-1.59-.66-.97-.29-1.53-.13-2.15,.67-.29,.38-.57,.77-.94,1.07-1.08,.39-1.68-.04-1.68-1.16,0-.51,.1-1.03-.14-1.53-.36-.74-.97-1.04-1.8-.93-.9,.13-1.74,.45-2.49,.92-1.04,.65-2.15,.88-3.35,.76-.27-.49-.34-1.04-.26-1.56,.16-.97,.1-1.86-.53-2.65-.02-.34,.3-.39,.48-.54,1.18-.68,2.47-1.08,3.74-1.54,.13-.05,.27-.04,.41-.02,.9,.15,1.78-.12,2.67-.09,.49,.02,.82,.2,.97,.63,.22,.64,.58,1.22,.86,1.83,.19,.78-.04,1.53-.14,2.29,.01,.08,.13,.01,.05,.03-.03,0-.05,0-.04-.04,.04-.52,.14-1.02,.42-1.47,.46-.51,.72-1.13,.89-1.79,.21-.83,.25-.86,1.14-.85,.16,0,.32,0,.47,.01,.7,.11,1.22,.57,1.78,.94,1.04,.68,2.02,1.43,2.79,2.18-.63-.51-1.26-1.26-2.04-1.86-.17-.13-.31-.31-.41-.51-.19-.36-.45-.65-.72-.95-.12-.13-.3-.28-.21-.46,.1-.21,.34-.17,.53-.14,1.1,.21,2.19,.43,3.22,.88,1.67,.73,3.2,1.68,4.54,2.93-.07,.41-.42,.5-.73,.61-.43,.15-.86,.29-1.31,.41-1.69-.55-2.68,.17-2.9,2.1Z" fill="#4ed25b"/><path d="M62.91,28.69c-2.34,.25-4.6,.82-6.78,1.75,.22-.02,.44-.04,.65-.07,2.54-.27,5.08-.32,7.61,.13,.31,.06,.62,.14,.94,.17,.33,.03,.39,.3,.44,.55,.08,.36,.03,.72-.13,1.04-.28,.55-.43,1.14-.62,1.72-1.61-.62-3.32-.78-5-1.09-1.72-.48-3.43-.99-5.11-1.58-.55-.19-.64-.34-.43-.89,.48-1.3,1.01-2.59,1.73-3.79,.06-.08,.13-.14,.23-.16,1.01,.45,1.99,.24,2.97-.15,.25-.06,.51-.08,.76-.17,.68-.24,1.22-.02,1.64,.51,.48,.61,.84,1.29,1.11,2.02Z" fill="#4ed25b"/><path d="M30.07,38.06c.26-.01,.37-.28,.58-.37,.26,.22,.29,.52,.29,.82-.03,1.26,.14,2.51,.12,3.76-.05,2.99-.32,5.97-1.03,8.89-.38,1.55-.79,3.1-.75,4.71,.03,1.22,.31,2.41,.75,3.55,.08,.36,.22,.7,.38,1.04,.58,1.11,1.09,2.25,1.45,3.45,.09,.17,.03,.39,.17,.55,.15,.62,.08,1.24,.01,1.86-.28,.45-.77,.47-1.21,.56-.21,.05-.21-.18-.28-.31,.07-2.12-.53-4.12-1.15-6.12-.55-1.76-.92-3.54-.77-5.4,.12-1.41,.49-2.77,.75-4.15,.32-1.75,.69-3.49,.83-5.28,.13-1.58,.08-3.15,.08-4.72,0-.95-.14-1.9-.21-2.85Z" fill="#4ed25b"/><path d="M56.31,26.66c-.61,1.24-1.2,2.5-1.69,3.8-.15,.4-.09,.55,.35,.71,1.6,.6,3.29,.9,4.86,1.6,.07,.03,.13,.08,.2,.12-.95,0-1.9-.23-3.04-.05,1.1,.2,2.04,.34,2.96,.54,1.63,.36,3.21,.9,4.75,1.55,.47,.2,.51,.56,.46,.99-.11,.48-.15,1-.75,1.17-.9-.53-1.68-1.25-2.57-1.8-1.65-1.03-3.46-1.57-5.35-1.91-.07-.01-.14,.02-.28,.03,.39,.49,.86,.84,1.05,1.4-.19,.14-.34,.01-.48-.1-.79-.64-1.59-1.27-2.44-1.83-.16-.1-.39-.23-.3-.46,.07-.18,.3-.17,.48-.17,.54,0,1.09-.07,1.44,.05-.56-.06-1.27-.26-2.01-.35-1.06-.13-1.13-.25-.68-1.23,.64-1.41,1.42-2.72,2.54-3.8,.14-.13,.25-.32,.5-.26Z" fill="#36a942"/><path d="M47.07,41.27c.58-1.19,1.07-1.56,2.35-1.74-.65,1.08-1.38,2.07-2.14,3.03-1.76,2.23-3.84,4.12-6.24,5.67-1.62,1.04-3.36,1.81-5.12,2.58-1.7,.74-3.33,1.59-4.72,2.91,0-1.17,.27-1.58,1.24-2,.17-.06,.36,.03,.53-.07,1.27-.79,2.73-1.22,3.97-2.06,.39-.28,.85-.43,1.29-.62,1.06-.46,1.91-1.22,2.89-1.79,.99-.59,1.85-1.37,2.73-2.1,1.25-1.03,2.29-2.25,3.3-3.5,.2-.25-.32-.13-.1-.3Z" fill="#36a942"/><path d="M38.45,68.86c-.44,.28-.88,.55-1.31,.83-.43-2.4-1.4-4.59-2.66-6.66-.71-1.15-1.36-2.39-2.43-3.22-.95-.74-.91-1.73-1.21-2.76,.49,.14,.75,.43,1.04,.68,.1,.18,.22,.35,.25,.56,0,.25,.09,.46,.29,.63,1.54,1.27,2.55,2.95,3.5,4.66,.51,.9,.98,1.83,1.22,2.86,.09,.37,.32,.41,.62,.38,.36,.64,.41,1.38,.71,2.04Z" fill="#36aa42"/><path d="M29.97,59.61c-.56-1.27-.91-2.61-.9-3.99,.02-1.21,.27-2.41,.58-3.58,1.15-4.44,1.36-8.96,1.11-13.52-.02-.28-.07-.55-.11-.83,.11-.16,.1-.4,.35-.45,.12,1.55,.21,3.1,.3,4.65,.17,3.01-.17,5.95-.81,8.88-.35,1.59-.72,3.17-.87,4.79-.11,1.14,.11,2.26,.38,3.36,.03,.11,.04,.23,.06,.35,.04,.13,.16,.29-.09,.34Z" fill="#faf7fd"/><path d="M62.91,28.69c-.28-.27-.44-.61-.61-.95-.19-.38-.39-.75-.68-1.05-.38-.39-.79-.65-1.38-.39-.25,.11-.54,.1-.82,.14-1.25,.17-2.78-.57-3.34-1.61-1.4-1.48-3.01-2.49-5.16-2.24-.06,.02-.12,0-.13-.07-.01-.09,.07-.13,.14-.17,.83-.06,1.64-.18,2.49-.05,1.37,.22,2.43,.86,3.17,1.99,.91,1.39,2.12,1.87,3.74,1.56,1.45-.27,2.41,.34,2.92,1.73,.12,.31,.22,.63,.34,.97-.19,.17-.44,.07-.67,.12Z" fill="#f9f5fa"/><path d="M43.11,35.52c.78,.73,.86,1.63,.65,2.61-.13,.57,.18,1.13,.1,1.7-.67-.3-.63-.95-.72-1.52-.08-.47-.21-.92-.42-1.35-.21-.42-.57-.63-.98-.69-.43-.06-.88-.05-1.3,.02-.97,.17-1.04,.12-1.01-.9,.75-.19,1.52-.04,2.28-.19,.31-.06,.65,.03,.95,.2-.1,.41-.5,.43-.72,.6,.4-.05,.64-.64,1.18-.49Z" fill="#36a942"/><path d="M65.42,30.74c-.54,.26-1.04-.06-1.54-.15-1.17-.21-2.33-.22-3.51-.21-1.2,0-2.39,0-3.59,0,.8-.38,1.68-.45,2.53-.56,1.21-.16,2.43-.31,3.67-.27,.84,.02,1.65,.1,2.32,.68,0,.18,.24,.31,.12,.52Z" fill="#36aa42"/><path d="M30.55,66.58c.14,.25,.33,.21,.55,.12,.29-.12,.58-.21,.88-.32,.11-.2,.28-.23,.48-.15,.11,1.15-.19,2.25-.49,3.34-.51-.16-1.03-.09-1.54-.11,.04-.96,.09-1.91,.13-2.87Z" fill="#36a942"/><path d="M38.93,32.06c.45-.22,.92-.41,1.32-.73,1.14-.36,2.24-.85,3.47-.83-1.37,.99-2.98,1.59-4.32,2.64-.25-.32-.34-.71-.47-1.08Z" fill="#36a942"/><path d="M37.74,66.81c-.37,.34-.59,.31-.73-.21-.64-2.32-1.91-4.31-3.35-6.19-.4-.52-.81-1.03-1.38-1.39-.26-.17-.35-.42-.29-.73,.36-.02,.52,.27,.71,.48,1.23,1.43,2.5,2.83,3.39,4.51,.08,.15,.15,.33,.32,.42,.04,.06,.08,.13,.12,.19,.09,.21,.11,.45,.26,.64,.42,.72,.71,1.48,.95,2.27Z" fill="#50d25d"/><path d="M33.52,68.61c.64,.25,1.29,.1,1.94,.07,.04,0,.07-.12,.11-.19,.31,.64,.3,1.36,.47,2.04-.54,.06-.97-.28-1.47-.4-.48-.11-.94-.29-1.4-.44,.12-.36,.23-.72,.35-1.08Z" opacity=".3"/><path d="M53.31,41.76c.35-.63,.77-1.21,1.3-1.68,.72-.63,1.54-.37,2.31-.04,.38,.16,.72,.42,1.08,.63-.65,.05-1.3,.03-1.95,.06-1.05,.05-1.79,.77-2.73,1.03Z" fill="#36aa42"/><path d="M64.42,37.09c.38-.3,.53-.76,.75-1.17,.59,1.99-.7,2.94-2.55,2.64-.18-.03-.36-.03-.54-.04-.08-.3,.03-.47,.34-.51,.42-.27,.92-.33,1.38-.5,.24-.09,.47-.21,.62-.43Z" fill="#f8f4fa"/><path d="M41.19,47.28c-1.29,.98-2.68,1.8-4.18,2.41-.43,.25-.9,.43-1.36,.61-.22,.09-.45,.18-.67-.03,.82-.41,1.63-.84,2.46-1.23,2.04-.95,3.87-2.21,5.58-3.67,.11-.02,.14,.06,.16,.15-.29,.57-.89,.83-1.33,1.25-.19,.18-.41,.37-.66,.5Z" fill="#f8f6fb"/><path d="M50.92,22.36c-.03,.08-.17,.15,0,.24,.41,1.19,.33,2.37-.12,3.53-.04,.09-.06,.24-.16,.2-.09-.03-.13-.18-.19-.27,.29-.7-.09-1.34-.16-2.01-.05-.46-.23-.91-.36-1.4,.33-.09,.67-.19,1-.28Z" fill="#36a942"/><path d="M65.42,30.74c-.05-.17-.28-.3-.12-.52,.25,.16,.52,.3,.74,.49,.54,.46,.65,.95,.37,1.59-.28,.66-.89,1.11-1.18,1.76,0,0-.13-.05-.2-.07-.16-.59,.15-1.07,.38-1.57,.26-.56,.38-1.11,.02-1.67Z" fill="#f8f4f9"/><path d="M41.19,47.28c.59-.66,1.37-1.11,1.91-1.83,.46-.49,.94-.95,1.45-1.39,.44-.43,.87-.86,1.31-1.29,.06-.22,.29-.31,.37-.51,.39-.24,.43-.77,.84-.99,.19,.13,.32,.2,.1,.5-1.59,2.2-3.66,3.88-5.81,5.48-.04,.03-.11,.02-.17,.03Z" fill="#50d25d"/><path d="M62.41,38.02c-.13,.16-.31,.28-.34,.51-.91-.06-1.56,.34-2.03,1.11-.13,.21-.24,.47-.5,.58-.35-.77,.13-1.35,.54-1.86,.38-.48,.98-.75,1.64-.61,.23,.05,.53,0,.68,.28Z" fill="#36aa42"/><path d="M36.41,63.71c-.29,0-.32-.27-.43-.44-1.18-1.78-2.46-3.48-4-4.98-.07-.18-.16-.36-.12-.56,1.58,1.19,2.7,2.76,3.72,4.42,.31,.5,.62,1,.82,1.56Z" fill="#f7f6fa"/><path d="M34.98,50.27c.74,.04,1.34-.44,2.03-.58-.46,.46-1.08,.64-1.64,.91-.78,.37-1.57,.73-2.32,1.18-.22,.13-.43,.21-.6-.07,.74-.66,1.64-1.05,2.53-1.45Z" fill="#4ed15b"/><path d="M32.45,66.22c-.16,.05-.32,.1-.48,.15-.26-.31,0-.63,0-.95-.01-.33,0-.67,0-1,.04-.05,.07-.05,.11,0,.17,.59,.35,1.18,.38,1.8Z" fill="#f5f5f8"/><path d="M44.55,44.06c-.37,.57-.9,1-1.45,1.39-.02-.03-.05-.06-.08-.08,.49-.46,.89-1.02,1.53-1.31Z" fill="#e4f0e9"/><path d="M29.97,59.61c.12-.09,.07-.23,.09-.34,.13,.39,.36,.76,.35,1.19-.31-.2-.32-.55-.44-.85Z" fill="#d8ebde"/><path d="M46.23,42.26c0,.26-.2,.38-.37,.51-.05-.3,.19-.38,.37-.51Z" fill="#7cce8b"/><path d="M36.79,64.54c-.27-.14-.31-.37-.26-.64,.16,.18,.26,.4,.26,.64Z" fill="#c4e2ce"/><path d="M32.07,64.42h-.06s-.06,0-.06,0c-.15-.15-.12-.33-.1-.51,.21,.11,.07,.37,.22,.51Z" fill="#e3f0e8"/><path d="M20.7,36.73c-.04,.4-.39,.7-.39,1.24,.45-.58,.88-1.05,1.21-1.58,.51-.85,1.35-.96,2.19-1.09,.26-.04,.52,.07,.73,.21,.96,.65,1.34,2.48,.68,3.44-.97,1.43-2.18,2.63-3.51,3.72-.89,.73-1.68,1.56-2.48,2.63,.09-2.07,.44-3.91,1.01-5.72-.45,.51-.64,1.16-.84,1.77-.67,2.02-1.25,4.07-1.13,6.24,.02,.31,.09,.57,.25,.84,.59,1.04,1.1,2.11,1.85,3.06,.9,1.13,2.05,1.92,3.26,2.66,.68,.42,1.41,.73,2.13,1.06-.26,.7-.73,.69-1.27,.43-2.84-1.39-5.06-3.36-6.1-6.45-.37-1.11-.37-1.09-1.57-1.2-.85-.08-1.69-.28-2.46-.65-1.24-.59-2.51-.75-3.88-.56-1.89,.26-3.59-.24-5-1.58-.07-.07-.13-.14-.19-.22,.13-.15,.28-.08,.41-.1,.32-.06,.58,.1,.83,.25,1.73,1.02,3.58,.9,5.44,.59,.55-.09,.63-.42,.31-.92-.15-.23-.35-.46-.12-.75,.99,.45,1.96,.94,2.93,1.45-.83-.83-1.84-1.41-2.8-2.06,.27-.39,.65-.69,.95-1.07,.48-.6,.85-1.25,1.08-1.98,.28-.89,.88-1.5,1.73-1.88,.26-.12,.53-.21,.79,0,.25,.71,.04,1.46,.24,2.18,.05,.16-.06,.36,.24,.53-.01-1.07,0-2.09,.25-3.08,.5-1.32,1.98-1.97,3.22-1.43Z" fill="#36a942"/><path d="M12.07,44.06c-.03,.31,.13,.51,.32,.73,.39,.43,.29,.93-.27,1.04-1.93,.38-3.86,.53-5.67-.51-.28-.16-.56-.29-.85-.44,.04-.1,.13-.12,.23-.13,.6-.06,.98-.49,1.42-.83,.62-.48,1.23-.95,2.06-.95,.95,.29,1.87,.65,2.76,1.08Z" fill="#4ed25b"/><path d="M23.22,69.33c-.4-.04-.8-.08-1.19-.13-.05-1.08,.04-2.16,.13-3.23,.25-.02,.38-.14,.43-.4,.35-2.05,1.1-3.96,1.98-5.82,.46-.98,.99-1.91,1.57-2.82,.1-.16,.29-.29,.21-.53,.26-.41,.63-.7,1.06-1.13-.08,.56-.19,.98-.02,1.4,.08,.19-.07,.33-.19,.47-1.73,2.25-2.99,4.73-3.69,7.49-.39,1.55-.28,3.12-.3,4.69Z" fill="#36a942"/><path d="M10.04,40.56c-.89-.43-1.69-.97-2.28-1.78,.42-1.04,1.28-1.59,2.28-1.95,1.09-.4,2.24-.27,3.37-.23,.1,0,.19,.06,.25,.14-.08,.04-.16,.08-.24,.13-.82,.51-1.29,1.34-1.86,2.08-.28,.36-.55,.74-.8,1.12-.17,.26-.38,.46-.71,.49Z" fill="#4ed25b"/><path d="M6.93,39.37c.48,.58,1.07,.99,1.79,1.21,.16,.31-.11,.34-.28,.39-.84,.24-1.54,.75-2.23,1.26-.84,.61-1.73,1.11-2.81,1-.54-.05-1.1-.14-1.37-.73,.33-.22,.66-.22,1.06-.17,.77,.09,1.56,.03,2.34-.04-.65-.3-1.39-.33-1.99-.75,.34-1,.95-1.67,2.07-1.76,.49-.04,.99-.09,1.41-.41Z" fill="#4ed25b"/><path d="M16.75,38.53c-1.05,.03-2.03,.77-2.35,1.87-.32,1.09-.96,1.94-1.72,2.74-.13,.14-.26,.31-.49,.31-.17-.11-.33-.23-.5-.34,0-.04,0-.09,.03-.11,.9-.83,1.14-1.96,1.45-3.07,.22-.79,.69-1.44,1.42-1.84,.68-.37,1.34-.78,2.13-.87v1.32Z" fill="#4ed25b"/><path d="M2.02,42.49c1.13,.91,2.3,.72,3.44,.04,1.05-.63,1.94-1.53,3.19-1.8,.03,0,.04-.1,.06-.16,.77,.34,1.57,.55,2.46,.62-.27,.48-.64,.58-1.14,.51-.62-.09-1.21-.35-1.86-.22-.49,.1-.89,.31-1.23,.67-.26,.28-.56,.52-.79,.81-.75,.92-2.32,1.1-3.4,.65-.57-.24-.86-.7-.72-1.13Z" fill="#36a942"/><path d="M24.45,68.72c1.56,0,3.11,.04,4.66-.1,.04,.33-.07,.64-.13,.95-.94,.29-1.9,.56-2.74,1.1-.16,.1-.25,.04-.36-.07-.42-.41-.96-.64-1.46-.92,0-.32,.01-.64,.02-.97Z" opacity=".3"/><path d="M26.35,56.4c.3,.15,.13,.33,.02,.48-1.76,2.7-3.05,5.59-3.64,8.78-.06,.34-.15,.64-.58,.31,.27-1.38,.54-2.75,1.03-4.08,.74-2.02,1.83-3.83,3.16-5.5Z" fill="#4dd25a"/><path d="M20.7,36.73c-.08,0-.16,.01-.24,0-1.34-.24-2.26,.4-2.99,1.43,.03-.69,.16-1.36,.34-2.03,1.06-.79,2.21-1.01,3.46-.49l-.58,1.09Z" fill="#4dd25b"/><path d="M13.65,36.74c-.99,.03-1.97-.09-2.96,.09-1.11,.2-1.97,.78-2.65,1.65-.09,.11-.14,.24-.28,.3-.3-.16-.09-.32,0-.48,1.24-2.02,2.65-2.63,4.96-2.13,.4,.09,.8,.17,1.21,.26,.03,.22-.19,.22-.29,.31Z" fill="#76ef7e"/><path d="M16.74,37.21c-.46,.36-1.04,.47-1.56,.72-1.11,.53-1.77,1.38-2.02,2.56-.22,1.02-.49,2.02-1.46,2.63-.41-.13-.63-.25-.1-.58,.81-.51,1.15-1.35,1.31-2.24,.33-1.95,1.54-2.95,3.4-3.29,.14-.03,.48-.24,.42,.22Z" fill="#76ef7e"/><path d="M10.04,40.56c.79-.6,1.16-1.53,1.79-2.25,.47-.53,.81-1.21,1.57-1.44-.95,.88-1.45,1.98-1.72,3.23-.23,1.09-.34,1.11-1.33,.62-.11-.05-.21-.11-.32-.16Z" fill="#36aa42"/><path d="M6.93,39.37c-.26,.61-.88,.52-1.33,.55-.97,.06-1.52,.57-1.91,1.36-.05,.1-.16,.17-.24,.25-.06-.04-.18-.08-.18-.12,.01-1.15,.89-2.01,2.04-1.93,.56,.04,1.09-.08,1.63-.11Z" fill="#76e87f"/><path d="M21.28,35.64c-.69-.03-1.36-.18-2.07,0-.49,.12-.9,.41-1.39,.5,.64-1.41,2.37-1.33,3.43-.7,.09,.05,.05,.14,.04,.21Z" fill="#76ee7e"/><path d="M9.31,42.98c-1.03,.28-1.83,.94-2.64,1.58-.22,.17-.5,.4-.84,.19,.58-.32,1.07-.76,1.47-1.27,.55-.71,1.18-.94,2.01-.5Z" fill="#75ee7d"/><path d="M30.2,26.37c.04,.5-.04,.99-.32,1.43-.45,.7-1.2,.75-1.76,.14-.67-.74-.75-2.4-.16-3.2,.51-.7,1.36-.68,1.83,.04,.32,.49,.44,1.02,.4,1.6Z" fill="#553826"/><path d="M32.94,21.53c.86-.15,.89-.13,1.08,.8,.06,.3,.54,.59,0,.89-.14-.02-.27-.05-.38-.15-.5-.39-.61-.36-.81,.24-.05,.15-.12,.25-.28,.26-.18,.01-.27-.09-.35-.26-.24-.54-.56-.58-.93-.14-.11,.13-.23,.22-.41,.17-.2-.05-.22-.21-.21-.38,0-.02,0-.04,0-.06q0-1.2,1.26-1.16c.36,.01,.71-.03,1.03-.22Z" fill="#553826"/><path d="M27.54,17.19c0-.14,0-.28,.1-.4,.31-.38,.37-.82,.26-1.29,1.51,1.83,3.35,3.38,4.63,5.41,.12,.19,.24,.36,.29,.58-.83-.52-1.46-1.28-2.21-1.9-.74-.6-1.4-1.29-1.95-2.08-.28-.4-.64-.6-1.13-.33Z" fill="#feabbb"/><path d="M23.27,23.29c-.14-.52,.17-.96,.29-1.42,.11-.44,.61-.28,.97-.23,.43,.26,.91,.26,1.39,.19,.79-.11,.96,.06,.89,.83-.01,.12,.01,.24,.02,.36,0,.18,.03,.37-.21,.44-.21,.06-.32-.06-.44-.22-.28-.38-.71-.32-.88,.13-.07,.19-.14,.33-.36,.31-.23-.02-.26-.2-.29-.38-.08-.46-.37-.5-.67-.23-.22,.2-.42,.28-.7,.21Z" fill="#553826"/><path d="M32.8,7.35c.75-.17,1.16,.29,.97,1.09-.6,.26-.77,.18-1.21-.59-.09-.24-.1-.45,.23-.5Z" fill="#fefefd"/><path d="M32.8,7.35c-.2,.11-.23,.3-.23,.5-.26-.42-.73-.52-1.12-.74-.19-.11-.41-.15-.55-.34,.32-.12,.64-.24,.96-.35,.26,.36,.83,.42,.94,.94Z" fill="#feadbc"/><path d="M37.96,14.44c.55,.31,.8,.94,.61,1.58-.42,.36-.68,.16-.83-.27-.14-.39-.26-.79-.01-1.19,.08-.04,.16-.08,.24-.12Z" fill="#fefdfd"/><path d="M45.96,22.83c1.27-.11,1.99,.63,2.66,1.49,1.05,1.35,1.84,2.88,2.81,4.28,.17,.24,.07,.5-.07,.73-.15,.27-.41,.23-.64,.19-.59-.1-1.15-.32-1.68-.59-1.87-.93-3.57-2.08-4.79-3.82-.42-.59-.35-1.06,.14-1.59,.44-.47,.92-.83,1.56-.69Z" fill="#78e97f"/><path d="M56.31,26.66c-1.46,1.29-2.4,2.93-3.13,4.71-.1,.25-.01,.29,.22,.33,.86,.14,1.71,.31,2.56,.47,.13,.02,.24,.09,.35,.22h-2.31c.89,.66,1.64,1.25,2.43,1.79,.29,.2,.45,.58,.85,.62,.8,.78,1.6,1.55,2.39,2.33,.15,.15,.34,.26,.45,.61-.95-.8-1.8-1.52-2.72-2.16-.73-.51-1.45-1.05-2.28-1.4-.52-.16-.98-.43-1.47-.65-.44-.2-.53-.15-.52,.34,.01,.99-.09,1.95-.52,2.86-.17,.52-.35,1.03-.52,1.55-.13-.81,.13-1.6,.02-2.39-.27-.72-.11-1.49-.26-2.23-.14-.68-.2-.74-.9-.66-.85,.09-1.68,.29-2.5,.52-.25,.07-.5,.1-.76,.1-1.42,.35-2.75,.95-4.08,1.55-.15,.09-.25,.08-.24-.13,.85-.62,1.8-1.05,2.73-1.54,.3-.16,.58-.33,.88-.49,.98-.68,2.1-.96,3.22-1.2-.26-.09-.59-.11-.82-.36-.94-.48-2.01-.48-3.03-.76,.22-.14,.44-.04,.63-.09,1.66,.04,3.3,.19,4.89,.72,.26,.09,.31-.05,.39-.21,.12-.25,.24-.49,.36-.74,.95-1.46,2.08-2.76,3.47-3.83,.09-.07,.17-.16,.26-.24,.09-.16,.24-.27,.35-.09,.1,.15-.08,.26-.23,.33l-.12,.12Z" fill="#00983e"/><path d="M56.43,26.54c0-.12,.23-.16,.12-.31-.02-.02-.16,.05-.24,.07-.25-.46-.27-.96-.23-1.47,.94,.89,2,1.55,3.34,1.61-.98,.42-1.97,.76-2.99,.1Z" fill="#37aa43"/><path d="M54.54,24.42c0,.41-.16,.69-.61,.72-.55,.03-1.25-.67-1.22-1.25,.02-.38,.26-.56,.63-.57,.55-.02,1.19,.58,1.2,1.11Z" fill="#fdfefd"/><path d="M54.75,25.59c.28,0,.4,.17,.42,.41,0,.2-.11,.34-.32,.35-.25,0-.43-.1-.44-.37-.01-.23,.13-.36,.35-.39Z" fill="#f2fbf2"/><path d="M45.96,31.35c.32,0,.64-.02,.96,0,.19,.02,.42,.08,.47,.31,.04,.21-.16,.32-.3,.41-.8,.52-1.6,1.04-2.42,1.54-.73,.44-1.47,.89-2.3,1.14-.88,.27-1.65-.39-1.53-1.27,.05-.39,.3-.63,.61-.84,1.36-.95,2.89-1.28,4.51-1.3Z" fill="#77e97f"/><path d="M49.35,31.46c.44,.03,.83,.22,1.37,.44-1.44,.14-2.58,.69-3.77,1.11,.64-.76,1.47-1.24,2.4-1.56Z" fill="#35a942"/><path d="M43.35,35.04c.05,.1,.14,.13,.24,.13-.16,.12-.33,.23-.49,.35-.45,.08-.76,.45-1.28,.62,.22-.41,.62-.46,.82-.73,.24-.12,.47-.24,.71-.37Z" fill="#039e40"/><path d="M54.55,34.81c.79,.12,1.52,.4,2.16,.91,.82,.64,1.64,1.27,2.2,2.16,.23,.36,.28,.75-.02,1.11-.29,.36-.7,.36-1.03,.17-1.47-.8-2.67-.28-3.8,.71-.21,.18-.43,.35-.65,.53-.2,.16-.4,.36-.68,.16-.26-.19-.28-.46-.23-.75,.19-1,.51-1.96,.9-2.9,.2-.48,.4-.95,.41-1.49,0-.48,.25-.69,.74-.62Z" fill="#78e97f"/><path d="M49.83,37.57c-.71-.05-1.39,.15-2.04,.48-.55,.28-1.1,.56-1.66,.83-.75,.35-1.21,.07-1.21-.75,0-.34-.03-.66-.23-.97-.53-.81-.43-1.31,.41-1.82,.74-.44,1.57-.64,2.42-.78,.74-.12,1.45,0,2.17,.13,.76,.14,1.05,.73,1.25,1.38,.36,1.16,.11,1.5-1.11,1.49Z" fill="#78e97f"/><path d="M47.67,33.62c1.17-.49,2.41-.7,3.67-.85,.46-.06,.59,.2,.64,.57,.11,.85,.17,1.7,.12,2.55-.35-.5-.67-1.02-.83-1.62-.14-.48-.38-.73-.97-.69-.67,.05-1.33,.09-2,.14-.21,.01-.44,.08-.62-.1Z" fill="#36a942"/><path d="M52.6,36.74c.16-1.1,.47-2.18,.36-3.3-.02-.24,.11-.36,.33-.23,.61,.33,1.3,.52,1.82,1-.45,.06-1.01-.17-1.32,.11-.27,.25-.29,.79-.41,1.2-.15,.48-.37,.91-.78,1.23Z" fill="#35a942"/><path d="M61.59,35.78c-.04,.29-.22,.47-.51,.45-.29-.01-.4-.23-.38-.49,.02-.27,.18-.44,.46-.43,.28,.01,.41,.19,.43,.47Z" fill="#f2fbf3"/><path d="M55.32,30.08c.77-1.24,1.37-2.62,2.98-2.99,.84-.19,1.85,.15,2.31,.88,.28,.45,0,.63-.37,.72-.85,.21-1.72,.33-2.55,.61-.79,.26-1.58,.53-2.37,.79Z" fill="#77e97f"/><path d="M57.04,31.08c1.03-.26,2-.23,2.97-.23,.66,0,1.31-.04,1.93,.29,.39,.21,.41,.47,.29,.84-.12,.37-.1,.81-.69,.8-.83-.01-3.76-1.08-4.5-1.7Z" fill="#77e97f"/><path d="M63.49,33.04c-.14,0-.28,0-.41,0-.18-.01-.36-.05-.42-.26-.06-.23-.02-.44,.18-.58,.3-.21,.64-.3,1.01-.28,.38,.02,.69,.17,.7,.57,.01,.38-.3,.52-.64,.56-.14,.01-.28,.02-.41,.02,0,0,0-.02,0-.03Z" fill="#fcfdfc"/><path d="M28.5,26.15c.09-.3,.02-.81,.37-.84,.34-.03,.32,.47,.4,.77,.12,.43,0,.82-.23,1.18-.05,.08-.14,.09-.2,.02-.27-.32-.28-.73-.34-1.13Z" fill="#df2d20"/></svg>