<?xml version="1.0" encoding="UTF-8"?><svg id="Layer_1" xmlns="http://www.w3.org/2000/svg" viewBox="0 0 71.53 94.63"><path d="M63.17,40.49c1.74,.74,3.53,1.22,5.45,1.07,.46-.04,.91-.15,1.38-.14,.52,.01,1,.08,1.24,.58,.25,.53-.05,.93-.44,1.27-1.24,1.07-2.19,2.39-3.08,3.75-.1,.56-.59,.82-.91,1.21-.35,.34-.69,.68-1.03,1.03-.21,.2-.47,.36-.7,.54-1.06,.76-2.2,1.37-3.44,1.77-.46,.1-.9,.26-1.35,.37-.12,.03-.25,.05-.37,.07-.19,.03-.38,.09-.58,.12-.1,.02-.21,.02-.31,.04-1.66,.35-3.34,.41-5.03,.36-.11,.01-.22,0-.33,0-.25,0-.5,0-.75,0-.42-.02-.82-.14-1.24-.14-.3-.04-.59-.12-.89-.13-.19-.02-.38-.08-.58-.11-.34-.06-.68-.15-1.02-.25-.32-.11-.64-.22-.97-.32-.26-.1-.52-.18-.78-.26-2.52-.98-4.79-2.35-6.72-4.26-.26-.25-.56-.45-.82-.69-.35-.29-.56-.76-1.07-.82-.36-.02-.71,.14-1.07,.11-.29-.06-.52,.02-.73,.24-.39,.41-.79,.8-1.19,1.2-.41,.37-.76,.8-1.19,1.15-.34,.23-.65,.49-1,.71-.75,.52-1.54,.96-2.35,1.37-1.71,.91-3.52,1.55-5.35,2.16-1.13,.34-2.26,.64-3.41,.88-.47,.1-.95,.16-1.42,.26-.21,.05-.44,.05-.65,.07-.99,.23-1.99,.09-2.99,.11-.35,0-.71,0-1.06,0-1.48-.06-2.92-.35-4.32-.79-.45-.18-.91-.35-1.36-.54-.41-.27-.98-.26-1.27-.75-1.72-.99-3.44-1.98-5.15-2.98-.9-.52-1.92-.61-2.9-.82-1.38-.29-1.47-1.53-.67-2.4,.58-.62,1.32-.92,2.15-.91,1.1,0,2.08-.31,2.97-.92,2-1.35,4.04-2.61,6.38-3.31,.85-.26,1.73-.36,2.72-.52-.93-.66-1.8-1.28-2.58-2-4.26-3.95-7.41-8.58-8.7-14.32-.25-1.12-.45-2.27-.19-3.45,.24-1.11,.97-1.42,1.88-.72,1.17,.9,2.34,1.82,3.74,2.34,.17,.06,.33,.21,.58,.11-.63-1.13-1.01-2.34-1.17-3.62-.27-2.16-.17-4.29,.49-6.38,.09-.28,.23-.55,.37-.8,.61-1.05,1.34-1.23,2.28-.47,2,1.59,4.32,2.24,6.82,2.3,1.69,.05,3.37,.15,5.03,.5,.28,.06,.46,0,.59-.3,1.2-2.63,3.14-4.63,5.38-6.38,1.39-1.08,2.42-2.46,3.12-4.09,.17-.39,.33-.78,.55-1.14,.34-.57,.9-.7,1.47-.34,.23,.15,.46,.32,.62,.53,1.52,1.92,3.51,3.28,5.44,4.73,1.03,.77,2.07,1.54,3.01,2.42,.88,.82,1.45,1.8,1.64,3.09,2.64-1.61,5.73-2.22,8.16-4.16,.79-.63,1.43-1.37,1.98-2.2,.62-.93,1.33-.96,1.92-.03,1.91,2.99,3.81,5.99,4.94,9.38,.48,1.42,.73,2.9,.48,4.42-.02,.12,0,.24,0,.43,.82-.6,1.35-1.35,1.85-2.13,.27-.42,.5-.98,1.12-.86,.67,.12,.71,.76,.82,1.29,.36,1.76,.58,3.55,.59,5.33,.02,4.01-.97,7.67-3.86,10.66-1.07,1.11-2.19,2.17-3.39,3.15-.22,.54-.81,.64-1.19,.99-.15,.11-.32,.2-.5,.36,.93,.28,1.82,.56,2.68,.91,.72,.42,1.6,.49,2.23,1.1Z" fill="#fe688b"/><path d="M25.07,87.14c0,.21-.01,.41-.02,.62-.2,.26-.52,.25-.8,.34-.22,.07-.45,.12-.63,.28-.14,.12-.22,.27-.16,.45,.06,.18,.21,.25,.39,.27,.28,.03,.54-.06,.81-.13,1.67-.41,3.34-.48,5.01,0,.83,.23,1.6,.56,2.23,1.15,.44,.4,.86,.45,1.37,.14,2.4-1.48,4.95-1.53,7.57-.71,.52,.16,1.06,.31,1.56,.52,.66,.27,1.21,.15,1.75-.31,1.62-1.38,3.52-2.16,5.61-2.47,.33-.05,.67-.14,.96,.13,.96,.34,1.98,.31,2.97,.49,1.92,.35,3.9,.32,5.77,.99,.26,.09,.51,.19,.71,.39,.49,.47,.46,1.05-.1,1.44-.82,.58-1.79,.7-2.75,.86-.56,.09-1.12,.18-1.7,.14-.26-.01-.52,.05-.66,.3-.48,.82-1.3,1.12-2.13,1.34-1.93,.52-3.91,.78-5.91,.91-3.75,.25-7.5,.41-11.26,.34-3.2-.06-6.4-.19-9.58-.59-1.86-.23-3.72-.46-5.51-1.03-1.05-.33-2.12-.64-2.7-1.71-.13-.24-.38-.25-.6-.31-.43-.11-.85-.26-1.21-.52-.69-.51-.71-1.35-.02-1.86,.81-.59,1.74-.85,2.72-.94,1.89-.17,3.77-.35,5.67-.4,.21,0,.41-.08,.62-.12Z" opacity=".3"/><path d="M50.74,87.41c-2.47,.05-4.63,.94-6.51,2.52-.58,.49-1.14,.6-1.85,.31-1.29-.52-2.62-.89-4.01-1.03-1.8-.18-3.46,.27-5,1.19-.77,.46-.94,.44-1.61-.17-.87-.81-1.96-1.11-3.09-1.3-1.48-.25-2.93-.08-4.37,.34-.41,.12-.92,.2-1.08-.32-.17-.55,.26-.79,.72-.91,.36-.09,.73-.18,1.1-.27,.41-.21,.9,0,1.3-.24,.13-.1,.25-.1,.38,0,.47,0,.93,0,1.4,0,.68-.11,1.34-.09,1.9,.37,.51,.17,1.02,.35,1.52,.52,.33-.01,.55,.2,.77,.39,.27,.23,.5,.24,.8,.06,.4-.23,.82-.44,1.27-.57,.2-.05,.39-.18,.6-.02,.48-.24,1.04-.17,1.53-.38,1.03-.34,2.05-.29,3.05,.14,.47,.12,.94,.24,1.41,.35,.24-.15,.43-.01,.61,.12,.38,.3,.87,.31,1.28,.51,.56-.21,.88-.81,1.52-.89,.47-.29,.93-.59,1.4-.88,.49-.37,1.02-.63,1.65-.64,.5-.12,1.01-.23,1.51-.35,.45-.05,.9-.12,1.36-.14,.35-.02,.67,.12,.79,.48,.12,.35-.07,.6-.36,.78Z" fill="#047425"/><path d="M58.73,37.99c.41-.29,.81-.58,1.22-.86,1.23,.68,2.25,1.58,2.96,2.81,.1,.18,.25,.33,.26,.55-.76-.31-1.55-.58-2.27-.97-.59-.41-1.17-.85-1.84-1.14-.15-.07-.37-.13-.32-.38Z" fill="#01993e"/><path d="M46.53,39.51c-1.46,2.77-4.02,3.89-6.87,4.44-2.51,.48-4.99,.05-7.43-.62-1.75-.48-3.37-1.24-4.62-2.61-1.34-1.45-1.99-3.21-2.14-5.15-.03-.41,.08-.84,.12-1.25,.47-1.2,1.25-2.19,2.15-3.09,.1-.1,.18-.24,.35-.26,.32,.02,.61,.16,.92,.21,.97,.18,.96,.18,1.09,1.12,.11,.79,.12,1.6,.38,2.37,.12,.36,.26,.72,.51,1.01,.43,.49,1.08,.49,1.39-.06,.62-1.11,.9-2.32,.61-3.59-.13-.56-.6-.78-1.1-.95-.55-.19-1.13-.1-1.7-.14-.56-.04-1.15,.03-1.59-.45,.22-.42,.66-.62,1.01-.9,1.13-.93,2.42-1.63,3.62-2.45,.97-.67,1.76-1.5,2.37-2.51,.42-.7,.57-.65,1.16-.06,1.38,1.36,2.71,2.78,4.46,3.7,.78,.41,1.55,.89,2.12,1.58,.33,.4,.83,.53,1.18,.87-.19,.28-.49,.2-.75,.22-.44,.02-.89-.03-1.33,.06-1.05,.2-1.59,.76-1.55,1.82,.03,.86,.17,1.72,.55,2.52,.17,.36,.39,.66,.83,.69,.47,.02,.74-.27,.94-.63,.37-.68,.53-1.42,.58-2.18,.03-.46,.1-.92,.17-1.38,.06-.42,.29-.66,.76-.46,.27,.8,.69,1.54,.99,2.33,.7,1.88,.98,3.82,.8,5.83Z" fill="#fe94aa"/><path d="M21.39,26.96c1.41,1.2,2.64,2.54,3.37,4.28,.13,.31,.12,.6,.02,.92-.81,2.5-.8,4.97,.43,7.35,.39,.75,.86,1.44,1.49,2.12-.98,.17-1.89,.05-2.79-.08-1.49-.21-3-.39-4.45-.86-1.98-.64-3.67-1.78-5.31-3.02-1.27-.96-2.29-2.19-3.43-3.29-.12-.12-.25-.24-.26-.42,.21-.12,.31,.07,.43,.16,.03,.02,.05,.05,.05,.08,0-.06-.06-.08-.09-.13-.54-.61-1.06-1.24-1.33-2.02-.41-1.26-.78-2.54-1.04-3.84-.06-.29-.12-.58-.07-.88,.08-.56,.4-.87,.95-.92,.23-.02,.47-.04,.69,0,1.5,.31,2.98,.1,4.46-.13,2.35-.37,4.66-.34,6.86,.69Z" fill="#fe94aa"/><path d="M55.18,38.37c-2.43,1.33-5.6,1.83-7.55,1.87,.42-1.06,.8-2.12,.98-3.25,.35-2.15,.36-4.29-.42-6.34-.37-.98,.21-1.53,.68-2.13,1.47-1.89,3.45-3.05,5.67-3.85,1.64-.59,3.36-.97,4.97-1.65,.64-.03,1.18-.38,1.76-.58,.28-.09,.54-.24,.83-.31,.77-.17,1.33,.42,1.15,1.19-.02,.1-.06,.2-.11,.3-.71,1.38-1,2.85-.96,4.39-.04,.23-.14,.43-.25,.64-.27,.5-.29,.99,.05,1.46-.01,.78-.39,1.4-.91,1.94-.04,.01-.08,.03-.12,.02-.34-.08-.7-.22-.93,.2-.21,.38,.07,.62,.27,.88,0,.59-.44,.94-.77,1.33-1.31,1.57-2.84,2.87-4.64,3.77-.14-.03-.05,.11-.05,.02,0-.02,.02-.01,.06-.01,.11,0,.21,.03,.28,.11Z" fill="#fe94aa"/><path d="M58.86,21.86c-1.22,.59-2.55,.83-3.82,1.26-1.7,.58-3.35,1.26-4.83,2.3-.34-.51-.3-1.08-.25-1.65,.03-.35,.31-.46,.6-.58,.97-.39,1.91-.82,2.45-1.8,.16-.28,.28-.57,.36-.88,.12-.47,.05-.88-.33-1.21-.38-.33-.8-.34-1.25-.17-.94,.36-1.69,.95-2.2,1.83-.4,.69-1.14,.66-1.53-.04-.16-.29,.02-.48,.18-.67,.49-.56,.85-1.21,1.12-1.9,.18-.46,.26-.94,.2-1.43-.1-.88-.78-1.23-1.55-.77-.88,.52-1.31,1.35-1.52,2.32-.08,.35-.12,.71-.19,1.06-.06,.34-.28,.5-.59,.38-1.19-.46-2.42-.75-3.67-.99-.11-.02-.18-.11-.21-.22,.36-1.58,1.16-2.92,2.19-4.15,.27-.33,.62-.57,.97-.8,.62-.31,1.17-.73,1.81-1.01,.21-.09,.43-.17,.66-.18,1.3-.13,2.61-.18,3.9-.44,1.01-.2,1.94-.59,2.77-1.21,.43-.32,.89-.55,1.4-.22,.48,.31,.61,.79,.51,1.34-.12,.63,.07,1.21,.27,1.79,.39,1.08,.97,2.07,1.59,3.03,.76,1.19,1.18,2.47,1.24,3.88,.02,.41,0,.8-.28,1.14Z" fill="#fe94aa"/><path d="M31.18,19.1c-1.1-2.57-3.04-4.24-5.6-5.24-.13-.2-.02-.37,.07-.53,.39-.68,.81-1.34,1.43-1.83,.72-.63,1.56-1.07,2.43-1.47,1.36-.64,2.42-1.6,3.2-2.88,.6-.99,1.38-1.05,2.13-.16,.79,.93,1.72,1.66,2.82,2.21,.96,.48,1.92,.98,2.78,1.64,1.09,.85,1.66,2,1.95,3.31,.03,.13,.02,.25-.03,.37-.7,1.12-1.37,2.25-1.69,3.55-.01,.05-.13,.08-.2,.13-.16-.27-.05-.54,0-.8,.12-.72,.07-1.43-.12-2.13-.11-.41-.33-.75-.8-.79-.45-.04-.69,.27-.88,.61-.31,.55-.32,1.17-.34,1.78,0,.41,.14,.85-.19,1.21-.64-.58-1.24-1.21-1.46-2.08-.12-.49-.42-.6-.88-.6-.54,0-.71,.33-.78,.74-.14,.9-.45,1.74-.81,2.57-.39,.13-.36-.16-.35-.37,.04-.46,.06-.93,.04-1.39-.02-.66-.17-1.3-.54-1.86-.5-.76-1.34-.71-1.76,.1-.39,.75-.31,1.56-.21,2.35,.05,.4,.2,.78,.28,1.17,.09,.44-.07,.61-.51,.41Z" fill="#fe94aa"/><path d="M36.25,56.67c.16,1.62-.03,1.83-1.73,1.9-1.72,.07-3.38-.36-5.05-.67-.66-.12-1.31-.3-1.96-.46,.08,.49,.56,.61,.85,.9,.86,.88,1.82,1.63,3.03,1.99,.17,.05,.36,.14,.32,.4-.47,.84-.82,1.75-1.52,2.47-.92,.95-2.01,1.54-3.31,1.67-.56,.06-1.13-.08-1.7-.08-1.07,0-1.14,.03-1.28-1.04-.2-1.49-.2-2.99,.41-4.41-.11-.14-.23-.09-.32,.01-.76,.99-1.7,1.83-2.27,2.96-.23,.46-.39,.94-.55,1.42-.04,.12-.04,.32-.27,.27-.45-.97-1.18-1.68-2.06-2.26-.14-.18-.16-.38-.15-.59,.13-.63,.32-1.23,.69-1.76,.21-.26,.43-.52,.61-.81,1.13-1.72,2.8-2.62,4.74-3.16,1.61-.45,3.22-.87,4.82-1.33,.04,0,.09,0,.13,0-.05-.04-.11,0-.16-.03-1.02-.02-2.04-.02-3.05-.19-1.11-.2-2.22-.42-3.36-.22-.25,.04-.76,.22-.59-.42,1.14-.3,2.27-.6,3.41-.91,.79-.22,1.55,.05,2.31,.19,.62,.12,1.22,.36,1.84,.48,.7,.13,1.35,.03,1.88-.49,.53-.52,.52-1,0-1.54-.24-.24-.64-.36-.66-.78,.76-.45,1.52-.9,2.28-1.36,.23,.19,.26,.48,.32,.74,.2,.84,.37,1.68,.55,2.52,.13,.59,.1,1.17-.36,1.65-.84-.05-1.66,.11-2.5,.14-.22,0-.41,.06-.54,.25,0,.22,.19,.19,.32,.23,1.56,.44,2.96,1.24,4.42,1.9,.2,.09,.37,.21,.46,.41Z" fill="#4ed25b"/><path d="M21.89,25.68c-1.28-.9-2.65-1.64-4.18-2.02-1.16-.29-2.34-.5-3.53-.64-.15-.02-.3,0-.41-.11-1.17-1.92-1.42-4.04-1.31-6.22,.06-1.2,.74-1.68,1.87-1.25,1.03,.39,2.07,.34,3.13,.22,1.43-.16,2.81-.61,4.22-.86,.44-.08,.89-.03,1.32-.12,.11-.02,.21,.02,.32,.04,.33,.09,.69,.06,1.02,.17,1.14,.17,2.12,.71,3,1.4,1.08,.84,2.06,1.81,2.58,3.14-.46,.44-1.07,.45-1.64,.52-.32,.04-.39-.26-.47-.5-.28-.82-.6-1.62-1.14-2.32-.57-.72-1.17-.96-1.73-.67-.59,.3-.8,1.08-.5,1.9,.26,.71,.71,1.29,1.28,1.78,.49,.42,.45,.62-.13,.91q-1.17,.58-1.97-.45c-.49-.62-1.12-1.03-1.9-1.17-.6-.11-1.13,.12-1.42,.6-.31,.51-.27,1.01,.13,1.53,.44,.57,1.02,.95,1.67,1.22,.4,.17,.5,.39,.29,.79-.23,.42-.28,.88-.29,1.35,0,.26,.07,.56-.18,.77Z" fill="#fe94aa"/><path d="M1.6,46.52c.35-.46,.87-.64,1.38-.63,1.49,.04,2.75-.54,3.95-1.34,1.69-1.13,3.4-2.21,5.36-2.82,1.44-.45,2.87-.58,4.4-.39,1.45,.18,2.74,.8,4.16,1.04,2.15,.35,4.29,.66,6.47,.57q.82-.03,1.14,.21c-1.56,.12-3.03,.38-4.49,.73-2.14,.52-4.14,1.42-6.16,2.3-1.94,.84-3.9,1.62-6.07,1.58-1-.02-1.99-.17-2.89-.58-1.58-.73-3.2-.85-4.88-.56-.36,.19-.74,.05-1.09-.02-.43-.08-.87,.02-1.29-.1Z" fill="#fe94aa"/><path d="M42.35,55.53c-.3-.18-.38-.5-.48-.78-.3-.83-.74-1.59-1.29-2.27,.04-.16,.17-.23,.31-.28,1.04-.33,1.9-.93,2.61-1.76,.04-.11,.24-.11,.18-.35-.92,.37-1.88,.57-2.84,.72-.54-.2-.88-.63-1.05-1.12-.42-1.16-.48-2.34,.18-3.46,1,.75,1.84,1.67,2.85,2.41,1.44,1.05,3.02,1.83,4.64,2.54-.19,.32-.55,.35-.85,.49-.81,.37-1.67,.6-2.44,.85,.13,0,.32-.11,.52-.09,.32,.15,.64,.12,.98,.08,1.21-.15,2.35-.59,3.55-.76,.34,.08,.67,.17,1.01,.25-.04,.58-.51,.73-.94,.9-.74,.28-1.54,.29-2.3,.44-.5,.1-1.01,.16-1.4,.54-.32,.32-.3,.53,.13,.6,.86,.14,1.37,.69,1.78,1.39,.06,.11,.13,.22,.21,.32,.33,.44,.57,.46,.89,0,.41-.59,.77-1.22,1.11-1.85,.39-.73,.69-1.49,1.05-2.23,.31-.07,.59,.05,.88,.12,.11,.27-.03,.49-.13,.72-.59,1.43-1.29,2.79-2.21,4.04-.14,.18-.32,.35-.21,.62,.88-.35,1.4-1.1,2.01-1.75,.99-1.06,1.82-2.24,2.57-3.49,.09,0,.19,.01,.28,.02,.77,.05,.77,.05,.54,.81-.09,.32-.25,.67,.03,.96,.27,.28,.63,.13,.95,.05,.86-.22,1.71-.41,2.61-.4,.73,.01,.85-.16,.88-.91,.01-.31-.06-.64,.17-.91,.09,0,.18,0,.27,0,1.08,.74,1.84,1.78,2.58,2.84,.17,.25,.45,.47,.34,.84-.87-.31-1.66-.78-2.6-.93-2.06-.33-3.82,.22-5.37,1.57-.05,.04-.1,.07-.15,.11-.59,.6-1.15,1.23-1.78,1.79-1,.91-2.19,1.31-3.54,1.29-.24,0-.46-.02-.66-.17h0c-.29-.56-.5-1.15-.75-1.73-.57-1.32-1.59-1.89-3.03-1.69-.73,.1-1.43,.02-2.06-.38Z" fill="#4ed25b"/><path d="M21.89,25.68c.03-.82-.08-1.65,.42-2.39,.17-.26-.1-.26-.23-.32-.61-.29-1.2-.61-1.67-1.12-.58-.64-.69-1.27-.32-1.9,.36-.6,1.03-.83,1.82-.64,1.01,.25,1.72,.88,2.18,1.78,.16,.3,.28,.41,.6,.2,.39-.24,1.05-.34,1.17-.66,.11-.3-.57-.56-.84-.91-.57-.75-1.11-1.51-.85-2.53,.27-1.03,1.21-1.37,2.06-.71,.91,.7,1.34,1.72,1.65,2.78,.15,.52,.34,.69,.87,.47,.36-.15,.77-.21,1.16-.31,.42-.11,.85-.21,1.27-.32,.38,.02,.51-.06,.34-.49-.41-1.04-.51-2.13-.2-3.22,.16-.58,.51-1.05,1.18-1.07,.64-.02,.98,.41,1.22,.93,.44,.97,.47,2,.31,3.03-.03,.2-.13,.38,.18,.4-.23,.48-.4,.99-.77,1.39-.76,.4-1.62,.39-2.43,.58-.3,.03-.58,.11-.87,.2-1.37,.34-2.72,.77-4.02,1.34-.69,.3-1.34,.68-1.98,1.21,.58,.29,1.13,.31,1.66,.42,.43,.09,.87,.15,1.31,.25,.33,.08,.48-.02,.46-.37-.03-.53,.03-1.05,.28-1.54,.31-.61,.87-.98,1.39-.9,.53,.08,.91,.51,1.03,1.22,.11,.69,.02,1.34-.36,1.94-.43,.46-.86,.92-1.29,1.38-.23,.17-.49,.09-.73,.06-1.3-.15-2.57-.48-3.87-.69-.65-.1-.72-.02-.65,.65,.04,.38,.32,.76,.04,1.15-.51-.43-1.02-.87-1.53-1.3Z" fill="#feb900"/><path d="M32.82,47.77c-.13,.08-.26,.16-.39,.24-.55,.15-1.01,.51-1.56,.69-4.31,1.41-8.64,2.75-13.25,2.41-2.14-.15-4.2-.72-6.15-1.66-.17-.08-.36-.15-.36-.39,2.28,.18,4.37-.58,6.48-1.29,2.77-.79,5.59-.97,8.45-.73,1.66,.14,3.31,.39,4.97,.52,.4,.03,.8,0,1.2-.04,.23-.02,.52-.12,.61,.24Z" fill="#feafc3"/><path d="M38.14,18.06c.07-.86-.12-1.73,.15-2.57,.08-.24,.16-.48,.3-.69,.24-.37,.57-.63,1.05-.55,.45,.07,.69,.38,.82,.78,.35,1.05,.31,2.1,0,3.16-.04,.21-.02,.35,.25,.4,.37,.08,.74,.13,1.13,.11,1.36,.28,2.71,.56,4,1.09,.33,.14,.33-.1,.34-.33,.07-.96,.25-1.88,.86-2.67,.2-.25,.41-.48,.67-.67,.45-.34,.93-.52,1.47-.25,.58,.3,.62,.88,.58,1.43-.08,1.16-.63,2.12-1.34,3.01-.12,.15-.44,.3-.27,.49,.25,.27,.59,.47,.93,.61,.12,.05,.19-.24,.27-.38,.6-1.02,1.41-1.78,2.57-2.13,1.03-.31,1.86,.45,1.65,1.51-.31,1.59-1.44,2.39-2.83,2.86-.58,.2-.71,.48-.63,1,.05,.38,.07,.76,.11,1.13-.46,.38-.92,.77-1.38,1.15-.13-.11-.17-.26-.14-.4,.16-.66-.06-1.3-.04-2-.85,.26-1.65,.56-2.48,.81-.34,.1-.68,.27-1.04,.07-.34-.35-.67-.7-1.01-1.05-.17-.21-.08-.44-.06-.67,.02-.21,.03-.42,.01-.63-.03-.28,.05-.71-.29-.75-.37-.04-.33,.4-.38,.68-.03,.18,0,.39-.2,.5l-.63-.61c-.27-.64,.06-1.09,.49-1.51,.88-.38,1.26-.26,1.81,.52,.2,.43,.18,.9,.18,1.36,0,.68,0,.67,.62,.51,.67-.18,1.32-.41,1.97-.63,.34-.12,.34-.29,.05-.47-.5-.31-1.01-.61-1.56-.85-1.83-.77-3.73-1.25-5.7-1.44-.21-.02-.42-.04-.61-.16-.57-.6-1.13-1.2-1.7-1.79Z" fill="#feb900"/><path d="M57.6,45.49c.98,.2,1.96,.43,2.96,.49,1.24,.08,2.45-.18,3.65-.48-.18,.68-.79,.9-1.31,1.21-1.31-.25-2.08,.44-2.64,1.51-.68,.27-1.34,.61-2.1,.58-.56-.24-.97,.05-1.39,.36-4.41,.96-8.71,.87-12.74-1.48-.13-.07-.26-.15-.41-.16-.28,0-.4-.29-.62-.39,.05-.32,.3-.23,.49-.22,2.19,.16,4.34-.11,6.46-.6,2.32-.54,4.66-.71,7.02-.77,.21,0,.42-.01,.63-.05Z" fill="#feafc3"/><path d="M57.6,45.49c-.17,.19-.38,.25-.62,.25-.67,0-1.35,.11-2.01,.1-1.96-.03-3.83,.47-5.73,.81-2.01,.36-4.02,.69-6.08,.38-.04,0-.1,.07-.15,.1-.64-.58-1.28-1.15-1.93-1.73-.3-.26-.22-.37,.13-.49,1.22-.41,2.39-.9,3.54-1.51,.91-.48,2.03-.49,3.08-.58,2.37-.22,4.53,.54,6.66,1.47,1.02,.45,2.09,.8,3.13,1.2Z" fill="#fe94aa"/><path d="M66.78,42.91c-1.64,.89-3.18,1.56-4.93,1.72-2.13,.19-4.07-.4-6-1.15-1.61-.62-3.16-1.4-4.87-1.74-.62-.12-1.24-.23-1.88-.23,1.31-.25,2.63-.41,3.9-.84,.32-.11,.65-.19,.95-.34,2.11-1.04,4.14-.53,6.15,.31,1.48,.62,2.95,1.27,4.48,1.73,.68,.2,1.37,.34,2.2,.54Z" fill="#fe94aa"/><path d="M44.54,30.65c-.43,.03-.76-.13-1.05-.46-.81-.92-1.87-1.48-2.89-2.11-1.52-.95-2.82-2.2-4.02-3.53-.24-.26-.46-.57-.73-.03-.9,1.79-2.51,2.8-4.12,3.8-.9,.56-1.77,1.15-2.55,1.85-.17,.15-.36,.22-.57,.23-.61-.03-1.03-.32-1.23-.91,.51-.43,.68-1.13,1.22-1.54,1.14-.86,2.31-1.7,3.44-2.57,1.42-1.1,2.31-2.6,3.1-4.17,.07-.13,.1-.28,.17-.41,.24-.44,.42-.48,.75-.1,.26,.3,.59,.55,.8,.9,.47,1.74,1.55,2.84,3.33,3.22,.6,.47,1.15,1,1.6,1.62,.04,.28-.08,.58,.04,.86,.21,.5,.69,.75,1.31,.67,.15,0,.3,.04,.41,.13,.8,.65,1.51,1.36,1.9,2.35-.24,.32-.54,.42-.9,.19Z" fill="#feafc3"/><path d="M32.82,47.77c-.32-.3-.64,.03-.96,0-.84-.06-1.68-.05-2.51-.17-2.35-.35-4.72-.58-7.1-.44-1.29,.07-2.57,.34-3.85,.54-.27,.04-.54,.06-.81,.07,2.23-1.09,4.5-2.07,6.93-2.66,1.66-.41,3.34-.63,5.03-.74,1.27-.09,2.49,.29,3.73,.54,.74,.15,1.48,.31,2.31,.37-.83,1-1.75,1.79-2.77,2.5Z" fill="#fe94aa"/><path d="M11.11,49.06c1.54,.82,3.17,1.33,4.88,1.64,3.37,.6,6.67,.21,9.91-.73,1.76-.51,3.57-.82,5.27-1.52,.4-.16,.75-.53,1.25-.44-3.5,2.09-7.25,3.46-11.28,4.09-2.78,.44-5.54,.41-8.26-.39-2.01-.59-3.78-1.66-5.57-2.7-1.37-.79-2.65-1.75-4.24-2.09-.5-.11-1.06-.03-1.48-.41,.81-.3,1.59-.01,2.38,.12,.04,.07,.08,.2,.12,.2,1.5,.11,2.7,1.05,4.07,1.5,.96,.32,1.93,.6,2.94,.72Z" fill="#fed8e4"/><path d="M21.39,26.96c-.57,.11-1.03-.24-1.54-.38-1.89-.53-3.79-.34-5.68-.07-1.28,.18-2.57,.41-3.86,.09-.22-.05-.46-.02-.7-.02-.8,0-1.18,.41-1.02,1.19,.23,1.09,.53,2.16,.8,3.24,.1,.39,.31,.74,.32,1.15-.32,.01-.42-.26-.53-.47-1.51-2.77-2.94-5.57-3.58-8.69-.03-.12-.06-.25-.06-.37,0-.35,.15-.48,.47-.29,.28,.15,.53,.34,.79,.52,1.75,1.2,3.71,1.64,5.8,1.78,1.74,.11,3.5-.03,5.21,.49,.32,.1,.64,.18,.96,.3,1.03,.25,1.79,.97,2.63,1.54Z" fill="#feafc3"/><path d="M23.05,14.76c-1.3,.19-2.59,.44-3.88,.75-1.06,.25-2.14,.44-3.25,.4-.58-.02-1.12-.1-1.66-.32-1.01-.42-1.6-.02-1.63,1.06-.05,1.85,.04,3.66,.86,5.38,.13,.26,.53,.48,.27,.87-.04,0-.08-.01-.12-.02-1.31-.62-2.03-1.75-2.56-3.02-.8-1.92-.8-3.91-.5-5.93,.1-.63,.32-.75,.92-.51,1.8,.75,3.72,.96,5.62,1.22,.48,.07,.97-.03,1.45-.09,1.42-.18,2.82-.1,4.24,.02,.12,.01,.2,.07,.24,.19Z" fill="#feafc3"/><path d="M58.86,21.86c.44-2.3-.58-4.17-1.76-6.01-.56-.87-.97-1.82-1.22-2.84-.09-.36-.1-.7-.01-1.06,.12-.48-.03-.9-.43-1.16-.39-.25-.77-.1-1.11,.17-1.21,.97-2.64,1.37-4.15,1.5-.92,.08-1.84,.16-2.76,.24,.09-.43,.49-.42,.79-.51,1.78-.54,3.53-1.13,5.14-2.1,.69-.41,1.26-.92,1.73-1.55,.27-.36,.52-.39,.78,.02,1.04,1.69,2.09,3.38,2.65,5.31,.09,.31,.17,.62-.05,.91-.54,.74-.43,1.08,.47,1.42,.17,.12,.24,.29,.28,.48,.33,1.43,.45,2.87,.28,4.33-.03,.25-.1,.49-.24,.71-.13,.05-.26,.09-.39,.14Z" fill="#feafc3"/><path d="M55.18,38.37c-.26,.04-.53,.07-.83,.12,.17-.32,.46-.35,.69-.48,2.12-1.2,3.93-2.73,5.22-4.83,.47-.24,.78-.59,.77-1.16,.37-.6,.76-1.18,.88-1.89,.3-.12,.65-.04,.92-.31,.65-.63,.67-1.19,0-2.1-.07-.37,.07-.71,.16-1.05,.49-1.83,.97-3.66,.72-5.59-.02-.17,.02-.33,.12-.48,.38-.39,.75-.77,1.13-1.16,.35,.7,.38,1.46,.43,2.21,.09,1.28-.09,2.53-.38,3.77-.61,2.6-1.34,5.16-2.75,7.47-.29,.47-.7,.85-.97,1.33-1.79,1.75-3.75,3.24-6.11,4.16Z" fill="#fed8e4"/><path d="M58.35,14.74c.15-.21,.13-.41,.07-.66-.59-2.11-1.76-3.91-2.92-5.8-1.25,1.91-3.22,2.63-5.16,3.41-.96,.38-1.99,.53-2.91,1.02-.55,.07-.99,.39-1.46,.65-.31,.17-.58,.4-.96,.38,.98-.97,2.25-1.47,3.48-2.02,1.48-.66,3.02-1.19,4.41-2.06,1.13-.7,2.21-1.48,3.04-2.55,.41,.29,.62,.74,.91,1.12,2.21,2.99,3.3,6.4,3.72,10.05,.08,.72,.14,1.43,.12,2.15,0,.23,0,.47-.17,.66-.37,.31-.84,.41-1.26,.62,.06-.88,.18-1.75,.12-2.63-.06-.83-.15-1.66-.36-2.47-.04-.17-.05-.34-.28-.35-.01-.04-.02-.09,0-.12,.53-.75,.45-1.03-.4-1.41Z" fill="#fed8e4"/><path d="M40.19,24.92c-1.73-.04-3.42-2-3.43-3.3-.1-.17-.18-.36-.1-.54,.26-.55,0-.95-.32-1.37-.27-.34-.55-.7-.62-1.15,.08-.28,.16-.56,.28-.95,1.25,1.6,2.67,2.88,4,4.25,.94,.97,1.91,1.91,2.92,2.81,1.38,1.23,2.51,2.67,3.29,4.36,.1,.21,.22,.4,.33,.6,0,.12-.07,.15-.17,.16-.62-.37-.84-1.08-1.31-1.58-1.05-1.12-2.1-2.23-3.28-3.22-.22-.19-.43-.23-.69-.1-.29,.15-.59,.23-.9,.03Z" fill="#fefefe"/><path d="M60.25,48.14c.3-1.23,1.37-1.83,2.68-1.51,.32-.06,.53,.14,.69,.35,.21,.28,.39,.23,.62,.04,.56-.48,1.1-.98,1.55-1.57,.28-.37,.56-.73,.95-1,.62-.43,1.27-.79,1.97-1.15-2.3,3.85-5.17,6.83-9.88,7.42-1.81,.23-3.6,.4-5.42,.35-.5-.01-1.01-.09-1.51-.14,.15-.41,.52-.27,.8-.29,2.32-.17,4.61-.45,6.85-1.14,.44-.14,.75-.27,.52-.82-.09-.21,0-.41,.2-.55Z" fill="#fefefe"/><path d="M17.84,25.17c-1.96-.35-3.94-.23-5.91-.4-2.29-.19-4.39-.95-6.28-2.56,.09,.88,.29,1.59,.51,2.29,.85,2.7,2.01,5.26,3.55,7.65,.34,.69,.83,1.28,1.28,1.9,.03,.12-.01,.17-.13,.13-.13-.08-.26-.16-.39-.24-2.73-3.17-4.72-6.72-5.57-10.86-.13-.64-.18-1.29-.25-1.94-.02-.16-.08-.38,.08-.47,.19-.12,.35,.09,.48,.2,1.25,1,2.6,1.78,4.13,2.29,2.05,.69,4.17,1.01,6.28,1.36,.79,.13,1.56,.33,2.33,.54,.02,.1,.02,.17-.11,.1Z" fill="#fed8e4"/><path d="M22.92,14.63c-1.85,0-3.7,.09-5.55,.19-1.34,.07-2.7-.29-4.03-.61-.69-.17-1.39-.35-2.03-.69-.3-.16-.46-.12-.52,.23-.48,2.86-.33,6.78,2.74,8.98,.05,.03,.07,.1,.11,.15-2,.09-2.82-1.28-3.36-2.85-.88-2.56-.83-5.17-.06-7.76,.05-.16,.13-.31,.2-.46,.14-.34,.3-.37,.61-.13,2.23,1.76,4.83,2.41,7.62,2.45,1.44,.02,2.86,.16,4.27,.4,.03,.02,.04,.05,.03,.07,0,.03-.02,.04-.03,.04Z" fill="#fed8e4"/><path d="M27.36,29.5c.34,.4,.74,.72,1.23,.91,.47,.28,1,.3,1.52,.33,.57,.03,1.14-.03,1.7,.12,1.04,.29,1.49,.75,1.49,1.83,0,.97-.16,1.94-.62,2.82-.51,.97-1.38,1-1.96,.07-.68-1.08-.72-2.33-.78-3.55-.02-.48-.16-.64-.61-.63-.47,0-.9-.21-1.33-.38-.62-.19-.79-.44-.79-1.14,.03-.14-.27-.4,.15-.39Z" fill="#553826"/><path d="M46.42,29.74s.07-.07,.11-.1c.09-.04,.2-.13,.28-.11,.15,.03,.07,.15,.04,.25-.05,.16-.1,.32-.14,.48,.03,.63-.48,.79-.89,1.04-.34,.1-.67,.31-1.05,.13-.48-.07-.66,.09-.67,.62-.01,.86-.08,1.73-.35,2.56-.08,.24-.15,.49-.27,.71-.25,.47-.53,.95-1.17,.92-.64-.03-.88-.52-1.09-1.02-.31-.75-.44-1.55-.49-2.34-.08-1.29,.68-2.02,2.05-2.12,.58-.04,1.18,.09,1.75-.1,.32,0,.63-.05,.9-.24,.24-.35,.58-.55,.98-.67Z" fill="#553826"/><path d="M60.25,48.14c-.08,.2-.14,.4-.02,.6,.36,.58,0,.73-.49,.89-1.85,.59-3.76,.86-5.68,1.09-.72,.09-1.47-.05-2.17,.21-2.95-.38-5.64-1.44-8.05-3.19-.08-.06-.15-.15-.22-.22,.22-.24,.39,0,.55,.08,2.65,1.45,5.49,2.07,8.49,1.93,1.4-.07,2.79-.28,4.17-.5,.04,.02,.08,.04,.1,.07,.22,.28,.42,.6,.87,.45,.5-.17,.25-.59,.3-.9,.77,.06,1.41-.43,2.14-.52Z" fill="#fed8e4"/><path d="M42.36,14.51c-.27-.71-.39-1.46-.77-2.13-.76-1.34-2.03-2.06-3.33-2.71-1.04-.52-2.04-1.1-2.9-1.88-.32-.3-.57-.68-.89-.98-.54-.51-1.15-.4-1.53,.24-.67,1.12-1.49,2.08-2.66,2.71-1.07,.58-2.18,1.08-3.16,1.82-.08-.34,.2-.48,.38-.67,1.14-1.15,2.28-2.31,3.49-3.38,.76-.67,1.39-1.46,1.97-2.29,.12-.17,.21-.38,.48-.34,.32,.15,.63,.34,.95,.5,.52,.53,1.14,.95,1.68,1.46,.31,.9,.41,.98,1.23,.94,2.25,1.34,4.25,2.91,5.06,5.56,.08,.27,.23,.5,.36,.74-.06,.18-.2,.3-.36,.4Z" fill="#feafc3"/><path d="M60.52,21.1c.04-3.44-.61-6.73-2.05-9.86-.55-1.2-1.31-2.3-2.1-3.37-.17-.24-.39-.45-.44-.76,.51-.82,.53-.83,1.01-.02,1.53,2.59,3.15,5.14,4.14,8.01,.61,1.79,.71,3.62,.21,5.46-.11,.42-.48,.41-.77,.53Z" fill="#fefefe"/><path d="M34.35,5.5c-.33-.11-.67-.21-.89-.51-.27-.15-.41-.35-.26-.66,.25-.53,.51-1.06,.74-1.6,.11-.27,.22-.37,.43-.11,2.28,2.78,5.45,4.5,8.13,6.8,.91,.77,1.45,1.73,1.62,2.91,.07,.51-.32,.68-.62,.93-.42-.4-.44-.99-.71-1.47-.74-1.36-1.73-2.49-2.97-3.42-1.18-.89-2.36-1.78-3.56-2.64-.28-.2-.53-.29-.88-.16-.34,.13-.7,.13-1.04-.06Z" fill="#fefefe"/><path d="M29.92,24.43c.11-.74,.4-1.46,.13-2.23-.16-.45-.42-.77-.88-.79-.44-.03-.8,.21-1.04,.6-.37,.58-.44,1.23-.38,1.89,.04,.4-.13,.46-.46,.39-1.01-.2-2.02-.39-3.02-.6-.14-.03-.4,.05-.4-.19,0-.17,.2-.25,.33-.36,.97-.78,2.11-1.23,3.25-1.64,.89-.32,1.78-.63,2.73-.77,.82-.16,1.65-.19,2.48-.17,.17,0,.32,.05,.43,.19-.9,1.36-1.97,2.58-3.16,3.69Z" fill="#feee39"/><path d="M23.43,26.98c-.01-.55-.27-1.04-.26-1.6,0-.43,.06-.57,.55-.47,1.63,.35,3.26,.68,4.92,.9-1.11,1.29-2.17,2.62-3,4.23-.58-1.19-1.46-2.07-2.21-3.06Z" fill="#feca42"/><path d="M34.35,5.5c.44-.03,.89,.06,1.29-.21,.14-.09,.28-.05,.41,.05,1.76,1.36,3.67,2.54,5.26,4.12,1.07,1.06,1.8,2.32,2.19,3.78-.26,.29-.52,.58-.78,.87-.31,0-.39-.24-.45-.46-.52-2.05-1.83-3.51-3.51-4.69-.5-.35-.99-.71-1.48-1.07-.03-.05-.05-.11-.05-.18-.03-1.06-.25-1.21-1.23-.83-.63-.36-1.2-.81-1.65-1.39Z" fill="#fed8e4"/><path d="M19.49,59.46c-.3,.51-.48,1.07-.64,1.64-.35-.05-.29-.34-.25-.53,.33-1.73,.75-3.42,1.88-4.86-1.79,.15-3.48,.66-5.09,1.43-.36,.12-.66,.41-1.08,.38-.1-.03-.17-.09-.18-.2,.21-.38,.63-.52,.94-.78,1.27-.65,2.53-1.33,3.91-1.72,.52-.15,1.06-.26,1.61-.23,.03-.38-.37-.71-.08-1.08,.2-.02,.4-.04,.6-.05,.45,.03,.42,.46,.57,.73,.12,.21,.19,.41,.51,.25,1.16-.55,2.37-.87,3.67-.7,.2,.03,.41-.14,.61,0,1.09,.15,2.21,.03,3.3,.26,.05,.03,.06,.05,.05,.08-.01,.03-.03,.04-.04,.04h0c-1.28,.25-2.6,.2-3.89,.43-1.21,.22-2.41,.45-3.51,1.06-.61,.34-1.08,.79-1.46,1.37-.52,.8-.95,1.65-1.43,2.47Z" fill="#00993e"/><path d="M50.74,52.11c-.11,1.09-.77,1.95-1.23,2.89-.24,.49-.54,.96-.87,1.39-.4,.53-.65,.5-1.03-.03-.12-.17-.23-.35-.33-.54-.37-.66-.86-1.14-1.66-1.2-.23-.02-.45-.07-.51-.3-.05-.2,.12-.34,.25-.49,.32-.37,.75-.53,1.22-.61,.77-.13,1.53-.25,2.3-.39,.56-.1,1.03-.36,1.35-.86,.17,.04,.35,.08,.52,.12Z" fill="#77e97f"/><path d="M61.28,34.22c-.03-.26,.17-.43,.3-.61,1.74-2.48,2.57-5.33,3.25-8.23,.3-1.26,.47-2.52,.38-3.81-.05-.71-.17-1.41-.25-2.12,.13-.19,.26-.37,.44-.62,.28,.9,.35,1.77,.41,2.62,.21,2.68,.1,5.33-.93,7.87-.79,1.94-2.1,3.48-3.59,4.9Z" fill="#fefefe"/><path d="M35.71,18.56c.47,.51,.72,1.18,1.22,1.67,.15,.14,.04,.31-.02,.47-.11,.3-.18,.6-.16,.92-.26-.25-.58-.46-.76-.75-.35-.54-.46-.27-.61,.11-.58,1.52-1.5,2.85-2.61,4-.79,.82-1.82,1.42-2.75,2.1-.45,.33-.85,.76-1.43,.88,.37-.59,.85-1.1,1.33-1.6,1.39-1.44,2.79-2.87,3.99-4.48,.76-1.02,1.26-2.18,1.8-3.32Z" fill="#fed8e4"/><path d="M31.31,50.19c.21,.18,.39,.38,.62,.54,.44,.3,.74,.7,.62,1.22-.14,.58-.58,.96-1.16,1.16-.67,.23-1.32,.11-1.98-.09-1.13-.34-2.28-.61-3.46-.68,1.82-.64,3.62-1.32,5.36-2.15Z" fill="#78e97f"/><path d="M65.21,55.26c-1.23-1.76-3.01-2.72-4.95-3.46,.46-.12,.92-.25,1.37-.37,.33-.04,.49,.21,.67,.4,.52,.53,1.05,1.04,1.67,1.45,.67,.44,.95,.36,1.36-.35,.18-.31,.17-.77,.63-.88,.26,.07,.55,.19,.71-.15,.14-.3,.33-.69,0-.91-.3-.2-.43,.2-.59,.4-.04,.05-.09,.09-.15,.11-.14-.04-.2-.15-.21-.28-.03-.5-.25-.91-.59-1.26-.07-.08-.11-.17-.06-.28,.21-.17,.43-.34,.64-.5,.76-.17,1.36,.21,1.97,.56,.49,.79,.31,1.59,0,2.37-.53,1.28-1.46,2.26-2.46,3.18Z" fill="#4ed25b"/><path d="M65.07,49.66c.59,.45,.8,1.09,.88,1.79,.19,.21,.13,.43,0,.65-.34,.26-.35,.7-.55,1.04-.4,.67-.73,.76-1.39,.36-.92-.55-1.57-1.4-2.38-2.07,1.21-.46,2.35-1.07,3.44-1.77Z" fill="#78e97f"/><path d="M59.11,51.99c0,.38-.02,.76,.02,1.14,.07,.64-.29,.86-.82,.85-1.07-.03-2.09,.2-3.11,.49-.8,.23-1.19-.18-1.02-.98,.03-.12,.05-.26,.12-.36,.33-.48,.13-.68-.38-.73,1.73-.03,3.47-.08,5.18-.4Z" fill="#77e97f"/><path d="M45.14,25.06c1.12-.21,2.17-.63,3.24-.99,.35-.12,.44-.06,.47,.33,.06,.73,.1,1.45-.01,2.18-.49,.57-1.02,1.1-1.49,1.81-.63-1.23-1.36-2.32-2.21-3.32Z" fill="#feca42"/><path d="M63.82,20.6c.42,2.31-.23,4.48-.81,6.67-.05,.18-.07,.37-.1,.55-.22,.29-.5,.4-.86,.29-.17-1.66,.23-3.2,.98-4.67,.19-.38,.13-.72-.12-.98-.27-.28-.63-.27-.99-.1-.67,.3-1.36,.55-2.07,.73-.13,.03-.25,.06-.34-.07,1.53-.64,3.03-1.33,4.31-2.42Z" fill="#feafc3"/><path d="M44.76,31.43c.34-.09,.69-.18,1.03-.27,.67,.74,.87,1.69,1.16,2.6,.28,.88,.31,1.8,.47,2.71-.15,1.06-.48,2.06-.88,3.04-.16-.13-.12-.31-.11-.47,.09-2.58-.52-5-1.74-7.26-.11-.2,0-.25,.09-.35Z" fill="#feafc3"/><path d="M62.3,55.66c-.62-1.21-1.54-2.19-2.45-3.16-.16-.17-.31-.34-.46-.51,.17-.04,.34-.08,.51-.12,1.57,.83,2.96,1.89,4.17,3.2,.34,.37,.47,.62-.06,.96-.76,.49-.75,.52-1.7-.35Z" fill="#36a942"/><path d="M33.2,4.32c-.04,.27,.15,.45,.26,.66-.43,.2-.54,.66-.82,.99-.72,.85-1.49,1.64-2.33,2.39-1.12,1.01-2.21,2.07-3.2,3.22-.61,.69-1.21,1.39-1.54,2.27-.35-.07-.37-.25-.21-.54,.97-1.77,2.13-3.4,3.74-4.65,1.59-1.24,3.03-2.61,4.09-4.34Z" fill="#fed8e4"/><path d="M20.52,53.52c.09,.38,.36,.85,.23,1.13-.15,.31-.71,.12-1.09,.19-1.36,.27-2.57,.88-3.79,1.48-.26,.13-.53,.24-.8,.36-.11-.29,.14-.41,.28-.57,.63-.7,1.35-1.3,2.12-1.84,.1,0,.2,.02,.48,.04-.57-.42-1.14-.43-1.62-.66,1.4,0,2.8,.09,4.2-.12Z" fill="#37aa42"/><path d="M39.96,46.23c-.05,.52-.24,1.01-.29,1.54-.11,1.23,.27,2.22,1.17,3.04-.25,0-.5,0-.76,.01-1.5,.05-1.22,.13-1.38-1.38-.12-1.16-.09-2.34,.21-3.5,.05-.18,.01-.38,.01-.57,.5,.1,.71,.54,1.04,.85Z" fill="#36a942"/><path d="M39.85,19.85c3.08,.14,5.95,.92,8.57,2.74-.29,.21-.5,.29-.73,.3-.29,.04-.53-.08-.76-.22-.69-.43-1.51-.57-2.14-1.1-.4-.66-.98-.73-1.66-.5-.88,.03-1.72-.21-2.55-.46-.24-.26-.49-.51-.73-.77Z" fill="#fefefd"/><path d="M48.95,57.81c-.19-.23-.17-.48,0-.69,1.2-1.46,1.97-3.16,2.66-4.89,.44-.08,.85,.08,1.27,.13,.08,.44-.21,.76-.4,1.1-.82,1.5-1.77,2.92-3.07,4.07-.14,.12-.26,.28-.48,.28Z" fill="#36a942"/><path d="M34.1,53.74c.54-1.11,0-2.17-.17-3.25-.09-.56-.22-1.11-.33-1.66,.33-.24,.66-.48,.99-.72,.01,1.86,.4,3.66,.92,5.44,.11,.38,.09,.5-.35,.37-.33-.1-.71-.05-1.05-.18Z" fill="#36a942"/><path d="M36.02,49.94c-.16-.97-.04-1.96-.25-2.92,.43-.46,.86-.92,1.27-1.4,.19-.22,.38-.22,.62-.14-.3,1.04-.23,2.13-.38,3.19,.03,.03,.04,.07,.04,.1,0,.04-.01,.06-.02,.06-.26,.3-.59,.53-.81,.87-.1,.15-.24,.3-.47,.25Z" fill="#36a942"/><path d="M47.42,36.46c-.15-.01-.22-.1-.23-.25-.07-1.8-.67-3.45-1.4-5.06,.38-.23,.77-.44,.91-.9,.7,1.78,1.05,3.6,.75,5.52-.04,.23-.03,.46-.04,.69Z" fill="#fed8e4"/><path d="M66.73,44.46c-.75,1-1.5,2-2.52,2.77-.31,.24-.47,.26-.66-.09-.13-.25-.42-.33-.63-.5,.4-.4,.93-.66,1.28-1.13,.89-.24,1.68-.71,2.53-1.05Z" fill="#fed8e4"/><path d="M26.48,53.74c-1.15,.22-2.36,.03-3.46,.53-.13,.06-.27,.11-.42,.14-.29,.07-.55,.47-.81,.29-.22-.15-.28-.54-.41-.83-.07-.15-.12-.32-.27-.41,.47-.12,.93-.25,1.42-.23-.04,.34,.18,.3,.39,.26,1.08-.25,2.15-.03,3.21,.12,.12,.02,.25,.01,.34,.13Z" fill="#36aa42"/><path d="M48.95,57.81c1.54-1.34,2.67-2.98,3.6-4.78,.12-.22,.23-.45,.34-.67,.25,0,.51,0,.76,0-.33,1.1-1.06,1.95-1.78,2.8-.76,.9-1.49,1.83-2.47,2.51-.14,.1-.24,.35-.46,.12Z" fill="#00993e"/><path d="M27.21,29.89c.12,.48,.35,.88,.79,1.14-.38,.75-1.07,1.24-1.54,1.93-.3,.44-.4,1.01-.86,1.35,.29-1.57,.78-3.05,1.62-4.42Z" fill="#feafc3"/><path d="M40.58,20.62c.88-.03,1.72,.19,2.55,.46-.3,.44-.59,.88-.55,1.45-.76-.54-1.37-1.24-2.01-1.91Z" fill="#feed3a"/><path d="M49.21,51.74c-1.03,.48-2.13,.69-3.24,.86-.44,.07-.93,.38-1.33-.11,.27-.32,.68-.29,1.03-.38,.84-.23,1.67-.53,2.54-.65,.34,.1,.67,.19,1.01,.29Z" fill="#36aa42"/><path d="M43.21,23.14c.07-.41-.07-.85,.2-1.23,.11-.15,.23-.32,.45-.28,.2,.04,.23,.22,.29,.38,.21,.67,.09,1.33-.02,1.99-.36-.23-.65-.54-.92-.86Z" fill="#feea41"/><path d="M48.2,51.45c-.88,.51-1.89,.58-2.83,.89-.24,.08-.49,.1-.73,.14-.25,.1-.5,.18-.82,.05,1.24-.46,2.44-.91,3.63-1.35,.26,.05,.52,.12,.75,.27Z" fill="#019a3f"/><path d="M67.62,49.8c-.61-.29-1.24-.52-1.91-.64,.34-.33,.69-.67,1.03-1,.28,.26,.68,.43,.76,.87,.02,.26,.39,.47,.11,.78Z" fill="#39a944"/><path d="M58.73,37.99c.51,.39,1.17,.54,1.66,.98,.19,.17,.34,.36,.51,.55-.99-.31-1.93-.75-3.02-.93,.27-.29,.57-.44,.85-.6Z" fill="#38a942"/><path d="M33.08,20.74c-.13-.01-.25-.02-.38-.03-.46-.1-.93-.02-1.39-.05-.14-.01-.35,.1-.39-.17,.84-.12,1.66-.39,2.52-.42,0,.29-.2,.47-.37,.67Z" fill="#fefdf6"/><path d="M12.02,52.84h-1.69c.15-.18,.28-.35,.41-.51,.45,.12,.88,.29,1.29,.51Z" fill="#39a943"/><path d="M17.84,25.17s.08-.07,.11-.1c.27,.1,.58,.12,.8,.35-.32-.01-.64-.07-.92-.25Z" fill="#fec6d5"/><path d="M24.33,14.88c-.34-.04-.71,.11-1.03-.12,.1-.14,.27-.02,.38-.12,.2,.13,.48,.03,.66,.24Z" fill="#feafc3"/><path d="M23.67,14.64c-.09,.14-.25,.1-.38,.12-.08,0-.16,0-.24,0-.04-.04-.09-.09-.13-.13,0-.04,0-.08,0-.11,.25,.04,.5,.08,.75,.12Z" fill="#fec9d8"/><path d="M64.21,64.45c-.86,.9-2.38,1.14-3.68,.59,.15-.19,.41-.21,.57-.38,.4-.37,.32-.72-.03-1.08-.46-.47-.79-.51-1.37-.15-.3,.27-.02,.73-.32,1-.42-.26-.63-.68-.79-1.12-.26-.73-.68-1.35-1.13-1.96,.02-.01,.03-.04,.05-.04,.32-.1,.75-.06,.79-.55,.03-.4-.15-.74-.46-.98-.37-.29-.7-.12-1.02,.12-.22,.14-.28,.42-.5,.56-.9-.72-1.22-2.47-.63-3.44,.16-.26,.44-.39,.69-.53,1.66-.89,3.28-.72,4.89,.15,.1,.1,.08,.23,.08,.35-.02,.81,.08,.92,.9,1.12,.51,.13,.72,.51,.73,1.02-.09,.14-.22,.1-.33,.06-.41-.16-.68,.01-.89,.34-.2,.26-.14,.62-.32,.89-.28,.14-.35-.14-.48-.26-.35-.32-.71-.41-1.11-.09-.4,.49-.41,.96-.03,1.33,.36,.35,.66,.31,1.19-.17,.18-.23,.19-.54,.36-.77,.24-.12,.32,.11,.44,.23,.35,.36,.69,.42,1.06,.04,.15-.12,.29-.25,.5-.21,.41,.5,.79,1.02,1.11,1.58,.48,.82,.25,1.6-.27,2.33Z" fill="#4ed25b"/><path d="M37.39,49.32c-.02,1.44,.56,2.74,.93,4.1,.56,2.1,1,4.22,.74,6.41-.21,1.76-.61,3.47-1.22,5.13-.49,1.33-.79,2.66-.84,4.1-.12,3.46,.46,6.77,1.7,9.99,.79,2.06,1.15,4.21,1.22,6.41-.34,0-.33-.3-.43-.51-.21-.6-.37-1.21-.44-1.85-.2-1.96-.92-3.77-1.59-5.59-.81-2.17-1.25-4.4-1.42-6.73-.19-2.63,.6-4.99,1.47-7.38,1.04-2.82,1.23-5.72,.35-8.65-.46-1.56-.96-3.12-.9-4.78,0-.25-.02-.51,.1-.75,.16-.18,.24-.06,.32,.08Z" fill="#fbf7fe"/><path d="M43.1,85.75c.26-1.84,.8-3.62,1.45-5.35,1.1-2.93,2.46-5.74,4.4-8.23,1.07-1.38,2.21-2.71,3.43-3.96,.13-.07,.27-.11,.4,.01-.21,.48-.64,.77-.94,1.17-.17,.1-.31,.25-.47,.36-.06,.14-.11,.28-.17,.41-.89,.74-1.45,1.74-2.1,2.67-1.92,2.74-3.17,5.8-4.08,9-.41,1.43-.69,2.9-.52,4.41,.01,.15,.05,.3-.1,.42-.59,.03-1.08-.31-1.3-.9Z" fill="#4ed25b"/><path d="M38.34,69.81c-.28-.87,.46-1.15,.88-1.54,2.96-2.68,5.41-5.72,6.86-9.49,.54,.35,.55,.81,.34,1.34-.85,2.1-1.86,4.1-3.51,5.72-1.3,1.27-2.65,2.47-4.04,3.63-.16,.13-.34,.22-.53,.33Z" fill="#36a942"/><path d="M38.66,74.48c2.03,1.35,3.53,2.92,4.58,4.91,.12,.22-.19,1.6-.38,1.78-.25,.22-.27-.07-.34-.18-.54-.94-1.15-1.85-2.03-2.47-1.37-.98-1.3-2.52-1.83-4.03Z" fill="#36a942"/><path d="M56.71,66.06c-1.45,.05-2.22-1.36-1.85-2.77,.02-.08,.04-.16,.08-.24,.21-.45,.31-1.14,.81-1.19,.46-.04,.86,.5,1.13,.92,.52,.81,.72,1.8,1.39,2.53,.18,.19-.07,.35-.22,.44-.43,.26-.9,.36-1.34,.31Z" fill="#36a942"/><path d="M39.66,85c.03,.18,.14,.32,.26,.46-.05,.68-.15,1.36-.11,2.04,.01,.21-.08,.4-.25,.55-1.01-.11-2.03-.18-3.05-.14,.34-.68,.37-1.45,.61-2.16,.89-.09,1.69-.5,2.54-.74Z" fill="#36a942"/><path d="M44.5,86.24c-.43-1.08-.16-2.18,.07-3.22,1.03-4.53,2.94-8.65,5.89-12.26,.2-.24,.33-.6,.74-.59-3.02,3.82-5.17,8.07-6.23,12.85-.24,1.06-.46,2.13-.48,3.23Z" fill="#f9f6fc"/><path d="M48.2,59.33c.61-.04,1.21,.04,1.82-.1,1.02-.23,1.87-.7,2.6-1.45,.48-.5,.93-1.04,1.56-1.36-.59,.84-.95,1.83-1.51,2.66-.49,.72-1.49,1.03-2.47,1.03-.78,0-1.53,0-2-.77Z" fill="#36a942"/><path d="M64.21,64.45s-.04-.04-.04-.04c.73-1.2,.39-2.21-.5-3.16-.16-.18-.25-.43-.37-.65-.2-.45-.27-.93-.36-1.4-.21-.48-.34-.95-1.08-.94-.6,0-.83-.76-.59-1.6,1.22,.64,1.99,1.62,2.33,2.96,.15,.61,.43,1.17,.84,1.67,.88,1.05,.78,2.19-.24,3.16Z" fill="#fdfdfd"/><path d="M67.62,49.8c.08-.28-.23-.5-.11-.78,1.21,1.33,1.21,4.14-.5,5.38-.54,.39-1.13,.71-1.79,.86,.29-.67,.91-1.08,1.35-1.64,.8-1.02,1.44-2.09,1.19-3.47-.02-.12-.08-.24-.12-.36Z" fill="#f9f6fc"/><path d="M59.89,51.86c.12-.02,.24-.04,.37-.06,.31-.07,.59,.03,.85,.16,1.5,.74,3,1.49,4,2.92,.05,.07,.12,.11,.2,.14,2.82-.63,3.68-3.73,2.12-5.89-.11-.41-.61-.55-.69-.98,.33-.38,.65-.76,.98-1.14,.88,1.11,1.67,2.25,1.87,3.72,.26,1.98-.5,3.99-2.3,5.02-.53,.3-1.1,.52-1.65,.78-.32,.15-.65,.3-.91,.55-.34,.33-.55,.65-.17,1.13,.28,.36,.48,.8,.57,1.26,.19,.96,.93,1.67,1.16,2.63,.49,2.1-.05,3.66-1.85,4.8-2.35,1.48-4.86,2.05-7.57,1.06-.12-.04-.24-.09-.35-.14-.95-.42-.95-.43-1.69,.3-3.68,3.61-6.35,7.83-7.93,12.74-.17,.52-.15,.92,.15,1.4,.7,1.12,1.21,2.35,1.53,3.64,.06,.24,.1,.4,.38,.37-.41,.45-.97,.38-1.5,.42-.28-.15-.3-.44-.38-.69-.2-.66-.41-1.32-.75-1.98-.24,1.1-.26,2.17-.42,3.23-.44,.44-.86,.95-1.59,.84-.17-.45-.1-.91-.06-1.36,.03-.16,.08-.33,.09-.49,.14-2.43,.75-4.75,1.57-7.02,1.2-3.33,2.95-6.35,5.14-9.12,.06-.14,.14-.27,.25-.38,.18-.14,.37-.26,.48-.46,.29-.39,.67-.7,.93-1.12,.48-.49,.96-.99,1.46-1.47-.63,.5-1.17,1.1-1.74,1.67-1.87,2.1-3.77,4.17-5.17,6.64-1.93,3.41-3.32,7.02-4.05,10.88-.08,.82-.2,1.63-.17,2.45,0,.23,0,.47-.11,.68-.6,.2-1.07-.04-1.46-.48-.11-.43-.06-.87-.06-1.31,.04-.93,.14-1.85,.38-2.75,.22-.81,.14-1.53-.3-2.24-.23-.37-.44-.77-.65-1.13,.44,1.9,.66,3.83,.49,5.8-.18,.49,.1,1.09-.34,1.53-.54,.04-1.07,.07-1.48-.39,.18-.84,.08-1.71,.24-2.56-.1-2.06-.44-4.07-1.1-6.03-.64-1.9-1.35-3.78-1.62-5.79-.27-1.98-.21-3.97-.16-5.95,.02-.69,.23-1.38,.49-2.03,.91-2.3,1.46-4.68,1.6-7.15,.04-.69-.05-1.4-.17-2.08-.26-1.52-.6-3.03-1.1-4.49-.29-.84-.49-1.71-.47-2.61,0-.25,0-.5-.08-.74,.03-.84,.06-1.69,.2-2.52,.04-.24,.13-.45,.31-.61,.42-.03,.84-.07,1.27-.1,.24,.25,.17,.55,.11,.84-.2,1.09-.22,2.18-.16,3.28,.06,1.1,.16,1.17,1.24,1.14,.21,0,.42,0,.63,0,.85-.13,1.7-.29,2.52-.58,.17-.06,.38-.16,.51,.06,.09,.16-.04,.27-.16,.37-1.1,.59-2.28,.98-3.54,1.33,.18,.24,.41,.38,.59,.58,.57,.6,.96,1.31,1.26,2.08,.14,.35,.27,.71,.54,.98,.54,.67,1.31,.88,2.09,.89,1.31,.02,2.17,.7,2.89,1.68,.28,.37,.5,.79,.78,1.16,.04,.04,.09,.09,.13,.14,.66,.79,1.56,.72,2.4,.56,1-.19,1.87-.62,2.2-1.74,.2-.7,.72-1.23,1.15-1.81,1.38-1.54,4.52-2.61,7.4-1.18,.24,.12,.49,.24,.73,.37,.27,.17,.52,.36,.76,.55,.25,.2,.44,.23,.71-.01,.56-.49,.57-.51,.04-1.07-1.03-1.09-2.18-2.03-3.51-2.73-.16-.08-.37-.13-.36-.38Zm-12.47,9.34c-.71,1.62-1.51,3.19-2.66,4.56-1.77,2.1-3.92,3.77-6.04,5.49-.56,.45-.5,1.42,.13,1.8,1.6,.97,3,2.18,4.17,3.65,.36,.45,.69,.91,1.03,1.37,.48-.97,.91-1.92,1.4-2.85,1.86-3.56,4.51-6.51,7.37-9.27,.48-.47,.61-.86,.41-1.46-.39-1.16-.88-2.3-.86-3.58-1.64,.64-3.22,.82-4.77-.16-.06,.16-.12,.31-.18,.46Zm-8.74,5.72c2.74-2.59,5.16-5.37,6.31-9.12-2.36,.05-3.91-.94-4.58-3.18-.1-.33-.27-.69-.68-.89,1.55,4.56,.29,8.87-1.06,13.19Zm5.95-10.41c1.16,.02,1.9,.62,2.58,1.45,.36,.44,.56,.99,.99,1.37-.11-.76-.43-1.45-.75-2.13-.36-.77-.97-1.26-1.81-1.43-1.08-.22-2.22,.2-3.29-.24,.55,.81,1.43,.97,2.28,.99Z" fill="#00983e"/><path d="M43.1,85.75c.36,.4,.76,.75,1.3,.9,0,.5,0,1-.01,1.5-.53,.26-.81,.94-1.52,.89-.01-1.1-.07-2.21,.23-3.29Z" fill="#36a942"/><path d="M47.43,86.63c-.53,.25-1.07,.49-1.65,.64,.02-1.21,.19-2.4,.44-3.71,.66,1,.88,2.05,1.21,3.06Z" fill="#36a942"/><path d="M61.68,66.73c-1.41,.53-2.82,.64-4.24,.04,.29-.1,.62-.12,.81-.3,.63-.59,1.27-.44,1.94-.12,.47,.22,1.01,.16,1.49,.38Z" fill="#35a942"/><path d="M43.5,50.44c-.41,1-1.33,1.37-2.22,1.78-.23,.1-.47,.17-.7,.26-.27-.22-.54-.44-.91-.74,1.39-.29,2.6-.8,3.83-1.3Z" fill="#36a942"/><path d="M56.71,59.84c.32-.32,.66-.52,1.12-.26,.45,.26,.63,.68,.66,1.16,.03,.55-.28,.72-1.03,.63-.04-.04-.08-.07-.12-.11-.4-.39-1.02-.67-.64-1.41Z" fill="#00993e"/><path d="M54.28,62.81c-.7-1.23-.59-2.34-.16-3.69,.21,.88,.44,1.56,.95,2.09,.07,.07,.03,.16-.04,.22-.37,.33-.54,.79-.75,1.37Z" fill="#35a942"/><path d="M61.15,64.79c-.16,.2-.38,.26-.62,.26-.47-.04-.86-.22-1.15-.6,.08-.39-.24-.86,.26-1.16,.19,.81,.76,1.24,1.51,1.5Z" fill="#36aa43"/><path d="M52.78,68.22c-.13,0-.27,0-.4-.01,.55-.56,1.09-1.12,1.64-1.67,.11-.1,.29-.27,.43-.08,.15,.2-.08,.27-.2,.38-.5,.45-.99,.92-1.48,1.38Z" fill="#35a942"/><path d="M41.18,86.87c.04,.22,.17,.31,.39,.27,0,.46,0,.93,.01,1.39-.23,.08-.4-.12-.61-.12,.18-.5,0-1.04,.21-1.54Z" opacity=".3"/><path d="M56.71,59.84c-.12,.62,.32,.99,.64,1.41-.42-.15-.71-.48-1.02-.77,.04-.26,.13-.5,.38-.64Z" fill="#33a942"/><path d="M51.37,69.75c.1-.19,.19-.4,.47-.36-.12,.17-.19,.39-.47,.36Z" fill="#b1ddbb"/><path d="M37.39,49.32c-.07-.04-.15-.08-.22-.12-.12-.18,.06-.28,.11-.41,0-.04,0-.08,0-.12,.21,.19,.14,.42,.11,.65Z" fill="#58b675"/><path d="M17.46,54.26c.15,.24-.08,.27-.2,.35-.85,.56-1.56,1.27-2.2,2.06-.24,.29-.59,.43-.89,.64-.03,.04-.08,.09-.03,.13,.05,.04,.1,.02,.15-.02,.34-.13,.67-.27,1.01-.4,.89-.31,1.8-.58,2.74-.69,.64-.07,.82,.1,.6,.7-.47,1.26-.4,2.51-.11,3.79,.06,.25,.19,.53-.05,.78l-.5-.24c-.55-.8-.88-1.66-.81-2.67,.05-.73-.22-.87-.86-.49-.92,.55-1.51,1.4-2.04,2.3-.21,.36-.41,.74-.6,1.11-.34,.29-.68,.59-1.03,.88-.34-.04-.19-.3-.19-.47,0-.74,.25-1.46,.31-2.19-.66,.18-.81,.87-1.26,1.26-.42,.47-.72,1.05-1.27,1.4-.69-.6-1.44-1.1-2.28-1.45-2.11-.89-2.49-2.49-1.95-4.44,.47-1.68,1.54-2.67,3.28-2.86,2.65-.29,5.29-.25,7.89,.38,.1,.02,.19,.08,.29,.12Z" fill="#4ed25b"/><path d="M12.02,52.84c1.42,.34,2.83,.73,4.3,.79,.4,.09,.83,.06,1.21,.24,.17,.08,.39,.16,.34,.38-.06,.27-.29,.13-.46,.13-2.89-.72-5.8-.84-8.74-.3-.85,.16-1.46,.62-1.93,1.33-.64,.96-.89,2.02-.75,3.14,.13,1.02,.74,1.72,1.67,2.16,.91,.44,1.84,.87,2.56,1.61,.15,.18,.28,.31,.45,0,.25-.43,.47-.87,.73-1.29,.21-.34,.44-.66,.71-.96,.16-.18,.33-.4,.64-.28,.12,.24-.07,.39-.15,.57-.32,.68-.72,1.32-.94,2.05-.04,.13-.15,.29,.02,.39,.12,.07,.24-.02,.35-.07,.19-.09,.36-.22,.52-.34,.38-.32,.71-.71,1.14-.97,1.36-.72,2.76-.63,4.17-.22,.21,.08,.42,.16,.63,.25,.14,.07,.28,.13,.42,.2,.99,.54,1.68,1.35,2.16,2.36,.47,.91,.54,1.89,.48,3.01,.46-.67,.84-1.28,1.4-1.72,.21-.16,.18-.4,.14-.64-.25-1.64-.06-3.24,.55-4.78,.12-.3,.19-.69,.67-.59,.12,.41-.09,.78-.17,1.17-.25,1.17-.23,2.35-.04,3.52,.11,.69,.16,.72,.88,.64,.66-.07,1.31,.12,1.96,.05,1.74-.21,2.99-1.17,3.89-2.63,.26-.43,.44-.91,.71-1.34,.26-.43,.55-.85,.94-1.33-1.21-.26-2.3-.65-3.38-1.03-.42-.15-.85-.28-1.24-.47-.18-.09-.55-.16-.27-.52,.31-.06,.58,.06,.87,.12,1.86,.41,3.71,.87,5.62,.91,.47,0,.93-.06,1.38-.17,.71-.17,.79-.29,.68-1.01-.02-.17-.06-.33-.07-.5,.01-1.19-.58-1.85-1.74-2.08-.83-.17-1.65-.32-2.49-.32-.28,0-.6,.07-.81-.21,.09-.29,.34-.35,.59-.38,.8-.08,1.61-.22,2.42-.13,1.32,.21,1.33,.21,1-1.06-.27-1.04-.46-2.1-.57-3.17-.04-.42-.1-.84,.12-1.23,.39-.36,.79-.73,1.18-1.09,.32,.06,.29,.33,.29,.54-.02,.78,.12,1.54,.15,2.31,.2,1.36,.53,2.7,.95,4.01,.98,3.03,.83,6.08,.16,9.14-.38,1.71-.98,3.37-1.34,5.09-.7,3.38-.55,6.72,.46,10.02,.47,1.54,.86,3.09,1,4.71,.08,.96-.02,1.9-.14,2.84-.22,.77-.2,1.61-.69,2.3-.49,.3-1.03,.36-1.59,.35-.26-.55,.24-.94,.31-1.42,.77-2.77,.41-5.49-.43-8.18-.26-.82-.46-1.66-.78-2.5-2.42,3.28-3.52,6.86-2.55,10.93,.02,.41,.19,.82,.05,1.24-.63,.18-1.11-.18-1.62-.46-.17-.87-.29-1.74-.37-2.62-.38-4.22,1.24-7.76,3.78-10.97,.21-.27,.42-.53,.37-.97-.46,.31-.8,.7-1.14,1.08-2.48,2.81-3.93,6.07-4.36,9.8-.11,.95-.12,1.9-.07,2.85,0,.19,.06,.39-.14,.51-.44,.14-.88,.16-1.32-.03-.12-.11-.17-.25-.15-.4,.09-1.22-.19-2.45,.09-3.66,.18-.78-.16-1.45-.38-2.15-.13-.4-.27-.8-.41-1.2-1.15-2.86-2.72-5.47-4.77-7.78-.11-.13-.21-.26-.31-.4-.18-.24-.39-.44-.6-.64-.06-.06-.11-.12-.28-.12,.29,.37,.61,.65,.86,1,2.46,2.7,4.07,5.87,5.1,9.34,.13,.44,.22,.9,.35,1.35,.29,1.24,.35,2.51,.36,3.78,0,.28-.02,.55-.17,.8-.4,.4-.89,.35-1.39,.26-.16-.22-.13-.43,.01-.65,.26-3.62-.93-6.87-2.58-9.99-.92-1.74-2.09-3.32-3.49-4.71-.31-.31-.53-.37-.93-.14-1.64,.94-3.42,1.37-5.19,.59-1.64-.72-3.06-1.86-4.24-3.22-.73-.84-.61-2.06,.12-3.04,.18-.23,.4-.44,.6-.65,.98-1.02,.86-1.19,.05-2.34-.52-.74-1.36-1.12-2.17-1.48-1.43-.65-2.49-1.68-2.69-3.26-.28-2.24,.42-4.51,2.66-5.94,.73-.46,1.56-.72,2.25-1.25,.43,.21,.85,.41,1.28,.62,.06,.23-.07,.33-.27,.4,.53-.14,1.04,0,1.56,.11Zm14.22,13.55c1.76,2.62,4.29,4.07,7.3,4.8,.37,.09,.41-.14,.43-.42,.05-.52,.1-1.05,.19-1.57,.29-1.8,.9-3.52,1.39-5.28,.36-1.3,.63-2.61,.72-3.96,.01-.17,.11-.44-.23-.37-1.38,.26-2.73,.52-3.35,2.07-.37,.91-.88,1.78-1.59,2.49-1.35,1.36-2.97,2.08-4.93,2.03,.03,.1,.04,.16,.07,.21Zm-5.1,2.9c-.29,.08-.55,.46-.15,.85,.51,.5,1.01,1.02,1.48,1.57,2.21,2.58,3.87,5.49,5.11,8.71,.73-2.1,1.63-4.07,2.99-5.78,.27-.34-.05-.34-.2-.4-.94-.43-1.82-.97-2.66-1.57-1.9-1.36-3.37-3.12-4.73-5.05-.53,.72-.93,1.43-1.83,1.67Z" fill="#00983e"/><path d="M37.27,48.79c-.04,.14-.07,.27-.11,.41-.21,1.77,.24,3.44,.76,5.09,1.07,3.37,.79,6.64-.49,9.89-.58,1.47-1.13,2.95-1.2,4.56-.12,2.68,.19,5.29,1.09,7.84,.58,1.65,1.31,3.25,1.65,4.97,.23,1.15,.34,2.32,.69,3.45-.69,.51-1.49,.75-2.33,.85-.06,0-.14-.07-.21-.11,.48-2.94-.32-5.71-1.12-8.49-.68-2.35-.76-4.76-.53-7.19,.2-2.16,.89-4.19,1.45-6.25,.98-3.63,1.05-7.22-.21-10.8-.35-.99-.5-2.04-.69-3.07,.49-.31,.65-.97,1.25-1.15Z" fill="#4ed25b"/><path d="M17.33,66.68c-1,.18-1.63,.83-2.14,1.64-.13,.21-.27,.43-.4,.64-.2,.07-.24-.12-.34-.21-.21-.29-.45-.44-.8-.21-.43,.28-.51,.6-.3,1.21,.02,.09,0,.18-.07,.25-.36,.18-.69-.04-1.04-.06-.25-.02-.51-.07-.75-.05-.81,.08-1.74-.49-1.98-1.27-.13-.43-.03-.84,.29-1.17,.7-.71,1.36-1.43,1.63-2.44,.08-.31,.34-.55,.65-.66,.67-.24,1.23-.63,1.74-1.12,1.21-1.18,2.59-.99,4-.46,.29,.11,.57,.28,.82,.47,.9,.68,.99,1.67,.25,2.61-.05-.03-.08-.08-.11-.13-.07-.26-.09-.55-.37-.7-.25-.34-.52-.53-.94-.23-.48,.35-.61,.69-.39,1.21,.11,.22,.46,.36,.26,.7Z" fill="#4ed25b"/><path d="M30.03,87.9c-.63-.12-1.27-.25-1.9-.37-.19-1.05-.11-2.08-.03-3.14,.12-1.66,.58-3.22,1.16-4.76,.97-2.6,2.55-4.77,4.65-6.68,.13,.6,.02,1.03-.35,1.48-2.1,2.56-3.53,5.42-3.79,8.78-.09,1.2,.01,2.38,.23,3.55,.07,.37,.02,.76,.03,1.14Z" fill="#36a942"/><path d="M20.91,64.01c.47-1.88,1.63-3.32,2.96-4.66,.24-.24,.25-.23,.44,0-.31-.01-.38,.24-.45,.45-.63,1.66-.9,3.36-.53,5.12,.03,.14,.15,.28-.04,.39-.82,.49-1.21,1.35-1.88,2.22,.02-1.31,.05-2.46-.49-3.52Z" fill="#36a942"/><path d="M32.5,72.34c.02,.28-.98,.99-1.23,.89-3.11-1.33-5.41-3.6-7.25-6.38-.1-.15-.26-.32,.03-.46,.22-.1,.42-.3,.64,.04,.38,.61,.8,1.18,1.26,1.73,1.62,1.94,3.65,3.22,6.07,3.92,.16,.05,.4,.02,.47,.25Z" fill="#36a942"/><path d="M13.66,61.63c.13-.92,.7-1.62,1.24-2.33,.47-.63,1.01-1.18,1.79-1.43,.45-.14,.74-.06,.65,.47-.2,1.1,.33,2.04,.64,3.03-1.12-.27-2.25-.45-3.39-.13-.32,.09-.61,.26-.92,.39Z" fill="#77e97f"/><path d="M18.47,61.61c-.12-.7-.28-1.39-.37-2.1-.1-.87,.04-1.72,.37-2.53,.13-.34,.25-.6-.35-.46-.93,.22-1.89,.35-2.83,.52,1.7-.93,3.54-1.37,5.57-1.54-1.3,1.45-1.68,3.18-2.09,4.89-.06,.24-.14,.49,.07,.71,0,.22,0,.43,0,.65-.12-.05-.25-.1-.37-.14Z" fill="#36a942"/><path d="M17.3,71.02s-.04,0-.06,0c-.53-.06-1.15-.08-1.48-.46-.48-.54,.27-.88,.44-1.32,.26-.68,.75-1.16,1.49-1.33,.15-.03,.29-.09,.43-.04,.61,.21,1.01,2.01,.5,2.4-.4,.3-.7,.83-1.32,.74Z" fill="#36a942"/><path d="M20.89,71.9c2.13,2.31,3.77,4.94,4.99,7.83,.04,.1,.07,.2,.1,.3,.11,.65,.3,1.3,.31,1.97,0,.29,.04,.59-.19,.83-.29-.92-.56-1.84-.88-2.75-1.02-2.89-2.55-5.5-4.59-7.8-.11-.25-.03-.39,.26-.38Z" fill="#4dd25b"/><path d="M31.43,87.14c1.35-.04,2.7,.08,4.04-.13-.16,.42-.32,.85-.48,1.27-.67,.16-1.31,.43-1.9,.79-.32,.2-.53,.2-.79-.08-.21-.23-.49-.38-.74-.57-.04-.42-.19-.84-.13-1.27Z" opacity=".3"/><path d="M31.7,60.73c-.07-.14-.18-.22-.33-.26-1.64-.43-2.73-1.65-3.89-2.76-.22-.21-.21-.22,.03-.28,.34,.48,.92,.49,1.39,.66,1.26,.45,2.51,.95,3.94,1.16-.5,.46-.82,.97-1.15,1.47Z" fill="#36a942"/><path d="M36.25,56.67c-1.7-.83-3.37-1.74-5.21-2.24-.1-.03-.35,.02-.27-.22,.02-.05,.19-.05,.29-.07,1.33-.04,2.64,.07,3.92,.51,.69,.24,1.18,.6,1.17,1.41,0,.2,.07,.41,.11,.62Z" fill="#36a942"/><path d="M26.1,82.82c.09-.94-.19-1.86-.12-2.79,.44,.84,.64,1.77,.96,2.66,.11,.3-.02,.7-.09,1.05-.24,1.26-.07,2.52-.12,3.78-.13,0-.25,0-.38,0,.31-1.36-.03-2.69-.18-4.02-.03-.23-.07-.45-.07-.68Z" fill="#36a942"/><path d="M12.76,59.85c.2-.09,.24-.08,.19,.17-.18,.82-.4,1.64-.3,2.49-.24,.21-.49,.41-.8,.49-.13,.03-.27,.18-.41,.05-.12-.12-.04-.27,0-.42,.31-.99,.79-1.9,1.32-2.79Z" fill="#36aa42"/><path d="M12.87,71.45c.58-.18,1.21-.12,1.73-.46,.14-.09,.26-.05,.4,.03,.36,.21,.74,.4,1.1,.59-.71,.49-2.36,.41-3.24-.16Z" fill="#35a942"/><path d="M20.12,66.52c.04,.96-.04,1.82-.55,2.78-.09-.66-.19-1.16-.46-1.6-.12-.19,.04-.24,.15-.34,.27-.26,.54-.52,.86-.84Z" fill="#35a942"/><path d="M18.46,64.93c.44,.09,.39,.44,.39,.75-.07,.29-.27,.48-.51,.64-.29,.26-.7,.2-1.02,.36,.02-.29-.3-.38-.37-.62,.73-.07,1.08-.65,1.51-1.13Z" fill="#34aa42"/><path d="M10.22,62.51c.33-.55,.75-1.02,1.27-1.4-.25,.47-.53,.93-.76,1.41-.2,.43-.35,.29-.52,0Z" fill="#35aa42"/><path d="M20.89,71.9c-.17,.07-.25,.2-.26,.38-.25-.27-.51-.55-.76-.82-.1-.11-.3-.2-.11-.4,.18-.19,.29-.05,.4,.07,.24,.26,.48,.52,.72,.78Z" fill="#35aa42"/><path d="M13.27,70v-.24c.51-.24,.94-.58,1.28-1.03,.08,.08,.16,.16,.23,.24-.27,.69-.79,1.01-1.51,1.03Z" fill="#33aa43"/><path d="M18.35,66.32c.17-.21,.34-.43,.51-.64,0,.05,0,.1,0,.15-.05,.3-.23,.44-.51,.49Z" fill="#40c151"/><path d="M36.86,41.04c-.95-.11-2.08-.18-2.96-1.01-.95-.89-1.18-2.15-.56-3.08,.64-.97,1.9-1.27,3.09-.69,.55,.27,1.01,.1,1.51-.09,1.18-.44,2.3,0,2.69,1.11,.3,.86,.09,1.67-.48,2.37-.71,.9-1.86,1.4-3.29,1.39Z" fill="#553826"/><path d="M44.2,36.09c1.18,0,1.69,.39,1.58,1.12-.08,.53-.7,.83-1.67,.79-.72-.03-1.23-.39-1.25-.91-.02-.62,.43-.83,.9-.98,.18-.06,.38-.03,.43-.03Z" fill="#fec8e4"/><path d="M29.64,37.87c-.14,0-.2,0-.27,0-.76-.03-1.26-.43-1.25-.98,.02-.53,.51-.91,1.23-.93,.27,0,.56-.02,.82,.04,.44,.1,.84,.27,.88,.84,.05,.57-.32,.77-.75,.95-.24,.11-.5,.06-.67,.08Z" fill="#fec8e4"/><path d="M10.85,34.19s.09-.09,.13-.13c.16,.1,.32,.2,.34,.46-.26,.03-.36-.15-.47-.32Z" fill="#fec2d2"/><path d="M62.06,28.12c.29-.1,.57-.19,.86-.29,.61,.18,.75,.59,.58,1.17-.3,.98-.83,1.37-1.59,1.13-.53-.41-.38-.91-.16-1.41,.09-.21,.21-.4,.32-.61Z" fill="#fefefe"/><path d="M61.02,32.02c.24,.71,.04,1.01-.77,1.16-.5-.18-.6-.54-.38-.99,.22-.46,.61-.5,1.15-.17Z" fill="#fefcfc"/><path d="M24.95,60.75c.05-1.17,.08-2.35,.25-3.51,.04-.3,.11-.6,.46-.68,.34-.08,.54,.16,.76,.36,.39,.36,.53,.86,.71,1.32,.42,1.11,1.11,1.97,2.24,2.42,.23,.09,.56,.15,.54,.53-.02,.34-.18,.58-.49,.75-.7,.36-1.31,.82-1.78,1.47-.53,.73-1.49,.59-2.15-.2-.62-.74-.57-1.6-.54-2.46Z" fill="#78e97f"/><path d="M19.49,59.46c.33-1.2,1-2.22,1.75-3.19,.52-.67,1.3-1,2.07-1.27,2.09-.72,4.26-.92,6.47-.88-1.48,.66-3.08,.95-4.63,1.35-2.29,.59-4.14,1.7-5.4,3.72-.06,.1-.17,.18-.26,.27Z" fill="#36a942"/><path d="M29.78,54.13s0-.08,0-.13c.09-.03,.19-.05,.28-.07,0,0,.05,.07,.04,.09-.06,.15-.2,.09-.31,.1Z" fill="#3dbb4d"/><path d="M33.43,17.44c-.05,.37-.08,.66-.14,.95-.08,.37-.38,.5-.71,.52-.32,.03-.41-.26-.46-.5-.14-.68-.3-1.35-.37-2.03-.04-.46,.07-.98,.64-1.08,.59-.11,.74,.35,.83,.81,.09,.47,.15,.95,.21,1.34Z" fill="#feeb42"/><path d="M24.96,17.72c0-.73,.38-.96,.88-.68,.25,.14,.42,.34,.55,.59,.35,.65,.57,1.35,.75,2.06,.07,.27,.06,.46-.19,.59-.22,.11-.48,.14-.65-.06-.67-.77-1.12-1.66-1.35-2.5Z" fill="#feeb41"/><path d="M23.31,21.7c0,.62-.18,.81-.8,.68-.84-.18-1.53-.57-1.79-1.47-.15-.5,.07-.77,.53-.87,.7-.16,2.05,.94,2.06,1.66Z" fill="#feeb42"/><path d="M29.53,23.15c.05,.35-.06,.69-.14,1.04-.07,.29-.26,.35-.52,.33-.27-.02-.36-.18-.36-.42-.02-.49,0-.97,.14-1.44,.08-.23,.13-.55,.45-.52,.32,.03,.42,.31,.42,.61,0,.13,0,.25,0,.39Z" fill="#feeb41"/><path d="M30.93,20.49c.35,.22,.74,.06,1.11,.11,.22,.03,.47-.05,.67,.11-.84,0-1.69,.01-2.53,.02,.22-.18,.49-.19,.76-.24Z" fill="#fef5a4"/><path d="M52.63,19.97c.37,.61,.07,1.13-.34,1.51-.54,.49-1.2,.85-1.91,1.09-.3,.1-.54,.06-.75-.16-.22-.24-.08-.47,.04-.69,.44-.83,.96-1.59,1.84-2.01,.34-.16,.72-.3,1,.14-.47,.32-.31,.92-.57,1.29,.4-.27,.51-.75,.69-1.18Z" fill="#feeb42"/><path d="M48.83,18.17c-.17,.74-.64,1.32-1.07,1.91-.16,.23-.4,.31-.67,.24-.34-.09-.28-.38-.28-.63,.03-1,.13-1.99,.9-2.74,.31-.3,.66-.62,1.1-.28,.38,.3,.38,.72,.15,1.13-.17-.12-.11-.34-.32-.62,.02,.42,.01,.71,.18,.98Z" fill="#feeb42"/><path d="M44.78,21.58c1.03,.3,1.97,.8,2.91,1.32-.79,.4-1.66,.55-2.48,.84-.25,.09-.37,.05-.34-.29,.05-.62,.07-1.25-.09-1.87Z" fill="#feee39"/><path d="M40.05,16.89c.09,.47-.12,.91-.13,1.38,0,.25-.22,.49-.48,.51-.26,.01-.44-.16-.51-.46-.21-.83-.15-1.67-.1-2.5,.01-.22,.11-.46,.38-.53,.33,.51,.62,1.04,.84,1.61Z" fill="#feeb42"/><path d="M40.05,16.89c-.44-.45-.74-.98-.84-1.61,.41-.28,.66-.13,.78,.31,.13,.43,.09,.87,.06,1.3Z" fill="#fefdf5"/><path d="M52.63,19.97c.19,.77-.36,1.12-.95,1.62,.14-.58,.3-1.01,.34-1.46,.02-.26,.26-.3,.49-.27,.04,.04,.08,.08,.12,.11Z" fill="#fefef7"/><path d="M48.83,18.17c-.52-.07-.24-.53-.36-.79-.07-.14,0-.35,.18-.42,.18-.07,.29,.08,.31,.22,.03,.21,0,.42,.01,.63-.04,.12-.09,.24-.13,.36Z" fill="#fefefb"/><path d="M58.1,48.66c.15,.24,.4,.47,.15,.78-.19,.24-.45,.4-.77,.34-.4-.07-.6-.35-.66-.74,.31-.52,.73-.66,1.27-.38Z" fill="#fefefd"/><path d="M46.42,29.74c-.3,.26-.58,.56-.98,.67-.44-.53-.89-1.05-1.32-1.59-.27-.34-.59-.6-1-.73,.14-.94-.15-1.42-1.39-1.65-.57-.45-1.06-.97-1.54-1.52,.15,0,.33,.05,.44-.03,.96-.66,1.48,.12,2.02,.65,1.31,1.27,2.68,2.49,3.62,4.09,.03,.05,.1,.07,.15,.1Z" fill="#fed8e4"/><path d="M41.72,26.44c.63-.26,1.01,.1,1.37,.54,.3,.37,.38,.73,.02,1.11-.49,.31-.81,.03-1.15-.29-.43-.4-.51-.84-.24-1.35Z" fill="#fefefe"/><path d="M58.35,14.74c.43-.11,.74,.03,.86,.47,.13,.47,.03,.86-.47,1.06-.41,.04-.64-.21-.73-.55-.1-.37-.08-.76,.35-.98Z" fill="#fefefe"/><path d="M36,6.89c.24-.44,.64-.53,1.01-.29,.46,.31,.52,.79,.26,1.29-.76,.26-1.19-.08-1.27-1Z" fill="#fefdfd"/><path d="M14.29,57.43c-.11,.12-.23,.21-.42,.2,0-.21,.15-.26,.3-.32,.04,.04,.08,.08,.12,.12Z" fill="#13ac48"/><path d="M65.96,52.1c-.09-.22-.03-.43,0-.65,.02-.24,.11-.44,.3-.61,.16-.14,.32-.21,.52-.13,.2,.08,.26,.26,.25,.47,0,.34-.05,.69-.28,.95-.25,.29-.54,.33-.78-.03Z" fill="#fbfdfb"/><path d="M62.29,62.63c.34-.43,.75-.48,1.21-.22,.48,.28,.72,.92,.58,1.49-.45,.46-.75,.5-1.31,.16-.57-.35-.7-.75-.48-1.44Z" fill="#00993e"/><path d="M61.15,64.79c-1.06-.07-1.52-.53-1.51-1.5,.61-.45,1.13-.36,1.69,.36,.34,.43,.32,.84-.18,1.15Z" fill="#00993e"/><path d="M62.94,59.2c.38,.4,.44,.88,.36,1.4-.12,.09-.25,.18-.37,.26-.9,.27-1.49-.37-1.27-1.4,.32-.62,.77-.59,1.28-.27Z" fill="#01993e"/><path d="M56.44,57.04c.51-.42,.97-.3,1.4,.36,.28,.43,.31,.96-.24,1.31-.49,.24-.79-.07-1.06-.4-.32-.39-.4-.82-.1-1.26Z" fill="#00993e"/><path d="M59.12,57.04c.41-.41,.83-.31,1.22,.02,.47,.4,.56,.86,.17,1.37-.41,.26-.8,.22-1.14-.1-.38-.36-.53-.79-.25-1.29Z" fill="#00993e"/><path d="M61.4,60.47c.04,.33-.07,.62-.26,.88-.43,.25-.84,.22-1.19-.14-.34-.36-.48-.77-.2-1.24,.65-.45,.98-.35,1.65,.51h0Z" fill="#00993e"/><path d="M62.29,62.63c-.02,.54,.03,1.03,.59,1.33,.43,.23,.81,.3,1.2-.05-.14,.53-.56,.61-1.02,.64-.53,.04-.81-.27-1.01-.69-.21-.45-.22-.89,.24-1.23Z" fill="#36aa42"/><path d="M59.76,59.97c-.01,1.13,.27,1.41,1.39,1.39-.58,.59-.99,.65-1.44,.21-.48-.46-.45-1.08,.06-1.59Z" fill="#35aa42"/><path d="M59.12,57.04c0,1.14,.27,1.42,1.39,1.39-.49,.6-.87,.66-1.36,.23-.54-.48-.55-1.07-.03-1.62Z" fill="#35aa42"/><path d="M56.44,57.04c-.08,1.07,.28,1.59,1.16,1.67-.59,.36-1.04,.32-1.38-.12-.3-.39-.18-1.22,.22-1.55Z" fill="#35aa42"/><path d="M61.66,59.46c.01,.95,.39,1.37,1.27,1.4-.6,.55-.81,.5-1.53-.39,0,0,0,0,0,0,0-.36,0-.72,.26-1.02Z" fill="#35ab43"/><path d="M63.56,61.56c-.03,.19-.14,.3-.33,.31-.2,.01-.32-.09-.32-.29,0-.22,.11-.36,.34-.35,.19,.01,.29,.14,.31,.33Z" fill="#f2fbf2"/><path d="M12.51,54.9c.57-.08,1.15,.19,1.74,0,.28-.09,.55,.06,.65,.37,.11,.33-.05,.59-.31,.77-.71,.48-1.27,1.09-1.77,1.78-.41,.57-.76,1.16-1.08,1.79-.23,.46-.49,.89-.91,1.2-.57,.41-1.12,.22-1.26-.47-.17-.88-.64-1.49-1.45-1.86-.56-.26-.68-.69-.47-1.26,.42-1.14,1.26-1.77,2.4-2.02,.8-.17,1.61-.34,2.45-.29Z" fill="#78e97f"/><path d="M13.9,67.09c-.59-.34-.64-.65-.19-1.27,.44-.61,.95-.7,1.47-.27,.29,.87-.31,1.59-1.28,1.54Z" fill="#00993e"/><path d="M18.46,64.93c-.35,.93-.75,1.23-1.51,1.13-.32-.29-.31-.59-.06-.94,.28-.39,.6-.69,1.11-.71,.35-.01,.3,.35,.46,.52Z" fill="#00993e"/><path d="M10.73,69.11c-.51-.43-.26-.9,.02-1.28,.3-.41,.76-.49,1.23-.23,.33,.46,.06,.84-.2,1.2-.26,.36-.63,.46-1.06,.31Z" fill="#00993e"/><path d="M15.05,64.29c-.45-.26-.65-.58-.27-1.06,.44-.56,.9-.63,1.43-.22,.21,.76-.27,1.29-1.16,1.28Z" fill="#00993e"/><path d="M12,66.07c-.39-.46-.32-.98,.19-1.39,.35-.29,.79-.19,1.09,.23,.11,.73-.5,1.27-1.28,1.15Z" fill="#00993e"/><path d="M14.55,68.72c-.17,.67-.58,1.04-1.29,1.03-.41-.52-.33-.96,.31-1.39,.45-.3,.78-.12,.98,.36Z" fill="#00993e"/><path d="M13.9,67.09c.87-.17,1.26-.63,1.28-1.54,.61,.4,.63,1,.02,1.38-.4,.24-.83,.43-1.3,.16Z" fill="#36aa42"/><path d="M15.05,64.29c.68-.16,1.15-.51,1.16-1.28,.44,.18,.42,.53,.3,.89-.14,.4-.5,.58-.88,.58-.17,0-.43,0-.57-.19Z" fill="#35aa43"/><path d="M10.73,69.11c.88-.05,1.27-.53,1.25-1.51,.33,.12,.46,.38,.38,.7-.1,.43-.37,.78-.79,.91-.26,.08-.58,.14-.84-.1Z" fill="#36aa42"/><path d="M12,66.07c.64-.06,1.13-.5,1.28-1.15,.37,.28,.31,.59,.05,.9-.37,.43-.79,.67-1.33,.25Z" fill="#35aa43"/><path d="M36.83,40.28c-.61-.03-1.37-.16-2.07-.55-.59-.32-.89-.85-.99-1.47-.17-1.01,.83-1.74,1.92-1.34,.9,.33,1.73,.43,2.62-.03,.38-.2,.82-.22,1.15,.16,.35,.4,.56,.84,.4,1.39-.34,1.16-1.39,1.85-3.02,1.84Z" fill="#e52c20"/></svg>