<?xml version="1.0" encoding="UTF-8"?><svg id="Layer_1" xmlns="http://www.w3.org/2000/svg" viewBox="0 0 67.48 79.76"><path d="M28.18,32.66c-4.35,.8-8.39,0-12.07-2.42-3.2-2.1-5.25-5.06-6.11-8.81-.6-2.63-.17-5.19,.74-7.66,.65-1.76,.92-3.54,.77-5.39-.06-.75-.23-1.49-.56-2.18-.4-.84-.2-1.14,.71-1.13,1.93,.03,3.39,.9,4.45,2.47,.35,.52,.67,1.07,1.05,1.69,.71-1.41,1.2-2.78,1.01-4.32-.05-.43-.17-.86-.25-1.28-.12-.57,.16-.89,.74-.83,.52,.05,.99,.3,1.45,.51,.44,.2,.7,.19,1-.27,.51-.78,1.18-1.44,1.64-2.27,.28-.51,.78-.56,1.36-.26,.92,.48,1.84,.95,2.74,1.47,.29,.17,.41,.13,.55-.13,.2-.37,.4-.73,.6-1.1,.46-.86,1.12-.9,1.71-.11,.3,.39,.49,.87,.89,1.18,.65-.55,1.39-.96,1.98-1.56,.37-.37,.82-.28,1.18,.06,.8,.78,1.72,1.43,2.38,2.35,.13,.18,.25,.22,.5,.17,.65-.16,.93,.07,1,.74,.12,1.17,.37,2.3,.92,3.37,.25,.49,.36,.4,.66,.04,1.01-1.2,2.15-2.25,3.64-2.85,.95-.38,1.35-.08,1.26,.94-.2,2.25,.35,4.33,1.29,6.35,.73,1.58,1.43,3.19,1.69,5.03,1.28-1.03,2.66-1.66,4.14-2.08,.74-.21,1.49-.26,2.25-.2,.84,.07,1.18,.66,.82,1.43-.17,.36-.38,.7-.58,1.04-.94,1.62-1.4,3.4-1.71,5.23-.17,1.03-.38,2.06-.58,3.09,.15,.41-.09,.76-.15,1.14-.06,.16-.15,.32-.2,.48-.11,.32-.22,.65-.38,.95-.26,.56-.53,1.12-.86,1.64-.17,.25-.36,.48-.53,.74-.73,.8-1.49,1.56-2.37,2.19-.13,.1-.26,.21-.4,.3-.28,.19-.58,.35-.88,.51-.93,.6-1.97,.94-3,1.31-1.92,.61-3.87,.61-5.84,.39-1.27-.1-2.51-.34-3.73-.74-.58-.19-1.18-.34-1.79-.44-.41-.12-.83-.19-1.25-.3-.23-.06-.45-.12-.68-.17-.4-.14-.83-.16-1.22-.34Z" fill="#fe688b"/><path d="M28.18,32.66c.43-.12,.82,.04,1.2,.22,.15,.18,.16,.4,.12,.62-.22,1.1-.17,2.21-.19,3.31-.06,2.02,.38,4,.55,6.01,.19,2.19,.24,4.37,.1,6.57-.17,2.54-.72,5.01-1.26,7.48-.56,2.53-.36,4.99,.42,7.43,.39,1.22,.76,2.44,.98,3.7,.14,.83,.22,1.66,.19,2.5,0,.75,.02,1.5-.19,2.23-.07,.25-.11,.5-.3,.7-.43,.19-.86,.33-1.33,.15-.3-.37,0-.71,.06-1.06,.35-1.38,.26-2.76,.04-4.15-.28-1.78-.97-3.44-1.45-5.19-1.98,2.88-3.17,5.99-2.95,9.53,0,.3,.05,.61-.11,.9-.5,.22-.9-.03-1.3-.29-.23-1.14-.2-2.3-.04-3.44,.39-2.84,1.52-5.39,3.13-7.75,.51-.75,1.26-1.4,.85-2.42-.18,.2-.44,.42-.64,.7-2.29,2.84-3.71,6.05-4.16,9.68-.04,.83-.15,1.66-.13,2.49,0,.2-.04,.4-.23,.52-.32,.13-.65,.12-.97,.02-.18-.11-.28-.24-.18-.46-.05-3.23,.64-6.3,2.07-9.2,.44-.89,.97-1.73,1.48-2.58-3.13-1.35-5.62-3.39-6.9-6.58-.38-.95-.86-1.25-1.77-1.31-.71-.05-1.37-.35-2.02-.65-.87-.4-1.77-.58-2.72-.44-2.89,.42-5.29-.51-7.23-2.66-.17-.19-.35-.27-.6-.32-1.02-.19-1.87-.64-2.3-1.67-.35-.84-.11-1.57,.71-1.94,.4-.18,.64-.44,.75-.85,.06-.21,.15-.41,.23-.61,.49-1.19,1.58-1.87,2.86-1.68,.69,.11,1.09-.12,1.42-.68,.81-1.37,1.89-2.4,3.52-2.7,1.1-.2,2.18-.01,3.25,.22,.94,.21,1.88,.28,2.84,.32,.27,.01,.47-.08,.6-.3,.77-1.26,2.68-1.71,4.22-1.05,.62,.27,1.19,.29,1.84,.1,1.12-.33,2.19,.05,2.8,1.04,1.4,2.29,1.13,3.57-.53,5.61-.98,1.2-2.19,2.15-3.35,3.15-.94,.81-1.72,1.76-2.25,2.89-.21,.45-.19,.83,0,1.29,1.14,2.76,3.27,4.49,5.91,5.67,.34,.15,.73,.52,1.08,.3,.49-.31,.94-.76,1.06-1.38,.72-3.48,1.48-6.96,1.34-10.55-.08-2.09-.32-4.16-.56-6.24-.26-2.28-.33-4.57,.07-6.85,.02-.14,.01-.28,.02-.42Z" fill="#00983e"/><path d="M20.37,72.68c.03,.11,.07,.23,.1,.34-.39,.3-.87,.22-1.31,.29-.59,.09-1.18,.18-1.75,.37-.27,.09-.56,.25-.46,.59,.09,.32,.4,.29,.66,.23,.66-.14,1.33-.28,2-.37,1.42-.18,2.78,.06,4.1,.57,.47,.18,.88,.46,1.25,.81,.37,.35,.75,.4,1.19,.12,2.37-1.47,4.86-1.47,7.43-.63,.42,.14,.84,.25,1.25,.42,.63,.26,1.14,.13,1.65-.29,1.53-1.26,3.27-2.04,5.24-2.32,.33-.05,.67-.16,.97,.12,.9,.35,1.87,.29,2.8,.46,1.58,.29,3.21,.3,4.76,.73,.29,.08,.58,.15,.85,.27,.41,.18,.81,.4,.81,.93,0,.52-.38,.77-.78,.96-1.08,.5-2.25,.67-3.42,.72-.48,.02-.85,.09-1.18,.52-.55,.72-1.41,.95-2.24,1.15-1.72,.43-3.47,.63-5.24,.75-3.26,.22-6.53,.37-9.79,.33-3.28-.04-6.56-.17-9.83-.57-1.94-.24-3.87-.49-5.71-1.15-.8-.29-1.64-.56-2.01-1.46-.06-.14-.22-.15-.35-.2-.32-.11-.64-.22-.96-.33-.49-.17-.82-.47-.9-1.01-.09-.59,.31-.89,.71-1.14,.7-.44,1.5-.66,2.32-.73,1.78-.15,3.57-.28,5.36-.39,.84-.05,1.67-.06,2.51-.09Z" opacity=".3"/><path d="M42.68,72.93c-1.83,.05-3.5,.55-5.02,1.59-.47,.33-.95,.65-1.41,1-.33,.25-.69,.33-1.12,.19-1.01-.33-2.01-.7-3.07-.92-2-.41-3.86-.15-5.63,.88-.94,.55-.94,.54-1.76-.17-.81-.7-1.8-.97-2.83-1.14-1.4-.23-2.77-.07-4.12,.32-.39,.11-.86,.18-1.01-.33-.14-.49,.24-.7,.65-.84,1.01-.33,2.05-.43,3.11-.5,.34,0,.67,.01,1.01,.02,.45-.02,.92-.13,1.3,.23,.4,.12,.8,.24,1.2,.36,.53-.06,.89,.28,1.26,.56,.32,.25,.57,.26,.91,.06,.53-.32,1.12-.51,1.71-.69,.18-.06,.37-.16,.57-.06,.44-.04,.88-.09,1.32-.13,.61-.25,1.21-.32,1.78,.11,.4,.04,.81,.09,1.21,.13,.41-.07,.79-.02,1.05,.34,.45,.1,.86,.35,1.33,.38,.35-.02,.64-.17,.91-.39,.19-.15,.35-.39,.66-.33,.78-.53,1.62-.95,2.5-1.27,.83-.33,1.7-.49,2.58-.62,.16-.02,.32-.02,.48-.02,.34,0,.65,.11,.77,.45,.12,.33-.05,.58-.33,.75Z" fill="#047425"/><path d="M37.75,25.31c-1.27,3.12-3.76,4.65-6.92,5.29-1.18,.24-2.38,.38-3.57,.57-1.7,.28-3.15-.46-4.46-1.46-1.64-1.26-2.67-2.93-3.05-4.95-.48-2.5,.11-4.79,1.57-6.86,1.25-1.51,2.93-2.37,4.7-3.08,1.18-.47,2.18-1.13,2.92-2.2,.6-.88,1.41-.88,1.98,.02,.85,1.33,1.87,2.47,3.16,3.38-.23,.36-.56,.24-.84,.13-.93-.38-1.57,.19-1.64,1.12-.05,.65-.11,1.31,.28,1.91,.4,.6,1.05,.63,1.45,.03,.35-.53,.47-1.14,.38-1.77-.08-.55,.09-.93,.63-1.13,.81,.57,1.47,1.29,2.17,1.97,.44,.5,.57,1.13,.73,1.74,.43,1.68,.79,3.37,.48,5.12-.01,.06,.02,.12,.04,.17Z" fill="#fe94aa"/><path d="M42.18,22.07c-.44,1.89-1.06,3.72-2.25,5.28-1.27,1.67-2.89,2.82-5.1,3.13,.58-.49,1.18-.86,1.71-1.31,1.69-1.41,2.46-3.27,2.79-5.37,.31-2.03,.05-3.99-.59-5.93-.58-1.73-1.64-3.17-2.76-4.57-.97-1.21-2-2.37-3.11-3.46-.16-.16-.18-.28-.12-.52,.48-1.81,1.59-3.18,2.97-4.37,.32,.46,.19,1,.26,1.5,.17,1.17,.37,2.32,.79,3.42,.1,.32,.25,.62,.38,.92,.35,1.07,.96,2,1.6,2.91,.6,.84,1.15,1.71,1.73,2.57,.11,.16,.23,.33,.19,.55-.07,.14-.23,.22-.29,.37-.08,.24-.04,.48,.13,.66,.16,.18,.32,.02,.48-.05,.32-.13,.43,.09,.54,.32,.16,.34,.31,.69,.48,1.03,.21,.75,.22,1.51,.16,2.28-.01,.21-.07,.43,0,.64Z" fill="#fe94aa"/><path d="M37.78,33.36c-1.84-.15-3.64-.52-5.55-1.19,1.36,.04,2.55-.07,3.71-.36,2.35-.58,4.36-1.75,6.14-3.39,2.19-2.03,3.8-4.48,5.32-7,.95-1.57,2.04-3.04,3.42-4.27,.15-.13,.33-.21,.5-.32,.19,.24,.05,.46-.05,.67-.45,.96-.84,1.94-1.12,2.97-.07,.26-.2,.47-.39,.66-.96,.91-1.02,1.31-.41,2.52-.05,.74-.24,1.43-.65,2.05-.05,.03-.11,.03-.16,0-.18-.14-.08-.6-.47-.46-.42,.15-.26,.54-.26,.86-.42,1.08-1.12,1.98-1.86,2.83-1.88,2.15-4.21,3.56-7,4.23-.39,.09-.8,.03-1.17,.21Z" fill="#fe94aa"/><path d="M16.32,26.05c-1.05-1.58-1.66-3.31-1.94-5.19-.37-2.52,.32-4.78,1.51-6.96,.74-1.36,1.6-2.66,2.33-4.03,.81-1.53,1.32-3.15,1.23-4.91,.39-.06,.57,.21,.73,.49,.55,.97,.83,2.02,1.03,3.1,.1,.56-.04,1.11-.14,1.66-.37,2.14-1.09,4.15-2.03,6.1-.89,1.84-1.91,3.63-2.45,5.63-.32,1.17-.55,2.32-.15,3.52,.06,.18,.23,.46-.12,.58Z" fill="#feafc3"/><path d="M16.32,26.05c.19-.21,.02-.43-.04-.6-.34-.96-.25-1.9-.03-2.85,.42-1.73,1.15-3.33,1.96-4.91,1.26-2.46,2.33-5,2.77-7.76,.24-1.51-.18-2.89-.85-4.22-.04-.09-.06-.18-.1-.28,.26-.06,.41,.14,.55,.29,1.7,1.87,2.95,4.01,3.66,6.44,.03,.12,.04,.24-.01,.35-.91,1.02-1.9,1.97-2.77,3.04-1.42,1.76-2.53,3.67-2.95,5.91-.51,2.73,.18,5.19,1.79,7.43,.36,.5,.84,.9,1.2,1.41-2.13-.94-3.89-2.32-5.18-4.27Z" fill="#fe94aa"/><path d="M14.28,14.32c-.54,1.26-1.01,2.53-1.14,3.92-.1,1.05-.08,2.1,.05,3.15,0,1.53,.14,3.04,.66,4.5,.07,.19,.35,.46-.04,.64-1.58-2.02-2.6-4.24-2.79-6.84-.14-1.81,.17-3.53,.77-5.19,.8-2.21,1.21-4.43,.92-6.77,.24-.07,.26-.08,.37,.14,.62,1.15,1.16,2.31,1.38,3.62,.16,.97,.1,1.9-.17,2.84Z" fill="#feafc3"/><path d="M55.87,30.26c-1.33,1.03-2.47,2.24-3.44,3.61-.1,.15-.19,.3-.29,.45-.19,.16-.41,.13-.62,.06-.78-.25-1.59-.32-2.4-.37-.35-.02-.66-.16-.93-.35-.58-.42-1.3-.67-1.67-1.35,.12-.09,.24-.18,.36-.27,.4-.15,.68,.13,.98,.3,.7,.39,1.42,.72,2.19,.91,.25,.06,.52,.15,.72-.1,.21-.27,.06-.52-.09-.76-.4-.64-.81-1.27-1.19-1.93-.11-.19-.24-.37-.26-.59,.16-.23,.33-.47,.49-.7,.24,.2,.2,.56,.46,.75,.47-.75,.3-1.61,.42-2.42,.13-.33,.25-.66,.38-.99,.27-.17,.58-.17,.87-.12,1.61,.3,2.92,1.09,3.88,2.43,0,.48,.18,.94,.12,1.43Z" fill="#4ed25b"/><path d="M32.47,6.85c-.24,.47-.54,.93-.68,1.45-.07,.27-.19,.28-.36,.1-.41-.43-.88-.81-1.23-1.29-.47-.63-.95-.61-1.39,.04-.31,.46-.46,1-.76,1.47-.48,.75-1.09,1.36-1.72,1.97-.15,.14-.34,.33-.41-.03-.24-1.29-.78-2.45-1.46-3.56,.03-.22,.19-.35,.35-.47,1.23-.91,2.53-1.71,3.66-2.76,.06-.05,.14-.08,.21-.1,.58-.15,1.05-.01,1.45,.45,.51,.6,1.23,.95,1.76,1.53,.31,.34,.6,.7,.58,1.2Z" fill="#fe94aa"/><path d="M38.98,39.35c.18-.76,.14-1.51-.02-2.26-.05-.15,.06-.22,.15-.28,1.28-.91,2.67-1.62,4.06-2.34,.21-.04,.39-.18,.72-.12-.4-.36-.77-.21-1.1-.27,.98-.37,1.96-.76,2.89-1.26,.72,.29,1.45,.56,2.18,.83,.14,.05,.35,.09,.33,.29-.01,.18-.2,.23-.35,.28-.43,.16-.89,.21-1.32,.35h-.59s0,.05,0,.07c.96,.22,1.91,.44,2.87,.66,.05,.3-.19,.37-.38,.46-.69,.32-1.27,.8-1.9,1.22-1.43,.81-2.92,1.52-4.31,2.4-.97,.09-1.94,0-2.9,.12-.12,.02-.23-.04-.32-.13Z" fill="#4ed25b"/><path d="M34.06,16c-.31,.03-.53-.17-.74-.34-.92-.79-1.76-1.65-2.36-2.72-.55-.98-1.4-1.11-2-.1-.77,1.3-2.09,1.84-3.41,2.36-1.52,.6-2.84,1.49-4.03,2.59-.06,.05-.13,.08-.2,.12,.17-.41,.42-.77,.73-1.09,.99-1.05,2.24-1.77,3.33-2.71,.77-.66,1.62-1.23,2.32-1.97,.54-.57,1.03-1.16,1.43-1.84,.42-.7,.55-.73,1.18-.19,.37,.32,.79,.62,.98,1.11,.04,.2,.04,.39,.04,.59,.01,.71,.53,.96,1.08,1.19,.73,.15,1.19,.51,1.12,1.34-.02,.27,.2,.37,.43,.41,.29,.05,.52,.18,.69,.43,.58,.84,1.14,1.69,1.61,2.59,.08,.15,.2,.31,.06,.5-.62-.48-1.09-1.12-1.74-1.57-.12-.08-.17-.21-.18-.36,.04-.27-.17-.29-.35-.34Z" fill="#feafc3"/><path d="M49.26,23.67c-.73-.82-.65-1.92,.23-2.54,.31-.21,.44-.45,.54-.8,.27-.98,.64-1.92,1.07-2.83,.1-.21,.25-.41,.22-.67,.35-.45,.85-.68,1.49-1.04-.68,1.26-1.22,2.4-1.49,3.63-.38,1.78-.7,3.57-1.09,5.34-.67,3.08-2.38,5.42-5.15,6.96-.19,.1-.4,.16-.6,.24-.1-.33,.19-.45,.35-.64,.74-.84,1.66-1.49,2.38-2.36,1.14-1.38,1.76-2.98,2.18-4.68,.05-.22,.06-.44-.11-.62Z" fill="#fefefe"/><path d="M40.64,16.82c-.72-1.19-1.54-2.32-2.31-3.47-.52-.79-1.11-1.56-1.28-2.53,.19-.15,.55,.03,.63-.32,.06-.26-.05-.46-.23-.63-.32-.32-.56-.09-.79,.13-.5-1.08-.68-2.23-.82-3.39-.07-.55-.15-1.1-.12-1.66,.04-.04,.07-.08,.11-.12,.15,.09,.2,.25,.23,.4,.49,2.23,1.63,4.16,2.9,6.01,1.24,1.8,2.16,3.72,2.71,5.84,.12,.47,.21,.94,.29,1.41,.04,.22,.07,.44-.11,.62-.16-.35-.34-.69-.48-1.05-.08-.18-.16-.26-.34-.14-.19-.34-.34-.7-.37-1.09Z" fill="#feafc3"/><path d="M41.85,19.11c-.04-1.49-.57-2.87-1.05-4.25-.49-1.41-1.37-2.59-2.16-3.83-.98-1.52-1.91-3.07-2.46-4.81-.14-.45-.23-.92-.34-1.38,.2-.16,.39-.32,.66-.54,.14,.86,.33,1.64,.63,2.38,.62,1.53,1.61,2.83,2.48,4.21,1.18,1.88,2.12,3.84,2.56,6.04,.34,1.72,.31,3.43,.03,5.14-.2-.75-.03-1.52-.2-2.27-.05-.23-.02-.47-.14-.69Z" fill="#fefafb"/><path d="M44.84,22.22c-.27,1.34-1.03,2.43-1.86,3.48-.39,.49-.78,1-1.37,1.44,1.88-3.59,2.58-7.25,1.56-11.14,.32-.15,.43,.12,.57,.29,.77,.89,1.29,1.92,1.58,3.05,.1,1.01-.16,1.95-.49,2.89Z" fill="#fe94aa"/><path d="M45.19,19.23c-.41-1.07-.86-2.12-1.65-2.98-.11-.12-.19-.25-.37-.26-.2-1.07-.65-2.07-.98-3.1-.18-.98,0-1.97-.05-2.95-.02-.27-.03-.56,.1-.82,.4-.18,.32,.21,.44,.36,.35,1.17,.89,2.26,1.38,3.37,.8,1.82,1.43,3.68,1.31,5.71-.01,.23,.04,.49-.17,.67Z" fill="#feafc3"/><path d="M32.37,13.12c-1.08-.37-1.23-.63-1.19-1.92,.12-.26-.09-.4-.23-.56-.39-.45-.87-.8-1.32-1.18-.15-.12-.34-.21-.39-.43,.08-.16,.16-.32,.23-.48,.09-.21,.2-.22,.35-.06,2.62,2.67,5.42,5.2,7.21,8.54,1.15,2.14,1.41,4.48,1.05,6.88-.01,.07-.07,.14-.1,.21-.36-.08-.23-.38-.21-.58,.28-3.43-.91-6.34-3.09-8.91-.1-.12-.23-.23-.32-.36-.48-.72-1.1-1.19-2.01-1.17Z" fill="#fefefe"/><path d="M37.78,33.36c.28-.32,.7-.26,1.05-.34,3.55-.81,6.23-2.86,8.25-5.83,.24-.36,.43-.76,.64-1.14,.27-.15,.5-.38,.84-.35h0c.19,.29,0,.54-.12,.78-.92,1.91-2.1,3.62-3.74,4.99-.39,.32-.84,.54-1.26,.8-.55,.29-1.14,.53-1.71,.76-1.02,.4-2.1,.34-3.17,.34-.26,0-.52,0-.78,0Z" fill="#feafc3"/><path d="M24.22,12.52c-.62-1.96-1.47-3.81-2.72-5.46-.45-.58-.88-1.18-1.47-1.63-.12-.25-.36-.34-.58-.47-.02-.18-.04-.35-.07-.58,.82,.12,1.44,.58,2.01,1.07,1.72,1.48,2.93,3.28,3.39,5.54,.14,.66,.09,1.2-.56,1.54Z" fill="#fed8e4"/><path d="M42.33,9.03c-.06,1.28,.11,2.58-.14,3.85-.87-1.34-1.58-2.78-2.51-4.09-.12-.17-.06-.3,.05-.47,.62-.89,1.38-1.61,2.23-2.27,.08,.07,.13,.16,.13,.26,0,.81,.13,1.61,.32,2.4,.03,.12,0,.24-.09,.33Z" fill="#fe94aa"/><path d="M55.64,28.78c-1.28-1.31-2.7-2.32-4.64-2.27,.04-.09,.07-.19,.11-.28,2.1-.22,3.91,.27,5.13,2.14,.87,1.33,2.07,1.74,3.6,1.45,1.48-.27,2.45,.32,2.96,1.73,.05,.15,.09,.3,.15,.45q.24,.65-.48,.63c-.28-.1-.45-.3-.58-.56-.14-.28-.27-.58-.45-.84-.58-.87-.85-.98-1.88-.76-.2,.04-.39,.06-.59,.06-1.08-.13-2.09-.41-2.91-1.19-.18-.17-.34-.33-.42-.56Z" fill="#f9f5fa"/><path d="M29.25,9.04c.71,.45,1.33,1,1.92,1.61,.18,.19,.37,.36,.02,.56-.37-.45-.78-.84-1.24-1.2-.28-.23-.37-.15-.52,.11-.94,1.61-2.27,2.81-3.74,3.95-1.14,.89-2.39,1.65-3.39,2.71-.06,.07-.13,.17-.24,.05,1.43-1.94,3.12-3.61,4.96-5.15,.89-.75,1.57-1.68,2.23-2.63Z" fill="#fed8e4"/><path d="M42.33,9.03c-.25-.98-.46-1.96-.36-2.98,.27-.19,.53-.42,.86-.52,.03,.03,.07,.06,.07,.08-.2,2.55,.72,4.83,1.73,7.08,.51,1.12,.96,2.25,1.17,3.47,.3,1.75,.05,3.43-.51,5.09-.3-.13-.13-.36-.11-.54,.12-1.34,.3-2.68,.1-4.03-.19-1.29-.64-2.5-1.17-3.68-.52-1.16-1.09-2.29-1.56-3.47-.08-.16-.15-.33-.23-.49Z" fill="#fefdfd"/><path d="M32.37,13.12c1.02-.25,1.54,.36,2.14,1.06,.91,1.07,1.73,2.18,2.33,3.44,.81,1.7,1.19,3.49,1.17,5.37,0,.38-.32,.76-.02,1.15,.06,.42-.21,.78-.25,1.18-.19-.18-.1-.42-.09-.62,.09-1.84-.29-3.61-.8-5.37-.11-.39-.29-.73-.53-1.06-.49-1.12-1.21-2.09-1.87-3.11-.14-.21-.34-.24-.57-.24-.33,0-.6-.2-.54-.5,.17-.84-.31-1.12-.97-1.29Z" fill="#fed9e4"/><path d="M49.24,29.87c.69,.83,1.1,1.84,1.76,2.69,.18,.23,.07,.5-.07,.73-.17,.28-.46,.23-.7,.17-.82-.18-1.59-.51-2.32-.93-.33-.19-.64-.4-1.02-.49,.86-.65,1.61-1.41,2.35-2.17Z" fill="#78e97f"/><path d="M13.8,26.53c.03-.6-.3-1.1-.44-1.65-.26-1.05-.32-2.1-.29-3.17,0-.12,.01-.24,.11-.32,.27,1.14,.53,2.27,1.01,3.35,.95,2.17,2.44,3.88,4.31,5.3,.05,.03,.09,.08,.14,.13-1.26-.24-3.62-2.08-4.84-3.63Z" fill="#fe94aa"/><path d="M14.28,14.32c.03-1.16,.21-2.31-.12-3.47-.31-1.1-.81-2.1-1.32-3.11-.03-.07-.09-.07-.14-.02-.17-.26-.12-.58-.22-.85,.28-.08,.45,.11,.63,.27,1.22,1.09,1.95,2.5,2.54,4,.07,.18,.01,.35,.05,.53-.47,.89-.95,1.77-1.42,2.66Z" fill="#fe95ab"/><path d="M46.51,34.56c.46-.38,1.08-.35,1.65-.65-.65-.24-1.24-.44-1.82-.67-.25-.1-.55-.13-.67-.43,.28-.17,.57-.33,.85-.5,.3,.22,.62,.43,.91,.67,.79,.67,1.72,.97,2.73,.97,.7,0,1.3,.37,1.98,.37-.27,.29-.2,.88-.58,.97-.31,.08-.7-.22-1.07-.28-1.32-.24-2.64-.47-3.98-.45Z" fill="#30a842"/><path d="M32.47,6.85c-.27-.73-.75-1.29-1.4-1.72-.29-.2-.6-.42-.82-.69-.43-.52-.93-.77-1.6-.68-.2,0-.34-.09-.45-.25-.12-.19-.16-.39-.04-.6,.25-.38,.5-.76,.81-1.23,.77,1.44,2.16,2.21,3.23,3.3,.62,.63,.69,1.22,.26,1.86Z" fill="#fefafb"/><path d="M15.71,11.66c-.47-1.22-.99-2.42-1.8-3.46-.4-.52-.83-1.01-1.42-1.33,.02-.15-.2-.3-.04-.43,.13-.1,.3-.01,.45,.04,1.34,.45,2.09,1.51,2.78,2.64,.26,.43,.46,.89,.57,1.36,.12,.49-.35,.79-.55,1.18Z" fill="#fed8e4"/><path d="M35.02,3.91c-.32,.29-.66,.57-.96,.88-.21,.22-.35,.27-.51-.04-.38-.73-1.02-1.19-1.66-1.67-.34-.25-.46-.47,.01-.73,.33-.18,.62-.42,.93-.63,.92,.53,1.67,1.24,2.19,2.18Z" fill="#fe96ac"/><path d="M25.3,3.64c-.65,.54-1.35,1.03-1.83,1.74-.12,.17-.23,.12-.33,0-.31-.39-.8-.58-1.08-1-.09-.21,.06-.34,.18-.46,.4-.42,.81-.82,1.22-1.22,.26-.26,.56-.32,.85-.08,.36,.31,.89,.45,.99,1.02Z" fill="#fe95ab"/><path d="M43.4,32.17c.36-.24,.75-.45,1.09-.72,1.92-1.52,3.22-3.48,4.07-5.75,.38-.63,.5-1.34,.71-2.03,.24,.09,.39,.17,.31,.51-.51,2.28-1.48,4.3-3.2,5.91-.65,.61-1.36,1.15-1.89,1.87-.36,.27-.77,.44-1.2,.57-.08-.16,.03-.26,.12-.36Z" fill="#fed8e4"/><path d="M42.56,9.52c1.12,2.15,2.28,4.29,2.84,6.67,.29,1.24,.05,2.49-.02,3.73-.02,.44-.25,.87-.09,1.32-.14,.33-.21,.69-.46,.97,.14-.99,.41-1.97,.35-2.99,.25-2.64-.66-5-1.73-7.33-.35-.77-.78-1.52-.91-2.38Z" fill="#fed7e3"/><path d="M29.15,36.85c-.08-1.33,.04-2.65,.23-3.97,.26-.03,.48,.1,.72,.15,0,1.12-.01,2.23-.02,3.35-.22,.33-.51,.55-.94,.47Z" fill="#36a942"/><path d="M25.3,3.64s-.06-.11-.1-.14c-1.56-1.19-1.07-1.25-2.38,.06-.26,.26-.5,.55-.75,.83-.27-.12-.2-.29-.07-.48,.5-.71,1.16-1.31,1.57-2.08,.13-.24,.26-.07,.39,0,.6,.31,1.19,.63,1.8,.91,.5,.23,.43,.41,.01,.64-.16,.08-.31,.18-.46,.27Z" fill="#fed7e3"/><path d="M28.17,2.91c.04,.2,.09,.41,.13,.61-.04,.39-.38,.54-.63,.73-1.06,.81-2.22,1.47-3.12,2.48-.05,.06-.14,.07-.22,.03-.35-.27-.05-.46,.1-.63,.6-.7,1.28-1.31,2.06-1.81,.62-.4,1.2-.85,1.67-1.42Z" fill="#fed7e3"/><path d="M24.33,6.77c.83-1,1.93-1.67,2.96-2.43,.35-.26,.67-.55,1-.82,.12,.08,.24,.16,.36,.24-1.25,1.28-2.84,2.1-4.2,3.24-.04-.08-.09-.15-.13-.23Z" fill="#feb0c4"/><path d="M50.01,16.18c-1.17,.99-2.07,2.18-2.98,3.52-.03-1.09,.14-1.93,1.09-2.48,.62-.36,1.18-.84,1.89-1.03Z" fill="#fe94aa"/><path d="M50.62,27.5c.27,.98,.03,1.89-.41,2.89-.16-.48-.57-.74-.48-1.22,.29-.56,.59-1.11,.88-1.67Z" fill="#32a842"/><path d="M35.02,3.91c-.39-.14-.43-.58-.72-.82-.51-.43-.98-.9-1.47-1.36,.15-.17,.28-.42,.55-.12,.55,.6,1.2,1.08,1.73,1.7,.25,.29,.15,.44-.1,.6Z" fill="#fef6f7"/><path d="M43.4,32.17c-.04,.12-.08,.24-.12,.36-.48,.29-1.02,.38-1.56,.5,.54-.33,1.07-.66,1.68-.86Z" fill="#fed7e3"/><path d="M51.1,26.23c.11-.42,.23-.83,.34-1.25,.9-.04,1.78,.05,2.65,.29,1.35,.38,2.35,1.24,3.11,2.37,.61,.91,1.38,1.17,2.45,.99,2.02-.34,3.7,.54,4.26,2.53,.26,.94,.83,1.59,1.69,2.04,.83,.43,1.5,1.01,1.67,2.03,.15,.9-.12,1.69-.7,2.31-.72,.77-.76,1.59-.57,2.53,.33,1.66-.47,3.22-1.84,3.65-.68,.21-1.39,.15-2.07,0-.7-.15-1.22,.01-1.56,.64-.61,1.12-1.53,1.62-2.81,1.48-.43-.05-.88,.02-1.32-.01-.44-.03-.6,.06-.44,.54,.16,.48,.39,.9,.7,1.29,1.1,1.39,1.31,4.36-.77,5.73-2.32,1.52-4.78,2.17-7.49,1.2-.06-.02-.11-.04-.16-.07-.32-.16-.7-.52-.94-.44-.38,.13-.67,.54-.98,.85-3.93,3.94-6.62,8.58-7.89,14.02-.13,.54-.17,1.03,.07,1.54,.29,.6,.35,1.29,.67,1.89-.02,.2-.2,.24-.34,.29-.6,.22-1.15,.53-1.7,.85-.16,.1-.37,.31-.56,.01-.22-.81,.1-1.61,.06-2.42,.51-3.49,1.59-6.79,3.26-9.89,1.08-2.01,2.41-3.85,3.86-5.61,.6-.57,1.06-1.28,1.43-1.57-4.36,4.07-7.63,9.21-9.14,15.4-.38,1.48-.71,2.98-.76,4.51,0,.14-.03,.28-.11,.4-.56,.25-.99-.05-1.42-.34-.18-.43,.04-.85,.03-1.28,.14-.66,.22-1.34,.36-2,.07-.33,0-.62-.15-.92-.39-.81-.84-1.58-1.21-2.26,.67,1.79,.78,3.08,.42,5.03-.13,.4-.07,.88-.49,1.15-.42,.09-.82,.02-1.2-.17-.14-.21-.08-.42-.01-.63,.27-.88,.39-1.77,.35-2.69-.04-.77-.28-1.5-.48-2.24-.44-1.25-1.03-2.45-1.54-3.67-1.06-2.63-.98-5.29-.33-7.99,.47-1.94,.92-3.89,1.07-5.89,.11-1.49,.22-2.97,.12-4.48-.12-1.85-.22-3.7-.39-5.55-.03-.38-.13-.75-.17-1.12-.29-.97-.2-1.97-.22-2.96-.01-.84,0-1.67,0-2.51,0-.28-.03-.56,.19-.79,.42,.09,.85,.18,1.27,.27,.12,.2,.1,.43,.09,.64-.16,2.56,.24,5.09,.51,7.63,.44,4.06,.54,8.12-.29,12.15-.02,.11-.09,.23,.03,.38,2.62-1.51,5.51-2.51,7.99-4.29,1.84-1.32,3.43-2.9,5.05-4.57-.39-.13-.71-.07-1.01-.08-1.3-.02-2.04-.64-2.28-1.92-.07-.35-.13-.71-.2-1.06-.1-.47-.39-.67-.87-.61-.4,.05-.79,.13-1.19,.09-1.13-.09-1.78-.86-1.65-1.98,.12-.99,.06-1.94-.34-2.88-.22-.53-.4-1.09-.49-1.66-.04-.23-.11-.48,.1-.67,1.91,.15,3.81,.25,5.67-.38,.09-.03,.2-.02,.3-.03,.2-.06,.42-.08,.63-.1,.19-.01,.38,.05,.43,.23,.07,.24-.18,.25-.32,.32-.09,.04-.19,.05-.28,.07-1.52,.07-2.89,.72-4.33,1.09-.29,.08-.3,.28-.21,.52,.13,.31,.25,.63,.39,.94,.24,.73,.2,1.47,.05,2.2,0,.8,.05,.85,.8,.75,.08-.01,.16-.02,.24-.03,1.61-.16,2.34,.39,2.63,1.98,.06,.31,.09,.63,.18,.94,.08,.27,.2,.53,.51,.62,1.09,.13,2.08-.09,3.03-.66,1.35-.79,2.78-1.31,4.39-1.06,.3,.05,.43-.08,.49-.37,.11-.55,.07-1.11,.08-1.67,0-.79,.04-1.59-.11-2.38-.08-.45-.31-.58-.75-.54-1.13,.12-2.22,.43-3.31,.73-1.6,.48-3.12,1.14-4.6,1.91-.29,.13-.56,.28-.83,.44-.17,.1-.4,.25-.52,.04-.11-.19,.12-.34,.28-.46,.16-.12,.32-.22,.49-.33,1.39-.93,2.89-1.66,4.38-2.41,1.13-.5,2.25-1,3.35-1.08-.34,.05-.75-.24-1.2-.33-.67-.19-1.34-.35-2.02-.46-.16-.03-.31-.04-.46-.1-.14-.05-.36-.07-.35-.25,0-.2,.22-.19,.37-.22,.1-.02,.2-.02,.3-.02,1.57,.01,3.12,.2,4.64,.6,.34,.09,.53,.02,.65-.3,.05-.13,.12-.25,.2-.36,1.04-1.61,2.27-3.04,3.85-4.16,.13-.08,.29-.18,.4-.02,.1,.14-.05,.28-.13,.4-.06,.07-.12,.13-.18,.19-1.2,1.17-2.1,2.54-2.78,4.06-.29,.64-.24,.71,.48,.81,.67,.09,1.33,.22,1.99,.39,.17,.04,.4,.11,.38,.31-.02,.22-.27,.2-.44,.2-.51,.02-1.02,.01-1.57,0,1.03,.67,1.96,1.4,2.88,2.15,.87,.71,1.66,1.49,2.44,2.29,.1,.1,.2,.19,.29,.31,.08,.11,.22,.24,.1,.36-.14,.16-.3,.03-.42-.07-.27-.23-.55-.46-.83-.68-1.21-.98-2.45-1.92-3.84-2.64-.45-.29-.94-.52-1.42-.77-.31-.16-.52-.11-.49,.27,.07,.99-.19,1.93-.37,2.88-.04,.31-.17,.6-.28,.89-.17,.45-.06,.71,.42,.8,.65,.26,1.26,.57,1.8,1.01,.19,.15,.39,.28,.56,.45,.33,.55,.81,.76,1.45,.69,.41-.04,.83,0,1.24,0,.53,0,1.1,.13,1.49-.39,.19-.18,.34-.38,.48-.6,.5-.8,1.21-1.22,2.17-1.17,.55,0,1.09,.21,1.65,.05,1.12-.32,1.54-.98,1.33-2.13-.02-.14-.05-.27-.06-.41,.04-.47-.22-.71-.63-.89-2.09-.86-4.24-1.49-6.48-1.8-.31-.04-.83,0-.81-.37,.02-.3,.54-.17,.84-.2,.7-.07,1.38,.17,2.08,.12,1.66,.3,3.35,.45,4.94,1.06,.06,0,.14,.04,.17,0,.47-.57,1.04-1.09,1.24-1.84,.13-.5-.09-.88-.47-1.19-.23-.19-.49-.34-.75-.47-1.03-.77-2.24-.62-3.39-.55-1.42,.08-2.84,.25-4.24,.55-.23,.05-.46,.13-.69,.2-.26,.03-.63,.26-.74-.06-.12-.35,.32-.38,.56-.47,2.02-.7,4.08-1.22,6.21-1.43,.35,.02,.52-.06,.39-.48-.51-1.68-1.38-2.26-3.13-2-1.43,.21-2.61-.18-3.43-1.41-1.07-1.62-2.59-2.29-4.48-2.26-.22,0-.44,.03-.64-.11Zm-14.99,38.54c.93-2.15,1.94-4.25,3.32-6.16,1.63-2.26,3.49-4.3,5.5-6.22,.13-.13,.39-.19,.31-.5-.13-.47-.2-.95-.31-1.44q-4.34,3.31-9.58,5.71c-1.66,.76-3.17,1.73-4.44,3.05-.27,.28-.25,.39,.07,.6,1.25,.8,2.33,1.8,3.28,2.94,.61,.73,1.14,1.51,1.67,2.27,.18-.04,.15-.17,.18-.25Z" fill="#00983e"/><path d="M48.92,48.24c-1.56-.73-2.2-2.22-1.64-3.78,.1-.27,.3-.41,.52-.55,1.33-.88,3.36-.91,4.49-.08,.43,.38,.92,.68,1.28,1.14,.29,.36,.63,.72,.52,1.25-.03,.02-.07,.05-.11,.05-.31,0-.66-.05-.78,.36-.1,.37,.07,.66,.32,.9,.28,.27,.57,.21,.86,.02,.07-.04,.14-.07,.22-.07,1.25,.77,1.69,2.28,1.02,3.52-.87,1.69-4.72,1.41-5.43-.55-.3-.81-.73-1.54-1.28-2.2,.06-.06,.13-.08,.21-.08,.37,.04,.7,.04,.7-.46,0-.46-.43-.96-.81-.95-.37,0-.56,.32-.44,.71,.09,.28,.41,.44,.35,.78Z" fill="#4ed25b"/><path d="M54.67,43.8c-.16-.12-.32-.25-.48-.37-.04-.29,.2-.37,.38-.47,.82-.45,1.66-.52,2.53-.15,.4,.17,.83,.4,1.21-.01,.27-.29,.18-.8-.27-1.29-.94-1.04-1.94-2.02-3.33-2.46-.87-.27-1.03-.15-1.24,.71-.23,.95-.55,1.87-1.07,2.7-.56-.1-.85-.32-.52-.93,.14-.25,.19-.56,.27-.84,.3-.62,.64-1.22,.81-1.9,.18-.73,.38-.86,1.13-.77,.2,.02,.38,.08,.57,.15,1.19,.53,2.2,1.33,3.23,2.11,.57,.43,1.12,.91,1.52,1.23-.77-.81-1.68-1.77-2.59-2.73-.32-.3-.58-.65-.88-.98-.12-.13-.29-.27-.17-.46,.11-.17,.32-.15,.5-.11,1.22,.23,2.42,.51,3.55,1.02,1.39,.63,2.66,1.44,3.83,2.42,.12,.1,.24,.21,.29,.37-.03,.39-.34,.52-.63,.61-.43,.14-.86,.29-1.3,.4-1.72-.53-2.68,.17-2.9,2.11-.36,.7-1.01,.43-1.56,.47-.3-.1-.6-.2-.87-.36-.62-.37-1.3-.46-2.01-.46Z" fill="#4ed25b"/><path d="M58.97,30.39c.25-.04,.53-.03,.76-.13,.69-.3,1.14,.02,1.56,.5,.49,.56,.64,1.33,1.17,1.87-2.34,.25-4.6,.82-6.78,1.75,.22-.02,.44-.04,.66-.06,.51-.12,1.02-.16,1.54-.17,2.35-.04,4.7-.09,7.02,.47,.33,.04,.39,.3,.44,.55,.08,.36,.03,.72-.13,1.04-.27,.55-.47,1.12-.62,1.72-1.61-.61-3.33-.77-5-1.09-1.74-.49-3.47-1.02-5.18-1.6-.46-.16-.53-.45-.38-.83,.52-1.31,.95-2.67,1.85-3.79,.04-.04,.08-.08,.12-.12,.51-.04,.97,.31,1.49,.19,.49-.12,.99-.22,1.5-.29Z" fill="#4ed25b"/><path d="M29.15,36.85c.31-.16,.63-.31,.94-.47,.05,.96-.1,1.94,.24,2.88,.06,1.07-.07,2.13,.07,3.2,.2,1.5,.31,3.01,.22,4.53-.11,2.01-.21,4.02-.59,6-.26,1.37-.56,2.73-.89,4.09-.59,2.49-.23,4.86,.76,7.17,.03,.07,.06,.15,.14,.17,.49,1.16,.98,2.32,1.47,3.48-.06,.11-.06,.23-.01,.34,.28,.67,.14,1.36,.09,2.04-.27,.41-.73,.43-1.14,.55-.24,.07-.29-.14-.35-.31,.07-2.12-.53-4.12-1.15-6.11-.55-1.78-.93-3.58-.77-5.45,.12-1.4,.5-2.76,.75-4.14,.32-1.75,.68-3.49,.82-5.27,.12-1.58,.13-3.15,.06-4.71-.07-1.72-.26-3.43-.53-5.14-.15-.94-.23-1.9-.15-2.85Z" fill="#4ed25b"/><path d="M55.86,30.61c-.62,1.24-1.2,2.5-1.69,3.8-.15,.4-.09,.55,.35,.71,1.67,.63,3.45,.91,5.06,1.72-.95,.01-1.89-.23-2.86-.02,.71,.13,1.42,.25,2.13,.38,1.86,.34,3.63,.96,5.38,1.66,.51,.21,.54,.56,.49,1.01-.11,.5-.17,1.03-.79,1.2-1.58-1.27-3.23-2.44-5.18-3.07-.84-.27-1.72-.45-2.58-.66-.1-.02-.23-.06-.35,.08,.35,.43,.82,.79,1.01,1.34-.72-.39-1.27-1-1.95-1.43-.41-.26-.8-.57-1.31-.93h2.38c-.32-.35-.66-.33-.96-.39-.68-.14-1.36-.26-2.04-.36-.23-.04-.32-.07-.22-.33,.73-1.78,1.67-3.42,3.13-4.71Z" fill="#36a942"/><path d="M42.66,39.47c1.44-.84,2.96-1.48,4.57-1.9,.89-.03,1.77-.2,2.67-.19,.49,0,.83,.16,.98,.6,.23,.64,.6,1.21,.77,1.87,.03,.65,0,1.3-.1,1.95-.04,.27-.16,.36-.39,.31-1.73-.4-3.25,.19-4.68,1.05-.97,.59-2,.69-3.08,.62-.26-.51-.33-1.07-.26-1.61,.12-.89,.15-1.73-.47-2.47-.05-.06-.05-.15-.02-.23Z" fill="#4ed25b"/><path d="M52.4,42.46c.15-.68,.47-1.3,.7-1.96,.11-.3,.22-.59,.25-.92,.08-.8,.35-.97,1.15-.78,1.1,.26,1.95,.95,2.77,1.68,.38,.34,.76,.69,1.05,1.13,.29,.43,.48,.86,.13,1.31-.37,.48-.84,.3-1.3,.09-1.06-.49-2.15-.34-2.98,.42-.57-.37-1.15-.73-1.79-.97Z" fill="#78e97f"/><path d="M30.04,64.42c-.21,0-.24-.18-.3-.32-.65-1.43-1.12-2.92-1.11-4.49,0-1.21,.27-2.41,.57-3.59,1.07-4.19,1.42-8.45,1.12-12.75-.08-1.15-.22-2.29-.11-3.44,.02-.19-.07-.4,.12-.56,.28,2.19,.43,4.4,.54,6.6,.15,3.01-.18,5.96-.82,8.88-.35,1.59-.73,3.17-.87,4.79-.13,1.49,.24,2.91,.67,4.32,.06,.19,.13,.37,.2,.56Z" fill="#f9f7fc"/><path d="M44.25,48.35c.25,.5,.18,.91-.27,1.29-1.94,1.64-4,3.09-6.31,4.15-.92,.42-1.87,.8-2.79,1.22-1.48,.68-2.9,1.48-4.15,2.69,.04-1.01,.33-1.74,1.29-2.04,.17-.05,.36,.03,.52-.07,1.19-.75,2.57-1.14,3.73-1.94,.38-.3,.85-.43,1.28-.62,1.14-.49,2.11-1.24,3.14-1.91,1.01-.6,1.9-1.37,2.77-2.14,.25-.22,.46-.49,.78-.63Z" fill="#36aa42"/><path d="M48.34,52.79c-1.4,.06-2.1-1.26-1.79-2.58,.02-.08,.05-.15,.08-.23,.19-.43,.3-1.11,.75-1.14,.51-.04,.9,.52,1.17,.98,.43,.73,.63,1.59,1.22,2.24,.2,.22-.06,.36-.22,.45-.39,.22-.81,.32-1.22,.27Z" fill="#36a942"/><path d="M35.35,66.89c-.15,.47-.3,.94-.49,1.5-.81-1.44-1.63-2.75-2.6-3.96-.19-.23-.36-.51-.6-.66-1.07-.62-.98-1.72-1.24-2.77,.46,.14,.73,.42,1.01,.67,.6,.92,1.41,1.66,2.09,2.52,.55,.7,1.09,1.42,1.61,2.15,.12,.17,.18,.35,.23,.54Z" fill="#37ac44"/><path d="M35.96,69.32c.27-1.5,.81-2.91,1.39-4.3,1.26-3.04,2.89-5.84,5.13-8.28,.9-.98,1.76-2.01,2.73-2.93,.17-.16,.31-.39,.65-.26-.65,.71-1.29,1.41-1.93,2.1-.62,.4-.98,1.04-1.44,1.58-2.26,2.63-3.74,5.7-4.93,8.91-.47,1.27-.76,2.6-.74,3.98,0,.19,.05,.41-.13,.56-.64-.1-.83-.48-.72-1.36Z" fill="#4ed25b"/><path d="M36.67,70.65c-.2-3.06,1.15-5.68,2.35-8.34,1.07-2.37,2.63-4.4,4.37-6.31,.14-.15,.26-.37,.53-.34-2.46,2.95-4.46,6.17-5.73,9.81-.57,1.64-1.03,3.32-1.27,5.05-.02,.15-.09,.29-.14,.44-.28-.01-.16-.17-.11-.31Z" fill="#fcfdfc"/><path d="M42.66,39.47c.8,.75,.82,1.66,.66,2.67-.08,.53,.05,1.09,.09,1.64-.65-.29-.63-.92-.72-1.46-.08-.49-.21-.96-.43-1.41-.21-.42-.57-.63-.98-.69-.41-.06-.84-.06-1.25,0-1.08,.17-1.1,.17-1.06-.88,.94-.13,1.89-.15,2.84-.11,.14,0,.28-.02,.38,.12-.26,.2-.52,.4-.91,.7,.62-.1,.92-.52,1.37-.59Z" fill="#36a942"/><path d="M64.98,34.69c-.54,.25-1.05-.06-1.54-.15-1.15-.21-2.29-.21-3.45-.21-1.22,0-2.43,0-3.65,0,.8-.39,1.68-.45,2.52-.56,1.21-.16,2.43-.3,3.67-.27,.84,.02,1.65,.1,2.32,.69,0,.18,.24,.31,.12,.52Z" fill="#36aa42"/><path d="M36.67,70.65c.04,.1,.08,.21,.11,.31,.11,.9-.19,1.78-.1,2.68-.28,.22-.56,.43-.83,.66-.23,.2-.47,.29-.74,.07,0-1.73,.3-3.4,.84-5.04,.1,.52,.06,1.11,.71,1.32Z" fill="#36a942"/><path d="M30.11,70.53c.14,.25,.33,.21,.55,.12,.29-.12,.58-.21,.88-.32,.11-.2,.28-.23,.48-.15,.11,1.15-.19,2.25-.49,3.34-.59-.18-1.19-.08-1.78-.11,.28-.94,.41-1.89,.37-2.87Z" fill="#36a942"/><path d="M43.17,34.46c-.37,.36-.8,.64-1.27,.85-1.05,.48-1.99,1.14-2.94,1.77-.02-.01-.04-.02-.04-.04-.71-1.27-.71-1.35,.66-1.73,1.19-.33,2.32-.9,3.6-.86Z" fill="#36a942"/><path d="M51.66,39.85c-.35-.5-.67-1.02-.83-1.62-.13-.48-.38-.74-.97-.69-.66,.06-1.34,.09-2,.14-.2,.01-.44,.08-.62-.11,1.18-.49,2.41-.69,3.67-.85,.51-.06,.58,.25,.65,.63,.14,.83,.13,1.66,.11,2.49Z" fill="#35a942"/><path d="M40.75,51.23c-1.35,1.05-2.84,1.87-4.42,2.52-.47,.29-1,.44-1.5,.66-.18,.08-.38,.11-.54-.06,.93-.47,1.86-.98,2.81-1.41,2.38-1.09,4.44-2.62,6.33-4.42,.22-.21,.41-.45,.66-.61,.28-.18,.11,.1,.13,.18-.28,.55-.8,.88-1.22,1.28-.71,.67-1.45,1.3-2.24,1.87Z" fill="#f6f5fa"/><path d="M63.93,41.07c.42-.3,.56-.77,.79-1.2,.6,1.99-.72,2.94-2.55,2.64-.18-.03-.36-.03-.54-.04-.08-.3,.03-.47,.34-.51,.41-.26,.89-.33,1.33-.47,.24-.08,.48-.19,.63-.42Z" fill="#f8f4f9"/><path d="M55.63,50.98c.56-1.44-.09-2.51-1.06-3.49-.2-.42-.39-.85-.51-1.3-.2-.8-.69-1.39-1.37-1.83-.21-.13-.37-.28-.41-.54,1.32,.39,2.06,1.35,2.46,2.59,.24,.75,.52,1.43,1.02,2.05,.6,.75,.51,1.86-.13,2.51Z" fill="#fafdfb"/><path d="M64.98,34.69c-.05-.17-.27-.3-.12-.52,.25,.16,.52,.3,.74,.49,.56,.47,.65,.97,.35,1.64-.29,.64-.87,1.07-1.16,1.71,0,0-.13-.05-.2-.07-.17-.6,.15-1.07,.38-1.57,.25-.56,.39-1.11,.01-1.67Z" fill="#f8f4f9"/><path d="M61.97,41.97c-.13,.16-.31,.28-.34,.51-.91-.05-1.56,.34-2.03,1.11-.13,.21-.24,.47-.5,.58-.31-.8,.37-2.04,1.31-2.38,.55-.2,1.07-.16,1.55,.19Z" fill="#36aa42"/><path d="M54.67,38.15c-.43,.01-.94-.11-1.29,.07-.36,.19-.25,.79-.43,1.18-.21,.46-.34,.98-.8,1.28,.16-1.1,.47-2.17,.36-3.3-.03-.3,.16-.34,.39-.22,.6,.31,1.24,.54,1.77,.98Z" fill="#35a942"/><path d="M58.97,30.39c-.98,.42-1.97,.76-2.99,.1,0-.12,.23-.16,.13-.31-.01-.02-.16,.05-.24,.07-.25-.47-.27-.97-.23-1.48,.93,.91,2,1.54,3.34,1.62Z" fill="#36aa43"/><path d="M53.02,53.4c-1.34,.52-2.66,.62-4.01,.06,.27-.09,.59-.11,.77-.28,.6-.56,1.19-.41,1.83-.12,.44,.2,.95,.19,1.41,.34Z" fill="#35a942"/><path d="M35.35,66.89c-1.16-1.58-2.32-3.16-3.7-4.56-.17-.18-.26-.4-.23-.65,1.68,1.27,2.85,2.97,3.92,4.75,.09,.16,.04,.31,0,.46Z" fill="#f6f5fa"/><path d="M45.89,46.33c.2,.71,.37,1.36,.86,1.85,.09,.09,.06,.18-.02,.26-.35,.31-.51,.74-.67,1.19-.64-.81-.7-1.99-.17-3.29Z" fill="#36a942"/><path d="M34.29,54.34c.73-.04,1.34-.47,2.04-.6-.37,.42-.9,.57-1.38,.8-.79,.37-1.59,.73-2.34,1.18-.22,.13-.43,.23-.6-.06,.66-.6,1.45-.99,2.27-1.32Z" fill="#4ed15b"/><path d="M54.67,43.8c.67-.34,1.27-.02,1.86,.22,.36,.15,.68,.4,1.02,.6-.44,0-.88-.04-1.31,.02-.75,.1-1.26-.16-1.57-.84Z" fill="#36aa42"/><path d="M46.52,36.97c.42-.52,.95-.89,1.54-1.2,.26-.13,.58-.18,.74-.48,.44,.16,.88,.31,1.33,.47-1.27,.24-2.42,.77-3.6,1.2Z" fill="#35aa42"/><path d="M40.75,51.23c1.15-1.05,2.31-2.1,3.46-3.14,.01,.09,.02,.18,.03,.27-.68,.87-1.55,1.51-2.42,2.16-.34,.26-.63,.61-1.07,.71Z" fill="#53d15f"/><path d="M33.08,72.56c.25,.24,.57,.08,.85,.12,.05,.44-.06,.87-.14,1.3-.35-.11-.7-.23-1.05-.34,.12-.36,.23-.72,.35-1.08Z" opacity=".3"/><path d="M32.01,70.17c-.16,.05-.32,.1-.48,.15-.18-.13-.12-.32-.09-.49,.11-.55,.14-1.09-.01-1.64-.03-.11-.06-.24,.08-.3,.17,.76,.46,1.48,.49,2.27Z" fill="#f0f3f4"/><path d="M11.63,48l2.91,1.46c-.82-.84-1.83-1.41-2.79-2.06,.27-.39,.65-.69,.95-1.06,.49-.61,.86-1.27,1.1-2.02,.28-.88,.89-1.48,1.73-1.85,.26-.11,.52-.21,.78,0,.25,.7,.03,1.46,.23,2.17,.05,.16-.04,.36,.25,.59-.04-1.16,.04-2.21,.24-3.24,.77-1.27,1.75-1.81,3.23-1.31-.05,.4-.39,.7-.39,1.25,.46-.6,.88-1.1,1.24-1.65,.55-.84,1.42-1.03,2.28-1.01,1,.03,1.24,.95,1.53,1.7,.47,1.23-.27,2.08-.99,2.93-.92,1.11-1.99,2.05-3.08,2.98-.76,.65-1.49,1.36-2.09,2.21,.01-1.92,.38-3.76,.95-5.57-.44,.52-.63,1.16-.84,1.77-.68,2.02-1.23,4.07-1.13,6.24,.01,.31,.09,.57,.25,.84,.59,1.03,1.1,2.11,1.85,3.06,.9,1.13,2.05,1.92,3.26,2.66,.68,.42,1.4,.75,2.14,1.05-.27,.61-.64,.74-1.23,.46-2.8-1.34-4.97-3.27-6.09-6.24-.1-.26-.2-.52-.27-.79-.11-.44-.42-.63-.83-.63-1.22,0-2.34-.38-3.44-.86-1.04-.45-2.13-.56-3.27-.39-1.93,.28-3.68-.16-5.13-1.52-.31-.29-.09-.35,.19-.35,.25-.04,.48,.04,.68,.17,1.5,.97,3.16,.95,4.84,.79,.22-.02,.44-.03,.65-.08,.61-.12,.75-.44,.41-.97-.15-.23-.35-.46-.12-.75Z" fill="#36a942"/><path d="M11.63,48c-.02,.28,.09,.48,.28,.69,.46,.5,.24,1.12-.44,1.19-1.4,.15-2.8,.28-4.2-.07-.78-.19-1.38-.69-2.1-.98,.04-.1,.13-.12,.22-.13,.6-.06,.99-.48,1.42-.83,.61-.49,1.24-.92,2.06-.95,.95,.29,1.86,.65,2.76,1.08Z" fill="#4ed25b"/><path d="M22.78,73.28c-.43-.13-.89-.02-1.3-.23,.1-.09,.12-.21,.11-.33-.06-.94,.09-1.86,.13-2.8,.3,0,.39-.19,.44-.46,.38-2.2,1.22-4.25,2.21-6.24,.41-.82,.82-1.64,1.36-2.39,.1-.15,.23-.28,.19-.48,.25-.41,.63-.7,1.06-1.12-.08,.55-.19,.97-.01,1.39,.08,.18-.07,.33-.19,.47-1.41,1.8-2.49,3.79-3.24,5.95-.53,1.51-.83,3.07-.75,4.68,.03,.52,0,1.04,0,1.56Z" fill="#36aa42"/><path d="M13.21,40.69c-.08,.04-.16,.08-.24,.12-.82,.52-1.3,1.34-1.86,2.08-.28,.36-.55,.74-.8,1.12-.17,.26-.38,.46-.71,.49-.9-.41-1.67-1-2.28-1.78,.38-.95,1.15-1.49,2.05-1.86,1.18-.49,2.42-.37,3.65-.3,.08,0,.14,.06,.19,.13Z" fill="#4ed25b"/><path d="M1.58,46.44c.31-.19,.62-.23,1-.19,.79,.08,1.59,.03,2.4-.03-.65-.29-1.39-.32-1.99-.74,.31-.97,.89-1.61,1.96-1.74,.53-.07,1.08-.09,1.53-.43,.48,.57,1.06,1,1.79,1.21,.16,.31-.11,.34-.28,.39-.84,.24-1.54,.75-2.23,1.26-.84,.61-1.73,1.11-2.81,1-.54-.05-1.1-.14-1.37-.74Z" fill="#4ed25b"/><path d="M16.31,42.48c-1.03,.02-2.03,.76-2.36,1.87-.32,1.09-.96,1.95-1.72,2.74-.14,.14-.26,.31-.49,.31-.17-.11-.33-.23-.5-.34,0-.04,0-.09,.03-.11,.89-.83,1.14-1.96,1.45-3.07,.22-.79,.69-1.44,1.42-1.84,.68-.37,1.34-.78,2.13-.87,0,.44,.01,.88,.02,1.32Z" fill="#4ed25b"/><path d="M1.58,46.44c1.13,.91,2.3,.72,3.44,.04,1.05-.63,1.94-1.53,3.19-1.8,.03,0,.04-.1,.06-.16,.77,.35,1.57,.55,2.46,.62-.27,.48-.64,.57-1.14,.51-.62-.08-1.2-.4-1.86-.23-.51,.13-.92,.35-1.27,.72-.33,.35-.66,.69-1.01,1.02-.93,.87-2.94,.86-3.7-.03-.16-.19-.44-.39-.16-.7Z" fill="#36aa42"/><path d="M24.01,72.67c1.55-.02,3.1,.08,4.64-.11-.08,.32-.15,.64-.23,.96-.87,.34-1.79,.57-2.59,1.09-.13,.09-.23,.11-.36-.02-.42-.44-.97-.66-1.49-.94,0-.32,.02-.65,.03-.97Z" opacity=".3"/><path d="M25.91,60.35c.18,.18,.1,.35-.01,.53-1.71,2.7-3.04,5.56-3.6,8.73-.06,.34-.15,.65-.58,.31,.22-.98,.37-1.98,.66-2.95,.73-2.46,1.94-4.64,3.54-6.63Z" fill="#4dd15a"/><path d="M20.27,40.68c-.28,0-.56,.02-.84,0-.71-.07-1.28,.18-1.74,.71-.19,.22-.43,.4-.65,.6,.03-.65,.17-1.29,.35-1.91,.92-.78,2.51-1,3.46-.49l-.58,1.09Z" fill="#4dd25b"/><path d="M13.21,40.69c-.99,.03-1.97-.09-2.96,.09-1.12,.2-1.97,.78-2.65,1.65-.09,.11-.14,.24-.28,.3-.3-.16-.09-.32,0-.48,1.24-2.02,2.58-2.61,4.91-2.15,.42,.08,.84,.19,1.27,.28,.03,.22-.19,.21-.29,.31Z" fill="#76ee7e"/><path d="M16.3,41.16c-.44,.36-1.01,.46-1.51,.69-1.16,.53-1.83,1.41-2.09,2.64-.21,1.01-.51,1.97-1.44,2.57-.42-.13-.62-.26-.1-.59,.81-.51,1.15-1.35,1.31-2.24,.34-1.94,1.54-2.95,3.4-3.29,.14-.03,.49-.24,.43,.22Z" fill="#75ee7e"/><path d="M9.6,44.51c.79-.6,1.16-1.53,1.79-2.25,.47-.54,.82-1.21,1.57-1.44-1.02,.91-1.46,2.11-1.78,3.4-.23,.91-.31,.92-1.17,.51-.14-.07-.28-.15-.42-.22Z" fill="#36a942"/><path d="M6.49,43.32c-.28,.63-.92,.53-1.39,.56-.95,.07-1.47,.59-1.86,1.35-.06,.11-.12,.2-.24,.26-.06-.04-.18-.08-.18-.12,0-1.15,.9-2.02,2.05-1.93,.55,.04,1.08-.08,1.61-.11Z" fill="#76e87f"/><path d="M20.84,39.59c-1.21-.27-2.36-.02-3.46,.49,.67-1.5,2.57-1.28,3.46-.66,.03,.02,0,.11,0,.17Z" fill="#76ee7e"/><path d="M8.87,46.93c-.52,.31-1.16,.34-1.61,.79-.28,.28-.6,.5-.93,.72-.28,.19-.55,.45-.94,.26,.57-.33,1.07-.76,1.47-1.27,.55-.71,1.18-.95,2.01-.5Z" fill="#74ed7c"/><path d="M29.22,20.91c.58,0,1.16,.02,1.74,0,.47-.02,.67,.23,.68,.64,.05,1.29-.09,2.55-.74,3.7-.84,1.49-2.29,1.52-3.19,.07-.77-1.24-.88-2.62-.85-4.03,0-.33,.25-.37,.51-.37,.62,0,1.24,0,1.86,0Z" fill="#563826"/><path d="M34.06,16c.23,.06,.3-.24,.54-.23,.07,.24-.13,.38-.19,.57-.47,.31-.66,.67-.53,1.29,.12,.57-.04,1.19-.4,1.7-.47,.67-1.31,.68-1.72-.03-.54-.95-.51-1.95-.03-2.91,.27-.53,.9-.69,1.44-.42,.31,.16,.59,.21,.89,.02Z" fill="#553826"/><path d="M27.1,18.11c0,.46-.24,.71-.56,.83-.53,.2-1.08,.37-1.64,.51-.35,.09-.65-.07-.77-.41-.12-.34,.04-.6,.36-.79,.74-.42,.75-.44,.16-1.06-.3-.32-.51-.68-.18-1.04,.33-.36,.7-.18,1.05,.1,.41,.32,.78,.68,1.14,1.05,.24,.24,.42,.53,.44,.82Z" fill="#553826"/><path d="M23.15,21.51c-.14,0-.31,.02-.45-.03-.45-.14-.89-.32-.87-.91,.02-.55,.44-.75,.87-.84,.34-.07,.72-.06,1.07,0,.42,.08,.79,.26,.83,.79,.04,.54-.31,.72-.71,.9-.23,.1-.47,.06-.73,.08Z" fill="#fec8e4"/><path d="M34.98,19.59c.97,0,1.42,.33,1.35,1-.05,.53-.6,.81-1.53,.79-.72-.02-1.21-.36-1.23-.87-.02-.45,.36-.84,.92-.92,.16-.02,.32,0,.48,0Z" fill="#fec8e4"/><path d="M36.67,10c0-.43,.26-.55,.62-.46,.35,.08,.69,.72,.57,1.06-.16,.46-.48,.36-.81,.22-.19-.24-.33-.51-.39-.82Z" fill="#fefdfd"/><path d="M40.64,16.82c.31,.3,.4,.67,.37,1.09-.12,.22-.32,.33-.54,.2-.3-.17-.25-.52-.29-.8-.04-.28,.15-.47,.46-.5Z" fill="#fefdfd"/><path d="M48.56,25.7c-.26,.17-.46,.46-.84,.35-.04-.09-.11-.17-.12-.26-.05-.41,.13-.74,.51-.79,.5-.06,.43,.38,.44,.7Z" fill="#fefdfd"/><path d="M53.49,29.09c-.58,.02-1.29-.76-1.21-1.32,.03-.24,.18-.41,.4-.47,.49-.14,.84,.13,1.16,.44,.29,.28,.33,.63,.21,.99-.08,.26-.3,.35-.56,.36Z" fill="#fdfefd"/><path d="M54.3,29.54c.28,0,.42,.17,.43,.41,0,.2-.11,.34-.33,.34-.25,0-.43-.1-.44-.37-.01-.23,.13-.36,.34-.39Z" fill="#f2fbf2"/><path d="M30.67,5.45c-.01,.23-.11,.36-.33,.35-.31-.01-.47-.2-.49-.49-.02-.17,.02-.33,.24-.34,.34-.01,.47,.24,.59,.48Z" fill="#fefcfb"/><path d="M41.6,38.77c-.6,0-.97-.28-1.14-.77-.18-.51-.06-.97,.41-1.31,1.19-.87,2.55-1.26,3.99-1.39,.53-.05,1.08-.02,1.61,.01,.19,0,.41,.08,.47,.3,.05,.18-.12,.29-.24,.38-1.45,1.01-2.94,1.96-4.58,2.66-.18,.08-.37,.15-.53,.12Z" fill="#77e97f"/><path d="M53.59,49.77c.03-.3,.24-.58,.71-.57,.47,0,1.09,.64,1.07,1.13-.02,.41-.3,.65-.71,.65-.55,0-1.08-.54-1.07-1.21Z" fill="#00993e"/><path d="M48.92,48.24c-.17-.26-.4-.48-.53-.78-.19-.44,.03-.71,.37-.86,.37-.15,.72,.03,.93,.34,.23,.34,.47,.73,.23,1.16-.21,.37-.56,.28-.89,.15-.04-.01-.08,0-.12-.01,0,0,0,0,0,0Z" fill="#00993e"/><path d="M51.71,49.91c.52,.01,1.16,.61,1.17,1.08,0,.42-.26,.57-.6,.58-.55,.02-1.22-.62-1.2-1.13,.02-.39,.25-.56,.63-.54Z" fill="#00993e"/><path d="M54.06,46.2c.39,.35,.57,.77,.51,1.3-.25,.41-.6,.51-1.01,.28-.45-.26-.66-.87-.48-1.28,.21-.5,.58-.46,.98-.3Z" fill="#00993e"/><path d="M49.52,45.12c.02,.38-.09,.68-.53,.71-.43,.03-.91-.54-.93-1.06-.02-.4,.13-.67,.54-.72,.41-.04,.92,.57,.92,1.07Z" fill="#00993e"/><path d="M52.11,48.36c-.54-.01-.94-.47-.93-1,.01-.39,.2-.59,.6-.57,.45,.02,.99,.56,.95,.99-.03,.39-.24,.63-.63,.58Z" fill="#00993e"/><path d="M51.5,45.6c-.51,0-.91-.44-.91-.97,0-.38,.17-.6,.57-.6,.45,0,.98,.53,.99,.96,0,.37-.24,.61-.64,.6Z" fill="#00993e"/><path d="M52.77,44.93c.27,.07,.6,.07,.6,.46,0,.25-.09,.45-.37,.44-.34,0-.56-.23-.6-.55-.03-.24,.15-.34,.36-.36Z" fill="#fafdfa"/><path d="M54.76,48.26c.15,0,.27,.08,.28,.24,.02,.18-.07,.31-.26,.31-.17,0-.24-.11-.25-.26,0-.16,.07-.26,.23-.29Z" fill="#f0faf0"/><path d="M61.15,39.72c-.04,.29-.21,.47-.5,.46-.29,0-.4-.22-.38-.49,.02-.27,.16-.45,.45-.44,.28,.01,.42,.18,.44,.46Z" fill="#f3fbf3"/><path d="M54.84,34.09c.36-1.51,2.21-3.08,3.55-3.12,.8-.03,1.29,.47,1.77,.96,.27,.28,.13,.64-.22,.69-1.75,.27-3.42,.8-5.1,1.47Z" fill="#77e97f"/><path d="M56.56,35.04c1.27-.31,2.44-.21,3.61-.24,.43,0,.82,.1,1.22,.23,.4,.14,.55,.4,.43,.78-.13,.4-.07,.98-.78,.92-.64-.06-1.24-.29-1.84-.49-.87-.3-1.8-.5-2.64-1.2Z" fill="#77e97f"/><path d="M63.04,37.01c-.18-.01-.36-.01-.54-.05-.17-.03-.27-.13-.3-.32-.05-.4,.33-.72,.96-.77,.42-.04,.88,0,.93,.51,.06,.55-.4,.6-.82,.63-.08,0-.16,0-.24,0Z" fill="#fcfdfc"/><path d="M49.22,41.51c-.55-.04-1.23,.17-1.88,.49-.57,.29-1.13,.59-1.71,.85-.67,.3-1.14-.01-1.15-.75,0-.34,0-.66-.21-.97-.55-.85-.45-1.35,.41-1.86,.72-.43,1.54-.61,2.37-.76,.76-.13,1.49,0,2.23,.13,.6,.1,1.23,.81,1.29,1.63,.09,1.13,.08,1.31-1.35,1.24Z" fill="#78e97f"/><path d="M29.26,21.62c.22,0,.44,0,.66,0,1.1,0,1.11,0,1,1.11-.08,.79-.28,1.57-.71,2.26-.56,.89-1.31,.88-1.85-.01-.54-.89-.75-1.87-.78-2.9-.01-.39,.14-.48,.49-.46,.4,.02,.8,0,1.2,0Z" fill="#e52c20"/></svg>