<?xml version="1.0" encoding="UTF-8"?><svg id="Layer_1" xmlns="http://www.w3.org/2000/svg" viewBox="0 0 74.73 81.92"><path d="M57.58,6.81c2.25,2.02,4.17,4.35,5.83,6.86,2.18,3.28,4.6,6.35,7.22,9.28,1.66,1.86,2.95,3.93,3.41,6.44,.74,4.04-.36,7.32-3.8,9.75-2.81,1.99-5.9,3.2-9.32,3.55-.75,.08-1.49,.24-2.25,.22-.1-.42,.11-.79,.19-1.18,.57-.36,1.23-.31,1.85-.37,3.52-.39,6.67-1.66,9.43-3.9,1.59-1.29,2.5-2.91,2.72-4.94,.04-.39-.13-.59-.43-.76-1.56-.85-3.13-1.68-4.75-2.4-.22-.1-.43-.2-.65-.31-.39-.16-.76-.35-1.16-.49-3.74-1.52-7.56-2.76-11.51-3.62-.45-.1-.9-.2-1.34-.3-2.41-.44-4.83-.86-7.27-1.12-2.04-.21-4.08-.42-6.14-.43-1,0-1.98-.18-2.98-.13-.43,.01-.87,.01-1.3,0-1.26,.25-2.54,.13-3.81,.21-3.62,.25-7.21,.69-10.76,1.42-.16,.03-.31,.07-.47,.1-.43,.06-.84,.16-1.26,.26-2.8,.59-5.53,1.43-8.23,2.36-.41,.11-.79,.31-1.19,.42-2.37,.85-4.64,1.92-6.89,3.05-.48,.24-.4,.57-.28,.95,.68,2.22,1.94,4.07,3.72,5.53,2.34,1.93,5.07,3.15,7.97,3.97,.3,.08,.64,.09,.85,.38-.08,.39,.26,.84-.15,1.19-4.23-1.05-8.15-2.7-11.12-6.04-1.78-2-2.75-4.37-3.05-7.03-.56-4.92,1.28-8.89,4.69-12.28,2.43-2.41,5.26-4.24,8.27-5.82,1.3-.68,2.59-1.38,3.83-2.17,.43,.31,.48,.78,.49,1.25-.75,.64-1.66,1.03-2.51,1.5-1.87,1.04-3.77,2.01-5.52,3.24-2.38,1.69-4.5,3.64-6.11,6.1-1.37,2.11-1.9,4.46-1.88,6.95,0,.12,.02,.24,.04,.36,.05,.38,.22,.47,.57,.3,.73-.37,1.47-.72,2.21-1.06,5.83-2.68,11.92-4.45,18.24-5.47,3.19-.52,6.4-.84,9.64-1,2.3-.12,4.59-.14,6.88-.07,3.97,.13,7.92,.53,11.83,1.24,3.72,.68,7.38,1.58,10.96,2.79,3.24,1.09,6.39,2.41,9.41,4,.25,.16,.5,.34,.77,.46,.07,.03,.14,.07,.23,.04,.13-.12,.04-.26,.02-.38-.35-2.07-1.35-3.84-2.72-5.38-2.95-3.32-5.67-6.8-8.14-10.5-1.25-1.88-2.73-3.59-4.31-5.21-.17-.17-.36-.32-.41-.57-.02-.31,.04-.61,.09-.92,.03-.19,.09-.39,.37-.31Z" fill="#da0000"/><path d="M52.31,75.54c.4,.44,.96,.23,1.43,.31,.96,.15,1.92,.32,2.84,.64,.45,.16,.85,.38,.88,.93,.03,.6-.41,.85-.85,1.03-1.08,.44-2.22,.63-3.38,.67-.5,.02-.87,.09-1.2,.58-.35,.54-1.01,.77-1.62,.95-1.36,.39-2.75,.62-4.15,.76-2.38,.24-4.76,.29-7.15,.39-2,.09-3.99,.12-5.98,.06-3.87-.11-7.74-.3-11.56-1.05-1.15-.23-2.29-.53-3.34-1.09-.21-.11-.46-.21-.57-.42-.36-.68-1-.9-1.67-1.1-.57-.18-.92-.56-.96-1.16-.04-.6,.44-.84,.87-1.1,.92-.55,1.96-.64,2.99-.73,.67-.06,1.35-.07,2.02-.14,.26-.15,.46,.03,.66,.14,3.17,1.76,6.58,2.58,10.18,2.82,2.89,.19,5.79,.12,8.68,.08,2.76-.04,5.49-.42,8.15-1.18,1.08-.31,2.1-.76,3.12-1.21,.19-.09,.37-.25,.61-.15Z" opacity=".3"/><path d="M52.31,75.54c-1.99,1.09-4.13,1.73-6.35,2.15-4.42,.83-8.89,.64-13.34,.56-3.5-.06-6.89-.82-10.08-2.34-.55-.26-1.09-.58-1.63-.86-1.78-1.33-3.46-2.77-4.76-4.59-1.65-2.3-2.74-4.83-3.05-7.67-.53-4.86,.42-9.49,2.14-14.01,.52-1.37,1.1-2.73,1.64-4.1,.09-.22,.23-.43,.19-.68,.09-.42,.27-.82,.4-1.23,.07-.14,.17-.26,.33-.31,.44-.03,.82,.09,1.11,.44,.1,.34-.09,.62-.2,.91-.23,.61-.49,1.21-.71,1.83-1.19,2.9-2.4,5.79-3.04,8.88-.62,2.97-.89,5.96-.35,8.97,.64,3.55,2.46,6.43,5.12,8.84,2.97,2.69,6.55,3.83,10.42,4.18,1.72,.16,3.46,.2,5.19,.32,2.08,.15,4.14-.14,6.21-.06,.65,.03,1.31-.1,1.96-.19,3.05-.28,6.02-.9,8.64-2.57,4.27-2.73,6.98-6.53,7.56-11.68,.26-2.34,.11-4.66-.33-6.96-.49-2.55-1.24-5.03-2.27-7.43-.12-.31-.24-.62-.38-.93-.38-.98-.78-1.95-1.17-2.93-.09-.22-.21-.43-.18-.68,.36-.32,.76-.55,1.23-.64,.12,.09,.16,.24,.22,.37,.14,.39,.3,.77,.52,1.12-.26,.25-.06,.48,.03,.7,.84,2.23,1.84,4.39,2.51,6.69,.99,3.37,1.48,6.8,1.25,10.3-.22,3.37-1.44,6.38-3.54,9.02-1.48,1.85-3.21,3.43-5.31,4.58Z" fill="#d39579"/><path d="M57.37,44.25c-.5-.19-.46-.69-.62-1.07,.04-.32,.37-.46,.48-.73,.02-.05,.05-.1,.08-.14,.12-.39-.01-.75-.19-1.08-.81-1.48-1.62-2.95-2.49-4.39-.23-.38-.58-.58-.97-.74-1.63-.66-3.28-1.25-5.1-1.68,.14,.7,.39,1.28,.62,1.85,.5,.91,.93,1.85,1.55,2.68,.11,.14,.21,.29,.21,.48-.02,.1-.07,.16-.17,.18-.3,0-.45-.24-.63-.41-1.18-1.08-2.18-2.32-3.05-3.67-.16-.25-.36-.49-.46-.77-.25-.72-.78-.99-1.49-1.09-2.29-.33-4.58-.59-6.91-.69-1.64-.07-3.27-.01-4.9,.05-2.72,.11-5.41,.47-8.07,1.02-.4,.08-.63,.3-.74,.68-.14,.48-.21,.98-.3,1.47-.11,1.37,.13,2.71,.3,4.05,.03,.28,.26,.72-.05,.81-.36,.11-.43-.38-.55-.65-.55-1.24-1.01-2.52-1.14-3.89-.04-.45-.14-.9-.11-1.36,.02-.33-.11-.48-.47-.38-.9,.25-1.78,.55-2.66,.86-.26,.09-.41,.3-.55,.52-.44,.71-.77,1.48-1.16,2.22-.41,.77-.79,1.56-1.12,2.38-.55,1.46-.65,1.25,.66,1.87,.07,.03,.13,.08,.18,.15-.08,.43-.11,.87-.47,1.19-.82-.26-1.51-.78-2.26-1.18,.15-.39-.13-.82,.09-1.2-.09-.18-.01-.35,.05-.52,.68-1.89,1.6-3.67,2.57-5.43,.27-.43,.44-.94,.9-1.24,1.66-.7,3.4-1.13,5.14-1.57,.57-.15,1.16-.26,1.73-.41,4-.78,8.05-1.11,12.13-1.08,.6,.09,1.2,.13,1.8,.11,3.28,.17,6.51,.6,9.69,1.42,.52,.14,1.04,.3,1.57,.44,1.42,.48,2.85,.91,4.21,1.55,.66,.21,.97,.76,1.29,1.29,.94,1.59,1.86,3.2,2.72,4.84,.11,.22,.31,.43,.2,.72,.08,.43-.06,.81-.25,1.18-.44,.44-.77,.98-1.29,1.34Z" fill="#b88855"/><path d="M26.04,4.08c3.14-1.96,6.51-3.27,10.21-3.73,1.98-.25,3.96-.4,5.95-.34,3.85,.13,7.34,1.38,10.56,3.46-.44,.33-.89,.63-1.46,.66-2.01-1.08-4.08-2.01-6.34-2.45-.67-.13-1.34-.2-2.01-.25-.28-.1-.57-.07-.86-.06-3.1-.04-6.17,.2-9.16,1.07-1.73,.51-3.37,1.22-4.95,2.08-.24,.13-.48,.3-.77,.28-.44-.15-.95-.21-1.17-.73Z" fill="#da0000"/><path d="M26.04,4.08c.37,.2,.73,.41,1.1,.61,1.85,1.27,1.61,2.9-.04,4.34-.12,.1-.26,.19-.41,.25-1.38,.55-2.58,1.44-3.92,2.06-1.05,.49-2.16,.7-3.32,.41-.65-.16-1.27-.39-1.54-1.09-.16-.4-.32-.8-.49-1.2,.16-.94,.32-1.86,.81-2.71,.94-1.63,2.38-2.5,4.16-2.91,1.24-.29,2.44-.03,3.64,.24Z" fill="#e0e0e0"/><path d="M51.38,4.05c.46-.19,.93-.38,1.39-.57,.22,.12,.45,.13,.69,.13,1.83,.01,3.23,1.04,3.76,2.77,.07,.23,.24,.29,.36,.44-.22,0-.25,.14-.24,.31,.03,.35-.06,.69-.12,1.04-.15,.56-.55,.85-1.08,1-.86,.16-1.66-.11-2.43-.44-1.01-.45-1.91-1.08-2.65-1.9-.48-.53-.72-1.15-.42-1.87,.18-.35,.3-.75,.73-.9Z" fill="#e0e0e0"/><path d="M50.73,4.94c-.23,.95,.19,1.64,.89,2.23,1.12,.94,2.32,1.71,3.83,1.87,.22,.02,.43,.02,.65-.03,.78,.39,1.27,1.08,1.83,1.7,.07,.07,.07,.18-.02,.26-.1,.07-.22,.08-.34,.09-1.13,.11-1.58,.57-1.67,1.69-.08,.99,.74,2.07,1.65,2.19,.75,.09,1.32-.27,1.64-1.01,.11-.26,.07-.61,.39-.77,.65,.48,.92,1.23,1.31,1.88,.07,.12,.01,.27-.03,.41-.55,1.8,.34,3.57,2.16,3.96,.93,.2,1.6,.64,2.15,1.34,.89,1.13,2.01,2.04,3,3.09,1.44,1.53,2.57,3.25,3.4,5.17,.1,.22,.27,.45,.13,.73-1.42-.62-2.8-1.35-4.23-1.96-2.82-1.22-5.7-2.24-8.66-3.07-3-.85-6.04-1.53-9.12-2-1.8-.28-3.61-.48-5.43-.66-3.42-.34-6.84-.4-10.26-.32-2.08,.05-4.16,.21-6.24,.43-2.86,.31-5.7,.75-8.51,1.34-3.59,.75-7.09,1.81-10.52,3.1-2.18,.82-4.31,1.78-6.39,2.84-.31,.16-.45,.22-.52-.24-.26-1.66,.05-3.25,.49-4.82,.57-2.04,1.76-3.73,3.17-5.28,2.48-2.72,5.49-4.71,8.73-6.39,1.25-.65,2.48-1.35,3.71-2.03,1.32,1.35,2.88,1.2,4.47,.68,.47-.15,.9-.41,1.32-.67,.81-.5,1.63-.99,2.52-1.33,.67-.26,1.2-.71,1.57-1.33,.73-1.22,.67-1.65-.31-2.88-.12-.15-.35-.21-.37-.45,.4,.02,.65-.27,.96-.44,2.47-1.28,5.04-2.28,7.81-2.66,2.07-.29,4.14-.51,6.24-.38,.28,.09,.58,.02,.85,.16,1.25,.11,2.38,.65,3.51,1.14,1.29,.57,2.54,1.24,3.75,1.98,.18,.11,.39,.2,.47,.43Z" fill="#fe2700"/><path d="M48.97,33.08c-2.09-.53-4.21-.9-6.35-1.18-1.12-.14-2.25-.17-3.37-.26-.7-.34-1.1-.98-1.49-1.59-1.28-2.04-1.56-4.31-1.42-6.66,.01-.22,.07-.43,.27-.58,1.65-.05,3.3,.08,4.95,.16,1.13,.06,2.26,.16,3.39,.27,2.15,.21,4.29,.52,6.42,.9,.59,.11,1.17,.22,1.75,.34,.36,.8,.15,1.62,0,2.41-.38,2.06-1.25,3.89-2.81,5.34-.39,.37-.81,.7-1.35,.84Z" fill="#c97765"/><path d="M37.46,31.53c-1.63-.08-3.26,.06-4.89,.15-2.39,.13-4.76,.45-7.11,.92-.08,.02-.16,0-.24,0-.57-.14-.98-.54-1.39-.9-1.98-1.74-3.26-3.9-3.72-6.52-.04-.22-.1-.43,.06-.63,1.37-.39,2.78-.61,4.19-.81,1.98-.28,3.98-.51,5.97-.7,1.21-.11,2.43-.11,3.64-.16,.44-.02,.87-.04,1.31-.05,.21,.21,.17,.48,.15,.74-.14,2.68,.33,5.2,1.88,7.45,.1,.15,.2,.3,.13,.5Z" fill="#c97765"/><path d="M17.67,35.71c-1.06,1.9-2.01,3.85-2.76,5.89-2.96-.74-5.74-1.9-8.21-3.71-2.24-1.64-3.78-3.78-4.52-6.49-.09-.33-.06-.49,.26-.66,2.3-1.19,4.65-2.27,7.08-3.15,.32,.62,.44,1.31,.79,1.92,1.39,2.38,3.42,4.05,5.82,5.33,.52,.28,1.12,.41,1.54,.86Z" fill="#c97765"/><path d="M58.91,41.73c-.88-1.73-1.82-3.43-2.83-5.09-.08-.13-.12-.29-.17-.44,.2-.29,.52-.24,.81-.28,3.73-.43,6.87-1.96,9.21-4.98,.36-.46,.63-.97,.85-1.51,.07-.18,.12-.39,.29-.51,1.91,.8,3.73,1.77,5.56,2.75,.39,.21,.43,.46,.4,.87-.29,3.17-2.37,5-4.87,6.51-2.28,1.37-4.75,2.18-7.4,2.43-.61,.06-1.22,.16-1.83,.24Z" fill="#c97765"/><path d="M54.72,35.01c-1.4-.52-2.81-1.03-4.21-1.55,.39-.61,.99-1.02,1.43-1.59,1.4-1.86,2.13-3.95,2.25-6.27,.01-.27-.06-.57,.15-.8,1.73,.28,3.4,.8,5.07,1.29,2.23,.66,4.42,1.45,6.56,2.35,.16,.45-.09,.81-.3,1.16-1.27,2.2-3.21,3.61-5.53,4.52-1.53,.6-3.13,.93-4.78,.96-.22,0-.43,0-.64-.08Z" fill="#c97765"/><path d="M23.55,32.95c-.89,.39-1.87,.49-2.78,.83-.78,.29-1.58,.5-2.38,.74-.26,.17-.51,.01-.74-.07-1.39-.5-2.62-1.26-3.73-2.21-1.02-.87-1.95-1.83-2.59-3.02-.34-.63-.7-1.25-.62-2.01,1.99-.81,4.06-1.36,6.13-1.9,.71-.19,1.4-.43,2.14-.48,.36,.72,.39,1.53,.69,2.28,.83,2.02,1.89,3.86,3.56,5.31,.16,.14,.35,.28,.31,.54Z" fill="#c97765"/><path d="M71.7,29.74c-.98-2.66-2.62-4.88-4.65-6.83-.96-.93-1.91-1.87-2.76-2.91-.16-.19-.33-.23-.56-.26-1.59-.19-2.67-1.03-3.17-2.57-.19-.59-.17-1.18,.14-1.73,.13-.23,.1-.38-.04-.59-.36-.54-.7-1.1-1.05-1.66-.19-.08-.26-.24-.3-.42-.17-.71-.55-1.26-1.21-1.6-.1-.05-.21-.12-.17-.27-.54-.7-1.24-1.26-1.84-1.9,.57-.03,.77-.54,1.12-.85,1.97,1.83,3.64,3.91,5.13,6.13,2.15,3.2,4.46,6.26,7.05,9.11,1.51,1.66,2.8,3.46,3.33,5.7,.1,.42,.24,.84,.18,1.32-.44-.19-.86-.39-1.22-.69Z" fill="#fefefe"/><path d="M54.72,35.01c2.38-.13,4.71-.52,6.83-1.7,1.66-.93,3.07-2.13,4.02-3.81,.19-.34,.28-.7,.4-1.05,.36,.16,.72,.32,1.08,.48-.2,1.05-.8,1.89-1.47,2.68-2.25,2.65-5.2,3.96-8.57,4.46-.37,.06-.75,0-1.12,.13-.39-.4-.59-.99-1.18-1.19Z" fill="#8c4f42"/><path d="M10.72,27.21c1.18,3.89,4.01,6.04,7.68,7.32-.24,.4-.49,.79-.73,1.19-3.08-1.27-5.71-3.11-7.43-6.05-.37-.64-.7-1.29-.72-2.06,.41-.12,.77-.35,1.2-.4Z" fill="#8c4f42"/><path d="M54.34,24.8c.06,3.15-.94,5.89-3.17,8.16-.2,.2-.41,.37-.66,.51-.51-.13-1.03-.26-1.54-.39,1.42-.95,2.55-2.15,3.23-3.74,.64-1.49,1.09-3.03,.87-4.68,0-.05,.04-.11,.06-.17,.41,.1,.81,.21,1.22,.31Z" fill="#8c4f42"/><path d="M23.55,32.95c-.87-.79-1.69-1.62-2.34-2.61-1.1-1.7-2.03-3.46-2.23-5.52,.38-.18,.78-.24,1.19-.26,.4,3.15,1.9,5.67,4.44,7.57,.21,.15,.4,.32,.6,.48-.55,.14-1.09,.33-1.67,.35Z" fill="#8c4f42"/><path d="M37.46,31.53c-1.01-1.41-1.7-2.95-1.99-4.67-.22-1.34-.29-2.67-.18-4.02,.44-.08,.88-.06,1.32-.01-.39,3.21,.09,6.17,2.46,8.59,.07,.07,.12,.16,.18,.24-.6,0-1.2,.03-1.79-.12Z" fill="#8c4f42"/><path d="M43.57,76.71c-.54,.24-1.14,.19-1.7,.22-1.43,.09-2.87,.11-4.3,.12-2.82,.01-5.66-.13-8.46-.48-4.24-.52-7.96-2.19-10.85-5.45-2.22-2.5-3.63-5.38-3.97-8.76-.34-3.38,.13-6.66,1.01-9.9,.65-2.38,1.62-4.65,2.59-6.91,1.13-1.4,2.63-1.44,4.18-1.04,1.04,.27,2.05,.64,3.12,.82,.7,.11,1.31-.03,1.88-.38,.72-.43,1.39-.93,1.93-1.59,.15-.18,.28-.4,.58-.34,.22,.11,.37,.31,.49,.51,.46,.74,1.16,1.06,1.98,1.21,1.32,.25,2.65,.34,3.99,.39,1.81,.07,3.63,0,5.44-.1,.77-.05,1.29-.45,1.79-.96,.29-.09,.46,.09,.6,.29,1.04,1.42,2.47,1.64,4.06,1.26,1.73-.41,3.48-.73,5.27-.7,1.58,.03,2.86,.64,3.65,2.08l.35,.84c-.09,.3-.01,.59,.08,.88,.95,2.75,1.41,5.6,1.66,8.49,.27,3.05-.26,5.96-1.39,8.77-.97,2.41-2.57,4.35-4.51,6.03-2.11,1.83-4.5,3.15-7.12,4.1-.77,.28-1.58,.38-2.37,.59Z" fill="#f4e9d6"/><path d="M43.34,44.12c-.47,.82-1.2,1.05-2.11,1.09-1.61,.08-3.23,.13-4.84,.09-1.43-.03-2.86-.17-4.28-.35-1.24-.16-1.98-.93-2.58-1.92-.18-.06-.32-.18-.4-.34-.26-.49-.48-.36-.79-.02-.45,.5-.86,1.04-1.36,1.51-.53,.49-1.11,.72-1.85,.58-1.98-.38-3.91-.9-5.82-1.55-.17-.06-.33-.14-.45-.28-.35-.17-.69-.36-1.08-.37-.23-.1-.48-.16-.68-.33-.26-.2-.45-.45-.39-.8,.05-.33,.26-.51,.58-.57,.57-.04,1.04,.27,1.52,.49,1.97,.87,4.06,1.32,6.13,1.83,.45,.11,.81-.02,1.14-.34,.56-.54,1.04-1.16,1.59-1.71,.9-.9,1.56-.86,2.32,.14,.34,.44,.64,.92,.95,1.38,.34,.51,.8,.81,1.41,.92,1.5,.28,3.01,.29,4.64,.4-1.83-3.06-2.78-6.26-2.72-9.73,.02-.36-.1-.75,.21-1.06,.36,.25,.35,.65,.46,1,.7,3.19,2.19,5.97,4.36,8.4,.36,.4,.8,.72,1.25,1.03,.6,.42,1.25,.3,1.66-.31,.33-.5,.62-1.02,.84-1.58,.11-.28,.23-.56,.4-.8,.43-.62,1.12-.59,1.5,.05,.38,.64,.59,1.35,.85,2.04,.24,.63,.62,.89,1.31,.86,1.33-.05,2.61-.31,3.9-.58,1.68-.38,3.29-.94,4.87-1.62,.15-.06,.29-.13,.44-.19,.32-.12,.65-.15,.9,.09,.25,.24,.26,.56,.1,.88h0c-.19,.21-.33,.52-.71,.36-.39,.23-.76,.49-1.21,.59-.4,.4-.95,.49-1.45,.66-2.3,.75-4.65,1.26-7.08,1.36-.98,.04-1.76-.24-2.2-1.2-.16-.34-.29-.7-.52-1.09-.3,.34-.43,.8-.83,.99Z" fill="#b88855"/><path d="M43.57,76.71c.23-.27,.58-.25,.87-.33,3.07-.81,5.81-2.24,8.24-4.28,1.75-1.46,3.25-3.11,4.27-5.16,1.08-2.16,1.66-4.45,1.83-6.86,.27-3.82-.5-7.49-1.57-11.12-.11-.37-.51-.74-.01-1.12,1.16,2.52,1.89,5.18,2.4,7.89,.34,1.79,.42,3.59,.37,5.41-.11,3.48-1.28,6.57-3.47,9.27-2.82,3.5-6.53,5.43-10.94,6.08-.67,.1-1.33,.25-2.01,.22Z" fill="#fefefe"/><path d="M18.88,42.92c1.72,.55,3.44,1.09,5.21,1.47,.48,.1,.97,.23,1.46,.28,.5,.05,.93-.18,1.27-.54,.57-.61,1.14-1.22,1.67-1.87,.24-.29,.38-.27,.56,.03,.15,.25,.32,.5,.49,.75-.5,.44-.91,.97-1.43,1.42-1.22,1.06-2.54,1.3-4.04,.81-.49-.16-1-.27-1.48-.45-1.7-.63-3.27-.49-4.68,.73,.32-.87,.65-1.75,.97-2.62Z" fill="#fdbb9c"/><path d="M43.34,44.12c.27-.46,.54-.91,.84-1.42,.25,.55,.49,1.04,.7,1.54,.38,.88,1.13,1.07,1.96,1.03,2.29-.13,4.53-.53,6.71-1.26,.62-.21,1.24-.41,1.87-.61,.48,1.2,.96,2.4,1.44,3.6-.77-.96-1.71-1.67-2.94-1.88-1.05-.17-2.1,.03-3.14,.12-1.33,.11-2.58,.57-3.91,.69-1.41,.13-2.35-.54-3.16-1.54-.1-.13-.17-.27-.36-.27Z" fill="#fdbb9c"/><path d="M17.31,40.99c-.61,.29-.64,.75-.11,1.15,.19,.14,.54,.08,.59,.42-.08,.08-.16,.16-.25,.25-.47-.02-.83-.33-1.24-.52-.21-.1-.23-.31-.15-.51,.14-.34,.28-.68,.43-1.02,.28-.02,.59-.14,.73,.24Z" fill="#cfa377"/><path d="M56.64,42.81c.24-.12,.47-.25,.71-.37-.07,.35-.35,.54-.6,.75-.14-.09-.13-.23-.11-.38Z" fill="#fbf8f5"/><path d="M50.99,43.43c-1.41,.34-2.82,.59-4.28,.58-.42,0-.68-.15-.83-.53-.31-.75-.62-1.51-.94-2.26-.14-.34-.32-.66-.76-.64-.42,.02-.61,.32-.75,.67-.3,.72-.62,1.42-1.04,2.08-.47,.74-1.22,.89-1.93,.39-2.38-1.7-3.68-4.18-4.81-6.77-.37-.86-.65-1.75-.83-2.67,.21-.2,.48-.18,.73-.19,3.68-.04,7.34,.24,10.93,1.11,.3,.07,.56,.2,.8,.38,1,1.46,2.11,2.82,3.47,3.96,.05,.02,.1,.07,.15,.02,.04-.05,0-.1-.02-.15-.72-.97-1.3-2.02-1.82-3.11,.11-.41,.41-.25,.62-.17,1.85,.68,3.8,1.14,5.43,2.32,.38,.38,.51,.89,.69,1.38,.16,.43-.13,.72-.42,.98-1.21,1.1-2.61,1.89-4.14,2.47-.09,.03-.2,.03-.26,.13Z" fill="#f5c28d"/><path d="M17.31,40.99c-.19-.24-.55,.01-.73-.24,.28-.83,.69-1.61,1.1-2.39,1.51-.89,3.15-1.46,4.81-1.99,.15-.05,.31-.06,.44,.07,.17,1.64,.75,3.14,1.5,4.59-.21-1.61-.47-3.21-.39-4.83,.15-.32,.44-.44,.76-.53,3.02-.8,6.09-1.29,9.2-1.49,.16-.01,.32-.02,.45,.1-.09,2.56,.58,4.96,1.48,7.32,.33,.86,.86,1.61,1.37,2.4-.07,.05-.12,.1-.16,.1-1.63-.02-3.25-.11-4.86-.38-.63-.1-1.08-.44-1.42-.97-.33-.52-.69-1.02-1.06-1.52-.57-.77-1.18-.82-1.84-.14-.6,.61-1.19,1.24-1.74,1.89-.35,.41-.75,.5-1.23,.38-2.39-.59-4.8-1.14-7.02-2.23-.2-.1-.41-.15-.63-.14Z" fill="#f5c28d"/><path d="M34.44,34.3c-2.56,.23-5.12,.5-7.63,1.08-.94,.22-1.93,.29-2.77,.83,.12-.6,.19-1.21,.4-1.8,.11-.3,.28-.43,.59-.49,2.36-.45,4.72-.8,7.12-.98,1.49-.11,2.98-.21,4.46-.19,3.13,.05,6.26,.25,9.34,.91,.25,.05,.38,.14,.49,.35,.27,.53,.56,1.05,.84,1.58-2.06-.53-4.14-.88-6.26-1.09-2.07-.2-4.13-.24-6.2-.22-.09-.32-.18-.64-.26-.96-.04,0-.08,0-.11,0v.96Z" fill="#cfa378"/><path d="M55.08,38.6c-1.63-1.12-3.53-1.61-5.36-2.28-.21-.08-.44-.25-.66,0-.27-.46-.42-.98-.58-1.49-.06-.18-.24-.4-.06-.55,.09-.08,.34,0,.5,.05,1.65,.43,3.27,.98,4.84,1.64,.44,.65,.91,1.29,1.22,2.02,.08,.19,.24,.38,.09,.6Z" fill="#cfa378"/><path d="M22.93,36.45c-1.24,.26-2.39,.78-3.57,1.23-.57,.22-1.07,.59-1.69,.68,.42-.81,.85-1.61,1.26-2.43,.1-.19,.22-.33,.42-.4,1.02-.33,2.03-.65,3.05-.98,.32-.1,.44,.04,.42,.36-.03,.51,.02,1.03,.11,1.53Z" fill="#cfa378"/><path d="M55.08,38.6c-.25-.69-.59-1.34-1.02-1.94-.15-.2-.36-.39-.29-.69,.53,.15,.83,.53,1.11,.99,.84,1.41,1.65,2.84,2.41,4.3,.18,.35,.46,.76,.06,1.17,.01-.93-.3-1.13-1.18-.73-1.67,.75-3.38,1.36-5.17,1.72,.37-.38,.87-.53,1.33-.75,1.05-.52,2.03-1.14,2.93-1.91,.46-.4,.6-.8,.25-1.33-.17-.26-.19-.61-.42-.84Z" fill="#fefefe"/><path d="M50.88,39.43c.16,.09,.25,.23,.3,.45-.23-.01-.33-.17-.43-.32,.04-.04,.09-.09,.13-.13Z" fill="#ca9965"/><path d="M50.73,4.94c-1.74-.99-3.46-2.02-5.34-2.71-.8-.29-1.58-.62-2.42-.79-.03-.03-.04-.05-.03-.08,0-.03,.02-.04,.03-.04,3.06,.13,5.8,1.23,8.41,2.74-.22,.3-.43,.59-.65,.89Z" fill="#fefdfd"/><path d="M42.96,1.31s0,.08,0,.12c-.27-.09-.57-.03-.81-.21,.27,0,.55-.09,.81,.09Z" fill="#fbaba3"/><path d="M20.54,10.44c-.17,0-.31,0-.45,0-1.03-.05-1.48-.59-1.34-1.6,.26-1.79,2.09-3.53,3.9-3.8,1.14-.18,2.2-.08,3.23,.46,1.43,.75,1.56,1.86,.13,2.57-1.3,.65-2.51,1.44-3.82,2.05-.53,.25-1.09,.37-1.65,.33Z" fill="#fefefe"/><path d="M53.42,4.8c1.13,.1,2.5,.69,2.69,2.08,.08,.63-.15,.96-.78,.92-.7-.04-1.27-.43-1.86-.76-.41-.23-.77-.55-1.14-.86-.23-.19-.44-.44-.35-.77,.08-.3,.36-.42,.64-.48,.29-.06,.57-.19,.81-.14Z" fill="#fefefe"/><path d="M39.88,9.96c1.91-.05,3.57,.46,5.04,1.48,1.34,.92,1.87,2.26,1.62,3.86-.2,1.28-.88,2.24-2.12,2.76-.59,.24-1.22,.24-1.82,.25-1.35,.02-2.64,.32-3.94,.59-2.61,.56-5.13-.94-5.7-3.45-.31-1.38,.28-2.5,1.22-3.45,1.12-1.13,2.53-1.68,4.08-1.92,.57-.09,1.14-.17,1.62-.12Z" fill="#e0e0e0"/><path d="M13.83,19.19c-1.35,0-2.04-.98-1.56-2.25,.34-.9,.92-1.6,1.77-2.1,1.14-.66,2.3-.08,2.77,.57,.61,.85,.43,2.02-.42,2.79-.66,.6-1.67,.98-2.56,.98Z" fill="#e0e0e0"/><path d="M57.94,10.91c1.03,.42,1.43,1.3,1.68,2.29-.22,.26-.19,.61-.33,.91-.51,1.04-1.58,1.34-2.53,.69-.85-.59-1.23-1.7-.91-2.68,.3-.93,.72-1.17,2.1-1.2Z" fill="#e0e0e0"/><path d="M47.06,5.05c1.16,.05,1.91,.85,2,1.81,.07,.68-.5,1.25-1.15,1.25-.91,0-1.93-.96-1.95-1.85-.01-.71,.43-1.2,1.1-1.22Z" fill="#fefefd"/><path d="M64.91,22.07c.71,.03,1.5,1.05,1.36,1.75-.1,.48-.65,.75-1.12,.51-.51-.27-.85-.72-1.07-1.24-.21-.49,.28-1.05,.83-1.03Z" fill="#fefdfd"/><path d="M51.01,9.89c-.4,0-.97-.53-.95-.93,.02-.38,.25-.58,.62-.58,.35,0,.9,.55,.92,.9,.02,.34-.24,.61-.59,.61Z" fill="#fefbfa"/><path d="M34.36,51.19c.92,.3,1.86,.08,2.77-.44,.22-.13,.47-.06,.68,.07,.7,.43,1.48,.57,2.29,.58,.31,0,.65,0,.67,.42,.02,.35-.24,.49-.55,.49-.35,0-.35,.24-.38,.48-.13,1.03-.32,2.04-.7,3.02-.17,.45-.39,.87-.69,1.25-.78,.97-1.8,.96-2.55-.03-.66-.87-.87-1.91-1.07-2.95-.07-.35-.13-.71-.13-1.07,0-.47-.04-.85-.63-.94-.25-.04-.38-.29-.31-.56,.07-.25,.26-.34,.61-.31Z" fill="#553826"/><path d="M43.82,46.6c1.01,.08,1.96,.32,2.8,.91,.67,.47,.96,1.03,.76,1.54-.25,.68-.87,.78-1.48,.79-1.12,.02-2.16-.29-3.08-.95-.49-.35-.88-.8-.7-1.46,.18-.64,.77-.74,1.33-.81,.12-.01,.24-.01,.36-.02Z" fill="#553826"/><path d="M30.42,46.48c.97,0,1.61,.32,1.75,.82,.16,.56-.15,1.14-.9,1.6-1.01,.62-2.1,.94-3.3,.77-.47-.06-.91-.24-1.06-.74-.17-.54,.08-.97,.48-1.32,.9-.78,1.98-1.06,3.03-1.14Z" fill="#553826"/><path d="M25.45,50.35c.48-.05,.97,.05,1.44,.3,.48,.25,.74,.62,.74,1.19,0,.59-.36,.88-.81,1.05-.87,.33-1.76,.31-2.58-.16-.48-.27-.88-.66-.8-1.28,.06-.49,.77-1.05,1.36-1.1,.2-.02,.4,0,.65,0Z" fill="#feacb1"/><path d="M48.64,50.34c.45-.06,.95,.04,1.37,.4,.64,.54,.66,1.17,.05,1.73-.73,.69-2.33,.83-3.19,.29-.8-.51-.79-1.54,.03-2.05,.44-.27,.87-.37,1.74-.37Z" fill="#feacb1"/><path d="M37.42,17.76c-1.32,.04-2.31-.7-3.01-1.9-.7-1.2-.17-2.33,.81-3.16,1.69-1.43,3.7-1.65,5.83-1.47,1.1,.09,2.01,.59,2.97,1.02,.87,.39,1.47,1.71,1.34,2.85-.1,.85-.81,1.7-1.62,1.88-.52,.11-1.07,.12-1.6,.14-1.22,.06-2.39,.35-3.58,.56-.34,.06-.67,.04-1.14,.08Z" fill="#fefefe"/><path d="M14.02,17.99c-.6,0-.78-.21-.61-.66,.24-.64,.7-1.11,1.29-1.43,.46-.25,.85-.08,1.13,.33,.27,.4,.07,.71-.21,1-.46,.48-1.06,.67-1.6,.76Z" fill="#fefefe"/><path d="M56.98,12.83c-.01-.35,.04-.66,.46-.71,.36-.04,.89,.63,.85,1.08-.03,.32-.16,.65-.55,.68-.4,.03-.76-.49-.76-1.05Z" fill="#fefefe"/><path d="M35.62,52.71c-.14-.33,.08-.48,.45-.53,.12-.01,.26-.01,.35-.08,.75-.57,1.45-.15,2.17,.07,.23,.07,.32,.2,.29,.44-.15,1.23-.36,2.45-1,3.53-.49,.84-1.01,.81-1.45-.07-.52-1.03-.72-2.14-.81-3.37Z" fill="#e52c20"/></svg>