<?xml version="1.0" encoding="UTF-8"?><svg id="Layer_1" xmlns="http://www.w3.org/2000/svg" viewBox="0 0 61.44 65.36"><path d="M44.03,58.7c.99,.29,2.02,.36,3.04,.48,1.26,.15,2.53,.29,3.73,.72,.47,.17,.89,.38,.92,.96,.02,.6-.42,.84-.86,1.02-1.1,.44-2.26,.63-3.44,.66-.46,.01-.8,.09-1.09,.54-.34,.53-.97,.76-1.55,.94-1.33,.42-2.71,.65-4.09,.79-2.44,.25-4.88,.3-7.33,.4-2.02,.08-4.03,.1-6.04,.06-2.9-.07-5.8-.21-8.68-.59-2.06-.28-4.14-.55-6.05-1.5-.44-.22-.82-.5-1.04-.95-.13-.26-.35-.33-.57-.38-.36-.07-.69-.2-1-.38-.9-.51-.92-1.44-.06-2,.72-.46,1.52-.7,2.36-.77,1.7-.15,3.41-.25,5.11-.37,.09,0,.18-.06,.28-.08,.2-.12,.34,.03,.48,.12,2.55,1.64,5.37,2.51,8.34,2.92,2.4,.33,4.8,.27,7.22,.15,2.19-.1,4.33-.4,6.4-1.11,1.15-.4,2.27-.87,3.32-1.49,.18-.11,.36-.27,.6-.14Z" opacity=".3"/><path d="M14.33,34.25c-1.42-.22-2.84-.47-4.24-.83-2.21-.58-4.37-1.24-6.22-2.68-2.46-1.91-3.58-4.42-3.5-7.51,.09-3.5,1.58-6.41,3.77-9.03,2.86-3.42,6.18-6.32,9.89-8.78,.16-.11,.35-.18,.52-.27,.25,.36,.29,.78,.32,1.2-.07,.25-.29,.37-.49,.5-2.95,1.95-5.57,4.29-7.97,6.87-1.75,1.89-3.37,3.91-4.15,6.45-.1,.34-.22,.67-.24,1.06,.42-.08,.69-.33,1.01-.5,5.92-3.1,12.22-4.99,18.85-5.82,3.28-.41,6.57-.57,9.86-.44,5.55,.21,11,1.09,16.32,2.69,3.78,1.14,7.44,2.56,10.95,4.35,.2,.09,.37,.22,.62,.31-.24-2.05-.98-3.85-2.15-5.48-2.17-3.05-4.86-5.6-7.76-7.93-.19-.15-.38-.29-.52-.49-.14-.51,0-.97,.23-1.43,2.7,1.97,5.16,4.2,7.34,6.73,1.5,1.74,2.88,3.56,3.6,5.77,.96,2.94,1.18,5.88-.4,8.7-1.3,2.32-3.4,3.67-5.84,4.55-2.07,.74-4.2,1.24-6.38,1.57-.49-.27-.49-.75-.51-1.22,.23-.19,.52-.19,.79-.24,2.31-.37,4.59-.88,6.72-1.86,2.56-1.17,4.39-3.01,4.88-5.92,.14-.83,.08-.97-.68-1.37-.74-.38-1.5-.74-2.25-1.12-.39-.23-.81-.38-1.22-.55-2.16-1.03-4.41-1.86-6.68-2.62-.52-.13-1.02-.32-1.54-.46-3.19-.9-6.42-1.62-9.71-2.04-1.7-.21-3.4-.43-5.12-.43-.58,0-1.15-.16-1.73-.12-.39,.01-.78,.01-1.17,0-4.75,.04-9.45,.56-14.06,1.73-.41,.08-.82,.19-1.23,.29-2.37,.66-4.69,1.48-6.95,2.46-.45,.17-.85,.42-1.29,.61-1.32,.57-2.55,1.32-3.81,2-.34,.18-.45,.47-.45,.84,0,2.65,1.22,4.64,3.35,6.14,1.72,1.21,3.71,1.73,5.7,2.23,1.14,.28,2.29,.55,3.46,.66,.22,.02,.43,.07,.62,.2,.03,.51-.05,.98-.57,1.23Z" fill="#da0000"/><path d="M47.3,32.59c.15,.4,.22,.83,.47,1.2,.54,1.28,1.09,2.56,1.63,3.84,1,2.4,1.68,4.86,1.87,7.47,.24,3.27-.46,6.25-2.33,8.93-1.31,1.89-3.03,3.37-4.91,4.67-1.8,1.05-3.68,1.88-5.72,2.34-1.42,.32-2.85,.48-4.3,.57-1.56,.1-3.11,.11-4.66,.09-3.22-.05-6.32-.71-9.26-2.04-.85-.38-1.66-.87-2.42-1.41-2.06-1.54-3.89-3.29-5.13-5.59-.81-1.5-1.28-3.11-1.45-4.81-.43-4.16,.79-7.97,2.46-11.69,.28-.63,.63-1.24,.8-1.92,.31-.33,.35-.78,.56-1.15,.03-.72,.48-1.29,.66-1.96,.09-.34,.25-.67,.4-1,.14-.36,.29-.71,.42-1.07,.14-.49,.32-.97,.45-1.52-.34,.03-.57,.2-.82,.29-.44,.16-.86,.03-1.03-.32-.17-.36-.04-.79,.35-1.03,.55-.33,1.16-.51,1.76-.72,.48-.15,.96-.3,1.43-.47,1.59-.61,3.26-.93,4.93-1.23,2.02-.36,4.06-.63,6.12-.65,.54,0,1.07-.18,1.61-.09,.07,0,.14,.02,.21,.03,.53,.14,1.07,.06,1.61,.07,3.83,.02,7.56,.59,11.13,2.03,.45,.22,.92,.4,1.33,.71,.31,.29,.39,.64,.18,1.02-.16,.29-.08,.57,0,.86,.14,.43,.28,.86,.43,1.29,.12,.39,.3,.76,.42,1.15,.27,.71,.64,1.37,.82,2.12Z" fill="#d39579"/><path d="M21.4,1.79c1.28-.34,2.54-.71,3.83-1.03C28.18,.04,31.17-.16,34.18,.13c3.75,.37,7.25,1.58,10.56,3.34-.34,.44-.81,.68-1.35,.8-.8-.3-1.56-.71-2.36-1-2.18-.79-4.37-1.5-6.69-1.74-.25-.09-.51-.07-.77-.06-1.81-.09-3.62-.13-5.42,.15-1.75,.27-3.48,.69-5.19,1.16-.19,.05-.38,.13-.58,.14-.49-.24-.85-.59-.98-1.14Z" fill="#da0000"/><path d="M21.4,1.79c.25,.38,.7,.6,.85,1.06,.33,.85,.01,1.56-.51,2.2-.52,.65-1.22,1.09-1.97,1.43-1.06,.47-2.14,.9-3.33,.85-.71-.03-1.33-.27-1.64-.99-.17-.38-.23-.78-.24-1.19,.28-.88,.5-1.78,1.2-2.48,1.28-1.26,3.41-1.85,5.14-.95,.16,.08,.32,.16,.5,.07Z" fill="#e0e0e0"/><path d="M43.45,4.19c.43-.24,.86-.48,1.29-.72,.58,.25,1.21,.03,1.81,.19,1.51,.4,2.48,1.3,2.89,2.81,.1,.48-.28,.93-.12,1.42-.15,.22-.32,.41-.53,.57-2.33,.91-5.36-.61-5.77-3.27,.07-.36,.11-.74,.43-1Z" fill="#e0e0e0"/><path d="M43.09,5.14c.27,.52,.37,1.12,.72,1.62,1.01,1.45,2.9,2.14,4.62,1.66,.13-.04,.27-.03,.41-.04,.65,.11,1.06,.62,1.51,1.01,1.25,1.08,2.44,2.23,3.52,3.49,.31,.36,.45,.69,.31,1.18-.37,1.3,.81,2.73,2.15,2.65,.38-.02,.64,.05,.86,.38,.82,1.29,1.43,2.67,1.89,4.12,.05,.15,.09,.31-.02,.46-2.05-.98-4.11-1.92-6.23-2.73-3.53-1.35-7.16-2.39-10.87-3.12-2.39-.47-4.81-.77-7.24-.99-2.55-.23-5.09-.3-7.64-.2-6.11,.26-12.06,1.35-17.81,3.48-2.33,.87-4.62,1.87-6.78,3.12-.2,.12-.42,.21-.7,.34,.19-1.55,.76-2.9,1.54-4.15,1.64-2.62,3.8-4.78,6.07-6.87,1.69-1.55,3.54-2.89,5.39-4.22,.76,.92,1.74,.98,2.81,.72,1.17-.28,2.27-.71,3.26-1.4,.98-.68,1.45-1.61,1.38-2.8,1.99-.68,4.04-1.07,6.11-1.45,.95-.17,1.89-.05,2.84-.2,.8-.12,1.61,.16,2.43,.1,.21,.1,.45,.07,.67,.15,2.93,.68,5.67,1.84,8.3,3.26,.19,.1,.39,.2,.5,.41Z" fill="#fe2700"/><path d="M44.15,25.64c-1.96-.78-3.99-1.33-6.07-1.65-2-.31-4.02-.46-6.06-.4-.23,0-.48,.08-.69-.1,.41-.32,.87-.14,1.31-.15-.39-.23-.63-.62-.86-1.01-1.15-1.93-1.33-4.05-1.2-6.23,0-.14,.05-.27,.16-.37,1.63,.05,3.26,.15,4.88,.3,2.57,.25,5.12,.66,7.64,1.22,1.39,.31,2.78,.64,4.14,1.09,.48,.51,.33,1.15,.24,1.71-.34,2.19-1.43,3.98-3.12,5.4-.11,.09-.24,.14-.37,.19Z" fill="#c97765"/><path d="M31.23,23.47c-4.11,.16-8.18,.59-12.13,1.78-.21,.06-.39,.17-.59,.26-.54-.21-.92-.61-1.24-1.08-1.29-1.89-2-3.97-2.02-6.27,0-.24-.01-.48,.14-.69,1.55-.52,3.16-.77,4.76-1.03,2.91-.47,5.85-.71,8.8-.75,.2,0,.4,.01,.6,.02,.24,.27,.18,.6,.16,.91-.17,2.22,.28,4.3,1.36,6.24,.1,.19,.25,.37,.17,.61Z" fill="#c97765"/><path d="M16.11,30.18c-.45,.96-.69,1.99-1.21,2.92-2.6-.37-5.17-.87-7.62-1.84-2.48-.99-4.46-2.53-5.33-5.2-.27-.83-.36-1.67-.35-2.53,0-.23,.04-.41,.27-.54,1.37-.78,2.71-1.59,4.18-2.19,.17,.1,.2,.28,.25,.46,1.39,4.64,4.47,7.5,9.14,8.68,.23,.06,.47,.08,.67,.24Z" fill="#c97765"/><path d="M45.97,29.35c-.31-.55-.47-1.15-.62-1.76-.03-.13-.08-.26,.05-.38,.37-.35,.18-.67-.04-1-.02-.38,.3-.54,.51-.76,1.24-1.34,2.17-2.84,2.58-4.64,.11-.47,.1-.95,.12-1.42,0-.22-.06-.49,.25-.6,1.86,.52,3.64,1.25,5.41,2,.46,.19,.93,.34,1.34,.63,.17,.23,.13,.49,.08,.75-.2,1.24-.75,2.31-1.55,3.26-1.93,2.27-4.39,3.59-7.33,4.05-.27,.04-.56,.08-.8-.12Z" fill="#c97765"/><path d="M17.08,25.87c-.51,.21-1.01,.43-1.52,.64-.43,.18-.67,.51-.47,.93,.21,.45,.62,.39,1.02,.18,.28-.15,.58-.25,.93-.39-.11,.69-.33,1.28-.55,1.88-1.35,0-2.61-.42-3.77-1.04-2.66-1.41-4.47-3.57-5.38-6.45-.14-.44-.35-.9-.09-1.38,1.84-.91,3.78-1.54,5.73-2.16,.4-.13,.8-.23,1.2-.34,.21,.18,.16,.43,.17,.67,.13,2.56,.86,4.91,2.49,6.94,.12,.15,.29,.28,.23,.52Z" fill="#c97765"/><path d="M47.3,32.59c-.5-.6-.58-1.4-.97-2.06,.33-.21,.72-.19,1.09-.27,3.51-.7,6.32-2.44,8.24-5.51,.4-.65,.65-1.36,.82-2.11,.06-.25,.07-.52,.27-.71,.91,.45,1.81,.91,2.72,1.35,.31,.15,.42,.36,.39,.71-.19,2.06-1.06,3.76-2.63,5.11-1.91,1.64-4.24,2.3-6.61,2.87-1.1,.27-2.19,.56-3.33,.61Z" fill="#c97765"/><path d="M59.06,21.66c-.44-1.65-1.17-3.17-2.06-4.61-.16-.26-.32-.2-.54-.18-1.6,.18-2.94-1.54-2.36-3.05,.1-.25,.05-.39-.11-.57-1.58-1.77-3.23-3.47-5.16-4.88,.04-.28,.2-.44,.49-.48,2.96,2.29,5.66,4.84,7.93,7.84,1.41,1.88,2.34,3.94,2.59,6.33-.3-.07-.54-.23-.77-.4Z" fill="#fefefe"/><path d="M56.75,21.94c-.19,1.61-.86,2.99-1.9,4.23-1.87,2.22-4.24,3.57-7.05,4.18-.48,.1-.96,.24-1.47,.19-.06-.41-.37-.75-.36-1.18,2.64-.14,4.93-1.13,6.88-2.89,1.04-.94,1.95-1.99,2.4-3.36,.18-.55,.3-1.11,.31-1.69,.42,.12,.81,.31,1.19,.53Z" fill="#8c4f42"/><path d="M7.25,20.24c.14,1.9,.98,3.52,2.16,4.95,1.51,1.83,3.41,3.1,5.76,3.62,.44,.1,.91,.06,1.31,.3-.13,.35-.25,.71-.38,1.06-1.98-.19-3.73-.99-5.29-2.15-2-1.49-3.52-3.38-4.41-5.74-.18-.49-.24-1-.36-1.5,.39-.22,.77-.44,1.2-.55Z" fill="#8c4f42"/><path d="M17.08,25.87c-2.06-2.32-2.88-5.07-2.89-8.12,.39-.11,.78-.26,1.19-.28-.06,2.11,.43,4.08,1.41,5.94,.43,.82,1.04,1.48,1.71,2.1-.5,.04-.92,.36-1.43,.36Z" fill="#8c4f42"/><path d="M48.81,18.78c-.23,.65-.03,1.33-.19,2-.45,1.87-1.38,3.45-2.69,4.83-.19,.2-.38,.4-.57,.61-.4-.19-.8-.38-1.21-.58,.67-.64,1.36-1.27,1.88-2.05,.9-1.36,1.58-2.8,1.5-4.49-.01-.26-.06-.51-.13-.76,.47,.15,.94,.3,1.41,.45Z" fill="#8c4f42"/><path d="M31.23,23.47c-1.21-1.79-1.65-3.81-1.78-5.92-.04-.61,.14-1.22,.09-1.84,.4,0,.8,0,1.21,0-.02,1.67-.12,3.34,.47,4.95,.37,1.01,.82,1.97,1.74,2.82-.65,0-1.13,0-1.62,0-.04,0-.07-.01-.11-.02Z" fill="#8c4f42"/><path d="M33.27,60.26c-1.91,0-3.84,.14-5.74,0-5.56-.43-10.22-2.6-13.44-7.35-1.1-1.63-1.66-3.47-1.82-5.43-.29-3.61,.68-6.96,2.11-10.22,.96-2.19,2.01-4.33,2.83-6.58,.05-.13,.14-.24,.21-.36,1.02-1.54,2.49-2.5,4.15-3.21,1.91-.81,3.92-1.2,5.98-1.41,1.81-.18,3.62-.28,5.43-.23,3.45,.11,6.78,.75,9.86,2.38,.66,.35,1.27,.75,1.63,1.44,.3,2.22,1.17,4.26,2.07,6.28,1.48,3.31,2.53,6.72,2.44,10.39-.07,2.91-1.16,5.43-2.96,7.67-2.18,2.73-5.07,4.39-8.34,5.46-1.46,.48-2.89,1.05-4.44,1.16Z" fill="#f4e9d6"/><path d="M33.27,60.26c1.61-.42,3.21-.88,4.78-1.44,2.67-.94,5.09-2.27,7.05-4.35,1.84-1.94,3.1-4.19,3.58-6.83,.32-1.77,.16-3.56-.14-5.34-.46-2.78-1.54-5.34-2.69-7.88-.61-1.35-1.04-2.75-1.41-4.18-.07-.28-.03-.59-.05-.89,.15-.07,.18,.05,.22,.14,1.23,3.37,2.89,6.55,4.16,9.9,.74,1.94,1.13,3.95,1.28,6.03,.32,4.6-1.61,8.11-5.02,10.99-2.37,2.01-5.2,2.94-8.15,3.61-1.19,.27-2.41,.28-3.62,.23Z" fill="#fefefe"/><path d="M44.62,29.49c-.07-.05-.15-.09-.22-.14-.91-1.25-2.3-1.74-3.65-2.26-2.03-.78-4.15-1.17-6.32-1.36-1.97-.17-3.94-.11-5.9,.04-2.76,.21-5.48,.66-7.97,2-.73,.39-1.39,.85-1.98,1.42-.38,.37-.71,.81-1.16,1.11,.25-1.15,.76-2.22,.96-3.38,.04-.24,.25-.25,.4-.3,1.97-.63,3.99-1.04,6.03-1.38,3.1-.52,6.23-.56,9.35-.43,3.22,.13,6.39,.69,9.41,1.91,.2,.08,.33,.19,.38,.41,.21,.79,.44,1.57,.66,2.35Z" fill="#fdbb9c"/><path d="M43.09,5.14c-1.24-.61-2.47-1.23-3.72-1.82-1.65-.78-3.42-1.22-5.14-1.8-.02-.11,0-.17,.13-.12,2.69,.21,5.19,1.09,7.66,2.1,.49,.2,.96,.46,1.43,.69-.11,.32-.15,.66-.35,.94Z" fill="#fefdfd"/><path d="M34.35,1.4s-.08,.08-.13,.12c-.21-.05-.44-.03-.6-.21,.25,0,.5-.07,.73,.1Z" fill="#fcb7ae"/><path d="M19.14,2.5c.62-.12,1.14,.36,1.75,.52,.22,.06,.15,.3,.11,.47-.15,.68-.63,1.09-1.19,1.41-.9,.53-1.87,.88-2.9,1.06-.82,.15-1.2-.3-1-1.12,.33-1.35,1.67-2.34,3.22-2.34Z" fill="#fefefe"/><path d="M45.62,4.79c1.16-.01,2.19,.67,2.51,1.65,.18,.55-.03,.88-.6,.94-1,.11-2.41-.68-2.87-1.61-.33-.67-.24-.86,.48-.99,.15-.03,.32,0,.48,0Z" fill="#fefefe"/><path d="M30.06,7.77c.8,.01,1.5,.13,2.07,.55,.58,.42,1.14,.44,1.79,.25,.75-.22,1.43-.12,2.15,.32,.86,.54,1.11,1.38,.81,2.44-.52,1.85-1.97,2.61-3.71,2.9-1.78,.3-3.43-.13-4.95-1.07-1.06-.66-1.74-1.58-1.52-2.87,.22-1.29,1.16-1.99,2.35-2.36,.35-.11,.73-.2,1.02-.16Z" fill="#e0e0e0"/><path d="M13.37,12.35c-.99,0-1.76-.51-1.93-1.27-.19-.9,.28-1.7,1.26-2.11,1.39-.59,3,.3,2.94,1.63-.04,.97-1.05,1.75-2.27,1.75Z" fill="#e0e0e0"/><path d="M51.83,13.09c0,1-.68,1.76-1.57,1.75-1.11,0-2.15-1.13-2.14-2.3,.01-.98,.74-1.78,1.64-1.77,1.14,0,2.08,1.06,2.07,2.32Z" fill="#e0e0e0"/><path d="M40.11,6.66c-.57-.02-1.14-.6-1.08-1.15,.05-.46,.28-.79,.8-.78,.59,0,1.11,.53,1.1,1.11,0,.49-.36,.84-.83,.82Z" fill="#fefcfc"/><path d="M55.35,18.52c.03-.34,.16-.6,.53-.63,.35-.03,.76,.41,.74,.8-.02,.34-.22,.59-.57,.57-.44-.02-.65-.33-.7-.74Z" fill="#fef8f7"/><path d="M42.21,8.27c-.25-.02-.44-.18-.44-.51,0-.33,.19-.52,.51-.52,.32,0,.52,.2,.52,.52,0,.32-.17,.51-.59,.51Z" fill="#fef1ef"/><path d="M31.01,34.7c.4,0,.8,0,1.2,0,.45,0,.73,.2,.72,.68-.06,2.07-.22,4.14-.96,6.1-.22,.58-.48,1.23-1.23,1.21-.8-.01-1.08-.69-1.28-1.32-.52-1.66-.56-3.38-.48-5.1,0-.02,0-.04,0-.06,.12-1.55-.18-1.52,1.66-1.5,.12,0,.24,0,.36,0,0,0,0-.01,0-.02Z" fill="#553826"/><path d="M38.05,32.01c.05,.63-.08,1.23-.39,1.78-.24,.43-.59,.75-1.13,.75-.55,0-.9-.33-1.1-.78-.55-1.19-.53-2.39,.11-3.53,.53-.94,1.59-.92,2.14,.02,.32,.55,.42,1.15,.37,1.77Z" fill="#553826"/><path d="M22.25,34.86c.47-.05,.96,.06,1.43,.31,.48,.26,.72,.63,.72,1.2,0,.59-.38,.87-.83,1.04-.85,.32-1.71,.29-2.53-.15-.59-.32-.93-.88-.83-1.32,.11-.49,.8-1.03,1.38-1.07,.2-.01,.4,0,.66,0Z" fill="#feacb1"/><path d="M40.02,34.87c.56-.07,1.07,.02,1.51,.4,.63,.55,.63,1.17,.01,1.73-.77,.69-2.33,.82-3.19,.26-.77-.5-.77-1.52,.02-2.01,.5-.32,1.05-.46,1.65-.38Z" fill="#feacb1"/><path d="M25.96,31.95c-.49-.4-.92-.75-1.35-1.11-.29-.24-.35-.55-.15-.85,.21-.32,.55-.31,.85-.13,.75,.42,1.47,.88,2.13,1.43,.49,.41,.46,.97-.08,1.36-.58,.42-1.18,.81-1.78,1.19-.35,.22-.76,.28-1.01-.11-.25-.39-.04-.71,.32-.96,.36-.25,.7-.53,1.08-.82Z" fill="#553826"/><path d="M32.09,13.05c-1.28,.06-2.36-.32-3.33-1-.53-.37-1.03-.84-.88-1.57,.15-.74,.73-1.13,1.39-1.35,.79-.26,1.6-.22,2.29,.27,.85,.6,1.72,.64,2.67,.35,.17-.05,.35-.06,.53-.06,.76,.01,1.16,.55,.97,1.28-.26,1-1,1.49-1.89,1.82-.58,.22-1.19,.31-1.74,.25Z" fill="#fefefe"/><path d="M13.39,11.13c-.37,0-.76-.04-.72-.49,.04-.49,.47-.57,.89-.59,.39-.02,.85,.1,.81,.49-.05,.44-.52,.6-.98,.6Z" fill="#fefefe"/><path d="M50.63,13.1c-.07,.18-.06,.5-.41,.5-.38,0-.93-.65-.89-1.06,.03-.27,.13-.51,.47-.5,.42,0,.84,.53,.83,1.06Z" fill="#fefefe"/><path d="M30.69,41.68c-.65-1.02-.65-2.12-.75-3.17-.08-.77,0-1.55-.02-2.33,0-.36,.14-.51,.5-.48,.38,.02,.75,0,1.13-.08,.29-.05,.52,.02,.5,.4-.11,1.5-.21,3.01-.71,4.45-.14,.41-.31,.81-.63,1.21Z" fill="#e52c20"/></svg>