<?xml version="1.0" encoding="UTF-8"?><svg id="Layer_1" xmlns="http://www.w3.org/2000/svg" viewBox="0 0 105.41 110.16"><path d="M87.06,19.55c.71,.23,1.27,.72,1.87,1.13,4.08,2.78,7.72,6.03,10.65,10.04,2.51,3.44,4.32,7.2,4.97,11.44,.6,3.92,.82,7.84-.9,11.6-1.86,4.07-4.97,6.9-8.86,8.96-3.11,1.65-6.48,2.58-9.91,3.31-2.02,.43-4.06,.67-6.09,1.01-.24-.11-.26-.29-.19-.51,.96-.62,2.02-1.03,3.09-1.41,2.58-.35,5.11-.96,7.6-1.72,2.52-.78,4.93-1.8,7.09-3.34,2.9-2.06,5.23-4.61,6.37-8.08,.26-.78,.23-.8-.5-1.14-2.25-1.03-4.51-2.04-6.85-2.84-.38-.17-.78-.31-1.19-.43-4.55-1.55-9.18-2.75-13.9-3.66-.45-.1-.9-.19-1.36-.24-3.87-.72-7.77-1.26-11.69-1.61-2.67-.24-5.35-.47-8.04-.52-.76-.01-1.52-.11-2.28-.11-.43,.02-.86,.01-1.29,0-1.59,.03-3.17,0-4.76,.02-3.51,.05-7,.26-10.49,.59-1.68,.16-3.36,.36-5.04,.54-.47,.06-.93,.13-1.4,.21-3.08,.41-6.13,1.01-9.17,1.7-2.31,.52-4.6,1.14-6.86,1.84-.44,.12-.88,.28-1.31,.42-2.94,.95-5.8,2.11-8.56,3.49-.74,.37-.75,.42-.52,1.23,.88,3,2.67,5.39,5.02,7.4,2.85,2.45,6.23,3.85,9.8,4.87,2.57,.73,5.19,1.2,7.82,1.61,.67,.28,1.41,.36,2.03,.77,.01,.38,.03,.75-.42,.92-2.65-.41-5.31-.77-7.92-1.41-4.01-.98-7.88-2.31-11.23-4.83-3.44-2.59-5.87-5.86-6.81-10.14-.38-1.75-.36-3.51-.26-5.29,.12-2.11,.51-4.16,.99-6.21,.45-.04,.72,.29,1.02,.54,.27,.23,.04,.46-.12,.65-.42,.5-.69,1.04-.64,1.72,.02,.38,.26,.66,.35,1,.09,.79-.07,1.56-.14,2.33-.09,.95-.07,1.9-.07,2.85,0,.57,.13,.63,.66,.38,1.17-.55,2.34-1.09,3.53-1.58,.2-.08,.38-.19,.6-.19,.73,.16,1.19-.34,1.7-.7,1.51-.67,3.1-1.13,4.67-1.62,5.15-1.59,10.41-2.67,15.73-3.43,3.01-.43,6.04-.72,9.08-.97,5.02-.42,10.05-.4,15.08-.34,2.07,.03,4.13,.18,6.2,.33,3.33,.23,6.65,.59,9.96,1.05,7.2,1.02,14.27,2.61,21.15,5.01,2.36,.82,4.68,1.75,6.93,2.83,.04,.02,.08,.03,.11,.05,1.01,.53,1.1,.51,1.13-.66,.14-5.29-.9-10.29-3.75-14.83-2.48-3.96-5.7-7.22-9.37-10.06-1.05-.82-2.15-1.57-3.25-2.32-.38-.54-.38-1.1-.08-1.68Z" fill="#da0000"/><path d="M72.32,103.62c1.33,.18,2.68,.33,3.94,.83,.41,.16,.73,.42,.77,.91,.03,.47-.24,.74-.61,.95-.15,.08-.3,.17-.45,.22-1.12,.4-2.28,.61-3.46,.64-.51,.01-.89,.1-1.21,.6-.36,.55-1.03,.8-1.66,.99-1.43,.43-2.91,.68-4.4,.83-2.56,.26-5.13,.31-7.7,.42-2.18,.09-4.35,.1-6.53,.06-2.21-.04-4.42-.17-6.62-.37-2.49-.23-4.99-.48-7.39-1.26-1.01-.33-2.08-.65-2.63-1.72-.12-.23-.39-.23-.61-.29-.43-.12-.85-.26-1.21-.53-.66-.5-.66-1.32,0-1.82,.74-.57,1.62-.81,2.52-.94,.69-.1,1.38-.21,2.08-.15,.27-.17,.49,0,.7,.12,2.76,1.63,5.8,2.24,8.93,2.63,4.32,.54,8.65,.42,12.98,.33,3.01-.06,6.03-.42,8.96-1.22,.96-.26,1.87-.65,2.78-1.07,.26-.12,.51-.34,.83-.15Z" opacity=".3"/><path d="M72.32,103.62c-1.56,.69-3.12,1.38-4.81,1.72-1.65,.33-3.32,.52-4.99,.71-3.81,.43-7.64,.29-11.46,.21-3.38-.08-6.76-.43-10.02-1.49-1.19-.39-2.31-.94-3.39-1.56-.16-.09-.34-.15-.52-.22-.87-.63-1.76-1.23-2.59-1.91-1.75-1.42-3.02-3.24-4.12-5.17-1.49-2.61-2.34-5.45-2.78-8.4-.29-1.99-.12-4,.06-6,.4-4.52,1.86-8.74,3.52-12.91,.2-.51,.38-1.03,.57-1.54,.26-.24,.23-.61,.38-.89-.2-.45,.11-.85,.12-1.28,.17-.44,.16-.96,.52-1.33,.57-.19,1.04-.05,1.44,.39-.34,1.23-.55,2.5-1.05,3.69-1.74,4.19-3.31,8.43-3.94,12.96-.12,.84-.19,1.68-.22,2.52-.05,1.6-.14,3.21,.15,4.8,.73,3.99,2.17,7.67,4.94,10.69,2.91,3.17,6.6,4.95,10.84,5.59,2.66,.4,5.32,.68,8.02,.65,2.07-.02,4.15,0,6.22,0,.93,0,1.85-.13,2.78-.19,2-.2,4-.4,5.94-.94,4.47-1.27,8.03-3.75,10.5-7.76,1.64-2.66,2.55-5.57,3.04-8.61,.28-1.78,.14-3.58-.01-5.37-.42-4.93-2.08-9.52-3.98-14.04-.05-.16-.11-.32-.16-.48-.34-.84-.51-1.72-.76-2.59-.07-.24-.13-.49-.02-.74,.31-.4,.73-.5,1.21-.45,.46,.41,.4,1.04,.63,1.54,.14,.43,.27,.86,.26,1.32-.02,.18,.02,.35,.13,.5,1.31,3.46,2.71,6.89,3.49,10.52,.38,1.77,.63,3.56,.72,5.37,.08,1.71,.16,3.42-.14,5.11-.7,3.91-2.09,7.52-4.56,10.69-1.53,1.96-3.46,3.38-5.57,4.61-.14,.08-.28,.18-.42,.27Z" fill="#d39579"/><path d="M7.06,42.99c-.74-.97-.59-1.71,.61-3.08-.37-.24-.73-.49-1.1-.73-1.03-1.7-.63-2.83,1.25-3.53,.11-.04,.18-.16,.27-.24,.44-.26,.85-.15,1.25,.11,.14,.12,.2,.31,.42,.36,.29-.39,.37-.75-.15-1.03-.34-.38-.6-.79-.51-1.34,.06-.14,.07-.26-.12-.31-.16-.41,.07-.79,.1-1.18,.19-.66,.56-1.19,1.07-1.64,.12-.11,.27-.2,.31-.38-.16-.41-.53-.68-.71-1.1-.19-.45-.37-.89-.35-1.38,0-.86,.31-1.59,.93-2.18,.2-.16,.41-.3,.61-.46,.31-.2,.66-.3,1.03-.28,.25,.08,.5,.13,.77,.06,.87,.13,1.62,.55,2.34,1.06,.88-3.1,1.74-3.79,4.01-3.28,.61-.1,.94,.33,1.29,.69,.24,.25,.4,.58,.61,.86,.37,.5,.56,1.08,.63,1.69,.05,.43,.26,.57,.66,.55,.31-.02,.63-.02,.94,.05,.73,.2,1.49,.33,2.13,.78,.56,.51,1.02,1.08,1.11,1.86,.12,1.07-.38,1.89-1.17,2.53-1.25,1.02-2.7,1.66-4.26,2.03-.39,.1-.63,.26-.77,.64-.4,1.1-1.07,2.01-2.03,2.69-.21,.15-.26,.29-.2,.53,.31,1.2-.22,2.1-1.09,2.83-.59,.5-1.3,.81-2.08,.84-.24,.01-.4,.09-.5,.29-.39,.2-.76,0-1.13-.05-.38-.2-.65-.09-.89,.25-.14,.2-.29,.4-.45,.59-.45,.38-.89,.76-1.44,.99-1.16,.54-2.31,.7-3.43-.11Z" fill="#78c1fe"/><path d="M57.11,10.04c.29-.41,.34-.94,.69-1.33,.91-1.02,2.08-1.32,3.38-1.22,.61,.05,.83-.04,.9-.76,.21-2.34,2.1-4.11,4.43-4.31,1.58-.14,3.03,1.06,3.28,2.72,.02,.1,.02,.21,.03,.31,.06,.35,.14,.57,.59,.33,.74-.38,1.56-.49,2.39-.47,.23,0,.47,.05,.67-.12,.47-.25,.77,.15,1.15,.29,.34,.28,.72,.52,1.02,.84,.52,.68,.88,1.41,.76,2.3-.1,.71-.21,1.42-.65,2.03-.13,.18-.28,.33-.46,.47-.38,.26-.05,.38,.12,.49,.94,.63,1.62,1.46,2.01,2.52,.19,.35,.3,.72,.28,1.13,0,1.38-.39,1.93-1.68,2.41-.32,.12-.65,.19-.97,.29-.45,.15-.93,.12-1.4,.2-.8-.08-1.61-.03-2.38-.29-.36-.12-.54,.02-.71,.32-.35,.64-.82,1.17-1.42,1.6-1.15,.82-2.4,.76-3.5-.15-.87-.72-1.43-1.67-1.85-2.69-.18-.45-.45-.63-.92-.71-1.82-.33-3.26-1.34-4.51-2.66-.59-.69-.94-1.52-1.34-2.31-.14-.41-.26-.82,.07-1.21Z" fill="#78c1fe"/><path d="M74.59,5.59c-.38-.13-.71-.39-1.13-.4,.3-1.17,1.04-2.06,1.88-2.86,.49-.47,.94-.97,1.29-1.54,.41-.67,.93-.74,1.52-.21,.88,.78,1.15,1.85,1.26,2.94,.16,1.6-.07,3.14-.96,4.56,.42,.15,.8-.05,1.17-.1,1.43-.18,2.82,.1,4.2,.32,.68,.11,1.29,.02,1.91-.21,.41-.16,.82-.28,1.18,.07,.39,.38,.27,.83,.07,1.23-.94,1.98-2.45,3.4-4.35,4.43-.14,.08-.29,.16-.43,.24-.37,.59-1.04,.59-1.6,.78-.32,.11-.66,.16-.97,.27-.45,.14-.91,.19-1.37,.26-.25,.04-.51,.06-.72-.15,.03-.41-.18-.76-.28-1.14,.07-.36,.38-.26,.6-.3,1.97-.28,3.82-.88,5.4-2.13,.59-.47,1.15-.98,1.57-1.62,0-.13-.08-.2-.19-.2-1.37-.05-2.69-.44-4.07-.41-.83,.02-1.63,.13-2.42,.38-.65,.22-1.28,.53-1.92,.78-.2,.08-.41,.25-.64,.06,.36-.63,.52-1.32,.66-2.02,.08-.17,.16-.34,.29-.48,1.5-1.68,1.72-3.62,1.12-5.72-.11-.22-.23-.19-.38-.04-.79,.81-1.64,1.56-2.21,2.56-.11,.17-.18,.35-.29,.52-.06,.07-.13,.12-.22,.13Z" fill="#319d29"/><path d="M20.87,24.01c-.5-.62-.89-1.36-1.76-1.56,.62-.42,1.06-.95,1.41-1.64,1.61-3.12,4.19-4.95,7.64-5.61,1.1-.21,2.18-.04,3.26,.02,.59,.07,1.09,.36,1.58,.67,.32,.17,.58,.42,.86,.65,.91,.73,1.13,1.63,.66,2.71-.63,1.46-1.6,2.68-2.74,3.76-1.67,1.57-3.5,2.92-5.57,3.93-.28,.14-.56,.32-.9,.23-.63-.39-1.36-.52-2.04-.77,.12-.17,.31-.22,.49-.27,1.66-.44,3.11-1.31,4.48-2.31,1.61-1.18,3.1-2.49,4.21-4.17,.91-1.38,.87-1.62-.52-2.48-1-.62-2.12-.78-3.24-.6-3.29,.55-5.74,2.26-7.13,5.36-.2,.45-.31,.92-.41,1.4-.05,.24-.07,.51-.3,.68Z" fill="#e0e0e0"/><path d="M12,24.73c-.36,0-.68,.14-.99,.29-.78-.97-1.61-1.89-2.53-2.73-.34-.18-.35,.14-.41,.3-.5,1.21-.34,2.37,.23,3.52,.3,.6,.81,.99,1.26,1.44,.05,.83,.35,1.53,.93,2.13,.11,.11,.31,.19,.19,.4-.39,.01-.54-.33-.78-.54-.17-.15-.34-.3-.54-.41-1.63-.99-3.38-1.35-5.27-1.07-.6,.09-1.21,.16-1.82,.17-.17,0-.34-.01-.52-.07,.25,.3,.38,.65,.58,.96,.74,1.15,1.87,1.75,3.08,2.21,1.05,.4,2.14,.63,3.29,.44,.2-.03,.48-.11,.52,.24-.02,.41-.08,.81-.23,1.19-3.35,.46-7.05-1.35-8.36-4.11-.16-.34-.3-.68-.35-1.07-.1-.9,.22-1.3,1.1-1.26,1.8,.07,3.56-.44,5.42-.18-.17-.71-.4-1.29-.47-1.92-.15-1.38,.16-2.63,.98-3.75,.38-.52,.98-.71,1.37-.35,1.33,1.22,2.82,2.3,3.56,4.05-.06,.1-.19,.05-.26,.11Z" fill="#319d29"/><path d="M32.94,16c-.5-.26-1-.51-1.51-.77,3.28-1.37,6.63-2.56,10.06-3.48,2.7-.72,5.44-1.19,8.21-1.5,2.47-.27,4.93-.25,7.4-.21-.02,.41-.09,.83,.08,1.23-.21,.24-.5,.21-.77,.21-2.64-.03-5.28,.09-7.91,.37-.61,.07-1.2,.24-1.81,.25-4.31,.77-8.47,2.02-12.54,3.61-.39,.15-.77,.36-1.22,.28Z" fill="#da0000"/><path d="M79.68,14.97c.82-.36,1.75-.43,2.52-.91,.91,.59,1.85,1.12,2.63,1.91,.92,.95,1.68,1.98,2.06,3.26,.03,.12,.11,.22,.16,.33,.08,.55-.17,1.14,.26,1.64-.2,.61-.65,.95-1.23,1.15-2.36,.24-4.63-.23-6.88-.84-1.81-.49-3.54-1.16-5-2.39-.33-.28-.72-.55-.67-1.07,.49-.08,.97-.16,1.46-.24,1.26,.79,2.54,1.5,3.98,1.91,1.93,.55,3.88,1.05,5.91,1.07,.72,0,.81-.12,.66-.83-.46-2.25-2.91-4.5-5.21-4.79-.23-.03-.47,.02-.65-.18Z" fill="#e0e0e0"/><path d="M9.34,35.67c-.38-.25-.82-.25-1.25-.26,.34-.63,.68-1.26,1.02-1.89,.13,.47,.34,.89,.61,1.29,.17,.41,.05,.71-.37,.87Z" fill="#da0202"/><path d="M12,24.73c.09-.04,.17-.08,.26-.11,.17,.01,.34,.03,.51,.04-.24,.16-.51,.08-.77,.07Z" fill="#84bfa3"/><path d="M73.54,18.03c.39,.77,1.07,1.23,1.78,1.66,2.08,1.26,4.4,1.82,6.76,2.27,1.35,.26,2.72,.32,4.09,.26,.38,.1,.69,.33,.99,.55,2.4,1.77,4.87,3.46,6.92,5.66,1.7,1.82,3.4,3.67,4.72,5.8,1.1,1.79,1.86,3.75,2.47,5.76,.74,2.4,1.11,4.86,1.31,7.35,.05,.65,.04,1.31-.26,1.92-5.9-2.74-12.06-4.66-18.39-6.08-2.99-.67-6.01-1.24-9.04-1.67-2.52-.36-5.04-.68-7.57-.9-1.7-.14-3.4-.25-5.1-.39-4.41-.34-8.83-.27-13.24-.2-2.46,.04-4.92,.21-7.37,.44-1.84,.17-3.69,.33-5.52,.56-2.25,.28-4.49,.65-6.72,1.04-3.27,.57-6.51,1.33-9.71,2.24-2.11,.6-4.19,1.3-6.25,2.05-.14-.2-.02-.36,.08-.52,.81-1.3,1.24-2.67,.88-4.22-.03-.12-.02-.25,.04-.37-.13-.43,.18-.35,.42-.37,1.62-.11,2.9-1.18,3.19-2.66,.09-.44,.05-.6-.27-1.3,1.34-.58,2.02-1.72,2.49-3.01,.13-.35,.28-.45,.64-.53,1.71-.37,3.28-1.05,4.58-2.24,1.28-1.17,1.21-2.51-.12-3.95,3.16-1.43,5.89-3.42,8.02-6.19,.44-.57,.81-1.18,1.08-1.85,.39-.96,.22-1.69-.56-2.39-.3-.27-.62-.5-.93-.75,4.24-1.69,8.57-3.1,13.07-3.94,.18-.03,.37-.08,.55-.12,.38,.14,.75,0,1.13-.01,3.36-.12,6.66,.32,9.92,1.15,.32,.08,.65,.17,.88,.45,1.04,.92,2.09,1.83,3.44,2.27,.38,.12,.77,.31,1.15,.29,.56-.03,.7,.27,.85,.69,.33,.92,.83,1.74,1.53,2.44,1.35,1.35,3.01,1.29,4.3-.13,.42-.47,.58-1.34,1.06-1.48,.49-.14,1.16,.32,1.81,.32,.31,0,.62,.07,.93,.12Z" fill="#fe2700"/><path d="M30.15,65.5c-4.89-.7-9.7-1.7-14.11-4.05-2.98-1.59-5.44-3.76-7.22-6.66-.68-1.1-1.12-2.31-1.52-3.53-.17-.51-.07-.76,.44-1.02,2.63-1.31,5.33-2.43,8.1-3.38,.24-.08,.48-.16,.72-.23,.39,.24,.61,.64,.9,.97,1.89,2.19,4.17,3.87,6.7,5.22,1.6,.86,3.24,1.63,5.04,2.02,.19,.04,.37,.1,.49,.26,.11,.29-.03,.54-.14,.79-.73,1.78-1.49,3.54-2.38,5.25-.38,.74-.31,1.35,.17,1.99,.63,.83,1.47,1.38,2.33,1.92,.18,.11,.46,.16,.46,.46Z" fill="#c97765"/><path d="M95.44,47.88c2.1,.65,4.09,1.55,6.09,2.45,.44,.2,.88,.42,1.32,.62,.27,.12,.34,.26,.24,.58-.67,2.2-1.79,4.12-3.34,5.82-3.22,3.53-7.36,5.4-11.86,6.65-1.86,.51-3.76,.89-5.66,1.25-.16,.03-.34,0-.5,0,0-.3,.28-.34,.46-.46,.82-.52,1.69-.95,2.41-1.62,.69-.65,.83-1.13,.36-1.96-.68-1.22-1.31-2.46-1.75-3.79-.12-.37-.32-.75-.14-1.16,.83-.47,1.78-.64,2.66-1,3.18-1.3,5.93-3.21,8.33-5.66,.52-.53,.85-1.21,1.38-1.72Z" fill="#c97765"/><path d="M56.97,41.29c2.3,.04,4.6,.16,6.9,.32,1.6,.12,3.2,.23,4.79,.42,1.88,.22,3.76,.43,5.64,.68,1.46,.2,2.9,.47,4.35,.72,.14,.02,.28,.08,.42,.12,.17,.21,.11,.44,.03,.66-.85,2.38-2.03,4.54-4.05,6.15-.21,.17-.42,.36-.71,.4-.64-.06-1.23-.3-1.84-.47-3.55-.98-7.16-1.58-10.83-1.89-1.07-.09-2.16,.01-3.2-.34-.61-.62-.89-1.42-1.16-2.21-.43-1.27-.44-2.6-.54-3.92-.02-.23,0-.47,.19-.64Z" fill="#c97765"/><path d="M35.24,42.43c2.32-.26,4.64-.53,6.97-.76,1.26-.13,2.52-.2,3.79-.26,3.23-.14,6.46-.21,9.7-.13,.35,.73,.21,1.52,.28,2.28,.13,1.29,.37,2.53,.89,3.72,.11,.24,.29,.48,.09,.76-.27,.18-.57,.14-.86,.14-4.99-.04-9.92,.49-14.79,1.64-.25,.06-.5,.11-.75,.04-1.81-.9-3.05-2.36-4.03-4.07-.49-.86-.91-1.76-1.25-2.7-.08-.21-.22-.43-.03-.65Z" fill="#c97765"/><path d="M17.84,46.23c2.1-.74,4.26-1.27,6.41-1.79,3.02-.73,6.07-1.26,9.13-1.76,.18-.03,.38,0,.57,0,.32,.33,.39,.79,.55,1.19,.78,1.93,1.76,3.73,3.24,5.22,.25,.25,.56,.45,.82,.7,.16,.15,.42,.24,.36,.54-.8,.45-1.7,.62-2.54,.94-1.89,.71-3.7,1.56-5.43,2.58-.16,.1-.33,.2-.52,.22-1.97-.21-3.76-.95-5.5-1.84-2.43-1.24-4.56-2.89-6.41-4.9-.29-.32-.67-.59-.68-1.09Z" fill="#c97765"/><path d="M30.41,53.96c2.32-1.41,4.78-2.53,7.36-3.36,.38-.12,.76-.22,1.15-.32,.38-.53,1.03-.38,1.53-.63,.17,.09,.33,.11,.54,.06,2.36-.61,4.75-1.02,7.17-1.3,1.27-.15,2.55-.22,3.82-.31,1.66-.12,3.33-.06,4.99-.1,.51-.28,1.01-.28,1.52,0,2.75,.19,5.49,.39,8.21,.84,2.64,.44,5.23,1.07,7.79,1.83,.57-.11,1.02,.28,1.53,.4,2.18,.83,4.27,1.82,6.21,3.13,.31,.21,.65,.41,.77,.81,.02,.42,.2,.83,.13,1.27,.24,1.52,.9,2.87,1.62,4.2,.15,.28,.31,.55,.45,.83,.39,.78,.21,1.37-.43,1.95-.91,.83-2.02,1.34-3.04,2-1.02,.43-2.03,.86-3.05,1.29-.3-.37-.22-.85-.38-1.26,.47-.49,1.14-.6,1.71-.88,.68-.33,1.37-.64,2.03-1.01,.52-.29,1-.63,1.48-.98,.34-.25,.4-.5,.18-.86-.51-.85-.96-1.73-1.33-2.66-.36-.89-.62-1.8-.83-2.72-.09-.4-.29-.68-.63-.9-1-.64-2.02-1.23-3.1-1.71-1.91-.82-3.86-1.51-5.85-2.08-.16-.05-.32-.11-.49-.13-.22-.03-.48-.25-.65-.04-.15,.19,.03,.45,.1,.66,.26,.81,.6,1.58,.99,2.33,.33,.64,.7,1.26,1.05,1.88,.04,.07,.09,.14,.13,.22,.1,.22,.34,.48,.12,.69-.22,.22-.47-.02-.67-.16-.55-.36-1.08-.76-1.55-1.21-1.4-1.36-2.68-2.83-3.54-4.6-.27-.56-.66-.82-1.26-.89-2.24-.28-4.48-.55-6.74-.68-1.95-.11-3.89-.15-5.83-.07-4.85,.19-9.64,.83-14.31,2.22-1.05,.31-1.1,.42-1.22,1.48-.25,2.3,.24,4.49,.97,6.65,.03,.1,.07,.2,.08,.31,0,.11-.05,.19-.15,.23-.66-.29-.98-.91-1.34-1.46-1.03-1.57-1.75-3.28-2.22-5.09-.16-.63-.24-.68-.81-.4-.97,.47-1.95,.93-2.86,1.5-.34,.21-.57,.47-.72,.85-.79,1.96-1.65,3.89-2.57,5.79-.2,.41-.14,.68,.15,1.01,.82,.91,1.81,1.5,2.95,1.9,.31,.11,.67,.15,.89,.44,.02,.45-.18,.85-.26,1.28-.68-.22-1.35-.44-2.03-.67-.89-.56-1.82-1.05-2.56-1.84-1-1.05-1.07-1.51-.44-2.82,.9-1.88,1.83-3.76,2.5-5.74-.06-.59,.21-.96,.76-1.14Z" fill="#b88855"/><path d="M82.87,54.99c-.69-.83-1.65-1.27-2.56-1.79-1.39-.79-2.86-1.39-4.31-2.05-.04-.28,.16-.42,.32-.58,1.85-1.79,3.05-3.96,3.81-6.4,.04-.14,.07-.29,.2-.38,1.67,.2,3.29,.64,4.92,1.02,2.9,.67,5.76,1.51,8.59,2.45,.15,.05,.3,.14,.45,.21-.23,.86-.88,1.44-1.47,2-2.04,1.92-4.31,3.52-6.91,4.63-.76,.32-1.53,.62-2.31,.86-.24,.07-.48,.21-.72,.02Z" fill="#c97765"/><path d="M102.31,49.26c.27-4.95-.95-9.58-3.12-13.98-1-2.04-2.55-3.71-4.03-5.42-2.49-2.89-5.51-5.17-8.64-7.3-.14-.09-.29-.17-.36-.34,.49-.23,.77-.69,1.16-1.03,4,2.56,7.56,5.62,10.5,9.37,2.32,2.95,4.13,6.17,5.04,9.85,.65,2.64,.88,5.32,.83,8.03,0,.17-.03,.34-.06,.5q-.15,.88-.98,.49c-.11-.05-.23-.11-.34-.16Z" fill="#fefefe"/><path d="M7.06,42.99c.08-.02,.19-.1,.22-.07,1.05,.76,2.11,.46,3.18,.04,.15,.11,.16,.28,.18,.45,.12,1.22,.39,2.39,1.2,3.37,.06,.07,.07,.15-.02,.21-1.45,.58-2.87,1.22-4.27,1.9-.64,.31-.73,.25-.76-.48-.08-1.81,.15-3.61,.27-5.42Z" fill="#fe2700"/><path d="M30.41,53.96c-.4,.29-.6,.7-.76,1.14-3.75-.84-6.98-2.69-9.93-5.07-1.21-.98-2.35-2.05-3.15-3.41,.43-.13,.85-.26,1.28-.39,2.96,3.66,6.71,6.12,11.22,7.43,.44,.13,.9,.21,1.35,.31Z" fill="#8c4f42"/><path d="M82.87,54.99c2.42-.62,4.65-1.66,6.68-3.09,.93-.66,1.83-1.36,2.7-2.08,.8-.66,1.39-1.52,2.03-2.33,.42,.04,.79,.2,1.16,.4-.55,1.28-1.55,2.2-2.55,3.08-1.71,1.5-3.56,2.82-5.64,3.79-1.33,.62-2.68,1.21-4.13,1.52-.24-.39-.26-.83-.25-1.28Z" fill="#8c4f42"/><path d="M11.82,46.99c-1.03-1.15-1.33-2.54-1.36-4.02,.47-.32,.93-.64,1.4-.95,.13,.14,.09,.3,.07,.46-.04,.91-.07,1.82,.47,2.62,.67-1.08,1.02-2.21,.63-3.48-.05-.16-.19-.4,.11-.5,.42,.04,.83,.08,1.25,.12,.6,1.68,.13,3.19-.74,4.63-.09,.15-.29,.25-.26,.48-.43,.45-.87,.86-1.57,.63Z" fill="#319d29"/><path d="M40.45,49.65c-.12,.41-.51,.25-.77,.37-.24,.11-.5,.17-.76,.26-2.59-1.93-4.04-4.6-4.97-7.61,.4-.22,.87-.09,1.28-.24,.98,2.96,2.38,5.6,5.21,7.22Z" fill="#8c4f42"/><path d="M80.33,43.8c-.16,1.21-.7,2.27-1.25,3.33-.79,1.52-1.85,2.84-3.08,4.03-.54-.05-1.01-.33-1.51-.49,1.73-1.29,2.93-2.99,3.84-4.91,.33-.7,.68-1.4,.74-2.2,.44,0,.86,.09,1.26,.25Z" fill="#8c4f42"/><path d="M58.48,47.99c-.51,0-1.01,0-1.52,0-1.06-2.12-1.29-4.39-1.28-6.71,.43,0,.85,0,1.28,0,0,2.35,.25,4.64,1.51,6.71Z" fill="#8c4f42"/><path d="M77.51,67.45c.04,.12,.08,.25,.13,.37-.15,.33-.04,.64,.12,.91,.48,.81,.73,1.71,.98,2.61,.84,3.09,1.41,6.21,1.55,9.43,.09,2.19,.1,4.36-.31,6.5-.74,3.9-2.12,7.55-4.93,10.48-1.65,1.71-3.56,3.11-5.66,4.25-2.29,1.24-4.73,2.04-7.23,2.71-.04,.01-.07,.04-.09,.08-.82,.21-1.67,.21-2.5,.22-2.81,.05-5.63,.11-8.44,0-3.13-.13-6.28-.36-9.28-1.34-4.39-1.44-7.88-4.08-10.15-8.18-1.58-2.86-2.59-5.89-2.79-9.17-.24-3.91,.37-7.71,1.49-11.46,.75-2.49,1.69-4.9,2.7-7.29,.98-1.3,2.39-1.71,3.9-1.95,1.34-.22,2.69-.08,4.04-.23,1.44-.16,2.71-.59,3.71-1.67,.1-.11,.19-.23,.36-.25,.35,.17,.34,.49,.36,.8,.03,.6-.06,1.21,.06,1.81,.18,1.03,.24,2.09,.57,3.1,.16,.48,.36,.95,.67,1.35,.58,.74,1.39,.71,1.93-.09,.68-1.01,.85-2.18,1-3.36,.05-.36-.02-.78,.4-.99,1.14,.01,2.27,.23,3.41,.3,1.82,.11,3.63,.13,5.45,0,.63-.05,1.27-.12,1.89,.06,.26,.16,.22,.45,.31,.68,.18,.82,.21,1.68,.52,2.47,.13,.34,.26,.67,.47,.97,.44,.61,1.21,.68,1.76,.17,.5-.46,.75-1.06,.97-1.68,.39-1.1,.49-2.26,.63-3.42,.12-.29,0-.64,.24-.89,.13-.04,.26,0,.36,.07,1.67,1.1,3.54,.97,5.39,.85,1.16-.07,2.31-.12,3.46,.11,1.08,.22,1.94,.79,2.59,1.67Z" fill="#f4e9d6"/><path d="M39.05,60.19c-.74-1.41-.86-2.98-1.15-4.51-.21-1.1-.04-2.18,.12-3.26,.06-.38,.21-.6,.59-.71,2.42-.74,4.88-1.28,7.37-1.68,3.91-.62,7.84-.85,11.78-.75,2.67,.07,5.34,.27,7.98,.73,.08,.01,.17,.02,.25,.02,.92-.04,1.35,.49,1.77,1.27,1.27,2.39,3.06,4.32,5.39,5.76-.98-1.98-2.24-3.84-2.68-6.15,2.59,.63,5.07,1.43,7.45,2.53,.54,.53,1.09,1.06,1.62,1.6,1.74,1.77,2.55,4,3.07,6.35,.16,.74-.23,1.44-.5,2.12-1.22,.7-2.5,1.27-3.81,1.76-.27-.47-.3-1.03-.5-1.52,.79-.52,1.74-.59,2.59-.92,.21-.08,.45-.11,.67-.19,.28-.1,.49-.27,.46-.6-.04-.33-.31-.36-.57-.36-.13,0-.25-.01-.37-.06-.47-.19-.96-.11-1.43-.04-2.71,.43-5.42,.78-8.15,1.04-1.07,.1-2.15,.04-3.22,.02-.21,0-.42-.06-.6-.17-.32-.21-.44-.56-.58-.89-.12-.26-.24-.52-.58-.5-.31,.02-.49,.24-.61,.5-.24,.54-.45,1.1-.64,1.66-.18,.54-.54,.82-1.09,.92-1.19,.21-2.39,.36-3.59,.42-.73,.04-1.23-.55-1.67-1.04-1.18-1.33-2.23-2.76-3.16-4.28-1.26-2.07-2.3-4.24-2.98-6.57-.05-.18-.13-.36-.11-.55-.12,2.28,.25,4.49,.78,6.69,.43,1.77,.93,3.52,1.88,5.1,.03,.05,.06,.11,.09,.17,.32,.65,.2,.87-.53,.81-2.15-.16-4.3-.29-6.42-.72-1.23-.25-1.96-.9-2.15-2.15-.04-.27-.12-.54-.2-.8-.08-.27-.2-.52-.52-.58-.33-.06-.57,.12-.75,.37-.24,.33-.42,.69-.58,1.06-.48,1.17-1.26,1.67-2.6,1.6-3.48-.19-6.92-.53-10.14-1.99-.1-.04-.19-.09-.3-.11-.26-.06-.53-.09-.66,.2-.13,.29,.07,.5,.3,.62,.6,.32,1.23,.56,1.86,.81,.23,.09,.5,.13,.61,.41-.13,.42-.25,.84-.38,1.27-1.59-.4-3-1.1-4.1-2.37-.25-.29-.31-.52-.13-.89,.99-2.03,1.93-4.08,2.74-6.19,.08-.2,.2-.35,.39-.48,1.14-.73,2.35-1.33,3.59-1.88,.3-.14,.49-.14,.57,.27,.57,2.6,1.66,4.95,3.42,6.97,.05,.02,.1,.09,.14,.05,.06-.05,.02-.12-.02-.18Z" fill="#f5c28d"/><path d="M80.7,61.57c.42-.09,.88-.22,1.01,.37,.13,.56-.26,.78-.73,.91-1.07,.3-2.13,.6-3.19,.9-.41,.07-.81,.16-1.17,.39-.2,.21-.48,.26-.74,.32-2.35,.56-4.72,.92-7.16,.87-1.15-.03-2.02-.37-2.5-1.47-.03-.08-.07-.15-.17-.2-.2,.16-.22,.45-.38,.64-.42,.58-1.03,.85-1.7,1-.68,.14-1.37,.23-2.06,.31-.5,.06-.77,.25-.72,.8,.02,.26,.06,.56-.19,.76-.14-.2-.04-.44-.1-.65-.19-.58-.61-.61-1.14-.56-1.8,.18-3.61,.32-5.42,.24-1.43-.06-2.86-.12-4.27-.4-.64-.16-1.29-.2-1.94-.34-.89-.2-1.74-.48-2.47-1.1-.24,.63,.13,1.27-.28,1.78-.18-.6-.05-1.21-.08-1.81-.01-.32,0-.63-.27-.87-.22-.22-.4-.37-.6,.04-.52,1.08-1.42,1.47-2.6,1.43-2.28-.07-4.57-.13-6.81-.62-.28-.06-.6-.07-.79-.34-.44-.25-.89-.43-1.41-.36-.76-.3-1.53-.61-2.29-.91-.24-.1-.46-.22-.62-.42-.17-.2-.18-.43-.07-.65,.1-.2,.28-.31,.51-.31,.19,0,.37,.04,.55,.12,2.76,1.26,5.66,1.85,8.69,1.94,.82,.02,1.64,.07,2.46,.11,.49,.02,.8-.18,1.02-.59,.34-.63,.69-1.26,1.04-1.89,.22-.41,.54-.66,1.02-.58,.46,.07,.58,.43,.65,.83,.03,.17,.1,.32,.12,.49,.16,1.38,.93,2.09,2.31,2.32,2.23,.37,4.46,.55,6.79,.68-2.19-4.1-3.11-8.41-3.02-13.06,.29,.28,.33,.58,.4,.84,.99,3.41,2.71,6.45,4.81,9.28,.41,.56,.85,1.1,1.32,1.62,.66,.73,1.4,1.2,2.48,.94,.87-.21,1.78-.27,2.68-.39,.43-.06,.73-.22,.87-.68,.18-.58,.43-1.14,.63-1.72,.15-.42,.41-.73,.85-.74,.41,0,.59,.33,.71,.7,.09,.28,.25,.54,.37,.8,.09,.09,.2,.17,.25,.28,.38,.95,1.13,1.08,2.06,1.07,3.02-.04,5.91-.74,8.77-1.59,.59-.17,1.18-.34,1.76-.54,.24-.08,.49-.16,.73,0Z" fill="#b88855"/><path d="M62.04,104.77c.36-.4,.87-.5,1.33-.62,3.72-.95,7.05-2.65,10-5.1,2.39-1.98,4.08-4.45,5.16-7.37,.71-1.93,1.33-3.88,1.49-5.92,.12-1.52,.34-3.06,.06-4.6-.14-.8-.05-1.63-.12-2.46-.2-2.25-.65-4.45-1.22-6.62-.3-1.16-.54-2.34-1.21-3.37-.19-.28-.29-.63,.09-.89,1.47,3.41,2.73,6.89,3.5,10.53,.38,1.78,.49,3.58,.63,5.39,.26,3.53-.54,6.84-1.95,10.01-2.53,5.65-6.91,9.08-12.95,10.39-1.59,.35-3.19,.56-4.81,.64Z" fill="#fefefe"/><path d="M34.23,63.98c2.55,.61,5.15,.74,7.76,.79,1.08,.02,1.82-.39,2.29-1.34,.12-.24,.21-.5,.47-.71,.19,.23,.26,.48,.27,.76-.42,.88-1.22,1.3-2.06,1.65-1.01,.43-2.09,.47-3.16,.51-1.05,.03-2.1,.06-3.15,.19-1.4,.17-2.52,.88-3.58,1.73,.4-.99,.58-2.03,.87-3.05,.06-.2,.06-.42,.29-.52Z" fill="#fdbb9c"/><path d="M65.6,64.24c.13-.35,.26-.7,.47-1.28,.48,2.07,1.86,2.23,3.47,2.2,2.29-.05,4.51-.44,6.71-.97,.12-.03,.25-.03,.37-.05,.2,1.13,.53,2.22,.89,3.3-.39-.11-.57-.48-.87-.71-.89-.68-1.92-.94-3.01-.95-1.41,0-2.82,.12-4.22,.1-1.33-.02-2.65-.19-3.7-1.15-.12-.11-.13-.26-.12-.41,0-.03,0-.06,0-.09Z" fill="#fdbb9c"/><path d="M20.87,24.01c.42-3,2.06-5.18,4.68-6.58,1.74-.93,3.6-1.42,5.6-.81,.79,.24,1.42,.72,2,1.28,.24,.24,.19,.48,.06,.75-.36,.82-.83,1.58-1.43,2.23-1.98,2.17-4.23,3.98-6.99,5.1-.49,.2-.99,.35-1.51,.44-.52,0-1.12,.14-1.54-.06-.47-.22-.18-.94-.43-1.39-.17-.31-.3-.64-.44-.96Z" fill="#fefefe"/><path d="M9.23,32.01c-.08-.11-.2-.15-.34-.13-2.12,.38-3.94-.36-5.63-1.53-.79-.55-1.26-1.34-1.61-2.21,.2-.14,.39-.06,.57-.08,1.31,1.12,2.9,1.59,4.47,1.97-.23-.12-.53-.24-.79-.41-.14-.09-.32-.21-.25-.39,.07-.18,.28-.16,.45-.14,1.16,.12,2.31,.08,3.47-.01,.37,.33,.74,.67,1.11,1-.57,.58-1.2,1.12-1.46,1.93Z" fill="#41c638"/><path d="M17.25,33.83c-.16-.85,.06-1.65,.21-2.46,.11-.62,.66-.59,1.12-.64,.48-.05,.61,.29,.64,.68,.12,1.41-.25,2.67-1.19,3.74-.24,.27-.47,.57-.96,.43-.95-.27-2.63-2.13-2.43-3.33,.07-.39,.17-.74,.48-.99,.78-.64,1.14-.52,1.35,.44,.16,.73,.28,1.48,.77,2.14Z" fill="#8fe9fe"/><path d="M19.61,28.95c.94-.96,2.08-1.37,3.43-1.29,.63,.04,1.15,.27,1.6,.66,.59,.51,.59,1.15,.04,1.71-1.02,1.05-2.34,1.54-3.69,1.98-.26,.08-.3,0-.38-.23-.16-.5-.07-1.04-.34-1.53-.15-.26,.19-.25,.34-.29,.62-.15,1.25-.29,1.86-.57-.96-.11-1.92-.23-2.88-.34-.03-.04-.03-.08,.02-.11Z" fill="#8fe9fe"/><path d="M16.69,27.78c-.06-.58-.13-1.17-.19-1.75-.07-.67,.06-1.31,.46-1.85,.64-.86,2.11-.63,2.76,.41,.26,.41,.43,.87,.51,1.35,.09,.52,.05,.99-.54,1.26-.44,.2-.8,.55-1.09,.94-.28,.13-.43-.03-.56-.24,0-.54-.21-1.08-.06-1.58,.05-.13-.13-.07-.04-.07,.02,0,.03,.02,.01,.05-.26,.52-.45,1.08-.79,1.56-.18,.06-.34,.07-.47-.09Z" fill="#8fe9fe"/><path d="M15.07,28.48c-.61-.39-1.21-.77-1.92-1.23,.17,.79,.67,1.27,.96,1.88-.99,.18-1.91,.39-2.65-.52-.53-.65-.69-1.41-.3-1.95,.46-.65,1.29-.85,2.07-.53,.96,.39,1.59,1.13,2.19,1.93,.14,.35-.03,.44-.35,.42Z" fill="#8fe9fe"/><path d="M9.56,27.55c-1.91-.73-2.43-3.92-1.49-5.39,.27-.42,.35-.16,.5,.05,.05,.95,.12,1.88,.74,2.68,.02,0,.03-.02,.03-.07-.02-.28-.16-.68,.16-.79,.32-.12,.48,.27,.63,.51,.16,.27,.52,.46,.36,.87-.58,.6-.89,1.31-.92,2.15Z" fill="#41c638"/><path d="M12.21,32.63c.2-.06,.26-.07,.31-.1,.26-.12,.49-.51,.75-.33,.28,.2,.11,.63,.11,.95,0,.4-.36,.37-.61,.41-.45,.08-.89,.19-1.36,.13-.45-.06-.82-.17-.96-.66-.14-.49,.07-.85,.37-1.2,.72-.85,1.63-1.27,2.81-1.29-.54,.64-1.03,1.25-1.42,2.09Z" fill="#8fe9fe"/><path d="M15.07,28.48c.18-.09,.37-.17,.35-.42,.46,.04,.87-.12,1.28-.28,.17,0,.34,0,.51-.01,.33-.19,.63-.14,.89,.14,.17,.08,.34,.16,.51,.24,.43,.15,.77,.4,1,.8-.01,.04-.02,.07-.02,.11-.08,.33-.23,.53-.6,.33-.3-.16-.6,.03-.9,.04-.73-.25-1.45-.28-2.15,.13-.19,0-.38,.04-.56,.02-.2-.02-.43,.3-.62-.12-.14-.32-.06-.5,.13-.72,.07-.08,.12-.17,.19-.25Z" fill="#feba3f"/><path d="M9.8,37.7c.37-.5,1-.64,1.44-1.05,.35-.19,.69-.23,1,.07,.03,.03,.06,.06,.1,.07,.41,.19,1.1,.41,1.06,.74-.05,.42-.56,.81-1.02,1.07-.12-.09-.19-.22-.32-.3-.52-.33-.86-.2-1.08,.4-.35,.05-.72,.06-1.06,.17-.33,.1-.34-.08-.38-.29-.12-.35-.22-.7,.25-.88Z" fill="#feba3f"/><path d="M10.48,25.4c-.2-.51-.6-.89-.91-1.39-.27,.48,.05,.88-.01,1.29-.83-.52-1.32-2.09-.99-3.09,.91,.85,1.91,1.62,2.44,2.81-.17,.13-.35,.25-.52,.38Z" fill="#71e21e"/><path d="M9.8,37.7c-.28,.24-.22,.57-.25,.88-.29-.25-.66-.34-1.08-.49,.11,.48,.43,.73,.67,1.04-.73,.11-1.78-.7-1.83-1.38-.05-.6,.67-1,1.36-.75,.42,.15,.78,.42,1.13,.7Z" fill="#90e9fe"/><path d="M11.75,42.42c.04-.13,.07-.27,.11-.4,.13-.39,.48-.64,.7-.97,.18-.27,.39-.01,.58,.08-.13,.22,.04,.39,.09,.58,.35,1.36,0,2.55-.84,3.63-.21-.23-.09-.48-.02-.71,.15-.53,.26-1.06,.21-1.61-.15,.05-.14,.24-.24,.34-.23,.22-.38,.14-.45-.13-.06-.26,.04-.55-.13-.79Z" fill="#41c638"/><path d="M10.39,40.23c-.06,.39-.51,.47-.5,.84,.36,.12,.63-.22,.97-.16-.43,.8-1.71,1.36-2.51,1.1-.3-.1-.33-.28-.2-.54,.23-.46,.62-.74,1.09-.91,.37-.13,.75-.21,1.16-.33Z" fill="#8fe9fe"/><path d="M14.51,39.57c.22-.3,.66-.27,.88-.64-.44-.14-.84-.08-1.28,.08,.35-.59,1.7-1.25,2.28-1.17,.43,.06,.3,.32,.19,.56-.3,.69-1.24,1.21-2.08,1.17Z" fill="#8fe9fe"/><path d="M12.24,36.73c-.33-.02-.67-.05-1-.07,.02-.78,.52-1.31,1.17-1.23,.59,.07,1.23,.66,.94,1.44-.36-.24-.36-.7-.66-1-.25,.24-.36,.54-.44,.86Z" fill="#90e8fd"/><path d="M10.98,38.7c-.27-.53,.04-.75,.48-.72,.38,.02,.93-.04,.92,.62-.44,.37-.92,.31-1.4,.1Z" fill="#fed935"/><path d="M14.39,35.19c.53,.44,.97,.94,1.63,1.33-.5,.15-.91,.28-1.35,.41,0-.61,.01-1.2-.27-1.75Z" fill="#fd2b06"/><path d="M15.94,29.56c.58-.62,1.3-.66,2.15-.13-.7,.37-1.42,.32-2.15,.13Z" fill="#fed935"/><path d="M9.34,35.67c.21-.25,.37-.53,.37-.87,.18,.14,.37,.26,.64,.27-.21,.35-.39,.69-.43,1.14-.22-.22-.58-.17-.58-.54Z" fill="#fd2906"/><path d="M14.27,35c-.17-.09-.33-.18-.4-.5,.27,.12,.36,.28,.4,.5Z" fill="#fd3816"/><path d="M79.68,14.97c2.4-.21,5.59,2.37,6.08,5.09,.14,.76,.03,.92-.73,.88-3.36-.16-6.58-.83-9.48-2.63-.22-.14-.41-.29-.55-.51,.43-.14,.88-.27,1.3-.44,.96-.38,1.36-1.12,1.25-2.14,.73,.04,1.42-.2,2.13-.25Z" fill="#fefefe"/><path d="M67.67,15.52c-.18-.85,.02-1.66,.19-2.47,.14-.63,.52-.9,1.17-.87,.63,.03,1.08,.37,1.11,.98,.08,1.72-.19,3.37-1.19,4.82-.15,.22-.36,.42-.58,.58-.68,.51-1.39,.46-2.03-.25-1.01-1.13-1.66-2.44-1.64-4,0-.69,.21-1.32,.74-1.82,.34-.33,.7-.31,1.11-.18,.41,.13,.26,.47,.31,.74,.15,.86,.25,1.73,.81,2.46Z" fill="#8fe9fe"/><path d="M64.69,11.3c-.25,.47-.6,.58-1.1,.37-.46-.19-.98-.23-1.54-.6,.3,.77,.72,1.26,1.19,1.67,.29,.26,.35,.49,.29,.82-.03,.19-.11,.38-.09,.55,.06,.59-.11,.81-.72,.59-1.68-.61-3.1-1.52-3.92-3.17-.69-1.38-.24-2.33,1.25-2.7,1.54-.38,2.8,.22,3.95,1.18,.19,.16,.33,.39,.62,.4,.32,.27,.22,.57,.07,.88Z" fill="#8fe9fe"/><path d="M85,10.11c-.98,1.34-2.26,2.31-3.79,2.95-1.19,.5-2.43,.83-3.72,.91-.08,0-.15,.07-.22,.11-.5-1.24-1.44-2.07-2.55-2.76,.13-.22,.31-.27,.49-.31,1.52,0,3.04-.07,4.54-.31,.2-.03,.49-.11,.55,.15,.05,.22-.21,.34-.4,.43-.65,.29-1.32,.54-1.89,.74,.35-.18,.86-.18,1.34-.26,1.38-.22,2.65-.7,3.83-1.43,.2-.12,.4-.24,.63-.3,.4-.06,.81-.14,1.19,.09Z" fill="#41c638"/><path d="M66.23,8.84c.06-.88,.18-1.74,.51-2.57-.86,.8-1.44,1.75-1.73,2.89-.18,0-.25-.16-.32-.3-.18-.22-.29-.45-.24-.75,.32-1.84,1.31-3.17,2.99-3.99,.1-.05,.2-.05,.31-.06,.81,.68,.94,1.61,.85,2.57-.06,.66-.22,1.32-.34,1.98-.66,.22-1.34,.24-2.03,.23Z" fill="#90e9fe"/><path d="M76.14,15.9c-.45,.48-1.08,.56-1.67,.65-.93,.15-1.88,.17-2.81-.08-.38-.1-.56-.31-.42-.75,.11-.33,.19-.7,.17-1.05-.03-.65,.18-.74,.73-.47,.42,.21,.9,.31,1.53,.32-.78-.52-1.5-.9-1.99-1.57,.15-.18,.35-.12,.53-.08,1.8,.37,3,1.51,3.93,3.02Z" fill="#8fe9fe"/><path d="M58.48,13.52c-3.7-1.1-7.49-1.47-11.33-1.48-.2,0-.42,.09-.59-.1,1.08-.13,2.16-.28,3.25-.39,2.29-.24,4.58-.28,6.88-.25,.17,0,.34-.01,.5-.02,.43,.75,.86,1.5,1.3,2.25Z" fill="#fefefd"/><path d="M83.74,10.18c-1.86,1.32-3.98,1.82-6.24,1.91,.92-.38,1.84-.76,2.76-1.15-1.49,.09-2.94,.29-4.4,.23-.22,0-.47,.07-.65-.15,.13-.12,.27-.25,.4-.37,.81-.33,1.62-.66,2.42-.98,1.75-.24,3.46,.3,5.2,.31,.19,0,.38,.03,.5,.21Z" fill="#72e21e"/><path d="M69.38,9.06c.03-.06,.07-.11,.09-.17,.2-.62,.24-1.3,.94-1.68,.82-.45,1.67-.66,2.6-.62,.91,.04,1.67,.6,1.93,1.46,.04,.14,.03,.29,.05,.43-.3,.29-.64,.17-.95,.06-1.36-.49-2.51-.02-3.6,.75-.15,.12-.3,.23-.49,.28-.32-.01-.5-.19-.57-.5Z" fill="#fefefe"/><path d="M67.74,4.05c-.87,.63-1.91,1.1-2.43,2.12-.42,.84-.88,1.67-.62,2.67-.77-.37-1.43-.84-1.38-1.82,.07-1.4,1.23-2.83,2.58-3.2,.64-.17,1.28-.24,1.85,.22Z" fill="#fefefe"/><path d="M69.38,9.06c.17,.15,.35,.3,.52,.46,.44,.17,.54,.56,.62,.96,0,.06-.03,.12-.06,.17-.43,.32-.87,0-1.3,.01-.12,.05-.19-.02-.28-.08-1.02-.78-1.85-.73-2.76,.18-.04,.04-.1,.08-.15,.12-.48-.02-.84,.33-1.28,.43-.16-.28,.12-.6-.07-.88,.38-.69,.87-1.26,1.61-1.58,.66-.27,1.34-.3,2.03-.23,.41,.07,.76,.28,1.12,.46Z" fill="#feba3f"/><path d="M70.46,10.65s0-.09,0-.13c.27-.7,.79-1.15,1.38-1.52-.51,.01-.99,.45-1.57,.25,1.03-.87,2.17-1.33,3.53-.95,.39,.11,.76,.24,1.17,.18-.3,1.28-1.71,2.27-2.96,2.06-.53-.09-1.03,.14-1.56,.11Z" fill="#8fe9fe"/><path d="M76.14,15.9c-.6-.44-.95-1.11-1.49-1.6-.85-.78-1.83-1.21-2.97-1.34-.06-.05-.15-.1-.19-.17-.14-.27-.47-.57-.31-.83,.17-.27,.57-.1,.89-.07,1.72,.16,3.04,.95,3.86,2.46,.25,.45,.5,.99,.2,1.55Z" fill="#fefefe"/><path d="M77.81,2.28c.82,2.44,.25,4.82-1.53,6.34,.03-.86-.29-1.6-.8-2.28,0-.77,.47-1.33,.94-1.84,.24-.26,.34,.09,.32,.29-.04,.54-.16,1.08-.24,1.59,.52-1.07,1.1-2.16,.92-3.46,.04-.27,.12-.51,.38-.65Z" fill="#41c638"/><path d="M77.52,2.89c.32,.66,.04,1.28-.14,1.89-.21,.75-.56,1.44-1.13,2.22,.14-.92,.26-1.68,.37-2.44-.51,.52-.85,1.14-1.15,1.78-.28-.27-.66-.43-.89-.76,.05-.05,.09-.1,.14-.15,.13-.15,.23-.32,.36-.47,.7-.68,1.57-1.18,2.14-2,.06-.08,.17-.11,.29-.08Z" fill="#71e21e"/><path d="M65.97,10.88c.44-1.12,2.16-1.38,2.99-.45,.07,.08,.13,.16,.2,.24-.64,.32-1.3,.57-2.03,.47-.39-.05-.77-.17-1.16-.26Z" fill="#fed935"/><path d="M83.74,10.18c-1.91-.03-3.8-.39-5.7-.52,1.87-.71,3.77-.4,5.66-.09,.38,.06,.76,.05,1.13,.07,.14,0,.33-.09,.4,.07,.09,.2-.15,.27-.23,.4-.42,.02-.84,.04-1.26,.07Z" fill="#fdfefc"/><path d="M77.52,2.89c-.71,.83-1.52,1.54-2.4,2.18-.12,.03-.19,0-.14-.15,.3-.72,.83-1.26,1.37-1.79,.31-.31,.67-.6,.91-.96,.33-.49,.41-.18,.55,.11-.1,.2-.19,.41-.29,.61Z" fill="#fcfdfb"/><path d="M74.98,4.92s.09,.1,.14,.15c-.1,.16-.19,.31-.39,.37,.01-.21,.09-.38,.25-.52Z" fill="#e5f5dd"/><path d="M9.58,29.08c-.28,.23-.61,.25-.95,.25-.96-.02-1.92,.07-3.03-.14,.55,.48,1.12,.6,1.57,.93-1.07,.29-4.08-.96-4.95-2.05,1.11-.06,2.21-.28,3.33-.27,1.48,.02,2.81,.47,4.02,1.28Z" fill="#71e21e"/><path d="M56.49,32.8c-3.76-.16-7.4-.81-10.75-2.63-.54-.29-1.04-.64-1.53-1.01-1.36-1.03-1.79-2.51-1.14-4.1,.88-2.13,2.54-3.57,4.45-4.71,5.65-3.36,12.23-1.93,16.27,2.56,1.11,1.24,1.9,2.68,1.96,4.41,.04,1.25-.43,2.24-1.39,3.04-1.58,1.3-3.43,1.91-5.4,2.26-.82,.14-1.64,.14-2.47,.17Z" fill="#e0e0e0"/><path d="M93.5,44.06c-1.05-.06-1.93-.22-2.79-.55-1.61-.62-2.07-1.97-2.09-3.5-.03-2.12,.63-4.03,2.15-5.56,1.3-1.31,3.03-1.53,4.62-.58,.91,.54,1.83,1.04,2.75,1.55,1.62,.89,2.19,2.28,1.7,4.05-.65,2.34-2.94,4.25-5.35,4.46-.38,.03-.75,.17-.99,.13Z" fill="#e0e0e0"/><path d="M36.38,35.19c.05,1.09-.42,1.93-1.28,2.54-.89,.64-1.8,1.25-2.73,1.84-1.11,.7-2.29,.85-3.57,.46-1.02-.31-1.97-.72-2.81-1.39-.98-.78-1.31-1.88-.76-2.99,1.14-2.3,3.05-3.57,5.55-4.05,1.29-.24,2.47,.15,3.63,.57,1.3,.47,1.97,1.59,1.97,3.02Z" fill="#e0e0e0"/><path d="M75.37,35c0,1.3-.78,2.38-2.05,2.81-1.55,.52-3,.25-4.3-.7-1.59-1.17-1.54-3.1,.07-4.32,1.37-1.04,3.5-1.17,5-.29,.86,.5,1.28,1.33,1.28,2.51Z" fill="#e0e0e0"/><path d="M92.25,28.85c-.09,.92-.48,1.74-1.39,2.2-.88,.45-1.68,.11-2.32-.48-.92-.84-1.53-1.88-1.25-3.19,.36-1.67,1.79-2.25,3.36-1.41,.83,.44,1.59,1.88,1.6,2.88Z" fill="#e0e0e0"/><path d="M83.41,25.36c-.02,.51-.12,.97-.64,1.21-.54,.24-.95-.04-1.3-.38-.53-.53-.83-1.16-.63-1.94,.14-.52,.59-.79,1.11-.69,.85,.15,1.47,.91,1.46,1.81Z" fill="#fefdfd"/><path d="M84.16,28.84c-.39-.04-.72-.28-.75-.77-.03-.39,.22-.63,.62-.64,.4-.01,.84,.42,.81,.81-.02,.35-.2,.59-.68,.59Z" fill="#fef7f6"/><path d="M82.1,63.51c-.08-.06-.08-.14-.04-.22,.77-1.63,.13-3.09-.44-4.61-.71-1.9-1.93-3.4-3.4-4.74-.14-.12-.44-.2-.31-.51,1.16,.51,2.25,1.13,3.31,1.83,.2,.13,.34,.25,.39,.52,.41,2.08,1.2,4.02,2.29,5.82,.21,.34,.16,.54-.13,.78-.52,.43-1.08,.8-1.67,1.12Z" fill="#fefefe"/><path d="M39.05,60.19c.1,.14,.21,.28,.34,.46-.29,0-.37-.18-.46-.34,.04-.04,.08-.08,.13-.13Z" fill="#d5a36f"/><path d="M11.75,42.42c.44,.19,.1,.67,.38,.99,.16-.34,.31-.64,.53-1.08,.18,.84,.12,1.53-.08,2.22-.08,.26-.22,.51-.19,.79-.61-.48-.52-1.21-.64-1.86-.06-.34,0-.7,0-1.06Z" fill="#71e21e"/><path d="M55.35,82.21c-.82,.04-1.36-.38-1.81-.95-1.06-1.34-1.41-2.95-1.68-4.59-.15-.92-.16-1.85-.2-2.78-.01-.33-.1-.54-.35-.75-.22-.18-.4-.44-.56-.68-.19-.28-.17-.59,.13-.78,.28-.17,.54-.03,.71,.22,.32,.49,.74,.81,1.33,.86,.67,.05,1.24-.23,1.75-.62q.97-.73,1.94,.02c1.39,1.07,2.31,1,3.53-.28,.23-.25,.49-.58,.85-.27,.35,.3,.18,.65-.08,.94-.33,.38-.67,.79-1.14,.99-.43,.18-.5,.47-.53,.88-.16,1.99-.49,3.94-1.4,5.75-.33,.65-.74,1.23-1.34,1.66-.36,.25-.74,.39-1.15,.37Z" fill="#553826"/><path d="M60.99,67.18c.01-.19,.03-.38,.03-.57,0-1.12,0-1.11,1.14-1.22,.64-.06,1.29-.16,1.93-.28,.6-.11,1.06-.48,1.51-.87,0,0,0,0,0,0,.09,.47,.07,.93,.01,1.4-.09,1.35-.28,2.68-.79,3.94-.18,.45-.41,.88-.75,1.23-.69,.71-1.57,.63-2.14-.21-.62-.92-.76-2-.91-3.06-.02-.13-.02-.25-.04-.38Z" fill="#553826"/><path d="M45.38,66.16v-2.07c.49,.09,.72,.49,1.09,.66,.97,.45,2,.63,3.04,.78,.16,.02,.34-.02,.47,.14,.12,.17,.15,.34,0,.51-.17,1-.21,2.01-.52,2.98-.17,.54-.36,1.08-.72,1.53-.65,.81-1.49,.81-2.12,0-.71-.94-.9-2.07-1.09-3.19-.07-.44-.1-.88-.15-1.32Z" fill="#553826"/><path d="M68.34,71.24c.57-.07,1.09,.03,1.54,.4,.68,.57,.71,1.23,.07,1.84-.77,.73-2.47,.89-3.37,.32-.85-.54-.85-1.64,.01-2.17,.54-.33,1.12-.47,1.75-.39Z" fill="#feacb1"/><path d="M43.91,71.23c.47-.05,.98,.06,1.46,.3,.54,.27,.82,.67,.81,1.31-.01,.63-.42,.92-.89,1.1-.9,.34-1.82,.3-2.68-.16-.63-.34-.98-.94-.87-1.41,.12-.52,.85-1.09,1.47-1.13,.21-.02,.42,0,.7,0Z" fill="#feacb1"/><path d="M49.98,66.17c0-.17,0-.34,0-.51,2.07,.23,4.14,.47,6.22,.35,1.42-.08,2.85-.08,4.27-.31,.79-.13,.27,.55,.43,.83-2.16,.06-4.33,.24-6.49,.13-1.48-.08-2.97-.16-4.42-.49Z" fill="#fdbb9c"/><path d="M65.61,65.65c0-.47,0-.93-.01-1.4,.18,.13,.08,.32,.11,.49-.06,.3,.07,.62-.1,.91Z" fill="#b88855"/><path d="M80.7,61.57c-2.08,.58-4.13,1.27-6.25,1.71-1.97,.41-3.94,.65-5.96,.59-.4-.01-.69-.14-.88-.49-.18-.33-.41-.64-.49-1.02,1.3,.24,2.61,.16,3.91,.07,1.65-.12,3.3-.38,4.94-.59,1.04-.13,2.07-.32,3.12-.44,.54-.06,1.12-.31,1.61,.18Z" fill="#fefefe"/><path d="M18.1,27.91c-.3-.05-.59-.09-.89-.14,.04-.66,.42-1.15,.85-1.63-.13,.6,.29,1.17,.03,1.77Z" fill="#79c3fe"/><path d="M70.27,9.25c.64-.17,1.28-.34,1.92-.51-.65,.54-1.19,1.16-1.73,1.78-.12-.37-.34-.69-.56-1.01,.12-.09,.25-.18,.37-.27Z" fill="#79c2fe"/><path d="M55.94,31.5c-2.73-.04-5.71-.62-8.54-1.89-.98-.44-1.88-1.02-2.69-1.76-.68-.63-.73-1.36-.5-2.14,.38-1.29,1.27-2.23,2.24-3.09,1.48-1.31,3.2-2.19,5.13-2.62,3.65-.82,6.86,.16,9.78,2.37,1.17,.89,2.05,1.99,2.66,3.32,.3,.67,.5,1.35,.4,2.08-.12,.89-.75,1.45-1.42,1.93-2.01,1.43-4.32,1.79-7.08,1.8Z" fill="#fefefe"/><path d="M98.74,38.42c-.19,1.29-.79,2.42-1.91,3.23-1.58,1.14-3.33,1.32-5.16,.83-1.2-.32-1.56-.86-1.69-2.13-.18-1.7,.26-3.22,1.29-4.54,.95-1.22,2.28-1.63,3.72-.68,.72,.48,1.49,.88,2.26,1.27,1,.51,1.5,1.2,1.5,2.02Z" fill="#fefefe"/><path d="M31.57,32.85c.89-.03,1.7,.23,2.46,.58,1.33,.61,1.49,2.36,.32,3.21-.9,.66-1.83,1.28-2.78,1.88-.7,.45-1.48,.6-2.3,.32-.92-.32-1.84-.62-2.56-1.32-.45-.43-.52-.87-.25-1.41,1.06-2.12,2.86-3.05,5.12-3.24Z" fill="#fefefe"/><path d="M71.8,36.69c-.76,.08-1.39-.19-1.97-.6-.82-.58-.88-1.47-.13-2.13,.95-.84,2.71-.97,3.79-.3,.55,.34,.61,.89,.6,1.44-.01,.69-.44,1.12-1.02,1.41-.41,.21-.85,.23-1.28,.19Z" fill="#fefefe"/><path d="M90.88,28.9c.02,.29-.09,.67-.5,.92-.19,.11-.36,.16-.59,.05-.82-.37-1.4-1.49-1.21-2.36,.11-.52,.68-.78,1.2-.49,.65,.37,1.08,.92,1.1,1.88Z" fill="#fefefe"/><path d="M58.25,74.44c-.22,1.98-.51,3.77-1.4,5.39-.35,.64-.74,1.36-1.54,1.36-.81,0-1.18-.75-1.49-1.39-.63-1.28-.9-2.67-1.04-4.08-.05-.48-.08-.97-.12-1.45-.03-.34,.06-.49,.45-.48,.81,.02,1.53-.29,2.15-.8,.29-.24,.47-.24,.75,0,.48,.42,1.04,.76,1.67,.85,.52,.07,.63,.31,.56,.59Z" fill="#e52c20"/></svg>