<?xml version="1.0" encoding="UTF-8"?><svg id="Layer_1" xmlns="http://www.w3.org/2000/svg" viewBox="0 0 89.04 104.77"><path d="M37.9,73.74c-.04-.1-.06-.21-.13-.28-1.88-2.11-2.65-4.69-3.1-7.49-.65,1.06-1.26,2.06-2.02,2.96-1.17,1.39-2.55,2.51-4.12,3.42-.63,.37-1.3,.62-2.05,.49-.44-.07-.8,.13-1.14,.31-1.41,.76-2.84-.04-3.52-.95-1.07-1.44-1.49-3.09-1.6-4.84-.06-.84,0-1.69,0-2.57-.26,.02-.41,.21-.59,.33-2.01,1.3-4.15,2.24-6.62,2.16-1.9-.06-2.93-.88-3.33-2.72-.08-.36-.15-.7-.44-.95-.98-.82-1.09-1.91-.94-3.06,.37-2.74,1.35-5.23,3.14-7.37-.5-.17-1.03,.03-1.54-.11-2.44-.23-4.71-.92-6.58-2.59-.42-.37-.74-.81-.79-1.4-.02-.32-.28-.46-.48-.64-1.01-.91-1.17-1.6-.61-2.87,.79-1.79,2.06-3.18,3.73-4.29-.33-.23-.64-.43-.93-.66-1.86-1.51-3.24-3.37-4-5.65-.26-.76-.29-1.54,.34-2.19,.14-.14,.2-.32,.18-.52-.11-1.01,.45-1.69,1.18-2.24,1.54-1.14,3.31-1.72,5.18-1.99,.23-.03,.46-.04,.71-.18-.84-1.16-1.44-2.42-1.67-3.84-.15-.92-.16-1.85,.1-2.76,.21-.75,.68-1.31,1.44-1.56,.28-.09,.5-.23,.66-.46,.87-1.22,2.14-1.55,3.54-1.62,2.09-.1,4.06,.35,5.98,1.33-.14-.88-.32-1.69-.4-2.51-.18-1.75-.16-3.5,.56-5.16,.49-1.13,1.24-2.01,2.51-2.29,.23-.05,.36-.2,.51-.35,.96-1.02,1.79-1.2,3.14-.69,1.89,.71,3.43,1.88,4.71,3.43,.11,.13,.23,.25,.38,.41,.13-.25,.07-.48,.07-.7-.1-3.02,.73-5.75,2.53-8.16,.76-1.03,1.65-1.9,2.98-2.22,.96-.23,1.76-.03,2.42,.67,.31,.33,.66,.47,1.11,.5,2.33,.13,4.02,1.26,5.13,3.28,.5,.9,.84,1.88,1.25,2.9,.71-1.32,1.47-2.55,2.47-3.61,1.05-1.11,2.18-2.12,3.73-2.49,.72-.17,1.37-.04,1.86,.5,.37,.4,.71,.54,1.29,.47,2.74-.33,5.1,1.92,5.57,4.4,.18,.96,.35,1.95,.18,2.95-.04,.24,.08,.26,.24,.23,.12-.03,.22-.11,.33-.18,2.46-1.52,5.16-2.34,8.03-2.58,.99-.08,1.48,.2,1.88,1.13,.13,.29,.23,.6,.49,.8,1.59,1.17,1.66,2.77,1.27,4.49-.43,1.9-1.19,3.67-2.23,5.32-.08,.12-.14,.25-.21,.37,3.45-.44,6.79-.16,10,1.2,.92,.39,1.73,.96,2.42,1.69,.32,.35,.62,.73,.65,1.2,.08,1.25,.46,2.5,.15,3.76-.35,1.43-1.36,2.39-2.47,3.27-.15,.12-.34,.18-.43,.42,1.8,.52,3.5,1.24,5.1,2.22,1.59,.97,2.98,2.13,3.85,3.81v1.14c-.32,.26-.52,.62-.58,1-.23,1.31-1.07,2.17-2.06,2.93-1.21,.93-2.53,1.67-3.94,2.26-.14,.06-.29,.08-.39,.23,1.59,1.08,2.86,2.49,4,4.03,.51,.69,.99,1.43,.82,2.38-.02,.11,.03,.25,.1,.35,.87,1.43,.23,2.63-.71,3.58-1.14,1.16-2.61,1.57-4.16,1.77-2.48,.32-4.93,.12-7.35-.49-.06-.01-.12,.01-.24,.02,.52,1.28,.99,2.55,1.36,3.85,.5,1.78,.81,3.58,.43,5.42-.14,.67-.28,1.57-1.1,1.6-1.4,.06-2.54,.98-3.94,.99-1.43,.01-2.81-.25-4.12-.8-2.49-1.04-4.6-2.65-6.56-4.48-.11-.1-.18-.23-.39-.48-.06,1.04-.02,1.89-.15,2.74-.42,2.95-1.43,5.62-3.55,7.78-.76,.77-1.14,.8-2.04,.18-.45-.31-.95-.45-1.46-.54-2.1-.37-3.57-1.62-4.67-3.37-.06-.09-.12-.17-.18-.26-.01-.01-.04-.02-.1-.04-.9,1.86-1.81,3.73-3.67,4.88-.33,.36-.7,.68-1.18,.84-.39,.13-.72,.39-1.12,.5-1,.26-1.87-.13-2.72-.57-.48-.37-1.03-.66-1.41-1.16Z" fill="#fe9700"/><path d="M47.05,97.23c3.72,.02,7.41,.29,11.08,.87,1.47,.23,2.98,.26,4.43,.67,.41,.11,.82,.23,1.19,.42,.74,.38,.78,1.19,.08,1.67-.81,.55-1.76,.67-2.7,.83-.56,.09-1.13,.17-1.7,.14-.26-.01-.52,.06-.66,.3-.48,.82-1.3,1.11-2.13,1.34-1.93,.54-3.92,.76-5.92,.91-4.01,.29-8.02,.44-12.03,.33-4.36-.11-8.72-.3-13.01-1.24-.93-.2-1.84-.47-2.7-.89-.55-.26-1.03-.59-1.31-1.14-.16-.31-.48-.29-.75-.39-.59-.2-1.24-.32-1.5-1.02-.21-.56-.07-.98,.4-1.33,.79-.58,1.7-.85,2.65-.94,1.87-.16,3.74-.23,5.61-.41,1.99-.19,3.97-.06,5.96-.12,.12,.48-.17,.75-.52,1-.48,.14-.97,.05-1.45,.08-.15,0-.3,0-.44,.02-.27,.05-.61,.1-.58,.45,.02,.33,.35,.32,.6,.32,.85-.01,1.69,.01,2.5,.34,.72,.3,1.46,.57,2.13,.98,.46,.28,.88,.33,1.38,.11,2.38-1.08,4.76-1.02,7.11,.09,.6,.28,1.13,.28,1.66-.13,1.1-.84,2.37-1.29,3.73-1.49,.1-.02,.21-.03,.31-.06,.22-.07,.4-.18,.36-.44-.03-.23-.23-.28-.43-.3-.54-.04-1.04,.14-1.56,.25-.43,.09-.81,.39-1.28,.26-.32-.44-.62-.88-.51-1.47Z" opacity=".3"/><path d="M33.56,98.12c.19-.29,.39-.56,.48-.9,1.07-2.01,1.75-4.17,2.4-6.34,.07-.23,.02-.36-.17-.47-.15-.08-.28-.18-.43-.26-.87-.47-.85-.46-1.47,.32-2.32,2.9-5.26,4.78-8.95,5.35-2.6,.4-5.11-.11-7.58-.93-2.31-.77-4.64-1.38-7.11-1.2-.55,.04-1.09,.11-1.64,.12-.56,0-.89-.37-.79-.9,.87-4.67,3.31-8.34,7.27-10.93,2.83-1.85,6.02-2.5,9.36-2.24,2.26,.18,4.23,1.16,6.03,2.52,.96,.73,1.92,1.45,2.68,2.41,.1,.13,.24,.27,.38,.32,1.26,.38,2.32,1.08,3.34,2,.81-4.45,1.3-8.82,.55-13.25,.51,.26,.95,.63,1.38,1.01,.28,.57,.28,1.18,.3,1.79,.13,3.63-.2,7.22-.92,10.77-.09,.46-.04,.87,.22,1.27,.15,.23,.28,.48,.35,.74,.09,.34,0,.64-.3,.83-.29,.18-.57,.08-.83-.1-.14-.1-.24-.24-.33-.39-1.04-1.68-2.46-2.88-4.37-3.48-.08-.03-.15-.07-.23-.11-1.09-1.21-2.3-2.28-3.66-3.21-1.97-1.34-4.1-1.98-6.47-1.85-2.29,.13-4.5,.66-6.46,1.87-3.38,2.08-5.65,5.04-6.67,8.91-.05,.18-.1,.37-.18,.61,.25-.02,.48-.04,.7-.04,3.06-.29,5.89,.66,8.75,1.53,2.45,.74,4.94,.99,7.44,.28,2.42-.68,4.47-1.99,6.12-3.89,.35-.4,.72-.78,1.01-1.22,.4-.61,.96-.74,1.61-.55,1.53,.46,2.63,1.49,3.54,2.75,.24,.34,.35,.76-.02,1.1-.37,.34-.75,.2-1.07-.11-.3-.29-.39-.07-.46,.18-.47,1.74-1.22,3.38-1.87,5.05-.15,.39-.28,.8-.64,1.08-.5,.06-.94-.08-1.3-.43Z" fill="#319d29"/><path d="M47.05,97.23c.17,.46,.34,.93,.5,1.39-.3,.34-.57,.72-1.12,.6-.99-2.08-1.71-4.26-2.37-6.47-.78-2.64-1.22-5.34-1.39-8.08-.03-.43-.18-.76-.46-1.07-.18-.38-.05-.7,.21-.98,.68-.75,1.52-1.27,2.49-1.59,.57-.18,1.08-.02,1.57,.28,.96,.59,1.75,1.4,2.63,2.09,.61,.49,1.27,.92,1.95,1.31,1.69,.97,3.49,1.21,5.39,.86,.98-.18,1.95-.42,2.88-.76,1.33-.49,2.68-.79,4.1-.7,.37-.02,.73,.07,1.09,.13,.18,0,.36,.09,.63,.05-.47-.86-.96-1.64-1.58-2.32-2.72-3-6.08-4.82-10.13-5.22-1.51-.15-2.92,.37-4.23,1.13-.4,.23-.8,.48-1.14,.8-.22,.23-.41,.48-.68,.65-.72,.3-1.52,.35-2.22,.73-.79,.43-1.54,.88-2.15,1.54-.19,.2-.38,.39-.63,.53-.31,.17-.62,.15-.88-.09-.28-.26-.24-.57-.07-.87,.19-.34,.49-.58,.74-.86,.37-.33,.49-.76,.46-1.25-.05-1.17,.04-2.34,.13-3.51,.02-.26,.04-.51,.3-.65,.41-.26,.83-.51,1.24-.77-.23,1.63-.37,3.26-.34,4.98,.91-.39,1.75-.8,2.69-.94,.16-.02,.28-.24,.42-.36,1.98-1.68,4.24-2.64,6.86-2.36,2.63,.28,5.05,1.27,7.24,2.76,2.47,1.68,4.51,3.74,5.64,6.58,.13,.33,.29,.67,0,1.01-.31,.37-.69,.24-1.05,.12-1.95-.68-3.88-.64-5.81,.08-1.54,.57-3.13,1-4.78,1.08-2.73,.13-4.98-1.06-7.03-2.71-.76-.61-1.52-1.22-2.25-1.85-.49-.42-.89-.13-1.32,.08-.39,.2-.66,.41-.64,.95,.13,4.03,.95,7.92,2.32,11.7,.24,.67,.51,1.32,.77,1.99Z" fill="#319d29"/><path d="M9.9,53.08c.5,0,1.01,0,1.51-.01,.02,0,.05,.02,.05,.03,0,.03-.01,.06-.02,.09-.51-.02-1.04,.12-1.54-.11Z" fill="#fed18f"/><path d="M67.5,43.54c-.17,.97-.68,1.8-1.18,2.62-2.59,4.25-6.43,6.96-10.96,8.8-2.65,1.08-5.42,1.72-8.25,2.01-2.31,.23-4.62,.19-6.94-.09-3.56-.43-6.94-1.38-10.1-3.05-3.8-2.01-6.93-4.73-8.88-8.64-1.19-2.37-1.71-4.91-1.46-7.54,.32-3.32,1.7-6.21,3.87-8.76,1.91-2.24,4.22-3.94,6.8-5.29,2.5-1.3,5.17-2.14,7.94-2.69,2.69-.54,5.42-.61,8.13-.47,2.53,.14,5.03,.58,7.42,1.49,.25,.12,.51,.2,.76,.33,2.64,1.18,5.11,2.62,7.21,4.64,1.84,1.76,3.42,3.69,4.51,6,1.07,2.26,1.83,4.6,1.67,7.14-.07,1.18-.17,2.35-.55,3.49Z" fill="#fed23e"/><path d="M42.2,80.49c-.22,.26-.45,.5-.64,.78-.14,.2-.21,.44,0,.64,.21,.2,.47,.3,.75,.11,.09-.06,.19-.11,.25-.19,1.3-1.46,2.93-2.32,4.85-2.62,.77-.41,1.57-.26,2.36-.14,1.59,.25,3.15,.63,4.69,1.14,.32,.11,.65,.2,.85,.51,.01,.2-.14,.24-.28,.29-1.1,.01-2.19-.19-3.28-.28-1.26-.11-2.49,.02-3.73,.07-.37,.02-.39,.19-.16,.43,.63,.68,1.37,1.21,2.25,1.49,1.02,.31,2.06,.43,3.13,.32,3-.32,6-.42,8.92,.55,.45,.15,1.02,.15,1.26,.7-1.9-.2-3.61,.55-5.34,1.1-3.43,1.08-6.46,.41-9.16-1.93-.65-.56-1.3-1.13-2-1.63-1.34-.95-1.9-.95-3.26-.02-.4,.27-.74,.62-1.11,.93-.25,.21-.33,.48-.23,.79-.2,1.56,0,3.11,.23,4.65,.39,2.74,1.01,5.43,2.05,8.01,.36,.9,.81,1.76,1.26,2.62,.11,.22,.28,.43,.24,.7-.28,.53-.72,.42-1.14,.25-.94-.39-1.91-.63-2.93-.76-1.48-.18-2.9,.02-4.27,.58-.53,.22-1,.24-1.5-.09-.31-.21-.67-.35-1.01-.51-.2-.1-.45-.16-.43-.47,.93-2.03,1.78-4.1,2.41-6.24,.2-.66,.21-.66,.67-.15,.24,.27,.52,.41,.83,.21,.33-.21,.3-.57,.11-.84-.91-1.34-2.06-2.41-3.66-2.86-.52-.14-.93,.02-1.29,.52-1.96,2.71-4.5,4.59-7.8,5.34-2.33,.53-4.63,.24-6.9-.41-1.6-.46-3.17-1.01-4.8-1.35-1.32-.27-2.65-.16-3.97-.21-.02-.4,.29-.59,.55-.79,1.38-1.07,2.96-1.59,4.7-1.66,2.1-.09,4.17,.22,6.26,.44,2.29,.25,4.59,.44,6.86-.21,1.13-.32,2.18-.8,3.06-1.6,.18-.17,.44-.35,.39-.62-.05-.3-.39-.28-.62-.35-1.63-.49-3.3-.66-5-.76-1.44-.08-2.87,.06-4.3,.03-.24-.01-.48-.02-.71,.06-.14,.03-.28,.05-.43,.05-.19-.05-.48,.03-.46-.32,.4-.37,.93-.38,1.41-.49,2.76-.6,5.55-.78,8.36-.66,.63,.03,1.25,.2,1.85,.4,.3,.1,.57,.1,.83-.1,2.13,.6,3.73,1.88,4.83,3.8,.19,.32,.51,.52,.85,.31,.29-.18,.36-.5,.16-.83-.14-.23-.26-.49-.41-.71-.22-.32-.24-.65-.17-1.02,.39-2.02,.69-4.05,.86-6.1,.14-1.67,.05-3.33,.1-4.99,.02-.55-.21-1.08-.13-1.63,.58,.18,1.11,.53,1.72,.61,.36,.05,.72,.06,1.07-.06,.16,.14,.2,.33,.17,.52-.2,1.3-.06,2.61,.03,3.91,.02,.25-.02,.5-.07,.75Z" fill="#41c638"/><path d="M36.23,2.01c.48,.38,.88,.89,1.53,1.02,.64,.22,1.22,.58,1.85,.82,.2,.07,.37,.21,.51,.37,1.25,1.44,2.12,3.04,2.13,5.02,.01,1.82-.02,3.64-.53,5.41-.39,1.35-1.06,2.53-2.24,3.37-.74,.52-1.03,.44-1.25-.42-.54-2.09-1.02-4.19-1.34-6.26,.04,.46,.02,.99,.02,1.51-.03,1.71,.08,3.42,.23,5.12,.02,.25,.09,.58-.19,.68-.28,.1-.51-.15-.71-.33-2.28-2.03-3.52-4.59-3.99-7.58-.43-2.73,.29-5.15,1.9-7.34,.52-.71,1.13-1.32,2.09-1.37Z" fill="#feda3b"/><path d="M80.24,56.08c-1.38,.08-2.75-.07-4.1-.37-.65-.32-1.22-.77-1.72-1.28-1.14-1.19-2.42-2.24-3.38-3.6-.48-.68-.91-1.38-1.26-2.12-.33-.7-.23-.89,.53-.88,1.4,.02,2.79,.08,4.15,.42,.14,.03,.27,.13,.46,.04-1.05-.6-1.99-1.32-3.01-1.91-.13-.07-.26-.14-.38-.23-.14-.11-.38-.2-.32-.42,.05-.2,.28-.25,.46-.28,1.22-.2,2.44-.23,3.67-.13,3.19,.26,5.73,1.77,7.91,4,.71,.72,1.47,1.4,1.96,2.31-.49,1.84-1.41,3.33-3.34,3.98-.54,.18-1.08,.37-1.64,.47Z" fill="#feda3b"/><path d="M73.98,66.38c-.34,.13-.68,.27-1.01,.4-.62,.29-1.27,.11-1.87-.02-3.77-.8-6.78-2.7-8.49-6.27-.69-1.42-1.08-2.94-.75-4.55,.03-.17,.08-.33,.14-.49,.17-.4,.43-.48,.81-.29,1.24,.65,2.42,1.38,3.38,2.3-.63-1.07-1.41-2.13-2.34-3.08-.13-.13-.28-.3-.18-.5,.1-.18,.3-.11,.46-.11,4.16-.09,7.41,2.32,8.98,6.31,.7,1.77,1.1,3.64,1.03,5.57,0,.25,.03,.51-.17,.72Z" fill="#feda3b"/><path d="M73.98,66.38c.09-2.57-.35-5.04-1.53-7.34-1.3-2.53-3.3-4.23-6.11-4.91-.85-.2-1.71-.18-2.72-.21,1.19,1.2,2.18,2.44,2.84,3.93-.47-.36-.95-.71-1.41-1.09-.67-.56-1.44-.95-2.19-1.38-.56-.32-.67-.24-.83,.41-.27,1.12-.11,2.22,.22,3.3,.68,2.26,1.98,4.03,3.96,5.38,1.46,.99,2.96,1.77,4.69,2.09,.68,.12,1.37,.23,2.07,.22-1.06,.71-2.23,.64-3.4,.44-2.62-.46-4.73-1.93-6.76-3.54-.28-.22-.55-.46-.82-.69-1.33-1.16-2.44-2.44-2.86-4.25-.24-1.05-.88-1.96-1.55-2.81-.27-.35-.26-.53,.18-.74,2.69-1.29,5.09-2.99,7.13-5.18,.3-.33,.55-.4,.98-.18,4.05,2.04,6.92,5.11,8.35,9.46,.58,1.76,1.12,3.53,1.03,5.42-.01,.25-.02,.5-.09,.75-.25,.96-.24,.96-1.18,.93Z" fill="#feb145"/><path d="M25.68,71.6c-.45,.25-.83,.65-1.41,.63-.82-.56-1.19-1.42-1.44-2.32-.79-2.83-.29-5.49,1.12-8.01,.88-1.57,1.98-2.95,3.59-3.85,.54-.3,1.11-.53,1.7-.7,.16-.05,.34-.12,.48,.03,.17,.18,.03,.36-.06,.52-.66,1.16-1.27,2.34-1.85,3.54-.23,.47-.34,.99-.6,1.32,.58-.95,1.38-1.88,2.16-2.82,.56-.67,1.19-1.27,1.8-1.88,.5-.49,.81-.46,1.13,.18,.59,1.17,.83,2.42,.74,3.75-.22,3.2-2.01,5.49-4.29,7.5-.94,.83-1.92,1.59-3.07,2.11Z" fill="#feda3b"/><path d="M5.71,50.65c-.6-.2-1.14-.5-1.52-1.02-.01-.79-.23-1.53-.56-2.24-.06-.14-.08-.28-.06-.43,.76-1.48,1.82-2.69,3.23-3.58,1.36-.85,2.69-1.8,4.35-1.98,2.03-.23,3.91,.22,5.61,1.36,.07,.05,.13,.1,.2,.16,.51,.44,.5,.6-.1,.89-.68,.34-1.36,.69-2.05,1.02-.63,.3-1.21,.7-1.85,.98,1.28-.53,2.62-.84,3.98-1.1,.58-.11,.75,.08,.66,.65-.18,1.14-.74,2.07-1.61,2.8-2.13,1.77-4.61,2.65-7.35,2.77-.98,.04-1.99,.19-2.94-.27Z" fill="#feda3b"/><path d="M43.86,72.87c-.51,.25-.98,.55-1.42,.92-.64,.55-1.27,.54-2.02,.09-1.18-.73-1.79-1.9-2.3-3.11-.75-1.75-1.17-3.58-1.17-5.48,0-1.59,.47-3.03,1.42-4.32,.34-.47,.79-.83,1.26-1.15,.57-.38,.8-.28,.97,.4,.4,1.6,.71,3.22,1.01,4.84,.1,.56,.24,1.11,.28,1.6,.09-1.18,.11-2.45,.23-3.72,.07-.72,.02-1.44,.04-2.15,.03-.74,.32-.9,.97-.53,1.55,.89,2.21,2.41,2.64,4.02,.32,1.17,.26,2.4,.08,3.59-.23,1.51-.71,2.96-1.45,4.31-.14,.26-.29,.51-.54,.7Z" fill="#feda3b"/><path d="M1.51,33.62c.26-.43,.46-.87,.4-1.39,.41-.53,.93-.94,1.54-1.17,1.97-.75,3.99-1.07,6.1-.81,1.41,.17,2.83,.23,4.16,.81,1.66,.73,2.74,1.95,3.14,3.73,.04,.19,.07,.37,.08,.56,.05,1.07-.21,1.26-1.19,.9-2.82-1.03-5.71-1.81-8.65-2.4-.08,0,.02,.12,0,.04-.01-.04,0-.05,.04-.05,1.37,.29,2.66,.83,3.93,1.39,.93,.41,1.86,.82,2.75,1.31,.19,.1,.41,.21,.41,.44,0,.28-.27,.37-.49,.42-2.08,.5-4.15,1.03-6.31,1.1-.87,.03-1.63-.27-2.36-.66-1.61-.85-2.74-2.17-3.52-3.8-.07-.14-.1-.28-.05-.43Z" fill="#feda3b"/><path d="M58.49,7.21c.29,.91,.18,1.85,.28,2.78,.17,1.44-.72,2.23-1.57,3.17-1.78,1.96-3.16,4.16-3.44,6.88-.04,.35-.15,.51-.57,.4-1.6-.45-3.22-.8-4.87-.99-.81-.09-1.63-.22-2.46-.18-.42,.02-.84-.05-1.26-.07-.67-.02-.73-.4-.76-.9-.06-1.12,.02-2.24,.15-3.34,.29-2.35,.87-4.63,2.01-6.73,1.01-1.86,2.31-3.46,4.08-4.66,.34-.23,.7-.38,1.11-.43,.08,.43,.16,.87,.17,1.31-.72,.76-1.59,1.38-2.25,2.22-.8,1.01-1.54,2.06-1.88,3.28-.62,2.2-.43,4.37,.62,6.42,.25-.01,.25-.17,.29-.27,.76-1.79,1.62-3.53,2.49-5.27,.12-.24,.24-.64,.53-.53,.35,.12,.15,.51,.1,.78-.38,1.97-.6,3.97-1.03,5.93-.11,.49,.2,.4,.48,.35,1.36-.23,2.34-1.05,3.16-2.08,1.54-1.94,2.6-4.11,2.98-6.57,.15-.96,.17-1.94-.26-2.87-.08-.17-.16-.35-.05-.54,.23-.15,.4,0,.56,.14,.56,.5,1.22,1.82,1.28,2.61,.08-.29-.18-.61,.12-.84Z" fill="#feb145"/><path d="M36.23,2.01c-2.47,1.16-3.41,3.36-3.79,5.82-.52,3.33,.56,6.28,2.54,8.92,.53,.7,1.15,1.34,2.02,1.88-.23-2.74-.34-5.38-.08-8.04,.15,.78,.31,1.57,.45,2.35,.28,1.62,.68,3.21,1.09,4.79,.15,.58,.28,.6,.77,.26,1.59-1.1,2.26-2.71,2.6-4.53,.28-1.46,.26-2.93,.25-4.41-.02-1.9-.93-3.42-2.13-4.8-.24-.27-.58-.33-.89-.46-.48-.19-.91-.43-1.29-.77,2.47-.15,4.31,1.26,5.31,3.78,.09,.22,.17,.43,.26,.65,.79,2.06,.77,2.05,.14,4.2-.69,2.35-.83,4.76-.74,7.19,.01,.31,0,.43-.37,.44-2.77,.11-5.47,.61-8.1,1.49-.41,.14-.57,.03-.71-.35-.76-1.99-1.71-3.92-2.36-5.92-.53-1.63-.89-3.38-.6-5.2,.33-2.06,.95-3.98,2.22-5.63,.58-.76,1.19-1.53,2.22-1.79,.44-.11,.82-.13,1.19,.14Z" fill="#feb145"/><path d="M22.25,9.12c.63-.52,1.25-.2,1.84,.05,2.57,1.07,4.32,3.05,5.69,5.38,1.17,1.99,1.83,4.2,2.69,6.33,.15,.38,0,.51-.33,.65-2.31,.96-4.49,2.15-6.45,3.72-.46,.37-.91,.75-1.34,1.15-.2,.18-.31,.2-.51,0-2.63-2.62-4.54-5.65-5.13-9.37-.23-1.46-.25-2.94,.12-4.39,.12-.49,.29-.97,.62-1.37,.26,.29,.15,.64,.17,.97,.14,3.13,.86,6.05,2.77,8.62,.73,.98,1.7,1.19,2.79,1.14,.62-.03,.67-.15,.39-.69-.74-1.43-1.42-2.89-2.05-4.37-.13-.3-.42-.73-.1-.91,.31-.17,.45,.33,.63,.57,1.04,1.41,2.1,2.82,3.24,4.16,.38,.44,.44,.43,.63-.12,.7-2,.43-3.93-.33-5.87-.93-2.36-2.67-3.91-4.76-5.18-.21-.13-.48-.19-.57-.47Z" fill="#feb145"/><path d="M22.25,9.12c1.98,1.02,3.75,2.31,4.85,4.3,1.29,2.35,1.94,4.81,.9,7.46-.07,.19-.06,.48-.31,.49-.21,.01-.33-.24-.46-.4-1.31-1.59-2.58-3.21-3.82-5,.04,.7,.36,1.18,.59,1.69,.6,1.33,1.26,2.63,1.92,3.93,.16,.31,.19,.43-.21,.49-1.42,.23-2.6,.04-3.55-1.25-1.34-1.83-2-3.87-2.46-6.03-.25-1.17-.26-2.34-.25-3.52,.15-.48,.5-.83,.94-.95,.76-.21,1.37-.61,1.86-1.2Z" fill="#feda3b"/><path d="M55.16,72.49c-.82-.49-1.76-.65-2.66-.91-1.82-1.18-2.65-2.91-2.71-5.03-.06-1.8-.03-3.59,.38-5.36,.1-.43,.23-.86,.42-1.26,.11-.23,.23-.49,.51-.52,.31-.03,.39,.28,.5,.5,.74,1.55,1.34,3.15,1.89,4.76-.13-1.79-.33-3.59-.55-5.39-.09-.71,.1-.88,.81-.75,1.79,.31,2.77,1.55,3.57,3.05,1,1.86,.77,3.8,.3,5.68-.41,1.63-1.06,3.21-2,4.64-.14,.21-.23,.46-.47,.59Z" fill="#feda3b"/><path d="M7.49,21.44c.02-.27,.19-.44,.41-.51,.6-.2,1.05-.6,1.5-1.02,1.03-.83,2.18-.52,3.29-.31,2.31,.44,4.21,1.65,5.69,3.45,1.04,1.27,1.45,2.85,1.83,4.42,.06,.25,.05,.53-.21,.68-.27,.15-.49-.05-.69-.18-2-1.27-4.07-2.4-6.06-3.19,1.24,.69,2.53,1.72,3.75,2.83,.41,.37,.84,.71,1.23,1.09,.63,.62,.57,.9-.26,1.18-.1,.03-.2,.06-.31,.07-1.49-.58-2.94-1.25-4.52-1.56-.86-.17-1.73-.32-2.59-.48-.46-.43-.7-1-1.01-1.53-.78-1.34-1.28-2.8-1.92-4.21-.11-.23-.16-.48-.13-.74Z" fill="#feda3b"/><path d="M25.68,71.6c.68-.67,1.57-1.04,2.3-1.65,1.99-1.68,3.8-3.49,4.56-6.07,.52-1.74,.51-3.48-.18-5.19-.06-.14-.13-.27-.2-.4-.23-.43-.42-.59-.88-.14-1.46,1.44-2.78,3-3.96,4.67-.08,.12-.18,.22-.31,.31,.66-2,1.67-3.82,2.71-5.66-4.86,.48-9.78,9.5-5.46,14.76-.74,.08-1.24-.31-1.63-.86-.88-1.25-1.19-2.69-1.28-4.17-.21-3.61,1.11-6.66,3.48-9.33,1.05-1.19,2.14-2.33,3.41-3.29,.23-.17,.38-.19,.61-.06,2.2,1.28,4.58,2.11,7.06,2.8-.78,1.53-1.21,3.16-1.31,4.81-.13,2.16-1.25,3.82-2.4,5.46-1.15,1.64-2.7,2.88-4.45,3.88-.73,.42-1.4,.03-2.1,.14Z" fill="#feb145"/><path d="M43.86,72.87c.85-1.59,1.55-3.24,1.82-5.04,.35-2.3,.01-4.46-1.39-6.38-.36-.5-.88-.85-1.42-1.15-.34-.19-.55-.18-.54,.3,.01,1.1,0,2.19-.11,3.29-.1,1.03-.1,2.06-.14,3.09,0,.13-.01,.26-.23,.34-.13-.73-.26-1.44-.4-2.15-.34-1.71-.69-3.42-1.04-5.13-.08-.38-.25-.39-.57-.18-1.52,.97-2.36,2.41-2.56,4.11-.41,3.59,.43,6.86,2.92,9.6,.08,.09,.15,.2,.23,.3-1.29-.52-2.17-1.5-2.84-2.66-1.01-1.76-1.51-3.68-1.76-5.69-.29-2.33,0-4.57,.76-6.77,.03-.08,.05-.16,.08-.24,.37-.89,.38-.94,1.31-.77,2.5,.45,5.02,.56,7.56,.5,.19,0,.41,.05,.57-.03,.66-.3,.86,.12,1.02,.61,.68,2.16,.79,4.36,.58,6.61-.2,2.14-1,4.03-2.11,5.82-.42,.67-.9,1.34-1.73,1.6Z" fill="#feb145"/><path d="M79.33,43.53c-1.48-.62-2.99-1.15-4.57-1.44-1.67-.31-3.35-.62-5.06-.24-.34,.08-.38-.03-.32-.36,.13-.76,.24-1.54,.27-2.31,.07-1.54-.14-3.07-.54-4.56-.09-.33-.04-.48,.25-.66,1.69-1.03,3.55-1.5,5.5-1.74,4.04-.5,7.51,.85,10.74,3.1,.8,.56,1.51,1.22,1.99,2.09-.13,.25-.31,.42-.61,.45-.3-.11-.43-.39-.62-.61-1.87-2.2-4.22-3.47-7.13-3.42-2.52,.04-4.8,.91-6.88,2.55,1.47,0,2.82,.1,4.17,.32,.25,.04,.5,.08,.74,.16,.19,.06,.48,.09,.43,.37-.04,.26-.32,.25-.52,.25-1.54,0-3.02,.36-4.47,.85-.63,.21-.64,.33-.15,.78,1.02,.92,2.21,1.46,3.55,1.74,2.5,.52,5,.53,7.49-.04,.91-.21,1.73-.57,2.37-1.27,.15-.17,.32-.35,.58-.34,.24,.23,.1,.47-.01,.69-.21,.42-.5,.77-.86,1.08-1.79,1.49-3.83,2.36-6.15,2.54-.06,0-.13,0-.19,.03Z" fill="#feb145"/><path d="M79.96,29.83c-.52,.55-1.16,.9-1.83,1.21-.26,.12-.49-.07-.74-.08-2.73-.07-5.37,.38-7.86,1.53-.93,.43-.92,.47-1.38-.48-1.21-2.51-2.9-4.64-5.04-6.41-.21-.18-.59-.36-.15-.72,1.4-1.12,2.78-2.26,4.43-3.02,2.19-1.01,4.47-1.22,6.85-.98,1.6,.16,3.17,.44,4.65,1.06,.9,.38,1.76,.82,2.34,1.66,.07,.32,.05,.61-.27,.79-.35,0-.58-.25-.82-.44-1.38-1.04-2.94-1.63-4.65-1.67-1.66-.04-3.21,.52-4.63,1.37-1.11,.66-2.12,1.46-3.05,2.54,1.31-.2,2.51-.42,3.72-.51,.08,0,.17-.03,.25-.04,.21-.01,.49-.07,.54,.18,.05,.24-.2,.35-.4,.42-.9,.33-1.73,.79-2.6,1.17-.23,.1-.45,.23-.68,.35-.39,.22-.37,.45-.09,.76,.89,1,2.09,1.36,3.35,1.48,1.97,.18,3.88-.16,5.73-.85,.99-.37,1.83-.96,2.53-1.75,.15-.17,.26-.4,.53-.41,.26,.35-.03,.6-.2,.83-.75,.99-1.71,1.74-2.87,2.33,.61-.08,1.15-.17,1.69-.31,.21-.06,.43-.21,.66-.02Z" fill="#feb145"/><path d="M1.51,33.62c.78,1.57,1.76,2.96,3.3,3.89,1.21,.74,2.48,.95,3.88,.74,1.61-.24,3.19-.57,4.76-.95,.12-.03,.24-.06,.36-.1,.13-.04,.33-.03,.33-.22,0-.15-.16-.18-.27-.23-1.54-.79-3.11-1.52-4.74-2.12-.76-.28-1.51-.62-2.3-.84,.64-.11,1.25,.12,1.86,.24,2.53,.5,4.98,1.27,7.39,2.18,.56,.21,.66,.16,.69-.45,.09-1.83-1.28-3.82-3.07-4.54-1.31-.52-2.69-.62-4.07-.79-2.09-.26-4.06,.06-6.02,.74-.67,.23-1.07,.83-1.7,1.07-.03-.66,.39-1.06,.87-1.37,1.44-.92,2.99-1.51,4.71-1.69,4.08-.43,7.76,.68,11.18,2.81,1.09,.68,1.05,.72,.66,1.93-.46,1.43-.82,2.88-.76,4.39,.02,.45-.16,.46-.51,.42-3.86-.45-7.59,.01-11.15,1.63-.36,.17-.68,.17-1.02-.03-2.18-1.29-3.57-3.24-4.5-5.54-.15-.38-.31-.81,.12-1.15Z" fill="#feb145"/><path d="M85.1,51.66c-1.69-2.17-3.6-4.09-6.14-5.25-2.06-.94-4.25-1.16-6.49-.88-.21,.03-.42,0-.63,.04-.19,.03-.37,.09-.63,.16,1.21,.77,2.36,1.5,3.51,2.23,.09,.06,.19,.1,.28,.14,.17,.07,.22,.19,.17,.35-.08,.28-.24,.05-.34,.03-1.54-.39-3.11-.48-4.69-.51-.46,0-.5,.13-.31,.51,.69,1.39,1.52,2.67,2.63,3.77,1.2,1.18,2.36,2.41,3.68,3.47-.78-.08-1.53-.28-2.26-.55-.6-.22-.8-.85-1.17-1.29-1.68-2.07-3.64-3.81-6.06-4.96-.55-.26-.49-.46-.18-.85,.93-1.17,1.69-2.46,2.11-3.87,.32-1.08,1.03-1.23,1.88-1.27,2.94-.14,5.73,.56,8.4,1.73,1.46,.64,2.86,1.39,3.99,2.53,.97,.98,2.03,1.91,2.57,3.23-.04,.44,.05,.91-.32,1.26Z" fill="#feb145"/><path d="M13.34,53.04c1.24-1.38,2.86-2.13,4.54-2.78,1.26-.49,2.58-.77,3.9-1.01,.49-.09,.74,.16,1.05,.49,1.25,1.37,2.63,2.62,4.18,3.66,.12,.08,.24,.17,.43,.31-.88,.62-1.59,1.35-2.3,2.09-1.85,1.91-3.48,3.95-4.35,6.52-.23,.68-.87,1.17-1.48,1.59-1.89,1.29-3.9,2.27-6.27,2.22-.2,0-.43,.07-.6-.12-.05-.38,.05-.75-.1-1.15-.18-.49,.38-.34,.6-.48,1.05-.24,2.12-.36,3.14-.75,1.99-.75,3.54-2.04,4.78-3.73,1.23-1.68,2.02-3.56,2.59-5.54,.04-.12,.07-.24,.09-.37,.03-.22,.17-.52-.04-.65-.21-.14-.42,.12-.61,.24-2.01,1.3-3.95,2.69-5.66,4.37-.24,.24-.52,.43-.8,.63-.09,.06-.2,.12-.29,.06-.12-.09-.08-.23-.03-.34,.09-.19,.22-.36,.35-.53,1.42-1.98,3.07-3.76,4.82-5.46,.17-.17,.51-.32,.41-.58-.1-.25-.45-.16-.7-.15-3.12,.11-5.64,1.45-7.68,3.76-.59,.66-.94,1.51-1.64,2.08-.37-.15-.19-.4-.1-.62,.35-.79,.75-1.56,1.3-2.24,.35-.44,.59-.91,.45-1.5Z" fill="#feb145"/><path d="M5.71,50.65c2.94,.37,5.77,.03,8.4-1.41,1.29-.71,2.48-1.54,3.08-2.97,.18-.44,.48-1.02,.24-1.36-.24-.33-.81,.03-1.23,.12-1.19,.24-2.35,.61-3.53,.93,1.4-1.05,3.01-1.71,4.59-2.53-.83-.94-1.93-1.35-3.09-1.67-2.34-.65-4.42-.05-6.43,1.2-1.67,1.04-3.04,2.31-4.04,3.99-.45-.17-.24-.51-.17-.77,.25-.89,.87-1.53,1.53-2.13,1.23-1.12,2.55-2.13,3.89-3.12,.18-.14,.39-.24,.61-.32,1.14-.47,2.36-.55,3.56-.76,1.11-.2,2.23-.11,3.35-.14,.54-.02,1.05,.1,1.57,.16,.32,.03,.52,.17,.57,.59,.32,2.59,1.2,4.99,2.64,7.17,.28,.42,.16,.52-.27,.6-2.89,.52-5.57,1.51-7.88,3.37-.09,.08-.21,.15-.33,.17-2.46,.36-4.83,.13-7.04-1.12Z" fill="#feb145"/><path d="M55.16,72.49c.04-.42,.35-.72,.54-1.06,.88-1.57,1.6-3.22,1.94-4.98,.5-2.53,.05-4.86-1.87-6.75-.63-.62-1.42-.9-2.26-1.05-.36-.06-.49,.01-.43,.48,.28,2.05,.52,4.1,.54,6.19-.8-1.96-1.47-3.96-2.47-5.92-.58,.64-.73,1.38-.87,2.12-.39,2.04-.5,4.1-.2,6.16,.17,1.15,.69,2.16,1.54,2.99,.3,.3,.58,.61,.87,.92-1.57-.4-2.51-1.54-3.32-2.83-.07-.11-.1-.24-.19-.33-.45-.45-.44-.93-.33-1.54,.55-2.87,.47-5.72-.47-8.51-.03-.1-.04-.2-.07-.33,2.62-.41,5.19-.95,7.63-1.98,.39-.17,.56,.07,.73,.3,1.3,1.81,2.15,3.78,2.39,6.03,.31,2.78-.27,5.35-1.55,7.79-.44,.84-.99,1.61-1.69,2.27-.15,.14-.29,.37-.48,.03Z" fill="#feb145"/><path d="M70.29,15.97c-.69,1.97-1.51,3.86-3.52,4.88-1.73,.87-3.25,2.03-4.7,3.3-.27,.24-.43,.3-.74,.09-1.88-1.31-3.91-2.34-6.07-3.12-.31-.11-.4-.25-.37-.6,.14-2.33,1.29-4.2,2.67-5.96,2.3-2.94,5.37-4.61,8.98-5.38,.37-.08,.75-.1,1.12-.15,.2,.27,.44,.52,.33,.9-1.53-.05-2.99,.27-4.37,.9-1.95,.9-3.67,2.13-4.83,3.98-.75,1.2-1.17,2.53-1.17,3.97,0,.37,.08,.71,.23,1.05,.3,.64,.5,.68,1.01,.2,1.08-1.01,2.15-2.04,3.32-2.95,.26-.2,.59-.63,.83-.4,.31,.29-.15,.64-.34,.9-.76,1.07-1.43,2.2-2.08,3.34-.3,.52-.24,.64,.34,.79,.97,.26,1.79-.15,2.6-.57,1.91-1.01,3.22-2.65,4.44-4.37,.55-.78,1.02-1.61,1.47-2.45,.11-.21,.16-.5,.49-.5,.22,.28,.14,.6,.08,.91-.11,.68-.29,1.35-.54,2.01,.32-.22,.34-.74,.82-.76Z" fill="#feb145"/><path d="M17.66,29.95c.07-.07,.13-.18,.22-.22,.8-.38,.82-.4,.14-1.01-1.57-1.4-3.13-2.82-4.97-3.88-.15-.09-.34-.16-.45-.46,.69,.27,1.33,.49,1.93,.77,1.71,.79,3.35,1.7,4.93,2.73,.15,.1,.3,.3,.5,.18,.22-.13,.15-.39,.11-.58-.91-4.35-3.36-6.83-7.7-7.79-.99-.22-2.01-.23-2.96,.23,.58-.98,1.59-1.06,2.54-1.12,2.3-.13,4.43,.45,6.32,1.81,.25,.18,.41,.41,.54,.69,1.03,2.2,2.41,4.15,4.14,5.86,.25,.24,.26,.37,.02,.65-1.01,1.19-1.94,2.44-2.68,3.9-.81-.71-1.74-1.19-2.62-1.75Z" fill="#feb145"/><path d="M67.5,43.54c.12-1.09,.28-2.18,.36-3.27,.24-3.07-.78-5.83-2.26-8.44-2.23-3.93-5.56-6.7-9.55-8.74-.51-.26-1.01-.53-1.52-.79-.01-.11,0-.19,.14-.12,2.62,.84,4.98,2.16,7.13,3.86,2.9,2.29,5.07,5.11,6.13,8.71,.82,2.79,.75,5.56-.18,8.31-.06,.18-.08,.37-.26,.48Z" fill="#fefefe"/><path d="M12.96,64.48c-.13,.2-.36,.07-.56,.2,.27,.42,.44,.88,.05,1.33-.75-.01-1.23-.39-1.43-1.1-.27-.91-.51-1.8-1.27-2.49-.37-.34-.4-.92-.34-1.44,.36-2.92,1.4-5.54,3.51-7.66,.12-.12,.28-.19,.42-.28,.35,.37,.29,.73,0,1.12-.65,.87-1.21,1.79-1.66,2.78-.07,.16-.17,.29,.01,.44,.17,.24,.04,.46-.08,.64-.73,1.13-.69,2.35-.46,3.59,.11,.57,.09,1.17,.41,1.7,.33,.57,.78,.97,1.4,1.17Z" fill="#feb544"/><path d="M9.53,40.61c-1.65,1.39-3.47,2.59-4.98,4.14-.43,.45-.75,.96-.93,1.56-.07,.22-.15,.45,.06,.64,.18,.53,.36,1.06,.55,1.58,.13,.37,.15,.73-.04,1.09-.21-.12-.41-.3-.43-.52-.07-.8-.61-1.27-1.14-1.75-.28-.25-.36-.51-.23-.89,.66-1.94,2.01-3.29,3.68-4.36,1.07-.69,2.21-1.24,3.47-1.49Z" fill="#feb544"/><path d="M67.96,9.88c-.12-.28-.28-.54-.3-.86,.97-.31,1.67-.09,1.98,.97,.06,.19,.22,.38,.38,.49,1.24,.86,1.33,2.06,1.02,3.37-.17,.73-.36,1.46-.75,2.12-.4,.32-.5,.91-1.1,1.21,.3-1.17,.75-2.21,.7-3.36-.13-.13-.14-.31-.13-.47,.03-1.07-.44-1.91-1.19-2.63-.25-.24-.59-.43-.61-.85Z" fill="#fefefd"/><path d="M80.97,24.36c.09-.25,.17-.5,.26-.75,.39,.17,.48,.55,.48,.89,.01,.65,.07,1.29,.14,1.94,.17,1.55-.73,2.55-1.89,3.39-.89,.21-1.76,.54-2.73,.42,1-.51,1.87-1.18,2.65-1.97,.36-.36,.7-.73,.81-1.25-.16-.92-.41-1.84,.27-2.67Z" fill="#fefefd"/><path d="M85.1,51.66c.1-.42,.02-.89,.32-1.26,.34,.92,.61,1.9,.68,2.84,.07,.87-.77,1.54-1.59,1.96-1.34,.69-2.79,.88-4.27,.88,.85-.5,1.84-.64,2.69-1.17,.71-.44,1.24-.98,1.51-1.77,.18-.51,.56-.93,.66-1.48Z" fill="#fefefe"/><path d="M79.33,43.53c.33-.39,.82-.3,1.23-.36,2.06-.26,3.74-1.29,5.28-2.6,.39-.34,.7-.79,.72-1.35-.1-.56,.03-1.04,.49-1.4,.18-.14,.28-.38,.54-.41,.31,.35,.31,.7,.02,1.07-.15,.2-.26,.43-.3,.69-.18,1.09-.86,1.84-1.72,2.47-1.42,1.03-2.95,1.85-4.61,2.43-.7,.24-1.11-.33-1.65-.53Z" fill="#fefefd"/><path d="M7.49,21.44c.9,2.08,1.68,4.21,2.93,6.12,.07,.1,.09,.23,.13,.35-.93,.2-1.5-.25-1.97-1-.86-1.37-1.42-2.81-1.35-4.45,.02-.36,.08-.7,.25-1.02Z" fill="#feb145"/><path d="M58.49,7.21v.79c-.58-.98-.89-2.09-1.92-2.72-.8-.15-1.58-.42-2.41-.29-.54,.09-1.08,.16-1.63,.1-.48-.05-.97-.14-1.17-.68-.24-.4-.43-.8-.16-1.27,.43-.24,.74-.03,.98,.29,.5,.63,1.07,.8,1.88,.65,1.88-.34,3.82,1.08,4.42,3.13Z" fill="#fefefd"/><path d="M42.2,80.49c-.25-1.43-.31-2.86-.19-4.3,.02-.29,.04-.58,.06-.88,.37-.05,.63-.39,1.02-.41-.24,1.42-.28,2.85-.25,4.28,.01,.58-.13,1.02-.64,1.32Z" fill="#fdfdfc"/><path d="M54.68,22.19s-.09,.08-.14,.12c-.23-.1-.49-.14-.65-.36,.3-.03,.55,.09,.79,.24Z" fill="#fef7e8"/><path d="M34.82,98.52c.62,.48,1.39,.68,2.04,1.1,.21,.14,.46-.04,.66-.13,2.54-1.09,5.05-.91,7.54,.14,.37,.16,.68,.21,.96-.13,.12-.18,.25-.33,.49-.25,.35-.21,.69-.42,1.04-.64,.72-.12,1.39-.48,2.12-.55,.25-.03,.5-.06,.75-.08,.36-.02,.64,.11,.66,.51,.02,.39-.24,.56-.59,.63-.39,.07-.79,.12-1.18,.19-1.06,.2-1.98,.7-2.84,1.32-.58,.42-1.1,.44-1.76,.13-2.29-1.07-4.62-1.2-6.95-.12-.59,.27-1.08,.22-1.65-.11-1.39-.8-2.85-1.47-4.54-1.28-.4,.05-.78-.04-.79-.51,0-.46,.36-.63,.79-.64,.66,0,1.31,0,1.97,0,.42,.13,.84,.26,1.26,.39Z" fill="#047425"/><path d="M33.18,85.94c-.02,.26,.07,.61-.42,.43-2.12-.8-4.31-.59-6.51-.45-1.88,.12-3.71,.45-5.53,.91-.24,.15-.49,.27-.7,.24,.33-.16,.78,0,1.21-.12h.38c.19-.14,.45,.02,.64-.13,.74-.02,1.48-.1,2.21-.09,2.61,.04,5.22,.09,7.74,.96,.5,.17,.47,.36,.2,.69-.93,1.12-2.18,1.7-3.54,2.09-1.9,.55-3.83,.46-5.77,.31-2.54-.2-5.05-.73-7.62-.53-1.95,.15-3.71,.75-5.05,2.27-.27,.01-.54,.03-.82,.04,.37-2.56,1.6-4.69,3.19-6.64,2.03-2.49,4.64-4.07,7.78-4.74,2.57-.55,5.14-.58,7.53,.66,1.95,1.01,3.74,2.29,5.08,4.09Z" fill="#72e21e"/><path d="M63.43,84.28c-1.29-.65-2.68-.96-4.11-1.14-2.12-.26-4.24-.09-6.36,.09-2.06,.18-3.93-.39-5.36-2-.12-.13-.35-.24-.25-.46,.09-.2,.32-.15,.51-.17,1.7-.19,3.41-.14,5.11,0,.69,.06,1.37,.17,2.06,.25,.23,.12,.51-.04,.67,.12-.12-.05-.29-.11-.41-.25-2.54-.93-5.11-1.75-7.88-1.53,.17-.21,.35-.43,.52-.64,3.41-1.53,6.74-1.37,10.06,.33,1.78,.91,3.48,1.92,4.99,3.22,.71,.61,1.34,1.33,1.59,2.29-.38-.04-.76-.08-1.14-.12Z" fill="#72e21e"/><path d="M64.57,84.4c-1.78-2.96-4.7-4.44-7.68-5.82-2.68-1.23-5.42-1.18-8.17-.2-.25,.09-.52,.12-.79,.18,1.34-1.05,2.82-1.76,4.54-1.96,1.38-.16,2.68,.17,3.96,.58,3.69,1.17,6.65,3.29,8.65,6.64,.13,.21,.24,.44,.36,.67-.33,.13-.59-.13-.88-.09Z" fill="#fefefe"/><path d="M46.52,99.26c-.16,.08-.33,.17-.49,.25-1.73-3-2.76-6.25-3.38-9.64-.35-1.93-.55-3.87-.61-5.83,0-.2-.1-.5,.29-.51,.74,.38,.55,1.12,.59,1.72,.28,4.79,1.73,9.27,3.53,13.65,.05,.12,.09,.23,.07,.36Z" fill="#fefefe"/><path d="M43.15,49.4c-1.97,.02-3.71-.27-5.34-1.08-1.84-.91-3.11-2.33-3.52-4.39-.55-2.81,1.31-5.46,4.14-6.01,1.36-.27,2.62-.02,3.8,.63,.89,.48,1.69,.49,2.59,.05,1.18-.59,2.45-.79,3.76-.5,2.72,.6,4.19,3.59,3.05,6.37-1.07,2.6-3.16,3.99-5.81,4.64-.93,.23-1.88,.33-2.67,.29Z" fill="#553826"/><path d="M57.27,31.74c.08,2.68-2.01,4.94-4.66,5.03-2.49,.09-4.63-2.05-4.69-4.69-.05-2.27,1.57-5.21,5.03-5.12,1.83,.05,4.28,1.66,4.32,4.78Z" fill="#553826"/><path d="M38.84,31.84c0,2.72-2.15,4.94-4.76,4.94-2.52,0-4.6-2.16-4.59-4.79,0-2.34,1.67-5.19,5.13-5.02,2.05,.1,4.23,1.9,4.23,4.87Z" fill="#553826"/><path d="M59.35,40.23c-.64,.06-1.22-.08-1.78-.37-1.25-.66-1.42-2.17-.24-2.94,1.35-.88,2.83-1.07,4.33-.3,.62,.32,1,.84,.97,1.52-.02,.64-.36,1.16-.93,1.5-.73,.43-1.5,.68-2.35,.59Z" fill="#feacb1"/><path d="M28.21,40.23c-.86,.09-1.63-.17-2.35-.61-1.23-.74-1.22-2.3,.03-2.98,1.49-.81,2.97-.6,4.33,.25,1.19,.75,1.05,2.28-.18,2.94-.58,.31-1.18,.46-1.83,.39Z" fill="#feacb1"/><path d="M21.23,86.95c-.45,.22-.94,.13-1.41,.22,.27-.21,.56-.35,.9-.34,.13,.18,.33,.1,.51,.12Z" fill="#4acb35"/><path d="M55.29,80.74c.26,.01,.45,.17,.79,.34-.48,.04-.77-.06-1.05-.21,.1,0,.2-.03,.26-.13Z" fill="#49cb35"/><path d="M22.25,86.83c-.18,.2-.42,.1-.64,.12,.18-.2,.42-.09,.64-.12Z" fill="#4acb35"/><path d="M51.37,4.42c.68,.64,1.5,.56,2.33,.47,.98-.1,1.99-.27,2.87,.4,1.2,2.93,.13,5.51-1.21,8.06-.61,1.15-1.39,2.15-2.32,3.06-.75,.75-1.71,.98-2.67,1.2-.4,.09-.44-.15-.35-.5,.54-2.2,.75-4.46,1.19-6.69,0-.02-.02-.04-.09-.19-.48,.97-.97,1.84-1.36,2.76-.51,1.2-1.23,2.31-1.59,3.59-.03,.1-.08,.23-.2,.19-.08-.02-.15-.14-.2-.22-.56-.96-.86-2.02-.99-3.11-.32-2.7,.55-5.01,2.35-7.02,.68-.76,1.36-1.48,2.23-2.01Z" fill="#feda3b"/><path d="M87.05,37.82c-.26,.43-.32,.93-.49,1.4-1.63,1.88-3.87,2.05-6.12,2.15-1.93,.09-3.83-.1-5.68-.73-1.02-.35-1.86-.98-2.65-1.69-.37-.33-.34-.51,.15-.67,1.63-.54,3.26-1.01,5-.97,.1,0,.2-.03,.31-.12-1.8-.51-3.63-.73-5.54-.59,.24-.38,.56-.69,.94-.94,2.1-1.33,4.37-2.14,6.88-2.01,1.9,.1,3.59,.81,5.1,1.98,.81,.63,1.45,1.4,2.09,2.18Z" fill="#feda3b"/><path d="M80.97,24.36c-.24,.74-.37,1.48-.19,2.26,.03,.13-.06,.28-.09,.42-1.46,2-3.61,2.67-5.9,3.03-1.84,.29-3.66,.29-5.37-.62-.07-.04-.16-.07-.22-.12-.47-.36-1.13-.71-1.09-1.29,.03-.41,.74-.58,1.2-.79,.99-.44,1.96-.91,2.93-1.42-1.55,.08-3.07,.29-4.65,.6,.08-.31,.21-.51,.38-.68,1.59-1.63,3.43-2.86,5.68-3.4,2.47-.59,4.66,.08,6.66,1.54,.22,.16,.44,.32,.67,.48Z" fill="#feda3b"/><path d="M12.96,64.48c-.99,0-1.77-.93-1.91-2.22-.07-.64-.16-1.28-.24-1.92-.09-.68,.14-1.28,.4-1.88,.16-.36,.41-.69,.48-1.09,1.86-3.24,4.59-5.29,8.3-5.94,.53-.09,1.1-.04,1.64,.01,.39,.03,.6,.19,.19,.57-.75,.71-1.48,1.45-2.2,2.2-1.21,1.26-2.31,2.62-3.31,4.06-.05,.08-.17,.14-.09,.31,1.02-.88,2.02-1.78,3.05-2.62,1.29-1.05,2.66-2.01,4.09-2.86,.33-.19,.39-.12,.4,.21,.03,.87-.32,1.65-.6,2.44-.76,2.2-1.88,4.18-3.56,5.83-1.6,1.56-3.53,2.41-5.71,2.76-.31,.05-.62,.09-.94,.13Z" fill="#feda3b"/><path d="M67.96,9.88c.32,.33,.65,.66,.97,1,.79,.83,1.13,1.81,.96,2.95-.79,1.44-1.6,2.87-2.63,4.16-1.26,1.59-2.67,2.98-4.62,3.71-.61,.23-1.21,.32-1.85,.13-.69-.21-.75-.31-.38-.95,.82-1.4,1.65-2.79,2.69-4.18-.6,.16-.93,.55-1.28,.85-1.04,.89-2.04,1.83-3.04,2.76-.46,.43-.61,.42-.94-.14-.59-1.01-.42-2.06-.16-3.13,.62-2.61,2.36-4.3,4.53-5.66,1.4-.88,2.94-1.35,4.56-1.6,.4-.06,.8-.05,1.19,.1Z" fill="#feda3b"/><path d="M43.01,48.23c-2.09-.08-4.12-.38-5.84-1.73-1.14-.89-2.2-2.84-1.6-4.62,.56-1.67,1.94-2.78,3.86-2.87,.83-.04,1.65,.23,2.35,.65,1.17,.71,2.3,.67,3.49,.07,.92-.47,1.92-.68,2.95-.47,2.11,.44,3.18,2.7,2.27,4.83-.86,2.02-2.49,3.14-4.53,3.74-.96,.28-1.94,.43-2.94,.4Z" fill="#e52c20"/><path d="M48.81,31.19c2.83-.41,3.32-.87,3.82-3.78,.59,2.36,1.97,3.77,4.12,4.53-2.12,.43-3.32,1.83-4.15,3.71-.31-2.33-1.36-3.96-3.79-4.46Z" fill="#fefefe"/><path d="M38.45,31.9c-1.12,.39-2.03,.67-2.72,1.38-.66,.68-1.11,1.5-1.57,2.35-.28-2.34-1.37-3.92-3.79-4.47,2.24-.22,3.88-.97,3.79-3.61,.62,2.19,1.99,3.61,4.29,4.34Z" fill="#fefefe"/><path d="M54.89,7.77c0-.21,0-.36,0-.5,.02-.32,.14-.6,.47-.67,.37-.08,.6,.15,.71,.49,.19,.56,.34,1.13,.14,1.73-.1,.31-.3,.53-.64,.5-.31-.02-.49-.24-.55-.54-.07-.35-.1-.71-.14-1Z" fill="#fefefc"/><path d="M55.16,10.54c0-.14,.07-.39,.41-.4,.34-.01,.44,.24,.43,.51,0,.25-.1,.52-.43,.53-.34,0-.42-.22-.41-.64Z" fill="#fefdf8"/><path d="M84.01,35.69c.42-.02,1.64,.82,1.77,1.22,.13,.41-.16,.8-.59,.71-.63-.13-1.2-.44-1.56-.99-.3-.45-.09-.92,.38-.94Z" fill="#fefefc"/><path d="M82.13,35.78c-.3-.04-.63-.09-.65-.51-.02-.32,.22-.46,.49-.45,.34,.02,.71,.13,.72,.55,.01,.31-.26,.4-.56,.41Z" fill="#fefcf4"/></svg>