<?xml version="1.0" encoding="UTF-8"?><svg id="Layer_1" xmlns="http://www.w3.org/2000/svg" viewBox="0 0 61.55 89.15"><path d="M20.79,10.35c-1.19-2.07-1.4-4.23-.52-6.47,.32-.82,.77-1.02,1.6-.77,1.63,.49,2.76,1.6,3.64,3.01,.04,.07,.08,.14,.12,.21,.03,.06,.07,.13,.12,.23,1.24-2.58,2.53-5.07,5.08-6.56h1.08c1.19,.82,1.2,2.11,1.3,3.34,.08,1-.13,2-.27,3,.22,.07,.33-.11,.47-.2,1.44-.94,2.96-1.63,4.73-1.59,1.65,.04,2.51,1.17,2.09,2.76-.18,.69-.58,1.25-.97,1.83-.03,.13-.13,.2-.25,.22-.69,.12-1.37,.33-2.09,.32-.29-.35,.08-.43,.25-.54,.59-.38,1.12-.81,1.51-1.41,.16-.25,.29-.52,.35-.82,.08-.45,0-.83-.46-1.04-1.5-.32-2.79,.23-4.01,.99-1.09,.67-1.94,1.57-2.46,2.77-.34,.78-.7,1.57-1.2,2.27-.66,.48-1.39,.81-2.1,1.19-.1,.06-.23,.07-.34,.02-.15-.27,.09-.39,.22-.55,.49-.62,1.02-1.22,1.36-1.95,.58-.98,1.04-2,1.24-3.13,.3-1.09,.57-2.19,.67-3.33,.07-.81-.04-1.59-.25-2.36-.07-.25-.16-.57-.56-.46-.99,.49-1.63,1.34-2.24,2.2-1.79,2.49-2.9,5.21-2.83,8.34,.01,.48,.12,.95,.16,1.42,.02,.2,.09,.39-.02,.58-.2,.16-.35,0-.46-.12-.38-.4-.78-.8-1.04-1.3-.12-1.13-.06-2.25,.14-3.36,.04-.2,.05-.39,.06-.59,0-.18,.02-.37-.04-.55-.3-1.62-1.36-2.66-2.72-3.44-.59-.34-.69-.28-.93,.37-.4,1.9-.19,3.69,1,5.29,.13,.17,.28,.35,.25,.59-.64,.16-1.12-.25-1.67-.43Z" fill="#fe9700"/><path d="M24.83,12.7c.5,.39,.77,1,1.32,1.33,.29,.18,.53,.01,.78-.12,.48-.27,.93-.61,1.5-.7,.86-.28,1.58-.86,2.4-1.21,.4-.45,.99-.57,1.5-.81,.48-.23,.99-.4,1.49-.61,.73-.27,1.47-.53,2.22-.75,.26-.02,.5-.2,.78-.11,.82-.15,1.63-.3,2.45-.45,1.08,0,1.15,.02,1.31,1.13,.48,3.34,2.17,6.11,4.08,8.77,1.38,1.93,2.87,3.77,4.04,5.85,1.65,2.93,2.5,6.06,2.28,9.43-.09,1.41-.39,2.78-.79,4.16,2.17,.03,3.58,1.33,4.89,2.8,.67,.74,1.28,1.54,2.07,2.16,.85,.67,1.8,1.06,2.9,1.08,1.22,.02,1.57,.65,.94,1.72-1.05,1.78-2.75,2.64-4.65,3.19-1.06,.3-2.15,.41-3.34,.2,.52,.85,1.23,1.39,1.91,1.94,.41,.34,.87,.63,1.34,.89,.62,.33,.68,.79,.18,1.3-1.23,1.26-2.79,1.95-4.47,2.39-4.97,1.27-10.29-1.3-12.75-5.04-.09-.13-.18-.26-.3-.42-.6,1.94-1.34,3.77-1.67,5.73-.26,1.52-.24,3.02,.09,4.51,.15,.65-.11,1.05-.62,1.33-.44,.24-.92,.35-1.42,.4-.95,.1-.94,.11-1.09,1.2,1.01-.36,2.02-.59,3.06-.69,1.65-.15,3.26-.06,4.78,.69,.33,.16,.65,.36,.63,.78-.01,.41-.33,.53-.66,.67-1.07,.44-1.85,1.23-2.44,2.21-.44,.73-.82,1.5-1.28,2.22-.99,1.56-2.48,2.18-4.28,2.09-.37-.02-.34,.12-.32,.35,.12,1.55,.38,3.08,.73,4.59,.43,1.81,.89,3.61,1.67,5.31,.35,.41,.54,.89,.57,1.44-.27,.38-.6,.62-1.09,.59-.85-1.63-1.38-3.38-1.89-5.14-.49-1.7-.84-3.44-1.09-5.2-.03-.23,0-.5-.34-.54-.54-.26-.67-.5-.51-1.03,.12-.4,.32-.78,.54-1.13,.23-.37,.59-.51,1.02-.54,.46-.03,.91,.06,1.38,.03,1.2-.08,2.05-.7,2.69-1.67,.33-.5,.57-1.05,.87-1.57,.45-.78,.97-1.51,1.63-2.13,.17-.19,.43-.27,.6-.53-1.34-.45-2.66-.32-3.98-.07-.2,.02-.41,0-.6,.08-1.54,.4-2.93,1.05-3.93,2.36-.86,1.12-.83,1.56,.09,2.61,.48,.56,.52,.85,.16,1.45-.22,.38-.45,.76-.78,1.05-.26,.23-.56,.33-.88,.12-.31-.21-.41-.58-.21-.84,.57-.73,.29-1.29-.15-1.96-.42-.63-.3-1.38-.08-2.09,.53-.97,1.12-1.9,2.07-2.5,.76-.48,.72-1.28,.9-1.99,.07-.29-.27-.28-.45-.37-2.66-1.1-4.19-3.24-5.28-5.77-.67-1.55-1.06-3.18-1.14-4.88,0-.16,.01-.32-.12-.5-.33,.32-.59,.69-.89,1.02-.27,.3-.06,.61,.06,.9,.95,2.21,1.63,4.51,2.07,6.87,.37,1.99,.58,3.98,.67,6.01,.12,2.71-.14,5.37-.47,8.05-.11,.89,.19,1.74,.99,2.3,.35,.24,.69,.48,.88,.88,.14,.31,.17,.63-.1,.89-.29,.28-.61,.17-.87-.04-.43-.33-.86-.64-1.31-.94-.38-.25-.51-.65-.61-1.07-.44-1.52-1.56-2.38-2.93-2.97-2.41-1.04-4.75-.84-7.01,.49-.4,.23-.78,.48-1.16,.74-.51,.35-.98,.75-1.5,1.2,2.15,.4,3.99,1.41,5.84,2.45,2.02,1.14,4.03,1.13,5.91-.41,.41-.34,.88-.51,1.38-.25,.6,.31,1.01,.78,1.13,1.46,.05,.3-.1,.55-.39,.67-.32,.13-.58,0-.8-.25-.14-.15-.19-.46-.47-.37-.22,.08-.24,.35-.3,.56-.31,1.12-.74,2.19-1.19,3.26-.1,.24-.19,.49-.43,.63-.41,.05-.73-.11-1.02-.39-.09-.42,.07-.73,.38-1,.37-.7,.6-1.46,.88-2.26-.63,.09-1.18,.32-1.77,.36-1.75,.13-3.28-.44-4.73-1.36-1.37-.87-2.84-1.49-4.43-1.82-.48-.1-.95-.06-1.43-.06-.32,0-.54-.11-.68-.39-.12-.26,.01-.46,.18-.64,2.02-2.16,4.3-3.97,7.31-4.43,2.3-.35,4.47,.2,6.38,1.59,.21,.15,.41,.31,.62,.47,1.13-6.56,.19-14.66-2.4-20.12-1.27,1.04-2.7,1.76-4.27,2.17-2.07,.54-4.17,.56-6.29,.39-3.67-.3-6.89-1.75-9.93-3.71-.44-.29-.81-.65-1.13-1.06-.44-.58-.26-1.06,.45-1.24,2.05-.53,4.02-1.22,5.79-2.41,.06-.04,.12-.09,.27-.2-.88-.07-1.66,.12-2.44-.02-2.34-.42-4.35-1.38-5.73-3.4-.11-.16-.2-.34-.28-.53-.51-1.21,.09-2.07,1.36-1.82,2.31,.45,4.31-.13,6.15-1.54,1.36-1.05,2.9-1.73,4.71-1.73-.35-.9-.69-1.78-.83-2.72-.35-2.39,.02-4.67,.9-6.9,.9-2.29,2.36-4.23,3.82-6.17,1.25-1.67,2.49-3.36,3.24-5.34,.71-1.87,1.04-3.79,.58-5.79-.11-.47,.17-.75,.5-1,.6-.04,1.1,.28,1.63,.47,.96,.36,1.78,.93,2.41,1.75Z" fill="#319d29"/><path d="M23.97,82.17c-.12,.32-.24,.64-.35,.96-.35,.3-.76,.14-1.15,.17-.34,.03-.68-.03-1.02,.05-.22,.05-.46,.14-.43,.42,.03,.25,.26,.27,.47,.29,.58,.04,1.16-.04,1.73,.11,.98,.25,1.89,.66,2.75,1.16,.44,.25,.84,.29,1.3,.08,2.23-1,4.46-.95,6.66,.08,.59,.27,1.11,.27,1.62-.12,1.03-.79,2.2-1.2,3.47-1.39,.1-.01,.2-.03,.29-.06,.21-.06,.39-.16,.37-.4-.02-.25-.24-.3-.44-.31-.67-.02-1.3,.21-1.93,.39-.24,.06-.48,.26-.73,.02-.16-.47-.33-.95-.49-1.42,3.19,0,6.36,.21,9.51,.7,1.67,.26,3.37,.3,5,.74,.4,.11,.81,.23,1.18,.42,.67,.35,.7,1.11,.07,1.54-.78,.54-1.7,.65-2.6,.8-.53,.09-1.06,.15-1.6,.13-.22,0-.46,.05-.58,.26-.44,.78-1.22,1.06-2,1.28-1.82,.51-3.69,.79-5.59,.85-.14,0-.28-.01-.39,.11-.5,.14-1.02,.03-1.52,.07-.21,.02-.43-.06-.64,.06,0,0,0,0,0,0-.4,0-.8,0-1.19,0-.88,0-1.76,0-2.64,0-1.76,0-3.52,0-5.28,0-.56,0-1.12,0-1.68,0-.52,0-1.04,0-1.56,0-2.93-.28-5.87-.4-8.75-1.08-.87-.2-1.73-.45-2.55-.84-.51-.25-.98-.55-1.24-1.08-.12-.24-.34-.28-.54-.33-.31-.08-.61-.17-.91-.3-.49-.21-.74-.59-.78-1.11-.04-.52,.34-.78,.71-1.02,.69-.43,1.46-.65,2.26-.72,1.76-.15,3.53-.22,5.3-.38,1.95-.18,3.91-.06,5.86-.11Z" opacity=".3"/><path d="M31.42,7.55c-.23,1.13-.62,2.19-1.3,3.13-.43,.61-.95,1.13-1.5,1.63-.11,.1-.25,.25-.42,.14-.16-.1-.14-.28-.1-.44,.17-.82,.4-1.62,.67-2.2-.16,.36-.48,.87-.74,1.4-.08,.17-.17,.45-.38,.39-.26-.06-.19-.36-.21-.57-.06-.66,.07-1.32,.15-1.97,.29-2.52,1.14-4.82,2.91-6.7,.23-.24,.37-.78,.91-.48,.35,1.51,.22,3.03,.12,4.56-.03,.37-.23,.72-.11,1.1Z" fill="#feda3b"/><path d="M31.25,1.8c-2.8,2.63-3.65,6-3.61,9.72,.48-.77,.85-1.61,1.44-2.32-.31,1.06-.73,2.08-.9,3.31,.71-.67,1.32-1.24,1.94-1.82-.35,.95-1.09,1.63-1.69,2.4-.59,.34-1.2,.66-1.77,1.03-.32,.2-.39,0-.5-.2-.05-.75-.24-1.48-.25-2.24-.02-3.07,1.09-5.75,2.85-8.19,.64-.89,1.29-1.78,2.32-2.27,.23,.15,.4,.31,.18,.6Z" fill="#feb447"/><path d="M33.83,10.56c-1,.43-2,.87-3,1.3,.47-.96,.85-1.98,1.43-2.87,1.39-2.15,3.35-3.38,5.99-3.36,.14,0,.28-.01,.39,.1-.07,.31-.21,.59-.32,.88-.88,.46-1.78,.89-2.67,1.33-.7,.35-1.33,.81-1.87,1.38-.12,.12-.3,.22-.26,.47,.56-.12,1.02-.46,1.55-.62,.16-.05,.36-.2,.47,.01,.1,.19-.1,.32-.24,.43-.46,.34-.96,.64-1.46,.93Z" fill="#feb447"/><path d="M24.83,12.57c-.8-.58-1.61-1.17-2.41-1.75-.7-1-1.36-2.01-1.49-3.26-.1-.93-.16-1.86,.17-2.76,.38,.17,.78,.32,.97,.74,.2,1.91,.57,3.01,1.47,4.34-.07-.36-.17-.69-.19-1.02,0-.17-.1-.39,.12-.47,.23-.08,.29,.15,.37,.3,.25,.47,.43,.98,.68,1.45,.12-.58,.18-1.17,.39-1.72,.05-.04,.1-.06,.16-.04-.14,1.39-.31,2.78-.23,4.19Z" fill="#feb447"/><path d="M21.96,5.5c-.23-.31-.72-.3-.86-.7,.23-.76,.29-.82,.96-.46,1.46,.77,2.58,1.84,2.91,3.55,.04,.12,.06,.23-.07,.32-.18,.06-.32-.03-.42-.16-.66-.86-1.52-1.52-2.32-2.24-.09-.08-.15-.18-.21-.29Z" fill="#fefefd"/><path d="M38.19,6.6c.12-.3,.06-.69,.44-.86,.6,.26,.74,.59,.54,1.29-.3,1.04-1.05,1.7-1.93,2.25-.15,.09-.34,.13-.43,.3-.23,.08-.46,.15-.69,.23-.05-.1-.01-.2,.05-.28,.76-.92,1.41-1.91,2.02-2.94Z" fill="#fefefd"/><path d="M31.25,1.8c-.06-.2-.12-.4-.18-.6,.43-.29,.61,0,.72,.34,.28,.86,.39,1.73,.31,2.64-.1,1.16-.37,2.27-.69,3.37-.29,0-.18-.16-.15-.31,.24-1.81,.27-3.63-.01-5.44Z" fill="#fefdfc"/><path d="M24.83,8.16c.12-.06,.12-.18,.15-.28,.15,.15,.09,.33,.09,.51,0,0-.05,0-.05,0h-.05c-.11-.04-.18-.1-.13-.23Z" fill="#fef0d8"/><path d="M46.79,41.14c-1.58-.7-3.15-.92-4.71,.07-.49,.31-.74,.78-.91,1.29-.12,.35-.29,.49-.65,.45-1.05-.11-1.79,.38-2.33,1.24-.12,.19-.18,.34-.43,.12-1.17-1.03-2.55-1.12-3.91-.59-.7,.27-1.11,.06-1.59-.29,.03-.32,.31-.26,.5-.31,2.65-.76,4.99-2.04,6.86-4.09,2.25-2.46,3.31-5.34,2.67-8.65-.55-2.87-2.34-4.9-4.88-6.26-1.79-.96-3.72-1.37-5.76-1.42-2.25-.05-4.39,.3-6.41,1.25-3.58,1.68-6.3,4.22-7.21,8.21-.84,3.66,.36,6.69,3.28,9.04,1.1,.89,2.37,1.47,3.72,1.88,.23,.07,.48,.09,.64,.3,.04,.06,.03,.12,0,.17-.71-.16-1.42-.18-2.13-.02-.25,.06-.46,.03-.65-.17-1.61-1.68-3.61-1.95-5.77-1.56-.24,.04-.4,.04-.59-.13-1.78-1.6-3.05-3.51-3.61-5.86-.42-1.79-.2-3.55,.26-5.3,.38-1.45,1.11-2.74,1.86-4.02,1.28-2.15,2.78-4.13,4.59-5.85,1.92-1.83,4.07-3.38,6.3-4.8,.22-.14,.46-.23,.69-.34,.99-.62,2.12-.93,3.2-1.33,2.15-.79,4.32-1.56,6.5-2.26,1-.32,1.18-.25,1.59,.73,.9,2.16,2.15,4.09,3.82,5.74,.71,.81,1.27,1.74,1.92,2.6,1.56,2.07,3.01,4.21,4.14,6.57,1.01,2.12,1.33,4.32,1.11,6.63-.06,.65-.07,1.31-.15,1.97-.21,1.72-.92,3.25-1.72,4.75-.06,.11-.16,.18-.24,.26Z" fill="#41c638"/><path d="M25.67,43.43c-1.71-.47-3.32-1.15-4.69-2.29-1.75-1.45-2.9-3.27-3.23-5.55-.5-3.4,.69-6.21,2.98-8.65,2.31-2.46,5.17-3.9,8.46-4.3,4.05-.5,7.86,.22,10.89,3.25,2.76,2.76,3.26,6.89,1.65,10.24-1.9,3.95-5.17,6.15-9.32,7.2-.05,.01-.1,.06-.15,.1-1.44-.62-2.84-.47-4.2,.25-.85,.35-1.62,.03-2.4-.25Z" fill="#72e21e"/><path d="M26.63,76.3c.24,1.12,1.39,1.32,2.06,2.02,.1,.1,.35,.21,.54,0,.19-.2,.2-.43,.11-.67-.17-.46-.58-.7-.96-.95-.8-.52-1.1-1.38-1-2.19,.29-2.27,.56-4.54,.54-6.82-.05-4.68-.75-9.27-2.55-13.62-.4-.97-.6-1.69,.31-2.4,.2-.15,.32-.39,.5-.62,.36,.66,.2,1.38,.31,2.04,.46,2.95,1.57,5.58,3.69,7.73,.73,.74,1.63,1.27,2.58,1.69,.33,.72-.03,1.31-.38,1.88-.27,.43-.62,.82-.98,1.19-.53,.52-.91,1.14-1.16,1.84-.04,.25-.09,.51-.12,.76-.09,.78,.14,1.47,.69,2.02,.28,.28,.27,.5,.03,.76-.2,.21-.31,.46-.4,.72-.09,.25,0,.44,.17,.58,.19,.15,.43,.14,.61-.02,.49-.45,.87-.98,1.08-1.62,.12-.36-.11-.59-.38-.79,.09-.14,.21-.25,.33-.37,.62-.62,1.22-1.26,1.96-1.75,.12-.08,.22-.18,.35-.23,.12-.06,.27-.14,.38,0,.08,.11,.01,.23-.05,.33-.19,.3-.43,.58-.63,.88-.16,.25-.32,.5-.45,.84,.49,.01,.81-.22,1.07-.55,.4-.5,.81-.99,1.21-1.48,.89-1.09,2.04-1.77,3.37-2.15,.17-.05,.35-.11,.5,.05-1.06,1.03-1.67,2.36-2.42,3.61-.81,1.36-1.99,1.99-3.59,1.79-1.15-.14-2.04,.61-2.13,1.79-.02,.3,.1,.55,.45,.61,.32,.52,.18,1.12,.25,1.68,.37,2.91,1.2,5.67,2.47,8.31,.18,.37,.41,.73,.44,1.16-.4,.51-.64,.59-1.23,.36-.9-.35-1.81-.61-2.77-.73-1.3-.16-2.57-.05-3.77,.44-.74,.3-1.37,.33-2.02-.14-.21-.15-.46-.23-.7-.35-.18-.09-.38-.16-.36-.42,.6-1.24,1.12-2.51,1.47-3.85,.04-.15,.09-.31,.15-.45,.08-.18,.15-.42,.37-.43,.18,0,.28,.2,.39,.35,.06,.08,.09,.18,.15,.26,.17,.23,.4,.35,.68,.22,.28-.13,.33-.39,.27-.66-.27-1.2-1.51-1.6-2.46-.84-1.67,1.33-3.5,1.38-5.4,.55-1.02-.45-1.92-1.12-2.94-1.6-1.16-.55-2.37-.9-3.67-1.18,.61-.48,1.1-1.02,1.75-1.38,.79-.34,1.58-.13,2.35,.05,.82,.19,1.59,.52,2.33,.93,1.23,.69,2.52,1.22,3.93,1.38,.2,.02,.39,.08,.57,.16-1.34-.74-2.73-1.34-4.22-1.71-.16-.04-.39-.09-.36-.31,.02-.15,.21-.17,.35-.18,2.15-.08,4.23,.16,6.14,1.24,.09,.05,.14,.14,.19,.22Z" fill="#41c638"/><path d="M6.48,52.79c-.94-.34-1.77-.9-2.59-1.46-.11-.07-.26-.17-.23-.32,.03-.19,.22-.13,.34-.16,3.29-.88,6.03-2.7,8.53-4.97,1.38-1.25,2.83-2.45,4.74-2.88,1.29-.29,2.52-.17,3.72,.37,.45,.2,.82,.49,1.09,.9-.18,1.28-.92,2.27-1.74,3.21-.94,1.08-2.11,1.88-3.4,2.75,2.19-.35,4.01-1.15,5.54-2.57,.2-.19,.38-.41,.61-.57,.25-.18,.43-.13,.58,.14,.34,.58,.3,1.17-.15,1.72-.61,.73-1.36,1.3-2.15,1.8-2.3,1.46-4.81,2.27-7.54,2.46-1.28,.09-2.55,.12-3.83,.08-1.19-.04-2.39-.11-3.53-.5Z" fill="#72e21e"/><path d="M27.58,49.31c.02-.46,.11-.91,.25-1.34,.22-.67,.32-1.36,.09-2.04-.12-.35-.02-.6,.22-.8,1.17-.98,3.02-1.29,4.25-.14,.15,.22,.27,.45,.24,.72-.24,2.02,.08,3.99,.57,5.94,.03,.23,.17,.43,.15,.68,.04-.24-.09-.42-.12-.62-.05-.19-.05-.39-.05-.58,0-.79,0-1.58,0-2.38,.05-.95,.16-1.9,.29-2.84,.05-.36,.19-.69,.49-.93,1.86-.93,3.74,.09,4.19,2.24,.22,1.05,.1,2.04-.25,3.03-.66,1.23-1.51,2.35-2.13,3.6-.65,1.31-1.28,2.62-1.44,4.1-.08,.76-.71,1.03-1.43,.61-.99-.57-1.85-1.33-2.58-2.21-1.44-1.75-2.27-3.79-2.74-5.99-.07-.35-.13-.71-.01-1.06Z" fill="#72e21e"/><path d="M6.48,52.79c2.06,.27,4.12,.45,6.19,.36,3.37-.15,6.54-.93,9.28-3,.57-.43,1.16-.85,1.57-1.46,.32-.46,.31-1.1-.02-1.51-.23-.27-.34,.03-.45,.14-.92,1-2.04,1.74-3.27,2.27-.99,.43-2.04,.72-3.13,.81-.02-.05-.04-.1-.06-.15,.53-.36,1.05-.72,1.58-1.08,1.8-1.25,3.15-2.85,3.91-4.92,.53,.52,1.09,.66,1.84,.43,.68-.21,1.42-.15,2.05,.32,.84,.62,1.13,1.49,.82,2.54-.42,1.4-1.23,2.59-2.16,3.68-1.56,1.82-3.5,3.07-5.89,3.51-1.66,.31-3.33,.38-5.04,.23-1.97-.17-3.83-.64-5.65-1.37-.55-.22-1.1-.47-1.58-.82Z" fill="#41c638"/><path d="M54.95,53.65c-.92,.85-2.07,1.25-3.25,1.54-3.49,.84-6.59-.06-9.38-2.22-1.17-.91-2.09-2.01-2.76-3.32-.15-.29-.24-.58-.22-.91,.06-.97-.12-1.89-.48-2.8-.26-.64,.64-1.73,1.44-1.77,.4-.02,.8,0,1.2,0,.03,.06,.02,.1-.04,.14,.13,.02,.22-.06,.32-.11,.15-.09,.31-.17,.49-.11,.22,.1,.3,.32,.39,.51,.9,1.85,2.41,3.09,4.12,4.13,.28,.17,.8,.29,.67,.64-.14,.39-.59,.09-.91,.05-1.58-.23-3.07-.69-4.26-1.88,.59,2.13,2.26,3.19,3.94,4.2,1.57,.94,3.27,1.58,5.1,1.8,1.01,.12,2.03,.07,3.05,.04,.19,0,.4-.11,.56,.08Z" fill="#41c638"/><path d="M54.95,53.65c-3.89,.57-7.32-.57-10.43-2.84-1.39-1.02-1.79-1.62-2.46-3.59,1.49,1.48,3.37,1.94,5.36,2.19-.04-.24-.22-.29-.38-.37-2.02-1.11-3.71-2.54-4.67-4.69-.03-.07-.09-.13-.14-.19,.48-.91,1.93-1.44,3.07-1.14,.78,.2,1.41,.6,1.88,1.29,.69,1.03,1.29,2.12,1.94,3.17,.76,1.24,1.69,2.31,2.84,3.21,.42,.33,.8,.72,1.19,1.09,.64,.46,1.27,.93,1.92,1.39,.39,.27,.19,.39-.11,.5Z" fill="#72e21e"/><path d="M27.58,49.31c.44,3.05,1.53,5.79,3.83,7.95,.48,.45,1,.85,1.56,1.19,.7,.42,1.16,.14,1.23-.68,.12-1.31,.66-2.49,1.25-3.64,.66-1.27,1.36-2.52,2.24-3.66,.06-.08,.14-.14,.21-.21-.06,.64-.33,1.23-.55,1.82-.82,2.26-1.44,4.55-1.36,6.98,.02,.51,.02,1.05,.16,1.54,.22,.77,.07,.89-.8,1.07-1.44,.29-2.65-.25-3.76-1.1-1.59-1.21-2.56-2.86-3.27-4.69-.53-1.36-.81-2.77-.86-4.24-.01-.47-.13-.94-.11-1.42,.01-.32,.04-.63,.23-.91Z" fill="#41c638"/><path d="M46.79,41.14c.35-.95,.88-1.81,1.23-2.76,.76-2.1,.83-4.28,.76-6.47-.1-2.99-1.57-5.47-3.12-7.87-1.24-1.92-2.66-3.72-4-5.58-1.62-2.13-2.86-4.44-3.36-7.1-.06-.3-.2-.61,0-.92,1.11-.27,1.13-.27,1.35,.83,.66,3.2,2.33,5.89,4.19,8.49,1.36,1.89,2.82,3.71,3.96,5.76,1.37,2.48,2.17,5.12,2.12,7.97-.05,2.73-.81,5.28-2.05,7.7-.14,.27-.28,.42-.59,.18-.14-.11-.32-.16-.48-.23Z" fill="#fefefe"/><path d="M59.49,46.42c-1.28,1.31-2.86,1.94-4.65,2.18-.7,.1-1.38-.06-2.07-.01-.44,.03-.75-.15-.99-.54-.73-1.17-1.31-2.42-1.93-3.65-.28-.55-.52-1.12-.96-1.58-.35-.37-.49-.74-.09-1.16,.11-.11,.17-.26,.26-.39,.23-.21,.49-.12,.74-.06,.91,.24,1.68,.74,2.37,1.36,.63,.56,1.29,1.07,2.08,1.39,.17,.07,.33,.15,.36,.36-.12,.25-.36,.24-.57,.21-.51-.06-1.03-.12-1.51-.3,1.18,1.19,2.53,2.04,4.26,2.23,.68,.08,1.35,.01,2.02-.09,.23-.04,.47-.14,.68,.05Z" fill="#41c638"/><path d="M14.63,41.39c.21,.11,.36,.28,.49,.48-1.38,.51-2.71,1.14-4.14,1.51-.88,.23-1.76,.49-2.58,.49,.09-.04,.3-.02,.49,0,1.31,.13,2.62,.24,3.91-.14,.1-.03,.2,0,.28,.07-.8,.69-1.58,1.39-2.39,2.06-.31,.25-.74,.08-1.11,.15-2.58,.48-5,.21-7.05-1.62,.1-.12,.24-.14,.38-.14,1.96-.03,3.62-.89,5.19-1.93,.89-.59,1.8-1.07,2.85-1.31,1.29-.29,2.48,0,3.68,.39Z" fill="#41c638"/><path d="M26.63,76.3c-2.07-1.09-4.28-1.43-6.6-1.26,1.69,.45,3.31,1.07,4.81,2.01-.3,.07-.9,.04-1.41-.08-1.31-.29-2.53-.81-3.71-1.47-1.35-.75-2.82-1.09-4.37-1,1.73-1.34,3.66-2.15,5.87-1.9,2.18,.24,4.1,1.01,5.22,3.08,.1,.19,.22,.39,.19,.62Z" fill="#72e21e"/><path d="M24.59,83.51c.6,.46,1.34,.67,1.98,1.05,.18,.11,.39-.05,.56-.13,2.32-1.01,4.64-.89,6.93,.06,.55,.23,.94,.2,1.35-.17,.04-.09,.1-.16,.22-.11,.32-.2,.65-.4,.97-.6,.69-.1,1.31-.45,2-.52,.24-.02,.47-.06,.71-.07,.34-.02,.61,.1,.63,.47,.03,.37-.22,.54-.54,.6-.37,.07-.75,.11-1.12,.18-1.02,.2-1.9,.68-2.73,1.28-.53,.38-1.01,.38-1.61,.1-2.16-1.01-4.36-1.13-6.56-.12-.55,.26-1.01,.22-1.56-.1-1.33-.77-2.73-1.41-4.34-1.21-.36,.04-.68-.07-.7-.46-.02-.41,.29-.6,.67-.61,.72-.02,1.44-.02,2.16-.02,.32,.13,.65,.25,.97,.38Z" fill="#047425"/><path d="M39.95,65.4c-1.52,.29-2.79,.99-3.76,2.21-.41,.51-.83,1.01-1.24,1.52-.35,.43-.79,.64-1.39,.55,.3-.8,.82-1.44,1.29-2.13-1.03,.47-1.75,1.32-2.57,2.04-.52-.64-.32-1.34-.11-2,.16-.49,.51-.89,.93-1.21,.89-.68,1.85-1.23,2.88-1.65,.16-.08,.34-.07,.49-.17,1.47-.35,2.93-.36,4.47,.15-.38,.26-.68,.48-.98,.69Z" fill="#72e21e"/><path d="M14.63,41.39c-.62,.12-1.17-.18-1.76-.27-1.41-.22-2.69,.1-3.88,.82-1.12,.68-2.21,1.42-3.44,1.91-.98,.39-1.97,.6-3.03,.53-.5-.35-.84-.84-1.12-1.38-.17-.32-.07-.47,.29-.39,2.44,.55,4.59-.12,6.56-1.57,1.1-.81,2.26-1.47,3.65-1.66,.82-.11,1.33,.07,1.8,.75,.29,.43,.61,.83,.91,1.25Z" fill="#72e21e"/><path d="M38.28,10.45c.35,2.85,1.66,5.29,3.18,7.65,.07,.12,.13,.24,.19,.37-1.08-1.03-2-2.2-2.74-3.5-.5-.87-.95-1.75-1.28-2.69-.16-.45-.51-.48-.88-.35-1.94,.66-3.88,1.32-5.81,2-1.44,.51-2.88,1.04-4.32,1.56,.67-.67,1.55-1.02,2.36-1.47,2.83-1.56,5.79-2.8,8.95-3.52,.11-.03,.23-.03,.35-.05Z" fill="#72e21e"/><path d="M53.15,51.76c-1.6-1.11-3.07-2.35-4.07-4.06-.67-1.14-1.33-2.28-2.08-3.36-.97-1.42-2.71-1.67-4.09-.68-.23,.16-.45,.32-.68,.49-.16,.05-.32,.1-.47,.15-.12,.03-.15-.01-.11-.12,.33-.15,.46-.43,.46-.77,.01-.59,.34-.94,.85-1.18,1.65-.78,3.76-.22,4.93,1.3,.63,.83,1.1,1.75,1.56,2.68,.96,1.95,2.07,3.81,3.62,5.36,.05,.05,.06,.14,.09,.21Z" fill="#fefefe"/><path d="M49.44,40.42c.36-.91,.58-1.01,1.54-.77,1.34,.34,2.29,1.23,3.15,2.24,.98,1.16,1.99,2.28,3.28,3.11,.27,.09,.47,.3,.71,.43,.12,.07,.23,.19,.19,.34-.04,.17-.21,.19-.34,.16-1.23-.24-2.49-.43-3.28-1.59-.8-.67-1.38-1.53-2.08-2.28-.75-.8-1.65-1.3-2.73-1.47-.16-.02-.32-.02-.43-.17Z" fill="#fefefe"/><path d="M54.68,44.27c.95,1.02,2.2,1.34,3.56,1.55-.2-.4-.64-.49-.84-.82,.84,.24,1.64,.67,2.61,.58-.02,.42-.36,.58-.52,.84-1.51,.34-3.01,.37-4.46-.23-1.1-.46-2.02-1.16-2.83-2.12,.84,.03,1.57,.51,2.37,.21,.04-.05,.07-.05,.11,0Z" fill="#71e21e"/><path d="M23.88,15.85c-1.14,.83-2.31,1.62-3.42,2.53,.75-1.83,1.19-3.71,1.15-5.68,.39-.14,.53,.18,.7,.41,.65,.84,1.18,1.75,1.57,2.74Z" fill="#41c638"/><path d="M38.19,6.6c-.3,1.13-1.1,1.95-1.77,2.85-.09,.13-.2,.25-.3,.37-.76,.25-1.53,.5-2.29,.75,.45-.55,1.16-.79,1.61-1.39-.55,.25-1.1,.51-1.66,.73-.15,.06-.37,.28-.52,.03-.12-.2,.07-.37,.21-.51,.69-.74,1.48-1.32,2.4-1.74,.78-.35,1.5-.82,2.33-1.08Z" fill="#feda3b"/><path d="M35.62,84.21c-.07,.04-.15,.08-.22,.11-1.13-2.1-2.02-4.28-2.53-6.62-.32-1.49-.65-2.98-.61-4.52,.25-.05,.44-.08,.48,.29,.39,3.59,1.4,7.02,2.78,10.34,.05,.13,.13,.25,.09,.4Z" fill="#fdfefd"/><path d="M13.08,43.79c-1.79,.62-3.67,.33-5.06,.05,.85-.17,1.57-.31,2.29-.47,1.17-.26,2.28-.67,3.38-1.15,.46-.2,.93-.34,1.43-.36,.13,.11,.27,.23,.47,.4-.95,.4-1.68,1.05-2.51,1.53Z" fill="#71e21e"/><path d="M23.88,15.85c-.27-.04-.3-.28-.38-.48-.35-.88-.92-1.62-1.46-2.38-.1-.14-.24-.27-.43-.29-.02-.29,0-.59-.15-.94,.88,.26,1.5,.73,2.13,1.21,.6,.46,1.14,.98,1.61,1.58,.18,.23,.22,.33-.06,.49-.43,.25-.83,.54-1.25,.81Z" fill="#71e21e"/><path d="M33.12,51.83c-.61-1.96-.9-3.96-.66-6.02,.03-.27-.04-.54-.06-.82,.52,.4,1.04,.2,1.57,0-.54,1.18-.44,2.47-.61,3.72-.09,.84-.09,1.68,0,2.52,0,.2,0,.4,0,.6,.02,.05,.03,.11-.03,.13-.11,.03-.16-.05-.21-.13Z" fill="#41c638"/><path d="M54.68,44.27h-.05s-.05,0-.05,0c-1.17-.41-2.06-1.24-3.01-1.99-.72-.57-1.52-1.02-2.49-1.01,.05-.32,.24-.57,.37-.85,1.29,.04,2.36,.54,3.21,1.5,.69,.78,1.35,1.57,2.03,2.36Z" fill="#72e21f"/><path d="M36.1,64.77c-1.01,.52-2.02,1.02-2.91,1.73-1.03,.83-1.33,1.87-.91,3.08-.08,.14-.16,.28-.36,.25-.99-1.18-1.01-1.62-.02-2.85,1.02-1.27,2.37-2.02,3.96-2.32,.12-.05,.25-.11,.24,.11Z" fill="#fdfefc"/><path d="M30.23,67.42c0-.8,.52-1.34,1-1.89,.55-.64,1.2-1.21,1.44-2.08,.09-.32,.05-.63,.1-.94,.53,.02,.66,.28,.46,.75,0,.02-.01,.04-.02,.06-.13,.9-.49,1.6-1.32,2.11-.75,.46-1.12,1.31-1.65,1.99Z" fill="#fcfdfb"/><path d="M25.67,43.43c.8,.08,1.58,.31,2.4,.25-.56,.6-1.14,.81-1.81,.12-.14-.14-.39-.17-.59-.26,0-.04,0-.08,0-.12Z" fill="#43c737"/><path d="M36.1,64.77c-.08-.04-.16-.07-.24-.11,.18-.17,.4-.13,.61-.11-.07,.16-.22,.18-.37,.22Z" fill="#dff2d9"/><path d="M41.64,44.04s.08,.08,.11,.12c-.1,.12-.26,.15-.36,.07-.1-.08,.1-.12,.11-.2,.05,0,.09,0,.14,0Z" fill="#92d78a"/><path d="M24.83,8.16c.04,.08,.09,.15,.13,.23-.02,.66-.21,1.29-.4,2-.53-.58-.61-1.35-1.08-2-.05,.68,.22,1.24,.28,2-1.23-1.52-1.78-3.1-1.79-4.89,1.08,.75,1.97,1.7,2.86,2.66Z" fill="#feda3b"/><path d="M38.79,17.76c.56,.39,1.12,.78,1.16,1.55,.05,.73-.35,1.26-1.06,1.42-1.09,.25-2.27-.29-2.77-1.29-.32-.64-.08-1.19,.36-1.68,.13-.06,.23,.02,.33,.08,1,.67,1.14,.66,1.98-.08Z" fill="#72e21e"/><path d="M38.79,17.76c-.34,.75-1.01,.95-1.73,.49-.21-.13-.39-.33-.58-.49-.04-.09-.09-.18-.12-.27-.2-.46-.33-.95,.1-1.32,.43-.37,.94-.28,1.4-.02,.61,.35,.97,.87,.93,1.61Z" fill="#fdfefd"/><path d="M46.95,27.72c.09,.1,.21,.19,.28,.3,.23,.41,.25,.84-.04,1.23-.21,.28-.56,.35-.87,.23-.42-.16-.63-.52-.62-.99,0-.14,0-.28,.01-.42,.02,0,.04-.03,.05-.02,.52,.33,.89,.11,1.19-.34Z" fill="#72e220"/><path d="M46.95,27.72c-.01,.29-.08,.55-.4,.67-.37,.14-.6-.09-.84-.3-.06-.37-.15-.79,.33-.93,.46-.13,.71,.2,.9,.57Z" fill="#f8fcf6"/><path d="M31.25,37.44c-1.69-.08-3.33-.59-4.35-2.31-.69-1.17-.52-2.56,.38-3.47,.66-.66,1.45-.69,2.28-.55,.51,.09,1.01,.25,1.45,.54,.49,.32,.92,.3,1.44,0,1.16-.67,2.41-.55,3.22,.21,.68,.64,.85,1.42,.59,2.29-.53,1.8-2.71,3.27-5.01,3.28Z" fill="#553826"/><path d="M35.39,27.35c.06-.57,.15-1.25,.64-1.78,.68-.75,1.69-.65,2.12,.27,.49,1.05,.48,2.14-.2,3.13-.6,.89-1.64,.84-2.2-.08-.22-.36-.36-.93-.36-1.54Z" fill="#553826"/><path d="M27.72,27.39c-.03,.6-.11,1.15-.45,1.63-.54,.77-1.52,.8-2.07,.04-.72-.99-.75-2.1-.27-3.18,.42-.95,1.46-1.06,2.15-.28,.47,.52,.56,1.18,.63,1.8Z" fill="#553826"/><path d="M22.66,29.73c.61-.04,1.17,.11,1.66,.44,.84,.58,.78,1.62-.14,2.06-.95,.44-1.9,.38-2.81-.14-.44-.25-.75-.61-.71-1.16,.04-.54,.4-.84,.86-1.05,.37-.17,.76-.23,1.15-.16Z" fill="#feacb1"/><path d="M40,32.51c-.31,0-.78-.08-1.2-.34-.73-.44-.81-1.28-.19-1.86,.76-.7,2.45-.82,3.3-.23,.68,.47,.72,1.27,.09,1.82-.43,.38-1.11,.6-2.01,.6Z" fill="#feacb1"/><path d="M33.34,51.23c-.18-.84-.19-1.68,0-2.52,0,.84,0,1.68,0,2.52Z" fill="#47ca36"/><path d="M33.12,51.83c.08,.01,.16,.13,.24,0,.24,.26,0,.61,.19,.88-.31-.23-.33-.57-.42-.88Z" fill="#47ca36"/><path d="M7.44,42.47c.34-.34,.78-.5,1.21-.66-.34,.27-.65,.57-1.09,.66-.04,.04-.08,.05-.12,0Z" fill="#76e32a"/><path d="M7.44,42.47s.08,0,.12,0c-.34,.3-.77,.42-1.16,.62-.02-.05-.05-.09-.07-.14,.37-.16,.74-.33,1.11-.49Z" fill="#76e328"/><path d="M31.35,36.23c-1.18,0-2.25-.26-3.08-1.17-.31-.33-.5-.72-.62-1.14-.25-.87,.61-2.06,1.66-1.68,.49,.18,1,.3,1.43,.6,.74,.52,1.41,.41,2.09-.08,.32-.23,.67-.34,1.06-.36,1.05-.04,1.63,.73,1.18,1.68-.61,1.26-1.73,1.88-3.06,2.15-.21,.04-.44,0-.66,0Z" fill="#e52c20"/></svg>