<?xml version="1.0" encoding="UTF-8"?><svg id="Layer_1" xmlns="http://www.w3.org/2000/svg" viewBox="0 0 56.47 91.2"><path d="M56.47,48.25c-.55,1.23-.56,1.25-1.91,.82-1.27-.4-2.57-.36-3.85-.16-2.28,.35-4.53,.89-6.81,1.2-2.03,.27-4.01,0-5.81-1.09-.08-.05-.17-.08-.27-.12-.5,2.59-2.02,4.4-4.21,5.69-.35,.21-.56,.46-.71,.82-1.01,2.43-1.66,4.96-1.99,7.57-.09,.69-.18,1.38-.29,2.17,1.02-.43,1.94-.82,2.9-1.1,1.86-.54,3.74-.75,5.67-.66,.18,0,.35,.08,.53,.09,.25,.03,.42,.14,.46,.39,.04,.23-.01,.44-.22,.58-1.2,.82-1.67,2.07-2.08,3.38-.18,.58-.4,1.16-.6,1.74-.85,2.47-3.48,3.47-5.61,3.23-.92-.1-.95-.12-.87,.74,.22,2.42,.79,4.77,1.49,7.08,.37,1.23,.7,2.47,1.26,3.63,.35,.42,.55,.9,.57,1.45-.25,.37-.59,.57-1.05,.51-.28-.25-.39-.6-.51-.93-.33-.87-.68-1.74-1.04-2.6-.26-.82-.5-1.65-.71-2.49-.04-.18-.07-.36-.13-.53-.49-1.69-.8-3.42-1.04-5.16-.06-.41-.2-.56-.6-.45-.06,0-.12-.02-.18-.05-.4-.27-.42-.63-.27-1.06,.41-1.14,1.21-1.64,2.37-1.49,.91,.12,1.82,.18,2.72-.12,1.17-.39,2-1.13,2.44-2.29,.24-.62,.44-1.24,.64-1.87,.26-.78,.49-1.56,.98-2.24,.26-.36-.02-.33-.25-.33-.15,0-.31,0-.46,0-.24,0-.48-.02-.72,.06-1.98,.24-3.87,.76-5.55,1.9-.5,.34-.89,.78-1.26,1.26-.58,.76-.76,1.52-.14,2.34,.16,.33,.15,.67-.03,.97-.35,.58-.57,1.23-.8,1.86-.12,.33-.3,.58-.69,.52-.39-.07-.56-.35-.57-.73-.02-.58,.2-1.09,.44-1.6,.14-.3,.22-.59,.05-.91-.47-.91-.28-1.77,.2-2.61,.36-.68,.88-1.24,1.33-1.85,.27-3.17,.75-6.29,1.81-9.3,.08-.23,.36-.66-.29-.48-.55,.15-1.09,.31-1.65,.41-.85,.22-1.71,.11-2.55-.05-.56-.1-.8-.47-.76-1.04,0-.12,.02-.24,.07-.35,.49-1.24,.14-2.4-.36-3.53-.39-.88-.88-1.7-1.25-2.59-.11-.26-.21-.3-.42-.08-.27,.28-.41,.54-.22,.95,.77,1.7,1.25,3.49,1.6,5.32,.1,.51,.25,.96,.7,1.27,.05,.03,.1,.08,.13,.13,.48,.76,1.1,1.39,1.81,1.95,.31,.25,.49,.62,.17,1-.31,.36-.7,.29-1.02,.04-.54-.4-1.18-.69-1.54-1.3-.66-1.43-1.97-1.73-3.33-1.82-1.64-.11-3.09,.5-4.43,1.38-.19,.15-.31,.3,.03,.4,1.18,.33,2.15,1.04,3.13,1.73,1.11,.79,2.26,.93,3.48,.24,.34-.19,.59-.47,.84-.76,.43-.5,.84-.53,1.34-.09,.38,.33,.65,.76,.88,1.2,.24,.46,.14,.93-.18,1.14-.33,.22-.67,.08-1.04-.41-.04-.06-.05-.15-.11-.16,0,2.17,.29,4.32,.08,6.51-.13,1.37-.11,2.75-.28,4.12-.02,.18-.04,.36-.09,.53-.04,.19-.03,.38-.03,.57-.15,1.21-.37,2.41-.53,3.61-.13,1.04-.07,2.07,.85,2.82,.06,.05,.11,.11,.16,.18,.36,.44,.4,.85,.1,1.12-.29,.28-.7,.24-1.11-.15-.54-.51-1.28-.89-1.24-1.8-.15-1.61-1.29-2.36-2.61-2.89-2.79-1.11-5.39-.53-7.85,1.01-.46,.32-.91,.64-1.39,1.05,2.04,.12,3.78,.9,5.45,1.92,1.88,1.14,3.86,1.3,5.89,.35,.62-.29,.98-.24,1.37,.15,.45,.46,.66,1.3,.43,1.77-.22,.47-.71,.54-1.07,.15-.11-.12-.15-.28-.32-.5-.35,.85-.64,1.66-1.02,2.43-.28,.57-.42,1.21-.83,1.72-.51,.11-.88-.18-1.25-.44-.02-.43,.21-.73,.52-.98,.49-.78,.82-1.62,1.13-2.49-.36-.14-.67,.05-1,.06-1.58,.06-3.1-.21-4.44-1.09-1.83-1.2-3.78-1.92-6-1.79-.34,.02-.64-.07-.8-.4-.16-.33,.03-.57,.23-.8,2.21-2.53,4.95-3.94,8.35-3.94,1.74,0,3.15,.54,5.24,1.96,.9-4.78,1.04-9.58,.79-14.47-1.73,.86-3.23,.55-4.68-.46-.99-.69-1.98-1.4-3.22-1.61-.32-.05-.64-.06-.95-.05-.31,0-.55-.07-.69-.36-.14-.28,0-.5,.18-.7,1.44-1.67,3.28-2.6,5.46-2.91,1.05-.15,2.06-.05,3.13,.24-.26-1.44-.63-2.82-1.12-4.18-.15-.43-.24-1.01-.56-1.21-.35-.22-.77,.29-1.17,.48-2.63,1.26-5.29,1.1-8.01,.3-1.94-.57-3.71-1.49-5.54-2.3-2.1-.93-4.31-1.36-6.6-1.36-.34,0-.66-.03-.82-.36-.18-.36,.03-.64,.27-.91,2.41-2.68,5.44-4.28,8.91-5.1,.93-.22,1.89-.24,2.92-.32-1.23-1.77-1.99-3.68-2.49-5.68-.42-1.7-.58-3.44-.89-5.16-.49-2.69-.91-5.4-2.15-7.88-.71-1.41-1.7-2.6-2.87-3.64-.29-.25-.44-.5-.37-.87,.07-.38,.38-.46,.69-.56,.45-.15,.91-.08,1.36-.14,.53-.29,1.1-.12,1.65-.13,.76,.18,1.46,.52,2.17,.83,.71,.31,1.33,.79,1.99,1.28-.17-1.65-.63-3.13-1.6-4.43-.25-.34-.47-.7-.36-1.16,.24-.54,.76-.58,1.24-.7,.44-.05,.88-.03,1.33-.01,.76,.14,1.56,.13,2.27,.49,1.39,.68,2.67,1.51,3.77,2.62,1.06,1.08,1.91,2.3,2.62,3.63,.11,.21,.2,.43,.36,.62,.16,.18,.26,.4,.37,.61,.14,.26,.31,.28,.52,.09,.37-.48,.6-1.03,.89-1.55,1.45-2.58,3.35-4.77,5.72-6.55,.29-.22,.58-.44,.87-.65,.6-.4,1.16-.87,1.85-1.13,.81-.39,1.62-.78,2.5-.98,.66-.15,1,.12,1.1,.8-.4,.93-.83,1.84-1.04,2.84-.05,.25-.11,.5-.14,.76-.33,1.2-.17,2.42-.06,3.63,.09,.97,.21,1.94,.37,3,1.15-1.65,2.39-3.12,3.97-4.28,.34-.25,.69-.48,1.03-.72,.14-.08,.27-.17,.4-.28,.09-.07,.18-.13,.29-.17,.76-.5,1.6-.82,2.42-1.19,1.61-.77,3.3-1.29,5.05-1.61,.51-.09,.91,.01,1.14,.51,.04,.16,.04,.32,0,.47-.75,1.05-1.37,2.16-1.65,3.44-.52,1.6-.34,3.22-.21,4.84,1.3-1.7,2.93-2.99,4.81-3.99,.43-.18,.84-.42,1.27-.61,.34-.1,.65-.3,.99-.41,.54-.1,1.05-.44,1.64-.24,.09,.03,.19,.06,.28,.09,.67,.22,.77,.54,.32,1.08-1.67,2.02-3.12,4.16-4,6.66-.7,2-1.06,4.06-1.28,6.15-.36,3.36-1.12,6.6-3.05,9.51,.9,.12,1.81,.29,2.66,.64,3.19,1.3,5.28,3.59,6.23,6.91,.06,.22-.08,.49,.16,.65v.36Z" fill="#319d29"/><path d="M23.61,91.2c-.52,0-1.04,0-1.56,0-2.92-.28-5.87-.42-8.74-1.08-.89-.21-1.77-.46-2.6-.87-.5-.24-.93-.54-1.18-1.05-.13-.26-.37-.29-.59-.34-.41-.11-.8-.24-1.14-.49-.65-.48-.66-1.27-.02-1.75,.76-.57,1.64-.8,2.56-.89,1.82-.17,3.65-.27,5.47-.39,1.86-.12,3.71-.08,5.56-.07-.1,.35-.32,.63-.51,.93-.35,.28-.77,.13-1.15,.16-.32,.03-.64-.03-.95,.09-.15,.06-.29,.16-.28,.35,.01,.2,.17,.25,.33,.29,.12,.03,.24,.04,.36,.02,1.53-.14,2.85,.5,4.13,1.19,.55,.3,1,.35,1.57,.09,2.13-.94,4.27-.89,6.37,.07,.69,.31,1.27,.35,1.89-.13,.92-.71,1.99-1.09,3.13-1.27,.18-.03,.36-.05,.53-.1,.21-.06,.39-.16,.37-.4-.02-.25-.24-.3-.45-.31-.69-.02-1.33,.22-1.98,.4-.22,.06-.45,.22-.67,0-.16-.48-.33-.95-.49-1.43,3.19,0,6.36,.21,9.51,.7,1.67,.26,3.37,.3,5,.74,.4,.11,.81,.23,1.18,.42,.67,.35,.69,1.11,.07,1.54-.78,.54-1.7,.65-2.6,.8-.53,.09-1.06,.15-1.6,.13-.22,0-.46,.05-.58,.26-.44,.78-1.22,1.06-2,1.28-1.82,.51-3.69,.79-5.59,.85-.14,0-.28-.01-.39,.1-1.16-.04-2.32,.07-3.47,.13-.84,0-1.68,0-2.52,0-1.76,0-3.52,0-5.28,0-.56,0-1.12,0-1.68,0Z" opacity=".3"/><path d="M55.14,16.2c-.58,.06-1.11,.35-1.7,.36-.04-.32,.21-.49,.36-.73,.57-.9,.88-1.84,.29-2.86-.52-.42-1.12-.37-1.71-.28-1.48,.24-2.72,.94-3.85,1.9-.61,.52-1.14,1.1-1.63,1.73-.09,.12-.17,.28-.37,.25,.27-1.26,.75-2.41,1.65-3.36,.2-.23,.45-.39,.7-.56,.17-.09,.34-.17,.49-.29,1.04-.52,1.43-1.49,1.7-2.52,.13-.51-.31-1-.99-1.2-.74-.21-1.43,.03-2.1,.28-1.66,.62-2.99,1.72-4.18,3.01-.6,.64-1,1.45-1.72,1.99-.82,.43-1.7,.76-2.48,1.27-.11-.28,.09-.45,.24-.63,.45-.56,.85-1.16,1.23-1.76,.39-.62,.6-1.29,.7-2.02,.15-1.12-.09-1.55-1.15-1.99-.92-.29-1.75,.06-2.51,.47-1.69,.92-3.03,2.23-3.97,3.93-.14,.25-.21,.58-.57,.62,.12-1.29,.53-2.49,1.2-3.6,.56-.69,1.27-1.22,2.01-1.7,1.54-.75,1.37-2.2,1.34-3.51-.02-1.03-.38-2-1.47-2.47-1.07-.3-1.89,.22-2.69,.8-1.39,1.23-2.23,2.77-2.55,4.58-.05,.28,.04,.55,.09,.83,.11,.62,.06,1.22-.21,1.8-.7,.24-1.21,.78-1.85,1.11-.09-.42,.19-.71,.36-1.03,.37-.72,.48-1.45,.18-2.23-.09-.23-.22-.42-.42-.56-.43-.27-.87-.14-1.3-.02-1.6,.66-2.73,1.86-3.63,3.28-1.44,2.28-2.07,4.83-2.31,7.49-.05,.61-.06,1.24-.27,1.83-.31,.31-.56,.32-.74-.14-.09-.22-.23-.41-.34-.62-.26-.6-.01-1.21-.01-1.82,0-.33,.04-.68,.14-1,.38-1.18,.25-2.35,.02-3.52-.3-1.27-.62-2.54-1.07-3.78-.4-1.1-.88-2.13-1.77-2.93-.5-.45-1.06-.71-1.74-.45-.78,.34-1.25,.97-1.6,1.72-.66,1.39-.79,2.85-.52,4.35,.04,.21,.13,.43-.05,.62-.74-.3-1.54-.32-2.3-.5-.89-.63-1.63-1.45-2.54-2.05-.81-.54-1.67-.92-2.66-.9-.66,0-1.2,.23-1.6,.77-.34,.44-.53,.94-.63,1.48-.15,1.12,.35,2.04,.96,2.91,.41,.58,.89,1.11,1.49,1.52,.17,.11,.4,.22,.35,.5-.6-.01-1.2-.02-1.8-.03-.81-.91-1.58-1.85-2-3.02-.65-1.78-.05-3.84,1.42-4.85,1.07-.73,2.23-.6,3.47-.31-.14-.61-.16-1.22-.14-1.83,.05-1.68,1.23-3.07,2.87-3.21,1.28-.11,2.25,.54,3.03,1.5,.23,.28,.41,.59,.63,.91,.77-.65,1.63-1.08,2.66-.91,1.03,.17,1.71,.89,2.4,1.73,.08-1.01,.3-1.92,.66-2.79,.59-1.45,1.47-2.66,3.04-3.15,1.3-.41,2.35,.04,3.15,1.3,.71,1.11,1.02,2.36,1.23,3.64,.03,.16,.07,.31,.07,.47,0,.44,.2,.53,.6,.42,.42-.12,.84-.01,1.22,.17,.36,.18,.45,.07,.56-.27,.62-1.78,1.64-3.27,3.21-4.35,.94-.64,1.97-.98,3.11-.72,1.35,.32,2.28,1.56,2.52,3.09,.17,1.07,.02,2.1-.18,3.17,.56-.08,1.09-.16,1.61-.01,.36,.1,.3-.22,.36-.41,.49-1.62,1.27-3.05,2.67-4.08,.99-.73,2.08-1.07,3.25-.55,1.17,.52,1.61,1.57,1.78,2.78,.08,.56,.08,1.11-.01,1.67-.05,.3-.01,.49,.39,.42,.5-.09,1,0,1.47,.16,1.42,.45,2.06,1.89,1.56,3.51-.05,.15-.1,.3-.17,.48,.52,.1,1.01-.12,1.53-.02,1.87,.38,2.69,1.71,2.09,3.52-.14,.41-.35,.8-.53,1.19Z" fill="#fe9700"/><path d="M45.06,24.59c-.06,.23-.12,.46-.18,.69-.09,.35-.03,.66,.36,.76,.37,.09,.63-.08,.68-.47,.19-1.44,.91-2.63,1.82-3.71,1.37-1.64,3.03-2.93,5.05-3.71,.12,.28-.09,.45-.22,.64-.62,.91-1.28,1.78-1.81,2.75-1.18,2.15-1.77,4.47-2.04,6.9-.13,1.2-.09,2.39-.1,3.59,.05,.89-.07,1.78-.05,2.67-.52,1.31-.87,2.7-1.74,3.85-.48,.63-.94,1.22-1.83,1.47-1.29,.36-2.4,1.15-3.21,2.27-.14,.19-.27,.32-.52,.32-1.92,.02-3.23,.96-4.04,2.65-.03,.05-.07,.1-.1,.15-1.54-1.74-3.89-1.69-5.55-.73-.5,.29-.74-.19-1.11-.28,0-.3,.28-.31,.46-.38,1.64-.64,3.12-1.55,4.4-2.75,1.76-1.65,3.03-3.6,3.4-6.05,.03-.22,.07-.44,.25-.59,.2-.12,.43-.09,.64-.13,.24-.04,.47-.09,.69-.18,.7-.29,1.09-.79,.99-1.26-.1-.5-.79-.98-1.43-1-.37-.01-.76,.11-1.12-.07-.43-.73-.61-1.58-1.1-2.3-.3-.44-.68-.82-.92-1.31-.03-.12,0-.24,0-.35,.02-.5-.17-.69-.67-.65-.18,.02-.35,.1-.53,.02-1.57-1.18-3.36-1.87-5.29-2.08-4.08-.44-7.8,.51-11.03,3.14-1.59,1.3-2.86,2.85-3.55,4.8-.91,2.6-.8,5.13,.75,7.51,.13,.19,.32,.37,.24,.65-.82-.3-1.62-.64-2.5-.75-.22-.02-.37-.18-.52-.37-1.67-2.08-2.5-4.51-2.96-7.08-.45-2.52-.79-5.05-1.33-7.55-.64-2.94-1.84-5.58-3.96-7.76,.37-.2,.66,.07,.94,.19,2.06,.94,3.97,2.11,5.56,3.75,.18,.23,.08,.5,.1,.75,.03,.38,.03,.81,.57,.81,.51,0,.63-.46,.61-.81-.15-2.29-.33-4.57-1.01-6.78-.2-.67-.51-1.29-.88-1.88,.18-.14,.35-.03,.5,.05,3.35,1.63,6.21,3.83,8.26,6.98,.18,.28,.32,.59,.46,.9,.31,.62,.32,1.3,.49,1.96,.08,.31,.18,.66,.58,.65,.38,0,.51-.33,.59-.66,.65-2.95,2.17-5.44,4.06-7.73,1.58-1.91,3.47-3.43,5.69-4.54,.15,.18,.11,.38,.04,.57-.83,2.13-.65,4.31-.33,6.5,.25,1.7,.41,3.41,.64,5.11,.04,.31-.05,.59-.05,.89,0,.11,.07,.18,.16,.23,.46,.45,.84,.35,1.06-.32,.26-.78,.56-1.53,.96-2.24,1.61-2.9,3.87-5.13,6.8-6.68,1.3-.69,2.61-1.36,4.08-1.64,.11,.28-.07,.5-.18,.73-.62,1.39-1.15,2.8-1.03,4.38,.05,.6,.13,1.19,.27,1.77,.3,1.24,.67,2.46,.75,3.74Z" fill="#41c638"/><path d="M36.79,28.3c.75,.9,1.39,1.87,1.78,2.99,.07,.2,.11,.42,.16,.63-.09,.27-.36,.29-.57,.4-.46,.24-.79,.58-.76,1.12,.03,.56,.43,.82,.93,.97,.22,.07,.48,.08,.64,.3-.23,1.81-.89,3.44-1.98,4.92-1.63,2.22-3.81,3.68-6.34,4.67-.07,.03-.13,.08-.2,.12-1.53-.42-2.98-.28-4.37,.5-.49,.27-.89,.65-1.32,1.01-.94-1.93-3.2-3.01-5.32-2.53-.42,.09-.66,0-.9-.34-.49-.69-1.18-1.17-1.88-1.63-1.39-1.8-1.89-3.85-1.67-6.07,.19-1.92,1-3.59,2.2-5.08,2.18-2.71,5.05-4.37,8.42-4.96,3.34-.59,6.64-.35,9.58,1.68,.17,.11,.34,.22,.43,.4,.04,.28-.2,.36-.35,.51-.48,.48-1.01,.91-1.39,1.47-.5,.74-.3,1.26,.59,1.4,.71,.12,1.42,.21,2.12,.32,.36,.06,.72-.01,.79-.43,.07-.41-.25-.54-.58-.62-.37-.09-.74-.14-1.11-.23-.43-.1-.51-.31-.2-.62,.37-.37,.75-.78,1.31-.87Z" fill="#72e21e"/><path d="M37.51,64.45c.21,0,.43-.06,.71,.08-1.16,1.49-1.32,3.39-2.13,5.02-.59,1.2-1.65,1.85-2.95,2.09-.83,.15-1.65,.07-2.47-.1-.95-.19-1.33,.53-1.78,1.12-.31,.41-.38,.83,0,1.24,.28,.42,.2,.93,.25,1.39,.33,2.64,1.06,5.14,2.52,7.39,.58,1.12,.93,2.34,1.44,3.49-.28,.63-.78,.86-1.44,.59-.89-.35-1.8-.6-2.76-.73-1.34-.17-2.63-.05-3.86,.46-.67,.28-1.25,.31-1.84-.13-.36-.27-.9-.23-1.13-.7,.59-1.41,1.17-2.83,1.76-4.24,.04-.11,.09-.25,.23-.23,.14,.03,.15,.17,.16,.29,.02,.39,.21,.7,.6,.66,.45-.05,.5-.45,.48-.83-.07-1.18-.83-1.6-1.9-1.12-2.03,.9-4.01,.67-5.86-.47-1.43-.88-2.91-1.54-4.57-1.82-.33-.05-.67-.04-1.11-.06,.53-.57,1.06-.98,1.68-1.29,.84-.33,1.65-.13,2.44,.16,1.16,.43,2.25,1.01,3.39,1.49,.83,.35,1.65,.73,2.59,.56-.41-.31-.88-.54-1.34-.78-.17-.09-.41-.21-.33-.43,.06-.19,.3-.15,.48-.13,1.01,.12,2,.37,2.96,.71,.19,.07,.36,.17,.49,.33,.01,.55,.2,.99,.71,1.29,.25,.15,.43,.41,.65,.61,.24,.22,.51,.23,.75,.02,.25-.21,.19-.46,.05-.7-.05-.09-.1-.18-.18-.24-1.36-1.03-1.21-2.42-.96-3.85,.17-.96,.29-1.92,.43-2.88,.09-.2,.08-.39,0-.59,.07-.41,.18-.81,.22-1.23,.07-.83,.09-1.67,.13-2.5,.04-.79,.1-1.59,.11-2.38,.02-1.71-.06-3.42-.23-5.13,0-.1,0-.2,.01-.33,.34,.1,.36,.43,.53,.63,.19,.23,.39,.5,.74,.31,.33-.17,.35-.51,.23-.79-.25-.57-.58-1.1-1.07-1.49-.34-.26-.66-.23-.93,.13-1.29,1.7-3.15,1.69-4.68,.57-1.03-.76-2.06-1.51-3.37-1.73-.28-.05-.2-.19-.07-.33,.12-.13,.24-.27,.45-.27,.95-.32,1.85-.04,2.74,.26,.92,.31,1.8,.75,2.81,.93-.16-.13-.33-.11-.47-.16-.18-.07-.44-.05-.43-.32,.01-.22,.25-.24,.42-.27,.95-.13,1.9-.26,2.84,.04,.37,.63,1.07,.88,1.59,1.33,.21,.18,.53,.23,.76-.03,.26-.29,.15-.58-.1-.78-.73-.57-1.29-1.29-1.91-1.97-.51-.57-.79-1.13-.92-1.84-.34-1.8-.83-3.56-1.64-5.22-.2-.41,.08-.53,.27-.74,.53-.56,.53-.56,.84,.15,.49,1.11,1.15,2.14,1.54,3.3,.31,.92,.36,1.81,.04,2.73-.29,.84-.02,1.17,.85,1.28,.73,.09,1.46,.19,2.19,0,.19,.24,.1,.5,.06,.75-.51,2.69-.87,5.4-1.06,8.13-.06,.83-.07,1.67,.03,2.51-.5,.88-.72,1.77-.14,2.7,.17,.27,.07,.48-.05,.72-.27,.53-.51,1.07-.52,1.69,0,.34,.13,.54,.44,.62,.33,.08,.5-.17,.56-.41,.18-.72,.45-1.39,.84-2.02,.17-.27,.06-.54-.02-.81,.03-.13,.09-.25,.2-.34,1.06-.85,2.19-1.6,3.41-2.21,.18-.09,.39-.25,.54-.05,.16,.22-.09,.35-.23,.47-.68,.6-1.34,1.22-1.96,2.07,1.28-.51,2.15-1.33,2.95-2.25,.93-1.07,1.88-2.11,2.9-3.09,.13-.13,.29-.21,.44-.3Z" fill="#41c638"/><path d="M20.02,44.42c.88-.08,1.69,.22,2.5,.48,.21,.28,.02,.5-.12,.71-1.02,1.55-2.48,2.32-4.31,2.45-1.51,.1-2.93-.32-4.32-.83-1.56-.57-3.09-1.22-4.7-1.61-1.97-.48-3.92-.5-5.83,.27-.24,.1-.5,.11-.74,.2h-.64c.93-1,1.94-1.68,2.97-2.29,2.62-1.55,5.44-2.38,8.5-2.13,1.52,.13,2.98,.52,4.08,1.74,.3,.34,.48,.73,.68,1.12-.14,.25-.41,.31-.65,.39-1.15,.38-2.33,.67-3.55,.69-.09,0-.19,0-.29,0,.13,.01,.26,0,.39,0,.96,.06,1.91,.14,2.87,.03,1.16-.13,2.17-.63,3.15-1.22Z" fill="#72e21e"/><path d="M2.49,46.09c.99-.61,2.09-.87,3.23-.95,2.52-.19,4.82,.69,7.12,1.57,1.72,.65,3.43,1.32,5.32,1.18,1.91-.14,3.36-1.04,4.32-2.69,.05-.08,.03-.19,.04-.29,1.51,.65,1.3,2.21,.37,3.16-1.07,1.1-2.41,1.74-3.89,2.1-1.77,.43-3.49,.13-5.23-.32-1.91-.49-3.64-1.41-5.42-2.2-1.7-.76-3.47-1.29-5.33-1.43-.18-.01-.35-.08-.52-.12Z" fill="#41c638"/><path d="M31.65,45.97c1.05-.81,2.19-1.14,3.47-.6,.83,.59,1.2,2.45,.15,3.61-.78,.86-1.66,1.56-2.75,1.98-.93,.36-1.75,.86-2.41,1.62-.09,.11-.2,.2-.31,.29-.51,.4-.95,.3-1.17-.31-.26-.72-.51-1.43-1.01-2.02-.43-.5-.92-.94-1.33-1.47-.85-1.1-.75-2.19,.3-3.11,1.04-.73,2.16-.91,3.37-.47,.61,.74,.7,1.65,.7,2.54,0,.85-.29,1.69-.63,2.4,.53-.94,1.19-1.89,1.4-3.06,.08-.47-.08-.97,.22-1.4Z" fill="#72e21e"/><path d="M54.56,47.88c-2.45-.57-4.81,.08-7.18,.54-1.68,.33-3.34,.72-5.06,.66-1.08-.04-2.13-.25-3.12-.71-1.33-.62-1.61-1.93-.74-3.17,.47-.67,1.09-1.09,1.83-1.38,.12,.13,.14,.28,.15,.44,.05,.82,.54,1.25,1.28,1.45,.72,.2,1.45,.27,2.19,.13,1.68-.31,3.37-.62,5.1-.53,1.89,.09,3.6,.64,5.1,1.8,.25,.19,.53,.38,.45,.77Z" fill="#41c638"/><path d="M54.56,47.88c-.55-.91-1.48-1.31-2.39-1.71-1.77-.77-3.63-.78-5.51-.6-1.21,.12-2.37,.51-3.59,.52-.45,0-.88-.07-1.3-.17-.89-.23-1.64-.72-1.48-2.1,.11,0,.23,0,.34-.01,.89,0,1.77,.28,2.67,.15,.86-.13,1.72-.22,2.55-.32-.9,.17-1.82,.01-2.74-.14-.24-.04-.53-.05-.57-.4,.11-.15,.23-.31,.34-.46,4.64-1.98,8.75-.55,11.54,3.31,.29,.4,.49,.87,.63,1.35,.06,.19,.12,.38,.19,.56q-.14,.27-.69,.03Z" fill="#72e21e"/><path d="M26.6,45.96c-.6,.76-.99,1.56-.52,2.53,.22,.44,.56,.83,.92,1.16,.84,.78,1.45,1.68,1.75,2.8,.18,.65,.57,.75,1.03,.23,.79-.89,1.73-1.5,2.83-1.93,1-.39,1.84-1.05,2.52-1.87,.83-1,.89-2-.03-3.51,1.33,.42,1.88,2.03,1.63,3.34-.55,2.88-2.46,4.55-5,5.64-1.22,.52-2.48,.99-3.84,.99-.49,0-.73-.11-.59-.69,.4-1.8-.37-3.34-1.17-4.86-.23-.44-.49-.87-.65-1.34-.41-1.22-.11-1.91,1.1-2.48Z" fill="#41c638"/><path d="M39.1,15.51c-.33,.24-.66,.47-.99,.71-.72,.34-1.41,.72-2.09,1.13-.15,.09-.33,.22-.49,.08-.18-.14-.06-.34,.01-.49,.35-.71,.52-1.51,1.01-2.15,.09-.08,.13-.2,.19-.31-.08,.09-.1,.2-.18,.28-.57,.66-1.16,1.31-1.68,2.03-.09,.12-.16,.32-.36,.24-.17-.07-.15-.27-.16-.42-.05-.52,.02-1.04,.15-1.54,.67-2.77,2.29-4.78,4.87-5.99,.43-.2,.91-.45,1.43-.19,.4,.88,.28,1.79,.09,2.68-.27,1.25-.83,2.4-1.46,3.51-.11,.15-.21,.31-.36,.43Z" fill="#feda3b"/><path d="M24.19,78.47c-1.25-.46-2.52-.81-3.87-.88,.65,.45,1.39,.74,2.11,1.38-.7-.03-1.26,.07-1.84-.11-1.28-.4-2.47-1.02-3.68-1.58-1.09-.5-2.19-.84-3.4-.72,1.04-.8,2.24-1.26,3.51-1.5,1.99-.38,3.87-.07,5.59,1.03,.87,.55,1.51,1.29,1.56,2.39Z" fill="#72e21e"/><path d="M4.53,11.67c0-.61,.29-1.12,.63-1.59,.51-.38,1.06-.22,1.61-.12,1.41,.26,2.59,.97,3.64,1.91,.15,.13,.3,.27,.27,.5-.39,.18-.91,.12-1.12,.61-.36,.56-.34,1.12,0,1.69,.06,.1,.11,.21,.15,.33,.04,.11,.09,.25,0,.34-.13,.13-.26,0-.37-.07-.26-.21-.5-.46-.74-.76,.46,.64,.81,1.31,1.18,1.96,.08,.14,.17,.3,.03,.44-.14,.13-.31,.03-.44-.04-1.81-.86-3.43-1.97-4.46-3.75-.26-.44-.5-.9-.38-1.45Z" fill="#feda3b"/><path d="M22.05,85.67c.6,.31,1.25,.51,1.81,.9,.21,.15,.42,.04,.62-.05,2.46-1.07,4.9-.91,7.32,.14,.6,.26,.9-.22,1.28-.5,.34-.13,.68-.24,.96-.5,.69-.11,1.31-.45,2-.52,.24-.02,.47-.06,.71-.07,.34-.02,.61,.1,.63,.47,.03,.37-.22,.54-.55,.6-.37,.07-.75,.11-1.12,.18-1,.19-1.87,.66-2.68,1.25-.54,.39-1.04,.42-1.66,.13-2.16-1.02-4.36-1.13-6.56-.11-.56,.26-1.02,.21-1.56-.11-1.32-.76-2.69-1.39-4.29-1.21-.37,.04-.74-.04-.75-.48,0-.43,.34-.6,.74-.6,.62,0,1.24,0,1.86,0,.4,.16,.8,.32,1.2,.47Z" fill="#047425"/><path d="M40.71,8.9c-1.29,.13-2.33,.76-3.27,1.59-1.58,1.39-2.58,3.12-2.88,5.22-.05,.39,0,.8,0,1.25,.66-.8,1.2-1.67,2.01-2.31,.11-.03,.17,0,.13,.12-.46,.81-.75,1.7-1.19,2.65,.96-.39,1.65-1.12,2.62-1.21-1.6,1.3-2.99,2.79-4.14,4.57-.29-.43-.2-.89-.26-1.29-.18-1.2-.28-2.41-.37-3.61-.05-.69,0-1.39,.23-2.06,.73-1.15,1.4-2.35,2.46-3.26,1.05-.89,2.14-1.7,3.53-1.97,.38-.07,.75-.12,1.1,.08,.05,.07,.22,.11,.04,.22Z" fill="#feb145"/><path d="M22.05,20.42c.06-2.97,.56-5.84,1.92-8.51,.81-1.58,1.91-2.91,3.44-3.86,.27-.17,.53-.35,.87-.34,0,.43-.33,.66-.56,.94-.77,.92-1.55,1.82-2.23,2.8-.64,.92-1.12,1.93-1.36,3.04-.08,.35-.16,.69-.26,.92-.06,.19,.09,.17,0,.15-.02,0-.03-.02-.02-.04,.29-.69,.57-1.38,1.19-1.86,.14,.02,.19,.11,.22,.24,.02,.12,0,.23-.05,.35,1-1.06,2.11-1.96,3.27-2.8,.13-.09,.27-.28,.46-.06,.11,.39-.18,.63-.33,.92-2.73,2.13-4.87,4.74-6.37,7.87-.05,.1-.06,.24-.21,.27Z" fill="#feb145"/><path d="M21.23,13.22c.34,1.16,.41,2.31,.09,3.5-.26,.96-.24,1.96-.35,2.95-.64-1.02-1.17-2.11-1.94-3.05-1.2-1.46-2.58-2.71-4.32-3.51-.12-.06-.22-.16-.33-.24-.32-1.31-.36-2.63,0-3.95,.11-.43,.28-.83,.49-1.21,.37,.09,.26,.4,.26,.63,0,.86,.03,1.71,.22,2.55,.13,.54,.34,1.01,.69,1.44,.72,.88,1.39,1.8,2.2,2.64-.11-.81-.56-1.52-.62-2.33,.02-.12,.06-.23,.19-.28,.35,.06,.44,.37,.57,.63,.45,.85,.94,1.68,1.34,2.61,.51-.43,.65-.97,.87-1.48,.1-.23,.12-.51,.36-.67,.36,.33,.1-.19,.23-.17,.02-.02,.04-.03,.06-.05Z" fill="#feb145"/><path d="M46.53,16.58c1.3-1.82,2.91-3.24,5.1-3.87,.86-.25,1.74-.44,2.57,.14-.21,.22-.53,.19-.76,.36-.72,.29-1.44,.58-2.15,.9-1.71,.77-2.96,1.98-3.69,3.84,.36-.21,.62-.42,.92-.56,.23-.11,.5-.46,.72-.19,.18,.22-.17,.43-.34,.61-.27,.29-.49,.62-.82,1.03,.94-.67,1.91-.95,2.81-1.36,.15-.07,.31-.09,.44,.05-1.24,.76-2.46,1.54-3.5,2.58-.52,.52-1,1.08-1.51,1.78-.12-1.85-.46-3.6,.22-5.31Z" fill="#feb145"/><path d="M51.33,17.54c-.97,.29-1.91,.67-2.79,1.17-.2,.11-.4,.23-.75,.43,.43-.8,.9-1.34,1.4-1.88-.64,.21-1.16,.63-1.86,1.08,.43-1.34,1.09-2.34,2.03-3.17,1.17-1.02,2.62-1.48,4.01-2.05,.34,.48,.33,1.01,.19,1.54-.22,.83-.55,1.61-1.02,2.34-.4,.19-.8,.37-1.2,.56Z" fill="#feda3b"/><path d="M48.46,31.93c-.19-4.67,.72-9.02,3.67-12.79,.24-.31,.44-.66,.66-.99,.33-.22,.68-.39,1.14-.37-.01,.23-.16,.36-.27,.5-2.23,2.93-3.49,6.24-4.02,9.87-.29,2.02-.38,4.07-.98,6.05-.27-.07-.14-.29-.14-.43-.04-.61,.04-1.22-.05-1.83Z" fill="#fefefe"/><path d="M37.51,64.45c-.94,1-1.89,2-2.82,3.01-.63,.69-1.21,1.43-1.98,1.98-.52,.37-1.05,.7-1.82,.87,.72-1.1,1.62-1.88,2.46-2.71-1.44,.55-2.65,1.48-3.9,2.34-.15-.71,.22-1.28,.55-1.83,.54-.88,1.38-1.44,2.25-1.93,1.07-.59,2.19-1.06,3.4-1.33,.33-.07,.65-.19,.96-.32,.13-.07,.29,0,.42-.08h.48Z" fill="#72e21e"/><path d="M31.29,10.56c.18-.9-.07-1.81,0-2.69,.1-1.29,.72-2.43,1.49-3.45,.32-.43,.56-.98,1.15-1.16,.1,.22-.04,.39-.14,.55-.67,1.04-1.02,2.19-1.29,3.38-.14,.59,0,1.13,.21,1.78,.5-.66,.97-1.24,1.42-1.83,.14-.19,.24-.42,.52-.46,.09,.01,.16,.06,.2,.14,.11,.47-.22,.83-.31,1.25-.05,.21-.14,.4-.25,.68,1.17-.72,1.88-1.7,2.42-2.83,.13-.27,.2-.56,.34-.82,.08-.15,.19-.3,.34-.05,.1,1.24,.04,2.46-.58,3.58-.68,.53-1.35,1.06-2.03,1.59-.19-.67-.37-.78-1.01-.64-.88,.19-1.66,.63-2.48,.97Z" fill="#feb145"/><path d="M28.15,67.68c-.31-.04-.22-.28-.23-.46-.04-2.33,.21-4.63,.57-6.93,.21-1.33,.43-2.66,.64-3.99,.55-.12,1.1-.25,1.65-.37,.14,.22,.02,.42-.04,.63-.76,2.35-1.21,4.75-1.34,7.22-.04,.76-.18,1.5,.06,2.25-.57,.45-.95,1.04-1.31,1.65Z" fill="#72e21e"/><path d="M32.35,24.84c-.27-.03-.21-.24-.23-.41-.25-2.19-.51-4.37-.81-6.55-.26-1.92-.33-3.85,.42-5.71,.08-.2,.11-.42,.16-.63,.34-.26,.74-.37,1.21-.58-.28,.9-.51,1.73-.67,2.58-.29,1.45-.17,2.89,0,4.33,.13,1.16,.31,2.32,.41,3.49,.08,.96-.13,1.9-.46,2.81-.08,.22-.2,.44-.02,.68Z" fill="#71e21e"/><path d="M20.49,21.86c-1-1.41-1.94-2.88-3.26-4.03-1.81-1.57-3.71-3.01-5.97-3.9-.04-.14-.28-.22-.17-.4,.08-.13,.26-.07,.39-.07,2.03-.03,3.71,.82,5.17,2.12,1.81,1.61,3.05,3.61,3.78,5.92,.04,.11,.04,.23,.05,.35Z" fill="#72e21e"/><path d="M55.04,47.41c-1.37-3.02-3.73-4.8-6.95-5.44-1.3-.26-2.58,0-3.83,.38-.44,.13-.88,.33-1.36,.29,1.74-1.84,3.86-2.28,6.22-1.55,2.96,.91,4.93,2.89,5.95,5.81,.06,.17,.08,.35,.12,.52-.05,.04-.1,.04-.15,0Z" fill="#fefefe"/><path d="M25.64,58.08c-1.05,.05-2.12-.1-3.31,.24,.57,.22,1.05,.21,1.5,.47-.35,.33-.73,.18-1.05,.08-.67-.2-1.34-.41-1.97-.69-.99-.44-2.02-.56-3.08-.56,2-1.49,4.79-1.98,6.95-.71,.46,.27,.77,.68,.96,1.19Z" fill="#71e21e"/><path d="M4.53,11.67c.02,.51,.24,.96,.5,1.39,1.09,1.85,2.8,2.95,4.81,3.89-.48-1.03-1.05-1.87-1.6-2.76,.42,.43,.82,.84,1.22,1.25,.06-.05,.12-.1,.18-.16-.04-.38-.32-.68-.44-1.04-.17-.51-.11-.94,.36-1.26-.03,.43,.2,.75,.44,1.08,.99,1.37,1.64,3.31,1.59,4.82-1.23-1.14-2.67-1.76-4.16-2.3-.62-.57-1.32-1.05-1.83-1.75-.6-.81-1.03-1.68-1.17-2.68-.02-.17-.06-.36,.1-.5Z" fill="#feb145"/><path d="M42.09,13.94c1.23-1.84,2.69-3.44,4.62-4.57,.84-.49,1.73-.78,2.68-.94,.26-.04,.52-.02,.75,.13,.02,.06,0,.11-.03,.16-.34,.27-.76,.34-1.15,.49-1.6,.59-2.98,1.51-4.28,2.75,.69-.2,1.29-.38,1.91-.52,.31-.07,.31-.07,.57,.27,.09,.11,.22,.03,.32,0,.66-.18,1.25-.52,1.84-.86,.18-.11,.34-.3,.59-.15,.23,.46-.1,.82-.2,1.22-.06,.23-.25,.39-.3,.63-.13,.14-.3,.18-.48,.21-.24,.12-.47,.2-.71,0-.21-.38-.51-.47-.94-.4-1.81,.28-3.5,.92-5.18,1.59Z" fill="#feb145"/><path d="M45.06,24.59c-.42-1.73-.95-3.44-1.17-5.22-.25-1.98,.51-3.7,1.36-5.41,.41-.22,.86-.25,1.39-.41-.72,1.3-1.21,2.58-1.48,3.96-.19,.99-.14,1.99-.05,2.97,.13,1.37,.12,2.74-.04,4.1Z" fill="#fefefe"/><path d="M11.87,21.85c-.18,.15-.24-.05-.32-.13-1.73-1.66-3.74-2.86-5.95-3.77-.07-.03-.15-.03-.23-.05-.42-.41,.08-.24,.17-.24,1.52-.05,2.91,.33,4.18,1.17,.52,.34,1,.72,1.43,1.17,.49,.52,.69,1.15,.72,1.84Z" fill="#71e21e"/><path d="M36.72,64.58c-.31,.28-.7,.36-1.09,.46-1.66,.41-3.21,1.06-4.57,2.14-.91,.72-1.4,1.67-1.63,2.77-.06,.07-.12,.14-.19,.21-.56-.64-.57-1.29-.14-2.01,.76-1.27,1.89-2.07,3.22-2.62,1.27-.52,2.58-.91,3.96-.98,.15-.06,.29-.08,.42,.03Z" fill="#fdfefd"/><path d="M10.68,12.37c-1.23-1.27-2.67-2.13-4.45-2.35-.37-.05-.71,.06-1.07,.05,.82-1.04,1.91-.97,2.98-.61,1.61,.54,2.83,1.65,3.93,2.9-.46,0-.93,0-1.39,0Z" fill="#fefefd"/><path d="M29.46,66.02c-.35-.33-.34-.77-.32-1.19,.16-3.04,.56-6.04,1.64-8.91,.09-.04,.17-.1,.26-.13,.14-.05,.3-.2,.44-.08,.15,.13-.01,.29-.06,.42-.99,2.82-1.61,5.71-1.82,8.69-.03,.4-.09,.79-.13,1.19Z" fill="#fdfefd"/><path d="M40.71,8.9c-.01-.07-.03-.15-.04-.22,.84,.19,1.29,.71,1.3,1.52,.02,1.07-.3,2.04-.89,2.91-.47,.71-.98,1.4-1.47,2.09-.05,.02-.1,.04-.15,.06-.12,.03-.18,0-.15-.14,.58-1.24,1.24-2.45,1.49-3.81,.15-.81,.2-1.62-.09-2.41Z" fill="#fefefd"/><path d="M31.65,45.97c.15,1.91-.67,3.44-1.84,4.84,.21-.68,.42-1.35,.61-2.03,.25-.92,.01-1.79-.25-2.67-.06-.21-.13-.41-.2-.62,.31,.04,.54,.22,.8,.37,.27,.15,.56,.31,.88,.11Z" fill="#41c638"/><path d="M52.53,16.98c-.16-.11-.02-.19,.02-.29,.26-.59,.53-1.19,.77-1.79,.24-.59,.12-1.2,.04-1.8,.22-.28,.53-.26,.84-.26,.56,.86,.44,2.18-.28,3.11-.16,.2-.32,.4-.48,.61-.26,.23-.58,.34-.91,.42Z" fill="#fefefc"/><path d="M31.66,82.68c-.47-.31-.71-.8-.94-1.28-1.13-2.37-1.77-4.87-1.84-7.5,.05,0,.09,.02,.14,.03,.12,.11,.21,.24,.23,.4,.27,1.75,.77,3.44,1.41,5.08,.04,.09,.03,.2,.07,.29,.12,.14,.05,.37,.25,.46,.22,.84,.45,1.68,.67,2.52Z" fill="#72e21f"/><path d="M20.02,44.42c-.72,.8-1.68,1.1-2.68,1.31-1.15,.24-2.3,.13-3.44,0-.07-.06-.19-.09-.12-.23,1.48-.11,2.91-.46,4.31-.97,.43,.22,.87,.12,1.31,0,.2-.05,.42-.08,.63-.12Z" fill="#41c638"/><path d="M28.62,12.29c.09-.33,.18-.65,.26-.98-.09-.28,.02-.55,.09-.82,.19-.75,.34-1.51,.35-2.29,0-.21-.01-.45,.27-.53,.73,.67,.92,1.86,.45,2.84-.19,.39-.41,.77-.61,1.16-.27,.21-.54,.41-.81,.62Z" fill="#fefdfc"/><path d="M30.7,79.79c-.78-1.72-1.32-3.52-1.58-5.4-.02-.16-.07-.31-.1-.47,.26,.01,.43-.17,.67-.35,.21,2.08,.68,4.08,1.12,6.08,.07,.13,0,.14-.11,.13Z" fill="#fdfdfc"/><path d="M42.55,43.09c.41,.37,.94,.27,1.41,.35,.68,.11,1.37,.18,2.07,.18-1.79,.43-3.57,.87-5.4,.19,.19-.21,.45-.13,.67-.11,.55,.05,.96-.15,1.25-.61Z" fill="#41c738"/><path d="M48.46,31.93c.21,.49,.07,1.01,.11,1.52,.02,.25-.09,.51,.08,.75-.03,.17-.06,.33-.1,.5-.24-.21-.09-.47-.1-.71-.01-.68,0-1.37,0-2.05Z" fill="#d5edd2"/><path d="M48.21,12.74c.24,0,.47,0,.71,0-.19,.24-.43,.41-.74,.48,.01-.16,.02-.32,.03-.48Z" fill="#fcd238"/><path d="M36.72,64.58c-.14,0-.28-.02-.42-.03,.23-.15,.48-.12,.73-.09-.08,.11-.19,.11-.31,.11Z" fill="#d8eed5"/><path d="M55.04,47.41s.1,0,.15,0c.16,.13,.09,.29,.07,.44-.14-.12-.22-.26-.22-.45Z" fill="#c1ebac"/><path d="M25.66,72.13c.16,.2,.17,.39,0,.59,0-.2,0-.39,0-.59Z" fill="#5dc355"/><path d="M30.7,79.79s.07-.09,.11-.13c.18,.12,.08,.35,.18,.5-.24,0-.22-.22-.28-.37Z" fill="#e8f6e3"/><path d="M39.31,15.13s.1,.09,.15,.14c-.08,.15-.21,.21-.36,.24,.02-.16,.08-.29,.21-.38Z" fill="#fefae9"/><path d="M17.73,12.62c.26,.89,.52,1.78,.77,2.68-.69-.49-1.2-1.13-1.71-1.76-.23-.28-.41-.6-.66-.85-.99-.98-1.1-2.24-1.17-3.52-.03-.49,.13-.99-.11-1.46,.34-.73,.85-1.3,1.57-1.66,.96,.07,1.67,.6,2.24,1.31,1.09,1.36,1.6,3.01,2.11,4.64,.11,.36,.17,.73,.28,1.09,.02,.13,.02,.25-.08,.35-.29,.69-.45,1.44-.92,2.05-.23,.3-.36,.48-.61-.06-.47-1.04-1.07-2.03-1.61-3.04-.13-.06-.21-.17-.25-.27,.1,.13,.02,.34,.13,.51Z" fill="#feda3b"/><path d="M22.4,2.9c.43-.52,.85-1.05,1.57-1.19,.57,.09,.96,.45,1.3,.87,.97,1.18,1.55,2.52,1.72,4.05-.08,.41-.43,.55-.74,.72-.75,.4-1.57,.69-2.18,1.34-.08,.08-.2,.16-.32,.1-.15-.08-.14-.24-.11-.37,.14-.58,.23-1.17,.45-1.73,.09-.15,.17-.29,.21-.42-.07,.1-.1,.27-.21,.4-.26,.86-.75,1.62-1.09,2.45-.07,.18-.17,.41-.4,.39-.24-.02-.25-.28-.31-.45-.39-1.19-.58-2.39-.34-3.64,.11-.56,0-1.15,.16-1.72,.07-.27,.13-.54,.29-.78Z" fill="#feda3b"/><path d="M37.22,4.94c-.53,1.72-1.44,3.15-3.16,4.11,.26-.81,.49-1.5,.71-2.19,.04-.07,.06-.15,0-.2-.05-.04-.09,.05-.13,.07-.56,.72-1.12,1.43-1.67,2.15-.09,.12-.15,.32-.34,.29-.16-.03-.12-.22-.17-.35-.23-.72-.23-1.42-.03-2.15,.33-1.21,.78-2.37,1.48-3.42,.78-.72,1.66-1.15,2.76-.86,.06,.41,.29,.77,.41,1.16,.14,.45,.39,.9,.12,1.39Z" fill="#feda3b"/><path d="M29.6,7.66c-.25,.57-.06,1.19-.21,1.78-.17,.62-.21,1.27-.5,1.86-1.37,.99-2.67,2.07-3.97,3.43,.12-.38,.18-.59,.25-.8,.11-.17,.02-.39,.14-.52-.05,.09-.12,.22-.26,.28l-1.23,1.95c.15-1.27,.46-2.47,1.1-3.57,.94-1.6,2.26-2.91,3.36-4.37,.43-.21,.87-.25,1.31-.04Z" fill="#feda3b"/><path d="M24.21,6.63c-.16,.67-.31,1.35-.5,2.17,.33-.29,.56-.51,.81-.7,.53-.41,1.16-.6,1.76-.88,.28-.13,.51-.31,.65-.59,.15,.1,.1,.22,.04,.35-1.49,.97-2.68,2.23-3.57,3.76-.38,.65-.71,1.33-1.09,2.05-.48-2.15-1.53-4.16-1.22-6.43,.17-1.25,.5-2.45,1.31-3.46-.29,2.17-.74,4.35,.23,6.54,.49-.98,.97-1.96,1.46-2.93,.11-.03,.17,0,.12,.12Z" fill="#feb145"/><path d="M9.46,6.51c.17-.83,.4-1.63,1.34-1.93,.32-.08,.57,.08,.82,.23,.74,.44,1.32,1.06,1.89,1.69,.13,.15,.23,.32,.16,.54-.51,.4-.76,.94-.94,1.55-.07,.23-.09,.6-.41,.58-.31-.02-.28-.39-.37-.61-.1-.26-.2-.52-.21-.65,.02,.31,.04,.78,.11,1.24,.03,.21,.07,.48-.17,.59-.21,.09-.36-.11-.5-.25-.85-.83-1.58-1.73-1.73-2.97Z" fill="#feda3b"/><path d="M44.24,9.75c-.24,.39-.67,.55-1.04,.96-.03-.66-.09-1.22-.4-1.7-.07-.12-.11-.28-.21-.36-.66-.46-.51-1.01-.27-1.63,.45-1.21,1.06-2.3,2.14-3.08,.52-.38,1.06-.61,1.71-.55,.08,.29,.2,.57,.13,.88-.42,.39-.93,.68-1.32,1.11-.63,.7-1.06,1.49-1.21,2.39-.05,.1,.11,.05,.03,.05-.03,0-.04-.02-.02-.06,.17-.37,.43-.67,.74-.92,.09-.07,.2-.15,.32-.06,.09,.07,.08,.19,.04,.28-.22,.56-.28,1.16-.49,1.72-.13,.33-.19,.64-.14,.99Z" fill="#feb145"/><path d="M44.24,9.75c-.17-.16-.32-.36-.19-.58,.42-.72,.32-1.6,.87-2.43-.65,.33-.83,.86-1.22,1.2-.31-1,1.15-3.14,2.55-3.73,.2,.05,.3,.2,.36,.37,.38,1.1,.76,2.2,.38,3.38-1.01,.44-1.89,1.1-2.75,1.78Z" fill="#feda3b"/><path d="M9.46,6.51c.44,1.24,1.12,2.32,2.26,3.22,.03-.84-.24-1.61-.04-2.52,.23,.71,.41,1.29,.63,1.96,.5-.76,.35-1.84,1.36-2.18,.13-.05,.17,.04,.23,.12-.72,1.43-1,2.94-.91,4.58-.79-.93-1.8-1.62-2.71-2.42-.81-.71-.86-1.75-.81-2.76Z" fill="#feb145"/><path d="M37.22,4.94c-.06-.7-.18-1.37-.57-1.98-.11-.18-.23-.39,.03-.57,.64,.19,1.05,.66,1.29,1.24,.6,1.44,.39,2.88-.12,4.29-.15,.42-.72,.44-1.05,.72,.28-1.22,.55-2.43,.41-3.7Z" fill="#fefefd"/><path d="M20.98,13.1c-.38-1.15-.74-2.3-1.19-3.43-.66-1.66-1.58-3.03-3.37-3.63,.73-.31,1.35-.09,1.92,.41,.88,.78,1.36,1.79,1.78,2.86,.49,1.27,.84,2.58,1.1,3.91,0,0-.05-.02-.05-.02-.11,.04-.16-.02-.2-.11Z" fill="#fefdfc"/><path d="M50.09,8.66s.04-.06,.04-.1c.85,.14,1.22,.73,1,1.56-.27,1.04-.71,1.93-1.74,2.42-.13-.35,.18-.58,.25-.88,.07-.32,.25-.61,.24-.95-.01-.69-.02-1.38,.21-2.04Z" fill="#fefefc"/><path d="M47,7.98c-.13-.07-.12-.19-.1-.31,.24-1.23-.14-2.35-.64-3.44-.07-.27-.25-.53-.1-.83,.83,.09,1.27,.67,1.41,1.39,.22,1.11,.14,2.23-.57,3.2Z" fill="#fefefc"/><path d="M26.97,6.97c-.01-.12-.02-.23-.04-.35-.27-1.41-.78-2.71-1.68-3.85-.36-.45-.81-.75-1.28-1.06,.68-.25,1.13-.15,1.63,.45,.87,1.03,1.16,2.28,1.35,3.57,.06,.4,.33,.83,.01,1.24Z" fill="#fefdfb"/><path d="M13.89,7.11c-.08-.04-.15-.08-.23-.12-.73-1.06-1.64-1.93-2.86-2.41,.73-.32,1.37-.08,1.98,.34,.58,.39,.93,.96,1.21,1.58,.1,.22,.06,.42-.1,.61Z" fill="#fefdfc"/><path d="M43.4,24.86c.06,.95-.21,1.65-1.05,2.09-.68,.36-1.29,.15-1.86-.2-1.03-.62-1.67-2.23-1.37-3.39,.19-.74,.64-1.31,1.41-1.47,.91-.19,1.64,.26,2.19,.94,.49,.6,.79,1.29,.68,2.03Z" fill="#72e21e"/><path d="M36.79,28.3c-.48,.39-1.01,.7-1.44,1.26,.57,.12,1.08,.22,1.59,.33,.43,.09,.71,.35,.64,.79-.07,.48-.45,.65-.89,.59-.83-.11-1.65-.23-2.47-.4-.77-.16-1.02-.77-.59-1.44,.52-.81,1.26-1.42,1.98-2.05,.36-.19,.74-.32,1.09,0,.29,.27,.21,.6,.09,.93Z" fill="#553826"/><path d="M38.96,34.71c-.33-.09-.66-.15-.98-.27-.43-.17-.73-.49-.77-.98-.03-.51,.22-.89,.64-1.14,.27-.16,.58-.26,.87-.39,.48,.02,.95-.09,1.43,0,.7,.14,1.25,.62,1.31,1.15,.07,.54-.34,1.07-1.04,1.38-.47,.2-.96,.23-1.46,.26Z" fill="#feacb1"/><path d="M45.56,35.08c0,.67-.67,1.39-1.29,1.4-.43,.01-.98-.51-.99-.94-.01-.7,.72-1.46,1.39-1.45,.51,.01,.89,.43,.89,.98Z" fill="#71e21e"/><path d="M29.72,39.75c-1.44,0-2.67-1.2-2.88-2.78-.07-.55-.16-1.1-.02-1.66,.05-.21,.03-.4-.14-.6-.31-.36-.16-.73,.31-.73,.91,0,1.66-.38,2.39-.85,.47-.3,.87-.31,1.31,.04,.72,.56,1.55,.81,2.45,.79,.25,0,.5,0,.63,.26,.13,.26-.06,.41-.22,.61-.24,.3-.15,.72-.21,1.08-.21,1.39-.82,2.53-1.99,3.34-.49,.33-1.03,.53-1.63,.49Z" fill="#553826"/><path d="M26.73,29.59c-.03,.59-.11,1.12-.43,1.58-.55,.81-1.53,.85-2.1,.05-.71-1-.74-2.1-.24-3.18,.43-.95,1.47-1.04,2.16-.25,.46,.53,.55,1.18,.61,1.8Z" fill="#553826"/><path d="M21.69,31.91c.57-.04,1.08,.1,1.56,.38,.42,.25,.69,.62,.67,1.12-.02,.51-.33,.85-.79,1.03-.94,.38-1.87,.33-2.76-.18-.44-.25-.75-.62-.7-1.16,.04-.51,.38-.81,.82-1.02,.39-.19,.79-.25,1.2-.18Z" fill="#feacb1"/><path d="M13.77,45.5c.04,.08,.08,.15,.12,.23-.17,0-.36,.06-.53-.15,.13-.12,.28-.07,.42-.07Z" fill="#4bcc34"/><path d="M36.68,14.78s-.08-.08-.13-.12c.03-.26,.2-.4,.47-.56-.06,.3-.17,.51-.34,.69Z" fill="#feb843"/><path d="M25.04,13.7c.13-.21,.26-.43,.4-.64,.04,.35-.13,.61-.27,.88,0-.1-.02-.19-.12-.24Z" fill="#febb43"/><path d="M17.73,12.62c-.13-.27-.26-.55-.39-.82,.33,.09,.37,.37,.51,.58-.1,.05-.12,.14-.12,.24Z" fill="#febb42"/><path d="M20.98,13.1c.07,.04,.13,.07,.2,.11,.02,.17,.03,.33,.05,.51-.21-.01-.12-.24-.25-.28,0-.11,0-.22,0-.33Z" fill="#fef1da"/><path d="M34.64,6.74c.01-.19,.1-.33,.32-.41-.02,.21-.05,.39-.2,.54-.04-.04-.08-.08-.12-.12Z" fill="#febd42"/><path d="M50.09,8.66c-.02,.68,.09,1.38-.21,2.04-.58,.31-1.15,.62-1.73,.92-.41,.21-.83,.36-1.3,.25-.02-.23,.27-.18,.29-.43-.91,.24-1.79,.47-2.68,.7,1.5-1.78,3.44-2.83,5.62-3.48Z" fill="#feda3b"/><path d="M24.21,6.63s-.08-.08-.12-.12c.09-.17,.18-.34,.32-.63,.03,.37-.06,.57-.2,.75Z" fill="#feba43"/><path d="M27.7,36.06c0-1.06,.05-1.02,.97-1.51,.87-.46,1.64-.79,2.5-.01,.21,.19,.6,.21,.91,.27,.26,.04,.41,.14,.39,.42-.1,1.35-.51,2.56-1.75,3.29-1.03,.61-2.05,.28-2.62-.79-.31-.58-.41-1-.41-1.66Z" fill="#e52c20"/></svg>