<?xml version="1.0" encoding="UTF-8"?><svg id="Layer_1" xmlns="http://www.w3.org/2000/svg" viewBox="0 0 42.73 39.28"><path d="M32.37,32.4c1.26,.16,2.52,.29,3.78,.48,1.82,.29,3.69,.28,5.45,.93,.19,.07,.38,.13,.55,.24,.58,.37,.6,1.08,.04,1.48-.77,.55-1.69,.66-2.59,.82-.53,.09-1.06,.17-1.6,.14-.25-.01-.5,.05-.63,.27-.45,.78-1.22,1.06-2.01,1.27-1.83,.49-3.69,.73-5.58,.86-3.54,.24-7.08,.39-10.62,.32-3.02-.06-6.04-.17-9.04-.56-1.74-.22-3.47-.43-5.14-.96-1.02-.33-2.08-.61-2.65-1.67-.1-.2-.34-.2-.52-.25-.41-.1-.8-.24-1.14-.49-.66-.48-.67-1.27-.02-1.75,.76-.57,1.64-.81,2.56-.89,1.78-.16,3.56-.29,5.35-.39,.56-.03,1.15,.06,1.69-.2,.23-.07,.38,.09,.53,.22,2.19,1.82,4.79,2.57,7.53,2.95,2.32,.32,4.65,.34,6.96,.01,2.34-.32,4.54-1.08,6.45-2.52,.2-.15,.39-.35,.69-.3Z" opacity=".3"/><path d="M32.37,32.4c-1.98,1.58-4.25,2.51-6.73,2.95-1.38,.24-2.77,.24-4.15,.25-1.99,.01-3.96-.27-5.89-.75-2.02-.5-3.79-1.48-5.38-2.81-1.75-1.6-3.26-3.39-3.95-5.71-.95-3.19-.55-6.31,.65-9.37,1.13-2.88,2.94-5.29,5.11-7.45,.42,.12,.66,.44,.87,.8-.29,.58-.79,1-1.2,1.47-1.83,2.08-3.26,4.4-4.03,7.07-.87,3.06-1,6.13,.72,8.97,1.77,2.93,4.29,4.94,7.68,5.77,2.62,.64,5.27,.82,7.96,.61,1.93-.15,3.77-.63,5.51-1.49,1.65-.81,2.93-2.06,4.1-3.44,.1-.14,.19-.29,.28-.44,1.34-1.75,1.9-3.77,1.88-5.93-.02-2.51-.73-4.87-1.91-7.09-1.11-2.1-2.64-3.88-4.29-5.57-.27-.28-.63-.5-.75-.91,.18-.39,.48-.65,.9-.77,3.15,3.02,5.81,6.36,6.87,10.72,.94,3.88,.6,7.53-1.98,10.77-.68,.86-1.46,1.63-2.27,2.37Z" fill="#553826"/><path d="M29.75,8.54c-.28,.24-.56,.49-.85,.73-.34,.38-.77,.29-1.17,.18-1.34-.35-2.61-.89-3.71-1.75-.32-.25-.64-.43-1.04-.23-.96,.49-1.93,.42-2.9,.06-.41-.15-.78-.13-1.13,.14-.97,.69-1.89,1.45-2.96,1.99-.53,.27-1.08,.51-1.65,.68-.51,.11-1.03,.3-1.49-.12-.39-.11-.55-.48-.82-.72,1.2-1.37,2.59-2.53,3.95-3.72,1.76-1.54,3.43-3.15,4.66-5.17,.43-.71,.98-.78,1.4-.09,1.85,3.07,4.7,5.17,7.26,7.55,.16,.15,.3,.31,.46,.47Z" fill="#916e4f"/><path d="M14.41,10.23c1.65-.61,3.07-1.63,4.48-2.65,.22,0,.37,.13,.53,.25,1.08,.75,2.22,.83,3.39,.23,.34-.18,.61-.19,.93,.04,1.02,.74,2.17,1.18,3.42,1.36,.73,.11,1.31,.43,1.83,.93,2.89,2.8,5.05,6.07,6.27,9.91,.45,1.41,.57,2.9,.23,4.38-.32,1.42-.62,2.85-1.47,4.08-.14,.16-.19,.37-.32,.53-.02,.08-.02,.17-.06,.22-1.13,1.21-2.3,2.39-3.78,3.19-.07,.04-.15,.04-.23,.07-3.57,1.31-7.06,.99-10.45-.62-3.74-1.78-6.15-4.73-7.45-8.64-.11-.33-.27-.67-.15-1.05,.13-.18,.32-.23,.51-.27,.18-.04,.35-.09,.51-.16,.57-.27,.93-.76,.87-1.17-.07-.45-.65-.91-1.23-.99-.41-.06-.84,.11-1.22-.16,.17-.78,.07-1.58,.19-2.37,.35-2.28,1.1-4.4,2.39-6.31,.21-.31,.42-.63,.79-.79Z" fill="#875d42"/><path d="M14.41,10.23c-1.67,2.13-2.67,4.53-3.02,7.22-.07,.54-.09,1.07-.09,1.6,0,.25-.02,.48-.25,.63-.14,.26-.42,.28-.65,.4-.56,.29-.79,.65-.74,1.18,.06,.55,.47,.74,.91,.92,.35,.14,.76,.03,1.08,.29,.38,2.04,1.31,3.83,2.55,5.46,1.62,2.12,3.69,3.66,6.2,4.6,2.18,.82,4.43,1,6.74,.75,.86-.09,1.66-.37,2.5-.5-1.28,.82-2.74,1.15-4.21,1.42-1.62,.31-3.28,.34-4.92,.23-3.32-.23-6.58-.77-9.25-3-2.2-1.85-3.9-4.07-4.27-7.03-.33-2.64,.16-5.17,1.24-7.6,1.07-2.4,2.62-4.44,4.42-6.32,.07-.07,.12-.16,.18-.24,.52,.16,1.04,.07,1.57,0Z" fill="#754c33"/><path d="M33.94,28.8c.69-1.38,1.15-2.83,1.42-4.35,.33-1.8,.03-3.53-.62-5.21-1.32-3.37-3.29-6.31-5.92-8.81-.49-.47-1.05-.74-1.74-.84-1.3-.19-2.5-.66-3.56-1.45-.14-.1-.22-.23-.45-.08-1.54,1-3.23,.53-4.2-.49,.28-.32,.59-.39,1.01-.25,1.07,.37,2.15,.55,3.21-.08,.28-.17,.56-.02,.81,.19,1.04,.86,2.26,1.38,3.53,1.8,.48,.16,.97,.19,1.46,.04,1.55,1.61,3.12,3.19,4.33,5.09,1.62,2.56,2.66,5.32,2.7,8.38,.03,2.27-.47,4.4-1.98,6.2-.06-.05-.07-.1-.01-.15Z" fill="#fefefe"/><path d="M33.94,28.8s0,.1,.01,.15c-.02,.16-.09,.28-.25,.34,.01-.2,.11-.35,.24-.49Z" fill="#f9f7f7"/><path d="M26.03,6.74c.41,.39,.95,.63,1.31,1.23-.98-.36-1.86-.72-2.58-1.36-.69-.61-1.43-.77-2.25-.36-.59,.29-1.18,.34-1.79,.12-1.16-.43-2.16-.24-3.07,.64-.45,.43-1.04,.72-1.57,1.08-.35-.18-.03-.32,.06-.39,.3-.26,.57-.57,.92-.76,1.11-.62,1.8-1.66,2.64-2.56,.58-.62,.98-1.4,1.64-1.96,.24,0,.34,.19,.45,.35,1,1.41,2.32,2.49,3.64,3.57,.22,.1,.38,.3,.59,.42Z" fill="#c89a75"/><path d="M21.37,2.42c-.98,1.45-2.1,2.78-3.35,3.99-.52,.5-1.15,.88-1.73,1.32-.11,.08-.32,.12-.2,.34-.52,.37-1.1,.6-1.71,.79,2.3-2.22,4.84-4.19,6.74-6.79,.27-.02,.28,.15,.25,.35Z" fill="#b98d6a"/><path d="M21.37,2.42c-.08-.12-.17-.23-.25-.35,.11-.18,.16-.63,.47-.16,1.1,1.65,2.49,3.05,3.96,4.37,.02,.1,0,.17-.12,.11-1.61-1.06-2.92-2.43-4.06-3.98Z" fill="#fdfcfb"/><path d="M25.43,6.4s.08-.07,.12-.11c.2,.11,.38,.24,.48,.45-.26,0-.42-.2-.6-.34Z" fill="#e8ded6"/><path d="M26.01,11.67c0-1.15,.86-1.75,1.94-1.35,1.08,.4,1.85,1.68,1.68,2.82-.12,.83-.89,1.32-1.73,1.09-1.07-.29-1.89-1.4-1.89-2.56Z" fill="#f3d7c2"/><path d="M11.65,22.46c-.45-.02-.91-.03-1.34-.22-.45-.2-.83-.46-.86-1.02-.03-.57,.24-.95,.71-1.19,.28-.14,.58-.23,.88-.35,.38,0,.76-.02,1.13,0,.7,.04,1.37,.55,1.48,1.1,.11,.53-.32,1.14-1.04,1.43-.31,.12-.65,.18-.97,.26Z" fill="#feacb1"/><path d="M31.24,19.68c.51-.07,.98,.03,1.41,.33,.7,.5,.75,1.24,.12,1.82-.76,.69-2.32,.82-3.2,.27-.75-.48-.8-1.4-.08-1.94,.51-.38,1.1-.53,1.75-.48Z" fill="#feacb1"/><path d="M13.39,17.05c.39-.04,.73,.21,1.07,.4,.69,.38,1.25,.92,1.78,1.49,.29,.31,.36,.66,.16,1.04-.21,.41-.6,.34-.95,.28-.19-.04-.38-.12-.56-.21-.65-.35-1.3-.7-1.93-1.09-.42-.27-.82-.59-.65-1.2,.15-.54,.52-.71,1.07-.7Z" fill="#553826"/><path d="M27.45,20.32c-.29,0-.52-.07-.66-.34-.16-.31-.16-.64,.06-.9,.72-.85,1.55-1.56,2.59-1.97,.52-.2,1.12,0,1.34,.38,.27,.48,.22,.95-.33,1.3-.83,.54-1.69,1.05-2.61,1.44-.13,.05-.27,.06-.4,.09Z" fill="#553826"/><path d="M23.33,22.46c-.56-.01-.98-.18-1.34-.47-.3-.24-.52-.27-.87,0-.51,.41-1.12,.68-1.82,.47-.3-.09-.52-.27-.43-.6,.09-.36,.35-.34,.66-.25,.47,.15,.85-.12,1.19-.39,.79-.63,.77-.63,1.64-.02,.33,.23,.67,.49,1.15,.33,.24-.08,.6-.16,.7,.22,.1,.38-.18,.53-.5,.61-.15,.04-.31,.08-.38,.09Z" fill="#553826"/><path d="M31.68,15.37c0,.4-.23,.58-.6,.59-.42,.02-.99-.58-.94-1,.04-.36,.25-.64,.66-.64,.43,0,.89,.58,.89,1.05Z" fill="#f1d5c0"/></svg>